%TF.GenerationSoftware,KiCad,Pcbnew,5.1.9+dfsg1-1*%
%TF.CreationDate,2021-02-28T18:52:37-05:00*%
%TF.ProjectId,incubator_pcb,696e6375-6261-4746-9f72-5f7063622e6b,rev?*%
%TF.SameCoordinates,Original*%
%TF.FileFunction,Legend,Top*%
%TF.FilePolarity,Positive*%
%FSLAX46Y46*%
G04 Gerber Fmt 4.6, Leading zero omitted, Abs format (unit mm)*
G04 Created by KiCad (PCBNEW 5.1.9+dfsg1-1) date 2021-02-28 18:52:37*
%MOMM*%
%LPD*%
G01*
G04 APERTURE LIST*
%ADD10C,0.150000*%
%ADD11C,0.120000*%
G04 APERTURE END LIST*
D10*
X51968476Y-125166380D02*
X51968476Y-124166380D01*
X52539904Y-125166380D01*
X52539904Y-124166380D01*
X53206571Y-124690190D02*
X53206571Y-125166380D01*
X52873238Y-124166380D02*
X53206571Y-124690190D01*
X53539904Y-124166380D01*
X54444666Y-125071142D02*
X54397047Y-125118761D01*
X54254190Y-125166380D01*
X54158952Y-125166380D01*
X54016095Y-125118761D01*
X53920857Y-125023523D01*
X53873238Y-124928285D01*
X53825619Y-124737809D01*
X53825619Y-124594952D01*
X53873238Y-124404476D01*
X53920857Y-124309238D01*
X54016095Y-124214000D01*
X54158952Y-124166380D01*
X54254190Y-124166380D01*
X54397047Y-124214000D01*
X54444666Y-124261619D01*
X55825619Y-124166380D02*
X56016095Y-124166380D01*
X56111333Y-124214000D01*
X56206571Y-124309238D01*
X56254190Y-124499714D01*
X56254190Y-124833047D01*
X56206571Y-125023523D01*
X56111333Y-125118761D01*
X56016095Y-125166380D01*
X55825619Y-125166380D01*
X55730380Y-125118761D01*
X55635142Y-125023523D01*
X55587523Y-124833047D01*
X55587523Y-124499714D01*
X55635142Y-124309238D01*
X55730380Y-124214000D01*
X55825619Y-124166380D01*
X56682761Y-124499714D02*
X56682761Y-125499714D01*
X56682761Y-124547333D02*
X56777999Y-124499714D01*
X56968476Y-124499714D01*
X57063714Y-124547333D01*
X57111333Y-124594952D01*
X57158952Y-124690190D01*
X57158952Y-124975904D01*
X57111333Y-125071142D01*
X57063714Y-125118761D01*
X56968476Y-125166380D01*
X56777999Y-125166380D01*
X56682761Y-125118761D01*
X57968476Y-125118761D02*
X57873238Y-125166380D01*
X57682761Y-125166380D01*
X57587523Y-125118761D01*
X57539904Y-125023523D01*
X57539904Y-124642571D01*
X57587523Y-124547333D01*
X57682761Y-124499714D01*
X57873238Y-124499714D01*
X57968476Y-124547333D01*
X58016095Y-124642571D01*
X58016095Y-124737809D01*
X57539904Y-124833047D01*
X58444666Y-124499714D02*
X58444666Y-125166380D01*
X58444666Y-124594952D02*
X58492285Y-124547333D01*
X58587523Y-124499714D01*
X58730380Y-124499714D01*
X58825619Y-124547333D01*
X58873238Y-124642571D01*
X58873238Y-125166380D01*
X60111333Y-125166380D02*
X60111333Y-124166380D01*
X60492285Y-124166380D01*
X60587523Y-124214000D01*
X60635142Y-124261619D01*
X60682761Y-124356857D01*
X60682761Y-124499714D01*
X60635142Y-124594952D01*
X60587523Y-124642571D01*
X60492285Y-124690190D01*
X60111333Y-124690190D01*
X61254190Y-125166380D02*
X61158952Y-125118761D01*
X61111333Y-125023523D01*
X61111333Y-124166380D01*
X62063714Y-125166380D02*
X62063714Y-124642571D01*
X62016095Y-124547333D01*
X61920857Y-124499714D01*
X61730380Y-124499714D01*
X61635142Y-124547333D01*
X62063714Y-125118761D02*
X61968476Y-125166380D01*
X61730380Y-125166380D01*
X61635142Y-125118761D01*
X61587523Y-125023523D01*
X61587523Y-124928285D01*
X61635142Y-124833047D01*
X61730380Y-124785428D01*
X61968476Y-124785428D01*
X62063714Y-124737809D01*
X62539904Y-124499714D02*
X62539904Y-125166380D01*
X62539904Y-124594952D02*
X62587523Y-124547333D01*
X62682761Y-124499714D01*
X62825619Y-124499714D01*
X62920857Y-124547333D01*
X62968476Y-124642571D01*
X62968476Y-125166380D01*
X63301809Y-124499714D02*
X63682761Y-124499714D01*
X63444666Y-124166380D02*
X63444666Y-125023523D01*
X63492285Y-125118761D01*
X63587523Y-125166380D01*
X63682761Y-125166380D01*
X64777999Y-125166380D02*
X64777999Y-124166380D01*
X65254190Y-124499714D02*
X65254190Y-125166380D01*
X65254190Y-124594952D02*
X65301809Y-124547333D01*
X65397047Y-124499714D01*
X65539904Y-124499714D01*
X65635142Y-124547333D01*
X65682761Y-124642571D01*
X65682761Y-125166380D01*
X66587523Y-125118761D02*
X66492285Y-125166380D01*
X66301809Y-125166380D01*
X66206571Y-125118761D01*
X66158952Y-125071142D01*
X66111333Y-124975904D01*
X66111333Y-124690190D01*
X66158952Y-124594952D01*
X66206571Y-124547333D01*
X66301809Y-124499714D01*
X66492285Y-124499714D01*
X66587523Y-124547333D01*
X67444666Y-124499714D02*
X67444666Y-125166380D01*
X67016095Y-124499714D02*
X67016095Y-125023523D01*
X67063714Y-125118761D01*
X67158952Y-125166380D01*
X67301809Y-125166380D01*
X67397047Y-125118761D01*
X67444666Y-125071142D01*
X67920857Y-125166380D02*
X67920857Y-124166380D01*
X67920857Y-124547333D02*
X68016095Y-124499714D01*
X68206571Y-124499714D01*
X68301809Y-124547333D01*
X68349428Y-124594952D01*
X68397047Y-124690190D01*
X68397047Y-124975904D01*
X68349428Y-125071142D01*
X68301809Y-125118761D01*
X68206571Y-125166380D01*
X68016095Y-125166380D01*
X67920857Y-125118761D01*
X69254190Y-125166380D02*
X69254190Y-124642571D01*
X69206571Y-124547333D01*
X69111333Y-124499714D01*
X68920857Y-124499714D01*
X68825619Y-124547333D01*
X69254190Y-125118761D02*
X69158952Y-125166380D01*
X68920857Y-125166380D01*
X68825619Y-125118761D01*
X68778000Y-125023523D01*
X68778000Y-124928285D01*
X68825619Y-124833047D01*
X68920857Y-124785428D01*
X69158952Y-124785428D01*
X69254190Y-124737809D01*
X69587523Y-124499714D02*
X69968476Y-124499714D01*
X69730380Y-124166380D02*
X69730380Y-125023523D01*
X69778000Y-125118761D01*
X69873238Y-125166380D01*
X69968476Y-125166380D01*
X70444666Y-125166380D02*
X70349428Y-125118761D01*
X70301809Y-125071142D01*
X70254190Y-124975904D01*
X70254190Y-124690190D01*
X70301809Y-124594952D01*
X70349428Y-124547333D01*
X70444666Y-124499714D01*
X70587523Y-124499714D01*
X70682761Y-124547333D01*
X70730380Y-124594952D01*
X70777999Y-124690190D01*
X70777999Y-124975904D01*
X70730380Y-125071142D01*
X70682761Y-125118761D01*
X70587523Y-125166380D01*
X70444666Y-125166380D01*
X71206571Y-125166380D02*
X71206571Y-124499714D01*
X71206571Y-124690190D02*
X71254190Y-124594952D01*
X71301809Y-124547333D01*
X71397047Y-124499714D01*
X71492285Y-124499714D01*
X72492285Y-124499714D02*
X72730380Y-125166380D01*
X72968476Y-124499714D01*
X73301809Y-124261619D02*
X73349428Y-124214000D01*
X73444666Y-124166380D01*
X73682761Y-124166380D01*
X73777999Y-124214000D01*
X73825619Y-124261619D01*
X73873238Y-124356857D01*
X73873238Y-124452095D01*
X73825619Y-124594952D01*
X73254190Y-125166380D01*
X73873238Y-125166380D01*
X74492285Y-124166380D02*
X74587523Y-124166380D01*
X74682761Y-124214000D01*
X74730380Y-124261619D01*
X74777999Y-124356857D01*
X74825619Y-124547333D01*
X74825619Y-124785428D01*
X74777999Y-124975904D01*
X74730380Y-125071142D01*
X74682761Y-125118761D01*
X74587523Y-125166380D01*
X74492285Y-125166380D01*
X74397047Y-125118761D01*
X74349428Y-125071142D01*
X74301809Y-124975904D01*
X74254190Y-124785428D01*
X74254190Y-124547333D01*
X74301809Y-124356857D01*
X74349428Y-124261619D01*
X74397047Y-124214000D01*
X74492285Y-124166380D01*
X75206571Y-124261619D02*
X75254190Y-124214000D01*
X75349428Y-124166380D01*
X75587523Y-124166380D01*
X75682761Y-124214000D01*
X75730380Y-124261619D01*
X75777999Y-124356857D01*
X75777999Y-124452095D01*
X75730380Y-124594952D01*
X75158952Y-125166380D01*
X75777999Y-125166380D01*
X76730380Y-125166380D02*
X76158952Y-125166380D01*
X76444666Y-125166380D02*
X76444666Y-124166380D01*
X76349428Y-124309238D01*
X76254190Y-124404476D01*
X76158952Y-124452095D01*
X77349428Y-124166380D02*
X77444666Y-124166380D01*
X77539904Y-124214000D01*
X77587523Y-124261619D01*
X77635142Y-124356857D01*
X77682761Y-124547333D01*
X77682761Y-124785428D01*
X77635142Y-124975904D01*
X77587523Y-125071142D01*
X77539904Y-125118761D01*
X77444666Y-125166380D01*
X77349428Y-125166380D01*
X77254190Y-125118761D01*
X77206571Y-125071142D01*
X77158952Y-124975904D01*
X77111333Y-124785428D01*
X77111333Y-124547333D01*
X77158952Y-124356857D01*
X77206571Y-124261619D01*
X77254190Y-124214000D01*
X77349428Y-124166380D01*
X78063714Y-124261619D02*
X78111333Y-124214000D01*
X78206571Y-124166380D01*
X78444666Y-124166380D01*
X78539904Y-124214000D01*
X78587523Y-124261619D01*
X78635142Y-124356857D01*
X78635142Y-124452095D01*
X78587523Y-124594952D01*
X78016095Y-125166380D01*
X78635142Y-125166380D01*
X18042000Y-125904476D02*
X17994380Y-125999714D01*
X17994380Y-126142571D01*
X18042000Y-126285428D01*
X18137238Y-126380666D01*
X18232476Y-126428285D01*
X18422952Y-126475904D01*
X18565809Y-126475904D01*
X18756285Y-126428285D01*
X18851523Y-126380666D01*
X18946761Y-126285428D01*
X18994380Y-126142571D01*
X18994380Y-126047333D01*
X18946761Y-125904476D01*
X18899142Y-125856857D01*
X18565809Y-125856857D01*
X18565809Y-126047333D01*
X18994380Y-125428285D02*
X17994380Y-125428285D01*
X17994380Y-125047333D01*
X18042000Y-124952095D01*
X18089619Y-124904476D01*
X18184857Y-124856857D01*
X18327714Y-124856857D01*
X18422952Y-124904476D01*
X18470571Y-124952095D01*
X18518190Y-125047333D01*
X18518190Y-125428285D01*
X18089619Y-124475904D02*
X18042000Y-124428285D01*
X17994380Y-124333047D01*
X17994380Y-124094952D01*
X18042000Y-123999714D01*
X18089619Y-123952095D01*
X18184857Y-123904476D01*
X18280095Y-123904476D01*
X18422952Y-123952095D01*
X18994380Y-124523523D01*
X18994380Y-123904476D01*
X17994380Y-123571142D02*
X17994380Y-122904476D01*
X18994380Y-123333047D01*
X20582000Y-125928285D02*
X20534380Y-126023523D01*
X20534380Y-126166380D01*
X20582000Y-126309237D01*
X20677238Y-126404475D01*
X20772476Y-126452094D01*
X20962952Y-126499713D01*
X21105809Y-126499713D01*
X21296285Y-126452094D01*
X21391523Y-126404475D01*
X21486761Y-126309237D01*
X21534380Y-126166380D01*
X21534380Y-126071142D01*
X21486761Y-125928285D01*
X21439142Y-125880666D01*
X21105809Y-125880666D01*
X21105809Y-126071142D01*
X21534380Y-125452094D02*
X20534380Y-125452094D01*
X20534380Y-125071142D01*
X20582000Y-124975904D01*
X20629619Y-124928285D01*
X20724857Y-124880666D01*
X20867714Y-124880666D01*
X20962952Y-124928285D01*
X21010571Y-124975904D01*
X21058190Y-125071142D01*
X21058190Y-125452094D01*
X20629619Y-124499713D02*
X20582000Y-124452094D01*
X20534380Y-124356856D01*
X20534380Y-124118761D01*
X20582000Y-124023523D01*
X20629619Y-123975904D01*
X20724857Y-123928285D01*
X20820095Y-123928285D01*
X20962952Y-123975904D01*
X21534380Y-124547332D01*
X21534380Y-123928285D01*
X20534380Y-123071142D02*
X20534380Y-123261618D01*
X20582000Y-123356856D01*
X20629619Y-123404475D01*
X20772476Y-123499713D01*
X20962952Y-123547332D01*
X21343904Y-123547332D01*
X21439142Y-123499713D01*
X21486761Y-123452094D01*
X21534380Y-123356856D01*
X21534380Y-123166380D01*
X21486761Y-123071142D01*
X21439142Y-123023523D01*
X21343904Y-122975904D01*
X21105809Y-122975904D01*
X21010571Y-123023523D01*
X20962952Y-123071142D01*
X20915333Y-123166380D01*
X20915333Y-123356856D01*
X20962952Y-123452094D01*
X21010571Y-123499713D01*
X21105809Y-123547332D01*
X15502000Y-126047333D02*
X15454380Y-126142571D01*
X15454380Y-126285428D01*
X15502000Y-126428285D01*
X15597238Y-126523523D01*
X15692476Y-126571142D01*
X15882952Y-126618761D01*
X16025809Y-126618761D01*
X16216285Y-126571142D01*
X16311523Y-126523523D01*
X16406761Y-126428285D01*
X16454380Y-126285428D01*
X16454380Y-126190190D01*
X16406761Y-126047333D01*
X16359142Y-125999714D01*
X16025809Y-125999714D01*
X16025809Y-126190190D01*
X16454380Y-125571142D02*
X15454380Y-125571142D01*
X15454380Y-125190190D01*
X15502000Y-125094952D01*
X15549619Y-125047333D01*
X15644857Y-124999714D01*
X15787714Y-124999714D01*
X15882952Y-125047333D01*
X15930571Y-125094952D01*
X15978190Y-125190190D01*
X15978190Y-125571142D01*
X16454380Y-124047333D02*
X16454380Y-124618761D01*
X16454380Y-124333047D02*
X15454380Y-124333047D01*
X15597238Y-124428285D01*
X15692476Y-124523523D01*
X15740095Y-124618761D01*
X15454380Y-123713999D02*
X15454380Y-123047333D01*
X16454380Y-123475904D01*
X17534000Y-116252476D02*
X17486380Y-116347714D01*
X17486380Y-116490571D01*
X17534000Y-116633428D01*
X17629238Y-116728666D01*
X17724476Y-116776285D01*
X17914952Y-116823904D01*
X18057809Y-116823904D01*
X18248285Y-116776285D01*
X18343523Y-116728666D01*
X18438761Y-116633428D01*
X18486380Y-116490571D01*
X18486380Y-116395333D01*
X18438761Y-116252476D01*
X18391142Y-116204857D01*
X18057809Y-116204857D01*
X18057809Y-116395333D01*
X18486380Y-115776285D02*
X17486380Y-115776285D01*
X17486380Y-115395333D01*
X17534000Y-115300095D01*
X17581619Y-115252476D01*
X17676857Y-115204857D01*
X17819714Y-115204857D01*
X17914952Y-115252476D01*
X17962571Y-115300095D01*
X18010190Y-115395333D01*
X18010190Y-115776285D01*
X18486380Y-114252476D02*
X18486380Y-114823904D01*
X18486380Y-114538190D02*
X17486380Y-114538190D01*
X17629238Y-114633428D01*
X17724476Y-114728666D01*
X17772095Y-114823904D01*
X17486380Y-113395333D02*
X17486380Y-113585809D01*
X17534000Y-113681047D01*
X17581619Y-113728666D01*
X17724476Y-113823904D01*
X17914952Y-113871523D01*
X18295904Y-113871523D01*
X18391142Y-113823904D01*
X18438761Y-113776285D01*
X18486380Y-113681047D01*
X18486380Y-113490571D01*
X18438761Y-113395333D01*
X18391142Y-113347714D01*
X18295904Y-113300095D01*
X18057809Y-113300095D01*
X17962571Y-113347714D01*
X17914952Y-113395333D01*
X17867333Y-113490571D01*
X17867333Y-113681047D01*
X17914952Y-113776285D01*
X17962571Y-113823904D01*
X18057809Y-113871523D01*
X20074000Y-116276285D02*
X20026380Y-116371523D01*
X20026380Y-116514380D01*
X20074000Y-116657237D01*
X20169238Y-116752475D01*
X20264476Y-116800094D01*
X20454952Y-116847713D01*
X20597809Y-116847713D01*
X20788285Y-116800094D01*
X20883523Y-116752475D01*
X20978761Y-116657237D01*
X21026380Y-116514380D01*
X21026380Y-116419142D01*
X20978761Y-116276285D01*
X20931142Y-116228666D01*
X20597809Y-116228666D01*
X20597809Y-116419142D01*
X21026380Y-115800094D02*
X20026380Y-115800094D01*
X20026380Y-115419142D01*
X20074000Y-115323904D01*
X20121619Y-115276285D01*
X20216857Y-115228666D01*
X20359714Y-115228666D01*
X20454952Y-115276285D01*
X20502571Y-115323904D01*
X20550190Y-115419142D01*
X20550190Y-115800094D01*
X20121619Y-114847713D02*
X20074000Y-114800094D01*
X20026380Y-114704856D01*
X20026380Y-114466761D01*
X20074000Y-114371523D01*
X20121619Y-114323904D01*
X20216857Y-114276285D01*
X20312095Y-114276285D01*
X20454952Y-114323904D01*
X21026380Y-114895332D01*
X21026380Y-114276285D01*
X20026380Y-113657237D02*
X20026380Y-113561999D01*
X20074000Y-113466761D01*
X20121619Y-113419142D01*
X20216857Y-113371523D01*
X20407333Y-113323904D01*
X20645428Y-113323904D01*
X20835904Y-113371523D01*
X20931142Y-113419142D01*
X20978761Y-113466761D01*
X21026380Y-113561999D01*
X21026380Y-113657237D01*
X20978761Y-113752475D01*
X20931142Y-113800094D01*
X20835904Y-113847713D01*
X20645428Y-113895332D01*
X20407333Y-113895332D01*
X20216857Y-113847713D01*
X20121619Y-113800094D01*
X20074000Y-113752475D01*
X20026380Y-113657237D01*
X14994000Y-116395333D02*
X14946380Y-116490571D01*
X14946380Y-116633428D01*
X14994000Y-116776285D01*
X15089238Y-116871523D01*
X15184476Y-116919142D01*
X15374952Y-116966761D01*
X15517809Y-116966761D01*
X15708285Y-116919142D01*
X15803523Y-116871523D01*
X15898761Y-116776285D01*
X15946380Y-116633428D01*
X15946380Y-116538190D01*
X15898761Y-116395333D01*
X15851142Y-116347714D01*
X15517809Y-116347714D01*
X15517809Y-116538190D01*
X15946380Y-115919142D02*
X14946380Y-115919142D01*
X14946380Y-115538190D01*
X14994000Y-115442952D01*
X15041619Y-115395333D01*
X15136857Y-115347714D01*
X15279714Y-115347714D01*
X15374952Y-115395333D01*
X15422571Y-115442952D01*
X15470190Y-115538190D01*
X15470190Y-115919142D01*
X15946380Y-114395333D02*
X15946380Y-114966761D01*
X15946380Y-114681047D02*
X14946380Y-114681047D01*
X15089238Y-114776285D01*
X15184476Y-114871523D01*
X15232095Y-114966761D01*
X15374952Y-113823904D02*
X15327333Y-113919142D01*
X15279714Y-113966761D01*
X15184476Y-114014380D01*
X15136857Y-114014380D01*
X15041619Y-113966761D01*
X14994000Y-113919142D01*
X14946380Y-113823904D01*
X14946380Y-113633428D01*
X14994000Y-113538190D01*
X15041619Y-113490571D01*
X15136857Y-113442952D01*
X15184476Y-113442952D01*
X15279714Y-113490571D01*
X15327333Y-113538190D01*
X15374952Y-113633428D01*
X15374952Y-113823904D01*
X15422571Y-113919142D01*
X15470190Y-113966761D01*
X15565428Y-114014380D01*
X15755904Y-114014380D01*
X15851142Y-113966761D01*
X15898761Y-113919142D01*
X15946380Y-113823904D01*
X15946380Y-113633428D01*
X15898761Y-113538190D01*
X15851142Y-113490571D01*
X15755904Y-113442952D01*
X15565428Y-113442952D01*
X15470190Y-113490571D01*
X15422571Y-113538190D01*
X15374952Y-113633428D01*
X23264761Y-93138476D02*
X23312380Y-92995619D01*
X23312380Y-92757523D01*
X23264761Y-92662285D01*
X23217142Y-92614666D01*
X23121904Y-92567047D01*
X23026666Y-92567047D01*
X22931428Y-92614666D01*
X22883809Y-92662285D01*
X22836190Y-92757523D01*
X22788571Y-92948000D01*
X22740952Y-93043238D01*
X22693333Y-93090857D01*
X22598095Y-93138476D01*
X22502857Y-93138476D01*
X22407619Y-93090857D01*
X22360000Y-93043238D01*
X22312380Y-92948000D01*
X22312380Y-92709904D01*
X22360000Y-92567047D01*
X23217142Y-91567047D02*
X23264761Y-91614666D01*
X23312380Y-91757523D01*
X23312380Y-91852761D01*
X23264761Y-91995619D01*
X23169523Y-92090857D01*
X23074285Y-92138476D01*
X22883809Y-92186095D01*
X22740952Y-92186095D01*
X22550476Y-92138476D01*
X22455238Y-92090857D01*
X22360000Y-91995619D01*
X22312380Y-91852761D01*
X22312380Y-91757523D01*
X22360000Y-91614666D01*
X22407619Y-91567047D01*
X23312380Y-90662285D02*
X23312380Y-91138476D01*
X22312380Y-91138476D01*
X17232380Y-93186095D02*
X17232380Y-92567047D01*
X17613333Y-92900380D01*
X17613333Y-92757523D01*
X17660952Y-92662285D01*
X17708571Y-92614666D01*
X17803809Y-92567047D01*
X18041904Y-92567047D01*
X18137142Y-92614666D01*
X18184761Y-92662285D01*
X18232380Y-92757523D01*
X18232380Y-93043238D01*
X18184761Y-93138476D01*
X18137142Y-93186095D01*
X17232380Y-92281333D02*
X18232380Y-91948000D01*
X17232380Y-91614666D01*
X17232380Y-91376571D02*
X17232380Y-90757523D01*
X17613333Y-91090857D01*
X17613333Y-90948000D01*
X17660952Y-90852761D01*
X17708571Y-90805142D01*
X17803809Y-90757523D01*
X18041904Y-90757523D01*
X18137142Y-90805142D01*
X18184761Y-90852761D01*
X18232380Y-90948000D01*
X18232380Y-91233714D01*
X18184761Y-91328952D01*
X18137142Y-91376571D01*
X20724761Y-93186094D02*
X20772380Y-93043237D01*
X20772380Y-92805142D01*
X20724761Y-92709904D01*
X20677142Y-92662285D01*
X20581904Y-92614666D01*
X20486666Y-92614666D01*
X20391428Y-92662285D01*
X20343809Y-92709904D01*
X20296190Y-92805142D01*
X20248571Y-92995618D01*
X20200952Y-93090856D01*
X20153333Y-93138475D01*
X20058095Y-93186094D01*
X19962857Y-93186094D01*
X19867619Y-93138475D01*
X19820000Y-93090856D01*
X19772380Y-92995618D01*
X19772380Y-92757523D01*
X19820000Y-92614666D01*
X20772380Y-92186094D02*
X19772380Y-92186094D01*
X19772380Y-91947999D01*
X19820000Y-91805142D01*
X19915238Y-91709904D01*
X20010476Y-91662285D01*
X20200952Y-91614666D01*
X20343809Y-91614666D01*
X20534285Y-91662285D01*
X20629523Y-91709904D01*
X20724761Y-91805142D01*
X20772380Y-91947999D01*
X20772380Y-92186094D01*
X20486666Y-91233713D02*
X20486666Y-90757523D01*
X20772380Y-91328951D02*
X19772380Y-90995618D01*
X20772380Y-90662285D01*
X14740000Y-92852761D02*
X14692380Y-92947999D01*
X14692380Y-93090857D01*
X14740000Y-93233714D01*
X14835238Y-93328952D01*
X14930476Y-93376571D01*
X15120952Y-93424190D01*
X15263809Y-93424190D01*
X15454285Y-93376571D01*
X15549523Y-93328952D01*
X15644761Y-93233714D01*
X15692380Y-93090857D01*
X15692380Y-92995618D01*
X15644761Y-92852761D01*
X15597142Y-92805142D01*
X15263809Y-92805142D01*
X15263809Y-92995618D01*
X15692380Y-92376571D02*
X14692380Y-92376571D01*
X15692380Y-91805142D01*
X14692380Y-91805142D01*
X15692380Y-91328952D02*
X14692380Y-91328952D01*
X14692380Y-91090857D01*
X14740000Y-90947999D01*
X14835238Y-90852761D01*
X14930476Y-90805142D01*
X15120952Y-90757523D01*
X15263809Y-90757523D01*
X15454285Y-90805142D01*
X15549523Y-90852761D01*
X15644761Y-90947999D01*
X15692380Y-91090857D01*
X15692380Y-91328952D01*
X23264761Y-105330476D02*
X23312380Y-105187619D01*
X23312380Y-104949523D01*
X23264761Y-104854285D01*
X23217142Y-104806666D01*
X23121904Y-104759047D01*
X23026666Y-104759047D01*
X22931428Y-104806666D01*
X22883809Y-104854285D01*
X22836190Y-104949523D01*
X22788571Y-105140000D01*
X22740952Y-105235238D01*
X22693333Y-105282857D01*
X22598095Y-105330476D01*
X22502857Y-105330476D01*
X22407619Y-105282857D01*
X22360000Y-105235238D01*
X22312380Y-105140000D01*
X22312380Y-104901904D01*
X22360000Y-104759047D01*
X23217142Y-103759047D02*
X23264761Y-103806666D01*
X23312380Y-103949523D01*
X23312380Y-104044761D01*
X23264761Y-104187619D01*
X23169523Y-104282857D01*
X23074285Y-104330476D01*
X22883809Y-104378095D01*
X22740952Y-104378095D01*
X22550476Y-104330476D01*
X22455238Y-104282857D01*
X22360000Y-104187619D01*
X22312380Y-104044761D01*
X22312380Y-103949523D01*
X22360000Y-103806666D01*
X22407619Y-103759047D01*
X23312380Y-102854285D02*
X23312380Y-103330476D01*
X22312380Y-103330476D01*
X20724761Y-105378094D02*
X20772380Y-105235237D01*
X20772380Y-104997142D01*
X20724761Y-104901904D01*
X20677142Y-104854285D01*
X20581904Y-104806666D01*
X20486666Y-104806666D01*
X20391428Y-104854285D01*
X20343809Y-104901904D01*
X20296190Y-104997142D01*
X20248571Y-105187618D01*
X20200952Y-105282856D01*
X20153333Y-105330475D01*
X20058095Y-105378094D01*
X19962857Y-105378094D01*
X19867619Y-105330475D01*
X19820000Y-105282856D01*
X19772380Y-105187618D01*
X19772380Y-104949523D01*
X19820000Y-104806666D01*
X20772380Y-104378094D02*
X19772380Y-104378094D01*
X19772380Y-104139999D01*
X19820000Y-103997142D01*
X19915238Y-103901904D01*
X20010476Y-103854285D01*
X20200952Y-103806666D01*
X20343809Y-103806666D01*
X20534285Y-103854285D01*
X20629523Y-103901904D01*
X20724761Y-103997142D01*
X20772380Y-104139999D01*
X20772380Y-104378094D01*
X20486666Y-103425713D02*
X20486666Y-102949523D01*
X20772380Y-103520951D02*
X19772380Y-103187618D01*
X20772380Y-102854285D01*
X17232380Y-105378095D02*
X17232380Y-104759047D01*
X17613333Y-105092380D01*
X17613333Y-104949523D01*
X17660952Y-104854285D01*
X17708571Y-104806666D01*
X17803809Y-104759047D01*
X18041904Y-104759047D01*
X18137142Y-104806666D01*
X18184761Y-104854285D01*
X18232380Y-104949523D01*
X18232380Y-105235238D01*
X18184761Y-105330476D01*
X18137142Y-105378095D01*
X17232380Y-104473333D02*
X18232380Y-104140000D01*
X17232380Y-103806666D01*
X17232380Y-103568571D02*
X17232380Y-102949523D01*
X17613333Y-103282857D01*
X17613333Y-103140000D01*
X17660952Y-103044761D01*
X17708571Y-102997142D01*
X17803809Y-102949523D01*
X18041904Y-102949523D01*
X18137142Y-102997142D01*
X18184761Y-103044761D01*
X18232380Y-103140000D01*
X18232380Y-103425714D01*
X18184761Y-103520952D01*
X18137142Y-103568571D01*
X14740000Y-105044761D02*
X14692380Y-105139999D01*
X14692380Y-105282857D01*
X14740000Y-105425714D01*
X14835238Y-105520952D01*
X14930476Y-105568571D01*
X15120952Y-105616190D01*
X15263809Y-105616190D01*
X15454285Y-105568571D01*
X15549523Y-105520952D01*
X15644761Y-105425714D01*
X15692380Y-105282857D01*
X15692380Y-105187618D01*
X15644761Y-105044761D01*
X15597142Y-104997142D01*
X15263809Y-104997142D01*
X15263809Y-105187618D01*
X15692380Y-104568571D02*
X14692380Y-104568571D01*
X15692380Y-103997142D01*
X14692380Y-103997142D01*
X15692380Y-103520952D02*
X14692380Y-103520952D01*
X14692380Y-103282857D01*
X14740000Y-103139999D01*
X14835238Y-103044761D01*
X14930476Y-102997142D01*
X15120952Y-102949523D01*
X15263809Y-102949523D01*
X15454285Y-102997142D01*
X15549523Y-103044761D01*
X15644761Y-103139999D01*
X15692380Y-103282857D01*
X15692380Y-103520952D01*
X22312380Y-86550476D02*
X22312380Y-87026666D01*
X22788571Y-87074285D01*
X22740952Y-87026666D01*
X22693333Y-86931428D01*
X22693333Y-86693333D01*
X22740952Y-86598095D01*
X22788571Y-86550476D01*
X22883809Y-86502857D01*
X23121904Y-86502857D01*
X23217142Y-86550476D01*
X23264761Y-86598095D01*
X23312380Y-86693333D01*
X23312380Y-86931428D01*
X23264761Y-87026666D01*
X23217142Y-87074285D01*
X22312380Y-86217142D02*
X23312380Y-85883809D01*
X22312380Y-85550476D01*
X16978380Y-88106095D02*
X16978380Y-87487047D01*
X17359333Y-87820380D01*
X17359333Y-87677523D01*
X17406952Y-87582285D01*
X17454571Y-87534666D01*
X17549809Y-87487047D01*
X17787904Y-87487047D01*
X17883142Y-87534666D01*
X17930761Y-87582285D01*
X17978380Y-87677523D01*
X17978380Y-87963238D01*
X17930761Y-88058476D01*
X17883142Y-88106095D01*
X16978380Y-87201333D02*
X17978380Y-86868000D01*
X16978380Y-86534666D01*
X16978380Y-86296571D02*
X16978380Y-85677523D01*
X17359333Y-86010857D01*
X17359333Y-85868000D01*
X17406952Y-85772761D01*
X17454571Y-85725142D01*
X17549809Y-85677523D01*
X17787904Y-85677523D01*
X17883142Y-85725142D01*
X17930761Y-85772761D01*
X17978380Y-85868000D01*
X17978380Y-86153714D01*
X17930761Y-86248952D01*
X17883142Y-86296571D01*
X14438380Y-88106095D02*
X14438380Y-87487047D01*
X14819333Y-87820380D01*
X14819333Y-87677523D01*
X14866952Y-87582285D01*
X14914571Y-87534666D01*
X15009809Y-87487047D01*
X15247904Y-87487047D01*
X15343142Y-87534666D01*
X15390761Y-87582285D01*
X15438380Y-87677523D01*
X15438380Y-87963238D01*
X15390761Y-88058476D01*
X15343142Y-88106095D01*
X14438380Y-87201333D02*
X15438380Y-86868000D01*
X14438380Y-86534666D01*
X14438380Y-86296571D02*
X14438380Y-85677523D01*
X14819333Y-86010857D01*
X14819333Y-85868000D01*
X14866952Y-85772761D01*
X14914571Y-85725142D01*
X15009809Y-85677523D01*
X15247904Y-85677523D01*
X15343142Y-85725142D01*
X15390761Y-85772761D01*
X15438380Y-85868000D01*
X15438380Y-86153714D01*
X15390761Y-86248952D01*
X15343142Y-86296571D01*
X24852380Y-86550476D02*
X24852380Y-87026666D01*
X25328571Y-87074285D01*
X25280952Y-87026666D01*
X25233333Y-86931428D01*
X25233333Y-86693333D01*
X25280952Y-86598095D01*
X25328571Y-86550476D01*
X25423809Y-86502857D01*
X25661904Y-86502857D01*
X25757142Y-86550476D01*
X25804761Y-86598095D01*
X25852380Y-86693333D01*
X25852380Y-86931428D01*
X25804761Y-87026666D01*
X25757142Y-87074285D01*
X24852380Y-86217142D02*
X25852380Y-85883809D01*
X24852380Y-85550476D01*
X19820000Y-87629904D02*
X19772380Y-87725142D01*
X19772380Y-87868000D01*
X19820000Y-88010857D01*
X19915238Y-88106095D01*
X20010476Y-88153714D01*
X20200952Y-88201333D01*
X20343809Y-88201333D01*
X20534285Y-88153714D01*
X20629523Y-88106095D01*
X20724761Y-88010857D01*
X20772380Y-87868000D01*
X20772380Y-87772761D01*
X20724761Y-87629904D01*
X20677142Y-87582285D01*
X20343809Y-87582285D01*
X20343809Y-87772761D01*
X20772380Y-87153714D02*
X19772380Y-87153714D01*
X20772380Y-86582285D01*
X19772380Y-86582285D01*
X20772380Y-86106095D02*
X19772380Y-86106095D01*
X19772380Y-85868000D01*
X19820000Y-85725142D01*
X19915238Y-85629904D01*
X20010476Y-85582285D01*
X20200952Y-85534666D01*
X20343809Y-85534666D01*
X20534285Y-85582285D01*
X20629523Y-85629904D01*
X20724761Y-85725142D01*
X20772380Y-85868000D01*
X20772380Y-86106095D01*
X17526095Y-78494000D02*
X17430857Y-78446380D01*
X17288000Y-78446380D01*
X17145142Y-78494000D01*
X17049904Y-78589238D01*
X17002285Y-78684476D01*
X16954666Y-78874952D01*
X16954666Y-79017809D01*
X17002285Y-79208285D01*
X17049904Y-79303523D01*
X17145142Y-79398761D01*
X17288000Y-79446380D01*
X17383238Y-79446380D01*
X17526095Y-79398761D01*
X17573714Y-79351142D01*
X17573714Y-79017809D01*
X17383238Y-79017809D01*
X18002285Y-79446380D02*
X18002285Y-78446380D01*
X18573714Y-79446380D01*
X18573714Y-78446380D01*
X19049904Y-79446380D02*
X19049904Y-78446380D01*
X19288000Y-78446380D01*
X19430857Y-78494000D01*
X19526095Y-78589238D01*
X19573714Y-78684476D01*
X19621333Y-78874952D01*
X19621333Y-79017809D01*
X19573714Y-79208285D01*
X19526095Y-79303523D01*
X19430857Y-79398761D01*
X19288000Y-79446380D01*
X19049904Y-79446380D01*
D11*
X14418000Y-122488000D02*
X14418000Y-121158000D01*
X15748000Y-122488000D02*
X14418000Y-122488000D01*
X14418000Y-119888000D02*
X14418000Y-117288000D01*
X17018000Y-119888000D02*
X14418000Y-119888000D01*
X17018000Y-122488000D02*
X17018000Y-119888000D01*
X14418000Y-117288000D02*
X22158000Y-117288000D01*
X17018000Y-122488000D02*
X22158000Y-122488000D01*
X22158000Y-122488000D02*
X22158000Y-117288000D01*
X43051380Y-94870120D02*
X43051380Y-95970120D01*
X43321380Y-94870120D02*
X43051380Y-94870120D01*
X43321380Y-93370120D02*
X43321380Y-94870120D01*
X36691380Y-94870120D02*
X36691380Y-97700120D01*
X36421380Y-94870120D02*
X36691380Y-94870120D01*
X36421380Y-93370120D02*
X36421380Y-94870120D01*
X13910000Y-108949999D02*
X13910000Y-107619999D01*
X15240000Y-108949999D02*
X13910000Y-108949999D01*
X16510000Y-108949999D02*
X16510000Y-106289999D01*
X16510000Y-106289999D02*
X24190000Y-106289999D01*
X16510000Y-108949999D02*
X24190000Y-108949999D01*
X24190000Y-108949999D02*
X24190000Y-106289999D01*
X13910000Y-96884999D02*
X13910000Y-95554999D01*
X15240000Y-96884999D02*
X13910000Y-96884999D01*
X16510000Y-96884999D02*
X16510000Y-94224999D01*
X16510000Y-94224999D02*
X24190000Y-94224999D01*
X16510000Y-96884999D02*
X24190000Y-96884999D01*
X24190000Y-96884999D02*
X24190000Y-94224999D01*
X53719380Y-94870120D02*
X53719380Y-95970120D01*
X53989380Y-94870120D02*
X53719380Y-94870120D01*
X53989380Y-93370120D02*
X53989380Y-94870120D01*
X47359380Y-94870120D02*
X47359380Y-97700120D01*
X47089380Y-94870120D02*
X47359380Y-94870120D01*
X47089380Y-93370120D02*
X47089380Y-94870120D01*
X71020000Y-119136936D02*
X71020000Y-119591064D01*
X72490000Y-119136936D02*
X72490000Y-119591064D01*
X70893000Y-100213936D02*
X70893000Y-100668064D01*
X72363000Y-100213936D02*
X72363000Y-100668064D01*
X68855380Y-119113056D02*
X68855380Y-119567184D01*
X70325380Y-119113056D02*
X70325380Y-119567184D01*
X68855380Y-100213936D02*
X68855380Y-100668064D01*
X70325380Y-100213936D02*
X70325380Y-100668064D01*
X60352000Y-119136936D02*
X60352000Y-119591064D01*
X61822000Y-119136936D02*
X61822000Y-119591064D01*
X60225000Y-100213936D02*
X60225000Y-100668064D01*
X61695000Y-100213936D02*
X61695000Y-100668064D01*
X58187380Y-119113056D02*
X58187380Y-119567184D01*
X59657380Y-119113056D02*
X59657380Y-119567184D01*
X58187380Y-100213936D02*
X58187380Y-100668064D01*
X59657380Y-100213936D02*
X59657380Y-100668064D01*
X92356000Y-119136936D02*
X92356000Y-119591064D01*
X93826000Y-119136936D02*
X93826000Y-119591064D01*
X92229000Y-100213936D02*
X92229000Y-100668064D01*
X93699000Y-100213936D02*
X93699000Y-100668064D01*
X90191380Y-119113056D02*
X90191380Y-119567184D01*
X91661380Y-119113056D02*
X91661380Y-119567184D01*
X90191380Y-100213936D02*
X90191380Y-100668064D01*
X91661380Y-100213936D02*
X91661380Y-100668064D01*
X81688000Y-119136936D02*
X81688000Y-119591064D01*
X83158000Y-119136936D02*
X83158000Y-119591064D01*
X81561000Y-100213936D02*
X81561000Y-100668064D01*
X83031000Y-100213936D02*
X83031000Y-100668064D01*
X79523380Y-119113056D02*
X79523380Y-119567184D01*
X80993380Y-119113056D02*
X80993380Y-119567184D01*
X79523380Y-100213936D02*
X79523380Y-100668064D01*
X80993380Y-100213936D02*
X80993380Y-100668064D01*
X49684000Y-119136936D02*
X49684000Y-119591064D01*
X51154000Y-119136936D02*
X51154000Y-119591064D01*
X49557000Y-100213936D02*
X49557000Y-100668064D01*
X51027000Y-100213936D02*
X51027000Y-100668064D01*
X47519380Y-119113056D02*
X47519380Y-119567184D01*
X48989380Y-119113056D02*
X48989380Y-119567184D01*
X47519380Y-100213936D02*
X47519380Y-100668064D01*
X48989380Y-100213936D02*
X48989380Y-100668064D01*
X39016000Y-119136936D02*
X39016000Y-119591064D01*
X40486000Y-119136936D02*
X40486000Y-119591064D01*
X38889000Y-100213936D02*
X38889000Y-100668064D01*
X40359000Y-100213936D02*
X40359000Y-100668064D01*
X36851380Y-119113056D02*
X36851380Y-119567184D01*
X38321380Y-119113056D02*
X38321380Y-119567184D01*
X36851380Y-100213936D02*
X36851380Y-100668064D01*
X38321380Y-100213936D02*
X38321380Y-100668064D01*
X8355000Y-119877064D02*
X8355000Y-119422936D01*
X6885000Y-119877064D02*
X6885000Y-119422936D01*
X29150000Y-75505000D02*
X30480000Y-75505000D01*
X29150000Y-76835000D02*
X29150000Y-75505000D01*
X31750000Y-75505000D02*
X34350000Y-75505000D01*
X31750000Y-78105000D02*
X31750000Y-75505000D01*
X29150000Y-78105000D02*
X31750000Y-78105000D01*
X34350000Y-75505000D02*
X34350000Y-126425000D01*
X29150000Y-78105000D02*
X29150000Y-126425000D01*
X29150000Y-126425000D02*
X34350000Y-126425000D01*
X6245000Y-107985000D02*
X6245000Y-104105000D01*
X9365000Y-102935000D02*
X9365000Y-103985000D01*
X8215000Y-102935000D02*
X9365000Y-102935000D01*
X9365000Y-108105000D02*
X10355000Y-108105000D01*
X9365000Y-109155000D02*
X9365000Y-108105000D01*
X8215000Y-109155000D02*
X9365000Y-109155000D01*
X6245000Y-95920000D02*
X6245000Y-92040000D01*
X9365000Y-90870000D02*
X9365000Y-91920000D01*
X8215000Y-90870000D02*
X9365000Y-90870000D01*
X9365000Y-96040000D02*
X10355000Y-96040000D01*
X9365000Y-97090000D02*
X9365000Y-96040000D01*
X8215000Y-97090000D02*
X9365000Y-97090000D01*
D10*
X27813000Y-77810000D02*
X27813000Y-69850000D01*
X27813000Y-69850000D02*
X9168000Y-69850000D01*
X9168000Y-77810000D02*
X27813000Y-77810000D01*
X9168000Y-69850000D02*
X9168000Y-77810000D01*
D11*
X13910000Y-84515000D02*
X13910000Y-83185000D01*
X15240000Y-84515000D02*
X13910000Y-84515000D01*
X16510000Y-84515000D02*
X16510000Y-81855000D01*
X16510000Y-81855000D02*
X26730000Y-81855000D01*
X16510000Y-84515000D02*
X26730000Y-84515000D01*
X26730000Y-84515000D02*
X26730000Y-81855000D01*
X75055380Y-113250120D02*
X75055380Y-114350120D01*
X75325380Y-113250120D02*
X75055380Y-113250120D01*
X75325380Y-111750120D02*
X75325380Y-113250120D01*
X68695380Y-113250120D02*
X68695380Y-116080120D01*
X68425380Y-113250120D02*
X68695380Y-113250120D01*
X68425380Y-111750120D02*
X68425380Y-113250120D01*
X75055380Y-94870120D02*
X75055380Y-95970120D01*
X75325380Y-94870120D02*
X75055380Y-94870120D01*
X75325380Y-93370120D02*
X75325380Y-94870120D01*
X68695380Y-94870120D02*
X68695380Y-97700120D01*
X68425380Y-94870120D02*
X68695380Y-94870120D01*
X68425380Y-93370120D02*
X68425380Y-94870120D01*
X64387380Y-113250120D02*
X64387380Y-114350120D01*
X64657380Y-113250120D02*
X64387380Y-113250120D01*
X64657380Y-111750120D02*
X64657380Y-113250120D01*
X58027380Y-113250120D02*
X58027380Y-116080120D01*
X57757380Y-113250120D02*
X58027380Y-113250120D01*
X57757380Y-111750120D02*
X57757380Y-113250120D01*
X64387380Y-94870120D02*
X64387380Y-95970120D01*
X64657380Y-94870120D02*
X64387380Y-94870120D01*
X64657380Y-93370120D02*
X64657380Y-94870120D01*
X58027380Y-94870120D02*
X58027380Y-97700120D01*
X57757380Y-94870120D02*
X58027380Y-94870120D01*
X57757380Y-93370120D02*
X57757380Y-94870120D01*
X96391380Y-113250120D02*
X96391380Y-114350120D01*
X96661380Y-113250120D02*
X96391380Y-113250120D01*
X96661380Y-111750120D02*
X96661380Y-113250120D01*
X90031380Y-113250120D02*
X90031380Y-116080120D01*
X89761380Y-113250120D02*
X90031380Y-113250120D01*
X89761380Y-111750120D02*
X89761380Y-113250120D01*
X96391380Y-94870120D02*
X96391380Y-95970120D01*
X96661380Y-94870120D02*
X96391380Y-94870120D01*
X96661380Y-93370120D02*
X96661380Y-94870120D01*
X90031380Y-94870120D02*
X90031380Y-97700120D01*
X89761380Y-94870120D02*
X90031380Y-94870120D01*
X89761380Y-93370120D02*
X89761380Y-94870120D01*
X85723380Y-113250120D02*
X85723380Y-114350120D01*
X85993380Y-113250120D02*
X85723380Y-113250120D01*
X85993380Y-111750120D02*
X85993380Y-113250120D01*
X79363380Y-113250120D02*
X79363380Y-116080120D01*
X79093380Y-113250120D02*
X79363380Y-113250120D01*
X79093380Y-111750120D02*
X79093380Y-113250120D01*
X85723380Y-94870120D02*
X85723380Y-95970120D01*
X85993380Y-94870120D02*
X85723380Y-94870120D01*
X85993380Y-93370120D02*
X85993380Y-94870120D01*
X79363380Y-94870120D02*
X79363380Y-97700120D01*
X79093380Y-94870120D02*
X79363380Y-94870120D01*
X79093380Y-93370120D02*
X79093380Y-94870120D01*
X53719380Y-113250120D02*
X53719380Y-114350120D01*
X53989380Y-113250120D02*
X53719380Y-113250120D01*
X53989380Y-111750120D02*
X53989380Y-113250120D01*
X47359380Y-113250120D02*
X47359380Y-116080120D01*
X47089380Y-113250120D02*
X47359380Y-113250120D01*
X47089380Y-111750120D02*
X47089380Y-113250120D01*
X43051380Y-113250120D02*
X43051380Y-114350120D01*
X43321380Y-113250120D02*
X43051380Y-113250120D01*
X43321380Y-111750120D02*
X43321380Y-113250120D01*
X36691380Y-113250120D02*
X36691380Y-116080120D01*
X36421380Y-113250120D02*
X36691380Y-113250120D01*
X36421380Y-111750120D02*
X36421380Y-113250120D01*
D10*
X46125000Y-77810000D02*
X91035000Y-77810000D01*
X91035000Y-77810000D02*
X91035000Y-69850000D01*
X91035000Y-69850000D02*
X46125000Y-69850000D01*
X46125000Y-69850000D02*
X46125000Y-77810000D01*
D11*
X8580000Y-117185000D02*
X8580000Y-114325000D01*
X6660000Y-117185000D02*
X8580000Y-117185000D01*
X6660000Y-114325000D02*
X6660000Y-117185000D01*
D10*
X12620666Y-121626380D02*
X12620666Y-122340666D01*
X12573047Y-122483523D01*
X12477809Y-122578761D01*
X12334952Y-122626380D01*
X12239714Y-122626380D01*
X13239714Y-122054952D02*
X13144476Y-122007333D01*
X13096857Y-121959714D01*
X13049238Y-121864476D01*
X13049238Y-121816857D01*
X13096857Y-121721619D01*
X13144476Y-121674000D01*
X13239714Y-121626380D01*
X13430190Y-121626380D01*
X13525428Y-121674000D01*
X13573047Y-121721619D01*
X13620666Y-121816857D01*
X13620666Y-121864476D01*
X13573047Y-121959714D01*
X13525428Y-122007333D01*
X13430190Y-122054952D01*
X13239714Y-122054952D01*
X13144476Y-122102571D01*
X13096857Y-122150190D01*
X13049238Y-122245428D01*
X13049238Y-122435904D01*
X13096857Y-122531142D01*
X13144476Y-122578761D01*
X13239714Y-122626380D01*
X13430190Y-122626380D01*
X13525428Y-122578761D01*
X13573047Y-122531142D01*
X13620666Y-122435904D01*
X13620666Y-122245428D01*
X13573047Y-122150190D01*
X13525428Y-122102571D01*
X13430190Y-122054952D01*
X44100761Y-86653619D02*
X44005523Y-86606000D01*
X43910285Y-86510761D01*
X43767428Y-86367904D01*
X43672190Y-86320285D01*
X43576952Y-86320285D01*
X43624571Y-86558380D02*
X43529333Y-86510761D01*
X43434095Y-86415523D01*
X43386476Y-86225047D01*
X43386476Y-85891714D01*
X43434095Y-85701238D01*
X43529333Y-85606000D01*
X43624571Y-85558380D01*
X43815047Y-85558380D01*
X43910285Y-85606000D01*
X44005523Y-85701238D01*
X44053142Y-85891714D01*
X44053142Y-86225047D01*
X44005523Y-86415523D01*
X43910285Y-86510761D01*
X43815047Y-86558380D01*
X43624571Y-86558380D01*
X45005523Y-86558380D02*
X44434095Y-86558380D01*
X44719809Y-86558380D02*
X44719809Y-85558380D01*
X44624571Y-85701238D01*
X44529333Y-85796476D01*
X44434095Y-85844095D01*
X11731666Y-108037380D02*
X11731666Y-108751666D01*
X11684047Y-108894523D01*
X11588809Y-108989761D01*
X11445952Y-109037380D01*
X11350714Y-109037380D01*
X12112619Y-108037380D02*
X12779285Y-108037380D01*
X12350714Y-109037380D01*
X11731666Y-95972380D02*
X11731666Y-96686666D01*
X11684047Y-96829523D01*
X11588809Y-96924761D01*
X11445952Y-96972380D01*
X11350714Y-96972380D01*
X12636428Y-95972380D02*
X12445952Y-95972380D01*
X12350714Y-96020000D01*
X12303095Y-96067619D01*
X12207857Y-96210476D01*
X12160238Y-96400952D01*
X12160238Y-96781904D01*
X12207857Y-96877142D01*
X12255476Y-96924761D01*
X12350714Y-96972380D01*
X12541190Y-96972380D01*
X12636428Y-96924761D01*
X12684047Y-96877142D01*
X12731666Y-96781904D01*
X12731666Y-96543809D01*
X12684047Y-96448571D01*
X12636428Y-96400952D01*
X12541190Y-96353333D01*
X12350714Y-96353333D01*
X12255476Y-96400952D01*
X12207857Y-96448571D01*
X12160238Y-96543809D01*
X54768761Y-86653619D02*
X54673523Y-86606000D01*
X54578285Y-86510761D01*
X54435428Y-86367904D01*
X54340190Y-86320285D01*
X54244952Y-86320285D01*
X54292571Y-86558380D02*
X54197333Y-86510761D01*
X54102095Y-86415523D01*
X54054476Y-86225047D01*
X54054476Y-85891714D01*
X54102095Y-85701238D01*
X54197333Y-85606000D01*
X54292571Y-85558380D01*
X54483047Y-85558380D01*
X54578285Y-85606000D01*
X54673523Y-85701238D01*
X54721142Y-85891714D01*
X54721142Y-86225047D01*
X54673523Y-86415523D01*
X54578285Y-86510761D01*
X54483047Y-86558380D01*
X54292571Y-86558380D01*
X55578285Y-85891714D02*
X55578285Y-86558380D01*
X55340190Y-85510761D02*
X55102095Y-86225047D01*
X55721142Y-86225047D01*
X71239142Y-122626380D02*
X70905809Y-122150190D01*
X70667714Y-122626380D02*
X70667714Y-121626380D01*
X71048666Y-121626380D01*
X71143904Y-121674000D01*
X71191523Y-121721619D01*
X71239142Y-121816857D01*
X71239142Y-121959714D01*
X71191523Y-122054952D01*
X71143904Y-122102571D01*
X71048666Y-122150190D01*
X70667714Y-122150190D01*
X71572476Y-121626380D02*
X72191523Y-121626380D01*
X71858190Y-122007333D01*
X72001047Y-122007333D01*
X72096285Y-122054952D01*
X72143904Y-122102571D01*
X72191523Y-122197809D01*
X72191523Y-122435904D01*
X72143904Y-122531142D01*
X72096285Y-122578761D01*
X72001047Y-122626380D01*
X71715333Y-122626380D01*
X71620095Y-122578761D01*
X71572476Y-122531142D01*
X72524857Y-121626380D02*
X73191523Y-121626380D01*
X72762952Y-122626380D01*
X71366142Y-104084380D02*
X71032809Y-103608190D01*
X70794714Y-104084380D02*
X70794714Y-103084380D01*
X71175666Y-103084380D01*
X71270904Y-103132000D01*
X71318523Y-103179619D01*
X71366142Y-103274857D01*
X71366142Y-103417714D01*
X71318523Y-103512952D01*
X71270904Y-103560571D01*
X71175666Y-103608190D01*
X70794714Y-103608190D01*
X71699476Y-103084380D02*
X72318523Y-103084380D01*
X71985190Y-103465333D01*
X72128047Y-103465333D01*
X72223285Y-103512952D01*
X72270904Y-103560571D01*
X72318523Y-103655809D01*
X72318523Y-103893904D01*
X72270904Y-103989142D01*
X72223285Y-104036761D01*
X72128047Y-104084380D01*
X71842333Y-104084380D01*
X71747095Y-104036761D01*
X71699476Y-103989142D01*
X73223285Y-103084380D02*
X72747095Y-103084380D01*
X72699476Y-103560571D01*
X72747095Y-103512952D01*
X72842333Y-103465333D01*
X73080428Y-103465333D01*
X73175666Y-103512952D01*
X73223285Y-103560571D01*
X73270904Y-103655809D01*
X73270904Y-103893904D01*
X73223285Y-103989142D01*
X73175666Y-104036761D01*
X73080428Y-104084380D01*
X72842333Y-104084380D01*
X72747095Y-104036761D01*
X72699476Y-103989142D01*
X68437522Y-122697500D02*
X68104189Y-122221310D01*
X67866094Y-122697500D02*
X67866094Y-121697500D01*
X68247046Y-121697500D01*
X68342284Y-121745120D01*
X68389903Y-121792739D01*
X68437522Y-121887977D01*
X68437522Y-122030834D01*
X68389903Y-122126072D01*
X68342284Y-122173691D01*
X68247046Y-122221310D01*
X67866094Y-122221310D01*
X68770856Y-121697500D02*
X69389903Y-121697500D01*
X69056570Y-122078453D01*
X69199427Y-122078453D01*
X69294665Y-122126072D01*
X69342284Y-122173691D01*
X69389903Y-122268929D01*
X69389903Y-122507024D01*
X69342284Y-122602262D01*
X69294665Y-122649881D01*
X69199427Y-122697500D01*
X68913713Y-122697500D01*
X68818475Y-122649881D01*
X68770856Y-122602262D01*
X69723237Y-121697500D02*
X70342284Y-121697500D01*
X70008951Y-122078453D01*
X70151808Y-122078453D01*
X70247046Y-122126072D01*
X70294665Y-122173691D01*
X70342284Y-122268929D01*
X70342284Y-122507024D01*
X70294665Y-122602262D01*
X70247046Y-122649881D01*
X70151808Y-122697500D01*
X69866094Y-122697500D01*
X69770856Y-122649881D01*
X69723237Y-122602262D01*
X68445142Y-104084380D02*
X68111809Y-103608190D01*
X67873714Y-104084380D02*
X67873714Y-103084380D01*
X68254666Y-103084380D01*
X68349904Y-103132000D01*
X68397523Y-103179619D01*
X68445142Y-103274857D01*
X68445142Y-103417714D01*
X68397523Y-103512952D01*
X68349904Y-103560571D01*
X68254666Y-103608190D01*
X67873714Y-103608190D01*
X68778476Y-103084380D02*
X69397523Y-103084380D01*
X69064190Y-103465333D01*
X69207047Y-103465333D01*
X69302285Y-103512952D01*
X69349904Y-103560571D01*
X69397523Y-103655809D01*
X69397523Y-103893904D01*
X69349904Y-103989142D01*
X69302285Y-104036761D01*
X69207047Y-104084380D01*
X68921333Y-104084380D01*
X68826095Y-104036761D01*
X68778476Y-103989142D01*
X69778476Y-103179619D02*
X69826095Y-103132000D01*
X69921333Y-103084380D01*
X70159428Y-103084380D01*
X70254666Y-103132000D01*
X70302285Y-103179619D01*
X70349904Y-103274857D01*
X70349904Y-103370095D01*
X70302285Y-103512952D01*
X69730857Y-104084380D01*
X70349904Y-104084380D01*
X60571142Y-122626380D02*
X60237809Y-122150190D01*
X59999714Y-122626380D02*
X59999714Y-121626380D01*
X60380666Y-121626380D01*
X60475904Y-121674000D01*
X60523523Y-121721619D01*
X60571142Y-121816857D01*
X60571142Y-121959714D01*
X60523523Y-122054952D01*
X60475904Y-122102571D01*
X60380666Y-122150190D01*
X59999714Y-122150190D01*
X60904476Y-121626380D02*
X61523523Y-121626380D01*
X61190190Y-122007333D01*
X61333047Y-122007333D01*
X61428285Y-122054952D01*
X61475904Y-122102571D01*
X61523523Y-122197809D01*
X61523523Y-122435904D01*
X61475904Y-122531142D01*
X61428285Y-122578761D01*
X61333047Y-122626380D01*
X61047333Y-122626380D01*
X60952095Y-122578761D01*
X60904476Y-122531142D01*
X62475904Y-122626380D02*
X61904476Y-122626380D01*
X62190190Y-122626380D02*
X62190190Y-121626380D01*
X62094952Y-121769238D01*
X61999714Y-121864476D01*
X61904476Y-121912095D01*
X60698142Y-104084380D02*
X60364809Y-103608190D01*
X60126714Y-104084380D02*
X60126714Y-103084380D01*
X60507666Y-103084380D01*
X60602904Y-103132000D01*
X60650523Y-103179619D01*
X60698142Y-103274857D01*
X60698142Y-103417714D01*
X60650523Y-103512952D01*
X60602904Y-103560571D01*
X60507666Y-103608190D01*
X60126714Y-103608190D01*
X61079095Y-103179619D02*
X61126714Y-103132000D01*
X61221952Y-103084380D01*
X61460047Y-103084380D01*
X61555285Y-103132000D01*
X61602904Y-103179619D01*
X61650523Y-103274857D01*
X61650523Y-103370095D01*
X61602904Y-103512952D01*
X61031476Y-104084380D01*
X61650523Y-104084380D01*
X62126714Y-104084380D02*
X62317190Y-104084380D01*
X62412428Y-104036761D01*
X62460047Y-103989142D01*
X62555285Y-103846285D01*
X62602904Y-103655809D01*
X62602904Y-103274857D01*
X62555285Y-103179619D01*
X62507666Y-103132000D01*
X62412428Y-103084380D01*
X62221952Y-103084380D01*
X62126714Y-103132000D01*
X62079095Y-103179619D01*
X62031476Y-103274857D01*
X62031476Y-103512952D01*
X62079095Y-103608190D01*
X62126714Y-103655809D01*
X62221952Y-103703428D01*
X62412428Y-103703428D01*
X62507666Y-103655809D01*
X62555285Y-103608190D01*
X62602904Y-103512952D01*
X57769522Y-122697500D02*
X57436189Y-122221310D01*
X57198094Y-122697500D02*
X57198094Y-121697500D01*
X57579046Y-121697500D01*
X57674284Y-121745120D01*
X57721903Y-121792739D01*
X57769522Y-121887977D01*
X57769522Y-122030834D01*
X57721903Y-122126072D01*
X57674284Y-122173691D01*
X57579046Y-122221310D01*
X57198094Y-122221310D01*
X58150475Y-121792739D02*
X58198094Y-121745120D01*
X58293332Y-121697500D01*
X58531427Y-121697500D01*
X58626665Y-121745120D01*
X58674284Y-121792739D01*
X58721903Y-121887977D01*
X58721903Y-121983215D01*
X58674284Y-122126072D01*
X58102856Y-122697500D01*
X58721903Y-122697500D01*
X59055237Y-121697500D02*
X59721903Y-121697500D01*
X59293332Y-122697500D01*
X57777142Y-104084380D02*
X57443809Y-103608190D01*
X57205714Y-104084380D02*
X57205714Y-103084380D01*
X57586666Y-103084380D01*
X57681904Y-103132000D01*
X57729523Y-103179619D01*
X57777142Y-103274857D01*
X57777142Y-103417714D01*
X57729523Y-103512952D01*
X57681904Y-103560571D01*
X57586666Y-103608190D01*
X57205714Y-103608190D01*
X58158095Y-103179619D02*
X58205714Y-103132000D01*
X58300952Y-103084380D01*
X58539047Y-103084380D01*
X58634285Y-103132000D01*
X58681904Y-103179619D01*
X58729523Y-103274857D01*
X58729523Y-103370095D01*
X58681904Y-103512952D01*
X58110476Y-104084380D01*
X58729523Y-104084380D01*
X59586666Y-103084380D02*
X59396190Y-103084380D01*
X59300952Y-103132000D01*
X59253333Y-103179619D01*
X59158095Y-103322476D01*
X59110476Y-103512952D01*
X59110476Y-103893904D01*
X59158095Y-103989142D01*
X59205714Y-104036761D01*
X59300952Y-104084380D01*
X59491428Y-104084380D01*
X59586666Y-104036761D01*
X59634285Y-103989142D01*
X59681904Y-103893904D01*
X59681904Y-103655809D01*
X59634285Y-103560571D01*
X59586666Y-103512952D01*
X59491428Y-103465333D01*
X59300952Y-103465333D01*
X59205714Y-103512952D01*
X59158095Y-103560571D01*
X59110476Y-103655809D01*
X92575142Y-122626380D02*
X92241809Y-122150190D01*
X92003714Y-122626380D02*
X92003714Y-121626380D01*
X92384666Y-121626380D01*
X92479904Y-121674000D01*
X92527523Y-121721619D01*
X92575142Y-121816857D01*
X92575142Y-121959714D01*
X92527523Y-122054952D01*
X92479904Y-122102571D01*
X92384666Y-122150190D01*
X92003714Y-122150190D01*
X92956095Y-121721619D02*
X93003714Y-121674000D01*
X93098952Y-121626380D01*
X93337047Y-121626380D01*
X93432285Y-121674000D01*
X93479904Y-121721619D01*
X93527523Y-121816857D01*
X93527523Y-121912095D01*
X93479904Y-122054952D01*
X92908476Y-122626380D01*
X93527523Y-122626380D01*
X94432285Y-121626380D02*
X93956095Y-121626380D01*
X93908476Y-122102571D01*
X93956095Y-122054952D01*
X94051333Y-122007333D01*
X94289428Y-122007333D01*
X94384666Y-122054952D01*
X94432285Y-122102571D01*
X94479904Y-122197809D01*
X94479904Y-122435904D01*
X94432285Y-122531142D01*
X94384666Y-122578761D01*
X94289428Y-122626380D01*
X94051333Y-122626380D01*
X93956095Y-122578761D01*
X93908476Y-122531142D01*
X92702142Y-104084380D02*
X92368809Y-103608190D01*
X92130714Y-104084380D02*
X92130714Y-103084380D01*
X92511666Y-103084380D01*
X92606904Y-103132000D01*
X92654523Y-103179619D01*
X92702142Y-103274857D01*
X92702142Y-103417714D01*
X92654523Y-103512952D01*
X92606904Y-103560571D01*
X92511666Y-103608190D01*
X92130714Y-103608190D01*
X93083095Y-103179619D02*
X93130714Y-103132000D01*
X93225952Y-103084380D01*
X93464047Y-103084380D01*
X93559285Y-103132000D01*
X93606904Y-103179619D01*
X93654523Y-103274857D01*
X93654523Y-103370095D01*
X93606904Y-103512952D01*
X93035476Y-104084380D01*
X93654523Y-104084380D01*
X93987857Y-103084380D02*
X94606904Y-103084380D01*
X94273571Y-103465333D01*
X94416428Y-103465333D01*
X94511666Y-103512952D01*
X94559285Y-103560571D01*
X94606904Y-103655809D01*
X94606904Y-103893904D01*
X94559285Y-103989142D01*
X94511666Y-104036761D01*
X94416428Y-104084380D01*
X94130714Y-104084380D01*
X94035476Y-104036761D01*
X93987857Y-103989142D01*
X89773522Y-122697500D02*
X89440189Y-122221310D01*
X89202094Y-122697500D02*
X89202094Y-121697500D01*
X89583046Y-121697500D01*
X89678284Y-121745120D01*
X89725903Y-121792739D01*
X89773522Y-121887977D01*
X89773522Y-122030834D01*
X89725903Y-122126072D01*
X89678284Y-122173691D01*
X89583046Y-122221310D01*
X89202094Y-122221310D01*
X90154475Y-121792739D02*
X90202094Y-121745120D01*
X90297332Y-121697500D01*
X90535427Y-121697500D01*
X90630665Y-121745120D01*
X90678284Y-121792739D01*
X90725903Y-121887977D01*
X90725903Y-121983215D01*
X90678284Y-122126072D01*
X90106856Y-122697500D01*
X90725903Y-122697500D01*
X91678284Y-122697500D02*
X91106856Y-122697500D01*
X91392570Y-122697500D02*
X91392570Y-121697500D01*
X91297332Y-121840358D01*
X91202094Y-121935596D01*
X91106856Y-121983215D01*
X89781142Y-104084380D02*
X89447809Y-103608190D01*
X89209714Y-104084380D02*
X89209714Y-103084380D01*
X89590666Y-103084380D01*
X89685904Y-103132000D01*
X89733523Y-103179619D01*
X89781142Y-103274857D01*
X89781142Y-103417714D01*
X89733523Y-103512952D01*
X89685904Y-103560571D01*
X89590666Y-103608190D01*
X89209714Y-103608190D01*
X90162095Y-103179619D02*
X90209714Y-103132000D01*
X90304952Y-103084380D01*
X90543047Y-103084380D01*
X90638285Y-103132000D01*
X90685904Y-103179619D01*
X90733523Y-103274857D01*
X90733523Y-103370095D01*
X90685904Y-103512952D01*
X90114476Y-104084380D01*
X90733523Y-104084380D01*
X91352571Y-103084380D02*
X91447809Y-103084380D01*
X91543047Y-103132000D01*
X91590666Y-103179619D01*
X91638285Y-103274857D01*
X91685904Y-103465333D01*
X91685904Y-103703428D01*
X91638285Y-103893904D01*
X91590666Y-103989142D01*
X91543047Y-104036761D01*
X91447809Y-104084380D01*
X91352571Y-104084380D01*
X91257333Y-104036761D01*
X91209714Y-103989142D01*
X91162095Y-103893904D01*
X91114476Y-103703428D01*
X91114476Y-103465333D01*
X91162095Y-103274857D01*
X91209714Y-103179619D01*
X91257333Y-103132000D01*
X91352571Y-103084380D01*
X81907142Y-122626380D02*
X81573809Y-122150190D01*
X81335714Y-122626380D02*
X81335714Y-121626380D01*
X81716666Y-121626380D01*
X81811904Y-121674000D01*
X81859523Y-121721619D01*
X81907142Y-121816857D01*
X81907142Y-121959714D01*
X81859523Y-122054952D01*
X81811904Y-122102571D01*
X81716666Y-122150190D01*
X81335714Y-122150190D01*
X82859523Y-122626380D02*
X82288095Y-122626380D01*
X82573809Y-122626380D02*
X82573809Y-121626380D01*
X82478571Y-121769238D01*
X82383333Y-121864476D01*
X82288095Y-121912095D01*
X83335714Y-122626380D02*
X83526190Y-122626380D01*
X83621428Y-122578761D01*
X83669047Y-122531142D01*
X83764285Y-122388285D01*
X83811904Y-122197809D01*
X83811904Y-121816857D01*
X83764285Y-121721619D01*
X83716666Y-121674000D01*
X83621428Y-121626380D01*
X83430952Y-121626380D01*
X83335714Y-121674000D01*
X83288095Y-121721619D01*
X83240476Y-121816857D01*
X83240476Y-122054952D01*
X83288095Y-122150190D01*
X83335714Y-122197809D01*
X83430952Y-122245428D01*
X83621428Y-122245428D01*
X83716666Y-122197809D01*
X83764285Y-122150190D01*
X83811904Y-122054952D01*
X82034142Y-104084380D02*
X81700809Y-103608190D01*
X81462714Y-104084380D02*
X81462714Y-103084380D01*
X81843666Y-103084380D01*
X81938904Y-103132000D01*
X81986523Y-103179619D01*
X82034142Y-103274857D01*
X82034142Y-103417714D01*
X81986523Y-103512952D01*
X81938904Y-103560571D01*
X81843666Y-103608190D01*
X81462714Y-103608190D01*
X82986523Y-104084380D02*
X82415095Y-104084380D01*
X82700809Y-104084380D02*
X82700809Y-103084380D01*
X82605571Y-103227238D01*
X82510333Y-103322476D01*
X82415095Y-103370095D01*
X83319857Y-103084380D02*
X83986523Y-103084380D01*
X83557952Y-104084380D01*
X79105522Y-122697500D02*
X78772189Y-122221310D01*
X78534094Y-122697500D02*
X78534094Y-121697500D01*
X78915046Y-121697500D01*
X79010284Y-121745120D01*
X79057903Y-121792739D01*
X79105522Y-121887977D01*
X79105522Y-122030834D01*
X79057903Y-122126072D01*
X79010284Y-122173691D01*
X78915046Y-122221310D01*
X78534094Y-122221310D01*
X80057903Y-122697500D02*
X79486475Y-122697500D01*
X79772189Y-122697500D02*
X79772189Y-121697500D01*
X79676951Y-121840358D01*
X79581713Y-121935596D01*
X79486475Y-121983215D01*
X80962665Y-121697500D02*
X80486475Y-121697500D01*
X80438856Y-122173691D01*
X80486475Y-122126072D01*
X80581713Y-122078453D01*
X80819808Y-122078453D01*
X80915046Y-122126072D01*
X80962665Y-122173691D01*
X81010284Y-122268929D01*
X81010284Y-122507024D01*
X80962665Y-122602262D01*
X80915046Y-122649881D01*
X80819808Y-122697500D01*
X80581713Y-122697500D01*
X80486475Y-122649881D01*
X80438856Y-122602262D01*
X79113142Y-104084380D02*
X78779809Y-103608190D01*
X78541714Y-104084380D02*
X78541714Y-103084380D01*
X78922666Y-103084380D01*
X79017904Y-103132000D01*
X79065523Y-103179619D01*
X79113142Y-103274857D01*
X79113142Y-103417714D01*
X79065523Y-103512952D01*
X79017904Y-103560571D01*
X78922666Y-103608190D01*
X78541714Y-103608190D01*
X80065523Y-104084380D02*
X79494095Y-104084380D01*
X79779809Y-104084380D02*
X79779809Y-103084380D01*
X79684571Y-103227238D01*
X79589333Y-103322476D01*
X79494095Y-103370095D01*
X80922666Y-103417714D02*
X80922666Y-104084380D01*
X80684571Y-103036761D02*
X80446476Y-103751047D01*
X81065523Y-103751047D01*
X49903142Y-122626380D02*
X49569809Y-122150190D01*
X49331714Y-122626380D02*
X49331714Y-121626380D01*
X49712666Y-121626380D01*
X49807904Y-121674000D01*
X49855523Y-121721619D01*
X49903142Y-121816857D01*
X49903142Y-121959714D01*
X49855523Y-122054952D01*
X49807904Y-122102571D01*
X49712666Y-122150190D01*
X49331714Y-122150190D01*
X50855523Y-122626380D02*
X50284095Y-122626380D01*
X50569809Y-122626380D02*
X50569809Y-121626380D01*
X50474571Y-121769238D01*
X50379333Y-121864476D01*
X50284095Y-121912095D01*
X51188857Y-121626380D02*
X51807904Y-121626380D01*
X51474571Y-122007333D01*
X51617428Y-122007333D01*
X51712666Y-122054952D01*
X51760285Y-122102571D01*
X51807904Y-122197809D01*
X51807904Y-122435904D01*
X51760285Y-122531142D01*
X51712666Y-122578761D01*
X51617428Y-122626380D01*
X51331714Y-122626380D01*
X51236476Y-122578761D01*
X51188857Y-122531142D01*
X50030142Y-104084380D02*
X49696809Y-103608190D01*
X49458714Y-104084380D02*
X49458714Y-103084380D01*
X49839666Y-103084380D01*
X49934904Y-103132000D01*
X49982523Y-103179619D01*
X50030142Y-103274857D01*
X50030142Y-103417714D01*
X49982523Y-103512952D01*
X49934904Y-103560571D01*
X49839666Y-103608190D01*
X49458714Y-103608190D01*
X50982523Y-104084380D02*
X50411095Y-104084380D01*
X50696809Y-104084380D02*
X50696809Y-103084380D01*
X50601571Y-103227238D01*
X50506333Y-103322476D01*
X50411095Y-103370095D01*
X51934904Y-104084380D02*
X51363476Y-104084380D01*
X51649190Y-104084380D02*
X51649190Y-103084380D01*
X51553952Y-103227238D01*
X51458714Y-103322476D01*
X51363476Y-103370095D01*
X47577713Y-122697500D02*
X47244380Y-122221310D01*
X47006284Y-122697500D02*
X47006284Y-121697500D01*
X47387237Y-121697500D01*
X47482475Y-121745120D01*
X47530094Y-121792739D01*
X47577713Y-121887977D01*
X47577713Y-122030834D01*
X47530094Y-122126072D01*
X47482475Y-122173691D01*
X47387237Y-122221310D01*
X47006284Y-122221310D01*
X48053903Y-122697500D02*
X48244380Y-122697500D01*
X48339618Y-122649881D01*
X48387237Y-122602262D01*
X48482475Y-122459405D01*
X48530094Y-122268929D01*
X48530094Y-121887977D01*
X48482475Y-121792739D01*
X48434856Y-121745120D01*
X48339618Y-121697500D01*
X48149141Y-121697500D01*
X48053903Y-121745120D01*
X48006284Y-121792739D01*
X47958665Y-121887977D01*
X47958665Y-122126072D01*
X48006284Y-122221310D01*
X48053903Y-122268929D01*
X48149141Y-122316548D01*
X48339618Y-122316548D01*
X48434856Y-122268929D01*
X48482475Y-122221310D01*
X48530094Y-122126072D01*
X47585333Y-104084380D02*
X47252000Y-103608190D01*
X47013904Y-104084380D02*
X47013904Y-103084380D01*
X47394857Y-103084380D01*
X47490095Y-103132000D01*
X47537714Y-103179619D01*
X47585333Y-103274857D01*
X47585333Y-103417714D01*
X47537714Y-103512952D01*
X47490095Y-103560571D01*
X47394857Y-103608190D01*
X47013904Y-103608190D01*
X48156761Y-103512952D02*
X48061523Y-103465333D01*
X48013904Y-103417714D01*
X47966285Y-103322476D01*
X47966285Y-103274857D01*
X48013904Y-103179619D01*
X48061523Y-103132000D01*
X48156761Y-103084380D01*
X48347238Y-103084380D01*
X48442476Y-103132000D01*
X48490095Y-103179619D01*
X48537714Y-103274857D01*
X48537714Y-103322476D01*
X48490095Y-103417714D01*
X48442476Y-103465333D01*
X48347238Y-103512952D01*
X48156761Y-103512952D01*
X48061523Y-103560571D01*
X48013904Y-103608190D01*
X47966285Y-103703428D01*
X47966285Y-103893904D01*
X48013904Y-103989142D01*
X48061523Y-104036761D01*
X48156761Y-104084380D01*
X48347238Y-104084380D01*
X48442476Y-104036761D01*
X48490095Y-103989142D01*
X48537714Y-103893904D01*
X48537714Y-103703428D01*
X48490095Y-103608190D01*
X48442476Y-103560571D01*
X48347238Y-103512952D01*
X39711333Y-122626380D02*
X39378000Y-122150190D01*
X39139904Y-122626380D02*
X39139904Y-121626380D01*
X39520857Y-121626380D01*
X39616095Y-121674000D01*
X39663714Y-121721619D01*
X39711333Y-121816857D01*
X39711333Y-121959714D01*
X39663714Y-122054952D01*
X39616095Y-122102571D01*
X39520857Y-122150190D01*
X39139904Y-122150190D01*
X40044666Y-121626380D02*
X40711333Y-121626380D01*
X40282761Y-122626380D01*
X39838333Y-104084380D02*
X39505000Y-103608190D01*
X39266904Y-104084380D02*
X39266904Y-103084380D01*
X39647857Y-103084380D01*
X39743095Y-103132000D01*
X39790714Y-103179619D01*
X39838333Y-103274857D01*
X39838333Y-103417714D01*
X39790714Y-103512952D01*
X39743095Y-103560571D01*
X39647857Y-103608190D01*
X39266904Y-103608190D01*
X40743095Y-103084380D02*
X40266904Y-103084380D01*
X40219285Y-103560571D01*
X40266904Y-103512952D01*
X40362142Y-103465333D01*
X40600238Y-103465333D01*
X40695476Y-103512952D01*
X40743095Y-103560571D01*
X40790714Y-103655809D01*
X40790714Y-103893904D01*
X40743095Y-103989142D01*
X40695476Y-104036761D01*
X40600238Y-104084380D01*
X40362142Y-104084380D01*
X40266904Y-104036761D01*
X40219285Y-103989142D01*
X36909713Y-122697500D02*
X36576380Y-122221310D01*
X36338284Y-122697500D02*
X36338284Y-121697500D01*
X36719237Y-121697500D01*
X36814475Y-121745120D01*
X36862094Y-121792739D01*
X36909713Y-121887977D01*
X36909713Y-122030834D01*
X36862094Y-122126072D01*
X36814475Y-122173691D01*
X36719237Y-122221310D01*
X36338284Y-122221310D01*
X37243046Y-121697500D02*
X37862094Y-121697500D01*
X37528760Y-122078453D01*
X37671618Y-122078453D01*
X37766856Y-122126072D01*
X37814475Y-122173691D01*
X37862094Y-122268929D01*
X37862094Y-122507024D01*
X37814475Y-122602262D01*
X37766856Y-122649881D01*
X37671618Y-122697500D01*
X37385903Y-122697500D01*
X37290665Y-122649881D01*
X37243046Y-122602262D01*
X36917333Y-104084380D02*
X36584000Y-103608190D01*
X36345904Y-104084380D02*
X36345904Y-103084380D01*
X36726857Y-103084380D01*
X36822095Y-103132000D01*
X36869714Y-103179619D01*
X36917333Y-103274857D01*
X36917333Y-103417714D01*
X36869714Y-103512952D01*
X36822095Y-103560571D01*
X36726857Y-103608190D01*
X36345904Y-103608190D01*
X37298285Y-103179619D02*
X37345904Y-103132000D01*
X37441142Y-103084380D01*
X37679238Y-103084380D01*
X37774476Y-103132000D01*
X37822095Y-103179619D01*
X37869714Y-103274857D01*
X37869714Y-103370095D01*
X37822095Y-103512952D01*
X37250666Y-104084380D01*
X37869714Y-104084380D01*
X9358333Y-120102380D02*
X9025000Y-119626190D01*
X8786904Y-120102380D02*
X8786904Y-119102380D01*
X9167857Y-119102380D01*
X9263095Y-119150000D01*
X9310714Y-119197619D01*
X9358333Y-119292857D01*
X9358333Y-119435714D01*
X9310714Y-119530952D01*
X9263095Y-119578571D01*
X9167857Y-119626190D01*
X8786904Y-119626190D01*
X10310714Y-120102380D02*
X9739285Y-120102380D01*
X10025000Y-120102380D02*
X10025000Y-119102380D01*
X9929761Y-119245238D01*
X9834523Y-119340476D01*
X9739285Y-119388095D01*
X30988095Y-73957380D02*
X30988095Y-74766904D01*
X31035714Y-74862142D01*
X31083333Y-74909761D01*
X31178571Y-74957380D01*
X31369047Y-74957380D01*
X31464285Y-74909761D01*
X31511904Y-74862142D01*
X31559523Y-74766904D01*
X31559523Y-73957380D01*
X32559523Y-74957380D02*
X31988095Y-74957380D01*
X32273809Y-74957380D02*
X32273809Y-73957380D01*
X32178571Y-74100238D01*
X32083333Y-74195476D01*
X31988095Y-74243095D01*
X7286666Y-100629047D02*
X7286666Y-101343333D01*
X7239047Y-101486190D01*
X7143809Y-101581428D01*
X7000952Y-101629047D01*
X6905714Y-101629047D01*
X8239047Y-100629047D02*
X7762857Y-100629047D01*
X7715238Y-101105238D01*
X7762857Y-101057619D01*
X7858095Y-101010000D01*
X8096190Y-101010000D01*
X8191428Y-101057619D01*
X8239047Y-101105238D01*
X8286666Y-101200476D01*
X8286666Y-101438571D01*
X8239047Y-101533809D01*
X8191428Y-101581428D01*
X8096190Y-101629047D01*
X7858095Y-101629047D01*
X7762857Y-101581428D01*
X7715238Y-101533809D01*
X7921666Y-88352380D02*
X7921666Y-89066666D01*
X7874047Y-89209523D01*
X7778809Y-89304761D01*
X7635952Y-89352380D01*
X7540714Y-89352380D01*
X8826428Y-88685714D02*
X8826428Y-89352380D01*
X8588333Y-88304761D02*
X8350238Y-89019047D01*
X8969285Y-89019047D01*
X9826666Y-78827380D02*
X9826666Y-79541666D01*
X9779047Y-79684523D01*
X9683809Y-79779761D01*
X9540952Y-79827380D01*
X9445714Y-79827380D01*
X10207619Y-78827380D02*
X10826666Y-78827380D01*
X10493333Y-79208333D01*
X10636190Y-79208333D01*
X10731428Y-79255952D01*
X10779047Y-79303571D01*
X10826666Y-79398809D01*
X10826666Y-79636904D01*
X10779047Y-79732142D01*
X10731428Y-79779761D01*
X10636190Y-79827380D01*
X10350476Y-79827380D01*
X10255238Y-79779761D01*
X10207619Y-79732142D01*
X11731666Y-83272380D02*
X11731666Y-83986666D01*
X11684047Y-84129523D01*
X11588809Y-84224761D01*
X11445952Y-84272380D01*
X11350714Y-84272380D01*
X12731666Y-84272380D02*
X12160238Y-84272380D01*
X12445952Y-84272380D02*
X12445952Y-83272380D01*
X12350714Y-83415238D01*
X12255476Y-83510476D01*
X12160238Y-83558095D01*
X75374571Y-105449619D02*
X75279333Y-105402000D01*
X75184095Y-105306761D01*
X75041238Y-105163904D01*
X74946000Y-105116285D01*
X74850761Y-105116285D01*
X74898380Y-105354380D02*
X74803142Y-105306761D01*
X74707904Y-105211523D01*
X74660285Y-105021047D01*
X74660285Y-104687714D01*
X74707904Y-104497238D01*
X74803142Y-104402000D01*
X74898380Y-104354380D01*
X75088857Y-104354380D01*
X75184095Y-104402000D01*
X75279333Y-104497238D01*
X75326952Y-104687714D01*
X75326952Y-105021047D01*
X75279333Y-105211523D01*
X75184095Y-105306761D01*
X75088857Y-105354380D01*
X74898380Y-105354380D01*
X76279333Y-105354380D02*
X75707904Y-105354380D01*
X75993619Y-105354380D02*
X75993619Y-104354380D01*
X75898380Y-104497238D01*
X75803142Y-104592476D01*
X75707904Y-104640095D01*
X76612666Y-104354380D02*
X77279333Y-104354380D01*
X76850761Y-105354380D01*
X75628571Y-86653619D02*
X75533333Y-86606000D01*
X75438095Y-86510761D01*
X75295238Y-86367904D01*
X75200000Y-86320285D01*
X75104761Y-86320285D01*
X75152380Y-86558380D02*
X75057142Y-86510761D01*
X74961904Y-86415523D01*
X74914285Y-86225047D01*
X74914285Y-85891714D01*
X74961904Y-85701238D01*
X75057142Y-85606000D01*
X75152380Y-85558380D01*
X75342857Y-85558380D01*
X75438095Y-85606000D01*
X75533333Y-85701238D01*
X75580952Y-85891714D01*
X75580952Y-86225047D01*
X75533333Y-86415523D01*
X75438095Y-86510761D01*
X75342857Y-86558380D01*
X75152380Y-86558380D01*
X76533333Y-86558380D02*
X75961904Y-86558380D01*
X76247619Y-86558380D02*
X76247619Y-85558380D01*
X76152380Y-85701238D01*
X76057142Y-85796476D01*
X75961904Y-85844095D01*
X77390476Y-85558380D02*
X77200000Y-85558380D01*
X77104761Y-85606000D01*
X77057142Y-85653619D01*
X76961904Y-85796476D01*
X76914285Y-85986952D01*
X76914285Y-86367904D01*
X76961904Y-86463142D01*
X77009523Y-86510761D01*
X77104761Y-86558380D01*
X77295238Y-86558380D01*
X77390476Y-86510761D01*
X77438095Y-86463142D01*
X77485714Y-86367904D01*
X77485714Y-86129809D01*
X77438095Y-86034571D01*
X77390476Y-85986952D01*
X77295238Y-85939333D01*
X77104761Y-85939333D01*
X77009523Y-85986952D01*
X76961904Y-86034571D01*
X76914285Y-86129809D01*
X64706571Y-105449619D02*
X64611333Y-105402000D01*
X64516095Y-105306761D01*
X64373238Y-105163904D01*
X64278000Y-105116285D01*
X64182761Y-105116285D01*
X64230380Y-105354380D02*
X64135142Y-105306761D01*
X64039904Y-105211523D01*
X63992285Y-105021047D01*
X63992285Y-104687714D01*
X64039904Y-104497238D01*
X64135142Y-104402000D01*
X64230380Y-104354380D01*
X64420857Y-104354380D01*
X64516095Y-104402000D01*
X64611333Y-104497238D01*
X64658952Y-104687714D01*
X64658952Y-105021047D01*
X64611333Y-105211523D01*
X64516095Y-105306761D01*
X64420857Y-105354380D01*
X64230380Y-105354380D01*
X65611333Y-105354380D02*
X65039904Y-105354380D01*
X65325619Y-105354380D02*
X65325619Y-104354380D01*
X65230380Y-104497238D01*
X65135142Y-104592476D01*
X65039904Y-104640095D01*
X66468476Y-104687714D02*
X66468476Y-105354380D01*
X66230380Y-104306761D02*
X65992285Y-105021047D01*
X66611333Y-105021047D01*
X64960571Y-86653619D02*
X64865333Y-86606000D01*
X64770095Y-86510761D01*
X64627238Y-86367904D01*
X64532000Y-86320285D01*
X64436761Y-86320285D01*
X64484380Y-86558380D02*
X64389142Y-86510761D01*
X64293904Y-86415523D01*
X64246285Y-86225047D01*
X64246285Y-85891714D01*
X64293904Y-85701238D01*
X64389142Y-85606000D01*
X64484380Y-85558380D01*
X64674857Y-85558380D01*
X64770095Y-85606000D01*
X64865333Y-85701238D01*
X64912952Y-85891714D01*
X64912952Y-86225047D01*
X64865333Y-86415523D01*
X64770095Y-86510761D01*
X64674857Y-86558380D01*
X64484380Y-86558380D01*
X65865333Y-86558380D02*
X65293904Y-86558380D01*
X65579619Y-86558380D02*
X65579619Y-85558380D01*
X65484380Y-85701238D01*
X65389142Y-85796476D01*
X65293904Y-85844095D01*
X66198666Y-85558380D02*
X66817714Y-85558380D01*
X66484380Y-85939333D01*
X66627238Y-85939333D01*
X66722476Y-85986952D01*
X66770095Y-86034571D01*
X66817714Y-86129809D01*
X66817714Y-86367904D01*
X66770095Y-86463142D01*
X66722476Y-86510761D01*
X66627238Y-86558380D01*
X66341523Y-86558380D01*
X66246285Y-86510761D01*
X66198666Y-86463142D01*
X96710571Y-105449619D02*
X96615333Y-105402000D01*
X96520095Y-105306761D01*
X96377238Y-105163904D01*
X96282000Y-105116285D01*
X96186761Y-105116285D01*
X96234380Y-105354380D02*
X96139142Y-105306761D01*
X96043904Y-105211523D01*
X95996285Y-105021047D01*
X95996285Y-104687714D01*
X96043904Y-104497238D01*
X96139142Y-104402000D01*
X96234380Y-104354380D01*
X96424857Y-104354380D01*
X96520095Y-104402000D01*
X96615333Y-104497238D01*
X96662952Y-104687714D01*
X96662952Y-105021047D01*
X96615333Y-105211523D01*
X96520095Y-105306761D01*
X96424857Y-105354380D01*
X96234380Y-105354380D01*
X97615333Y-105354380D02*
X97043904Y-105354380D01*
X97329619Y-105354380D02*
X97329619Y-104354380D01*
X97234380Y-104497238D01*
X97139142Y-104592476D01*
X97043904Y-104640095D01*
X98567714Y-105354380D02*
X97996285Y-105354380D01*
X98282000Y-105354380D02*
X98282000Y-104354380D01*
X98186761Y-104497238D01*
X98091523Y-104592476D01*
X97996285Y-104640095D01*
X96964571Y-86653619D02*
X96869333Y-86606000D01*
X96774095Y-86510761D01*
X96631238Y-86367904D01*
X96536000Y-86320285D01*
X96440761Y-86320285D01*
X96488380Y-86558380D02*
X96393142Y-86510761D01*
X96297904Y-86415523D01*
X96250285Y-86225047D01*
X96250285Y-85891714D01*
X96297904Y-85701238D01*
X96393142Y-85606000D01*
X96488380Y-85558380D01*
X96678857Y-85558380D01*
X96774095Y-85606000D01*
X96869333Y-85701238D01*
X96916952Y-85891714D01*
X96916952Y-86225047D01*
X96869333Y-86415523D01*
X96774095Y-86510761D01*
X96678857Y-86558380D01*
X96488380Y-86558380D01*
X97869333Y-86558380D02*
X97297904Y-86558380D01*
X97583619Y-86558380D02*
X97583619Y-85558380D01*
X97488380Y-85701238D01*
X97393142Y-85796476D01*
X97297904Y-85844095D01*
X98488380Y-85558380D02*
X98583619Y-85558380D01*
X98678857Y-85606000D01*
X98726476Y-85653619D01*
X98774095Y-85748857D01*
X98821714Y-85939333D01*
X98821714Y-86177428D01*
X98774095Y-86367904D01*
X98726476Y-86463142D01*
X98678857Y-86510761D01*
X98583619Y-86558380D01*
X98488380Y-86558380D01*
X98393142Y-86510761D01*
X98345523Y-86463142D01*
X98297904Y-86367904D01*
X98250285Y-86177428D01*
X98250285Y-85939333D01*
X98297904Y-85748857D01*
X98345523Y-85653619D01*
X98393142Y-85606000D01*
X98488380Y-85558380D01*
X86518761Y-105449619D02*
X86423523Y-105402000D01*
X86328285Y-105306761D01*
X86185428Y-105163904D01*
X86090190Y-105116285D01*
X85994952Y-105116285D01*
X86042571Y-105354380D02*
X85947333Y-105306761D01*
X85852095Y-105211523D01*
X85804476Y-105021047D01*
X85804476Y-104687714D01*
X85852095Y-104497238D01*
X85947333Y-104402000D01*
X86042571Y-104354380D01*
X86233047Y-104354380D01*
X86328285Y-104402000D01*
X86423523Y-104497238D01*
X86471142Y-104687714D01*
X86471142Y-105021047D01*
X86423523Y-105211523D01*
X86328285Y-105306761D01*
X86233047Y-105354380D01*
X86042571Y-105354380D01*
X87042571Y-104782952D02*
X86947333Y-104735333D01*
X86899714Y-104687714D01*
X86852095Y-104592476D01*
X86852095Y-104544857D01*
X86899714Y-104449619D01*
X86947333Y-104402000D01*
X87042571Y-104354380D01*
X87233047Y-104354380D01*
X87328285Y-104402000D01*
X87375904Y-104449619D01*
X87423523Y-104544857D01*
X87423523Y-104592476D01*
X87375904Y-104687714D01*
X87328285Y-104735333D01*
X87233047Y-104782952D01*
X87042571Y-104782952D01*
X86947333Y-104830571D01*
X86899714Y-104878190D01*
X86852095Y-104973428D01*
X86852095Y-105163904D01*
X86899714Y-105259142D01*
X86947333Y-105306761D01*
X87042571Y-105354380D01*
X87233047Y-105354380D01*
X87328285Y-105306761D01*
X87375904Y-105259142D01*
X87423523Y-105163904D01*
X87423523Y-104973428D01*
X87375904Y-104878190D01*
X87328285Y-104830571D01*
X87233047Y-104782952D01*
X86772761Y-86653619D02*
X86677523Y-86606000D01*
X86582285Y-86510761D01*
X86439428Y-86367904D01*
X86344190Y-86320285D01*
X86248952Y-86320285D01*
X86296571Y-86558380D02*
X86201333Y-86510761D01*
X86106095Y-86415523D01*
X86058476Y-86225047D01*
X86058476Y-85891714D01*
X86106095Y-85701238D01*
X86201333Y-85606000D01*
X86296571Y-85558380D01*
X86487047Y-85558380D01*
X86582285Y-85606000D01*
X86677523Y-85701238D01*
X86725142Y-85891714D01*
X86725142Y-86225047D01*
X86677523Y-86415523D01*
X86582285Y-86510761D01*
X86487047Y-86558380D01*
X86296571Y-86558380D01*
X87058476Y-85558380D02*
X87725142Y-85558380D01*
X87296571Y-86558380D01*
X54514761Y-105449619D02*
X54419523Y-105402000D01*
X54324285Y-105306761D01*
X54181428Y-105163904D01*
X54086190Y-105116285D01*
X53990952Y-105116285D01*
X54038571Y-105354380D02*
X53943333Y-105306761D01*
X53848095Y-105211523D01*
X53800476Y-105021047D01*
X53800476Y-104687714D01*
X53848095Y-104497238D01*
X53943333Y-104402000D01*
X54038571Y-104354380D01*
X54229047Y-104354380D01*
X54324285Y-104402000D01*
X54419523Y-104497238D01*
X54467142Y-104687714D01*
X54467142Y-105021047D01*
X54419523Y-105211523D01*
X54324285Y-105306761D01*
X54229047Y-105354380D01*
X54038571Y-105354380D01*
X55371904Y-104354380D02*
X54895714Y-104354380D01*
X54848095Y-104830571D01*
X54895714Y-104782952D01*
X54990952Y-104735333D01*
X55229047Y-104735333D01*
X55324285Y-104782952D01*
X55371904Y-104830571D01*
X55419523Y-104925809D01*
X55419523Y-105163904D01*
X55371904Y-105259142D01*
X55324285Y-105306761D01*
X55229047Y-105354380D01*
X54990952Y-105354380D01*
X54895714Y-105306761D01*
X54848095Y-105259142D01*
X43846761Y-105449619D02*
X43751523Y-105402000D01*
X43656285Y-105306761D01*
X43513428Y-105163904D01*
X43418190Y-105116285D01*
X43322952Y-105116285D01*
X43370571Y-105354380D02*
X43275333Y-105306761D01*
X43180095Y-105211523D01*
X43132476Y-105021047D01*
X43132476Y-104687714D01*
X43180095Y-104497238D01*
X43275333Y-104402000D01*
X43370571Y-104354380D01*
X43561047Y-104354380D01*
X43656285Y-104402000D01*
X43751523Y-104497238D01*
X43799142Y-104687714D01*
X43799142Y-105021047D01*
X43751523Y-105211523D01*
X43656285Y-105306761D01*
X43561047Y-105354380D01*
X43370571Y-105354380D01*
X44180095Y-104449619D02*
X44227714Y-104402000D01*
X44322952Y-104354380D01*
X44561047Y-104354380D01*
X44656285Y-104402000D01*
X44703904Y-104449619D01*
X44751523Y-104544857D01*
X44751523Y-104640095D01*
X44703904Y-104782952D01*
X44132476Y-105354380D01*
X44751523Y-105354380D01*
X42211666Y-76287380D02*
X42211666Y-77001666D01*
X42164047Y-77144523D01*
X42068809Y-77239761D01*
X41925952Y-77287380D01*
X41830714Y-77287380D01*
X42640238Y-76382619D02*
X42687857Y-76335000D01*
X42783095Y-76287380D01*
X43021190Y-76287380D01*
X43116428Y-76335000D01*
X43164047Y-76382619D01*
X43211666Y-76477857D01*
X43211666Y-76573095D01*
X43164047Y-76715952D01*
X42592619Y-77287380D01*
X43211666Y-77287380D01*
X8786904Y-116022380D02*
X8786904Y-115022380D01*
X9025000Y-115022380D01*
X9167857Y-115070000D01*
X9263095Y-115165238D01*
X9310714Y-115260476D01*
X9358333Y-115450952D01*
X9358333Y-115593809D01*
X9310714Y-115784285D01*
X9263095Y-115879523D01*
X9167857Y-115974761D01*
X9025000Y-116022380D01*
X8786904Y-116022380D01*
X10310714Y-116022380D02*
X9739285Y-116022380D01*
X10025000Y-116022380D02*
X10025000Y-115022380D01*
X9929761Y-115165238D01*
X9834523Y-115260476D01*
X9739285Y-115308095D01*
M02*
