G04 #@! TF.GenerationSoftware,KiCad,Pcbnew,(6.0.1)*
G04 #@! TF.CreationDate,2022-02-20T22:53:52-05:00*
G04 #@! TF.ProjectId,op_mainboard1,6f705f6d-6169-46e6-926f-617264312e6b,rev?*
G04 #@! TF.SameCoordinates,Original*
G04 #@! TF.FileFunction,Paste,Top*
G04 #@! TF.FilePolarity,Positive*
%FSLAX46Y46*%
G04 Gerber Fmt 4.6, Leading zero omitted, Abs format (unit mm)*
G04 Created by KiCad (PCBNEW (6.0.1)) date 2022-02-20 22:53:52*
%MOMM*%
%LPD*%
G01*
G04 APERTURE LIST*
G04 Aperture macros list*
%AMRoundRect*
0 Rectangle with rounded corners*
0 $1 Rounding radius*
0 $2 $3 $4 $5 $6 $7 $8 $9 X,Y pos of 4 corners*
0 Add a 4 corners polygon primitive as box body*
4,1,4,$2,$3,$4,$5,$6,$7,$8,$9,$2,$3,0*
0 Add four circle primitives for the rounded corners*
1,1,$1+$1,$2,$3*
1,1,$1+$1,$4,$5*
1,1,$1+$1,$6,$7*
1,1,$1+$1,$8,$9*
0 Add four rect primitives between the rounded corners*
20,1,$1+$1,$2,$3,$4,$5,0*
20,1,$1+$1,$4,$5,$6,$7,0*
20,1,$1+$1,$6,$7,$8,$9,0*
20,1,$1+$1,$8,$9,$2,$3,0*%
G04 Aperture macros list end*
%ADD10R,2.750000X3.050000*%
%ADD11R,1.200000X2.200000*%
%ADD12RoundRect,0.150000X-0.625000X0.150000X-0.625000X-0.150000X0.625000X-0.150000X0.625000X0.150000X0*%
%ADD13RoundRect,0.250000X-0.650000X0.350000X-0.650000X-0.350000X0.650000X-0.350000X0.650000X0.350000X0*%
%ADD14RoundRect,0.250000X0.450000X-0.350000X0.450000X0.350000X-0.450000X0.350000X-0.450000X-0.350000X0*%
%ADD15RoundRect,0.250000X-0.450000X0.350000X-0.450000X-0.350000X0.450000X-0.350000X0.450000X0.350000X0*%
G04 APERTURE END LIST*
D10*
X81535000Y-154075000D03*
X81535000Y-150725000D03*
X78485000Y-154075000D03*
X78485000Y-150725000D03*
D11*
X82290000Y-146100000D03*
X77730000Y-146100000D03*
D12*
X48380400Y-155980000D03*
X48380400Y-156980000D03*
X48380400Y-157980000D03*
X48380400Y-158980000D03*
D13*
X44505400Y-154680000D03*
X44505400Y-160280000D03*
D14*
X128010000Y-114030000D03*
X128010000Y-112030000D03*
X139440000Y-114030000D03*
X139440000Y-112030000D03*
D15*
X100590000Y-140240000D03*
X100590000Y-142240000D03*
X100590000Y-112030000D03*
X100590000Y-114030000D03*
D10*
X124205000Y-126135000D03*
X127255000Y-122785000D03*
X124205000Y-122785000D03*
X127255000Y-126135000D03*
D11*
X128010000Y-118160000D03*
X123450000Y-118160000D03*
D15*
X123450000Y-140240000D03*
X123450000Y-142240000D03*
D14*
X105150000Y-114030000D03*
X105150000Y-112030000D03*
D10*
X112775000Y-126135000D03*
X115825000Y-126135000D03*
X115825000Y-122785000D03*
X112775000Y-122785000D03*
D11*
X116580000Y-118160000D03*
X112020000Y-118160000D03*
D15*
X134880000Y-112030000D03*
X134880000Y-114030000D03*
X112020000Y-112030000D03*
X112020000Y-114030000D03*
D14*
X116580000Y-114030000D03*
X116580000Y-112030000D03*
D15*
X77730000Y-112030000D03*
X77730000Y-114030000D03*
D14*
X116580000Y-142240000D03*
X116580000Y-140240000D03*
D12*
X48634400Y-122452000D03*
X48634400Y-123452000D03*
X48634400Y-124452000D03*
X48634400Y-125452000D03*
D13*
X44759400Y-121152000D03*
X44759400Y-126752000D03*
D15*
X89160000Y-112030000D03*
X89160000Y-114030000D03*
X112020000Y-140240000D03*
X112020000Y-142240000D03*
D14*
X93720000Y-114030000D03*
X93720000Y-112030000D03*
D15*
X77730000Y-140240000D03*
X77730000Y-142240000D03*
D14*
X93720000Y-142240000D03*
X93720000Y-140240000D03*
D10*
X81535000Y-122785000D03*
X78485000Y-126135000D03*
X78485000Y-122785000D03*
X81535000Y-126135000D03*
D11*
X82290000Y-118160000D03*
X77730000Y-118160000D03*
D12*
X48482000Y-145820000D03*
X48482000Y-146820000D03*
X48482000Y-147820000D03*
X48482000Y-148820000D03*
D13*
X44607000Y-144520000D03*
X44607000Y-150120000D03*
D10*
X104395000Y-154075000D03*
X104395000Y-150725000D03*
X101345000Y-150725000D03*
X101345000Y-154075000D03*
D11*
X105150000Y-146100000D03*
X100590000Y-146100000D03*
D14*
X105150000Y-142240000D03*
X105150000Y-140240000D03*
X128010000Y-142240000D03*
X128010000Y-140240000D03*
D10*
X104395000Y-122785000D03*
X101345000Y-122785000D03*
X104395000Y-126135000D03*
X101345000Y-126135000D03*
D11*
X105150000Y-118160000D03*
X100590000Y-118160000D03*
D15*
X89160000Y-140240000D03*
X89160000Y-142240000D03*
D14*
X82290000Y-142240000D03*
X82290000Y-140240000D03*
D15*
X134880000Y-140240000D03*
X134880000Y-142240000D03*
X123450000Y-112030000D03*
X123450000Y-114030000D03*
D14*
X82290000Y-114030000D03*
X82290000Y-112030000D03*
D10*
X135635000Y-154075000D03*
X138685000Y-154075000D03*
X135635000Y-150725000D03*
X138685000Y-150725000D03*
D11*
X139440000Y-146100000D03*
X134880000Y-146100000D03*
D10*
X92965000Y-122785000D03*
X89915000Y-122785000D03*
X92965000Y-126135000D03*
X89915000Y-126135000D03*
D11*
X93720000Y-118160000D03*
X89160000Y-118160000D03*
D14*
X139440000Y-142240000D03*
X139440000Y-140240000D03*
D12*
X48260000Y-134390000D03*
X48260000Y-135390000D03*
X48260000Y-136390000D03*
X48260000Y-137390000D03*
D13*
X44385000Y-138690000D03*
X44385000Y-133090000D03*
D10*
X124205000Y-150725000D03*
X127255000Y-154075000D03*
X124205000Y-154075000D03*
X127255000Y-150725000D03*
D11*
X128010000Y-146100000D03*
X123450000Y-146100000D03*
D10*
X138685000Y-122785000D03*
X138685000Y-126135000D03*
X135635000Y-122785000D03*
X135635000Y-126135000D03*
D11*
X139440000Y-118160000D03*
X134880000Y-118160000D03*
D10*
X92965000Y-154075000D03*
X92965000Y-150725000D03*
X89915000Y-154075000D03*
X89915000Y-150725000D03*
D11*
X93720000Y-146100000D03*
X89160000Y-146100000D03*
D10*
X112775000Y-150725000D03*
X115825000Y-150725000D03*
X112775000Y-154075000D03*
X115825000Y-154075000D03*
D11*
X116580000Y-146100000D03*
X112020000Y-146100000D03*
M02*
