%TF.GenerationSoftware,KiCad,Pcbnew,8.0.2-1*%
%TF.CreationDate,2024-11-16T15:05:09-05:00*%
%TF.ProjectId,Incubator-PowerBoard,496e6375-6261-4746-9f72-2d506f776572,v01a*%
%TF.SameCoordinates,Original*%
%TF.FileFunction,AssemblyDrawing,Top*%
%FSLAX46Y46*%
G04 Gerber Fmt 4.6, Leading zero omitted, Abs format (unit mm)*
G04 Created by KiCad (PCBNEW 8.0.2-1) date 2024-11-16 15:05:09*
%MOMM*%
%LPD*%
G01*
G04 APERTURE LIST*
%ADD10C,0.150000*%
%ADD11C,0.060000*%
%ADD12C,0.120000*%
%ADD13C,0.100000*%
G04 APERTURE END LIST*
D10*
X153284819Y-63031618D02*
X153284819Y-62936380D01*
X153284819Y-62936380D02*
X153332438Y-62841142D01*
X153332438Y-62841142D02*
X153380057Y-62793523D01*
X153380057Y-62793523D02*
X153475295Y-62745904D01*
X153475295Y-62745904D02*
X153665771Y-62698285D01*
X153665771Y-62698285D02*
X153903866Y-62698285D01*
X153903866Y-62698285D02*
X154094342Y-62745904D01*
X154094342Y-62745904D02*
X154189580Y-62793523D01*
X154189580Y-62793523D02*
X154237200Y-62841142D01*
X154237200Y-62841142D02*
X154284819Y-62936380D01*
X154284819Y-62936380D02*
X154284819Y-63031618D01*
X154284819Y-63031618D02*
X154237200Y-63126856D01*
X154237200Y-63126856D02*
X154189580Y-63174475D01*
X154189580Y-63174475D02*
X154094342Y-63222094D01*
X154094342Y-63222094D02*
X153903866Y-63269713D01*
X153903866Y-63269713D02*
X153665771Y-63269713D01*
X153665771Y-63269713D02*
X153475295Y-63222094D01*
X153475295Y-63222094D02*
X153380057Y-63174475D01*
X153380057Y-63174475D02*
X153332438Y-63126856D01*
X153332438Y-63126856D02*
X153284819Y-63031618D01*
X154284819Y-61698285D02*
X153808628Y-62031618D01*
X154284819Y-62269713D02*
X153284819Y-62269713D01*
X153284819Y-62269713D02*
X153284819Y-61888761D01*
X153284819Y-61888761D02*
X153332438Y-61793523D01*
X153332438Y-61793523D02*
X153380057Y-61745904D01*
X153380057Y-61745904D02*
X153475295Y-61698285D01*
X153475295Y-61698285D02*
X153618152Y-61698285D01*
X153618152Y-61698285D02*
X153713390Y-61745904D01*
X153713390Y-61745904D02*
X153761009Y-61793523D01*
X153761009Y-61793523D02*
X153808628Y-61888761D01*
X153808628Y-61888761D02*
X153808628Y-62269713D01*
D11*
X152581927Y-62550666D02*
X152391451Y-62683999D01*
X152581927Y-62779237D02*
X152181927Y-62779237D01*
X152181927Y-62779237D02*
X152181927Y-62626856D01*
X152181927Y-62626856D02*
X152200975Y-62588761D01*
X152200975Y-62588761D02*
X152220022Y-62569714D01*
X152220022Y-62569714D02*
X152258118Y-62550666D01*
X152258118Y-62550666D02*
X152315260Y-62550666D01*
X152315260Y-62550666D02*
X152353356Y-62569714D01*
X152353356Y-62569714D02*
X152372403Y-62588761D01*
X152372403Y-62588761D02*
X152391451Y-62626856D01*
X152391451Y-62626856D02*
X152391451Y-62779237D01*
X152353356Y-62322095D02*
X152334308Y-62360190D01*
X152334308Y-62360190D02*
X152315260Y-62379237D01*
X152315260Y-62379237D02*
X152277165Y-62398285D01*
X152277165Y-62398285D02*
X152258118Y-62398285D01*
X152258118Y-62398285D02*
X152220022Y-62379237D01*
X152220022Y-62379237D02*
X152200975Y-62360190D01*
X152200975Y-62360190D02*
X152181927Y-62322095D01*
X152181927Y-62322095D02*
X152181927Y-62245904D01*
X152181927Y-62245904D02*
X152200975Y-62207809D01*
X152200975Y-62207809D02*
X152220022Y-62188761D01*
X152220022Y-62188761D02*
X152258118Y-62169714D01*
X152258118Y-62169714D02*
X152277165Y-62169714D01*
X152277165Y-62169714D02*
X152315260Y-62188761D01*
X152315260Y-62188761D02*
X152334308Y-62207809D01*
X152334308Y-62207809D02*
X152353356Y-62245904D01*
X152353356Y-62245904D02*
X152353356Y-62322095D01*
X152353356Y-62322095D02*
X152372403Y-62360190D01*
X152372403Y-62360190D02*
X152391451Y-62379237D01*
X152391451Y-62379237D02*
X152429546Y-62398285D01*
X152429546Y-62398285D02*
X152505737Y-62398285D01*
X152505737Y-62398285D02*
X152543832Y-62379237D01*
X152543832Y-62379237D02*
X152562880Y-62360190D01*
X152562880Y-62360190D02*
X152581927Y-62322095D01*
X152581927Y-62322095D02*
X152581927Y-62245904D01*
X152581927Y-62245904D02*
X152562880Y-62207809D01*
X152562880Y-62207809D02*
X152543832Y-62188761D01*
X152543832Y-62188761D02*
X152505737Y-62169714D01*
X152505737Y-62169714D02*
X152429546Y-62169714D01*
X152429546Y-62169714D02*
X152391451Y-62188761D01*
X152391451Y-62188761D02*
X152372403Y-62207809D01*
X152372403Y-62207809D02*
X152353356Y-62245904D01*
D10*
X199326666Y-28394819D02*
X198993333Y-27918628D01*
X198755238Y-28394819D02*
X198755238Y-27394819D01*
X198755238Y-27394819D02*
X199136190Y-27394819D01*
X199136190Y-27394819D02*
X199231428Y-27442438D01*
X199231428Y-27442438D02*
X199279047Y-27490057D01*
X199279047Y-27490057D02*
X199326666Y-27585295D01*
X199326666Y-27585295D02*
X199326666Y-27728152D01*
X199326666Y-27728152D02*
X199279047Y-27823390D01*
X199279047Y-27823390D02*
X199231428Y-27871009D01*
X199231428Y-27871009D02*
X199136190Y-27918628D01*
X199136190Y-27918628D02*
X198755238Y-27918628D01*
X199755238Y-27871009D02*
X200088571Y-27871009D01*
X200231428Y-28394819D02*
X199755238Y-28394819D01*
X199755238Y-28394819D02*
X199755238Y-27394819D01*
X199755238Y-27394819D02*
X200231428Y-27394819D01*
X200993333Y-27871009D02*
X200660000Y-27871009D01*
X200660000Y-28394819D02*
X200660000Y-27394819D01*
X200660000Y-27394819D02*
X201136190Y-27394819D01*
X201660000Y-27394819D02*
X201660000Y-27632914D01*
X201421905Y-27537676D02*
X201660000Y-27632914D01*
X201660000Y-27632914D02*
X201898095Y-27537676D01*
X201517143Y-27823390D02*
X201660000Y-27632914D01*
X201660000Y-27632914D02*
X201802857Y-27823390D01*
X202421905Y-27394819D02*
X202421905Y-27632914D01*
X202183810Y-27537676D02*
X202421905Y-27632914D01*
X202421905Y-27632914D02*
X202660000Y-27537676D01*
X202279048Y-27823390D02*
X202421905Y-27632914D01*
X202421905Y-27632914D02*
X202564762Y-27823390D01*
X137961714Y-68774819D02*
X137390286Y-68774819D01*
X137676000Y-68774819D02*
X137676000Y-67774819D01*
X137676000Y-67774819D02*
X137580762Y-67917676D01*
X137580762Y-67917676D02*
X137485524Y-68012914D01*
X137485524Y-68012914D02*
X137390286Y-68060533D01*
X138390286Y-68774819D02*
X138390286Y-67774819D01*
X138961714Y-68774819D02*
X138533143Y-68203390D01*
X138961714Y-67774819D02*
X138390286Y-68346247D01*
D12*
X138042667Y-66403855D02*
X137776000Y-66022902D01*
X137585524Y-66403855D02*
X137585524Y-65603855D01*
X137585524Y-65603855D02*
X137890286Y-65603855D01*
X137890286Y-65603855D02*
X137966476Y-65641950D01*
X137966476Y-65641950D02*
X138004571Y-65680045D01*
X138004571Y-65680045D02*
X138042667Y-65756236D01*
X138042667Y-65756236D02*
X138042667Y-65870521D01*
X138042667Y-65870521D02*
X138004571Y-65946712D01*
X138004571Y-65946712D02*
X137966476Y-65984807D01*
X137966476Y-65984807D02*
X137890286Y-66022902D01*
X137890286Y-66022902D02*
X137585524Y-66022902D01*
X138804571Y-66403855D02*
X138347428Y-66403855D01*
X138576000Y-66403855D02*
X138576000Y-65603855D01*
X138576000Y-65603855D02*
X138499809Y-65718140D01*
X138499809Y-65718140D02*
X138423619Y-65794331D01*
X138423619Y-65794331D02*
X138347428Y-65832426D01*
D10*
X113832381Y-68894819D02*
X113832381Y-67894819D01*
X113832381Y-67894819D02*
X114070476Y-67894819D01*
X114070476Y-67894819D02*
X114213333Y-67942438D01*
X114213333Y-67942438D02*
X114308571Y-68037676D01*
X114308571Y-68037676D02*
X114356190Y-68132914D01*
X114356190Y-68132914D02*
X114403809Y-68323390D01*
X114403809Y-68323390D02*
X114403809Y-68466247D01*
X114403809Y-68466247D02*
X114356190Y-68656723D01*
X114356190Y-68656723D02*
X114308571Y-68751961D01*
X114308571Y-68751961D02*
X114213333Y-68847200D01*
X114213333Y-68847200D02*
X114070476Y-68894819D01*
X114070476Y-68894819D02*
X113832381Y-68894819D01*
X114832381Y-68894819D02*
X114832381Y-67894819D01*
X114832381Y-67894819D02*
X115165714Y-68609104D01*
X115165714Y-68609104D02*
X115499047Y-67894819D01*
X115499047Y-67894819D02*
X115499047Y-68894819D01*
X116499047Y-67942438D02*
X116403809Y-67894819D01*
X116403809Y-67894819D02*
X116260952Y-67894819D01*
X116260952Y-67894819D02*
X116118095Y-67942438D01*
X116118095Y-67942438D02*
X116022857Y-68037676D01*
X116022857Y-68037676D02*
X115975238Y-68132914D01*
X115975238Y-68132914D02*
X115927619Y-68323390D01*
X115927619Y-68323390D02*
X115927619Y-68466247D01*
X115927619Y-68466247D02*
X115975238Y-68656723D01*
X115975238Y-68656723D02*
X116022857Y-68751961D01*
X116022857Y-68751961D02*
X116118095Y-68847200D01*
X116118095Y-68847200D02*
X116260952Y-68894819D01*
X116260952Y-68894819D02*
X116356190Y-68894819D01*
X116356190Y-68894819D02*
X116499047Y-68847200D01*
X116499047Y-68847200D02*
X116546666Y-68799580D01*
X116546666Y-68799580D02*
X116546666Y-68466247D01*
X116546666Y-68466247D02*
X116356190Y-68466247D01*
X117403809Y-67894819D02*
X117213333Y-67894819D01*
X117213333Y-67894819D02*
X117118095Y-67942438D01*
X117118095Y-67942438D02*
X117070476Y-67990057D01*
X117070476Y-67990057D02*
X116975238Y-68132914D01*
X116975238Y-68132914D02*
X116927619Y-68323390D01*
X116927619Y-68323390D02*
X116927619Y-68704342D01*
X116927619Y-68704342D02*
X116975238Y-68799580D01*
X116975238Y-68799580D02*
X117022857Y-68847200D01*
X117022857Y-68847200D02*
X117118095Y-68894819D01*
X117118095Y-68894819D02*
X117308571Y-68894819D01*
X117308571Y-68894819D02*
X117403809Y-68847200D01*
X117403809Y-68847200D02*
X117451428Y-68799580D01*
X117451428Y-68799580D02*
X117499047Y-68704342D01*
X117499047Y-68704342D02*
X117499047Y-68466247D01*
X117499047Y-68466247D02*
X117451428Y-68371009D01*
X117451428Y-68371009D02*
X117403809Y-68323390D01*
X117403809Y-68323390D02*
X117308571Y-68275771D01*
X117308571Y-68275771D02*
X117118095Y-68275771D01*
X117118095Y-68275771D02*
X117022857Y-68323390D01*
X117022857Y-68323390D02*
X116975238Y-68371009D01*
X116975238Y-68371009D02*
X116927619Y-68466247D01*
X118356190Y-68228152D02*
X118356190Y-68894819D01*
X118118095Y-67847200D02*
X117880000Y-68561485D01*
X117880000Y-68561485D02*
X118499047Y-68561485D01*
X119070476Y-67894819D02*
X119165714Y-67894819D01*
X119165714Y-67894819D02*
X119260952Y-67942438D01*
X119260952Y-67942438D02*
X119308571Y-67990057D01*
X119308571Y-67990057D02*
X119356190Y-68085295D01*
X119356190Y-68085295D02*
X119403809Y-68275771D01*
X119403809Y-68275771D02*
X119403809Y-68513866D01*
X119403809Y-68513866D02*
X119356190Y-68704342D01*
X119356190Y-68704342D02*
X119308571Y-68799580D01*
X119308571Y-68799580D02*
X119260952Y-68847200D01*
X119260952Y-68847200D02*
X119165714Y-68894819D01*
X119165714Y-68894819D02*
X119070476Y-68894819D01*
X119070476Y-68894819D02*
X118975238Y-68847200D01*
X118975238Y-68847200D02*
X118927619Y-68799580D01*
X118927619Y-68799580D02*
X118880000Y-68704342D01*
X118880000Y-68704342D02*
X118832381Y-68513866D01*
X118832381Y-68513866D02*
X118832381Y-68275771D01*
X118832381Y-68275771D02*
X118880000Y-68085295D01*
X118880000Y-68085295D02*
X118927619Y-67990057D01*
X118927619Y-67990057D02*
X118975238Y-67942438D01*
X118975238Y-67942438D02*
X119070476Y-67894819D01*
X119784762Y-67990057D02*
X119832381Y-67942438D01*
X119832381Y-67942438D02*
X119927619Y-67894819D01*
X119927619Y-67894819D02*
X120165714Y-67894819D01*
X120165714Y-67894819D02*
X120260952Y-67942438D01*
X120260952Y-67942438D02*
X120308571Y-67990057D01*
X120308571Y-67990057D02*
X120356190Y-68085295D01*
X120356190Y-68085295D02*
X120356190Y-68180533D01*
X120356190Y-68180533D02*
X120308571Y-68323390D01*
X120308571Y-68323390D02*
X119737143Y-68894819D01*
X119737143Y-68894819D02*
X120356190Y-68894819D01*
X121260952Y-68894819D02*
X120784762Y-68894819D01*
X120784762Y-68894819D02*
X120784762Y-67894819D01*
X121451429Y-67894819D02*
X121784762Y-68894819D01*
X121784762Y-68894819D02*
X122118095Y-67894819D01*
X122308572Y-67894819D02*
X122880000Y-67894819D01*
X122594286Y-68894819D02*
X122594286Y-67894819D01*
X123213334Y-68513866D02*
X123975239Y-68513866D01*
X124356191Y-67894819D02*
X125022857Y-67894819D01*
X125022857Y-67894819D02*
X124594286Y-68894819D01*
D11*
X119341904Y-66260022D02*
X119303809Y-66240975D01*
X119303809Y-66240975D02*
X119265714Y-66202880D01*
X119265714Y-66202880D02*
X119208571Y-66145737D01*
X119208571Y-66145737D02*
X119170476Y-66126689D01*
X119170476Y-66126689D02*
X119132380Y-66126689D01*
X119151428Y-66221927D02*
X119113333Y-66202880D01*
X119113333Y-66202880D02*
X119075238Y-66164784D01*
X119075238Y-66164784D02*
X119056190Y-66088594D01*
X119056190Y-66088594D02*
X119056190Y-65955260D01*
X119056190Y-65955260D02*
X119075238Y-65879070D01*
X119075238Y-65879070D02*
X119113333Y-65840975D01*
X119113333Y-65840975D02*
X119151428Y-65821927D01*
X119151428Y-65821927D02*
X119227619Y-65821927D01*
X119227619Y-65821927D02*
X119265714Y-65840975D01*
X119265714Y-65840975D02*
X119303809Y-65879070D01*
X119303809Y-65879070D02*
X119322857Y-65955260D01*
X119322857Y-65955260D02*
X119322857Y-66088594D01*
X119322857Y-66088594D02*
X119303809Y-66164784D01*
X119303809Y-66164784D02*
X119265714Y-66202880D01*
X119265714Y-66202880D02*
X119227619Y-66221927D01*
X119227619Y-66221927D02*
X119151428Y-66221927D01*
X119665714Y-65821927D02*
X119589524Y-65821927D01*
X119589524Y-65821927D02*
X119551428Y-65840975D01*
X119551428Y-65840975D02*
X119532381Y-65860022D01*
X119532381Y-65860022D02*
X119494286Y-65917165D01*
X119494286Y-65917165D02*
X119475238Y-65993356D01*
X119475238Y-65993356D02*
X119475238Y-66145737D01*
X119475238Y-66145737D02*
X119494286Y-66183832D01*
X119494286Y-66183832D02*
X119513333Y-66202880D01*
X119513333Y-66202880D02*
X119551428Y-66221927D01*
X119551428Y-66221927D02*
X119627619Y-66221927D01*
X119627619Y-66221927D02*
X119665714Y-66202880D01*
X119665714Y-66202880D02*
X119684762Y-66183832D01*
X119684762Y-66183832D02*
X119703809Y-66145737D01*
X119703809Y-66145737D02*
X119703809Y-66050499D01*
X119703809Y-66050499D02*
X119684762Y-66012403D01*
X119684762Y-66012403D02*
X119665714Y-65993356D01*
X119665714Y-65993356D02*
X119627619Y-65974308D01*
X119627619Y-65974308D02*
X119551428Y-65974308D01*
X119551428Y-65974308D02*
X119513333Y-65993356D01*
X119513333Y-65993356D02*
X119494286Y-66012403D01*
X119494286Y-66012403D02*
X119475238Y-66050499D01*
D10*
X178384819Y-77914047D02*
X178384819Y-77723571D01*
X178384819Y-77723571D02*
X178432438Y-77628333D01*
X178432438Y-77628333D02*
X178527676Y-77533095D01*
X178527676Y-77533095D02*
X178718152Y-77485476D01*
X178718152Y-77485476D02*
X179051485Y-77485476D01*
X179051485Y-77485476D02*
X179241961Y-77533095D01*
X179241961Y-77533095D02*
X179337200Y-77628333D01*
X179337200Y-77628333D02*
X179384819Y-77723571D01*
X179384819Y-77723571D02*
X179384819Y-77914047D01*
X179384819Y-77914047D02*
X179337200Y-78009285D01*
X179337200Y-78009285D02*
X179241961Y-78104523D01*
X179241961Y-78104523D02*
X179051485Y-78152142D01*
X179051485Y-78152142D02*
X178718152Y-78152142D01*
X178718152Y-78152142D02*
X178527676Y-78104523D01*
X178527676Y-78104523D02*
X178432438Y-78009285D01*
X178432438Y-78009285D02*
X178384819Y-77914047D01*
X178384819Y-77056904D02*
X179194342Y-77056904D01*
X179194342Y-77056904D02*
X179289580Y-77009285D01*
X179289580Y-77009285D02*
X179337200Y-76961666D01*
X179337200Y-76961666D02*
X179384819Y-76866428D01*
X179384819Y-76866428D02*
X179384819Y-76675952D01*
X179384819Y-76675952D02*
X179337200Y-76580714D01*
X179337200Y-76580714D02*
X179289580Y-76533095D01*
X179289580Y-76533095D02*
X179194342Y-76485476D01*
X179194342Y-76485476D02*
X178384819Y-76485476D01*
X178384819Y-76152142D02*
X178384819Y-75580714D01*
X179384819Y-75866428D02*
X178384819Y-75866428D01*
X179480057Y-75485476D02*
X179480057Y-74723571D01*
X178861009Y-74152142D02*
X178861009Y-74485475D01*
X179384819Y-74485475D02*
X178384819Y-74485475D01*
X178384819Y-74485475D02*
X178384819Y-74009285D01*
X179099104Y-73675951D02*
X179099104Y-73199761D01*
X179384819Y-73771189D02*
X178384819Y-73437856D01*
X178384819Y-73437856D02*
X179384819Y-73104523D01*
X179384819Y-72771189D02*
X178384819Y-72771189D01*
X178384819Y-72771189D02*
X179384819Y-72199761D01*
X179384819Y-72199761D02*
X178384819Y-72199761D01*
X179480057Y-71961666D02*
X179480057Y-71199761D01*
X178480057Y-71009284D02*
X178432438Y-70961665D01*
X178432438Y-70961665D02*
X178384819Y-70866427D01*
X178384819Y-70866427D02*
X178384819Y-70628332D01*
X178384819Y-70628332D02*
X178432438Y-70533094D01*
X178432438Y-70533094D02*
X178480057Y-70485475D01*
X178480057Y-70485475D02*
X178575295Y-70437856D01*
X178575295Y-70437856D02*
X178670533Y-70437856D01*
X178670533Y-70437856D02*
X178813390Y-70485475D01*
X178813390Y-70485475D02*
X179384819Y-71056903D01*
X179384819Y-71056903D02*
X179384819Y-70437856D01*
D11*
X176750022Y-74333095D02*
X176730975Y-74371190D01*
X176730975Y-74371190D02*
X176692880Y-74409285D01*
X176692880Y-74409285D02*
X176635737Y-74466428D01*
X176635737Y-74466428D02*
X176616689Y-74504523D01*
X176616689Y-74504523D02*
X176616689Y-74542619D01*
X176711927Y-74523571D02*
X176692880Y-74561666D01*
X176692880Y-74561666D02*
X176654784Y-74599761D01*
X176654784Y-74599761D02*
X176578594Y-74618809D01*
X176578594Y-74618809D02*
X176445260Y-74618809D01*
X176445260Y-74618809D02*
X176369070Y-74599761D01*
X176369070Y-74599761D02*
X176330975Y-74561666D01*
X176330975Y-74561666D02*
X176311927Y-74523571D01*
X176311927Y-74523571D02*
X176311927Y-74447380D01*
X176311927Y-74447380D02*
X176330975Y-74409285D01*
X176330975Y-74409285D02*
X176369070Y-74371190D01*
X176369070Y-74371190D02*
X176445260Y-74352142D01*
X176445260Y-74352142D02*
X176578594Y-74352142D01*
X176578594Y-74352142D02*
X176654784Y-74371190D01*
X176654784Y-74371190D02*
X176692880Y-74409285D01*
X176692880Y-74409285D02*
X176711927Y-74447380D01*
X176711927Y-74447380D02*
X176711927Y-74523571D01*
X176350022Y-74199761D02*
X176330975Y-74180713D01*
X176330975Y-74180713D02*
X176311927Y-74142618D01*
X176311927Y-74142618D02*
X176311927Y-74047380D01*
X176311927Y-74047380D02*
X176330975Y-74009285D01*
X176330975Y-74009285D02*
X176350022Y-73990237D01*
X176350022Y-73990237D02*
X176388118Y-73971190D01*
X176388118Y-73971190D02*
X176426213Y-73971190D01*
X176426213Y-73971190D02*
X176483356Y-73990237D01*
X176483356Y-73990237D02*
X176711927Y-74218809D01*
X176711927Y-74218809D02*
X176711927Y-73971190D01*
D10*
X112966666Y-28394819D02*
X112633333Y-27918628D01*
X112395238Y-28394819D02*
X112395238Y-27394819D01*
X112395238Y-27394819D02*
X112776190Y-27394819D01*
X112776190Y-27394819D02*
X112871428Y-27442438D01*
X112871428Y-27442438D02*
X112919047Y-27490057D01*
X112919047Y-27490057D02*
X112966666Y-27585295D01*
X112966666Y-27585295D02*
X112966666Y-27728152D01*
X112966666Y-27728152D02*
X112919047Y-27823390D01*
X112919047Y-27823390D02*
X112871428Y-27871009D01*
X112871428Y-27871009D02*
X112776190Y-27918628D01*
X112776190Y-27918628D02*
X112395238Y-27918628D01*
X113395238Y-27871009D02*
X113728571Y-27871009D01*
X113871428Y-28394819D02*
X113395238Y-28394819D01*
X113395238Y-28394819D02*
X113395238Y-27394819D01*
X113395238Y-27394819D02*
X113871428Y-27394819D01*
X114633333Y-27871009D02*
X114300000Y-27871009D01*
X114300000Y-28394819D02*
X114300000Y-27394819D01*
X114300000Y-27394819D02*
X114776190Y-27394819D01*
X115300000Y-27394819D02*
X115300000Y-27632914D01*
X115061905Y-27537676D02*
X115300000Y-27632914D01*
X115300000Y-27632914D02*
X115538095Y-27537676D01*
X115157143Y-27823390D02*
X115300000Y-27632914D01*
X115300000Y-27632914D02*
X115442857Y-27823390D01*
X116061905Y-27394819D02*
X116061905Y-27632914D01*
X115823810Y-27537676D02*
X116061905Y-27632914D01*
X116061905Y-27632914D02*
X116300000Y-27537676D01*
X115919048Y-27823390D02*
X116061905Y-27632914D01*
X116061905Y-27632914D02*
X116204762Y-27823390D01*
X111220476Y-61624819D02*
X110744286Y-61624819D01*
X110744286Y-61624819D02*
X110744286Y-60624819D01*
X111553810Y-61624819D02*
X111553810Y-60624819D01*
X112553809Y-60672438D02*
X112458571Y-60624819D01*
X112458571Y-60624819D02*
X112315714Y-60624819D01*
X112315714Y-60624819D02*
X112172857Y-60672438D01*
X112172857Y-60672438D02*
X112077619Y-60767676D01*
X112077619Y-60767676D02*
X112030000Y-60862914D01*
X112030000Y-60862914D02*
X111982381Y-61053390D01*
X111982381Y-61053390D02*
X111982381Y-61196247D01*
X111982381Y-61196247D02*
X112030000Y-61386723D01*
X112030000Y-61386723D02*
X112077619Y-61481961D01*
X112077619Y-61481961D02*
X112172857Y-61577200D01*
X112172857Y-61577200D02*
X112315714Y-61624819D01*
X112315714Y-61624819D02*
X112410952Y-61624819D01*
X112410952Y-61624819D02*
X112553809Y-61577200D01*
X112553809Y-61577200D02*
X112601428Y-61529580D01*
X112601428Y-61529580D02*
X112601428Y-61196247D01*
X112601428Y-61196247D02*
X112410952Y-61196247D01*
X113030000Y-61624819D02*
X113030000Y-60624819D01*
X113030000Y-61101009D02*
X113601428Y-61101009D01*
X113601428Y-61624819D02*
X113601428Y-60624819D01*
X113934762Y-60624819D02*
X114506190Y-60624819D01*
X114220476Y-61624819D02*
X114220476Y-60624819D01*
X114791905Y-61577200D02*
X114934762Y-61624819D01*
X114934762Y-61624819D02*
X115172857Y-61624819D01*
X115172857Y-61624819D02*
X115268095Y-61577200D01*
X115268095Y-61577200D02*
X115315714Y-61529580D01*
X115315714Y-61529580D02*
X115363333Y-61434342D01*
X115363333Y-61434342D02*
X115363333Y-61339104D01*
X115363333Y-61339104D02*
X115315714Y-61243866D01*
X115315714Y-61243866D02*
X115268095Y-61196247D01*
X115268095Y-61196247D02*
X115172857Y-61148628D01*
X115172857Y-61148628D02*
X114982381Y-61101009D01*
X114982381Y-61101009D02*
X114887143Y-61053390D01*
X114887143Y-61053390D02*
X114839524Y-61005771D01*
X114839524Y-61005771D02*
X114791905Y-60910533D01*
X114791905Y-60910533D02*
X114791905Y-60815295D01*
X114791905Y-60815295D02*
X114839524Y-60720057D01*
X114839524Y-60720057D02*
X114887143Y-60672438D01*
X114887143Y-60672438D02*
X114982381Y-60624819D01*
X114982381Y-60624819D02*
X115220476Y-60624819D01*
X115220476Y-60624819D02*
X115363333Y-60672438D01*
X112484819Y-68119523D02*
X113199104Y-68119523D01*
X113199104Y-68119523D02*
X113341961Y-68167142D01*
X113341961Y-68167142D02*
X113437200Y-68262380D01*
X113437200Y-68262380D02*
X113484819Y-68405237D01*
X113484819Y-68405237D02*
X113484819Y-68500475D01*
X113484819Y-67119523D02*
X113484819Y-67690951D01*
X113484819Y-67405237D02*
X112484819Y-67405237D01*
X112484819Y-67405237D02*
X112627676Y-67500475D01*
X112627676Y-67500475D02*
X112722914Y-67595713D01*
X112722914Y-67595713D02*
X112770533Y-67690951D01*
X112484819Y-66500475D02*
X112484819Y-66405237D01*
X112484819Y-66405237D02*
X112532438Y-66309999D01*
X112532438Y-66309999D02*
X112580057Y-66262380D01*
X112580057Y-66262380D02*
X112675295Y-66214761D01*
X112675295Y-66214761D02*
X112865771Y-66167142D01*
X112865771Y-66167142D02*
X113103866Y-66167142D01*
X113103866Y-66167142D02*
X113294342Y-66214761D01*
X113294342Y-66214761D02*
X113389580Y-66262380D01*
X113389580Y-66262380D02*
X113437200Y-66309999D01*
X113437200Y-66309999D02*
X113484819Y-66405237D01*
X113484819Y-66405237D02*
X113484819Y-66500475D01*
X113484819Y-66500475D02*
X113437200Y-66595713D01*
X113437200Y-66595713D02*
X113389580Y-66643332D01*
X113389580Y-66643332D02*
X113294342Y-66690951D01*
X113294342Y-66690951D02*
X113103866Y-66738570D01*
X113103866Y-66738570D02*
X112865771Y-66738570D01*
X112865771Y-66738570D02*
X112675295Y-66690951D01*
X112675295Y-66690951D02*
X112580057Y-66643332D01*
X112580057Y-66643332D02*
X112532438Y-66595713D01*
X112532438Y-66595713D02*
X112484819Y-66500475D01*
X168229580Y-62475239D02*
X168277200Y-62522858D01*
X168277200Y-62522858D02*
X168324819Y-62665715D01*
X168324819Y-62665715D02*
X168324819Y-62760953D01*
X168324819Y-62760953D02*
X168277200Y-62903810D01*
X168277200Y-62903810D02*
X168181961Y-62999048D01*
X168181961Y-62999048D02*
X168086723Y-63046667D01*
X168086723Y-63046667D02*
X167896247Y-63094286D01*
X167896247Y-63094286D02*
X167753390Y-63094286D01*
X167753390Y-63094286D02*
X167562914Y-63046667D01*
X167562914Y-63046667D02*
X167467676Y-62999048D01*
X167467676Y-62999048D02*
X167372438Y-62903810D01*
X167372438Y-62903810D02*
X167324819Y-62760953D01*
X167324819Y-62760953D02*
X167324819Y-62665715D01*
X167324819Y-62665715D02*
X167372438Y-62522858D01*
X167372438Y-62522858D02*
X167420057Y-62475239D01*
X168324819Y-61903810D02*
X168277200Y-61999048D01*
X168277200Y-61999048D02*
X168229580Y-62046667D01*
X168229580Y-62046667D02*
X168134342Y-62094286D01*
X168134342Y-62094286D02*
X167848628Y-62094286D01*
X167848628Y-62094286D02*
X167753390Y-62046667D01*
X167753390Y-62046667D02*
X167705771Y-61999048D01*
X167705771Y-61999048D02*
X167658152Y-61903810D01*
X167658152Y-61903810D02*
X167658152Y-61760953D01*
X167658152Y-61760953D02*
X167705771Y-61665715D01*
X167705771Y-61665715D02*
X167753390Y-61618096D01*
X167753390Y-61618096D02*
X167848628Y-61570477D01*
X167848628Y-61570477D02*
X168134342Y-61570477D01*
X168134342Y-61570477D02*
X168229580Y-61618096D01*
X168229580Y-61618096D02*
X168277200Y-61665715D01*
X168277200Y-61665715D02*
X168324819Y-61760953D01*
X168324819Y-61760953D02*
X168324819Y-61903810D01*
X167658152Y-61141905D02*
X168324819Y-61141905D01*
X167753390Y-61141905D02*
X167705771Y-61094286D01*
X167705771Y-61094286D02*
X167658152Y-60999048D01*
X167658152Y-60999048D02*
X167658152Y-60856191D01*
X167658152Y-60856191D02*
X167705771Y-60760953D01*
X167705771Y-60760953D02*
X167801009Y-60713334D01*
X167801009Y-60713334D02*
X168324819Y-60713334D01*
X167658152Y-60237143D02*
X168324819Y-60237143D01*
X167753390Y-60237143D02*
X167705771Y-60189524D01*
X167705771Y-60189524D02*
X167658152Y-60094286D01*
X167658152Y-60094286D02*
X167658152Y-59951429D01*
X167658152Y-59951429D02*
X167705771Y-59856191D01*
X167705771Y-59856191D02*
X167801009Y-59808572D01*
X167801009Y-59808572D02*
X168324819Y-59808572D01*
X168420057Y-59570477D02*
X168420057Y-58808572D01*
X167324819Y-58380000D02*
X167324819Y-58284762D01*
X167324819Y-58284762D02*
X167372438Y-58189524D01*
X167372438Y-58189524D02*
X167420057Y-58141905D01*
X167420057Y-58141905D02*
X167515295Y-58094286D01*
X167515295Y-58094286D02*
X167705771Y-58046667D01*
X167705771Y-58046667D02*
X167943866Y-58046667D01*
X167943866Y-58046667D02*
X168134342Y-58094286D01*
X168134342Y-58094286D02*
X168229580Y-58141905D01*
X168229580Y-58141905D02*
X168277200Y-58189524D01*
X168277200Y-58189524D02*
X168324819Y-58284762D01*
X168324819Y-58284762D02*
X168324819Y-58380000D01*
X168324819Y-58380000D02*
X168277200Y-58475238D01*
X168277200Y-58475238D02*
X168229580Y-58522857D01*
X168229580Y-58522857D02*
X168134342Y-58570476D01*
X168134342Y-58570476D02*
X167943866Y-58618095D01*
X167943866Y-58618095D02*
X167705771Y-58618095D01*
X167705771Y-58618095D02*
X167515295Y-58570476D01*
X167515295Y-58570476D02*
X167420057Y-58522857D01*
X167420057Y-58522857D02*
X167372438Y-58475238D01*
X167372438Y-58475238D02*
X167324819Y-58380000D01*
X168324819Y-57094286D02*
X168324819Y-57665714D01*
X168324819Y-57380000D02*
X167324819Y-57380000D01*
X167324819Y-57380000D02*
X167467676Y-57475238D01*
X167467676Y-57475238D02*
X167562914Y-57570476D01*
X167562914Y-57570476D02*
X167610533Y-57665714D01*
X168324819Y-56760952D02*
X167658152Y-56237143D01*
X167658152Y-56760952D02*
X168324819Y-56237143D01*
X168324819Y-55332381D02*
X168324819Y-55903809D01*
X168324819Y-55618095D02*
X167324819Y-55618095D01*
X167324819Y-55618095D02*
X167467676Y-55713333D01*
X167467676Y-55713333D02*
X167562914Y-55808571D01*
X167562914Y-55808571D02*
X167610533Y-55903809D01*
X167324819Y-54475238D02*
X167324819Y-54665714D01*
X167324819Y-54665714D02*
X167372438Y-54760952D01*
X167372438Y-54760952D02*
X167420057Y-54808571D01*
X167420057Y-54808571D02*
X167562914Y-54903809D01*
X167562914Y-54903809D02*
X167753390Y-54951428D01*
X167753390Y-54951428D02*
X168134342Y-54951428D01*
X168134342Y-54951428D02*
X168229580Y-54903809D01*
X168229580Y-54903809D02*
X168277200Y-54856190D01*
X168277200Y-54856190D02*
X168324819Y-54760952D01*
X168324819Y-54760952D02*
X168324819Y-54570476D01*
X168324819Y-54570476D02*
X168277200Y-54475238D01*
X168277200Y-54475238D02*
X168229580Y-54427619D01*
X168229580Y-54427619D02*
X168134342Y-54380000D01*
X168134342Y-54380000D02*
X167896247Y-54380000D01*
X167896247Y-54380000D02*
X167801009Y-54427619D01*
X167801009Y-54427619D02*
X167753390Y-54475238D01*
X167753390Y-54475238D02*
X167705771Y-54570476D01*
X167705771Y-54570476D02*
X167705771Y-54760952D01*
X167705771Y-54760952D02*
X167753390Y-54856190D01*
X167753390Y-54856190D02*
X167801009Y-54903809D01*
X167801009Y-54903809D02*
X167896247Y-54951428D01*
X168420057Y-54189524D02*
X168420057Y-53427619D01*
X168277200Y-53237142D02*
X168324819Y-53094285D01*
X168324819Y-53094285D02*
X168324819Y-52856190D01*
X168324819Y-52856190D02*
X168277200Y-52760952D01*
X168277200Y-52760952D02*
X168229580Y-52713333D01*
X168229580Y-52713333D02*
X168134342Y-52665714D01*
X168134342Y-52665714D02*
X168039104Y-52665714D01*
X168039104Y-52665714D02*
X167943866Y-52713333D01*
X167943866Y-52713333D02*
X167896247Y-52760952D01*
X167896247Y-52760952D02*
X167848628Y-52856190D01*
X167848628Y-52856190D02*
X167801009Y-53046666D01*
X167801009Y-53046666D02*
X167753390Y-53141904D01*
X167753390Y-53141904D02*
X167705771Y-53189523D01*
X167705771Y-53189523D02*
X167610533Y-53237142D01*
X167610533Y-53237142D02*
X167515295Y-53237142D01*
X167515295Y-53237142D02*
X167420057Y-53189523D01*
X167420057Y-53189523D02*
X167372438Y-53141904D01*
X167372438Y-53141904D02*
X167324819Y-53046666D01*
X167324819Y-53046666D02*
X167324819Y-52808571D01*
X167324819Y-52808571D02*
X167372438Y-52665714D01*
X168324819Y-52094285D02*
X168277200Y-52189523D01*
X168277200Y-52189523D02*
X168229580Y-52237142D01*
X168229580Y-52237142D02*
X168134342Y-52284761D01*
X168134342Y-52284761D02*
X167848628Y-52284761D01*
X167848628Y-52284761D02*
X167753390Y-52237142D01*
X167753390Y-52237142D02*
X167705771Y-52189523D01*
X167705771Y-52189523D02*
X167658152Y-52094285D01*
X167658152Y-52094285D02*
X167658152Y-51951428D01*
X167658152Y-51951428D02*
X167705771Y-51856190D01*
X167705771Y-51856190D02*
X167753390Y-51808571D01*
X167753390Y-51808571D02*
X167848628Y-51760952D01*
X167848628Y-51760952D02*
X168134342Y-51760952D01*
X168134342Y-51760952D02*
X168229580Y-51808571D01*
X168229580Y-51808571D02*
X168277200Y-51856190D01*
X168277200Y-51856190D02*
X168324819Y-51951428D01*
X168324819Y-51951428D02*
X168324819Y-52094285D01*
X168277200Y-50903809D02*
X168324819Y-50999047D01*
X168324819Y-50999047D02*
X168324819Y-51189523D01*
X168324819Y-51189523D02*
X168277200Y-51284761D01*
X168277200Y-51284761D02*
X168229580Y-51332380D01*
X168229580Y-51332380D02*
X168134342Y-51379999D01*
X168134342Y-51379999D02*
X167848628Y-51379999D01*
X167848628Y-51379999D02*
X167753390Y-51332380D01*
X167753390Y-51332380D02*
X167705771Y-51284761D01*
X167705771Y-51284761D02*
X167658152Y-51189523D01*
X167658152Y-51189523D02*
X167658152Y-50999047D01*
X167658152Y-50999047D02*
X167705771Y-50903809D01*
X168324819Y-50475237D02*
X167324819Y-50475237D01*
X167943866Y-50379999D02*
X168324819Y-50094285D01*
X167658152Y-50094285D02*
X168039104Y-50475237D01*
X168277200Y-49284761D02*
X168324819Y-49379999D01*
X168324819Y-49379999D02*
X168324819Y-49570475D01*
X168324819Y-49570475D02*
X168277200Y-49665713D01*
X168277200Y-49665713D02*
X168181961Y-49713332D01*
X168181961Y-49713332D02*
X167801009Y-49713332D01*
X167801009Y-49713332D02*
X167705771Y-49665713D01*
X167705771Y-49665713D02*
X167658152Y-49570475D01*
X167658152Y-49570475D02*
X167658152Y-49379999D01*
X167658152Y-49379999D02*
X167705771Y-49284761D01*
X167705771Y-49284761D02*
X167801009Y-49237142D01*
X167801009Y-49237142D02*
X167896247Y-49237142D01*
X167896247Y-49237142D02*
X167991485Y-49713332D01*
X167658152Y-48951427D02*
X167658152Y-48570475D01*
X167324819Y-48808570D02*
X168181961Y-48808570D01*
X168181961Y-48808570D02*
X168277200Y-48760951D01*
X168277200Y-48760951D02*
X168324819Y-48665713D01*
X168324819Y-48665713D02*
X168324819Y-48570475D01*
X145716666Y-57874819D02*
X145716666Y-58589104D01*
X145716666Y-58589104D02*
X145669047Y-58731961D01*
X145669047Y-58731961D02*
X145573809Y-58827200D01*
X145573809Y-58827200D02*
X145430952Y-58874819D01*
X145430952Y-58874819D02*
X145335714Y-58874819D01*
X146145238Y-57970057D02*
X146192857Y-57922438D01*
X146192857Y-57922438D02*
X146288095Y-57874819D01*
X146288095Y-57874819D02*
X146526190Y-57874819D01*
X146526190Y-57874819D02*
X146621428Y-57922438D01*
X146621428Y-57922438D02*
X146669047Y-57970057D01*
X146669047Y-57970057D02*
X146716666Y-58065295D01*
X146716666Y-58065295D02*
X146716666Y-58160533D01*
X146716666Y-58160533D02*
X146669047Y-58303390D01*
X146669047Y-58303390D02*
X146097619Y-58874819D01*
X146097619Y-58874819D02*
X146716666Y-58874819D01*
X178314819Y-82994047D02*
X178314819Y-82803571D01*
X178314819Y-82803571D02*
X178362438Y-82708333D01*
X178362438Y-82708333D02*
X178457676Y-82613095D01*
X178457676Y-82613095D02*
X178648152Y-82565476D01*
X178648152Y-82565476D02*
X178981485Y-82565476D01*
X178981485Y-82565476D02*
X179171961Y-82613095D01*
X179171961Y-82613095D02*
X179267200Y-82708333D01*
X179267200Y-82708333D02*
X179314819Y-82803571D01*
X179314819Y-82803571D02*
X179314819Y-82994047D01*
X179314819Y-82994047D02*
X179267200Y-83089285D01*
X179267200Y-83089285D02*
X179171961Y-83184523D01*
X179171961Y-83184523D02*
X178981485Y-83232142D01*
X178981485Y-83232142D02*
X178648152Y-83232142D01*
X178648152Y-83232142D02*
X178457676Y-83184523D01*
X178457676Y-83184523D02*
X178362438Y-83089285D01*
X178362438Y-83089285D02*
X178314819Y-82994047D01*
X178314819Y-82136904D02*
X179124342Y-82136904D01*
X179124342Y-82136904D02*
X179219580Y-82089285D01*
X179219580Y-82089285D02*
X179267200Y-82041666D01*
X179267200Y-82041666D02*
X179314819Y-81946428D01*
X179314819Y-81946428D02*
X179314819Y-81755952D01*
X179314819Y-81755952D02*
X179267200Y-81660714D01*
X179267200Y-81660714D02*
X179219580Y-81613095D01*
X179219580Y-81613095D02*
X179124342Y-81565476D01*
X179124342Y-81565476D02*
X178314819Y-81565476D01*
X178314819Y-81232142D02*
X178314819Y-80660714D01*
X179314819Y-80946428D02*
X178314819Y-80946428D01*
X179410057Y-80565476D02*
X179410057Y-79803571D01*
X178791009Y-79232142D02*
X178791009Y-79565475D01*
X179314819Y-79565475D02*
X178314819Y-79565475D01*
X178314819Y-79565475D02*
X178314819Y-79089285D01*
X179029104Y-78755951D02*
X179029104Y-78279761D01*
X179314819Y-78851189D02*
X178314819Y-78517856D01*
X178314819Y-78517856D02*
X179314819Y-78184523D01*
X179314819Y-77851189D02*
X178314819Y-77851189D01*
X178314819Y-77851189D02*
X179314819Y-77279761D01*
X179314819Y-77279761D02*
X178314819Y-77279761D01*
X179410057Y-77041666D02*
X179410057Y-76279761D01*
X178410057Y-76089284D02*
X178362438Y-76041665D01*
X178362438Y-76041665D02*
X178314819Y-75946427D01*
X178314819Y-75946427D02*
X178314819Y-75708332D01*
X178314819Y-75708332D02*
X178362438Y-75613094D01*
X178362438Y-75613094D02*
X178410057Y-75565475D01*
X178410057Y-75565475D02*
X178505295Y-75517856D01*
X178505295Y-75517856D02*
X178600533Y-75517856D01*
X178600533Y-75517856D02*
X178743390Y-75565475D01*
X178743390Y-75565475D02*
X179314819Y-76136903D01*
X179314819Y-76136903D02*
X179314819Y-75517856D01*
X172386666Y-78829819D02*
X172386666Y-79544104D01*
X172386666Y-79544104D02*
X172339047Y-79686961D01*
X172339047Y-79686961D02*
X172243809Y-79782200D01*
X172243809Y-79782200D02*
X172100952Y-79829819D01*
X172100952Y-79829819D02*
X172005714Y-79829819D01*
X173291428Y-79163152D02*
X173291428Y-79829819D01*
X173053333Y-78782200D02*
X172815238Y-79496485D01*
X172815238Y-79496485D02*
X173434285Y-79496485D01*
X158364819Y-63031618D02*
X158364819Y-62936380D01*
X158364819Y-62936380D02*
X158412438Y-62841142D01*
X158412438Y-62841142D02*
X158460057Y-62793523D01*
X158460057Y-62793523D02*
X158555295Y-62745904D01*
X158555295Y-62745904D02*
X158745771Y-62698285D01*
X158745771Y-62698285D02*
X158983866Y-62698285D01*
X158983866Y-62698285D02*
X159174342Y-62745904D01*
X159174342Y-62745904D02*
X159269580Y-62793523D01*
X159269580Y-62793523D02*
X159317200Y-62841142D01*
X159317200Y-62841142D02*
X159364819Y-62936380D01*
X159364819Y-62936380D02*
X159364819Y-63031618D01*
X159364819Y-63031618D02*
X159317200Y-63126856D01*
X159317200Y-63126856D02*
X159269580Y-63174475D01*
X159269580Y-63174475D02*
X159174342Y-63222094D01*
X159174342Y-63222094D02*
X158983866Y-63269713D01*
X158983866Y-63269713D02*
X158745771Y-63269713D01*
X158745771Y-63269713D02*
X158555295Y-63222094D01*
X158555295Y-63222094D02*
X158460057Y-63174475D01*
X158460057Y-63174475D02*
X158412438Y-63126856D01*
X158412438Y-63126856D02*
X158364819Y-63031618D01*
X159364819Y-61698285D02*
X158888628Y-62031618D01*
X159364819Y-62269713D02*
X158364819Y-62269713D01*
X158364819Y-62269713D02*
X158364819Y-61888761D01*
X158364819Y-61888761D02*
X158412438Y-61793523D01*
X158412438Y-61793523D02*
X158460057Y-61745904D01*
X158460057Y-61745904D02*
X158555295Y-61698285D01*
X158555295Y-61698285D02*
X158698152Y-61698285D01*
X158698152Y-61698285D02*
X158793390Y-61745904D01*
X158793390Y-61745904D02*
X158841009Y-61793523D01*
X158841009Y-61793523D02*
X158888628Y-61888761D01*
X158888628Y-61888761D02*
X158888628Y-62269713D01*
D11*
X157661927Y-62550666D02*
X157471451Y-62683999D01*
X157661927Y-62779237D02*
X157261927Y-62779237D01*
X157261927Y-62779237D02*
X157261927Y-62626856D01*
X157261927Y-62626856D02*
X157280975Y-62588761D01*
X157280975Y-62588761D02*
X157300022Y-62569714D01*
X157300022Y-62569714D02*
X157338118Y-62550666D01*
X157338118Y-62550666D02*
X157395260Y-62550666D01*
X157395260Y-62550666D02*
X157433356Y-62569714D01*
X157433356Y-62569714D02*
X157452403Y-62588761D01*
X157452403Y-62588761D02*
X157471451Y-62626856D01*
X157471451Y-62626856D02*
X157471451Y-62779237D01*
X157261927Y-62207809D02*
X157261927Y-62283999D01*
X157261927Y-62283999D02*
X157280975Y-62322095D01*
X157280975Y-62322095D02*
X157300022Y-62341142D01*
X157300022Y-62341142D02*
X157357165Y-62379237D01*
X157357165Y-62379237D02*
X157433356Y-62398285D01*
X157433356Y-62398285D02*
X157585737Y-62398285D01*
X157585737Y-62398285D02*
X157623832Y-62379237D01*
X157623832Y-62379237D02*
X157642880Y-62360190D01*
X157642880Y-62360190D02*
X157661927Y-62322095D01*
X157661927Y-62322095D02*
X157661927Y-62245904D01*
X157661927Y-62245904D02*
X157642880Y-62207809D01*
X157642880Y-62207809D02*
X157623832Y-62188761D01*
X157623832Y-62188761D02*
X157585737Y-62169714D01*
X157585737Y-62169714D02*
X157490499Y-62169714D01*
X157490499Y-62169714D02*
X157452403Y-62188761D01*
X157452403Y-62188761D02*
X157433356Y-62207809D01*
X157433356Y-62207809D02*
X157414308Y-62245904D01*
X157414308Y-62245904D02*
X157414308Y-62322095D01*
X157414308Y-62322095D02*
X157433356Y-62360190D01*
X157433356Y-62360190D02*
X157452403Y-62379237D01*
X157452403Y-62379237D02*
X157490499Y-62398285D01*
D10*
X152252819Y-63174476D02*
X152252819Y-63745904D01*
X152252819Y-63460190D02*
X151252819Y-63460190D01*
X151252819Y-63460190D02*
X151395676Y-63555428D01*
X151395676Y-63555428D02*
X151490914Y-63650666D01*
X151490914Y-63650666D02*
X151538533Y-63745904D01*
X151252819Y-62555428D02*
X151252819Y-62460190D01*
X151252819Y-62460190D02*
X151300438Y-62364952D01*
X151300438Y-62364952D02*
X151348057Y-62317333D01*
X151348057Y-62317333D02*
X151443295Y-62269714D01*
X151443295Y-62269714D02*
X151633771Y-62222095D01*
X151633771Y-62222095D02*
X151871866Y-62222095D01*
X151871866Y-62222095D02*
X152062342Y-62269714D01*
X152062342Y-62269714D02*
X152157580Y-62317333D01*
X152157580Y-62317333D02*
X152205200Y-62364952D01*
X152205200Y-62364952D02*
X152252819Y-62460190D01*
X152252819Y-62460190D02*
X152252819Y-62555428D01*
X152252819Y-62555428D02*
X152205200Y-62650666D01*
X152205200Y-62650666D02*
X152157580Y-62698285D01*
X152157580Y-62698285D02*
X152062342Y-62745904D01*
X152062342Y-62745904D02*
X151871866Y-62793523D01*
X151871866Y-62793523D02*
X151633771Y-62793523D01*
X151633771Y-62793523D02*
X151443295Y-62745904D01*
X151443295Y-62745904D02*
X151348057Y-62698285D01*
X151348057Y-62698285D02*
X151300438Y-62650666D01*
X151300438Y-62650666D02*
X151252819Y-62555428D01*
X152252819Y-61793523D02*
X151252819Y-61793523D01*
X152252819Y-61222095D02*
X151681390Y-61650666D01*
X151252819Y-61222095D02*
X151824247Y-61793523D01*
D11*
X150549927Y-62550666D02*
X150359451Y-62683999D01*
X150549927Y-62779237D02*
X150149927Y-62779237D01*
X150149927Y-62779237D02*
X150149927Y-62626856D01*
X150149927Y-62626856D02*
X150168975Y-62588761D01*
X150168975Y-62588761D02*
X150188022Y-62569714D01*
X150188022Y-62569714D02*
X150226118Y-62550666D01*
X150226118Y-62550666D02*
X150283260Y-62550666D01*
X150283260Y-62550666D02*
X150321356Y-62569714D01*
X150321356Y-62569714D02*
X150340403Y-62588761D01*
X150340403Y-62588761D02*
X150359451Y-62626856D01*
X150359451Y-62626856D02*
X150359451Y-62779237D01*
X150149927Y-62188761D02*
X150149927Y-62379237D01*
X150149927Y-62379237D02*
X150340403Y-62398285D01*
X150340403Y-62398285D02*
X150321356Y-62379237D01*
X150321356Y-62379237D02*
X150302308Y-62341142D01*
X150302308Y-62341142D02*
X150302308Y-62245904D01*
X150302308Y-62245904D02*
X150321356Y-62207809D01*
X150321356Y-62207809D02*
X150340403Y-62188761D01*
X150340403Y-62188761D02*
X150378499Y-62169714D01*
X150378499Y-62169714D02*
X150473737Y-62169714D01*
X150473737Y-62169714D02*
X150511832Y-62188761D01*
X150511832Y-62188761D02*
X150530880Y-62207809D01*
X150530880Y-62207809D02*
X150549927Y-62245904D01*
X150549927Y-62245904D02*
X150549927Y-62341142D01*
X150549927Y-62341142D02*
X150530880Y-62379237D01*
X150530880Y-62379237D02*
X150511832Y-62398285D01*
D10*
X112966666Y-79194819D02*
X112633333Y-78718628D01*
X112395238Y-79194819D02*
X112395238Y-78194819D01*
X112395238Y-78194819D02*
X112776190Y-78194819D01*
X112776190Y-78194819D02*
X112871428Y-78242438D01*
X112871428Y-78242438D02*
X112919047Y-78290057D01*
X112919047Y-78290057D02*
X112966666Y-78385295D01*
X112966666Y-78385295D02*
X112966666Y-78528152D01*
X112966666Y-78528152D02*
X112919047Y-78623390D01*
X112919047Y-78623390D02*
X112871428Y-78671009D01*
X112871428Y-78671009D02*
X112776190Y-78718628D01*
X112776190Y-78718628D02*
X112395238Y-78718628D01*
X113395238Y-78671009D02*
X113728571Y-78671009D01*
X113871428Y-79194819D02*
X113395238Y-79194819D01*
X113395238Y-79194819D02*
X113395238Y-78194819D01*
X113395238Y-78194819D02*
X113871428Y-78194819D01*
X114633333Y-78671009D02*
X114300000Y-78671009D01*
X114300000Y-79194819D02*
X114300000Y-78194819D01*
X114300000Y-78194819D02*
X114776190Y-78194819D01*
X115300000Y-78194819D02*
X115300000Y-78432914D01*
X115061905Y-78337676D02*
X115300000Y-78432914D01*
X115300000Y-78432914D02*
X115538095Y-78337676D01*
X115157143Y-78623390D02*
X115300000Y-78432914D01*
X115300000Y-78432914D02*
X115442857Y-78623390D01*
X116061905Y-78194819D02*
X116061905Y-78432914D01*
X115823810Y-78337676D02*
X116061905Y-78432914D01*
X116061905Y-78432914D02*
X116300000Y-78337676D01*
X115919048Y-78623390D02*
X116061905Y-78432914D01*
X116061905Y-78432914D02*
X116204762Y-78623390D01*
X148153523Y-32298819D02*
X147582095Y-32298819D01*
X147867809Y-32298819D02*
X147867809Y-31298819D01*
X147867809Y-31298819D02*
X147772571Y-31441676D01*
X147772571Y-31441676D02*
X147677333Y-31536914D01*
X147677333Y-31536914D02*
X147582095Y-31584533D01*
X148772571Y-31298819D02*
X148867809Y-31298819D01*
X148867809Y-31298819D02*
X148963047Y-31346438D01*
X148963047Y-31346438D02*
X149010666Y-31394057D01*
X149010666Y-31394057D02*
X149058285Y-31489295D01*
X149058285Y-31489295D02*
X149105904Y-31679771D01*
X149105904Y-31679771D02*
X149105904Y-31917866D01*
X149105904Y-31917866D02*
X149058285Y-32108342D01*
X149058285Y-32108342D02*
X149010666Y-32203580D01*
X149010666Y-32203580D02*
X148963047Y-32251200D01*
X148963047Y-32251200D02*
X148867809Y-32298819D01*
X148867809Y-32298819D02*
X148772571Y-32298819D01*
X148772571Y-32298819D02*
X148677333Y-32251200D01*
X148677333Y-32251200D02*
X148629714Y-32203580D01*
X148629714Y-32203580D02*
X148582095Y-32108342D01*
X148582095Y-32108342D02*
X148534476Y-31917866D01*
X148534476Y-31917866D02*
X148534476Y-31679771D01*
X148534476Y-31679771D02*
X148582095Y-31489295D01*
X148582095Y-31489295D02*
X148629714Y-31394057D01*
X148629714Y-31394057D02*
X148677333Y-31346438D01*
X148677333Y-31346438D02*
X148772571Y-31298819D01*
X149534476Y-32298819D02*
X149534476Y-31298819D01*
X150105904Y-32298819D02*
X149677333Y-31727390D01*
X150105904Y-31298819D02*
X149534476Y-31870247D01*
D11*
X148777333Y-33455927D02*
X148644000Y-33265451D01*
X148548762Y-33455927D02*
X148548762Y-33055927D01*
X148548762Y-33055927D02*
X148701143Y-33055927D01*
X148701143Y-33055927D02*
X148739238Y-33074975D01*
X148739238Y-33074975D02*
X148758285Y-33094022D01*
X148758285Y-33094022D02*
X148777333Y-33132118D01*
X148777333Y-33132118D02*
X148777333Y-33189260D01*
X148777333Y-33189260D02*
X148758285Y-33227356D01*
X148758285Y-33227356D02*
X148739238Y-33246403D01*
X148739238Y-33246403D02*
X148701143Y-33265451D01*
X148701143Y-33265451D02*
X148548762Y-33265451D01*
X149120190Y-33189260D02*
X149120190Y-33455927D01*
X149024952Y-33036880D02*
X148929714Y-33322594D01*
X148929714Y-33322594D02*
X149177333Y-33322594D01*
D10*
X148204819Y-63158618D02*
X148204819Y-63063380D01*
X148204819Y-63063380D02*
X148252438Y-62968142D01*
X148252438Y-62968142D02*
X148300057Y-62920523D01*
X148300057Y-62920523D02*
X148395295Y-62872904D01*
X148395295Y-62872904D02*
X148585771Y-62825285D01*
X148585771Y-62825285D02*
X148823866Y-62825285D01*
X148823866Y-62825285D02*
X149014342Y-62872904D01*
X149014342Y-62872904D02*
X149109580Y-62920523D01*
X149109580Y-62920523D02*
X149157200Y-62968142D01*
X149157200Y-62968142D02*
X149204819Y-63063380D01*
X149204819Y-63063380D02*
X149204819Y-63158618D01*
X149204819Y-63158618D02*
X149157200Y-63253856D01*
X149157200Y-63253856D02*
X149109580Y-63301475D01*
X149109580Y-63301475D02*
X149014342Y-63349094D01*
X149014342Y-63349094D02*
X148823866Y-63396713D01*
X148823866Y-63396713D02*
X148585771Y-63396713D01*
X148585771Y-63396713D02*
X148395295Y-63349094D01*
X148395295Y-63349094D02*
X148300057Y-63301475D01*
X148300057Y-63301475D02*
X148252438Y-63253856D01*
X148252438Y-63253856D02*
X148204819Y-63158618D01*
X149204819Y-61825285D02*
X148728628Y-62158618D01*
X149204819Y-62396713D02*
X148204819Y-62396713D01*
X148204819Y-62396713D02*
X148204819Y-62015761D01*
X148204819Y-62015761D02*
X148252438Y-61920523D01*
X148252438Y-61920523D02*
X148300057Y-61872904D01*
X148300057Y-61872904D02*
X148395295Y-61825285D01*
X148395295Y-61825285D02*
X148538152Y-61825285D01*
X148538152Y-61825285D02*
X148633390Y-61872904D01*
X148633390Y-61872904D02*
X148681009Y-61920523D01*
X148681009Y-61920523D02*
X148728628Y-62015761D01*
X148728628Y-62015761D02*
X148728628Y-62396713D01*
D11*
X147501927Y-62868142D02*
X147311451Y-63001475D01*
X147501927Y-63096713D02*
X147101927Y-63096713D01*
X147101927Y-63096713D02*
X147101927Y-62944332D01*
X147101927Y-62944332D02*
X147120975Y-62906237D01*
X147120975Y-62906237D02*
X147140022Y-62887190D01*
X147140022Y-62887190D02*
X147178118Y-62868142D01*
X147178118Y-62868142D02*
X147235260Y-62868142D01*
X147235260Y-62868142D02*
X147273356Y-62887190D01*
X147273356Y-62887190D02*
X147292403Y-62906237D01*
X147292403Y-62906237D02*
X147311451Y-62944332D01*
X147311451Y-62944332D02*
X147311451Y-63096713D01*
X147501927Y-62487190D02*
X147501927Y-62715761D01*
X147501927Y-62601475D02*
X147101927Y-62601475D01*
X147101927Y-62601475D02*
X147159070Y-62639571D01*
X147159070Y-62639571D02*
X147197165Y-62677666D01*
X147197165Y-62677666D02*
X147216213Y-62715761D01*
X147501927Y-62106238D02*
X147501927Y-62334809D01*
X147501927Y-62220523D02*
X147101927Y-62220523D01*
X147101927Y-62220523D02*
X147159070Y-62258619D01*
X147159070Y-62258619D02*
X147197165Y-62296714D01*
X147197165Y-62296714D02*
X147216213Y-62334809D01*
D10*
X113832381Y-59014819D02*
X113832381Y-58014819D01*
X113832381Y-58014819D02*
X114070476Y-58014819D01*
X114070476Y-58014819D02*
X114213333Y-58062438D01*
X114213333Y-58062438D02*
X114308571Y-58157676D01*
X114308571Y-58157676D02*
X114356190Y-58252914D01*
X114356190Y-58252914D02*
X114403809Y-58443390D01*
X114403809Y-58443390D02*
X114403809Y-58586247D01*
X114403809Y-58586247D02*
X114356190Y-58776723D01*
X114356190Y-58776723D02*
X114308571Y-58871961D01*
X114308571Y-58871961D02*
X114213333Y-58967200D01*
X114213333Y-58967200D02*
X114070476Y-59014819D01*
X114070476Y-59014819D02*
X113832381Y-59014819D01*
X114832381Y-59014819D02*
X114832381Y-58014819D01*
X114832381Y-58014819D02*
X115165714Y-58729104D01*
X115165714Y-58729104D02*
X115499047Y-58014819D01*
X115499047Y-58014819D02*
X115499047Y-59014819D01*
X116499047Y-58062438D02*
X116403809Y-58014819D01*
X116403809Y-58014819D02*
X116260952Y-58014819D01*
X116260952Y-58014819D02*
X116118095Y-58062438D01*
X116118095Y-58062438D02*
X116022857Y-58157676D01*
X116022857Y-58157676D02*
X115975238Y-58252914D01*
X115975238Y-58252914D02*
X115927619Y-58443390D01*
X115927619Y-58443390D02*
X115927619Y-58586247D01*
X115927619Y-58586247D02*
X115975238Y-58776723D01*
X115975238Y-58776723D02*
X116022857Y-58871961D01*
X116022857Y-58871961D02*
X116118095Y-58967200D01*
X116118095Y-58967200D02*
X116260952Y-59014819D01*
X116260952Y-59014819D02*
X116356190Y-59014819D01*
X116356190Y-59014819D02*
X116499047Y-58967200D01*
X116499047Y-58967200D02*
X116546666Y-58919580D01*
X116546666Y-58919580D02*
X116546666Y-58586247D01*
X116546666Y-58586247D02*
X116356190Y-58586247D01*
X117403809Y-58014819D02*
X117213333Y-58014819D01*
X117213333Y-58014819D02*
X117118095Y-58062438D01*
X117118095Y-58062438D02*
X117070476Y-58110057D01*
X117070476Y-58110057D02*
X116975238Y-58252914D01*
X116975238Y-58252914D02*
X116927619Y-58443390D01*
X116927619Y-58443390D02*
X116927619Y-58824342D01*
X116927619Y-58824342D02*
X116975238Y-58919580D01*
X116975238Y-58919580D02*
X117022857Y-58967200D01*
X117022857Y-58967200D02*
X117118095Y-59014819D01*
X117118095Y-59014819D02*
X117308571Y-59014819D01*
X117308571Y-59014819D02*
X117403809Y-58967200D01*
X117403809Y-58967200D02*
X117451428Y-58919580D01*
X117451428Y-58919580D02*
X117499047Y-58824342D01*
X117499047Y-58824342D02*
X117499047Y-58586247D01*
X117499047Y-58586247D02*
X117451428Y-58491009D01*
X117451428Y-58491009D02*
X117403809Y-58443390D01*
X117403809Y-58443390D02*
X117308571Y-58395771D01*
X117308571Y-58395771D02*
X117118095Y-58395771D01*
X117118095Y-58395771D02*
X117022857Y-58443390D01*
X117022857Y-58443390D02*
X116975238Y-58491009D01*
X116975238Y-58491009D02*
X116927619Y-58586247D01*
X118356190Y-58348152D02*
X118356190Y-59014819D01*
X118118095Y-57967200D02*
X117880000Y-58681485D01*
X117880000Y-58681485D02*
X118499047Y-58681485D01*
X119070476Y-58014819D02*
X119165714Y-58014819D01*
X119165714Y-58014819D02*
X119260952Y-58062438D01*
X119260952Y-58062438D02*
X119308571Y-58110057D01*
X119308571Y-58110057D02*
X119356190Y-58205295D01*
X119356190Y-58205295D02*
X119403809Y-58395771D01*
X119403809Y-58395771D02*
X119403809Y-58633866D01*
X119403809Y-58633866D02*
X119356190Y-58824342D01*
X119356190Y-58824342D02*
X119308571Y-58919580D01*
X119308571Y-58919580D02*
X119260952Y-58967200D01*
X119260952Y-58967200D02*
X119165714Y-59014819D01*
X119165714Y-59014819D02*
X119070476Y-59014819D01*
X119070476Y-59014819D02*
X118975238Y-58967200D01*
X118975238Y-58967200D02*
X118927619Y-58919580D01*
X118927619Y-58919580D02*
X118880000Y-58824342D01*
X118880000Y-58824342D02*
X118832381Y-58633866D01*
X118832381Y-58633866D02*
X118832381Y-58395771D01*
X118832381Y-58395771D02*
X118880000Y-58205295D01*
X118880000Y-58205295D02*
X118927619Y-58110057D01*
X118927619Y-58110057D02*
X118975238Y-58062438D01*
X118975238Y-58062438D02*
X119070476Y-58014819D01*
X119784762Y-58110057D02*
X119832381Y-58062438D01*
X119832381Y-58062438D02*
X119927619Y-58014819D01*
X119927619Y-58014819D02*
X120165714Y-58014819D01*
X120165714Y-58014819D02*
X120260952Y-58062438D01*
X120260952Y-58062438D02*
X120308571Y-58110057D01*
X120308571Y-58110057D02*
X120356190Y-58205295D01*
X120356190Y-58205295D02*
X120356190Y-58300533D01*
X120356190Y-58300533D02*
X120308571Y-58443390D01*
X120308571Y-58443390D02*
X119737143Y-59014819D01*
X119737143Y-59014819D02*
X120356190Y-59014819D01*
X121260952Y-59014819D02*
X120784762Y-59014819D01*
X120784762Y-59014819D02*
X120784762Y-58014819D01*
X121451429Y-58014819D02*
X121784762Y-59014819D01*
X121784762Y-59014819D02*
X122118095Y-58014819D01*
X122308572Y-58014819D02*
X122880000Y-58014819D01*
X122594286Y-59014819D02*
X122594286Y-58014819D01*
X123213334Y-58633866D02*
X123975239Y-58633866D01*
X124356191Y-58014819D02*
X125022857Y-58014819D01*
X125022857Y-58014819D02*
X124594286Y-59014819D01*
D11*
X119341904Y-61180022D02*
X119303809Y-61160975D01*
X119303809Y-61160975D02*
X119265714Y-61122880D01*
X119265714Y-61122880D02*
X119208571Y-61065737D01*
X119208571Y-61065737D02*
X119170476Y-61046689D01*
X119170476Y-61046689D02*
X119132380Y-61046689D01*
X119151428Y-61141927D02*
X119113333Y-61122880D01*
X119113333Y-61122880D02*
X119075238Y-61084784D01*
X119075238Y-61084784D02*
X119056190Y-61008594D01*
X119056190Y-61008594D02*
X119056190Y-60875260D01*
X119056190Y-60875260D02*
X119075238Y-60799070D01*
X119075238Y-60799070D02*
X119113333Y-60760975D01*
X119113333Y-60760975D02*
X119151428Y-60741927D01*
X119151428Y-60741927D02*
X119227619Y-60741927D01*
X119227619Y-60741927D02*
X119265714Y-60760975D01*
X119265714Y-60760975D02*
X119303809Y-60799070D01*
X119303809Y-60799070D02*
X119322857Y-60875260D01*
X119322857Y-60875260D02*
X119322857Y-61008594D01*
X119322857Y-61008594D02*
X119303809Y-61084784D01*
X119303809Y-61084784D02*
X119265714Y-61122880D01*
X119265714Y-61122880D02*
X119227619Y-61141927D01*
X119227619Y-61141927D02*
X119151428Y-61141927D01*
X119456190Y-60741927D02*
X119722857Y-60741927D01*
X119722857Y-60741927D02*
X119551428Y-61141927D01*
D10*
X148153523Y-34076819D02*
X147582095Y-34076819D01*
X147867809Y-34076819D02*
X147867809Y-33076819D01*
X147867809Y-33076819D02*
X147772571Y-33219676D01*
X147772571Y-33219676D02*
X147677333Y-33314914D01*
X147677333Y-33314914D02*
X147582095Y-33362533D01*
X148772571Y-33076819D02*
X148867809Y-33076819D01*
X148867809Y-33076819D02*
X148963047Y-33124438D01*
X148963047Y-33124438D02*
X149010666Y-33172057D01*
X149010666Y-33172057D02*
X149058285Y-33267295D01*
X149058285Y-33267295D02*
X149105904Y-33457771D01*
X149105904Y-33457771D02*
X149105904Y-33695866D01*
X149105904Y-33695866D02*
X149058285Y-33886342D01*
X149058285Y-33886342D02*
X149010666Y-33981580D01*
X149010666Y-33981580D02*
X148963047Y-34029200D01*
X148963047Y-34029200D02*
X148867809Y-34076819D01*
X148867809Y-34076819D02*
X148772571Y-34076819D01*
X148772571Y-34076819D02*
X148677333Y-34029200D01*
X148677333Y-34029200D02*
X148629714Y-33981580D01*
X148629714Y-33981580D02*
X148582095Y-33886342D01*
X148582095Y-33886342D02*
X148534476Y-33695866D01*
X148534476Y-33695866D02*
X148534476Y-33457771D01*
X148534476Y-33457771D02*
X148582095Y-33267295D01*
X148582095Y-33267295D02*
X148629714Y-33172057D01*
X148629714Y-33172057D02*
X148677333Y-33124438D01*
X148677333Y-33124438D02*
X148772571Y-33076819D01*
X149534476Y-34076819D02*
X149534476Y-33076819D01*
X150105904Y-34076819D02*
X149677333Y-33505390D01*
X150105904Y-33076819D02*
X149534476Y-33648247D01*
D11*
X148777333Y-35233927D02*
X148644000Y-35043451D01*
X148548762Y-35233927D02*
X148548762Y-34833927D01*
X148548762Y-34833927D02*
X148701143Y-34833927D01*
X148701143Y-34833927D02*
X148739238Y-34852975D01*
X148739238Y-34852975D02*
X148758285Y-34872022D01*
X148758285Y-34872022D02*
X148777333Y-34910118D01*
X148777333Y-34910118D02*
X148777333Y-34967260D01*
X148777333Y-34967260D02*
X148758285Y-35005356D01*
X148758285Y-35005356D02*
X148739238Y-35024403D01*
X148739238Y-35024403D02*
X148701143Y-35043451D01*
X148701143Y-35043451D02*
X148548762Y-35043451D01*
X148910666Y-34833927D02*
X149158285Y-34833927D01*
X149158285Y-34833927D02*
X149024952Y-34986308D01*
X149024952Y-34986308D02*
X149082095Y-34986308D01*
X149082095Y-34986308D02*
X149120190Y-35005356D01*
X149120190Y-35005356D02*
X149139238Y-35024403D01*
X149139238Y-35024403D02*
X149158285Y-35062499D01*
X149158285Y-35062499D02*
X149158285Y-35157737D01*
X149158285Y-35157737D02*
X149139238Y-35195832D01*
X149139238Y-35195832D02*
X149120190Y-35214880D01*
X149120190Y-35214880D02*
X149082095Y-35233927D01*
X149082095Y-35233927D02*
X148967809Y-35233927D01*
X148967809Y-35233927D02*
X148929714Y-35214880D01*
X148929714Y-35214880D02*
X148910666Y-35195832D01*
D10*
X182119104Y-53706666D02*
X182119104Y-53230476D01*
X182404819Y-53801904D02*
X181404819Y-53468571D01*
X181404819Y-53468571D02*
X182404819Y-53135238D01*
X181404819Y-52944761D02*
X181404819Y-52373333D01*
X182404819Y-52659047D02*
X181404819Y-52659047D01*
X181404819Y-52135237D02*
X182404819Y-51468571D01*
X181404819Y-51468571D02*
X182404819Y-52135237D01*
X182023866Y-51087618D02*
X182023866Y-50325714D01*
X181500057Y-49897142D02*
X181452438Y-49849523D01*
X181452438Y-49849523D02*
X181404819Y-49754285D01*
X181404819Y-49754285D02*
X181404819Y-49516190D01*
X181404819Y-49516190D02*
X181452438Y-49420952D01*
X181452438Y-49420952D02*
X181500057Y-49373333D01*
X181500057Y-49373333D02*
X181595295Y-49325714D01*
X181595295Y-49325714D02*
X181690533Y-49325714D01*
X181690533Y-49325714D02*
X181833390Y-49373333D01*
X181833390Y-49373333D02*
X182404819Y-49944761D01*
X182404819Y-49944761D02*
X182404819Y-49325714D01*
X181738152Y-48468571D02*
X182404819Y-48468571D01*
X181357200Y-48706666D02*
X182071485Y-48944761D01*
X182071485Y-48944761D02*
X182071485Y-48325714D01*
X203154819Y-51849523D02*
X203869104Y-51849523D01*
X203869104Y-51849523D02*
X204011961Y-51897142D01*
X204011961Y-51897142D02*
X204107200Y-51992380D01*
X204107200Y-51992380D02*
X204154819Y-52135237D01*
X204154819Y-52135237D02*
X204154819Y-52230475D01*
X204154819Y-50849523D02*
X204154819Y-51420951D01*
X204154819Y-51135237D02*
X203154819Y-51135237D01*
X203154819Y-51135237D02*
X203297676Y-51230475D01*
X203297676Y-51230475D02*
X203392914Y-51325713D01*
X203392914Y-51325713D02*
X203440533Y-51420951D01*
X203154819Y-50516189D02*
X203154819Y-49897142D01*
X203154819Y-49897142D02*
X203535771Y-50230475D01*
X203535771Y-50230475D02*
X203535771Y-50087618D01*
X203535771Y-50087618D02*
X203583390Y-49992380D01*
X203583390Y-49992380D02*
X203631009Y-49944761D01*
X203631009Y-49944761D02*
X203726247Y-49897142D01*
X203726247Y-49897142D02*
X203964342Y-49897142D01*
X203964342Y-49897142D02*
X204059580Y-49944761D01*
X204059580Y-49944761D02*
X204107200Y-49992380D01*
X204107200Y-49992380D02*
X204154819Y-50087618D01*
X204154819Y-50087618D02*
X204154819Y-50373332D01*
X204154819Y-50373332D02*
X204107200Y-50468570D01*
X204107200Y-50468570D02*
X204059580Y-50516189D01*
X147564819Y-74262856D02*
X146564819Y-74262856D01*
X147564819Y-73786666D02*
X146564819Y-73786666D01*
X146564819Y-73786666D02*
X147564819Y-73215238D01*
X147564819Y-73215238D02*
X146564819Y-73215238D01*
X147660057Y-72977143D02*
X147660057Y-72215238D01*
X147041009Y-71643809D02*
X147041009Y-71977142D01*
X147564819Y-71977142D02*
X146564819Y-71977142D01*
X146564819Y-71977142D02*
X146564819Y-71500952D01*
X147279104Y-71167618D02*
X147279104Y-70691428D01*
X147564819Y-71262856D02*
X146564819Y-70929523D01*
X146564819Y-70929523D02*
X147564819Y-70596190D01*
X147564819Y-70262856D02*
X146564819Y-70262856D01*
X146564819Y-70262856D02*
X147564819Y-69691428D01*
X147564819Y-69691428D02*
X146564819Y-69691428D01*
X147660057Y-69453333D02*
X147660057Y-68691428D01*
X147564819Y-67929523D02*
X147564819Y-68500951D01*
X147564819Y-68215237D02*
X146564819Y-68215237D01*
X146564819Y-68215237D02*
X146707676Y-68310475D01*
X146707676Y-68310475D02*
X146802914Y-68405713D01*
X146802914Y-68405713D02*
X146850533Y-68500951D01*
X140636666Y-70574819D02*
X140636666Y-71289104D01*
X140636666Y-71289104D02*
X140589047Y-71431961D01*
X140589047Y-71431961D02*
X140493809Y-71527200D01*
X140493809Y-71527200D02*
X140350952Y-71574819D01*
X140350952Y-71574819D02*
X140255714Y-71574819D01*
X141589047Y-70574819D02*
X141112857Y-70574819D01*
X141112857Y-70574819D02*
X141065238Y-71051009D01*
X141065238Y-71051009D02*
X141112857Y-71003390D01*
X141112857Y-71003390D02*
X141208095Y-70955771D01*
X141208095Y-70955771D02*
X141446190Y-70955771D01*
X141446190Y-70955771D02*
X141541428Y-71003390D01*
X141541428Y-71003390D02*
X141589047Y-71051009D01*
X141589047Y-71051009D02*
X141636666Y-71146247D01*
X141636666Y-71146247D02*
X141636666Y-71384342D01*
X141636666Y-71384342D02*
X141589047Y-71479580D01*
X141589047Y-71479580D02*
X141541428Y-71527200D01*
X141541428Y-71527200D02*
X141446190Y-71574819D01*
X141446190Y-71574819D02*
X141208095Y-71574819D01*
X141208095Y-71574819D02*
X141112857Y-71527200D01*
X141112857Y-71527200D02*
X141065238Y-71479580D01*
X117570476Y-53934819D02*
X117094286Y-53934819D01*
X117094286Y-53934819D02*
X117094286Y-52934819D01*
X117903810Y-53934819D02*
X117903810Y-52934819D01*
X118903809Y-52982438D02*
X118808571Y-52934819D01*
X118808571Y-52934819D02*
X118665714Y-52934819D01*
X118665714Y-52934819D02*
X118522857Y-52982438D01*
X118522857Y-52982438D02*
X118427619Y-53077676D01*
X118427619Y-53077676D02*
X118380000Y-53172914D01*
X118380000Y-53172914D02*
X118332381Y-53363390D01*
X118332381Y-53363390D02*
X118332381Y-53506247D01*
X118332381Y-53506247D02*
X118380000Y-53696723D01*
X118380000Y-53696723D02*
X118427619Y-53791961D01*
X118427619Y-53791961D02*
X118522857Y-53887200D01*
X118522857Y-53887200D02*
X118665714Y-53934819D01*
X118665714Y-53934819D02*
X118760952Y-53934819D01*
X118760952Y-53934819D02*
X118903809Y-53887200D01*
X118903809Y-53887200D02*
X118951428Y-53839580D01*
X118951428Y-53839580D02*
X118951428Y-53506247D01*
X118951428Y-53506247D02*
X118760952Y-53506247D01*
X119380000Y-53934819D02*
X119380000Y-52934819D01*
X119380000Y-53411009D02*
X119951428Y-53411009D01*
X119951428Y-53934819D02*
X119951428Y-52934819D01*
X120284762Y-52934819D02*
X120856190Y-52934819D01*
X120570476Y-53934819D02*
X120570476Y-52934819D01*
X121141905Y-53887200D02*
X121284762Y-53934819D01*
X121284762Y-53934819D02*
X121522857Y-53934819D01*
X121522857Y-53934819D02*
X121618095Y-53887200D01*
X121618095Y-53887200D02*
X121665714Y-53839580D01*
X121665714Y-53839580D02*
X121713333Y-53744342D01*
X121713333Y-53744342D02*
X121713333Y-53649104D01*
X121713333Y-53649104D02*
X121665714Y-53553866D01*
X121665714Y-53553866D02*
X121618095Y-53506247D01*
X121618095Y-53506247D02*
X121522857Y-53458628D01*
X121522857Y-53458628D02*
X121332381Y-53411009D01*
X121332381Y-53411009D02*
X121237143Y-53363390D01*
X121237143Y-53363390D02*
X121189524Y-53315771D01*
X121189524Y-53315771D02*
X121141905Y-53220533D01*
X121141905Y-53220533D02*
X121141905Y-53125295D01*
X121141905Y-53125295D02*
X121189524Y-53030057D01*
X121189524Y-53030057D02*
X121237143Y-52982438D01*
X121237143Y-52982438D02*
X121332381Y-52934819D01*
X121332381Y-52934819D02*
X121570476Y-52934819D01*
X121570476Y-52934819D02*
X121713333Y-52982438D01*
D11*
X119341904Y-56100022D02*
X119303809Y-56080975D01*
X119303809Y-56080975D02*
X119265714Y-56042880D01*
X119265714Y-56042880D02*
X119208571Y-55985737D01*
X119208571Y-55985737D02*
X119170476Y-55966689D01*
X119170476Y-55966689D02*
X119132380Y-55966689D01*
X119151428Y-56061927D02*
X119113333Y-56042880D01*
X119113333Y-56042880D02*
X119075238Y-56004784D01*
X119075238Y-56004784D02*
X119056190Y-55928594D01*
X119056190Y-55928594D02*
X119056190Y-55795260D01*
X119056190Y-55795260D02*
X119075238Y-55719070D01*
X119075238Y-55719070D02*
X119113333Y-55680975D01*
X119113333Y-55680975D02*
X119151428Y-55661927D01*
X119151428Y-55661927D02*
X119227619Y-55661927D01*
X119227619Y-55661927D02*
X119265714Y-55680975D01*
X119265714Y-55680975D02*
X119303809Y-55719070D01*
X119303809Y-55719070D02*
X119322857Y-55795260D01*
X119322857Y-55795260D02*
X119322857Y-55928594D01*
X119322857Y-55928594D02*
X119303809Y-56004784D01*
X119303809Y-56004784D02*
X119265714Y-56042880D01*
X119265714Y-56042880D02*
X119227619Y-56061927D01*
X119227619Y-56061927D02*
X119151428Y-56061927D01*
X119456190Y-55661927D02*
X119703809Y-55661927D01*
X119703809Y-55661927D02*
X119570476Y-55814308D01*
X119570476Y-55814308D02*
X119627619Y-55814308D01*
X119627619Y-55814308D02*
X119665714Y-55833356D01*
X119665714Y-55833356D02*
X119684762Y-55852403D01*
X119684762Y-55852403D02*
X119703809Y-55890499D01*
X119703809Y-55890499D02*
X119703809Y-55985737D01*
X119703809Y-55985737D02*
X119684762Y-56023832D01*
X119684762Y-56023832D02*
X119665714Y-56042880D01*
X119665714Y-56042880D02*
X119627619Y-56061927D01*
X119627619Y-56061927D02*
X119513333Y-56061927D01*
X119513333Y-56061927D02*
X119475238Y-56042880D01*
X119475238Y-56042880D02*
X119456190Y-56023832D01*
D10*
X125515714Y-64214819D02*
X124944286Y-64214819D01*
X125230000Y-64214819D02*
X125230000Y-63214819D01*
X125230000Y-63214819D02*
X125134762Y-63357676D01*
X125134762Y-63357676D02*
X125039524Y-63452914D01*
X125039524Y-63452914D02*
X124944286Y-63500533D01*
X125944286Y-64214819D02*
X125944286Y-63214819D01*
X126515714Y-64214819D02*
X126087143Y-63643390D01*
X126515714Y-63214819D02*
X125944286Y-63786247D01*
D12*
X125596667Y-66403855D02*
X125330000Y-66022902D01*
X125139524Y-66403855D02*
X125139524Y-65603855D01*
X125139524Y-65603855D02*
X125444286Y-65603855D01*
X125444286Y-65603855D02*
X125520476Y-65641950D01*
X125520476Y-65641950D02*
X125558571Y-65680045D01*
X125558571Y-65680045D02*
X125596667Y-65756236D01*
X125596667Y-65756236D02*
X125596667Y-65870521D01*
X125596667Y-65870521D02*
X125558571Y-65946712D01*
X125558571Y-65946712D02*
X125520476Y-65984807D01*
X125520476Y-65984807D02*
X125444286Y-66022902D01*
X125444286Y-66022902D02*
X125139524Y-66022902D01*
X125901428Y-65680045D02*
X125939524Y-65641950D01*
X125939524Y-65641950D02*
X126015714Y-65603855D01*
X126015714Y-65603855D02*
X126206190Y-65603855D01*
X126206190Y-65603855D02*
X126282381Y-65641950D01*
X126282381Y-65641950D02*
X126320476Y-65680045D01*
X126320476Y-65680045D02*
X126358571Y-65756236D01*
X126358571Y-65756236D02*
X126358571Y-65832426D01*
X126358571Y-65832426D02*
X126320476Y-65946712D01*
X126320476Y-65946712D02*
X125863333Y-66403855D01*
X125863333Y-66403855D02*
X126358571Y-66403855D01*
D10*
X145664819Y-63158618D02*
X145664819Y-63063380D01*
X145664819Y-63063380D02*
X145712438Y-62968142D01*
X145712438Y-62968142D02*
X145760057Y-62920523D01*
X145760057Y-62920523D02*
X145855295Y-62872904D01*
X145855295Y-62872904D02*
X146045771Y-62825285D01*
X146045771Y-62825285D02*
X146283866Y-62825285D01*
X146283866Y-62825285D02*
X146474342Y-62872904D01*
X146474342Y-62872904D02*
X146569580Y-62920523D01*
X146569580Y-62920523D02*
X146617200Y-62968142D01*
X146617200Y-62968142D02*
X146664819Y-63063380D01*
X146664819Y-63063380D02*
X146664819Y-63158618D01*
X146664819Y-63158618D02*
X146617200Y-63253856D01*
X146617200Y-63253856D02*
X146569580Y-63301475D01*
X146569580Y-63301475D02*
X146474342Y-63349094D01*
X146474342Y-63349094D02*
X146283866Y-63396713D01*
X146283866Y-63396713D02*
X146045771Y-63396713D01*
X146045771Y-63396713D02*
X145855295Y-63349094D01*
X145855295Y-63349094D02*
X145760057Y-63301475D01*
X145760057Y-63301475D02*
X145712438Y-63253856D01*
X145712438Y-63253856D02*
X145664819Y-63158618D01*
X146664819Y-61825285D02*
X146188628Y-62158618D01*
X146664819Y-62396713D02*
X145664819Y-62396713D01*
X145664819Y-62396713D02*
X145664819Y-62015761D01*
X145664819Y-62015761D02*
X145712438Y-61920523D01*
X145712438Y-61920523D02*
X145760057Y-61872904D01*
X145760057Y-61872904D02*
X145855295Y-61825285D01*
X145855295Y-61825285D02*
X145998152Y-61825285D01*
X145998152Y-61825285D02*
X146093390Y-61872904D01*
X146093390Y-61872904D02*
X146141009Y-61920523D01*
X146141009Y-61920523D02*
X146188628Y-62015761D01*
X146188628Y-62015761D02*
X146188628Y-62396713D01*
D11*
X144961927Y-62868142D02*
X144771451Y-63001475D01*
X144961927Y-63096713D02*
X144561927Y-63096713D01*
X144561927Y-63096713D02*
X144561927Y-62944332D01*
X144561927Y-62944332D02*
X144580975Y-62906237D01*
X144580975Y-62906237D02*
X144600022Y-62887190D01*
X144600022Y-62887190D02*
X144638118Y-62868142D01*
X144638118Y-62868142D02*
X144695260Y-62868142D01*
X144695260Y-62868142D02*
X144733356Y-62887190D01*
X144733356Y-62887190D02*
X144752403Y-62906237D01*
X144752403Y-62906237D02*
X144771451Y-62944332D01*
X144771451Y-62944332D02*
X144771451Y-63096713D01*
X144961927Y-62487190D02*
X144961927Y-62715761D01*
X144961927Y-62601475D02*
X144561927Y-62601475D01*
X144561927Y-62601475D02*
X144619070Y-62639571D01*
X144619070Y-62639571D02*
X144657165Y-62677666D01*
X144657165Y-62677666D02*
X144676213Y-62715761D01*
X144561927Y-62239571D02*
X144561927Y-62201476D01*
X144561927Y-62201476D02*
X144580975Y-62163380D01*
X144580975Y-62163380D02*
X144600022Y-62144333D01*
X144600022Y-62144333D02*
X144638118Y-62125285D01*
X144638118Y-62125285D02*
X144714308Y-62106238D01*
X144714308Y-62106238D02*
X144809546Y-62106238D01*
X144809546Y-62106238D02*
X144885737Y-62125285D01*
X144885737Y-62125285D02*
X144923832Y-62144333D01*
X144923832Y-62144333D02*
X144942880Y-62163380D01*
X144942880Y-62163380D02*
X144961927Y-62201476D01*
X144961927Y-62201476D02*
X144961927Y-62239571D01*
X144961927Y-62239571D02*
X144942880Y-62277666D01*
X144942880Y-62277666D02*
X144923832Y-62296714D01*
X144923832Y-62296714D02*
X144885737Y-62315761D01*
X144885737Y-62315761D02*
X144809546Y-62334809D01*
X144809546Y-62334809D02*
X144714308Y-62334809D01*
X144714308Y-62334809D02*
X144638118Y-62315761D01*
X144638118Y-62315761D02*
X144600022Y-62296714D01*
X144600022Y-62296714D02*
X144580975Y-62277666D01*
X144580975Y-62277666D02*
X144561927Y-62239571D01*
D10*
X172114819Y-68317618D02*
X171114819Y-68317618D01*
X171114819Y-68317618D02*
X171114819Y-67936666D01*
X171114819Y-67936666D02*
X171162438Y-67841428D01*
X171162438Y-67841428D02*
X171210057Y-67793809D01*
X171210057Y-67793809D02*
X171305295Y-67746190D01*
X171305295Y-67746190D02*
X171448152Y-67746190D01*
X171448152Y-67746190D02*
X171543390Y-67793809D01*
X171543390Y-67793809D02*
X171591009Y-67841428D01*
X171591009Y-67841428D02*
X171638628Y-67936666D01*
X171638628Y-67936666D02*
X171638628Y-68317618D01*
X171591009Y-67317618D02*
X171591009Y-66984285D01*
X172114819Y-66841428D02*
X172114819Y-67317618D01*
X172114819Y-67317618D02*
X171114819Y-67317618D01*
X171114819Y-67317618D02*
X171114819Y-66841428D01*
X172114819Y-65936666D02*
X172114819Y-66412856D01*
X172114819Y-66412856D02*
X171114819Y-66412856D01*
X171114819Y-65746189D02*
X171114819Y-65174761D01*
X172114819Y-65460475D02*
X171114819Y-65460475D01*
X172114819Y-64841427D02*
X171114819Y-64841427D01*
X171591009Y-64365237D02*
X171591009Y-64031904D01*
X172114819Y-63889047D02*
X172114819Y-64365237D01*
X172114819Y-64365237D02*
X171114819Y-64365237D01*
X171114819Y-64365237D02*
X171114819Y-63889047D01*
X172114819Y-62889047D02*
X171638628Y-63222380D01*
X172114819Y-63460475D02*
X171114819Y-63460475D01*
X171114819Y-63460475D02*
X171114819Y-63079523D01*
X171114819Y-63079523D02*
X171162438Y-62984285D01*
X171162438Y-62984285D02*
X171210057Y-62936666D01*
X171210057Y-62936666D02*
X171305295Y-62889047D01*
X171305295Y-62889047D02*
X171448152Y-62889047D01*
X171448152Y-62889047D02*
X171543390Y-62936666D01*
X171543390Y-62936666D02*
X171591009Y-62984285D01*
X171591009Y-62984285D02*
X171638628Y-63079523D01*
X171638628Y-63079523D02*
X171638628Y-63460475D01*
X172210057Y-62698571D02*
X172210057Y-61936666D01*
X171210057Y-61746189D02*
X171162438Y-61698570D01*
X171162438Y-61698570D02*
X171114819Y-61603332D01*
X171114819Y-61603332D02*
X171114819Y-61365237D01*
X171114819Y-61365237D02*
X171162438Y-61269999D01*
X171162438Y-61269999D02*
X171210057Y-61222380D01*
X171210057Y-61222380D02*
X171305295Y-61174761D01*
X171305295Y-61174761D02*
X171400533Y-61174761D01*
X171400533Y-61174761D02*
X171543390Y-61222380D01*
X171543390Y-61222380D02*
X172114819Y-61793808D01*
X172114819Y-61793808D02*
X172114819Y-61174761D01*
X174926666Y-64224819D02*
X174926666Y-64939104D01*
X174926666Y-64939104D02*
X174879047Y-65081961D01*
X174879047Y-65081961D02*
X174783809Y-65177200D01*
X174783809Y-65177200D02*
X174640952Y-65224819D01*
X174640952Y-65224819D02*
X174545714Y-65224819D01*
X175450476Y-65224819D02*
X175640952Y-65224819D01*
X175640952Y-65224819D02*
X175736190Y-65177200D01*
X175736190Y-65177200D02*
X175783809Y-65129580D01*
X175783809Y-65129580D02*
X175879047Y-64986723D01*
X175879047Y-64986723D02*
X175926666Y-64796247D01*
X175926666Y-64796247D02*
X175926666Y-64415295D01*
X175926666Y-64415295D02*
X175879047Y-64320057D01*
X175879047Y-64320057D02*
X175831428Y-64272438D01*
X175831428Y-64272438D02*
X175736190Y-64224819D01*
X175736190Y-64224819D02*
X175545714Y-64224819D01*
X175545714Y-64224819D02*
X175450476Y-64272438D01*
X175450476Y-64272438D02*
X175402857Y-64320057D01*
X175402857Y-64320057D02*
X175355238Y-64415295D01*
X175355238Y-64415295D02*
X175355238Y-64653390D01*
X175355238Y-64653390D02*
X175402857Y-64748628D01*
X175402857Y-64748628D02*
X175450476Y-64796247D01*
X175450476Y-64796247D02*
X175545714Y-64843866D01*
X175545714Y-64843866D02*
X175736190Y-64843866D01*
X175736190Y-64843866D02*
X175831428Y-64796247D01*
X175831428Y-64796247D02*
X175879047Y-64748628D01*
X175879047Y-64748628D02*
X175926666Y-64653390D01*
X168229580Y-44695239D02*
X168277200Y-44742858D01*
X168277200Y-44742858D02*
X168324819Y-44885715D01*
X168324819Y-44885715D02*
X168324819Y-44980953D01*
X168324819Y-44980953D02*
X168277200Y-45123810D01*
X168277200Y-45123810D02*
X168181961Y-45219048D01*
X168181961Y-45219048D02*
X168086723Y-45266667D01*
X168086723Y-45266667D02*
X167896247Y-45314286D01*
X167896247Y-45314286D02*
X167753390Y-45314286D01*
X167753390Y-45314286D02*
X167562914Y-45266667D01*
X167562914Y-45266667D02*
X167467676Y-45219048D01*
X167467676Y-45219048D02*
X167372438Y-45123810D01*
X167372438Y-45123810D02*
X167324819Y-44980953D01*
X167324819Y-44980953D02*
X167324819Y-44885715D01*
X167324819Y-44885715D02*
X167372438Y-44742858D01*
X167372438Y-44742858D02*
X167420057Y-44695239D01*
X168324819Y-44123810D02*
X168277200Y-44219048D01*
X168277200Y-44219048D02*
X168229580Y-44266667D01*
X168229580Y-44266667D02*
X168134342Y-44314286D01*
X168134342Y-44314286D02*
X167848628Y-44314286D01*
X167848628Y-44314286D02*
X167753390Y-44266667D01*
X167753390Y-44266667D02*
X167705771Y-44219048D01*
X167705771Y-44219048D02*
X167658152Y-44123810D01*
X167658152Y-44123810D02*
X167658152Y-43980953D01*
X167658152Y-43980953D02*
X167705771Y-43885715D01*
X167705771Y-43885715D02*
X167753390Y-43838096D01*
X167753390Y-43838096D02*
X167848628Y-43790477D01*
X167848628Y-43790477D02*
X168134342Y-43790477D01*
X168134342Y-43790477D02*
X168229580Y-43838096D01*
X168229580Y-43838096D02*
X168277200Y-43885715D01*
X168277200Y-43885715D02*
X168324819Y-43980953D01*
X168324819Y-43980953D02*
X168324819Y-44123810D01*
X167658152Y-43361905D02*
X168324819Y-43361905D01*
X167753390Y-43361905D02*
X167705771Y-43314286D01*
X167705771Y-43314286D02*
X167658152Y-43219048D01*
X167658152Y-43219048D02*
X167658152Y-43076191D01*
X167658152Y-43076191D02*
X167705771Y-42980953D01*
X167705771Y-42980953D02*
X167801009Y-42933334D01*
X167801009Y-42933334D02*
X168324819Y-42933334D01*
X167658152Y-42457143D02*
X168324819Y-42457143D01*
X167753390Y-42457143D02*
X167705771Y-42409524D01*
X167705771Y-42409524D02*
X167658152Y-42314286D01*
X167658152Y-42314286D02*
X167658152Y-42171429D01*
X167658152Y-42171429D02*
X167705771Y-42076191D01*
X167705771Y-42076191D02*
X167801009Y-42028572D01*
X167801009Y-42028572D02*
X168324819Y-42028572D01*
X168420057Y-41790477D02*
X168420057Y-41028572D01*
X167324819Y-40600000D02*
X167324819Y-40504762D01*
X167324819Y-40504762D02*
X167372438Y-40409524D01*
X167372438Y-40409524D02*
X167420057Y-40361905D01*
X167420057Y-40361905D02*
X167515295Y-40314286D01*
X167515295Y-40314286D02*
X167705771Y-40266667D01*
X167705771Y-40266667D02*
X167943866Y-40266667D01*
X167943866Y-40266667D02*
X168134342Y-40314286D01*
X168134342Y-40314286D02*
X168229580Y-40361905D01*
X168229580Y-40361905D02*
X168277200Y-40409524D01*
X168277200Y-40409524D02*
X168324819Y-40504762D01*
X168324819Y-40504762D02*
X168324819Y-40600000D01*
X168324819Y-40600000D02*
X168277200Y-40695238D01*
X168277200Y-40695238D02*
X168229580Y-40742857D01*
X168229580Y-40742857D02*
X168134342Y-40790476D01*
X168134342Y-40790476D02*
X167943866Y-40838095D01*
X167943866Y-40838095D02*
X167705771Y-40838095D01*
X167705771Y-40838095D02*
X167515295Y-40790476D01*
X167515295Y-40790476D02*
X167420057Y-40742857D01*
X167420057Y-40742857D02*
X167372438Y-40695238D01*
X167372438Y-40695238D02*
X167324819Y-40600000D01*
X168324819Y-39314286D02*
X168324819Y-39885714D01*
X168324819Y-39600000D02*
X167324819Y-39600000D01*
X167324819Y-39600000D02*
X167467676Y-39695238D01*
X167467676Y-39695238D02*
X167562914Y-39790476D01*
X167562914Y-39790476D02*
X167610533Y-39885714D01*
X168324819Y-38980952D02*
X167658152Y-38457143D01*
X167658152Y-38980952D02*
X168324819Y-38457143D01*
X168324819Y-37552381D02*
X168324819Y-38123809D01*
X168324819Y-37838095D02*
X167324819Y-37838095D01*
X167324819Y-37838095D02*
X167467676Y-37933333D01*
X167467676Y-37933333D02*
X167562914Y-38028571D01*
X167562914Y-38028571D02*
X167610533Y-38123809D01*
X167420057Y-37171428D02*
X167372438Y-37123809D01*
X167372438Y-37123809D02*
X167324819Y-37028571D01*
X167324819Y-37028571D02*
X167324819Y-36790476D01*
X167324819Y-36790476D02*
X167372438Y-36695238D01*
X167372438Y-36695238D02*
X167420057Y-36647619D01*
X167420057Y-36647619D02*
X167515295Y-36600000D01*
X167515295Y-36600000D02*
X167610533Y-36600000D01*
X167610533Y-36600000D02*
X167753390Y-36647619D01*
X167753390Y-36647619D02*
X168324819Y-37219047D01*
X168324819Y-37219047D02*
X168324819Y-36600000D01*
X168420057Y-36409524D02*
X168420057Y-35647619D01*
X168277200Y-35457142D02*
X168324819Y-35314285D01*
X168324819Y-35314285D02*
X168324819Y-35076190D01*
X168324819Y-35076190D02*
X168277200Y-34980952D01*
X168277200Y-34980952D02*
X168229580Y-34933333D01*
X168229580Y-34933333D02*
X168134342Y-34885714D01*
X168134342Y-34885714D02*
X168039104Y-34885714D01*
X168039104Y-34885714D02*
X167943866Y-34933333D01*
X167943866Y-34933333D02*
X167896247Y-34980952D01*
X167896247Y-34980952D02*
X167848628Y-35076190D01*
X167848628Y-35076190D02*
X167801009Y-35266666D01*
X167801009Y-35266666D02*
X167753390Y-35361904D01*
X167753390Y-35361904D02*
X167705771Y-35409523D01*
X167705771Y-35409523D02*
X167610533Y-35457142D01*
X167610533Y-35457142D02*
X167515295Y-35457142D01*
X167515295Y-35457142D02*
X167420057Y-35409523D01*
X167420057Y-35409523D02*
X167372438Y-35361904D01*
X167372438Y-35361904D02*
X167324819Y-35266666D01*
X167324819Y-35266666D02*
X167324819Y-35028571D01*
X167324819Y-35028571D02*
X167372438Y-34885714D01*
X168324819Y-34314285D02*
X168277200Y-34409523D01*
X168277200Y-34409523D02*
X168229580Y-34457142D01*
X168229580Y-34457142D02*
X168134342Y-34504761D01*
X168134342Y-34504761D02*
X167848628Y-34504761D01*
X167848628Y-34504761D02*
X167753390Y-34457142D01*
X167753390Y-34457142D02*
X167705771Y-34409523D01*
X167705771Y-34409523D02*
X167658152Y-34314285D01*
X167658152Y-34314285D02*
X167658152Y-34171428D01*
X167658152Y-34171428D02*
X167705771Y-34076190D01*
X167705771Y-34076190D02*
X167753390Y-34028571D01*
X167753390Y-34028571D02*
X167848628Y-33980952D01*
X167848628Y-33980952D02*
X168134342Y-33980952D01*
X168134342Y-33980952D02*
X168229580Y-34028571D01*
X168229580Y-34028571D02*
X168277200Y-34076190D01*
X168277200Y-34076190D02*
X168324819Y-34171428D01*
X168324819Y-34171428D02*
X168324819Y-34314285D01*
X168277200Y-33123809D02*
X168324819Y-33219047D01*
X168324819Y-33219047D02*
X168324819Y-33409523D01*
X168324819Y-33409523D02*
X168277200Y-33504761D01*
X168277200Y-33504761D02*
X168229580Y-33552380D01*
X168229580Y-33552380D02*
X168134342Y-33599999D01*
X168134342Y-33599999D02*
X167848628Y-33599999D01*
X167848628Y-33599999D02*
X167753390Y-33552380D01*
X167753390Y-33552380D02*
X167705771Y-33504761D01*
X167705771Y-33504761D02*
X167658152Y-33409523D01*
X167658152Y-33409523D02*
X167658152Y-33219047D01*
X167658152Y-33219047D02*
X167705771Y-33123809D01*
X168324819Y-32695237D02*
X167324819Y-32695237D01*
X167943866Y-32599999D02*
X168324819Y-32314285D01*
X167658152Y-32314285D02*
X168039104Y-32695237D01*
X168277200Y-31504761D02*
X168324819Y-31599999D01*
X168324819Y-31599999D02*
X168324819Y-31790475D01*
X168324819Y-31790475D02*
X168277200Y-31885713D01*
X168277200Y-31885713D02*
X168181961Y-31933332D01*
X168181961Y-31933332D02*
X167801009Y-31933332D01*
X167801009Y-31933332D02*
X167705771Y-31885713D01*
X167705771Y-31885713D02*
X167658152Y-31790475D01*
X167658152Y-31790475D02*
X167658152Y-31599999D01*
X167658152Y-31599999D02*
X167705771Y-31504761D01*
X167705771Y-31504761D02*
X167801009Y-31457142D01*
X167801009Y-31457142D02*
X167896247Y-31457142D01*
X167896247Y-31457142D02*
X167991485Y-31933332D01*
X167658152Y-31171427D02*
X167658152Y-30790475D01*
X167324819Y-31028570D02*
X168181961Y-31028570D01*
X168181961Y-31028570D02*
X168277200Y-30980951D01*
X168277200Y-30980951D02*
X168324819Y-30885713D01*
X168324819Y-30885713D02*
X168324819Y-30790475D01*
X150796666Y-37554819D02*
X150796666Y-38269104D01*
X150796666Y-38269104D02*
X150749047Y-38411961D01*
X150749047Y-38411961D02*
X150653809Y-38507200D01*
X150653809Y-38507200D02*
X150510952Y-38554819D01*
X150510952Y-38554819D02*
X150415714Y-38554819D01*
X151796666Y-38554819D02*
X151225238Y-38554819D01*
X151510952Y-38554819D02*
X151510952Y-37554819D01*
X151510952Y-37554819D02*
X151415714Y-37697676D01*
X151415714Y-37697676D02*
X151320476Y-37792914D01*
X151320476Y-37792914D02*
X151225238Y-37840533D01*
D11*
X160240022Y-74333095D02*
X160220975Y-74371190D01*
X160220975Y-74371190D02*
X160182880Y-74409285D01*
X160182880Y-74409285D02*
X160125737Y-74466428D01*
X160125737Y-74466428D02*
X160106689Y-74504523D01*
X160106689Y-74504523D02*
X160106689Y-74542619D01*
X160201927Y-74523571D02*
X160182880Y-74561666D01*
X160182880Y-74561666D02*
X160144784Y-74599761D01*
X160144784Y-74599761D02*
X160068594Y-74618809D01*
X160068594Y-74618809D02*
X159935260Y-74618809D01*
X159935260Y-74618809D02*
X159859070Y-74599761D01*
X159859070Y-74599761D02*
X159820975Y-74561666D01*
X159820975Y-74561666D02*
X159801927Y-74523571D01*
X159801927Y-74523571D02*
X159801927Y-74447380D01*
X159801927Y-74447380D02*
X159820975Y-74409285D01*
X159820975Y-74409285D02*
X159859070Y-74371190D01*
X159859070Y-74371190D02*
X159935260Y-74352142D01*
X159935260Y-74352142D02*
X160068594Y-74352142D01*
X160068594Y-74352142D02*
X160144784Y-74371190D01*
X160144784Y-74371190D02*
X160182880Y-74409285D01*
X160182880Y-74409285D02*
X160201927Y-74447380D01*
X160201927Y-74447380D02*
X160201927Y-74523571D01*
X160201927Y-73971190D02*
X160201927Y-74199761D01*
X160201927Y-74085475D02*
X159801927Y-74085475D01*
X159801927Y-74085475D02*
X159859070Y-74123571D01*
X159859070Y-74123571D02*
X159897165Y-74161666D01*
X159897165Y-74161666D02*
X159916213Y-74199761D01*
D10*
X162874819Y-73397618D02*
X161874819Y-73397618D01*
X161874819Y-73397618D02*
X161874819Y-73016666D01*
X161874819Y-73016666D02*
X161922438Y-72921428D01*
X161922438Y-72921428D02*
X161970057Y-72873809D01*
X161970057Y-72873809D02*
X162065295Y-72826190D01*
X162065295Y-72826190D02*
X162208152Y-72826190D01*
X162208152Y-72826190D02*
X162303390Y-72873809D01*
X162303390Y-72873809D02*
X162351009Y-72921428D01*
X162351009Y-72921428D02*
X162398628Y-73016666D01*
X162398628Y-73016666D02*
X162398628Y-73397618D01*
X162351009Y-72397618D02*
X162351009Y-72064285D01*
X162874819Y-71921428D02*
X162874819Y-72397618D01*
X162874819Y-72397618D02*
X161874819Y-72397618D01*
X161874819Y-72397618D02*
X161874819Y-71921428D01*
X162874819Y-71016666D02*
X162874819Y-71492856D01*
X162874819Y-71492856D02*
X161874819Y-71492856D01*
X161874819Y-70826189D02*
X161874819Y-70254761D01*
X162874819Y-70540475D02*
X161874819Y-70540475D01*
X162874819Y-69921427D02*
X161874819Y-69921427D01*
X162351009Y-69445237D02*
X162351009Y-69111904D01*
X162874819Y-68969047D02*
X162874819Y-69445237D01*
X162874819Y-69445237D02*
X161874819Y-69445237D01*
X161874819Y-69445237D02*
X161874819Y-68969047D01*
X162874819Y-67969047D02*
X162398628Y-68302380D01*
X162874819Y-68540475D02*
X161874819Y-68540475D01*
X161874819Y-68540475D02*
X161874819Y-68159523D01*
X161874819Y-68159523D02*
X161922438Y-68064285D01*
X161922438Y-68064285D02*
X161970057Y-68016666D01*
X161970057Y-68016666D02*
X162065295Y-67969047D01*
X162065295Y-67969047D02*
X162208152Y-67969047D01*
X162208152Y-67969047D02*
X162303390Y-68016666D01*
X162303390Y-68016666D02*
X162351009Y-68064285D01*
X162351009Y-68064285D02*
X162398628Y-68159523D01*
X162398628Y-68159523D02*
X162398628Y-68540475D01*
X162970057Y-67778571D02*
X162970057Y-67016666D01*
X162874819Y-66254761D02*
X162874819Y-66826189D01*
X162874819Y-66540475D02*
X161874819Y-66540475D01*
X161874819Y-66540475D02*
X162017676Y-66635713D01*
X162017676Y-66635713D02*
X162112914Y-66730951D01*
X162112914Y-66730951D02*
X162160533Y-66826189D01*
D11*
X160240022Y-69888095D02*
X160220975Y-69926190D01*
X160220975Y-69926190D02*
X160182880Y-69964285D01*
X160182880Y-69964285D02*
X160125737Y-70021428D01*
X160125737Y-70021428D02*
X160106689Y-70059523D01*
X160106689Y-70059523D02*
X160106689Y-70097619D01*
X160201927Y-70078571D02*
X160182880Y-70116666D01*
X160182880Y-70116666D02*
X160144784Y-70154761D01*
X160144784Y-70154761D02*
X160068594Y-70173809D01*
X160068594Y-70173809D02*
X159935260Y-70173809D01*
X159935260Y-70173809D02*
X159859070Y-70154761D01*
X159859070Y-70154761D02*
X159820975Y-70116666D01*
X159820975Y-70116666D02*
X159801927Y-70078571D01*
X159801927Y-70078571D02*
X159801927Y-70002380D01*
X159801927Y-70002380D02*
X159820975Y-69964285D01*
X159820975Y-69964285D02*
X159859070Y-69926190D01*
X159859070Y-69926190D02*
X159935260Y-69907142D01*
X159935260Y-69907142D02*
X160068594Y-69907142D01*
X160068594Y-69907142D02*
X160144784Y-69926190D01*
X160144784Y-69926190D02*
X160182880Y-69964285D01*
X160182880Y-69964285D02*
X160201927Y-70002380D01*
X160201927Y-70002380D02*
X160201927Y-70078571D01*
X159935260Y-69564285D02*
X160201927Y-69564285D01*
X159782880Y-69659523D02*
X160068594Y-69754761D01*
X160068594Y-69754761D02*
X160068594Y-69507142D01*
D10*
X172869580Y-36852858D02*
X172917200Y-36900477D01*
X172917200Y-36900477D02*
X172964819Y-37043334D01*
X172964819Y-37043334D02*
X172964819Y-37138572D01*
X172964819Y-37138572D02*
X172917200Y-37281429D01*
X172917200Y-37281429D02*
X172821961Y-37376667D01*
X172821961Y-37376667D02*
X172726723Y-37424286D01*
X172726723Y-37424286D02*
X172536247Y-37471905D01*
X172536247Y-37471905D02*
X172393390Y-37471905D01*
X172393390Y-37471905D02*
X172202914Y-37424286D01*
X172202914Y-37424286D02*
X172107676Y-37376667D01*
X172107676Y-37376667D02*
X172012438Y-37281429D01*
X172012438Y-37281429D02*
X171964819Y-37138572D01*
X171964819Y-37138572D02*
X171964819Y-37043334D01*
X171964819Y-37043334D02*
X172012438Y-36900477D01*
X172012438Y-36900477D02*
X172060057Y-36852858D01*
X172964819Y-36281429D02*
X172917200Y-36376667D01*
X172917200Y-36376667D02*
X172869580Y-36424286D01*
X172869580Y-36424286D02*
X172774342Y-36471905D01*
X172774342Y-36471905D02*
X172488628Y-36471905D01*
X172488628Y-36471905D02*
X172393390Y-36424286D01*
X172393390Y-36424286D02*
X172345771Y-36376667D01*
X172345771Y-36376667D02*
X172298152Y-36281429D01*
X172298152Y-36281429D02*
X172298152Y-36138572D01*
X172298152Y-36138572D02*
X172345771Y-36043334D01*
X172345771Y-36043334D02*
X172393390Y-35995715D01*
X172393390Y-35995715D02*
X172488628Y-35948096D01*
X172488628Y-35948096D02*
X172774342Y-35948096D01*
X172774342Y-35948096D02*
X172869580Y-35995715D01*
X172869580Y-35995715D02*
X172917200Y-36043334D01*
X172917200Y-36043334D02*
X172964819Y-36138572D01*
X172964819Y-36138572D02*
X172964819Y-36281429D01*
X172298152Y-35519524D02*
X172964819Y-35519524D01*
X172393390Y-35519524D02*
X172345771Y-35471905D01*
X172345771Y-35471905D02*
X172298152Y-35376667D01*
X172298152Y-35376667D02*
X172298152Y-35233810D01*
X172298152Y-35233810D02*
X172345771Y-35138572D01*
X172345771Y-35138572D02*
X172441009Y-35090953D01*
X172441009Y-35090953D02*
X172964819Y-35090953D01*
X172298152Y-34614762D02*
X172964819Y-34614762D01*
X172393390Y-34614762D02*
X172345771Y-34567143D01*
X172345771Y-34567143D02*
X172298152Y-34471905D01*
X172298152Y-34471905D02*
X172298152Y-34329048D01*
X172298152Y-34329048D02*
X172345771Y-34233810D01*
X172345771Y-34233810D02*
X172441009Y-34186191D01*
X172441009Y-34186191D02*
X172964819Y-34186191D01*
X173060057Y-33948096D02*
X173060057Y-33186191D01*
X171964819Y-32757619D02*
X171964819Y-32662381D01*
X171964819Y-32662381D02*
X172012438Y-32567143D01*
X172012438Y-32567143D02*
X172060057Y-32519524D01*
X172060057Y-32519524D02*
X172155295Y-32471905D01*
X172155295Y-32471905D02*
X172345771Y-32424286D01*
X172345771Y-32424286D02*
X172583866Y-32424286D01*
X172583866Y-32424286D02*
X172774342Y-32471905D01*
X172774342Y-32471905D02*
X172869580Y-32519524D01*
X172869580Y-32519524D02*
X172917200Y-32567143D01*
X172917200Y-32567143D02*
X172964819Y-32662381D01*
X172964819Y-32662381D02*
X172964819Y-32757619D01*
X172964819Y-32757619D02*
X172917200Y-32852857D01*
X172917200Y-32852857D02*
X172869580Y-32900476D01*
X172869580Y-32900476D02*
X172774342Y-32948095D01*
X172774342Y-32948095D02*
X172583866Y-32995714D01*
X172583866Y-32995714D02*
X172345771Y-32995714D01*
X172345771Y-32995714D02*
X172155295Y-32948095D01*
X172155295Y-32948095D02*
X172060057Y-32900476D01*
X172060057Y-32900476D02*
X172012438Y-32852857D01*
X172012438Y-32852857D02*
X171964819Y-32757619D01*
X172060057Y-32043333D02*
X172012438Y-31995714D01*
X172012438Y-31995714D02*
X171964819Y-31900476D01*
X171964819Y-31900476D02*
X171964819Y-31662381D01*
X171964819Y-31662381D02*
X172012438Y-31567143D01*
X172012438Y-31567143D02*
X172060057Y-31519524D01*
X172060057Y-31519524D02*
X172155295Y-31471905D01*
X172155295Y-31471905D02*
X172250533Y-31471905D01*
X172250533Y-31471905D02*
X172393390Y-31519524D01*
X172393390Y-31519524D02*
X172964819Y-32090952D01*
X172964819Y-32090952D02*
X172964819Y-31471905D01*
X172964819Y-31138571D02*
X172298152Y-30614762D01*
X172298152Y-31138571D02*
X172964819Y-30614762D01*
X172964819Y-29710000D02*
X172964819Y-30281428D01*
X172964819Y-29995714D02*
X171964819Y-29995714D01*
X171964819Y-29995714D02*
X172107676Y-30090952D01*
X172107676Y-30090952D02*
X172202914Y-30186190D01*
X172202914Y-30186190D02*
X172250533Y-30281428D01*
X171964819Y-29090952D02*
X171964819Y-28995714D01*
X171964819Y-28995714D02*
X172012438Y-28900476D01*
X172012438Y-28900476D02*
X172060057Y-28852857D01*
X172060057Y-28852857D02*
X172155295Y-28805238D01*
X172155295Y-28805238D02*
X172345771Y-28757619D01*
X172345771Y-28757619D02*
X172583866Y-28757619D01*
X172583866Y-28757619D02*
X172774342Y-28805238D01*
X172774342Y-28805238D02*
X172869580Y-28852857D01*
X172869580Y-28852857D02*
X172917200Y-28900476D01*
X172917200Y-28900476D02*
X172964819Y-28995714D01*
X172964819Y-28995714D02*
X172964819Y-29090952D01*
X172964819Y-29090952D02*
X172917200Y-29186190D01*
X172917200Y-29186190D02*
X172869580Y-29233809D01*
X172869580Y-29233809D02*
X172774342Y-29281428D01*
X172774342Y-29281428D02*
X172583866Y-29329047D01*
X172583866Y-29329047D02*
X172345771Y-29329047D01*
X172345771Y-29329047D02*
X172155295Y-29281428D01*
X172155295Y-29281428D02*
X172060057Y-29233809D01*
X172060057Y-29233809D02*
X172012438Y-29186190D01*
X172012438Y-29186190D02*
X171964819Y-29090952D01*
X173060057Y-28567143D02*
X173060057Y-27805238D01*
X171964819Y-27376666D02*
X171964819Y-27186190D01*
X171964819Y-27186190D02*
X172012438Y-27090952D01*
X172012438Y-27090952D02*
X172107676Y-26995714D01*
X172107676Y-26995714D02*
X172298152Y-26948095D01*
X172298152Y-26948095D02*
X172631485Y-26948095D01*
X172631485Y-26948095D02*
X172821961Y-26995714D01*
X172821961Y-26995714D02*
X172917200Y-27090952D01*
X172917200Y-27090952D02*
X172964819Y-27186190D01*
X172964819Y-27186190D02*
X172964819Y-27376666D01*
X172964819Y-27376666D02*
X172917200Y-27471904D01*
X172917200Y-27471904D02*
X172821961Y-27567142D01*
X172821961Y-27567142D02*
X172631485Y-27614761D01*
X172631485Y-27614761D02*
X172298152Y-27614761D01*
X172298152Y-27614761D02*
X172107676Y-27567142D01*
X172107676Y-27567142D02*
X172012438Y-27471904D01*
X172012438Y-27471904D02*
X171964819Y-27376666D01*
X172964819Y-26090952D02*
X171964819Y-26090952D01*
X172917200Y-26090952D02*
X172964819Y-26186190D01*
X172964819Y-26186190D02*
X172964819Y-26376666D01*
X172964819Y-26376666D02*
X172917200Y-26471904D01*
X172917200Y-26471904D02*
X172869580Y-26519523D01*
X172869580Y-26519523D02*
X172774342Y-26567142D01*
X172774342Y-26567142D02*
X172488628Y-26567142D01*
X172488628Y-26567142D02*
X172393390Y-26519523D01*
X172393390Y-26519523D02*
X172345771Y-26471904D01*
X172345771Y-26471904D02*
X172298152Y-26376666D01*
X172298152Y-26376666D02*
X172298152Y-26186190D01*
X172298152Y-26186190D02*
X172345771Y-26090952D01*
X172964819Y-25186190D02*
X171964819Y-25186190D01*
X172917200Y-25186190D02*
X172964819Y-25281428D01*
X172964819Y-25281428D02*
X172964819Y-25471904D01*
X172964819Y-25471904D02*
X172917200Y-25567142D01*
X172917200Y-25567142D02*
X172869580Y-25614761D01*
X172869580Y-25614761D02*
X172774342Y-25662380D01*
X172774342Y-25662380D02*
X172488628Y-25662380D01*
X172488628Y-25662380D02*
X172393390Y-25614761D01*
X172393390Y-25614761D02*
X172345771Y-25567142D01*
X172345771Y-25567142D02*
X172298152Y-25471904D01*
X172298152Y-25471904D02*
X172298152Y-25281428D01*
X172298152Y-25281428D02*
X172345771Y-25186190D01*
X173060057Y-24948095D02*
X173060057Y-24186190D01*
X172441009Y-23948094D02*
X172441009Y-23614761D01*
X172964819Y-23471904D02*
X172964819Y-23948094D01*
X172964819Y-23948094D02*
X171964819Y-23948094D01*
X171964819Y-23948094D02*
X171964819Y-23471904D01*
X172298152Y-23138570D02*
X172964819Y-22900475D01*
X172964819Y-22900475D02*
X172298152Y-22662380D01*
X172917200Y-21900475D02*
X172964819Y-21995713D01*
X172964819Y-21995713D02*
X172964819Y-22186189D01*
X172964819Y-22186189D02*
X172917200Y-22281427D01*
X172917200Y-22281427D02*
X172821961Y-22329046D01*
X172821961Y-22329046D02*
X172441009Y-22329046D01*
X172441009Y-22329046D02*
X172345771Y-22281427D01*
X172345771Y-22281427D02*
X172298152Y-22186189D01*
X172298152Y-22186189D02*
X172298152Y-21995713D01*
X172298152Y-21995713D02*
X172345771Y-21900475D01*
X172345771Y-21900475D02*
X172441009Y-21852856D01*
X172441009Y-21852856D02*
X172536247Y-21852856D01*
X172536247Y-21852856D02*
X172631485Y-22329046D01*
X172298152Y-21424284D02*
X172964819Y-21424284D01*
X172393390Y-21424284D02*
X172345771Y-21376665D01*
X172345771Y-21376665D02*
X172298152Y-21281427D01*
X172298152Y-21281427D02*
X172298152Y-21138570D01*
X172298152Y-21138570D02*
X172345771Y-21043332D01*
X172345771Y-21043332D02*
X172441009Y-20995713D01*
X172441009Y-20995713D02*
X172964819Y-20995713D01*
X157940476Y-28664819D02*
X157940476Y-29379104D01*
X157940476Y-29379104D02*
X157892857Y-29521961D01*
X157892857Y-29521961D02*
X157797619Y-29617200D01*
X157797619Y-29617200D02*
X157654762Y-29664819D01*
X157654762Y-29664819D02*
X157559524Y-29664819D01*
X158940476Y-29664819D02*
X158369048Y-29664819D01*
X158654762Y-29664819D02*
X158654762Y-28664819D01*
X158654762Y-28664819D02*
X158559524Y-28807676D01*
X158559524Y-28807676D02*
X158464286Y-28902914D01*
X158464286Y-28902914D02*
X158369048Y-28950533D01*
X159892857Y-29664819D02*
X159321429Y-29664819D01*
X159607143Y-29664819D02*
X159607143Y-28664819D01*
X159607143Y-28664819D02*
X159511905Y-28807676D01*
X159511905Y-28807676D02*
X159416667Y-28902914D01*
X159416667Y-28902914D02*
X159321429Y-28950533D01*
X179384819Y-73397618D02*
X178384819Y-73397618D01*
X178384819Y-73397618D02*
X178384819Y-73016666D01*
X178384819Y-73016666D02*
X178432438Y-72921428D01*
X178432438Y-72921428D02*
X178480057Y-72873809D01*
X178480057Y-72873809D02*
X178575295Y-72826190D01*
X178575295Y-72826190D02*
X178718152Y-72826190D01*
X178718152Y-72826190D02*
X178813390Y-72873809D01*
X178813390Y-72873809D02*
X178861009Y-72921428D01*
X178861009Y-72921428D02*
X178908628Y-73016666D01*
X178908628Y-73016666D02*
X178908628Y-73397618D01*
X178861009Y-72397618D02*
X178861009Y-72064285D01*
X179384819Y-71921428D02*
X179384819Y-72397618D01*
X179384819Y-72397618D02*
X178384819Y-72397618D01*
X178384819Y-72397618D02*
X178384819Y-71921428D01*
X179384819Y-71016666D02*
X179384819Y-71492856D01*
X179384819Y-71492856D02*
X178384819Y-71492856D01*
X178384819Y-70826189D02*
X178384819Y-70254761D01*
X179384819Y-70540475D02*
X178384819Y-70540475D01*
X179384819Y-69921427D02*
X178384819Y-69921427D01*
X178861009Y-69445237D02*
X178861009Y-69111904D01*
X179384819Y-68969047D02*
X179384819Y-69445237D01*
X179384819Y-69445237D02*
X178384819Y-69445237D01*
X178384819Y-69445237D02*
X178384819Y-68969047D01*
X179384819Y-67969047D02*
X178908628Y-68302380D01*
X179384819Y-68540475D02*
X178384819Y-68540475D01*
X178384819Y-68540475D02*
X178384819Y-68159523D01*
X178384819Y-68159523D02*
X178432438Y-68064285D01*
X178432438Y-68064285D02*
X178480057Y-68016666D01*
X178480057Y-68016666D02*
X178575295Y-67969047D01*
X178575295Y-67969047D02*
X178718152Y-67969047D01*
X178718152Y-67969047D02*
X178813390Y-68016666D01*
X178813390Y-68016666D02*
X178861009Y-68064285D01*
X178861009Y-68064285D02*
X178908628Y-68159523D01*
X178908628Y-68159523D02*
X178908628Y-68540475D01*
X179480057Y-67778571D02*
X179480057Y-67016666D01*
X178480057Y-66826189D02*
X178432438Y-66778570D01*
X178432438Y-66778570D02*
X178384819Y-66683332D01*
X178384819Y-66683332D02*
X178384819Y-66445237D01*
X178384819Y-66445237D02*
X178432438Y-66349999D01*
X178432438Y-66349999D02*
X178480057Y-66302380D01*
X178480057Y-66302380D02*
X178575295Y-66254761D01*
X178575295Y-66254761D02*
X178670533Y-66254761D01*
X178670533Y-66254761D02*
X178813390Y-66302380D01*
X178813390Y-66302380D02*
X179384819Y-66873808D01*
X179384819Y-66873808D02*
X179384819Y-66254761D01*
D11*
X176750022Y-69888095D02*
X176730975Y-69926190D01*
X176730975Y-69926190D02*
X176692880Y-69964285D01*
X176692880Y-69964285D02*
X176635737Y-70021428D01*
X176635737Y-70021428D02*
X176616689Y-70059523D01*
X176616689Y-70059523D02*
X176616689Y-70097619D01*
X176711927Y-70078571D02*
X176692880Y-70116666D01*
X176692880Y-70116666D02*
X176654784Y-70154761D01*
X176654784Y-70154761D02*
X176578594Y-70173809D01*
X176578594Y-70173809D02*
X176445260Y-70173809D01*
X176445260Y-70173809D02*
X176369070Y-70154761D01*
X176369070Y-70154761D02*
X176330975Y-70116666D01*
X176330975Y-70116666D02*
X176311927Y-70078571D01*
X176311927Y-70078571D02*
X176311927Y-70002380D01*
X176311927Y-70002380D02*
X176330975Y-69964285D01*
X176330975Y-69964285D02*
X176369070Y-69926190D01*
X176369070Y-69926190D02*
X176445260Y-69907142D01*
X176445260Y-69907142D02*
X176578594Y-69907142D01*
X176578594Y-69907142D02*
X176654784Y-69926190D01*
X176654784Y-69926190D02*
X176692880Y-69964285D01*
X176692880Y-69964285D02*
X176711927Y-70002380D01*
X176711927Y-70002380D02*
X176711927Y-70078571D01*
X176311927Y-69545237D02*
X176311927Y-69735713D01*
X176311927Y-69735713D02*
X176502403Y-69754761D01*
X176502403Y-69754761D02*
X176483356Y-69735713D01*
X176483356Y-69735713D02*
X176464308Y-69697618D01*
X176464308Y-69697618D02*
X176464308Y-69602380D01*
X176464308Y-69602380D02*
X176483356Y-69564285D01*
X176483356Y-69564285D02*
X176502403Y-69545237D01*
X176502403Y-69545237D02*
X176540499Y-69526190D01*
X176540499Y-69526190D02*
X176635737Y-69526190D01*
X176635737Y-69526190D02*
X176673832Y-69545237D01*
X176673832Y-69545237D02*
X176692880Y-69564285D01*
X176692880Y-69564285D02*
X176711927Y-69602380D01*
X176711927Y-69602380D02*
X176711927Y-69697618D01*
X176711927Y-69697618D02*
X176692880Y-69735713D01*
X176692880Y-69735713D02*
X176673832Y-69754761D01*
D10*
X199326666Y-79194819D02*
X198993333Y-78718628D01*
X198755238Y-79194819D02*
X198755238Y-78194819D01*
X198755238Y-78194819D02*
X199136190Y-78194819D01*
X199136190Y-78194819D02*
X199231428Y-78242438D01*
X199231428Y-78242438D02*
X199279047Y-78290057D01*
X199279047Y-78290057D02*
X199326666Y-78385295D01*
X199326666Y-78385295D02*
X199326666Y-78528152D01*
X199326666Y-78528152D02*
X199279047Y-78623390D01*
X199279047Y-78623390D02*
X199231428Y-78671009D01*
X199231428Y-78671009D02*
X199136190Y-78718628D01*
X199136190Y-78718628D02*
X198755238Y-78718628D01*
X199755238Y-78671009D02*
X200088571Y-78671009D01*
X200231428Y-79194819D02*
X199755238Y-79194819D01*
X199755238Y-79194819D02*
X199755238Y-78194819D01*
X199755238Y-78194819D02*
X200231428Y-78194819D01*
X200993333Y-78671009D02*
X200660000Y-78671009D01*
X200660000Y-79194819D02*
X200660000Y-78194819D01*
X200660000Y-78194819D02*
X201136190Y-78194819D01*
X201660000Y-78194819D02*
X201660000Y-78432914D01*
X201421905Y-78337676D02*
X201660000Y-78432914D01*
X201660000Y-78432914D02*
X201898095Y-78337676D01*
X201517143Y-78623390D02*
X201660000Y-78432914D01*
X201660000Y-78432914D02*
X201802857Y-78623390D01*
X202421905Y-78194819D02*
X202421905Y-78432914D01*
X202183810Y-78337676D02*
X202421905Y-78432914D01*
X202421905Y-78432914D02*
X202660000Y-78337676D01*
X202279048Y-78623390D02*
X202421905Y-78432914D01*
X202421905Y-78432914D02*
X202564762Y-78623390D01*
X180489580Y-35789524D02*
X180537200Y-35837143D01*
X180537200Y-35837143D02*
X180584819Y-35980000D01*
X180584819Y-35980000D02*
X180584819Y-36075238D01*
X180584819Y-36075238D02*
X180537200Y-36218095D01*
X180537200Y-36218095D02*
X180441961Y-36313333D01*
X180441961Y-36313333D02*
X180346723Y-36360952D01*
X180346723Y-36360952D02*
X180156247Y-36408571D01*
X180156247Y-36408571D02*
X180013390Y-36408571D01*
X180013390Y-36408571D02*
X179822914Y-36360952D01*
X179822914Y-36360952D02*
X179727676Y-36313333D01*
X179727676Y-36313333D02*
X179632438Y-36218095D01*
X179632438Y-36218095D02*
X179584819Y-36075238D01*
X179584819Y-36075238D02*
X179584819Y-35980000D01*
X179584819Y-35980000D02*
X179632438Y-35837143D01*
X179632438Y-35837143D02*
X179680057Y-35789524D01*
X180584819Y-35218095D02*
X180537200Y-35313333D01*
X180537200Y-35313333D02*
X180489580Y-35360952D01*
X180489580Y-35360952D02*
X180394342Y-35408571D01*
X180394342Y-35408571D02*
X180108628Y-35408571D01*
X180108628Y-35408571D02*
X180013390Y-35360952D01*
X180013390Y-35360952D02*
X179965771Y-35313333D01*
X179965771Y-35313333D02*
X179918152Y-35218095D01*
X179918152Y-35218095D02*
X179918152Y-35075238D01*
X179918152Y-35075238D02*
X179965771Y-34980000D01*
X179965771Y-34980000D02*
X180013390Y-34932381D01*
X180013390Y-34932381D02*
X180108628Y-34884762D01*
X180108628Y-34884762D02*
X180394342Y-34884762D01*
X180394342Y-34884762D02*
X180489580Y-34932381D01*
X180489580Y-34932381D02*
X180537200Y-34980000D01*
X180537200Y-34980000D02*
X180584819Y-35075238D01*
X180584819Y-35075238D02*
X180584819Y-35218095D01*
X179918152Y-34456190D02*
X180584819Y-34456190D01*
X180013390Y-34456190D02*
X179965771Y-34408571D01*
X179965771Y-34408571D02*
X179918152Y-34313333D01*
X179918152Y-34313333D02*
X179918152Y-34170476D01*
X179918152Y-34170476D02*
X179965771Y-34075238D01*
X179965771Y-34075238D02*
X180061009Y-34027619D01*
X180061009Y-34027619D02*
X180584819Y-34027619D01*
X179918152Y-33551428D02*
X180584819Y-33551428D01*
X180013390Y-33551428D02*
X179965771Y-33503809D01*
X179965771Y-33503809D02*
X179918152Y-33408571D01*
X179918152Y-33408571D02*
X179918152Y-33265714D01*
X179918152Y-33265714D02*
X179965771Y-33170476D01*
X179965771Y-33170476D02*
X180061009Y-33122857D01*
X180061009Y-33122857D02*
X180584819Y-33122857D01*
X180680057Y-32884762D02*
X180680057Y-32122857D01*
X179584819Y-31694285D02*
X179584819Y-31599047D01*
X179584819Y-31599047D02*
X179632438Y-31503809D01*
X179632438Y-31503809D02*
X179680057Y-31456190D01*
X179680057Y-31456190D02*
X179775295Y-31408571D01*
X179775295Y-31408571D02*
X179965771Y-31360952D01*
X179965771Y-31360952D02*
X180203866Y-31360952D01*
X180203866Y-31360952D02*
X180394342Y-31408571D01*
X180394342Y-31408571D02*
X180489580Y-31456190D01*
X180489580Y-31456190D02*
X180537200Y-31503809D01*
X180537200Y-31503809D02*
X180584819Y-31599047D01*
X180584819Y-31599047D02*
X180584819Y-31694285D01*
X180584819Y-31694285D02*
X180537200Y-31789523D01*
X180537200Y-31789523D02*
X180489580Y-31837142D01*
X180489580Y-31837142D02*
X180394342Y-31884761D01*
X180394342Y-31884761D02*
X180203866Y-31932380D01*
X180203866Y-31932380D02*
X179965771Y-31932380D01*
X179965771Y-31932380D02*
X179775295Y-31884761D01*
X179775295Y-31884761D02*
X179680057Y-31837142D01*
X179680057Y-31837142D02*
X179632438Y-31789523D01*
X179632438Y-31789523D02*
X179584819Y-31694285D01*
X180584819Y-30408571D02*
X180584819Y-30979999D01*
X180584819Y-30694285D02*
X179584819Y-30694285D01*
X179584819Y-30694285D02*
X179727676Y-30789523D01*
X179727676Y-30789523D02*
X179822914Y-30884761D01*
X179822914Y-30884761D02*
X179870533Y-30979999D01*
X180584819Y-30075237D02*
X179918152Y-29551428D01*
X179918152Y-30075237D02*
X180584819Y-29551428D01*
X179584819Y-28979999D02*
X179584819Y-28884761D01*
X179584819Y-28884761D02*
X179632438Y-28789523D01*
X179632438Y-28789523D02*
X179680057Y-28741904D01*
X179680057Y-28741904D02*
X179775295Y-28694285D01*
X179775295Y-28694285D02*
X179965771Y-28646666D01*
X179965771Y-28646666D02*
X180203866Y-28646666D01*
X180203866Y-28646666D02*
X180394342Y-28694285D01*
X180394342Y-28694285D02*
X180489580Y-28741904D01*
X180489580Y-28741904D02*
X180537200Y-28789523D01*
X180537200Y-28789523D02*
X180584819Y-28884761D01*
X180584819Y-28884761D02*
X180584819Y-28979999D01*
X180584819Y-28979999D02*
X180537200Y-29075237D01*
X180537200Y-29075237D02*
X180489580Y-29122856D01*
X180489580Y-29122856D02*
X180394342Y-29170475D01*
X180394342Y-29170475D02*
X180203866Y-29218094D01*
X180203866Y-29218094D02*
X179965771Y-29218094D01*
X179965771Y-29218094D02*
X179775295Y-29170475D01*
X179775295Y-29170475D02*
X179680057Y-29122856D01*
X179680057Y-29122856D02*
X179632438Y-29075237D01*
X179632438Y-29075237D02*
X179584819Y-28979999D01*
X179680057Y-28265713D02*
X179632438Y-28218094D01*
X179632438Y-28218094D02*
X179584819Y-28122856D01*
X179584819Y-28122856D02*
X179584819Y-27884761D01*
X179584819Y-27884761D02*
X179632438Y-27789523D01*
X179632438Y-27789523D02*
X179680057Y-27741904D01*
X179680057Y-27741904D02*
X179775295Y-27694285D01*
X179775295Y-27694285D02*
X179870533Y-27694285D01*
X179870533Y-27694285D02*
X180013390Y-27741904D01*
X180013390Y-27741904D02*
X180584819Y-28313332D01*
X180584819Y-28313332D02*
X180584819Y-27694285D01*
X180680057Y-27503809D02*
X180680057Y-26741904D01*
X180584819Y-26503808D02*
X179584819Y-26503808D01*
X179584819Y-26503808D02*
X179584819Y-26122856D01*
X179584819Y-26122856D02*
X179632438Y-26027618D01*
X179632438Y-26027618D02*
X179680057Y-25979999D01*
X179680057Y-25979999D02*
X179775295Y-25932380D01*
X179775295Y-25932380D02*
X179918152Y-25932380D01*
X179918152Y-25932380D02*
X180013390Y-25979999D01*
X180013390Y-25979999D02*
X180061009Y-26027618D01*
X180061009Y-26027618D02*
X180108628Y-26122856D01*
X180108628Y-26122856D02*
X180108628Y-26503808D01*
X180584819Y-25503808D02*
X179918152Y-25503808D01*
X179584819Y-25503808D02*
X179632438Y-25551427D01*
X179632438Y-25551427D02*
X179680057Y-25503808D01*
X179680057Y-25503808D02*
X179632438Y-25456189D01*
X179632438Y-25456189D02*
X179584819Y-25503808D01*
X179584819Y-25503808D02*
X179680057Y-25503808D01*
X179918152Y-25027618D02*
X180584819Y-25027618D01*
X180013390Y-25027618D02*
X179965771Y-24979999D01*
X179965771Y-24979999D02*
X179918152Y-24884761D01*
X179918152Y-24884761D02*
X179918152Y-24741904D01*
X179918152Y-24741904D02*
X179965771Y-24646666D01*
X179965771Y-24646666D02*
X180061009Y-24599047D01*
X180061009Y-24599047D02*
X180584819Y-24599047D01*
X175720476Y-29934819D02*
X175720476Y-30649104D01*
X175720476Y-30649104D02*
X175672857Y-30791961D01*
X175672857Y-30791961D02*
X175577619Y-30887200D01*
X175577619Y-30887200D02*
X175434762Y-30934819D01*
X175434762Y-30934819D02*
X175339524Y-30934819D01*
X176720476Y-30934819D02*
X176149048Y-30934819D01*
X176434762Y-30934819D02*
X176434762Y-29934819D01*
X176434762Y-29934819D02*
X176339524Y-30077676D01*
X176339524Y-30077676D02*
X176244286Y-30172914D01*
X176244286Y-30172914D02*
X176149048Y-30220533D01*
X177101429Y-30030057D02*
X177149048Y-29982438D01*
X177149048Y-29982438D02*
X177244286Y-29934819D01*
X177244286Y-29934819D02*
X177482381Y-29934819D01*
X177482381Y-29934819D02*
X177577619Y-29982438D01*
X177577619Y-29982438D02*
X177625238Y-30030057D01*
X177625238Y-30030057D02*
X177672857Y-30125295D01*
X177672857Y-30125295D02*
X177672857Y-30220533D01*
X177672857Y-30220533D02*
X177625238Y-30363390D01*
X177625238Y-30363390D02*
X177053810Y-30934819D01*
X177053810Y-30934819D02*
X177672857Y-30934819D01*
X158906819Y-68317618D02*
X157906819Y-68317618D01*
X157906819Y-68317618D02*
X157906819Y-67936666D01*
X157906819Y-67936666D02*
X157954438Y-67841428D01*
X157954438Y-67841428D02*
X158002057Y-67793809D01*
X158002057Y-67793809D02*
X158097295Y-67746190D01*
X158097295Y-67746190D02*
X158240152Y-67746190D01*
X158240152Y-67746190D02*
X158335390Y-67793809D01*
X158335390Y-67793809D02*
X158383009Y-67841428D01*
X158383009Y-67841428D02*
X158430628Y-67936666D01*
X158430628Y-67936666D02*
X158430628Y-68317618D01*
X158383009Y-67317618D02*
X158383009Y-66984285D01*
X158906819Y-66841428D02*
X158906819Y-67317618D01*
X158906819Y-67317618D02*
X157906819Y-67317618D01*
X157906819Y-67317618D02*
X157906819Y-66841428D01*
X158906819Y-65936666D02*
X158906819Y-66412856D01*
X158906819Y-66412856D02*
X157906819Y-66412856D01*
X157906819Y-65746189D02*
X157906819Y-65174761D01*
X158906819Y-65460475D02*
X157906819Y-65460475D01*
X158906819Y-64841427D02*
X157906819Y-64841427D01*
X158383009Y-64365237D02*
X158383009Y-64031904D01*
X158906819Y-63889047D02*
X158906819Y-64365237D01*
X158906819Y-64365237D02*
X157906819Y-64365237D01*
X157906819Y-64365237D02*
X157906819Y-63889047D01*
X158906819Y-62889047D02*
X158430628Y-63222380D01*
X158906819Y-63460475D02*
X157906819Y-63460475D01*
X157906819Y-63460475D02*
X157906819Y-63079523D01*
X157906819Y-63079523D02*
X157954438Y-62984285D01*
X157954438Y-62984285D02*
X158002057Y-62936666D01*
X158002057Y-62936666D02*
X158097295Y-62889047D01*
X158097295Y-62889047D02*
X158240152Y-62889047D01*
X158240152Y-62889047D02*
X158335390Y-62936666D01*
X158335390Y-62936666D02*
X158383009Y-62984285D01*
X158383009Y-62984285D02*
X158430628Y-63079523D01*
X158430628Y-63079523D02*
X158430628Y-63460475D01*
X159002057Y-62698571D02*
X159002057Y-61936666D01*
X158906819Y-61174761D02*
X158906819Y-61746189D01*
X158906819Y-61460475D02*
X157906819Y-61460475D01*
X157906819Y-61460475D02*
X158049676Y-61555713D01*
X158049676Y-61555713D02*
X158144914Y-61650951D01*
X158144914Y-61650951D02*
X158192533Y-61746189D01*
X161718666Y-64224819D02*
X161718666Y-64939104D01*
X161718666Y-64939104D02*
X161671047Y-65081961D01*
X161671047Y-65081961D02*
X161575809Y-65177200D01*
X161575809Y-65177200D02*
X161432952Y-65224819D01*
X161432952Y-65224819D02*
X161337714Y-65224819D01*
X162337714Y-64653390D02*
X162242476Y-64605771D01*
X162242476Y-64605771D02*
X162194857Y-64558152D01*
X162194857Y-64558152D02*
X162147238Y-64462914D01*
X162147238Y-64462914D02*
X162147238Y-64415295D01*
X162147238Y-64415295D02*
X162194857Y-64320057D01*
X162194857Y-64320057D02*
X162242476Y-64272438D01*
X162242476Y-64272438D02*
X162337714Y-64224819D01*
X162337714Y-64224819D02*
X162528190Y-64224819D01*
X162528190Y-64224819D02*
X162623428Y-64272438D01*
X162623428Y-64272438D02*
X162671047Y-64320057D01*
X162671047Y-64320057D02*
X162718666Y-64415295D01*
X162718666Y-64415295D02*
X162718666Y-64462914D01*
X162718666Y-64462914D02*
X162671047Y-64558152D01*
X162671047Y-64558152D02*
X162623428Y-64605771D01*
X162623428Y-64605771D02*
X162528190Y-64653390D01*
X162528190Y-64653390D02*
X162337714Y-64653390D01*
X162337714Y-64653390D02*
X162242476Y-64701009D01*
X162242476Y-64701009D02*
X162194857Y-64748628D01*
X162194857Y-64748628D02*
X162147238Y-64843866D01*
X162147238Y-64843866D02*
X162147238Y-65034342D01*
X162147238Y-65034342D02*
X162194857Y-65129580D01*
X162194857Y-65129580D02*
X162242476Y-65177200D01*
X162242476Y-65177200D02*
X162337714Y-65224819D01*
X162337714Y-65224819D02*
X162528190Y-65224819D01*
X162528190Y-65224819D02*
X162623428Y-65177200D01*
X162623428Y-65177200D02*
X162671047Y-65129580D01*
X162671047Y-65129580D02*
X162718666Y-65034342D01*
X162718666Y-65034342D02*
X162718666Y-64843866D01*
X162718666Y-64843866D02*
X162671047Y-64748628D01*
X162671047Y-64748628D02*
X162623428Y-64701009D01*
X162623428Y-64701009D02*
X162528190Y-64653390D01*
X161804819Y-82994047D02*
X161804819Y-82803571D01*
X161804819Y-82803571D02*
X161852438Y-82708333D01*
X161852438Y-82708333D02*
X161947676Y-82613095D01*
X161947676Y-82613095D02*
X162138152Y-82565476D01*
X162138152Y-82565476D02*
X162471485Y-82565476D01*
X162471485Y-82565476D02*
X162661961Y-82613095D01*
X162661961Y-82613095D02*
X162757200Y-82708333D01*
X162757200Y-82708333D02*
X162804819Y-82803571D01*
X162804819Y-82803571D02*
X162804819Y-82994047D01*
X162804819Y-82994047D02*
X162757200Y-83089285D01*
X162757200Y-83089285D02*
X162661961Y-83184523D01*
X162661961Y-83184523D02*
X162471485Y-83232142D01*
X162471485Y-83232142D02*
X162138152Y-83232142D01*
X162138152Y-83232142D02*
X161947676Y-83184523D01*
X161947676Y-83184523D02*
X161852438Y-83089285D01*
X161852438Y-83089285D02*
X161804819Y-82994047D01*
X161804819Y-82136904D02*
X162614342Y-82136904D01*
X162614342Y-82136904D02*
X162709580Y-82089285D01*
X162709580Y-82089285D02*
X162757200Y-82041666D01*
X162757200Y-82041666D02*
X162804819Y-81946428D01*
X162804819Y-81946428D02*
X162804819Y-81755952D01*
X162804819Y-81755952D02*
X162757200Y-81660714D01*
X162757200Y-81660714D02*
X162709580Y-81613095D01*
X162709580Y-81613095D02*
X162614342Y-81565476D01*
X162614342Y-81565476D02*
X161804819Y-81565476D01*
X161804819Y-81232142D02*
X161804819Y-80660714D01*
X162804819Y-80946428D02*
X161804819Y-80946428D01*
X162900057Y-80565476D02*
X162900057Y-79803571D01*
X162281009Y-79232142D02*
X162281009Y-79565475D01*
X162804819Y-79565475D02*
X161804819Y-79565475D01*
X161804819Y-79565475D02*
X161804819Y-79089285D01*
X162519104Y-78755951D02*
X162519104Y-78279761D01*
X162804819Y-78851189D02*
X161804819Y-78517856D01*
X161804819Y-78517856D02*
X162804819Y-78184523D01*
X162804819Y-77851189D02*
X161804819Y-77851189D01*
X161804819Y-77851189D02*
X162804819Y-77279761D01*
X162804819Y-77279761D02*
X161804819Y-77279761D01*
X162900057Y-77041666D02*
X162900057Y-76279761D01*
X162804819Y-75517856D02*
X162804819Y-76089284D01*
X162804819Y-75803570D02*
X161804819Y-75803570D01*
X161804819Y-75803570D02*
X161947676Y-75898808D01*
X161947676Y-75898808D02*
X162042914Y-75994046D01*
X162042914Y-75994046D02*
X162090533Y-76089284D01*
X155876666Y-78829819D02*
X155876666Y-79544104D01*
X155876666Y-79544104D02*
X155829047Y-79686961D01*
X155829047Y-79686961D02*
X155733809Y-79782200D01*
X155733809Y-79782200D02*
X155590952Y-79829819D01*
X155590952Y-79829819D02*
X155495714Y-79829819D01*
X156257619Y-78829819D02*
X156876666Y-78829819D01*
X156876666Y-78829819D02*
X156543333Y-79210771D01*
X156543333Y-79210771D02*
X156686190Y-79210771D01*
X156686190Y-79210771D02*
X156781428Y-79258390D01*
X156781428Y-79258390D02*
X156829047Y-79306009D01*
X156829047Y-79306009D02*
X156876666Y-79401247D01*
X156876666Y-79401247D02*
X156876666Y-79639342D01*
X156876666Y-79639342D02*
X156829047Y-79734580D01*
X156829047Y-79734580D02*
X156781428Y-79782200D01*
X156781428Y-79782200D02*
X156686190Y-79829819D01*
X156686190Y-79829819D02*
X156400476Y-79829819D01*
X156400476Y-79829819D02*
X156305238Y-79782200D01*
X156305238Y-79782200D02*
X156257619Y-79734580D01*
X143124819Y-63031618D02*
X143124819Y-62936380D01*
X143124819Y-62936380D02*
X143172438Y-62841142D01*
X143172438Y-62841142D02*
X143220057Y-62793523D01*
X143220057Y-62793523D02*
X143315295Y-62745904D01*
X143315295Y-62745904D02*
X143505771Y-62698285D01*
X143505771Y-62698285D02*
X143743866Y-62698285D01*
X143743866Y-62698285D02*
X143934342Y-62745904D01*
X143934342Y-62745904D02*
X144029580Y-62793523D01*
X144029580Y-62793523D02*
X144077200Y-62841142D01*
X144077200Y-62841142D02*
X144124819Y-62936380D01*
X144124819Y-62936380D02*
X144124819Y-63031618D01*
X144124819Y-63031618D02*
X144077200Y-63126856D01*
X144077200Y-63126856D02*
X144029580Y-63174475D01*
X144029580Y-63174475D02*
X143934342Y-63222094D01*
X143934342Y-63222094D02*
X143743866Y-63269713D01*
X143743866Y-63269713D02*
X143505771Y-63269713D01*
X143505771Y-63269713D02*
X143315295Y-63222094D01*
X143315295Y-63222094D02*
X143220057Y-63174475D01*
X143220057Y-63174475D02*
X143172438Y-63126856D01*
X143172438Y-63126856D02*
X143124819Y-63031618D01*
X144124819Y-61698285D02*
X143648628Y-62031618D01*
X144124819Y-62269713D02*
X143124819Y-62269713D01*
X143124819Y-62269713D02*
X143124819Y-61888761D01*
X143124819Y-61888761D02*
X143172438Y-61793523D01*
X143172438Y-61793523D02*
X143220057Y-61745904D01*
X143220057Y-61745904D02*
X143315295Y-61698285D01*
X143315295Y-61698285D02*
X143458152Y-61698285D01*
X143458152Y-61698285D02*
X143553390Y-61745904D01*
X143553390Y-61745904D02*
X143601009Y-61793523D01*
X143601009Y-61793523D02*
X143648628Y-61888761D01*
X143648628Y-61888761D02*
X143648628Y-62269713D01*
D11*
X142421927Y-62550666D02*
X142231451Y-62683999D01*
X142421927Y-62779237D02*
X142021927Y-62779237D01*
X142021927Y-62779237D02*
X142021927Y-62626856D01*
X142021927Y-62626856D02*
X142040975Y-62588761D01*
X142040975Y-62588761D02*
X142060022Y-62569714D01*
X142060022Y-62569714D02*
X142098118Y-62550666D01*
X142098118Y-62550666D02*
X142155260Y-62550666D01*
X142155260Y-62550666D02*
X142193356Y-62569714D01*
X142193356Y-62569714D02*
X142212403Y-62588761D01*
X142212403Y-62588761D02*
X142231451Y-62626856D01*
X142231451Y-62626856D02*
X142231451Y-62779237D01*
X142421927Y-62360190D02*
X142421927Y-62283999D01*
X142421927Y-62283999D02*
X142402880Y-62245904D01*
X142402880Y-62245904D02*
X142383832Y-62226856D01*
X142383832Y-62226856D02*
X142326689Y-62188761D01*
X142326689Y-62188761D02*
X142250499Y-62169714D01*
X142250499Y-62169714D02*
X142098118Y-62169714D01*
X142098118Y-62169714D02*
X142060022Y-62188761D01*
X142060022Y-62188761D02*
X142040975Y-62207809D01*
X142040975Y-62207809D02*
X142021927Y-62245904D01*
X142021927Y-62245904D02*
X142021927Y-62322095D01*
X142021927Y-62322095D02*
X142040975Y-62360190D01*
X142040975Y-62360190D02*
X142060022Y-62379237D01*
X142060022Y-62379237D02*
X142098118Y-62398285D01*
X142098118Y-62398285D02*
X142193356Y-62398285D01*
X142193356Y-62398285D02*
X142231451Y-62379237D01*
X142231451Y-62379237D02*
X142250499Y-62360190D01*
X142250499Y-62360190D02*
X142269546Y-62322095D01*
X142269546Y-62322095D02*
X142269546Y-62245904D01*
X142269546Y-62245904D02*
X142250499Y-62207809D01*
X142250499Y-62207809D02*
X142231451Y-62188761D01*
X142231451Y-62188761D02*
X142193356Y-62169714D01*
D10*
X155824819Y-63031618D02*
X155824819Y-62936380D01*
X155824819Y-62936380D02*
X155872438Y-62841142D01*
X155872438Y-62841142D02*
X155920057Y-62793523D01*
X155920057Y-62793523D02*
X156015295Y-62745904D01*
X156015295Y-62745904D02*
X156205771Y-62698285D01*
X156205771Y-62698285D02*
X156443866Y-62698285D01*
X156443866Y-62698285D02*
X156634342Y-62745904D01*
X156634342Y-62745904D02*
X156729580Y-62793523D01*
X156729580Y-62793523D02*
X156777200Y-62841142D01*
X156777200Y-62841142D02*
X156824819Y-62936380D01*
X156824819Y-62936380D02*
X156824819Y-63031618D01*
X156824819Y-63031618D02*
X156777200Y-63126856D01*
X156777200Y-63126856D02*
X156729580Y-63174475D01*
X156729580Y-63174475D02*
X156634342Y-63222094D01*
X156634342Y-63222094D02*
X156443866Y-63269713D01*
X156443866Y-63269713D02*
X156205771Y-63269713D01*
X156205771Y-63269713D02*
X156015295Y-63222094D01*
X156015295Y-63222094D02*
X155920057Y-63174475D01*
X155920057Y-63174475D02*
X155872438Y-63126856D01*
X155872438Y-63126856D02*
X155824819Y-63031618D01*
X156824819Y-61698285D02*
X156348628Y-62031618D01*
X156824819Y-62269713D02*
X155824819Y-62269713D01*
X155824819Y-62269713D02*
X155824819Y-61888761D01*
X155824819Y-61888761D02*
X155872438Y-61793523D01*
X155872438Y-61793523D02*
X155920057Y-61745904D01*
X155920057Y-61745904D02*
X156015295Y-61698285D01*
X156015295Y-61698285D02*
X156158152Y-61698285D01*
X156158152Y-61698285D02*
X156253390Y-61745904D01*
X156253390Y-61745904D02*
X156301009Y-61793523D01*
X156301009Y-61793523D02*
X156348628Y-61888761D01*
X156348628Y-61888761D02*
X156348628Y-62269713D01*
D11*
X155121927Y-62550666D02*
X154931451Y-62683999D01*
X155121927Y-62779237D02*
X154721927Y-62779237D01*
X154721927Y-62779237D02*
X154721927Y-62626856D01*
X154721927Y-62626856D02*
X154740975Y-62588761D01*
X154740975Y-62588761D02*
X154760022Y-62569714D01*
X154760022Y-62569714D02*
X154798118Y-62550666D01*
X154798118Y-62550666D02*
X154855260Y-62550666D01*
X154855260Y-62550666D02*
X154893356Y-62569714D01*
X154893356Y-62569714D02*
X154912403Y-62588761D01*
X154912403Y-62588761D02*
X154931451Y-62626856D01*
X154931451Y-62626856D02*
X154931451Y-62779237D01*
X154721927Y-62417333D02*
X154721927Y-62150666D01*
X154721927Y-62150666D02*
X155121927Y-62322095D01*
D10*
X132324819Y-74262856D02*
X131324819Y-74262856D01*
X132324819Y-73786666D02*
X131324819Y-73786666D01*
X131324819Y-73786666D02*
X132324819Y-73215238D01*
X132324819Y-73215238D02*
X131324819Y-73215238D01*
X132420057Y-72977143D02*
X132420057Y-72215238D01*
X131801009Y-71643809D02*
X131801009Y-71977142D01*
X132324819Y-71977142D02*
X131324819Y-71977142D01*
X131324819Y-71977142D02*
X131324819Y-71500952D01*
X132039104Y-71167618D02*
X132039104Y-70691428D01*
X132324819Y-71262856D02*
X131324819Y-70929523D01*
X131324819Y-70929523D02*
X132324819Y-70596190D01*
X132324819Y-70262856D02*
X131324819Y-70262856D01*
X131324819Y-70262856D02*
X132324819Y-69691428D01*
X132324819Y-69691428D02*
X131324819Y-69691428D01*
X132420057Y-69453333D02*
X132420057Y-68691428D01*
X131420057Y-68500951D02*
X131372438Y-68453332D01*
X131372438Y-68453332D02*
X131324819Y-68358094D01*
X131324819Y-68358094D02*
X131324819Y-68119999D01*
X131324819Y-68119999D02*
X131372438Y-68024761D01*
X131372438Y-68024761D02*
X131420057Y-67977142D01*
X131420057Y-67977142D02*
X131515295Y-67929523D01*
X131515295Y-67929523D02*
X131610533Y-67929523D01*
X131610533Y-67929523D02*
X131753390Y-67977142D01*
X131753390Y-67977142D02*
X132324819Y-68548570D01*
X132324819Y-68548570D02*
X132324819Y-67929523D01*
X125396666Y-70574819D02*
X125396666Y-71289104D01*
X125396666Y-71289104D02*
X125349047Y-71431961D01*
X125349047Y-71431961D02*
X125253809Y-71527200D01*
X125253809Y-71527200D02*
X125110952Y-71574819D01*
X125110952Y-71574819D02*
X125015714Y-71574819D01*
X126301428Y-70574819D02*
X126110952Y-70574819D01*
X126110952Y-70574819D02*
X126015714Y-70622438D01*
X126015714Y-70622438D02*
X125968095Y-70670057D01*
X125968095Y-70670057D02*
X125872857Y-70812914D01*
X125872857Y-70812914D02*
X125825238Y-71003390D01*
X125825238Y-71003390D02*
X125825238Y-71384342D01*
X125825238Y-71384342D02*
X125872857Y-71479580D01*
X125872857Y-71479580D02*
X125920476Y-71527200D01*
X125920476Y-71527200D02*
X126015714Y-71574819D01*
X126015714Y-71574819D02*
X126206190Y-71574819D01*
X126206190Y-71574819D02*
X126301428Y-71527200D01*
X126301428Y-71527200D02*
X126349047Y-71479580D01*
X126349047Y-71479580D02*
X126396666Y-71384342D01*
X126396666Y-71384342D02*
X126396666Y-71146247D01*
X126396666Y-71146247D02*
X126349047Y-71051009D01*
X126349047Y-71051009D02*
X126301428Y-71003390D01*
X126301428Y-71003390D02*
X126206190Y-70955771D01*
X126206190Y-70955771D02*
X126015714Y-70955771D01*
X126015714Y-70955771D02*
X125920476Y-71003390D01*
X125920476Y-71003390D02*
X125872857Y-71051009D01*
X125872857Y-71051009D02*
X125825238Y-71146247D01*
D13*
%TO.C,R8*%
X151987500Y-61684000D02*
X152812500Y-61684000D01*
X151987500Y-63284000D02*
X151987500Y-61684000D01*
X152812500Y-61684000D02*
X152812500Y-63284000D01*
X152812500Y-63284000D02*
X151987500Y-63284000D01*
%TO.C,R1*%
X136576000Y-64795000D02*
X139776000Y-64795000D01*
X136576000Y-67285000D02*
X136576000Y-64795000D01*
X139776000Y-64795000D02*
X139776000Y-67285000D01*
X139776000Y-67285000D02*
X136576000Y-67285000D01*
%TO.C,Q6*%
X118580000Y-64990000D02*
X118980000Y-64590000D01*
X118580000Y-67490000D02*
X118580000Y-64990000D01*
X118980000Y-64590000D02*
X120180000Y-64590000D01*
X120180000Y-64590000D02*
X120180000Y-67490000D01*
X120180000Y-67490000D02*
X118580000Y-67490000D01*
%TO.C,Q2*%
X175080000Y-73495000D02*
X177980000Y-73495000D01*
X175080000Y-74695000D02*
X175080000Y-73495000D01*
X175480000Y-75095000D02*
X175080000Y-74695000D01*
X177980000Y-73495000D02*
X177980000Y-75095000D01*
X177980000Y-75095000D02*
X175480000Y-75095000D01*
%TO.C,J10*%
X111760000Y-62230000D02*
X114300000Y-62230000D01*
X111760000Y-72390000D02*
X111760000Y-62230000D01*
X113665000Y-72390000D02*
X111760000Y-72390000D01*
X114300000Y-62230000D02*
X114300000Y-71755000D01*
X114300000Y-71755000D02*
X113665000Y-72390000D01*
%TO.C,J2*%
X125730000Y-57785000D02*
X126365000Y-57150000D01*
X125730000Y-59690000D02*
X125730000Y-57785000D01*
X126365000Y-57150000D02*
X166370000Y-57150000D01*
X166370000Y-57150000D02*
X166370000Y-59690000D01*
X166370000Y-59690000D02*
X125730000Y-59690000D01*
%TO.C,J4*%
X167640000Y-78105000D02*
X177800000Y-78105000D01*
X167640000Y-80010000D02*
X167640000Y-78105000D01*
X168275000Y-80645000D02*
X167640000Y-80010000D01*
X177800000Y-78105000D02*
X177800000Y-80645000D01*
X177800000Y-80645000D02*
X168275000Y-80645000D01*
%TO.C,R6*%
X157067500Y-61684000D02*
X157892500Y-61684000D01*
X157067500Y-63284000D02*
X157067500Y-61684000D01*
X157892500Y-61684000D02*
X157892500Y-63284000D01*
X157892500Y-63284000D02*
X157067500Y-63284000D01*
%TO.C,R5*%
X149955500Y-61684000D02*
X150780500Y-61684000D01*
X149955500Y-63284000D02*
X149955500Y-61684000D01*
X150780500Y-61684000D02*
X150780500Y-63284000D01*
X150780500Y-63284000D02*
X149955500Y-63284000D01*
%TO.C,R4*%
X148044000Y-32861500D02*
X149644000Y-32861500D01*
X148044000Y-33686500D02*
X148044000Y-32861500D01*
X149644000Y-32861500D02*
X149644000Y-33686500D01*
X149644000Y-33686500D02*
X148044000Y-33686500D01*
%TO.C,R11*%
X146907500Y-61811000D02*
X147732500Y-61811000D01*
X146907500Y-63411000D02*
X146907500Y-61811000D01*
X147732500Y-61811000D02*
X147732500Y-63411000D01*
X147732500Y-63411000D02*
X146907500Y-63411000D01*
%TO.C,Q7*%
X118580000Y-59510000D02*
X120180000Y-59510000D01*
X118580000Y-62410000D02*
X118580000Y-59510000D01*
X119780000Y-62410000D02*
X118580000Y-62410000D01*
X120180000Y-59510000D02*
X120180000Y-62010000D01*
X120180000Y-62010000D02*
X119780000Y-62410000D01*
%TO.C,R3*%
X148044000Y-34639500D02*
X149644000Y-34639500D01*
X148044000Y-35464500D02*
X148044000Y-34639500D01*
X149644000Y-34639500D02*
X149644000Y-35464500D01*
X149644000Y-35464500D02*
X148044000Y-35464500D01*
%TO.C,J13*%
X191600000Y-25240000D02*
X191600000Y-76840000D01*
X191600000Y-26940000D02*
X193014214Y-27940000D01*
X191600000Y-76840000D02*
X204400000Y-76840000D01*
X193014214Y-27940000D02*
X191600000Y-28940000D01*
X204400000Y-25240000D02*
X191600000Y-25240000D01*
X204400000Y-76840000D02*
X204400000Y-25240000D01*
%TO.C,J5*%
X135890000Y-69850000D02*
X146050000Y-69850000D01*
X135890000Y-71755000D02*
X135890000Y-69850000D01*
X136525000Y-72390000D02*
X135890000Y-71755000D01*
X146050000Y-69850000D02*
X146050000Y-72390000D01*
X146050000Y-72390000D02*
X136525000Y-72390000D01*
%TO.C,Q3*%
X118580000Y-54430000D02*
X120180000Y-54430000D01*
X118580000Y-57330000D02*
X118580000Y-54430000D01*
X119780000Y-57330000D02*
X118580000Y-57330000D01*
X120180000Y-54430000D02*
X120180000Y-56930000D01*
X120180000Y-56930000D02*
X119780000Y-57330000D01*
%TO.C,R2*%
X124130000Y-64795000D02*
X127330000Y-64795000D01*
X124130000Y-67285000D02*
X124130000Y-64795000D01*
X127330000Y-64795000D02*
X127330000Y-67285000D01*
X127330000Y-67285000D02*
X124130000Y-67285000D01*
%TO.C,R10*%
X144367500Y-61811000D02*
X145192500Y-61811000D01*
X144367500Y-63411000D02*
X144367500Y-61811000D01*
X145192500Y-61811000D02*
X145192500Y-63411000D01*
X145192500Y-63411000D02*
X144367500Y-63411000D01*
%TO.C,J9*%
X172720000Y-63500000D02*
X177165000Y-63500000D01*
X172720000Y-66040000D02*
X172720000Y-63500000D01*
X177165000Y-63500000D02*
X177800000Y-64135000D01*
X177800000Y-64135000D02*
X177800000Y-66040000D01*
X177800000Y-66040000D02*
X172720000Y-66040000D01*
%TO.C,J1*%
X135890000Y-37465000D02*
X136525000Y-36830000D01*
X135890000Y-39370000D02*
X135890000Y-37465000D01*
X136525000Y-36830000D02*
X166370000Y-36830000D01*
X166370000Y-36830000D02*
X166370000Y-39370000D01*
X166370000Y-39370000D02*
X135890000Y-39370000D01*
%TO.C,Q1*%
X158570000Y-73495000D02*
X161470000Y-73495000D01*
X158570000Y-74695000D02*
X158570000Y-73495000D01*
X158970000Y-75095000D02*
X158570000Y-74695000D01*
X161470000Y-73495000D02*
X161470000Y-75095000D01*
X161470000Y-75095000D02*
X158970000Y-75095000D01*
%TO.C,Q4*%
X158570000Y-69050000D02*
X161470000Y-69050000D01*
X158570000Y-70250000D02*
X158570000Y-69050000D01*
X158970000Y-70650000D02*
X158570000Y-70250000D01*
X161470000Y-69050000D02*
X161470000Y-70650000D01*
X161470000Y-70650000D02*
X158970000Y-70650000D01*
%TO.C,J11*%
X146050000Y-26670000D02*
X171450000Y-26670000D01*
X146050000Y-30480000D02*
X146050000Y-26670000D01*
X147320000Y-31750000D02*
X146050000Y-30480000D01*
X171450000Y-26670000D02*
X171450000Y-31750000D01*
X171450000Y-31750000D02*
X147320000Y-31750000D01*
%TO.C,Q5*%
X175080000Y-69050000D02*
X177980000Y-69050000D01*
X175080000Y-70250000D02*
X175080000Y-69050000D01*
X175480000Y-70650000D02*
X175080000Y-70250000D01*
X177980000Y-69050000D02*
X177980000Y-70650000D01*
X177980000Y-70650000D02*
X175480000Y-70650000D01*
%TO.C,J12*%
X173990000Y-29210000D02*
X179070000Y-29210000D01*
X173990000Y-31115000D02*
X173990000Y-29210000D01*
X174625000Y-31750000D02*
X173990000Y-31115000D01*
X179070000Y-29210000D02*
X179070000Y-31750000D01*
X179070000Y-31750000D02*
X174625000Y-31750000D01*
%TO.C,J8*%
X159512000Y-63500000D02*
X163957000Y-63500000D01*
X159512000Y-66040000D02*
X159512000Y-63500000D01*
X163957000Y-63500000D02*
X164592000Y-64135000D01*
X164592000Y-64135000D02*
X164592000Y-66040000D01*
X164592000Y-66040000D02*
X159512000Y-66040000D01*
%TO.C,J3*%
X151130000Y-78105000D02*
X161290000Y-78105000D01*
X151130000Y-80010000D02*
X151130000Y-78105000D01*
X151765000Y-80645000D02*
X151130000Y-80010000D01*
X161290000Y-78105000D02*
X161290000Y-80645000D01*
X161290000Y-80645000D02*
X151765000Y-80645000D01*
%TO.C,R9*%
X141827500Y-61684000D02*
X142652500Y-61684000D01*
X141827500Y-63284000D02*
X141827500Y-61684000D01*
X142652500Y-61684000D02*
X142652500Y-63284000D01*
X142652500Y-63284000D02*
X141827500Y-63284000D01*
%TO.C,R7*%
X154527500Y-61684000D02*
X155352500Y-61684000D01*
X154527500Y-63284000D02*
X154527500Y-61684000D01*
X155352500Y-61684000D02*
X155352500Y-63284000D01*
X155352500Y-63284000D02*
X154527500Y-63284000D01*
%TO.C,J6*%
X120650000Y-69850000D02*
X130810000Y-69850000D01*
X120650000Y-71755000D02*
X120650000Y-69850000D01*
X121285000Y-72390000D02*
X120650000Y-71755000D01*
X130810000Y-69850000D02*
X130810000Y-72390000D01*
X130810000Y-72390000D02*
X121285000Y-72390000D01*
%TD*%
M02*
