%TF.GenerationSoftware,KiCad,Pcbnew,8.0.2-1*%
%TF.CreationDate,2024-11-16T15:05:09-05:00*%
%TF.ProjectId,Incubator-PowerBoard,496e6375-6261-4746-9f72-2d506f776572,v01a*%
%TF.SameCoordinates,Original*%
%TF.FileFunction,Soldermask,Top*%
%TF.FilePolarity,Negative*%
%FSLAX46Y46*%
G04 Gerber Fmt 4.6, Leading zero omitted, Abs format (unit mm)*
G04 Created by KiCad (PCBNEW 8.0.2-1) date 2024-11-16 15:05:09*
%MOMM*%
%LPD*%
G01*
G04 APERTURE LIST*
G04 Aperture macros list*
%AMRoundRect*
0 Rectangle with rounded corners*
0 $1 Rounding radius*
0 $2 $3 $4 $5 $6 $7 $8 $9 X,Y pos of 4 corners*
0 Add a 4 corners polygon primitive as box body*
4,1,4,$2,$3,$4,$5,$6,$7,$8,$9,$2,$3,0*
0 Add four circle primitives for the rounded corners*
1,1,$1+$1,$2,$3*
1,1,$1+$1,$4,$5*
1,1,$1+$1,$6,$7*
1,1,$1+$1,$8,$9*
0 Add four rect primitives between the rounded corners*
20,1,$1+$1,$2,$3,$4,$5,0*
20,1,$1+$1,$4,$5,$6,$7,0*
20,1,$1+$1,$6,$7,$8,$9,0*
20,1,$1+$1,$8,$9,$2,$3,0*%
G04 Aperture macros list end*
%ADD10RoundRect,0.200000X0.275000X-0.200000X0.275000X0.200000X-0.275000X0.200000X-0.275000X-0.200000X0*%
%ADD11C,4.000000*%
%ADD12RoundRect,0.250000X-0.312500X-1.075000X0.312500X-1.075000X0.312500X1.075000X-0.312500X1.075000X0*%
%ADD13RoundRect,0.150000X-0.512500X-0.150000X0.512500X-0.150000X0.512500X0.150000X-0.512500X0.150000X0*%
%ADD14RoundRect,0.150000X0.150000X-0.512500X0.150000X0.512500X-0.150000X0.512500X-0.150000X-0.512500X0*%
%ADD15R,1.700000X1.700000*%
%ADD16O,1.700000X1.700000*%
%ADD17RoundRect,0.200000X0.200000X0.275000X-0.200000X0.275000X-0.200000X-0.275000X0.200000X-0.275000X0*%
%ADD18RoundRect,0.150000X0.512500X0.150000X-0.512500X0.150000X-0.512500X-0.150000X0.512500X-0.150000X0*%
%ADD19RoundRect,0.250001X-1.599999X1.099999X-1.599999X-1.099999X1.599999X-1.099999X1.599999X1.099999X0*%
%ADD20O,3.700000X2.700000*%
%ADD21RoundRect,0.250000X0.312500X1.075000X-0.312500X1.075000X-0.312500X-1.075000X0.312500X-1.075000X0*%
G04 APERTURE END LIST*
D10*
%TO.C,R8*%
X152400000Y-63309000D03*
X152400000Y-61659000D03*
%TD*%
D11*
%TO.C,REF\u002A\u002A*%
X200660000Y-27940000D03*
%TD*%
D12*
%TO.C,R1*%
X136713500Y-66040000D03*
X139638500Y-66040000D03*
%TD*%
D13*
%TO.C,Q6*%
X118242500Y-65090000D03*
X118242500Y-66040000D03*
X118242500Y-66990000D03*
X120517500Y-66990000D03*
X120517500Y-66040000D03*
X120517500Y-65090000D03*
%TD*%
D14*
%TO.C,Q2*%
X175580000Y-75432500D03*
X176530000Y-75432500D03*
X177480000Y-75432500D03*
X177480000Y-73157500D03*
X176530000Y-73157500D03*
X175580000Y-73157500D03*
%TD*%
D11*
%TO.C,REF\u002A\u002A*%
X114300000Y-27940000D03*
%TD*%
D15*
%TO.C,J10*%
X113030000Y-71120000D03*
D16*
X113030000Y-68580000D03*
X113030000Y-66040000D03*
X113030000Y-63500000D03*
%TD*%
D15*
%TO.C,J2*%
X127000000Y-58420000D03*
D16*
X129540000Y-58420000D03*
X132080000Y-58420000D03*
X134620000Y-58420000D03*
X137160000Y-58420000D03*
X139700000Y-58420000D03*
X142240000Y-58420000D03*
X144780000Y-58420000D03*
X147320000Y-58420000D03*
X149860000Y-58420000D03*
X152400000Y-58420000D03*
X154940000Y-58420000D03*
X157480000Y-58420000D03*
X160020000Y-58420000D03*
X162560000Y-58420000D03*
X165100000Y-58420000D03*
%TD*%
D15*
%TO.C,J4*%
X168910000Y-79375000D03*
D16*
X171450000Y-79375000D03*
X173990000Y-79375000D03*
X176530000Y-79375000D03*
%TD*%
D10*
%TO.C,R6*%
X157480000Y-63309000D03*
X157480000Y-61659000D03*
%TD*%
%TO.C,R5*%
X150368000Y-63309000D03*
X150368000Y-61659000D03*
%TD*%
D11*
%TO.C,REF\u002A\u002A*%
X114300000Y-78740000D03*
%TD*%
D17*
%TO.C,R4*%
X149669000Y-33274000D03*
X148019000Y-33274000D03*
%TD*%
D10*
%TO.C,R11*%
X147320000Y-63436000D03*
X147320000Y-61786000D03*
%TD*%
D18*
%TO.C,Q7*%
X120517500Y-61910000D03*
X120517500Y-60960000D03*
X120517500Y-60010000D03*
X118242500Y-60010000D03*
X118242500Y-60960000D03*
X118242500Y-61910000D03*
%TD*%
D17*
%TO.C,R3*%
X149669000Y-35052000D03*
X148019000Y-35052000D03*
%TD*%
D19*
%TO.C,J13*%
X190500000Y-27940000D03*
D20*
X190500000Y-32140000D03*
X190500000Y-36340000D03*
X190500000Y-40540000D03*
X190500000Y-44740000D03*
X190500000Y-48940000D03*
X190500000Y-53140000D03*
X190500000Y-57340000D03*
X190500000Y-61540000D03*
X190500000Y-65740000D03*
X190500000Y-69940000D03*
X190500000Y-74140000D03*
X185000000Y-27940000D03*
X185000000Y-32140000D03*
X185000000Y-36340000D03*
X185000000Y-40540000D03*
X185000000Y-44740000D03*
X185000000Y-48940000D03*
X185000000Y-53140000D03*
X185000000Y-57340000D03*
X185000000Y-61540000D03*
X185000000Y-65740000D03*
X185000000Y-69940000D03*
X185000000Y-74140000D03*
%TD*%
D15*
%TO.C,J5*%
X137160000Y-71120000D03*
D16*
X139700000Y-71120000D03*
X142240000Y-71120000D03*
X144780000Y-71120000D03*
%TD*%
D18*
%TO.C,Q3*%
X120517500Y-56830000D03*
X120517500Y-55880000D03*
X120517500Y-54930000D03*
X118242500Y-54930000D03*
X118242500Y-55880000D03*
X118242500Y-56830000D03*
%TD*%
D21*
%TO.C,R2*%
X127192500Y-66040000D03*
X124267500Y-66040000D03*
%TD*%
D10*
%TO.C,R10*%
X144780000Y-63436000D03*
X144780000Y-61786000D03*
%TD*%
D15*
%TO.C,J9*%
X176530000Y-64770000D03*
D16*
X173990000Y-64770000D03*
%TD*%
D15*
%TO.C,J1*%
X137160000Y-38100000D03*
D16*
X139700000Y-38100000D03*
X142240000Y-38100000D03*
X144780000Y-38100000D03*
X147320000Y-38100000D03*
X149860000Y-38100000D03*
X152400000Y-38100000D03*
X154940000Y-38100000D03*
X157480000Y-38100000D03*
X160020000Y-38100000D03*
X162560000Y-38100000D03*
X165100000Y-38100000D03*
%TD*%
D14*
%TO.C,Q1*%
X159070000Y-75432500D03*
X160020000Y-75432500D03*
X160970000Y-75432500D03*
X160970000Y-73157500D03*
X160020000Y-73157500D03*
X159070000Y-73157500D03*
%TD*%
%TO.C,Q4*%
X159070000Y-70987500D03*
X160020000Y-70987500D03*
X160970000Y-70987500D03*
X160970000Y-68712500D03*
X160020000Y-68712500D03*
X159070000Y-68712500D03*
%TD*%
D15*
%TO.C,J11*%
X147320000Y-30480000D03*
D16*
X147320000Y-27940000D03*
X149860000Y-30480000D03*
X149860000Y-27940000D03*
X152400000Y-30480000D03*
X152400000Y-27940000D03*
X154940000Y-30480000D03*
X154940000Y-27940000D03*
X157480000Y-30480000D03*
X157480000Y-27940000D03*
X160020000Y-30480000D03*
X160020000Y-27940000D03*
X162560000Y-30480000D03*
X162560000Y-27940000D03*
X165100000Y-30480000D03*
X165100000Y-27940000D03*
X167640000Y-30480000D03*
X167640000Y-27940000D03*
X170180000Y-30480000D03*
X170180000Y-27940000D03*
%TD*%
D14*
%TO.C,Q5*%
X175580000Y-70987500D03*
X176530000Y-70987500D03*
X177480000Y-70987500D03*
X177480000Y-68712500D03*
X176530000Y-68712500D03*
X175580000Y-68712500D03*
%TD*%
D11*
%TO.C,REF\u002A\u002A*%
X200660000Y-78740000D03*
%TD*%
D15*
%TO.C,J12*%
X175260000Y-30480000D03*
D16*
X177800000Y-30480000D03*
%TD*%
D15*
%TO.C,J8*%
X163322000Y-64770000D03*
D16*
X160782000Y-64770000D03*
%TD*%
D15*
%TO.C,J3*%
X152400000Y-79375000D03*
D16*
X154940000Y-79375000D03*
X157480000Y-79375000D03*
X160020000Y-79375000D03*
%TD*%
D10*
%TO.C,R9*%
X142240000Y-63309000D03*
X142240000Y-61659000D03*
%TD*%
%TO.C,R7*%
X154940000Y-63309000D03*
X154940000Y-61659000D03*
%TD*%
D15*
%TO.C,J6*%
X121920000Y-71120000D03*
D16*
X124460000Y-71120000D03*
X127000000Y-71120000D03*
X129540000Y-71120000D03*
%TD*%
M02*
