%TF.GenerationSoftware,KiCad,Pcbnew,8.0.2-1*%
%TF.CreationDate,2024-11-16T15:05:08-05:00*%
%TF.ProjectId,Incubator-PowerBoard,496e6375-6261-4746-9f72-2d506f776572,v01a*%
%TF.SameCoordinates,Original*%
%TF.FileFunction,Legend,Top*%
%TF.FilePolarity,Positive*%
%FSLAX46Y46*%
G04 Gerber Fmt 4.6, Leading zero omitted, Abs format (unit mm)*
G04 Created by KiCad (PCBNEW 8.0.2-1) date 2024-11-16 15:05:08*
%MOMM*%
%LPD*%
G01*
G04 APERTURE LIST*
G04 Aperture macros list*
%AMRoundRect*
0 Rectangle with rounded corners*
0 $1 Rounding radius*
0 $2 $3 $4 $5 $6 $7 $8 $9 X,Y pos of 4 corners*
0 Add a 4 corners polygon primitive as box body*
4,1,4,$2,$3,$4,$5,$6,$7,$8,$9,$2,$3,0*
0 Add four circle primitives for the rounded corners*
1,1,$1+$1,$2,$3*
1,1,$1+$1,$4,$5*
1,1,$1+$1,$6,$7*
1,1,$1+$1,$8,$9*
0 Add four rect primitives between the rounded corners*
20,1,$1+$1,$2,$3,$4,$5,0*
20,1,$1+$1,$4,$5,$6,$7,0*
20,1,$1+$1,$6,$7,$8,$9,0*
20,1,$1+$1,$8,$9,$2,$3,0*%
G04 Aperture macros list end*
%ADD10C,0.150000*%
%ADD11C,0.120000*%
%ADD12RoundRect,0.200000X0.275000X-0.200000X0.275000X0.200000X-0.275000X0.200000X-0.275000X-0.200000X0*%
%ADD13C,4.000000*%
%ADD14RoundRect,0.250000X-0.312500X-1.075000X0.312500X-1.075000X0.312500X1.075000X-0.312500X1.075000X0*%
%ADD15RoundRect,0.150000X-0.512500X-0.150000X0.512500X-0.150000X0.512500X0.150000X-0.512500X0.150000X0*%
%ADD16RoundRect,0.150000X0.150000X-0.512500X0.150000X0.512500X-0.150000X0.512500X-0.150000X-0.512500X0*%
%ADD17R,1.700000X1.700000*%
%ADD18O,1.700000X1.700000*%
%ADD19RoundRect,0.200000X0.200000X0.275000X-0.200000X0.275000X-0.200000X-0.275000X0.200000X-0.275000X0*%
%ADD20RoundRect,0.150000X0.512500X0.150000X-0.512500X0.150000X-0.512500X-0.150000X0.512500X-0.150000X0*%
%ADD21RoundRect,0.250001X-1.599999X1.099999X-1.599999X-1.099999X1.599999X-1.099999X1.599999X1.099999X0*%
%ADD22O,3.700000X2.700000*%
%ADD23RoundRect,0.250000X0.312500X1.075000X-0.312500X1.075000X-0.312500X-1.075000X0.312500X-1.075000X0*%
G04 APERTURE END LIST*
D10*
X146528164Y-34320970D02*
X146528164Y-33856684D01*
X146528164Y-33856684D02*
X146813878Y-34106684D01*
X146813878Y-34106684D02*
X146813878Y-33999541D01*
X146813878Y-33999541D02*
X146849592Y-33928113D01*
X146849592Y-33928113D02*
X146885307Y-33892398D01*
X146885307Y-33892398D02*
X146956735Y-33856684D01*
X146956735Y-33856684D02*
X147135307Y-33856684D01*
X147135307Y-33856684D02*
X147206735Y-33892398D01*
X147206735Y-33892398D02*
X147242450Y-33928113D01*
X147242450Y-33928113D02*
X147278164Y-33999541D01*
X147278164Y-33999541D02*
X147278164Y-34213827D01*
X147278164Y-34213827D02*
X147242450Y-34285255D01*
X147242450Y-34285255D02*
X147206735Y-34320970D01*
X146528164Y-33642398D02*
X147278164Y-33392398D01*
X147278164Y-33392398D02*
X146528164Y-33142398D01*
X146528164Y-32963827D02*
X146528164Y-32499541D01*
X146528164Y-32499541D02*
X146813878Y-32749541D01*
X146813878Y-32749541D02*
X146813878Y-32642398D01*
X146813878Y-32642398D02*
X146849592Y-32570970D01*
X146849592Y-32570970D02*
X146885307Y-32535255D01*
X146885307Y-32535255D02*
X146956735Y-32499541D01*
X146956735Y-32499541D02*
X147135307Y-32499541D01*
X147135307Y-32499541D02*
X147206735Y-32535255D01*
X147206735Y-32535255D02*
X147242450Y-32570970D01*
X147242450Y-32570970D02*
X147278164Y-32642398D01*
X147278164Y-32642398D02*
X147278164Y-32856684D01*
X147278164Y-32856684D02*
X147242450Y-32928112D01*
X147242450Y-32928112D02*
X147206735Y-32963827D01*
X160359164Y-33586826D02*
X159609164Y-33586826D01*
X159609164Y-33586826D02*
X160359164Y-33158255D01*
X160359164Y-33158255D02*
X159609164Y-33158255D01*
X160287735Y-32372541D02*
X160323450Y-32408255D01*
X160323450Y-32408255D02*
X160359164Y-32515398D01*
X160359164Y-32515398D02*
X160359164Y-32586826D01*
X160359164Y-32586826D02*
X160323450Y-32693969D01*
X160323450Y-32693969D02*
X160252021Y-32765398D01*
X160252021Y-32765398D02*
X160180592Y-32801112D01*
X160180592Y-32801112D02*
X160037735Y-32836826D01*
X160037735Y-32836826D02*
X159930592Y-32836826D01*
X159930592Y-32836826D02*
X159787735Y-32801112D01*
X159787735Y-32801112D02*
X159716307Y-32765398D01*
X159716307Y-32765398D02*
X159644878Y-32693969D01*
X159644878Y-32693969D02*
X159609164Y-32586826D01*
X159609164Y-32586826D02*
X159609164Y-32515398D01*
X159609164Y-32515398D02*
X159644878Y-32408255D01*
X159644878Y-32408255D02*
X159680592Y-32372541D01*
X170519164Y-26011744D02*
X169769164Y-26011744D01*
X169769164Y-26011744D02*
X170519164Y-25583173D01*
X170519164Y-25583173D02*
X169769164Y-25583173D01*
X170447735Y-24797459D02*
X170483450Y-24833173D01*
X170483450Y-24833173D02*
X170519164Y-24940316D01*
X170519164Y-24940316D02*
X170519164Y-25011744D01*
X170519164Y-25011744D02*
X170483450Y-25118887D01*
X170483450Y-25118887D02*
X170412021Y-25190316D01*
X170412021Y-25190316D02*
X170340592Y-25226030D01*
X170340592Y-25226030D02*
X170197735Y-25261744D01*
X170197735Y-25261744D02*
X170090592Y-25261744D01*
X170090592Y-25261744D02*
X169947735Y-25226030D01*
X169947735Y-25226030D02*
X169876307Y-25190316D01*
X169876307Y-25190316D02*
X169804878Y-25118887D01*
X169804878Y-25118887D02*
X169769164Y-25011744D01*
X169769164Y-25011744D02*
X169769164Y-24940316D01*
X169769164Y-24940316D02*
X169804878Y-24833173D01*
X169804878Y-24833173D02*
X169840592Y-24797459D01*
X167979164Y-26011744D02*
X167229164Y-26011744D01*
X167229164Y-26011744D02*
X167979164Y-25583173D01*
X167979164Y-25583173D02*
X167229164Y-25583173D01*
X167907735Y-24797459D02*
X167943450Y-24833173D01*
X167943450Y-24833173D02*
X167979164Y-24940316D01*
X167979164Y-24940316D02*
X167979164Y-25011744D01*
X167979164Y-25011744D02*
X167943450Y-25118887D01*
X167943450Y-25118887D02*
X167872021Y-25190316D01*
X167872021Y-25190316D02*
X167800592Y-25226030D01*
X167800592Y-25226030D02*
X167657735Y-25261744D01*
X167657735Y-25261744D02*
X167550592Y-25261744D01*
X167550592Y-25261744D02*
X167407735Y-25226030D01*
X167407735Y-25226030D02*
X167336307Y-25190316D01*
X167336307Y-25190316D02*
X167264878Y-25118887D01*
X167264878Y-25118887D02*
X167229164Y-25011744D01*
X167229164Y-25011744D02*
X167229164Y-24940316D01*
X167229164Y-24940316D02*
X167264878Y-24833173D01*
X167264878Y-24833173D02*
X167300592Y-24797459D01*
X165439164Y-26011744D02*
X164689164Y-26011744D01*
X164689164Y-26011744D02*
X165439164Y-25583173D01*
X165439164Y-25583173D02*
X164689164Y-25583173D01*
X165367735Y-24797459D02*
X165403450Y-24833173D01*
X165403450Y-24833173D02*
X165439164Y-24940316D01*
X165439164Y-24940316D02*
X165439164Y-25011744D01*
X165439164Y-25011744D02*
X165403450Y-25118887D01*
X165403450Y-25118887D02*
X165332021Y-25190316D01*
X165332021Y-25190316D02*
X165260592Y-25226030D01*
X165260592Y-25226030D02*
X165117735Y-25261744D01*
X165117735Y-25261744D02*
X165010592Y-25261744D01*
X165010592Y-25261744D02*
X164867735Y-25226030D01*
X164867735Y-25226030D02*
X164796307Y-25190316D01*
X164796307Y-25190316D02*
X164724878Y-25118887D01*
X164724878Y-25118887D02*
X164689164Y-25011744D01*
X164689164Y-25011744D02*
X164689164Y-24940316D01*
X164689164Y-24940316D02*
X164724878Y-24833173D01*
X164724878Y-24833173D02*
X164760592Y-24797459D01*
X162899164Y-26011744D02*
X162149164Y-26011744D01*
X162149164Y-26011744D02*
X162684878Y-25761744D01*
X162684878Y-25761744D02*
X162149164Y-25511744D01*
X162149164Y-25511744D02*
X162899164Y-25511744D01*
X162899164Y-25154601D02*
X162149164Y-25154601D01*
X162863450Y-24833172D02*
X162899164Y-24726030D01*
X162899164Y-24726030D02*
X162899164Y-24547458D01*
X162899164Y-24547458D02*
X162863450Y-24476030D01*
X162863450Y-24476030D02*
X162827735Y-24440315D01*
X162827735Y-24440315D02*
X162756307Y-24404601D01*
X162756307Y-24404601D02*
X162684878Y-24404601D01*
X162684878Y-24404601D02*
X162613450Y-24440315D01*
X162613450Y-24440315D02*
X162577735Y-24476030D01*
X162577735Y-24476030D02*
X162542021Y-24547458D01*
X162542021Y-24547458D02*
X162506307Y-24690315D01*
X162506307Y-24690315D02*
X162470592Y-24761744D01*
X162470592Y-24761744D02*
X162434878Y-24797458D01*
X162434878Y-24797458D02*
X162363450Y-24833172D01*
X162363450Y-24833172D02*
X162292021Y-24833172D01*
X162292021Y-24833172D02*
X162220592Y-24797458D01*
X162220592Y-24797458D02*
X162184878Y-24761744D01*
X162184878Y-24761744D02*
X162149164Y-24690315D01*
X162149164Y-24690315D02*
X162149164Y-24511744D01*
X162149164Y-24511744D02*
X162184878Y-24404601D01*
X162149164Y-23940315D02*
X162149164Y-23797458D01*
X162149164Y-23797458D02*
X162184878Y-23726029D01*
X162184878Y-23726029D02*
X162256307Y-23654601D01*
X162256307Y-23654601D02*
X162399164Y-23618886D01*
X162399164Y-23618886D02*
X162649164Y-23618886D01*
X162649164Y-23618886D02*
X162792021Y-23654601D01*
X162792021Y-23654601D02*
X162863450Y-23726029D01*
X162863450Y-23726029D02*
X162899164Y-23797458D01*
X162899164Y-23797458D02*
X162899164Y-23940315D01*
X162899164Y-23940315D02*
X162863450Y-24011744D01*
X162863450Y-24011744D02*
X162792021Y-24083172D01*
X162792021Y-24083172D02*
X162649164Y-24118886D01*
X162649164Y-24118886D02*
X162399164Y-24118886D01*
X162399164Y-24118886D02*
X162256307Y-24083172D01*
X162256307Y-24083172D02*
X162184878Y-24011744D01*
X162184878Y-24011744D02*
X162149164Y-23940315D01*
X160359164Y-26011744D02*
X159609164Y-26011744D01*
X159609164Y-26011744D02*
X160144878Y-25761744D01*
X160144878Y-25761744D02*
X159609164Y-25511744D01*
X159609164Y-25511744D02*
X160359164Y-25511744D01*
X159609164Y-25011744D02*
X159609164Y-24868887D01*
X159609164Y-24868887D02*
X159644878Y-24797458D01*
X159644878Y-24797458D02*
X159716307Y-24726030D01*
X159716307Y-24726030D02*
X159859164Y-24690315D01*
X159859164Y-24690315D02*
X160109164Y-24690315D01*
X160109164Y-24690315D02*
X160252021Y-24726030D01*
X160252021Y-24726030D02*
X160323450Y-24797458D01*
X160323450Y-24797458D02*
X160359164Y-24868887D01*
X160359164Y-24868887D02*
X160359164Y-25011744D01*
X160359164Y-25011744D02*
X160323450Y-25083173D01*
X160323450Y-25083173D02*
X160252021Y-25154601D01*
X160252021Y-25154601D02*
X160109164Y-25190315D01*
X160109164Y-25190315D02*
X159859164Y-25190315D01*
X159859164Y-25190315D02*
X159716307Y-25154601D01*
X159716307Y-25154601D02*
X159644878Y-25083173D01*
X159644878Y-25083173D02*
X159609164Y-25011744D01*
X160323450Y-24404601D02*
X160359164Y-24297459D01*
X160359164Y-24297459D02*
X160359164Y-24118887D01*
X160359164Y-24118887D02*
X160323450Y-24047459D01*
X160323450Y-24047459D02*
X160287735Y-24011744D01*
X160287735Y-24011744D02*
X160216307Y-23976030D01*
X160216307Y-23976030D02*
X160144878Y-23976030D01*
X160144878Y-23976030D02*
X160073450Y-24011744D01*
X160073450Y-24011744D02*
X160037735Y-24047459D01*
X160037735Y-24047459D02*
X160002021Y-24118887D01*
X160002021Y-24118887D02*
X159966307Y-24261744D01*
X159966307Y-24261744D02*
X159930592Y-24333173D01*
X159930592Y-24333173D02*
X159894878Y-24368887D01*
X159894878Y-24368887D02*
X159823450Y-24404601D01*
X159823450Y-24404601D02*
X159752021Y-24404601D01*
X159752021Y-24404601D02*
X159680592Y-24368887D01*
X159680592Y-24368887D02*
X159644878Y-24333173D01*
X159644878Y-24333173D02*
X159609164Y-24261744D01*
X159609164Y-24261744D02*
X159609164Y-24083173D01*
X159609164Y-24083173D02*
X159644878Y-23976030D01*
X160359164Y-23654601D02*
X159609164Y-23654601D01*
X157783450Y-26047458D02*
X157819164Y-25940316D01*
X157819164Y-25940316D02*
X157819164Y-25761744D01*
X157819164Y-25761744D02*
X157783450Y-25690316D01*
X157783450Y-25690316D02*
X157747735Y-25654601D01*
X157747735Y-25654601D02*
X157676307Y-25618887D01*
X157676307Y-25618887D02*
X157604878Y-25618887D01*
X157604878Y-25618887D02*
X157533450Y-25654601D01*
X157533450Y-25654601D02*
X157497735Y-25690316D01*
X157497735Y-25690316D02*
X157462021Y-25761744D01*
X157462021Y-25761744D02*
X157426307Y-25904601D01*
X157426307Y-25904601D02*
X157390592Y-25976030D01*
X157390592Y-25976030D02*
X157354878Y-26011744D01*
X157354878Y-26011744D02*
X157283450Y-26047458D01*
X157283450Y-26047458D02*
X157212021Y-26047458D01*
X157212021Y-26047458D02*
X157140592Y-26011744D01*
X157140592Y-26011744D02*
X157104878Y-25976030D01*
X157104878Y-25976030D02*
X157069164Y-25904601D01*
X157069164Y-25904601D02*
X157069164Y-25726030D01*
X157069164Y-25726030D02*
X157104878Y-25618887D01*
X157747735Y-24868887D02*
X157783450Y-24904601D01*
X157783450Y-24904601D02*
X157819164Y-25011744D01*
X157819164Y-25011744D02*
X157819164Y-25083172D01*
X157819164Y-25083172D02*
X157783450Y-25190315D01*
X157783450Y-25190315D02*
X157712021Y-25261744D01*
X157712021Y-25261744D02*
X157640592Y-25297458D01*
X157640592Y-25297458D02*
X157497735Y-25333172D01*
X157497735Y-25333172D02*
X157390592Y-25333172D01*
X157390592Y-25333172D02*
X157247735Y-25297458D01*
X157247735Y-25297458D02*
X157176307Y-25261744D01*
X157176307Y-25261744D02*
X157104878Y-25190315D01*
X157104878Y-25190315D02*
X157069164Y-25083172D01*
X157069164Y-25083172D02*
X157069164Y-25011744D01*
X157069164Y-25011744D02*
X157104878Y-24904601D01*
X157104878Y-24904601D02*
X157140592Y-24868887D01*
X157819164Y-24547458D02*
X157069164Y-24547458D01*
X157819164Y-24118887D02*
X157390592Y-24440315D01*
X157069164Y-24118887D02*
X157497735Y-24547458D01*
X155279164Y-26011744D02*
X154529164Y-26011744D01*
X154529164Y-26011744D02*
X154529164Y-25833173D01*
X154529164Y-25833173D02*
X154564878Y-25726030D01*
X154564878Y-25726030D02*
X154636307Y-25654601D01*
X154636307Y-25654601D02*
X154707735Y-25618887D01*
X154707735Y-25618887D02*
X154850592Y-25583173D01*
X154850592Y-25583173D02*
X154957735Y-25583173D01*
X154957735Y-25583173D02*
X155100592Y-25618887D01*
X155100592Y-25618887D02*
X155172021Y-25654601D01*
X155172021Y-25654601D02*
X155243450Y-25726030D01*
X155243450Y-25726030D02*
X155279164Y-25833173D01*
X155279164Y-25833173D02*
X155279164Y-26011744D01*
X155279164Y-24868887D02*
X155279164Y-25297458D01*
X155279164Y-25083173D02*
X154529164Y-25083173D01*
X154529164Y-25083173D02*
X154636307Y-25154601D01*
X154636307Y-25154601D02*
X154707735Y-25226030D01*
X154707735Y-25226030D02*
X154743450Y-25297458D01*
X154529164Y-24618887D02*
X154529164Y-24154601D01*
X154529164Y-24154601D02*
X154814878Y-24404601D01*
X154814878Y-24404601D02*
X154814878Y-24297458D01*
X154814878Y-24297458D02*
X154850592Y-24226030D01*
X154850592Y-24226030D02*
X154886307Y-24190315D01*
X154886307Y-24190315D02*
X154957735Y-24154601D01*
X154957735Y-24154601D02*
X155136307Y-24154601D01*
X155136307Y-24154601D02*
X155207735Y-24190315D01*
X155207735Y-24190315D02*
X155243450Y-24226030D01*
X155243450Y-24226030D02*
X155279164Y-24297458D01*
X155279164Y-24297458D02*
X155279164Y-24511744D01*
X155279164Y-24511744D02*
X155243450Y-24583172D01*
X155243450Y-24583172D02*
X155207735Y-24618887D01*
X152739164Y-26011744D02*
X151989164Y-26011744D01*
X151989164Y-26011744D02*
X151989164Y-25833173D01*
X151989164Y-25833173D02*
X152024878Y-25726030D01*
X152024878Y-25726030D02*
X152096307Y-25654601D01*
X152096307Y-25654601D02*
X152167735Y-25618887D01*
X152167735Y-25618887D02*
X152310592Y-25583173D01*
X152310592Y-25583173D02*
X152417735Y-25583173D01*
X152417735Y-25583173D02*
X152560592Y-25618887D01*
X152560592Y-25618887D02*
X152632021Y-25654601D01*
X152632021Y-25654601D02*
X152703450Y-25726030D01*
X152703450Y-25726030D02*
X152739164Y-25833173D01*
X152739164Y-25833173D02*
X152739164Y-26011744D01*
X152739164Y-24868887D02*
X152739164Y-25297458D01*
X152739164Y-25083173D02*
X151989164Y-25083173D01*
X151989164Y-25083173D02*
X152096307Y-25154601D01*
X152096307Y-25154601D02*
X152167735Y-25226030D01*
X152167735Y-25226030D02*
X152203450Y-25297458D01*
X151989164Y-24618887D02*
X151989164Y-24154601D01*
X151989164Y-24154601D02*
X152274878Y-24404601D01*
X152274878Y-24404601D02*
X152274878Y-24297458D01*
X152274878Y-24297458D02*
X152310592Y-24226030D01*
X152310592Y-24226030D02*
X152346307Y-24190315D01*
X152346307Y-24190315D02*
X152417735Y-24154601D01*
X152417735Y-24154601D02*
X152596307Y-24154601D01*
X152596307Y-24154601D02*
X152667735Y-24190315D01*
X152667735Y-24190315D02*
X152703450Y-24226030D01*
X152703450Y-24226030D02*
X152739164Y-24297458D01*
X152739164Y-24297458D02*
X152739164Y-24511744D01*
X152739164Y-24511744D02*
X152703450Y-24583172D01*
X152703450Y-24583172D02*
X152667735Y-24618887D01*
X149984878Y-26047458D02*
X149984878Y-25690316D01*
X150199164Y-26118887D02*
X149449164Y-25868887D01*
X149449164Y-25868887D02*
X150199164Y-25618887D01*
X150199164Y-24976030D02*
X150199164Y-25404601D01*
X150199164Y-25190316D02*
X149449164Y-25190316D01*
X149449164Y-25190316D02*
X149556307Y-25261744D01*
X149556307Y-25261744D02*
X149627735Y-25333173D01*
X149627735Y-25333173D02*
X149663450Y-25404601D01*
X147444878Y-26047458D02*
X147444878Y-25690316D01*
X147659164Y-26118887D02*
X146909164Y-25868887D01*
X146909164Y-25868887D02*
X147659164Y-25618887D01*
X146909164Y-25226030D02*
X146909164Y-25154601D01*
X146909164Y-25154601D02*
X146944878Y-25083173D01*
X146944878Y-25083173D02*
X146980592Y-25047459D01*
X146980592Y-25047459D02*
X147052021Y-25011744D01*
X147052021Y-25011744D02*
X147194878Y-24976030D01*
X147194878Y-24976030D02*
X147373450Y-24976030D01*
X147373450Y-24976030D02*
X147516307Y-25011744D01*
X147516307Y-25011744D02*
X147587735Y-25047459D01*
X147587735Y-25047459D02*
X147623450Y-25083173D01*
X147623450Y-25083173D02*
X147659164Y-25154601D01*
X147659164Y-25154601D02*
X147659164Y-25226030D01*
X147659164Y-25226030D02*
X147623450Y-25297459D01*
X147623450Y-25297459D02*
X147587735Y-25333173D01*
X147587735Y-25333173D02*
X147516307Y-25368887D01*
X147516307Y-25368887D02*
X147373450Y-25404601D01*
X147373450Y-25404601D02*
X147194878Y-25404601D01*
X147194878Y-25404601D02*
X147052021Y-25368887D01*
X147052021Y-25368887D02*
X146980592Y-25333173D01*
X146980592Y-25333173D02*
X146944878Y-25297459D01*
X146944878Y-25297459D02*
X146909164Y-25226030D01*
X157426307Y-33265398D02*
X157462021Y-33158255D01*
X157462021Y-33158255D02*
X157497735Y-33122541D01*
X157497735Y-33122541D02*
X157569164Y-33086827D01*
X157569164Y-33086827D02*
X157676307Y-33086827D01*
X157676307Y-33086827D02*
X157747735Y-33122541D01*
X157747735Y-33122541D02*
X157783450Y-33158255D01*
X157783450Y-33158255D02*
X157819164Y-33229684D01*
X157819164Y-33229684D02*
X157819164Y-33515398D01*
X157819164Y-33515398D02*
X157069164Y-33515398D01*
X157069164Y-33515398D02*
X157069164Y-33265398D01*
X157069164Y-33265398D02*
X157104878Y-33193970D01*
X157104878Y-33193970D02*
X157140592Y-33158255D01*
X157140592Y-33158255D02*
X157212021Y-33122541D01*
X157212021Y-33122541D02*
X157283450Y-33122541D01*
X157283450Y-33122541D02*
X157354878Y-33158255D01*
X157354878Y-33158255D02*
X157390592Y-33193970D01*
X157390592Y-33193970D02*
X157426307Y-33265398D01*
X157426307Y-33265398D02*
X157426307Y-33515398D01*
X157069164Y-32836827D02*
X157069164Y-32372541D01*
X157069164Y-32372541D02*
X157354878Y-32622541D01*
X157354878Y-32622541D02*
X157354878Y-32515398D01*
X157354878Y-32515398D02*
X157390592Y-32443970D01*
X157390592Y-32443970D02*
X157426307Y-32408255D01*
X157426307Y-32408255D02*
X157497735Y-32372541D01*
X157497735Y-32372541D02*
X157676307Y-32372541D01*
X157676307Y-32372541D02*
X157747735Y-32408255D01*
X157747735Y-32408255D02*
X157783450Y-32443970D01*
X157783450Y-32443970D02*
X157819164Y-32515398D01*
X157819164Y-32515398D02*
X157819164Y-32729684D01*
X157819164Y-32729684D02*
X157783450Y-32801112D01*
X157783450Y-32801112D02*
X157747735Y-32836827D01*
X154886307Y-33265398D02*
X154922021Y-33158255D01*
X154922021Y-33158255D02*
X154957735Y-33122541D01*
X154957735Y-33122541D02*
X155029164Y-33086827D01*
X155029164Y-33086827D02*
X155136307Y-33086827D01*
X155136307Y-33086827D02*
X155207735Y-33122541D01*
X155207735Y-33122541D02*
X155243450Y-33158255D01*
X155243450Y-33158255D02*
X155279164Y-33229684D01*
X155279164Y-33229684D02*
X155279164Y-33515398D01*
X155279164Y-33515398D02*
X154529164Y-33515398D01*
X154529164Y-33515398D02*
X154529164Y-33265398D01*
X154529164Y-33265398D02*
X154564878Y-33193970D01*
X154564878Y-33193970D02*
X154600592Y-33158255D01*
X154600592Y-33158255D02*
X154672021Y-33122541D01*
X154672021Y-33122541D02*
X154743450Y-33122541D01*
X154743450Y-33122541D02*
X154814878Y-33158255D01*
X154814878Y-33158255D02*
X154850592Y-33193970D01*
X154850592Y-33193970D02*
X154886307Y-33265398D01*
X154886307Y-33265398D02*
X154886307Y-33515398D01*
X154600592Y-32801112D02*
X154564878Y-32765398D01*
X154564878Y-32765398D02*
X154529164Y-32693970D01*
X154529164Y-32693970D02*
X154529164Y-32515398D01*
X154529164Y-32515398D02*
X154564878Y-32443970D01*
X154564878Y-32443970D02*
X154600592Y-32408255D01*
X154600592Y-32408255D02*
X154672021Y-32372541D01*
X154672021Y-32372541D02*
X154743450Y-32372541D01*
X154743450Y-32372541D02*
X154850592Y-32408255D01*
X154850592Y-32408255D02*
X155279164Y-32836827D01*
X155279164Y-32836827D02*
X155279164Y-32372541D01*
X152346307Y-33265398D02*
X152382021Y-33158255D01*
X152382021Y-33158255D02*
X152417735Y-33122541D01*
X152417735Y-33122541D02*
X152489164Y-33086827D01*
X152489164Y-33086827D02*
X152596307Y-33086827D01*
X152596307Y-33086827D02*
X152667735Y-33122541D01*
X152667735Y-33122541D02*
X152703450Y-33158255D01*
X152703450Y-33158255D02*
X152739164Y-33229684D01*
X152739164Y-33229684D02*
X152739164Y-33515398D01*
X152739164Y-33515398D02*
X151989164Y-33515398D01*
X151989164Y-33515398D02*
X151989164Y-33265398D01*
X151989164Y-33265398D02*
X152024878Y-33193970D01*
X152024878Y-33193970D02*
X152060592Y-33158255D01*
X152060592Y-33158255D02*
X152132021Y-33122541D01*
X152132021Y-33122541D02*
X152203450Y-33122541D01*
X152203450Y-33122541D02*
X152274878Y-33158255D01*
X152274878Y-33158255D02*
X152310592Y-33193970D01*
X152310592Y-33193970D02*
X152346307Y-33265398D01*
X152346307Y-33265398D02*
X152346307Y-33515398D01*
X152739164Y-32372541D02*
X152739164Y-32801112D01*
X152739164Y-32586827D02*
X151989164Y-32586827D01*
X151989164Y-32586827D02*
X152096307Y-32658255D01*
X152096307Y-32658255D02*
X152167735Y-32729684D01*
X152167735Y-32729684D02*
X152203450Y-32801112D01*
X169804878Y-33943969D02*
X169769164Y-34015398D01*
X169769164Y-34015398D02*
X169769164Y-34122540D01*
X169769164Y-34122540D02*
X169804878Y-34229683D01*
X169804878Y-34229683D02*
X169876307Y-34301112D01*
X169876307Y-34301112D02*
X169947735Y-34336826D01*
X169947735Y-34336826D02*
X170090592Y-34372540D01*
X170090592Y-34372540D02*
X170197735Y-34372540D01*
X170197735Y-34372540D02*
X170340592Y-34336826D01*
X170340592Y-34336826D02*
X170412021Y-34301112D01*
X170412021Y-34301112D02*
X170483450Y-34229683D01*
X170483450Y-34229683D02*
X170519164Y-34122540D01*
X170519164Y-34122540D02*
X170519164Y-34051112D01*
X170519164Y-34051112D02*
X170483450Y-33943969D01*
X170483450Y-33943969D02*
X170447735Y-33908255D01*
X170447735Y-33908255D02*
X170197735Y-33908255D01*
X170197735Y-33908255D02*
X170197735Y-34051112D01*
X170519164Y-33586826D02*
X169769164Y-33586826D01*
X169769164Y-33586826D02*
X170519164Y-33158255D01*
X170519164Y-33158255D02*
X169769164Y-33158255D01*
X170519164Y-32801112D02*
X169769164Y-32801112D01*
X169769164Y-32801112D02*
X169769164Y-32622541D01*
X169769164Y-32622541D02*
X169804878Y-32515398D01*
X169804878Y-32515398D02*
X169876307Y-32443969D01*
X169876307Y-32443969D02*
X169947735Y-32408255D01*
X169947735Y-32408255D02*
X170090592Y-32372541D01*
X170090592Y-32372541D02*
X170197735Y-32372541D01*
X170197735Y-32372541D02*
X170340592Y-32408255D01*
X170340592Y-32408255D02*
X170412021Y-32443969D01*
X170412021Y-32443969D02*
X170483450Y-32515398D01*
X170483450Y-32515398D02*
X170519164Y-32622541D01*
X170519164Y-32622541D02*
X170519164Y-32801112D01*
X167229164Y-33051112D02*
X167229164Y-33408255D01*
X167229164Y-33408255D02*
X167586307Y-33443969D01*
X167586307Y-33443969D02*
X167550592Y-33408255D01*
X167550592Y-33408255D02*
X167514878Y-33336827D01*
X167514878Y-33336827D02*
X167514878Y-33158255D01*
X167514878Y-33158255D02*
X167550592Y-33086827D01*
X167550592Y-33086827D02*
X167586307Y-33051112D01*
X167586307Y-33051112D02*
X167657735Y-33015398D01*
X167657735Y-33015398D02*
X167836307Y-33015398D01*
X167836307Y-33015398D02*
X167907735Y-33051112D01*
X167907735Y-33051112D02*
X167943450Y-33086827D01*
X167943450Y-33086827D02*
X167979164Y-33158255D01*
X167979164Y-33158255D02*
X167979164Y-33336827D01*
X167979164Y-33336827D02*
X167943450Y-33408255D01*
X167943450Y-33408255D02*
X167907735Y-33443969D01*
X167229164Y-32801112D02*
X167979164Y-32551112D01*
X167979164Y-32551112D02*
X167229164Y-32301112D01*
X165403450Y-34158255D02*
X165439164Y-34051113D01*
X165439164Y-34051113D02*
X165439164Y-33872541D01*
X165439164Y-33872541D02*
X165403450Y-33801113D01*
X165403450Y-33801113D02*
X165367735Y-33765398D01*
X165367735Y-33765398D02*
X165296307Y-33729684D01*
X165296307Y-33729684D02*
X165224878Y-33729684D01*
X165224878Y-33729684D02*
X165153450Y-33765398D01*
X165153450Y-33765398D02*
X165117735Y-33801113D01*
X165117735Y-33801113D02*
X165082021Y-33872541D01*
X165082021Y-33872541D02*
X165046307Y-34015398D01*
X165046307Y-34015398D02*
X165010592Y-34086827D01*
X165010592Y-34086827D02*
X164974878Y-34122541D01*
X164974878Y-34122541D02*
X164903450Y-34158255D01*
X164903450Y-34158255D02*
X164832021Y-34158255D01*
X164832021Y-34158255D02*
X164760592Y-34122541D01*
X164760592Y-34122541D02*
X164724878Y-34086827D01*
X164724878Y-34086827D02*
X164689164Y-34015398D01*
X164689164Y-34015398D02*
X164689164Y-33836827D01*
X164689164Y-33836827D02*
X164724878Y-33729684D01*
X165367735Y-32979684D02*
X165403450Y-33015398D01*
X165403450Y-33015398D02*
X165439164Y-33122541D01*
X165439164Y-33122541D02*
X165439164Y-33193969D01*
X165439164Y-33193969D02*
X165403450Y-33301112D01*
X165403450Y-33301112D02*
X165332021Y-33372541D01*
X165332021Y-33372541D02*
X165260592Y-33408255D01*
X165260592Y-33408255D02*
X165117735Y-33443969D01*
X165117735Y-33443969D02*
X165010592Y-33443969D01*
X165010592Y-33443969D02*
X164867735Y-33408255D01*
X164867735Y-33408255D02*
X164796307Y-33372541D01*
X164796307Y-33372541D02*
X164724878Y-33301112D01*
X164724878Y-33301112D02*
X164689164Y-33193969D01*
X164689164Y-33193969D02*
X164689164Y-33122541D01*
X164689164Y-33122541D02*
X164724878Y-33015398D01*
X164724878Y-33015398D02*
X164760592Y-32979684D01*
X165439164Y-32301112D02*
X165439164Y-32658255D01*
X165439164Y-32658255D02*
X164689164Y-32658255D01*
X162863450Y-34193969D02*
X162899164Y-34086827D01*
X162899164Y-34086827D02*
X162899164Y-33908255D01*
X162899164Y-33908255D02*
X162863450Y-33836827D01*
X162863450Y-33836827D02*
X162827735Y-33801112D01*
X162827735Y-33801112D02*
X162756307Y-33765398D01*
X162756307Y-33765398D02*
X162684878Y-33765398D01*
X162684878Y-33765398D02*
X162613450Y-33801112D01*
X162613450Y-33801112D02*
X162577735Y-33836827D01*
X162577735Y-33836827D02*
X162542021Y-33908255D01*
X162542021Y-33908255D02*
X162506307Y-34051112D01*
X162506307Y-34051112D02*
X162470592Y-34122541D01*
X162470592Y-34122541D02*
X162434878Y-34158255D01*
X162434878Y-34158255D02*
X162363450Y-34193969D01*
X162363450Y-34193969D02*
X162292021Y-34193969D01*
X162292021Y-34193969D02*
X162220592Y-34158255D01*
X162220592Y-34158255D02*
X162184878Y-34122541D01*
X162184878Y-34122541D02*
X162149164Y-34051112D01*
X162149164Y-34051112D02*
X162149164Y-33872541D01*
X162149164Y-33872541D02*
X162184878Y-33765398D01*
X162899164Y-33443969D02*
X162149164Y-33443969D01*
X162149164Y-33443969D02*
X162149164Y-33265398D01*
X162149164Y-33265398D02*
X162184878Y-33158255D01*
X162184878Y-33158255D02*
X162256307Y-33086826D01*
X162256307Y-33086826D02*
X162327735Y-33051112D01*
X162327735Y-33051112D02*
X162470592Y-33015398D01*
X162470592Y-33015398D02*
X162577735Y-33015398D01*
X162577735Y-33015398D02*
X162720592Y-33051112D01*
X162720592Y-33051112D02*
X162792021Y-33086826D01*
X162792021Y-33086826D02*
X162863450Y-33158255D01*
X162863450Y-33158255D02*
X162899164Y-33265398D01*
X162899164Y-33265398D02*
X162899164Y-33443969D01*
X162684878Y-32729683D02*
X162684878Y-32372541D01*
X162899164Y-32801112D02*
X162149164Y-32551112D01*
X162149164Y-32551112D02*
X162899164Y-32301112D01*
X147320000Y-65405000D02*
X147320000Y-65278000D01*
X147320000Y-64770000D02*
X147320000Y-64071500D01*
X157480000Y-66294000D02*
X147320000Y-66294000D01*
X147320000Y-66294000D02*
X147320000Y-65913000D01*
X157480000Y-64135000D02*
X157480000Y-66294000D01*
X144780000Y-64833500D02*
X144780000Y-64135000D01*
X154940000Y-65659000D02*
X144780000Y-65659000D01*
X154940000Y-64135000D02*
X154940000Y-65659000D01*
X144780000Y-65659000D02*
X144780000Y-65278000D01*
X142240000Y-65024000D02*
X142240000Y-64135000D01*
X152400000Y-65024000D02*
X142240000Y-65024000D01*
X152400000Y-64135000D02*
X152400000Y-65024000D01*
X150235143Y-67123128D02*
X150592286Y-67123128D01*
X150163714Y-67337414D02*
X150413714Y-66587414D01*
X150413714Y-66587414D02*
X150663714Y-67337414D01*
X151270857Y-67337414D02*
X150913714Y-67337414D01*
X150913714Y-67337414D02*
X150913714Y-66587414D01*
X151413714Y-66587414D02*
X151842286Y-66587414D01*
X151628000Y-67337414D02*
X151628000Y-66587414D01*
X139700000Y-73406000D02*
X139700000Y-72644000D01*
X124460000Y-73406000D02*
X124460000Y-72644000D01*
X121920000Y-74803000D02*
X121920000Y-72450000D01*
X137160000Y-74422000D02*
X137160000Y-72450000D01*
X176387143Y-62142414D02*
X176030000Y-62142414D01*
X176030000Y-62142414D02*
X175994286Y-62499557D01*
X175994286Y-62499557D02*
X176030000Y-62463842D01*
X176030000Y-62463842D02*
X176101429Y-62428128D01*
X176101429Y-62428128D02*
X176280000Y-62428128D01*
X176280000Y-62428128D02*
X176351429Y-62463842D01*
X176351429Y-62463842D02*
X176387143Y-62499557D01*
X176387143Y-62499557D02*
X176422857Y-62570985D01*
X176422857Y-62570985D02*
X176422857Y-62749557D01*
X176422857Y-62749557D02*
X176387143Y-62820985D01*
X176387143Y-62820985D02*
X176351429Y-62856700D01*
X176351429Y-62856700D02*
X176280000Y-62892414D01*
X176280000Y-62892414D02*
X176101429Y-62892414D01*
X176101429Y-62892414D02*
X176030000Y-62856700D01*
X176030000Y-62856700D02*
X175994286Y-62820985D01*
X176637143Y-62142414D02*
X176887143Y-62892414D01*
X176887143Y-62892414D02*
X177137143Y-62142414D01*
X114643428Y-68919164D02*
X114643428Y-68169164D01*
X114643428Y-68169164D02*
X114929142Y-68169164D01*
X114929142Y-68169164D02*
X115000571Y-68204878D01*
X115000571Y-68204878D02*
X115036285Y-68240592D01*
X115036285Y-68240592D02*
X115071999Y-68312021D01*
X115071999Y-68312021D02*
X115071999Y-68419164D01*
X115071999Y-68419164D02*
X115036285Y-68490592D01*
X115036285Y-68490592D02*
X115000571Y-68526307D01*
X115000571Y-68526307D02*
X114929142Y-68562021D01*
X114929142Y-68562021D02*
X114643428Y-68562021D01*
X115321999Y-68169164D02*
X115500571Y-68919164D01*
X115500571Y-68919164D02*
X115643428Y-68383450D01*
X115643428Y-68383450D02*
X115786285Y-68919164D01*
X115786285Y-68919164D02*
X115964857Y-68169164D01*
X116250571Y-68919164D02*
X116250571Y-68169164D01*
X116250571Y-68169164D02*
X116500571Y-68704878D01*
X116500571Y-68704878D02*
X116750571Y-68169164D01*
X116750571Y-68169164D02*
X116750571Y-68919164D01*
X173759255Y-28602414D02*
X173759255Y-27852414D01*
X173759255Y-27852414D02*
X174044969Y-27852414D01*
X174044969Y-27852414D02*
X174116398Y-27888128D01*
X174116398Y-27888128D02*
X174152112Y-27923842D01*
X174152112Y-27923842D02*
X174187826Y-27995271D01*
X174187826Y-27995271D02*
X174187826Y-28102414D01*
X174187826Y-28102414D02*
X174152112Y-28173842D01*
X174152112Y-28173842D02*
X174116398Y-28209557D01*
X174116398Y-28209557D02*
X174044969Y-28245271D01*
X174044969Y-28245271D02*
X173759255Y-28245271D01*
X174652112Y-27852414D02*
X174794969Y-27852414D01*
X174794969Y-27852414D02*
X174866398Y-27888128D01*
X174866398Y-27888128D02*
X174937826Y-27959557D01*
X174937826Y-27959557D02*
X174973541Y-28102414D01*
X174973541Y-28102414D02*
X174973541Y-28352414D01*
X174973541Y-28352414D02*
X174937826Y-28495271D01*
X174937826Y-28495271D02*
X174866398Y-28566700D01*
X174866398Y-28566700D02*
X174794969Y-28602414D01*
X174794969Y-28602414D02*
X174652112Y-28602414D01*
X174652112Y-28602414D02*
X174580684Y-28566700D01*
X174580684Y-28566700D02*
X174509255Y-28495271D01*
X174509255Y-28495271D02*
X174473541Y-28352414D01*
X174473541Y-28352414D02*
X174473541Y-28102414D01*
X174473541Y-28102414D02*
X174509255Y-27959557D01*
X174509255Y-27959557D02*
X174580684Y-27888128D01*
X174580684Y-27888128D02*
X174652112Y-27852414D01*
X175223540Y-27852414D02*
X175402112Y-28602414D01*
X175402112Y-28602414D02*
X175544969Y-28066700D01*
X175544969Y-28066700D02*
X175687826Y-28602414D01*
X175687826Y-28602414D02*
X175866398Y-27852414D01*
X176152112Y-28209557D02*
X176402112Y-28209557D01*
X176509255Y-28602414D02*
X176152112Y-28602414D01*
X176152112Y-28602414D02*
X176152112Y-27852414D01*
X176152112Y-27852414D02*
X176509255Y-27852414D01*
X177259254Y-28602414D02*
X177009254Y-28245271D01*
X176830683Y-28602414D02*
X176830683Y-27852414D01*
X176830683Y-27852414D02*
X177116397Y-27852414D01*
X177116397Y-27852414D02*
X177187826Y-27888128D01*
X177187826Y-27888128D02*
X177223540Y-27923842D01*
X177223540Y-27923842D02*
X177259254Y-27995271D01*
X177259254Y-27995271D02*
X177259254Y-28102414D01*
X177259254Y-28102414D02*
X177223540Y-28173842D01*
X177223540Y-28173842D02*
X177187826Y-28209557D01*
X177187826Y-28209557D02*
X177116397Y-28245271D01*
X177116397Y-28245271D02*
X176830683Y-28245271D01*
X177402112Y-28673842D02*
X177973540Y-28673842D01*
X178294969Y-27852414D02*
X178437826Y-27852414D01*
X178437826Y-27852414D02*
X178509255Y-27888128D01*
X178509255Y-27888128D02*
X178580683Y-27959557D01*
X178580683Y-27959557D02*
X178616398Y-28102414D01*
X178616398Y-28102414D02*
X178616398Y-28352414D01*
X178616398Y-28352414D02*
X178580683Y-28495271D01*
X178580683Y-28495271D02*
X178509255Y-28566700D01*
X178509255Y-28566700D02*
X178437826Y-28602414D01*
X178437826Y-28602414D02*
X178294969Y-28602414D01*
X178294969Y-28602414D02*
X178223541Y-28566700D01*
X178223541Y-28566700D02*
X178152112Y-28495271D01*
X178152112Y-28495271D02*
X178116398Y-28352414D01*
X178116398Y-28352414D02*
X178116398Y-28102414D01*
X178116398Y-28102414D02*
X178152112Y-27959557D01*
X178152112Y-27959557D02*
X178223541Y-27888128D01*
X178223541Y-27888128D02*
X178294969Y-27852414D01*
X178937826Y-28602414D02*
X178937826Y-27852414D01*
X178937826Y-27852414D02*
X179366397Y-28602414D01*
X179366397Y-28602414D02*
X179366397Y-27852414D01*
X182058128Y-55355570D02*
X182058128Y-54998428D01*
X182272414Y-55426999D02*
X181522414Y-55176999D01*
X181522414Y-55176999D02*
X182272414Y-54926999D01*
X181522414Y-54784142D02*
X181522414Y-54355571D01*
X182272414Y-54569856D02*
X181522414Y-54569856D01*
X181522414Y-54176999D02*
X182272414Y-53676999D01*
X181522414Y-53676999D02*
X182272414Y-54176999D01*
X182343842Y-53569856D02*
X182343842Y-52998427D01*
X182200985Y-52391284D02*
X182236700Y-52426998D01*
X182236700Y-52426998D02*
X182272414Y-52534141D01*
X182272414Y-52534141D02*
X182272414Y-52605569D01*
X182272414Y-52605569D02*
X182236700Y-52712712D01*
X182236700Y-52712712D02*
X182165271Y-52784141D01*
X182165271Y-52784141D02*
X182093842Y-52819855D01*
X182093842Y-52819855D02*
X181950985Y-52855569D01*
X181950985Y-52855569D02*
X181843842Y-52855569D01*
X181843842Y-52855569D02*
X181700985Y-52819855D01*
X181700985Y-52819855D02*
X181629557Y-52784141D01*
X181629557Y-52784141D02*
X181558128Y-52712712D01*
X181558128Y-52712712D02*
X181522414Y-52605569D01*
X181522414Y-52605569D02*
X181522414Y-52534141D01*
X181522414Y-52534141D02*
X181558128Y-52426998D01*
X181558128Y-52426998D02*
X181593842Y-52391284D01*
X181522414Y-51926998D02*
X181522414Y-51784141D01*
X181522414Y-51784141D02*
X181558128Y-51712712D01*
X181558128Y-51712712D02*
X181629557Y-51641284D01*
X181629557Y-51641284D02*
X181772414Y-51605569D01*
X181772414Y-51605569D02*
X182022414Y-51605569D01*
X182022414Y-51605569D02*
X182165271Y-51641284D01*
X182165271Y-51641284D02*
X182236700Y-51712712D01*
X182236700Y-51712712D02*
X182272414Y-51784141D01*
X182272414Y-51784141D02*
X182272414Y-51926998D01*
X182272414Y-51926998D02*
X182236700Y-51998427D01*
X182236700Y-51998427D02*
X182165271Y-52069855D01*
X182165271Y-52069855D02*
X182022414Y-52105569D01*
X182022414Y-52105569D02*
X181772414Y-52105569D01*
X181772414Y-52105569D02*
X181629557Y-52069855D01*
X181629557Y-52069855D02*
X181558128Y-51998427D01*
X181558128Y-51998427D02*
X181522414Y-51926998D01*
X182272414Y-51284141D02*
X181522414Y-51284141D01*
X181522414Y-51284141D02*
X182272414Y-50855570D01*
X182272414Y-50855570D02*
X181522414Y-50855570D01*
X182272414Y-50498427D02*
X181522414Y-50498427D01*
X181522414Y-50498427D02*
X182272414Y-50069856D01*
X182272414Y-50069856D02*
X181522414Y-50069856D01*
X181879557Y-49712713D02*
X181879557Y-49462713D01*
X182272414Y-49355570D02*
X182272414Y-49712713D01*
X182272414Y-49712713D02*
X181522414Y-49712713D01*
X181522414Y-49712713D02*
X181522414Y-49355570D01*
X182200985Y-48605571D02*
X182236700Y-48641285D01*
X182236700Y-48641285D02*
X182272414Y-48748428D01*
X182272414Y-48748428D02*
X182272414Y-48819856D01*
X182272414Y-48819856D02*
X182236700Y-48926999D01*
X182236700Y-48926999D02*
X182165271Y-48998428D01*
X182165271Y-48998428D02*
X182093842Y-49034142D01*
X182093842Y-49034142D02*
X181950985Y-49069856D01*
X181950985Y-49069856D02*
X181843842Y-49069856D01*
X181843842Y-49069856D02*
X181700985Y-49034142D01*
X181700985Y-49034142D02*
X181629557Y-48998428D01*
X181629557Y-48998428D02*
X181558128Y-48926999D01*
X181558128Y-48926999D02*
X181522414Y-48819856D01*
X181522414Y-48819856D02*
X181522414Y-48748428D01*
X181522414Y-48748428D02*
X181558128Y-48641285D01*
X181558128Y-48641285D02*
X181593842Y-48605571D01*
X181522414Y-48391285D02*
X181522414Y-47962714D01*
X182272414Y-48176999D02*
X181522414Y-48176999D01*
X181522414Y-47569856D02*
X181522414Y-47426999D01*
X181522414Y-47426999D02*
X181558128Y-47355570D01*
X181558128Y-47355570D02*
X181629557Y-47284142D01*
X181629557Y-47284142D02*
X181772414Y-47248427D01*
X181772414Y-47248427D02*
X182022414Y-47248427D01*
X182022414Y-47248427D02*
X182165271Y-47284142D01*
X182165271Y-47284142D02*
X182236700Y-47355570D01*
X182236700Y-47355570D02*
X182272414Y-47426999D01*
X182272414Y-47426999D02*
X182272414Y-47569856D01*
X182272414Y-47569856D02*
X182236700Y-47641285D01*
X182236700Y-47641285D02*
X182165271Y-47712713D01*
X182165271Y-47712713D02*
X182022414Y-47748427D01*
X182022414Y-47748427D02*
X181772414Y-47748427D01*
X181772414Y-47748427D02*
X181629557Y-47712713D01*
X181629557Y-47712713D02*
X181558128Y-47641285D01*
X181558128Y-47641285D02*
X181522414Y-47569856D01*
X182272414Y-46498428D02*
X181915271Y-46748428D01*
X182272414Y-46926999D02*
X181522414Y-46926999D01*
X181522414Y-46926999D02*
X181522414Y-46641285D01*
X181522414Y-46641285D02*
X181558128Y-46569856D01*
X181558128Y-46569856D02*
X181593842Y-46534142D01*
X181593842Y-46534142D02*
X181665271Y-46498428D01*
X181665271Y-46498428D02*
X181772414Y-46498428D01*
X181772414Y-46498428D02*
X181843842Y-46534142D01*
X181843842Y-46534142D02*
X181879557Y-46569856D01*
X181879557Y-46569856D02*
X181915271Y-46641285D01*
X181915271Y-46641285D02*
X181915271Y-46926999D01*
X120223571Y-75719414D02*
X120223571Y-74969414D01*
X120223571Y-74969414D02*
X120509285Y-74969414D01*
X120509285Y-74969414D02*
X120580714Y-75005128D01*
X120580714Y-75005128D02*
X120616428Y-75040842D01*
X120616428Y-75040842D02*
X120652142Y-75112271D01*
X120652142Y-75112271D02*
X120652142Y-75219414D01*
X120652142Y-75219414D02*
X120616428Y-75290842D01*
X120616428Y-75290842D02*
X120580714Y-75326557D01*
X120580714Y-75326557D02*
X120509285Y-75362271D01*
X120509285Y-75362271D02*
X120223571Y-75362271D01*
X120902142Y-74969414D02*
X121080714Y-75719414D01*
X121080714Y-75719414D02*
X121223571Y-75183700D01*
X121223571Y-75183700D02*
X121366428Y-75719414D01*
X121366428Y-75719414D02*
X121545000Y-74969414D01*
X121830714Y-75719414D02*
X121830714Y-74969414D01*
X121830714Y-74969414D02*
X122080714Y-75505128D01*
X122080714Y-75505128D02*
X122330714Y-74969414D01*
X122330714Y-74969414D02*
X122330714Y-75719414D01*
X122509286Y-75790842D02*
X123080714Y-75790842D01*
X123223572Y-75040842D02*
X123259286Y-75005128D01*
X123259286Y-75005128D02*
X123330715Y-74969414D01*
X123330715Y-74969414D02*
X123509286Y-74969414D01*
X123509286Y-74969414D02*
X123580715Y-75005128D01*
X123580715Y-75005128D02*
X123616429Y-75040842D01*
X123616429Y-75040842D02*
X123652143Y-75112271D01*
X123652143Y-75112271D02*
X123652143Y-75183700D01*
X123652143Y-75183700D02*
X123616429Y-75290842D01*
X123616429Y-75290842D02*
X123187857Y-75719414D01*
X123187857Y-75719414D02*
X123652143Y-75719414D01*
X173525714Y-81688414D02*
X173097143Y-81688414D01*
X173311428Y-81688414D02*
X173311428Y-80938414D01*
X173311428Y-80938414D02*
X173240000Y-81045557D01*
X173240000Y-81045557D02*
X173168571Y-81116985D01*
X173168571Y-81116985D02*
X173097143Y-81152700D01*
X173811429Y-81009842D02*
X173847143Y-80974128D01*
X173847143Y-80974128D02*
X173918572Y-80938414D01*
X173918572Y-80938414D02*
X174097143Y-80938414D01*
X174097143Y-80938414D02*
X174168572Y-80974128D01*
X174168572Y-80974128D02*
X174204286Y-81009842D01*
X174204286Y-81009842D02*
X174240000Y-81081271D01*
X174240000Y-81081271D02*
X174240000Y-81152700D01*
X174240000Y-81152700D02*
X174204286Y-81259842D01*
X174204286Y-81259842D02*
X173775714Y-81688414D01*
X173775714Y-81688414D02*
X174240000Y-81688414D01*
X174454286Y-80938414D02*
X174704286Y-81688414D01*
X174704286Y-81688414D02*
X174954286Y-80938414D01*
X163179143Y-62396414D02*
X162822000Y-62396414D01*
X162822000Y-62396414D02*
X162786286Y-62753557D01*
X162786286Y-62753557D02*
X162822000Y-62717842D01*
X162822000Y-62717842D02*
X162893429Y-62682128D01*
X162893429Y-62682128D02*
X163072000Y-62682128D01*
X163072000Y-62682128D02*
X163143429Y-62717842D01*
X163143429Y-62717842D02*
X163179143Y-62753557D01*
X163179143Y-62753557D02*
X163214857Y-62824985D01*
X163214857Y-62824985D02*
X163214857Y-63003557D01*
X163214857Y-63003557D02*
X163179143Y-63074985D01*
X163179143Y-63074985D02*
X163143429Y-63110700D01*
X163143429Y-63110700D02*
X163072000Y-63146414D01*
X163072000Y-63146414D02*
X162893429Y-63146414D01*
X162893429Y-63146414D02*
X162822000Y-63110700D01*
X162822000Y-63110700D02*
X162786286Y-63074985D01*
X163429143Y-62396414D02*
X163679143Y-63146414D01*
X163679143Y-63146414D02*
X163929143Y-62396414D01*
X147220414Y-73604142D02*
X146470414Y-73604142D01*
X147220414Y-73246999D02*
X146470414Y-73246999D01*
X146470414Y-73246999D02*
X147220414Y-72818428D01*
X147220414Y-72818428D02*
X146470414Y-72818428D01*
X147291842Y-72639857D02*
X147291842Y-72068428D01*
X146827557Y-71639856D02*
X146827557Y-71889856D01*
X147220414Y-71889856D02*
X146470414Y-71889856D01*
X146470414Y-71889856D02*
X146470414Y-71532713D01*
X147006128Y-71282713D02*
X147006128Y-70925571D01*
X147220414Y-71354142D02*
X146470414Y-71104142D01*
X146470414Y-71104142D02*
X147220414Y-70854142D01*
X147220414Y-70604142D02*
X146470414Y-70604142D01*
X146470414Y-70604142D02*
X147220414Y-70175571D01*
X147220414Y-70175571D02*
X146470414Y-70175571D01*
X147291842Y-69997000D02*
X147291842Y-69425571D01*
X147220414Y-68854142D02*
X147220414Y-69282713D01*
X147220414Y-69068428D02*
X146470414Y-69068428D01*
X146470414Y-69068428D02*
X146577557Y-69139856D01*
X146577557Y-69139856D02*
X146648985Y-69211285D01*
X146648985Y-69211285D02*
X146684700Y-69282713D01*
X135463571Y-75338414D02*
X135463571Y-74588414D01*
X135463571Y-74588414D02*
X135749285Y-74588414D01*
X135749285Y-74588414D02*
X135820714Y-74624128D01*
X135820714Y-74624128D02*
X135856428Y-74659842D01*
X135856428Y-74659842D02*
X135892142Y-74731271D01*
X135892142Y-74731271D02*
X135892142Y-74838414D01*
X135892142Y-74838414D02*
X135856428Y-74909842D01*
X135856428Y-74909842D02*
X135820714Y-74945557D01*
X135820714Y-74945557D02*
X135749285Y-74981271D01*
X135749285Y-74981271D02*
X135463571Y-74981271D01*
X136142142Y-74588414D02*
X136320714Y-75338414D01*
X136320714Y-75338414D02*
X136463571Y-74802700D01*
X136463571Y-74802700D02*
X136606428Y-75338414D01*
X136606428Y-75338414D02*
X136785000Y-74588414D01*
X137070714Y-75338414D02*
X137070714Y-74588414D01*
X137070714Y-74588414D02*
X137320714Y-75124128D01*
X137320714Y-75124128D02*
X137570714Y-74588414D01*
X137570714Y-74588414D02*
X137570714Y-75338414D01*
X137749286Y-75409842D02*
X138320714Y-75409842D01*
X138892143Y-75338414D02*
X138463572Y-75338414D01*
X138677857Y-75338414D02*
X138677857Y-74588414D01*
X138677857Y-74588414D02*
X138606429Y-74695557D01*
X138606429Y-74695557D02*
X138535000Y-74766985D01*
X138535000Y-74766985D02*
X138463572Y-74802700D01*
X166016414Y-67032744D02*
X165266414Y-67032744D01*
X165266414Y-67032744D02*
X165266414Y-66747030D01*
X165266414Y-66747030D02*
X165302128Y-66675601D01*
X165302128Y-66675601D02*
X165337842Y-66639887D01*
X165337842Y-66639887D02*
X165409271Y-66604173D01*
X165409271Y-66604173D02*
X165516414Y-66604173D01*
X165516414Y-66604173D02*
X165587842Y-66639887D01*
X165587842Y-66639887D02*
X165623557Y-66675601D01*
X165623557Y-66675601D02*
X165659271Y-66747030D01*
X165659271Y-66747030D02*
X165659271Y-67032744D01*
X165623557Y-66282744D02*
X165623557Y-66032744D01*
X166016414Y-65925601D02*
X166016414Y-66282744D01*
X166016414Y-66282744D02*
X165266414Y-66282744D01*
X165266414Y-66282744D02*
X165266414Y-65925601D01*
X166016414Y-65247030D02*
X166016414Y-65604173D01*
X166016414Y-65604173D02*
X165266414Y-65604173D01*
X165266414Y-65104173D02*
X165266414Y-64675602D01*
X166016414Y-64889887D02*
X165266414Y-64889887D01*
X166016414Y-64425601D02*
X165266414Y-64425601D01*
X165623557Y-64068458D02*
X165623557Y-63818458D01*
X166016414Y-63711315D02*
X166016414Y-64068458D01*
X166016414Y-64068458D02*
X165266414Y-64068458D01*
X165266414Y-64068458D02*
X165266414Y-63711315D01*
X166016414Y-62961316D02*
X165659271Y-63211316D01*
X166016414Y-63389887D02*
X165266414Y-63389887D01*
X165266414Y-63389887D02*
X165266414Y-63104173D01*
X165266414Y-63104173D02*
X165302128Y-63032744D01*
X165302128Y-63032744D02*
X165337842Y-62997030D01*
X165337842Y-62997030D02*
X165409271Y-62961316D01*
X165409271Y-62961316D02*
X165516414Y-62961316D01*
X165516414Y-62961316D02*
X165587842Y-62997030D01*
X165587842Y-62997030D02*
X165623557Y-63032744D01*
X165623557Y-63032744D02*
X165659271Y-63104173D01*
X165659271Y-63104173D02*
X165659271Y-63389887D01*
X166087842Y-62818459D02*
X166087842Y-62247030D01*
X166016414Y-61675601D02*
X166016414Y-62104172D01*
X166016414Y-61889887D02*
X165266414Y-61889887D01*
X165266414Y-61889887D02*
X165373557Y-61961315D01*
X165373557Y-61961315D02*
X165444985Y-62032744D01*
X165444985Y-62032744D02*
X165480700Y-62104172D01*
X132165164Y-73477142D02*
X131415164Y-73477142D01*
X132165164Y-73119999D02*
X131415164Y-73119999D01*
X131415164Y-73119999D02*
X132165164Y-72691428D01*
X132165164Y-72691428D02*
X131415164Y-72691428D01*
X132236592Y-72512857D02*
X132236592Y-71941428D01*
X131772307Y-71512856D02*
X131772307Y-71762856D01*
X132165164Y-71762856D02*
X131415164Y-71762856D01*
X131415164Y-71762856D02*
X131415164Y-71405713D01*
X131950878Y-71155713D02*
X131950878Y-70798571D01*
X132165164Y-71227142D02*
X131415164Y-70977142D01*
X131415164Y-70977142D02*
X132165164Y-70727142D01*
X132165164Y-70477142D02*
X131415164Y-70477142D01*
X131415164Y-70477142D02*
X132165164Y-70048571D01*
X132165164Y-70048571D02*
X131415164Y-70048571D01*
X132236592Y-69870000D02*
X132236592Y-69298571D01*
X131486592Y-69155713D02*
X131450878Y-69119999D01*
X131450878Y-69119999D02*
X131415164Y-69048571D01*
X131415164Y-69048571D02*
X131415164Y-68869999D01*
X131415164Y-68869999D02*
X131450878Y-68798571D01*
X131450878Y-68798571D02*
X131486592Y-68762856D01*
X131486592Y-68762856D02*
X131558021Y-68727142D01*
X131558021Y-68727142D02*
X131629450Y-68727142D01*
X131629450Y-68727142D02*
X131736592Y-68762856D01*
X131736592Y-68762856D02*
X132165164Y-69191428D01*
X132165164Y-69191428D02*
X132165164Y-68727142D01*
X178474414Y-81621887D02*
X178474414Y-81479030D01*
X178474414Y-81479030D02*
X178510128Y-81407601D01*
X178510128Y-81407601D02*
X178581557Y-81336173D01*
X178581557Y-81336173D02*
X178724414Y-81300458D01*
X178724414Y-81300458D02*
X178974414Y-81300458D01*
X178974414Y-81300458D02*
X179117271Y-81336173D01*
X179117271Y-81336173D02*
X179188700Y-81407601D01*
X179188700Y-81407601D02*
X179224414Y-81479030D01*
X179224414Y-81479030D02*
X179224414Y-81621887D01*
X179224414Y-81621887D02*
X179188700Y-81693316D01*
X179188700Y-81693316D02*
X179117271Y-81764744D01*
X179117271Y-81764744D02*
X178974414Y-81800458D01*
X178974414Y-81800458D02*
X178724414Y-81800458D01*
X178724414Y-81800458D02*
X178581557Y-81764744D01*
X178581557Y-81764744D02*
X178510128Y-81693316D01*
X178510128Y-81693316D02*
X178474414Y-81621887D01*
X178474414Y-80979030D02*
X179081557Y-80979030D01*
X179081557Y-80979030D02*
X179152985Y-80943316D01*
X179152985Y-80943316D02*
X179188700Y-80907602D01*
X179188700Y-80907602D02*
X179224414Y-80836173D01*
X179224414Y-80836173D02*
X179224414Y-80693316D01*
X179224414Y-80693316D02*
X179188700Y-80621887D01*
X179188700Y-80621887D02*
X179152985Y-80586173D01*
X179152985Y-80586173D02*
X179081557Y-80550459D01*
X179081557Y-80550459D02*
X178474414Y-80550459D01*
X178474414Y-80300459D02*
X178474414Y-79871888D01*
X179224414Y-80086173D02*
X178474414Y-80086173D01*
X179295842Y-79800459D02*
X179295842Y-79229030D01*
X178831557Y-78800458D02*
X178831557Y-79050458D01*
X179224414Y-79050458D02*
X178474414Y-79050458D01*
X178474414Y-79050458D02*
X178474414Y-78693315D01*
X179010128Y-78443315D02*
X179010128Y-78086173D01*
X179224414Y-78514744D02*
X178474414Y-78264744D01*
X178474414Y-78264744D02*
X179224414Y-78014744D01*
X179224414Y-77764744D02*
X178474414Y-77764744D01*
X178474414Y-77764744D02*
X179224414Y-77336173D01*
X179224414Y-77336173D02*
X178474414Y-77336173D01*
X179295842Y-77157602D02*
X179295842Y-76586173D01*
X178545842Y-76443315D02*
X178510128Y-76407601D01*
X178510128Y-76407601D02*
X178474414Y-76336173D01*
X178474414Y-76336173D02*
X178474414Y-76157601D01*
X178474414Y-76157601D02*
X178510128Y-76086173D01*
X178510128Y-76086173D02*
X178545842Y-76050458D01*
X178545842Y-76050458D02*
X178617271Y-76014744D01*
X178617271Y-76014744D02*
X178688700Y-76014744D01*
X178688700Y-76014744D02*
X178795842Y-76050458D01*
X178795842Y-76050458D02*
X179224414Y-76479030D01*
X179224414Y-76479030D02*
X179224414Y-76014744D01*
X128968571Y-72719128D02*
X128897143Y-72683414D01*
X128897143Y-72683414D02*
X128790000Y-72683414D01*
X128790000Y-72683414D02*
X128682857Y-72719128D01*
X128682857Y-72719128D02*
X128611428Y-72790557D01*
X128611428Y-72790557D02*
X128575714Y-72861985D01*
X128575714Y-72861985D02*
X128540000Y-73004842D01*
X128540000Y-73004842D02*
X128540000Y-73111985D01*
X128540000Y-73111985D02*
X128575714Y-73254842D01*
X128575714Y-73254842D02*
X128611428Y-73326271D01*
X128611428Y-73326271D02*
X128682857Y-73397700D01*
X128682857Y-73397700D02*
X128790000Y-73433414D01*
X128790000Y-73433414D02*
X128861428Y-73433414D01*
X128861428Y-73433414D02*
X128968571Y-73397700D01*
X128968571Y-73397700D02*
X129004285Y-73361985D01*
X129004285Y-73361985D02*
X129004285Y-73111985D01*
X129004285Y-73111985D02*
X128861428Y-73111985D01*
X129325714Y-73433414D02*
X129325714Y-72683414D01*
X129325714Y-72683414D02*
X129754285Y-73433414D01*
X129754285Y-73433414D02*
X129754285Y-72683414D01*
X130111428Y-73433414D02*
X130111428Y-72683414D01*
X130111428Y-72683414D02*
X130289999Y-72683414D01*
X130289999Y-72683414D02*
X130397142Y-72719128D01*
X130397142Y-72719128D02*
X130468571Y-72790557D01*
X130468571Y-72790557D02*
X130504285Y-72861985D01*
X130504285Y-72861985D02*
X130539999Y-73004842D01*
X130539999Y-73004842D02*
X130539999Y-73111985D01*
X130539999Y-73111985D02*
X130504285Y-73254842D01*
X130504285Y-73254842D02*
X130468571Y-73326271D01*
X130468571Y-73326271D02*
X130397142Y-73397700D01*
X130397142Y-73397700D02*
X130289999Y-73433414D01*
X130289999Y-73433414D02*
X130111428Y-73433414D01*
X166183128Y-55765458D02*
X166183128Y-55408316D01*
X166397414Y-55836887D02*
X165647414Y-55586887D01*
X165647414Y-55586887D02*
X166397414Y-55336887D01*
X166397414Y-55086887D02*
X165647414Y-55086887D01*
X165647414Y-55086887D02*
X165647414Y-54908316D01*
X165647414Y-54908316D02*
X165683128Y-54801173D01*
X165683128Y-54801173D02*
X165754557Y-54729744D01*
X165754557Y-54729744D02*
X165825985Y-54694030D01*
X165825985Y-54694030D02*
X165968842Y-54658316D01*
X165968842Y-54658316D02*
X166075985Y-54658316D01*
X166075985Y-54658316D02*
X166218842Y-54694030D01*
X166218842Y-54694030D02*
X166290271Y-54729744D01*
X166290271Y-54729744D02*
X166361700Y-54801173D01*
X166361700Y-54801173D02*
X166397414Y-54908316D01*
X166397414Y-54908316D02*
X166397414Y-55086887D01*
X166183128Y-54372601D02*
X166183128Y-54015459D01*
X166397414Y-54444030D02*
X165647414Y-54194030D01*
X165647414Y-54194030D02*
X166397414Y-53944030D01*
X166004557Y-53444030D02*
X166004557Y-53694030D01*
X166397414Y-53694030D02*
X165647414Y-53694030D01*
X165647414Y-53694030D02*
X165647414Y-53336887D01*
X166397414Y-52622602D02*
X166040271Y-52872602D01*
X166397414Y-53051173D02*
X165647414Y-53051173D01*
X165647414Y-53051173D02*
X165647414Y-52765459D01*
X165647414Y-52765459D02*
X165683128Y-52694030D01*
X165683128Y-52694030D02*
X165718842Y-52658316D01*
X165718842Y-52658316D02*
X165790271Y-52622602D01*
X165790271Y-52622602D02*
X165897414Y-52622602D01*
X165897414Y-52622602D02*
X165968842Y-52658316D01*
X165968842Y-52658316D02*
X166004557Y-52694030D01*
X166004557Y-52694030D02*
X166040271Y-52765459D01*
X166040271Y-52765459D02*
X166040271Y-53051173D01*
X165647414Y-52301173D02*
X166254557Y-52301173D01*
X166254557Y-52301173D02*
X166325985Y-52265459D01*
X166325985Y-52265459D02*
X166361700Y-52229745D01*
X166361700Y-52229745D02*
X166397414Y-52158316D01*
X166397414Y-52158316D02*
X166397414Y-52015459D01*
X166397414Y-52015459D02*
X166361700Y-51944030D01*
X166361700Y-51944030D02*
X166325985Y-51908316D01*
X166325985Y-51908316D02*
X166254557Y-51872602D01*
X166254557Y-51872602D02*
X165647414Y-51872602D01*
X166397414Y-51515459D02*
X165647414Y-51515459D01*
X165647414Y-51265459D02*
X165647414Y-50836888D01*
X166397414Y-51051173D02*
X165647414Y-51051173D01*
X166004557Y-49765458D02*
X166004557Y-50015458D01*
X166397414Y-50015458D02*
X165647414Y-50015458D01*
X165647414Y-50015458D02*
X165647414Y-49658315D01*
X166004557Y-49372601D02*
X166004557Y-49122601D01*
X166397414Y-49015458D02*
X166397414Y-49372601D01*
X166397414Y-49372601D02*
X165647414Y-49372601D01*
X165647414Y-49372601D02*
X165647414Y-49015458D01*
X166183128Y-48729744D02*
X166183128Y-48372602D01*
X166397414Y-48801173D02*
X165647414Y-48551173D01*
X165647414Y-48551173D02*
X166397414Y-48301173D01*
X165647414Y-48158316D02*
X165647414Y-47729745D01*
X166397414Y-47944030D02*
X165647414Y-47944030D01*
X166397414Y-47479744D02*
X165647414Y-47479744D01*
X166004557Y-47479744D02*
X166004557Y-47051173D01*
X166397414Y-47051173D02*
X165647414Y-47051173D01*
X166004557Y-46694030D02*
X166004557Y-46444030D01*
X166397414Y-46336887D02*
X166397414Y-46694030D01*
X166397414Y-46694030D02*
X165647414Y-46694030D01*
X165647414Y-46694030D02*
X165647414Y-46336887D01*
X166397414Y-45586888D02*
X166040271Y-45836888D01*
X166397414Y-46015459D02*
X165647414Y-46015459D01*
X165647414Y-46015459D02*
X165647414Y-45729745D01*
X165647414Y-45729745D02*
X165683128Y-45658316D01*
X165683128Y-45658316D02*
X165718842Y-45622602D01*
X165718842Y-45622602D02*
X165790271Y-45586888D01*
X165790271Y-45586888D02*
X165897414Y-45586888D01*
X165897414Y-45586888D02*
X165968842Y-45622602D01*
X165968842Y-45622602D02*
X166004557Y-45658316D01*
X166004557Y-45658316D02*
X166040271Y-45729745D01*
X166040271Y-45729745D02*
X166040271Y-46015459D01*
X166397414Y-44694030D02*
X165647414Y-44694030D01*
X165647414Y-44694030D02*
X166183128Y-44444030D01*
X166183128Y-44444030D02*
X165647414Y-44194030D01*
X165647414Y-44194030D02*
X166397414Y-44194030D01*
X165647414Y-43694030D02*
X165647414Y-43551173D01*
X165647414Y-43551173D02*
X165683128Y-43479744D01*
X165683128Y-43479744D02*
X165754557Y-43408316D01*
X165754557Y-43408316D02*
X165897414Y-43372601D01*
X165897414Y-43372601D02*
X166147414Y-43372601D01*
X166147414Y-43372601D02*
X166290271Y-43408316D01*
X166290271Y-43408316D02*
X166361700Y-43479744D01*
X166361700Y-43479744D02*
X166397414Y-43551173D01*
X166397414Y-43551173D02*
X166397414Y-43694030D01*
X166397414Y-43694030D02*
X166361700Y-43765459D01*
X166361700Y-43765459D02*
X166290271Y-43836887D01*
X166290271Y-43836887D02*
X166147414Y-43872601D01*
X166147414Y-43872601D02*
X165897414Y-43872601D01*
X165897414Y-43872601D02*
X165754557Y-43836887D01*
X165754557Y-43836887D02*
X165683128Y-43765459D01*
X165683128Y-43765459D02*
X165647414Y-43694030D01*
X166397414Y-43051173D02*
X165647414Y-43051173D01*
X165647414Y-43051173D02*
X165647414Y-42872602D01*
X165647414Y-42872602D02*
X165683128Y-42765459D01*
X165683128Y-42765459D02*
X165754557Y-42694030D01*
X165754557Y-42694030D02*
X165825985Y-42658316D01*
X165825985Y-42658316D02*
X165968842Y-42622602D01*
X165968842Y-42622602D02*
X166075985Y-42622602D01*
X166075985Y-42622602D02*
X166218842Y-42658316D01*
X166218842Y-42658316D02*
X166290271Y-42694030D01*
X166290271Y-42694030D02*
X166361700Y-42765459D01*
X166361700Y-42765459D02*
X166397414Y-42872602D01*
X166397414Y-42872602D02*
X166397414Y-43051173D01*
X165647414Y-42301173D02*
X166254557Y-42301173D01*
X166254557Y-42301173D02*
X166325985Y-42265459D01*
X166325985Y-42265459D02*
X166361700Y-42229745D01*
X166361700Y-42229745D02*
X166397414Y-42158316D01*
X166397414Y-42158316D02*
X166397414Y-42015459D01*
X166397414Y-42015459D02*
X166361700Y-41944030D01*
X166361700Y-41944030D02*
X166325985Y-41908316D01*
X166325985Y-41908316D02*
X166254557Y-41872602D01*
X166254557Y-41872602D02*
X165647414Y-41872602D01*
X166397414Y-41158316D02*
X166397414Y-41515459D01*
X166397414Y-41515459D02*
X165647414Y-41515459D01*
X166004557Y-40908316D02*
X166004557Y-40658316D01*
X166397414Y-40551173D02*
X166397414Y-40908316D01*
X166397414Y-40908316D02*
X165647414Y-40908316D01*
X165647414Y-40908316D02*
X165647414Y-40551173D01*
X189192912Y-81102556D02*
X189335769Y-81102556D01*
X189335769Y-81102556D02*
X189407198Y-81138270D01*
X189407198Y-81138270D02*
X189478626Y-81209699D01*
X189478626Y-81209699D02*
X189514341Y-81352556D01*
X189514341Y-81352556D02*
X189514341Y-81602556D01*
X189514341Y-81602556D02*
X189478626Y-81745413D01*
X189478626Y-81745413D02*
X189407198Y-81816842D01*
X189407198Y-81816842D02*
X189335769Y-81852556D01*
X189335769Y-81852556D02*
X189192912Y-81852556D01*
X189192912Y-81852556D02*
X189121484Y-81816842D01*
X189121484Y-81816842D02*
X189050055Y-81745413D01*
X189050055Y-81745413D02*
X189014341Y-81602556D01*
X189014341Y-81602556D02*
X189014341Y-81352556D01*
X189014341Y-81352556D02*
X189050055Y-81209699D01*
X189050055Y-81209699D02*
X189121484Y-81138270D01*
X189121484Y-81138270D02*
X189192912Y-81102556D01*
X189835769Y-81352556D02*
X189835769Y-82102556D01*
X189835769Y-81388270D02*
X189907198Y-81352556D01*
X189907198Y-81352556D02*
X190050055Y-81352556D01*
X190050055Y-81352556D02*
X190121483Y-81388270D01*
X190121483Y-81388270D02*
X190157198Y-81423984D01*
X190157198Y-81423984D02*
X190192912Y-81495413D01*
X190192912Y-81495413D02*
X190192912Y-81709699D01*
X190192912Y-81709699D02*
X190157198Y-81781127D01*
X190157198Y-81781127D02*
X190121483Y-81816842D01*
X190121483Y-81816842D02*
X190050055Y-81852556D01*
X190050055Y-81852556D02*
X189907198Y-81852556D01*
X189907198Y-81852556D02*
X189835769Y-81816842D01*
X190800054Y-81816842D02*
X190728626Y-81852556D01*
X190728626Y-81852556D02*
X190585769Y-81852556D01*
X190585769Y-81852556D02*
X190514340Y-81816842D01*
X190514340Y-81816842D02*
X190478626Y-81745413D01*
X190478626Y-81745413D02*
X190478626Y-81459699D01*
X190478626Y-81459699D02*
X190514340Y-81388270D01*
X190514340Y-81388270D02*
X190585769Y-81352556D01*
X190585769Y-81352556D02*
X190728626Y-81352556D01*
X190728626Y-81352556D02*
X190800054Y-81388270D01*
X190800054Y-81388270D02*
X190835769Y-81459699D01*
X190835769Y-81459699D02*
X190835769Y-81531127D01*
X190835769Y-81531127D02*
X190478626Y-81602556D01*
X191157197Y-81352556D02*
X191157197Y-81852556D01*
X191157197Y-81423984D02*
X191192911Y-81388270D01*
X191192911Y-81388270D02*
X191264340Y-81352556D01*
X191264340Y-81352556D02*
X191371483Y-81352556D01*
X191371483Y-81352556D02*
X191442911Y-81388270D01*
X191442911Y-81388270D02*
X191478626Y-81459699D01*
X191478626Y-81459699D02*
X191478626Y-81852556D01*
X191835768Y-81852556D02*
X191835768Y-81102556D01*
X191835768Y-81102556D02*
X192121482Y-81102556D01*
X192121482Y-81102556D02*
X192192911Y-81138270D01*
X192192911Y-81138270D02*
X192228625Y-81173984D01*
X192228625Y-81173984D02*
X192264339Y-81245413D01*
X192264339Y-81245413D02*
X192264339Y-81352556D01*
X192264339Y-81352556D02*
X192228625Y-81423984D01*
X192228625Y-81423984D02*
X192192911Y-81459699D01*
X192192911Y-81459699D02*
X192121482Y-81495413D01*
X192121482Y-81495413D02*
X191835768Y-81495413D01*
X192692911Y-81852556D02*
X192621482Y-81816842D01*
X192621482Y-81816842D02*
X192585768Y-81745413D01*
X192585768Y-81745413D02*
X192585768Y-81102556D01*
X193300054Y-81852556D02*
X193300054Y-81459699D01*
X193300054Y-81459699D02*
X193264339Y-81388270D01*
X193264339Y-81388270D02*
X193192911Y-81352556D01*
X193192911Y-81352556D02*
X193050054Y-81352556D01*
X193050054Y-81352556D02*
X192978625Y-81388270D01*
X193300054Y-81816842D02*
X193228625Y-81852556D01*
X193228625Y-81852556D02*
X193050054Y-81852556D01*
X193050054Y-81852556D02*
X192978625Y-81816842D01*
X192978625Y-81816842D02*
X192942911Y-81745413D01*
X192942911Y-81745413D02*
X192942911Y-81673984D01*
X192942911Y-81673984D02*
X192978625Y-81602556D01*
X192978625Y-81602556D02*
X193050054Y-81566842D01*
X193050054Y-81566842D02*
X193228625Y-81566842D01*
X193228625Y-81566842D02*
X193300054Y-81531127D01*
X193657196Y-81352556D02*
X193657196Y-81852556D01*
X193657196Y-81423984D02*
X193692910Y-81388270D01*
X193692910Y-81388270D02*
X193764339Y-81352556D01*
X193764339Y-81352556D02*
X193871482Y-81352556D01*
X193871482Y-81352556D02*
X193942910Y-81388270D01*
X193942910Y-81388270D02*
X193978625Y-81459699D01*
X193978625Y-81459699D02*
X193978625Y-81852556D01*
X194228624Y-81352556D02*
X194514338Y-81352556D01*
X194335767Y-81102556D02*
X194335767Y-81745413D01*
X194335767Y-81745413D02*
X194371481Y-81816842D01*
X194371481Y-81816842D02*
X194442910Y-81852556D01*
X194442910Y-81852556D02*
X194514338Y-81852556D01*
X189050055Y-83060014D02*
X189050055Y-82310014D01*
X189407198Y-82560014D02*
X189407198Y-83060014D01*
X189407198Y-82631442D02*
X189442912Y-82595728D01*
X189442912Y-82595728D02*
X189514341Y-82560014D01*
X189514341Y-82560014D02*
X189621484Y-82560014D01*
X189621484Y-82560014D02*
X189692912Y-82595728D01*
X189692912Y-82595728D02*
X189728627Y-82667157D01*
X189728627Y-82667157D02*
X189728627Y-83060014D01*
X190407198Y-83024300D02*
X190335769Y-83060014D01*
X190335769Y-83060014D02*
X190192912Y-83060014D01*
X190192912Y-83060014D02*
X190121483Y-83024300D01*
X190121483Y-83024300D02*
X190085769Y-82988585D01*
X190085769Y-82988585D02*
X190050055Y-82917157D01*
X190050055Y-82917157D02*
X190050055Y-82702871D01*
X190050055Y-82702871D02*
X190085769Y-82631442D01*
X190085769Y-82631442D02*
X190121483Y-82595728D01*
X190121483Y-82595728D02*
X190192912Y-82560014D01*
X190192912Y-82560014D02*
X190335769Y-82560014D01*
X190335769Y-82560014D02*
X190407198Y-82595728D01*
X191050055Y-82560014D02*
X191050055Y-83060014D01*
X190728626Y-82560014D02*
X190728626Y-82952871D01*
X190728626Y-82952871D02*
X190764340Y-83024300D01*
X190764340Y-83024300D02*
X190835769Y-83060014D01*
X190835769Y-83060014D02*
X190942912Y-83060014D01*
X190942912Y-83060014D02*
X191014340Y-83024300D01*
X191014340Y-83024300D02*
X191050055Y-82988585D01*
X191407197Y-83060014D02*
X191407197Y-82310014D01*
X191407197Y-82595728D02*
X191478626Y-82560014D01*
X191478626Y-82560014D02*
X191621483Y-82560014D01*
X191621483Y-82560014D02*
X191692911Y-82595728D01*
X191692911Y-82595728D02*
X191728626Y-82631442D01*
X191728626Y-82631442D02*
X191764340Y-82702871D01*
X191764340Y-82702871D02*
X191764340Y-82917157D01*
X191764340Y-82917157D02*
X191728626Y-82988585D01*
X191728626Y-82988585D02*
X191692911Y-83024300D01*
X191692911Y-83024300D02*
X191621483Y-83060014D01*
X191621483Y-83060014D02*
X191478626Y-83060014D01*
X191478626Y-83060014D02*
X191407197Y-83024300D01*
X192407197Y-83060014D02*
X192407197Y-82667157D01*
X192407197Y-82667157D02*
X192371482Y-82595728D01*
X192371482Y-82595728D02*
X192300054Y-82560014D01*
X192300054Y-82560014D02*
X192157197Y-82560014D01*
X192157197Y-82560014D02*
X192085768Y-82595728D01*
X192407197Y-83024300D02*
X192335768Y-83060014D01*
X192335768Y-83060014D02*
X192157197Y-83060014D01*
X192157197Y-83060014D02*
X192085768Y-83024300D01*
X192085768Y-83024300D02*
X192050054Y-82952871D01*
X192050054Y-82952871D02*
X192050054Y-82881442D01*
X192050054Y-82881442D02*
X192085768Y-82810014D01*
X192085768Y-82810014D02*
X192157197Y-82774300D01*
X192157197Y-82774300D02*
X192335768Y-82774300D01*
X192335768Y-82774300D02*
X192407197Y-82738585D01*
X192657196Y-82560014D02*
X192942910Y-82560014D01*
X192764339Y-82310014D02*
X192764339Y-82952871D01*
X192764339Y-82952871D02*
X192800053Y-83024300D01*
X192800053Y-83024300D02*
X192871482Y-83060014D01*
X192871482Y-83060014D02*
X192942910Y-83060014D01*
X193300053Y-83060014D02*
X193228624Y-83024300D01*
X193228624Y-83024300D02*
X193192910Y-82988585D01*
X193192910Y-82988585D02*
X193157196Y-82917157D01*
X193157196Y-82917157D02*
X193157196Y-82702871D01*
X193157196Y-82702871D02*
X193192910Y-82631442D01*
X193192910Y-82631442D02*
X193228624Y-82595728D01*
X193228624Y-82595728D02*
X193300053Y-82560014D01*
X193300053Y-82560014D02*
X193407196Y-82560014D01*
X193407196Y-82560014D02*
X193478624Y-82595728D01*
X193478624Y-82595728D02*
X193514339Y-82631442D01*
X193514339Y-82631442D02*
X193550053Y-82702871D01*
X193550053Y-82702871D02*
X193550053Y-82917157D01*
X193550053Y-82917157D02*
X193514339Y-82988585D01*
X193514339Y-82988585D02*
X193478624Y-83024300D01*
X193478624Y-83024300D02*
X193407196Y-83060014D01*
X193407196Y-83060014D02*
X193300053Y-83060014D01*
X193871481Y-83060014D02*
X193871481Y-82560014D01*
X193871481Y-82702871D02*
X193907195Y-82631442D01*
X193907195Y-82631442D02*
X193942910Y-82595728D01*
X193942910Y-82595728D02*
X194014338Y-82560014D01*
X194014338Y-82560014D02*
X194085767Y-82560014D01*
X194335767Y-82774300D02*
X194907196Y-82774300D01*
X195264338Y-83060014D02*
X195264338Y-82310014D01*
X195264338Y-82310014D02*
X195550052Y-82310014D01*
X195550052Y-82310014D02*
X195621481Y-82345728D01*
X195621481Y-82345728D02*
X195657195Y-82381442D01*
X195657195Y-82381442D02*
X195692909Y-82452871D01*
X195692909Y-82452871D02*
X195692909Y-82560014D01*
X195692909Y-82560014D02*
X195657195Y-82631442D01*
X195657195Y-82631442D02*
X195621481Y-82667157D01*
X195621481Y-82667157D02*
X195550052Y-82702871D01*
X195550052Y-82702871D02*
X195264338Y-82702871D01*
X196121481Y-83060014D02*
X196050052Y-83024300D01*
X196050052Y-83024300D02*
X196014338Y-82988585D01*
X196014338Y-82988585D02*
X195978624Y-82917157D01*
X195978624Y-82917157D02*
X195978624Y-82702871D01*
X195978624Y-82702871D02*
X196014338Y-82631442D01*
X196014338Y-82631442D02*
X196050052Y-82595728D01*
X196050052Y-82595728D02*
X196121481Y-82560014D01*
X196121481Y-82560014D02*
X196228624Y-82560014D01*
X196228624Y-82560014D02*
X196300052Y-82595728D01*
X196300052Y-82595728D02*
X196335767Y-82631442D01*
X196335767Y-82631442D02*
X196371481Y-82702871D01*
X196371481Y-82702871D02*
X196371481Y-82917157D01*
X196371481Y-82917157D02*
X196335767Y-82988585D01*
X196335767Y-82988585D02*
X196300052Y-83024300D01*
X196300052Y-83024300D02*
X196228624Y-83060014D01*
X196228624Y-83060014D02*
X196121481Y-83060014D01*
X196621480Y-82560014D02*
X196764338Y-83060014D01*
X196764338Y-83060014D02*
X196907195Y-82702871D01*
X196907195Y-82702871D02*
X197050052Y-83060014D01*
X197050052Y-83060014D02*
X197192909Y-82560014D01*
X197764337Y-83024300D02*
X197692909Y-83060014D01*
X197692909Y-83060014D02*
X197550052Y-83060014D01*
X197550052Y-83060014D02*
X197478623Y-83024300D01*
X197478623Y-83024300D02*
X197442909Y-82952871D01*
X197442909Y-82952871D02*
X197442909Y-82667157D01*
X197442909Y-82667157D02*
X197478623Y-82595728D01*
X197478623Y-82595728D02*
X197550052Y-82560014D01*
X197550052Y-82560014D02*
X197692909Y-82560014D01*
X197692909Y-82560014D02*
X197764337Y-82595728D01*
X197764337Y-82595728D02*
X197800052Y-82667157D01*
X197800052Y-82667157D02*
X197800052Y-82738585D01*
X197800052Y-82738585D02*
X197442909Y-82810014D01*
X198121480Y-83060014D02*
X198121480Y-82560014D01*
X198121480Y-82702871D02*
X198157194Y-82631442D01*
X198157194Y-82631442D02*
X198192909Y-82595728D01*
X198192909Y-82595728D02*
X198264337Y-82560014D01*
X198264337Y-82560014D02*
X198335766Y-82560014D01*
X198835766Y-82667157D02*
X198942909Y-82702871D01*
X198942909Y-82702871D02*
X198978623Y-82738585D01*
X198978623Y-82738585D02*
X199014337Y-82810014D01*
X199014337Y-82810014D02*
X199014337Y-82917157D01*
X199014337Y-82917157D02*
X198978623Y-82988585D01*
X198978623Y-82988585D02*
X198942909Y-83024300D01*
X198942909Y-83024300D02*
X198871480Y-83060014D01*
X198871480Y-83060014D02*
X198585766Y-83060014D01*
X198585766Y-83060014D02*
X198585766Y-82310014D01*
X198585766Y-82310014D02*
X198835766Y-82310014D01*
X198835766Y-82310014D02*
X198907195Y-82345728D01*
X198907195Y-82345728D02*
X198942909Y-82381442D01*
X198942909Y-82381442D02*
X198978623Y-82452871D01*
X198978623Y-82452871D02*
X198978623Y-82524300D01*
X198978623Y-82524300D02*
X198942909Y-82595728D01*
X198942909Y-82595728D02*
X198907195Y-82631442D01*
X198907195Y-82631442D02*
X198835766Y-82667157D01*
X198835766Y-82667157D02*
X198585766Y-82667157D01*
X199442909Y-83060014D02*
X199371480Y-83024300D01*
X199371480Y-83024300D02*
X199335766Y-82988585D01*
X199335766Y-82988585D02*
X199300052Y-82917157D01*
X199300052Y-82917157D02*
X199300052Y-82702871D01*
X199300052Y-82702871D02*
X199335766Y-82631442D01*
X199335766Y-82631442D02*
X199371480Y-82595728D01*
X199371480Y-82595728D02*
X199442909Y-82560014D01*
X199442909Y-82560014D02*
X199550052Y-82560014D01*
X199550052Y-82560014D02*
X199621480Y-82595728D01*
X199621480Y-82595728D02*
X199657195Y-82631442D01*
X199657195Y-82631442D02*
X199692909Y-82702871D01*
X199692909Y-82702871D02*
X199692909Y-82917157D01*
X199692909Y-82917157D02*
X199657195Y-82988585D01*
X199657195Y-82988585D02*
X199621480Y-83024300D01*
X199621480Y-83024300D02*
X199550052Y-83060014D01*
X199550052Y-83060014D02*
X199442909Y-83060014D01*
X200335766Y-83060014D02*
X200335766Y-82667157D01*
X200335766Y-82667157D02*
X200300051Y-82595728D01*
X200300051Y-82595728D02*
X200228623Y-82560014D01*
X200228623Y-82560014D02*
X200085766Y-82560014D01*
X200085766Y-82560014D02*
X200014337Y-82595728D01*
X200335766Y-83024300D02*
X200264337Y-83060014D01*
X200264337Y-83060014D02*
X200085766Y-83060014D01*
X200085766Y-83060014D02*
X200014337Y-83024300D01*
X200014337Y-83024300D02*
X199978623Y-82952871D01*
X199978623Y-82952871D02*
X199978623Y-82881442D01*
X199978623Y-82881442D02*
X200014337Y-82810014D01*
X200014337Y-82810014D02*
X200085766Y-82774300D01*
X200085766Y-82774300D02*
X200264337Y-82774300D01*
X200264337Y-82774300D02*
X200335766Y-82738585D01*
X200692908Y-83060014D02*
X200692908Y-82560014D01*
X200692908Y-82702871D02*
X200728622Y-82631442D01*
X200728622Y-82631442D02*
X200764337Y-82595728D01*
X200764337Y-82595728D02*
X200835765Y-82560014D01*
X200835765Y-82560014D02*
X200907194Y-82560014D01*
X201478623Y-83060014D02*
X201478623Y-82310014D01*
X201478623Y-83024300D02*
X201407194Y-83060014D01*
X201407194Y-83060014D02*
X201264337Y-83060014D01*
X201264337Y-83060014D02*
X201192908Y-83024300D01*
X201192908Y-83024300D02*
X201157194Y-82988585D01*
X201157194Y-82988585D02*
X201121480Y-82917157D01*
X201121480Y-82917157D02*
X201121480Y-82702871D01*
X201121480Y-82702871D02*
X201157194Y-82631442D01*
X201157194Y-82631442D02*
X201192908Y-82595728D01*
X201192908Y-82595728D02*
X201264337Y-82560014D01*
X201264337Y-82560014D02*
X201407194Y-82560014D01*
X201407194Y-82560014D02*
X201478623Y-82595728D01*
X202335765Y-82560014D02*
X202514337Y-83060014D01*
X202514337Y-83060014D02*
X202692908Y-82560014D01*
X203121480Y-82310014D02*
X203192909Y-82310014D01*
X203192909Y-82310014D02*
X203264337Y-82345728D01*
X203264337Y-82345728D02*
X203300052Y-82381442D01*
X203300052Y-82381442D02*
X203335766Y-82452871D01*
X203335766Y-82452871D02*
X203371480Y-82595728D01*
X203371480Y-82595728D02*
X203371480Y-82774300D01*
X203371480Y-82774300D02*
X203335766Y-82917157D01*
X203335766Y-82917157D02*
X203300052Y-82988585D01*
X203300052Y-82988585D02*
X203264337Y-83024300D01*
X203264337Y-83024300D02*
X203192909Y-83060014D01*
X203192909Y-83060014D02*
X203121480Y-83060014D01*
X203121480Y-83060014D02*
X203050052Y-83024300D01*
X203050052Y-83024300D02*
X203014337Y-82988585D01*
X203014337Y-82988585D02*
X202978623Y-82917157D01*
X202978623Y-82917157D02*
X202942909Y-82774300D01*
X202942909Y-82774300D02*
X202942909Y-82595728D01*
X202942909Y-82595728D02*
X202978623Y-82452871D01*
X202978623Y-82452871D02*
X203014337Y-82381442D01*
X203014337Y-82381442D02*
X203050052Y-82345728D01*
X203050052Y-82345728D02*
X203121480Y-82310014D01*
X204085766Y-83060014D02*
X203657195Y-83060014D01*
X203871480Y-83060014D02*
X203871480Y-82310014D01*
X203871480Y-82310014D02*
X203800052Y-82417157D01*
X203800052Y-82417157D02*
X203728623Y-82488585D01*
X203728623Y-82488585D02*
X203657195Y-82524300D01*
X204728624Y-83060014D02*
X204728624Y-82667157D01*
X204728624Y-82667157D02*
X204692909Y-82595728D01*
X204692909Y-82595728D02*
X204621481Y-82560014D01*
X204621481Y-82560014D02*
X204478624Y-82560014D01*
X204478624Y-82560014D02*
X204407195Y-82595728D01*
X204728624Y-83024300D02*
X204657195Y-83060014D01*
X204657195Y-83060014D02*
X204478624Y-83060014D01*
X204478624Y-83060014D02*
X204407195Y-83024300D01*
X204407195Y-83024300D02*
X204371481Y-82952871D01*
X204371481Y-82952871D02*
X204371481Y-82881442D01*
X204371481Y-82881442D02*
X204407195Y-82810014D01*
X204407195Y-82810014D02*
X204478624Y-82774300D01*
X204478624Y-82774300D02*
X204657195Y-82774300D01*
X204657195Y-82774300D02*
X204728624Y-82738585D01*
X171985414Y-66778744D02*
X171235414Y-66778744D01*
X171235414Y-66778744D02*
X171235414Y-66493030D01*
X171235414Y-66493030D02*
X171271128Y-66421601D01*
X171271128Y-66421601D02*
X171306842Y-66385887D01*
X171306842Y-66385887D02*
X171378271Y-66350173D01*
X171378271Y-66350173D02*
X171485414Y-66350173D01*
X171485414Y-66350173D02*
X171556842Y-66385887D01*
X171556842Y-66385887D02*
X171592557Y-66421601D01*
X171592557Y-66421601D02*
X171628271Y-66493030D01*
X171628271Y-66493030D02*
X171628271Y-66778744D01*
X171592557Y-66028744D02*
X171592557Y-65778744D01*
X171985414Y-65671601D02*
X171985414Y-66028744D01*
X171985414Y-66028744D02*
X171235414Y-66028744D01*
X171235414Y-66028744D02*
X171235414Y-65671601D01*
X171985414Y-64993030D02*
X171985414Y-65350173D01*
X171985414Y-65350173D02*
X171235414Y-65350173D01*
X171235414Y-64850173D02*
X171235414Y-64421602D01*
X171985414Y-64635887D02*
X171235414Y-64635887D01*
X171985414Y-64171601D02*
X171235414Y-64171601D01*
X171592557Y-63814458D02*
X171592557Y-63564458D01*
X171985414Y-63457315D02*
X171985414Y-63814458D01*
X171985414Y-63814458D02*
X171235414Y-63814458D01*
X171235414Y-63814458D02*
X171235414Y-63457315D01*
X171985414Y-62707316D02*
X171628271Y-62957316D01*
X171985414Y-63135887D02*
X171235414Y-63135887D01*
X171235414Y-63135887D02*
X171235414Y-62850173D01*
X171235414Y-62850173D02*
X171271128Y-62778744D01*
X171271128Y-62778744D02*
X171306842Y-62743030D01*
X171306842Y-62743030D02*
X171378271Y-62707316D01*
X171378271Y-62707316D02*
X171485414Y-62707316D01*
X171485414Y-62707316D02*
X171556842Y-62743030D01*
X171556842Y-62743030D02*
X171592557Y-62778744D01*
X171592557Y-62778744D02*
X171628271Y-62850173D01*
X171628271Y-62850173D02*
X171628271Y-63135887D01*
X172056842Y-62564459D02*
X172056842Y-61993030D01*
X171306842Y-61850172D02*
X171271128Y-61814458D01*
X171271128Y-61814458D02*
X171235414Y-61743030D01*
X171235414Y-61743030D02*
X171235414Y-61564458D01*
X171235414Y-61564458D02*
X171271128Y-61493030D01*
X171271128Y-61493030D02*
X171306842Y-61457315D01*
X171306842Y-61457315D02*
X171378271Y-61421601D01*
X171378271Y-61421601D02*
X171449700Y-61421601D01*
X171449700Y-61421601D02*
X171556842Y-61457315D01*
X171556842Y-61457315D02*
X171985414Y-61885887D01*
X171985414Y-61885887D02*
X171985414Y-61421601D01*
X115105714Y-71528414D02*
X114677143Y-71528414D01*
X114891428Y-71528414D02*
X114891428Y-70778414D01*
X114891428Y-70778414D02*
X114820000Y-70885557D01*
X114820000Y-70885557D02*
X114748571Y-70956985D01*
X114748571Y-70956985D02*
X114677143Y-70992700D01*
X115391429Y-70849842D02*
X115427143Y-70814128D01*
X115427143Y-70814128D02*
X115498572Y-70778414D01*
X115498572Y-70778414D02*
X115677143Y-70778414D01*
X115677143Y-70778414D02*
X115748572Y-70814128D01*
X115748572Y-70814128D02*
X115784286Y-70849842D01*
X115784286Y-70849842D02*
X115820000Y-70921271D01*
X115820000Y-70921271D02*
X115820000Y-70992700D01*
X115820000Y-70992700D02*
X115784286Y-71099842D01*
X115784286Y-71099842D02*
X115355714Y-71528414D01*
X115355714Y-71528414D02*
X115820000Y-71528414D01*
X116034286Y-70778414D02*
X116284286Y-71528414D01*
X116284286Y-71528414D02*
X116534286Y-70778414D01*
X137753571Y-73699414D02*
X138182143Y-73699414D01*
X137967857Y-74449414D02*
X137967857Y-73699414D01*
X138396429Y-74235128D02*
X138753572Y-74235128D01*
X138325000Y-74449414D02*
X138575000Y-73699414D01*
X138575000Y-73699414D02*
X138825000Y-74449414D01*
X139503571Y-74377985D02*
X139467857Y-74413700D01*
X139467857Y-74413700D02*
X139360714Y-74449414D01*
X139360714Y-74449414D02*
X139289286Y-74449414D01*
X139289286Y-74449414D02*
X139182143Y-74413700D01*
X139182143Y-74413700D02*
X139110714Y-74342271D01*
X139110714Y-74342271D02*
X139075000Y-74270842D01*
X139075000Y-74270842D02*
X139039286Y-74127985D01*
X139039286Y-74127985D02*
X139039286Y-74020842D01*
X139039286Y-74020842D02*
X139075000Y-73877985D01*
X139075000Y-73877985D02*
X139110714Y-73806557D01*
X139110714Y-73806557D02*
X139182143Y-73735128D01*
X139182143Y-73735128D02*
X139289286Y-73699414D01*
X139289286Y-73699414D02*
X139360714Y-73699414D01*
X139360714Y-73699414D02*
X139467857Y-73735128D01*
X139467857Y-73735128D02*
X139503571Y-73770842D01*
X139825000Y-74449414D02*
X139825000Y-73699414D01*
X139825000Y-74056557D02*
X140253571Y-74056557D01*
X140253571Y-74449414D02*
X140253571Y-73699414D01*
X140432143Y-74520842D02*
X141003571Y-74520842D01*
X141575000Y-74449414D02*
X141146429Y-74449414D01*
X141360714Y-74449414D02*
X141360714Y-73699414D01*
X141360714Y-73699414D02*
X141289286Y-73806557D01*
X141289286Y-73806557D02*
X141217857Y-73877985D01*
X141217857Y-73877985D02*
X141146429Y-73913700D01*
X122513571Y-73699414D02*
X122942143Y-73699414D01*
X122727857Y-74449414D02*
X122727857Y-73699414D01*
X123156429Y-74235128D02*
X123513572Y-74235128D01*
X123085000Y-74449414D02*
X123335000Y-73699414D01*
X123335000Y-73699414D02*
X123585000Y-74449414D01*
X124263571Y-74377985D02*
X124227857Y-74413700D01*
X124227857Y-74413700D02*
X124120714Y-74449414D01*
X124120714Y-74449414D02*
X124049286Y-74449414D01*
X124049286Y-74449414D02*
X123942143Y-74413700D01*
X123942143Y-74413700D02*
X123870714Y-74342271D01*
X123870714Y-74342271D02*
X123835000Y-74270842D01*
X123835000Y-74270842D02*
X123799286Y-74127985D01*
X123799286Y-74127985D02*
X123799286Y-74020842D01*
X123799286Y-74020842D02*
X123835000Y-73877985D01*
X123835000Y-73877985D02*
X123870714Y-73806557D01*
X123870714Y-73806557D02*
X123942143Y-73735128D01*
X123942143Y-73735128D02*
X124049286Y-73699414D01*
X124049286Y-73699414D02*
X124120714Y-73699414D01*
X124120714Y-73699414D02*
X124227857Y-73735128D01*
X124227857Y-73735128D02*
X124263571Y-73770842D01*
X124585000Y-74449414D02*
X124585000Y-73699414D01*
X124585000Y-74056557D02*
X125013571Y-74056557D01*
X125013571Y-74449414D02*
X125013571Y-73699414D01*
X125192143Y-74520842D02*
X125763571Y-74520842D01*
X125906429Y-73770842D02*
X125942143Y-73735128D01*
X125942143Y-73735128D02*
X126013572Y-73699414D01*
X126013572Y-73699414D02*
X126192143Y-73699414D01*
X126192143Y-73699414D02*
X126263572Y-73735128D01*
X126263572Y-73735128D02*
X126299286Y-73770842D01*
X126299286Y-73770842D02*
X126335000Y-73842271D01*
X126335000Y-73842271D02*
X126335000Y-73913700D01*
X126335000Y-73913700D02*
X126299286Y-74020842D01*
X126299286Y-74020842D02*
X125870714Y-74449414D01*
X125870714Y-74449414D02*
X126335000Y-74449414D01*
X126535714Y-73433414D02*
X126107143Y-73433414D01*
X126321428Y-73433414D02*
X126321428Y-72683414D01*
X126321428Y-72683414D02*
X126250000Y-72790557D01*
X126250000Y-72790557D02*
X126178571Y-72861985D01*
X126178571Y-72861985D02*
X126107143Y-72897700D01*
X126821429Y-72754842D02*
X126857143Y-72719128D01*
X126857143Y-72719128D02*
X126928572Y-72683414D01*
X126928572Y-72683414D02*
X127107143Y-72683414D01*
X127107143Y-72683414D02*
X127178572Y-72719128D01*
X127178572Y-72719128D02*
X127214286Y-72754842D01*
X127214286Y-72754842D02*
X127250000Y-72826271D01*
X127250000Y-72826271D02*
X127250000Y-72897700D01*
X127250000Y-72897700D02*
X127214286Y-73004842D01*
X127214286Y-73004842D02*
X126785714Y-73433414D01*
X126785714Y-73433414D02*
X127250000Y-73433414D01*
X127464286Y-72683414D02*
X127714286Y-73433414D01*
X127714286Y-73433414D02*
X127964286Y-72683414D01*
X157015714Y-81688414D02*
X156587143Y-81688414D01*
X156801428Y-81688414D02*
X156801428Y-80938414D01*
X156801428Y-80938414D02*
X156730000Y-81045557D01*
X156730000Y-81045557D02*
X156658571Y-81116985D01*
X156658571Y-81116985D02*
X156587143Y-81152700D01*
X157301429Y-81009842D02*
X157337143Y-80974128D01*
X157337143Y-80974128D02*
X157408572Y-80938414D01*
X157408572Y-80938414D02*
X157587143Y-80938414D01*
X157587143Y-80938414D02*
X157658572Y-80974128D01*
X157658572Y-80974128D02*
X157694286Y-81009842D01*
X157694286Y-81009842D02*
X157730000Y-81081271D01*
X157730000Y-81081271D02*
X157730000Y-81152700D01*
X157730000Y-81152700D02*
X157694286Y-81259842D01*
X157694286Y-81259842D02*
X157265714Y-81688414D01*
X157265714Y-81688414D02*
X157730000Y-81688414D01*
X157944286Y-80938414D02*
X158194286Y-81688414D01*
X158194286Y-81688414D02*
X158444286Y-80938414D01*
X160210571Y-62432128D02*
X160139143Y-62396414D01*
X160139143Y-62396414D02*
X160032000Y-62396414D01*
X160032000Y-62396414D02*
X159924857Y-62432128D01*
X159924857Y-62432128D02*
X159853428Y-62503557D01*
X159853428Y-62503557D02*
X159817714Y-62574985D01*
X159817714Y-62574985D02*
X159782000Y-62717842D01*
X159782000Y-62717842D02*
X159782000Y-62824985D01*
X159782000Y-62824985D02*
X159817714Y-62967842D01*
X159817714Y-62967842D02*
X159853428Y-63039271D01*
X159853428Y-63039271D02*
X159924857Y-63110700D01*
X159924857Y-63110700D02*
X160032000Y-63146414D01*
X160032000Y-63146414D02*
X160103428Y-63146414D01*
X160103428Y-63146414D02*
X160210571Y-63110700D01*
X160210571Y-63110700D02*
X160246285Y-63074985D01*
X160246285Y-63074985D02*
X160246285Y-62824985D01*
X160246285Y-62824985D02*
X160103428Y-62824985D01*
X160567714Y-63146414D02*
X160567714Y-62396414D01*
X160567714Y-62396414D02*
X160996285Y-63146414D01*
X160996285Y-63146414D02*
X160996285Y-62396414D01*
X161353428Y-63146414D02*
X161353428Y-62396414D01*
X161353428Y-62396414D02*
X161531999Y-62396414D01*
X161531999Y-62396414D02*
X161639142Y-62432128D01*
X161639142Y-62432128D02*
X161710571Y-62503557D01*
X161710571Y-62503557D02*
X161746285Y-62574985D01*
X161746285Y-62574985D02*
X161781999Y-62717842D01*
X161781999Y-62717842D02*
X161781999Y-62824985D01*
X161781999Y-62824985D02*
X161746285Y-62967842D01*
X161746285Y-62967842D02*
X161710571Y-63039271D01*
X161710571Y-63039271D02*
X161639142Y-63110700D01*
X161639142Y-63110700D02*
X161531999Y-63146414D01*
X161531999Y-63146414D02*
X161353428Y-63146414D01*
X144208571Y-72719128D02*
X144137143Y-72683414D01*
X144137143Y-72683414D02*
X144030000Y-72683414D01*
X144030000Y-72683414D02*
X143922857Y-72719128D01*
X143922857Y-72719128D02*
X143851428Y-72790557D01*
X143851428Y-72790557D02*
X143815714Y-72861985D01*
X143815714Y-72861985D02*
X143780000Y-73004842D01*
X143780000Y-73004842D02*
X143780000Y-73111985D01*
X143780000Y-73111985D02*
X143815714Y-73254842D01*
X143815714Y-73254842D02*
X143851428Y-73326271D01*
X143851428Y-73326271D02*
X143922857Y-73397700D01*
X143922857Y-73397700D02*
X144030000Y-73433414D01*
X144030000Y-73433414D02*
X144101428Y-73433414D01*
X144101428Y-73433414D02*
X144208571Y-73397700D01*
X144208571Y-73397700D02*
X144244285Y-73361985D01*
X144244285Y-73361985D02*
X144244285Y-73111985D01*
X144244285Y-73111985D02*
X144101428Y-73111985D01*
X144565714Y-73433414D02*
X144565714Y-72683414D01*
X144565714Y-72683414D02*
X144994285Y-73433414D01*
X144994285Y-73433414D02*
X144994285Y-72683414D01*
X145351428Y-73433414D02*
X145351428Y-72683414D01*
X145351428Y-72683414D02*
X145529999Y-72683414D01*
X145529999Y-72683414D02*
X145637142Y-72719128D01*
X145637142Y-72719128D02*
X145708571Y-72790557D01*
X145708571Y-72790557D02*
X145744285Y-72861985D01*
X145744285Y-72861985D02*
X145779999Y-73004842D01*
X145779999Y-73004842D02*
X145779999Y-73111985D01*
X145779999Y-73111985D02*
X145744285Y-73254842D01*
X145744285Y-73254842D02*
X145708571Y-73326271D01*
X145708571Y-73326271D02*
X145637142Y-73397700D01*
X145637142Y-73397700D02*
X145529999Y-73433414D01*
X145529999Y-73433414D02*
X145351428Y-73433414D01*
X161964414Y-81621887D02*
X161964414Y-81479030D01*
X161964414Y-81479030D02*
X162000128Y-81407601D01*
X162000128Y-81407601D02*
X162071557Y-81336173D01*
X162071557Y-81336173D02*
X162214414Y-81300458D01*
X162214414Y-81300458D02*
X162464414Y-81300458D01*
X162464414Y-81300458D02*
X162607271Y-81336173D01*
X162607271Y-81336173D02*
X162678700Y-81407601D01*
X162678700Y-81407601D02*
X162714414Y-81479030D01*
X162714414Y-81479030D02*
X162714414Y-81621887D01*
X162714414Y-81621887D02*
X162678700Y-81693316D01*
X162678700Y-81693316D02*
X162607271Y-81764744D01*
X162607271Y-81764744D02*
X162464414Y-81800458D01*
X162464414Y-81800458D02*
X162214414Y-81800458D01*
X162214414Y-81800458D02*
X162071557Y-81764744D01*
X162071557Y-81764744D02*
X162000128Y-81693316D01*
X162000128Y-81693316D02*
X161964414Y-81621887D01*
X161964414Y-80979030D02*
X162571557Y-80979030D01*
X162571557Y-80979030D02*
X162642985Y-80943316D01*
X162642985Y-80943316D02*
X162678700Y-80907602D01*
X162678700Y-80907602D02*
X162714414Y-80836173D01*
X162714414Y-80836173D02*
X162714414Y-80693316D01*
X162714414Y-80693316D02*
X162678700Y-80621887D01*
X162678700Y-80621887D02*
X162642985Y-80586173D01*
X162642985Y-80586173D02*
X162571557Y-80550459D01*
X162571557Y-80550459D02*
X161964414Y-80550459D01*
X161964414Y-80300459D02*
X161964414Y-79871888D01*
X162714414Y-80086173D02*
X161964414Y-80086173D01*
X162785842Y-79800459D02*
X162785842Y-79229030D01*
X162321557Y-78800458D02*
X162321557Y-79050458D01*
X162714414Y-79050458D02*
X161964414Y-79050458D01*
X161964414Y-79050458D02*
X161964414Y-78693315D01*
X162500128Y-78443315D02*
X162500128Y-78086173D01*
X162714414Y-78514744D02*
X161964414Y-78264744D01*
X161964414Y-78264744D02*
X162714414Y-78014744D01*
X162714414Y-77764744D02*
X161964414Y-77764744D01*
X161964414Y-77764744D02*
X162714414Y-77336173D01*
X162714414Y-77336173D02*
X161964414Y-77336173D01*
X162785842Y-77157602D02*
X162785842Y-76586173D01*
X162714414Y-76014744D02*
X162714414Y-76443315D01*
X162714414Y-76229030D02*
X161964414Y-76229030D01*
X161964414Y-76229030D02*
X162071557Y-76300458D01*
X162071557Y-76300458D02*
X162142985Y-76371887D01*
X162142985Y-76371887D02*
X162178700Y-76443315D01*
X141775714Y-73433414D02*
X141347143Y-73433414D01*
X141561428Y-73433414D02*
X141561428Y-72683414D01*
X141561428Y-72683414D02*
X141490000Y-72790557D01*
X141490000Y-72790557D02*
X141418571Y-72861985D01*
X141418571Y-72861985D02*
X141347143Y-72897700D01*
X142061429Y-72754842D02*
X142097143Y-72719128D01*
X142097143Y-72719128D02*
X142168572Y-72683414D01*
X142168572Y-72683414D02*
X142347143Y-72683414D01*
X142347143Y-72683414D02*
X142418572Y-72719128D01*
X142418572Y-72719128D02*
X142454286Y-72754842D01*
X142454286Y-72754842D02*
X142490000Y-72826271D01*
X142490000Y-72826271D02*
X142490000Y-72897700D01*
X142490000Y-72897700D02*
X142454286Y-73004842D01*
X142454286Y-73004842D02*
X142025714Y-73433414D01*
X142025714Y-73433414D02*
X142490000Y-73433414D01*
X142704286Y-72683414D02*
X142954286Y-73433414D01*
X142954286Y-73433414D02*
X143204286Y-72683414D01*
X135912429Y-27066557D02*
X136162429Y-27066557D01*
X136269572Y-27459414D02*
X135912429Y-27459414D01*
X135912429Y-27459414D02*
X135912429Y-26709414D01*
X135912429Y-26709414D02*
X136269572Y-26709414D01*
X136519571Y-26709414D02*
X137019571Y-27459414D01*
X137019571Y-26709414D02*
X136519571Y-27459414D01*
X137198143Y-26709414D02*
X137626715Y-26709414D01*
X137412429Y-27459414D02*
X137412429Y-26709414D01*
X137876715Y-27066557D02*
X138126715Y-27066557D01*
X138233858Y-27459414D02*
X137876715Y-27459414D01*
X137876715Y-27459414D02*
X137876715Y-26709414D01*
X137876715Y-26709414D02*
X138233858Y-26709414D01*
X138555286Y-27459414D02*
X138555286Y-26709414D01*
X138555286Y-26709414D02*
X138983857Y-27459414D01*
X138983857Y-27459414D02*
X138983857Y-26709414D01*
X139233857Y-26709414D02*
X139662429Y-26709414D01*
X139448143Y-27459414D02*
X139448143Y-26709414D01*
X139912429Y-27459414D02*
X139912429Y-26709414D01*
X140412429Y-26709414D02*
X140555286Y-26709414D01*
X140555286Y-26709414D02*
X140626715Y-26745128D01*
X140626715Y-26745128D02*
X140698143Y-26816557D01*
X140698143Y-26816557D02*
X140733858Y-26959414D01*
X140733858Y-26959414D02*
X140733858Y-27209414D01*
X140733858Y-27209414D02*
X140698143Y-27352271D01*
X140698143Y-27352271D02*
X140626715Y-27423700D01*
X140626715Y-27423700D02*
X140555286Y-27459414D01*
X140555286Y-27459414D02*
X140412429Y-27459414D01*
X140412429Y-27459414D02*
X140341001Y-27423700D01*
X140341001Y-27423700D02*
X140269572Y-27352271D01*
X140269572Y-27352271D02*
X140233858Y-27209414D01*
X140233858Y-27209414D02*
X140233858Y-26959414D01*
X140233858Y-26959414D02*
X140269572Y-26816557D01*
X140269572Y-26816557D02*
X140341001Y-26745128D01*
X140341001Y-26745128D02*
X140412429Y-26709414D01*
X141055286Y-27459414D02*
X141055286Y-26709414D01*
X141055286Y-26709414D02*
X141483857Y-27459414D01*
X141483857Y-27459414D02*
X141483857Y-26709414D01*
X142841000Y-27387985D02*
X142805286Y-27423700D01*
X142805286Y-27423700D02*
X142698143Y-27459414D01*
X142698143Y-27459414D02*
X142626715Y-27459414D01*
X142626715Y-27459414D02*
X142519572Y-27423700D01*
X142519572Y-27423700D02*
X142448143Y-27352271D01*
X142448143Y-27352271D02*
X142412429Y-27280842D01*
X142412429Y-27280842D02*
X142376715Y-27137985D01*
X142376715Y-27137985D02*
X142376715Y-27030842D01*
X142376715Y-27030842D02*
X142412429Y-26887985D01*
X142412429Y-26887985D02*
X142448143Y-26816557D01*
X142448143Y-26816557D02*
X142519572Y-26745128D01*
X142519572Y-26745128D02*
X142626715Y-26709414D01*
X142626715Y-26709414D02*
X142698143Y-26709414D01*
X142698143Y-26709414D02*
X142805286Y-26745128D01*
X142805286Y-26745128D02*
X142841000Y-26780842D01*
X143305286Y-26709414D02*
X143448143Y-26709414D01*
X143448143Y-26709414D02*
X143519572Y-26745128D01*
X143519572Y-26745128D02*
X143591000Y-26816557D01*
X143591000Y-26816557D02*
X143626715Y-26959414D01*
X143626715Y-26959414D02*
X143626715Y-27209414D01*
X143626715Y-27209414D02*
X143591000Y-27352271D01*
X143591000Y-27352271D02*
X143519572Y-27423700D01*
X143519572Y-27423700D02*
X143448143Y-27459414D01*
X143448143Y-27459414D02*
X143305286Y-27459414D01*
X143305286Y-27459414D02*
X143233858Y-27423700D01*
X143233858Y-27423700D02*
X143162429Y-27352271D01*
X143162429Y-27352271D02*
X143126715Y-27209414D01*
X143126715Y-27209414D02*
X143126715Y-26959414D01*
X143126715Y-26959414D02*
X143162429Y-26816557D01*
X143162429Y-26816557D02*
X143233858Y-26745128D01*
X143233858Y-26745128D02*
X143305286Y-26709414D01*
X143948143Y-27459414D02*
X143948143Y-26709414D01*
X143948143Y-26709414D02*
X144376714Y-27459414D01*
X144376714Y-27459414D02*
X144376714Y-26709414D01*
X144733857Y-27459414D02*
X144733857Y-26709414D01*
X144733857Y-26709414D02*
X145162428Y-27459414D01*
X145162428Y-27459414D02*
X145162428Y-26709414D01*
X145519571Y-27387985D02*
X145555285Y-27423700D01*
X145555285Y-27423700D02*
X145519571Y-27459414D01*
X145519571Y-27459414D02*
X145483857Y-27423700D01*
X145483857Y-27423700D02*
X145519571Y-27387985D01*
X145519571Y-27387985D02*
X145519571Y-27459414D01*
X111759398Y-61749414D02*
X111402255Y-61749414D01*
X111402255Y-61749414D02*
X111402255Y-60999414D01*
X112009398Y-61749414D02*
X112009398Y-60999414D01*
X112759398Y-61035128D02*
X112687970Y-60999414D01*
X112687970Y-60999414D02*
X112580827Y-60999414D01*
X112580827Y-60999414D02*
X112473684Y-61035128D01*
X112473684Y-61035128D02*
X112402255Y-61106557D01*
X112402255Y-61106557D02*
X112366541Y-61177985D01*
X112366541Y-61177985D02*
X112330827Y-61320842D01*
X112330827Y-61320842D02*
X112330827Y-61427985D01*
X112330827Y-61427985D02*
X112366541Y-61570842D01*
X112366541Y-61570842D02*
X112402255Y-61642271D01*
X112402255Y-61642271D02*
X112473684Y-61713700D01*
X112473684Y-61713700D02*
X112580827Y-61749414D01*
X112580827Y-61749414D02*
X112652255Y-61749414D01*
X112652255Y-61749414D02*
X112759398Y-61713700D01*
X112759398Y-61713700D02*
X112795112Y-61677985D01*
X112795112Y-61677985D02*
X112795112Y-61427985D01*
X112795112Y-61427985D02*
X112652255Y-61427985D01*
X113116541Y-61749414D02*
X113116541Y-60999414D01*
X113116541Y-61356557D02*
X113545112Y-61356557D01*
X113545112Y-61749414D02*
X113545112Y-60999414D01*
X113795112Y-60999414D02*
X114223684Y-60999414D01*
X114009398Y-61749414D02*
X114009398Y-60999414D01*
X114437970Y-61713700D02*
X114545113Y-61749414D01*
X114545113Y-61749414D02*
X114723684Y-61749414D01*
X114723684Y-61749414D02*
X114795113Y-61713700D01*
X114795113Y-61713700D02*
X114830827Y-61677985D01*
X114830827Y-61677985D02*
X114866541Y-61606557D01*
X114866541Y-61606557D02*
X114866541Y-61535128D01*
X114866541Y-61535128D02*
X114830827Y-61463700D01*
X114830827Y-61463700D02*
X114795113Y-61427985D01*
X114795113Y-61427985D02*
X114723684Y-61392271D01*
X114723684Y-61392271D02*
X114580827Y-61356557D01*
X114580827Y-61356557D02*
X114509398Y-61320842D01*
X114509398Y-61320842D02*
X114473684Y-61285128D01*
X114473684Y-61285128D02*
X114437970Y-61213700D01*
X114437970Y-61213700D02*
X114437970Y-61142271D01*
X114437970Y-61142271D02*
X114473684Y-61070842D01*
X114473684Y-61070842D02*
X114509398Y-61035128D01*
X114509398Y-61035128D02*
X114580827Y-60999414D01*
X114580827Y-60999414D02*
X114759398Y-60999414D01*
X114759398Y-60999414D02*
X114866541Y-61035128D01*
X173418571Y-62178128D02*
X173347143Y-62142414D01*
X173347143Y-62142414D02*
X173240000Y-62142414D01*
X173240000Y-62142414D02*
X173132857Y-62178128D01*
X173132857Y-62178128D02*
X173061428Y-62249557D01*
X173061428Y-62249557D02*
X173025714Y-62320985D01*
X173025714Y-62320985D02*
X172990000Y-62463842D01*
X172990000Y-62463842D02*
X172990000Y-62570985D01*
X172990000Y-62570985D02*
X173025714Y-62713842D01*
X173025714Y-62713842D02*
X173061428Y-62785271D01*
X173061428Y-62785271D02*
X173132857Y-62856700D01*
X173132857Y-62856700D02*
X173240000Y-62892414D01*
X173240000Y-62892414D02*
X173311428Y-62892414D01*
X173311428Y-62892414D02*
X173418571Y-62856700D01*
X173418571Y-62856700D02*
X173454285Y-62820985D01*
X173454285Y-62820985D02*
X173454285Y-62570985D01*
X173454285Y-62570985D02*
X173311428Y-62570985D01*
X173775714Y-62892414D02*
X173775714Y-62142414D01*
X173775714Y-62142414D02*
X174204285Y-62892414D01*
X174204285Y-62892414D02*
X174204285Y-62142414D01*
X174561428Y-62892414D02*
X174561428Y-62142414D01*
X174561428Y-62142414D02*
X174739999Y-62142414D01*
X174739999Y-62142414D02*
X174847142Y-62178128D01*
X174847142Y-62178128D02*
X174918571Y-62249557D01*
X174918571Y-62249557D02*
X174954285Y-62320985D01*
X174954285Y-62320985D02*
X174989999Y-62463842D01*
X174989999Y-62463842D02*
X174989999Y-62570985D01*
X174989999Y-62570985D02*
X174954285Y-62713842D01*
X174954285Y-62713842D02*
X174918571Y-62785271D01*
X174918571Y-62785271D02*
X174847142Y-62856700D01*
X174847142Y-62856700D02*
X174739999Y-62892414D01*
X174739999Y-62892414D02*
X174561428Y-62892414D01*
X152274999Y-60918164D02*
X152024999Y-60561021D01*
X151846428Y-60918164D02*
X151846428Y-60168164D01*
X151846428Y-60168164D02*
X152132142Y-60168164D01*
X152132142Y-60168164D02*
X152203571Y-60203878D01*
X152203571Y-60203878D02*
X152239285Y-60239592D01*
X152239285Y-60239592D02*
X152274999Y-60311021D01*
X152274999Y-60311021D02*
X152274999Y-60418164D01*
X152274999Y-60418164D02*
X152239285Y-60489592D01*
X152239285Y-60489592D02*
X152203571Y-60525307D01*
X152203571Y-60525307D02*
X152132142Y-60561021D01*
X152132142Y-60561021D02*
X151846428Y-60561021D01*
X152703571Y-60489592D02*
X152632142Y-60453878D01*
X152632142Y-60453878D02*
X152596428Y-60418164D01*
X152596428Y-60418164D02*
X152560714Y-60346735D01*
X152560714Y-60346735D02*
X152560714Y-60311021D01*
X152560714Y-60311021D02*
X152596428Y-60239592D01*
X152596428Y-60239592D02*
X152632142Y-60203878D01*
X152632142Y-60203878D02*
X152703571Y-60168164D01*
X152703571Y-60168164D02*
X152846428Y-60168164D01*
X152846428Y-60168164D02*
X152917857Y-60203878D01*
X152917857Y-60203878D02*
X152953571Y-60239592D01*
X152953571Y-60239592D02*
X152989285Y-60311021D01*
X152989285Y-60311021D02*
X152989285Y-60346735D01*
X152989285Y-60346735D02*
X152953571Y-60418164D01*
X152953571Y-60418164D02*
X152917857Y-60453878D01*
X152917857Y-60453878D02*
X152846428Y-60489592D01*
X152846428Y-60489592D02*
X152703571Y-60489592D01*
X152703571Y-60489592D02*
X152632142Y-60525307D01*
X152632142Y-60525307D02*
X152596428Y-60561021D01*
X152596428Y-60561021D02*
X152560714Y-60632450D01*
X152560714Y-60632450D02*
X152560714Y-60775307D01*
X152560714Y-60775307D02*
X152596428Y-60846735D01*
X152596428Y-60846735D02*
X152632142Y-60882450D01*
X152632142Y-60882450D02*
X152703571Y-60918164D01*
X152703571Y-60918164D02*
X152846428Y-60918164D01*
X152846428Y-60918164D02*
X152917857Y-60882450D01*
X152917857Y-60882450D02*
X152953571Y-60846735D01*
X152953571Y-60846735D02*
X152989285Y-60775307D01*
X152989285Y-60775307D02*
X152989285Y-60632450D01*
X152989285Y-60632450D02*
X152953571Y-60561021D01*
X152953571Y-60561021D02*
X152917857Y-60525307D01*
X152917857Y-60525307D02*
X152846428Y-60489592D01*
X138050999Y-68563564D02*
X137800999Y-68206421D01*
X137622428Y-68563564D02*
X137622428Y-67813564D01*
X137622428Y-67813564D02*
X137908142Y-67813564D01*
X137908142Y-67813564D02*
X137979571Y-67849278D01*
X137979571Y-67849278D02*
X138015285Y-67884992D01*
X138015285Y-67884992D02*
X138050999Y-67956421D01*
X138050999Y-67956421D02*
X138050999Y-68063564D01*
X138050999Y-68063564D02*
X138015285Y-68134992D01*
X138015285Y-68134992D02*
X137979571Y-68170707D01*
X137979571Y-68170707D02*
X137908142Y-68206421D01*
X137908142Y-68206421D02*
X137622428Y-68206421D01*
X138765285Y-68563564D02*
X138336714Y-68563564D01*
X138550999Y-68563564D02*
X138550999Y-67813564D01*
X138550999Y-67813564D02*
X138479571Y-67920707D01*
X138479571Y-67920707D02*
X138408142Y-67992135D01*
X138408142Y-67992135D02*
X138336714Y-68027850D01*
X119308571Y-64050592D02*
X119237142Y-64014878D01*
X119237142Y-64014878D02*
X119165714Y-63943450D01*
X119165714Y-63943450D02*
X119058571Y-63836307D01*
X119058571Y-63836307D02*
X118987142Y-63800592D01*
X118987142Y-63800592D02*
X118915714Y-63800592D01*
X118951428Y-63979164D02*
X118880000Y-63943450D01*
X118880000Y-63943450D02*
X118808571Y-63872021D01*
X118808571Y-63872021D02*
X118772857Y-63729164D01*
X118772857Y-63729164D02*
X118772857Y-63479164D01*
X118772857Y-63479164D02*
X118808571Y-63336307D01*
X118808571Y-63336307D02*
X118880000Y-63264878D01*
X118880000Y-63264878D02*
X118951428Y-63229164D01*
X118951428Y-63229164D02*
X119094285Y-63229164D01*
X119094285Y-63229164D02*
X119165714Y-63264878D01*
X119165714Y-63264878D02*
X119237142Y-63336307D01*
X119237142Y-63336307D02*
X119272857Y-63479164D01*
X119272857Y-63479164D02*
X119272857Y-63729164D01*
X119272857Y-63729164D02*
X119237142Y-63872021D01*
X119237142Y-63872021D02*
X119165714Y-63943450D01*
X119165714Y-63943450D02*
X119094285Y-63979164D01*
X119094285Y-63979164D02*
X118951428Y-63979164D01*
X119915714Y-63229164D02*
X119772856Y-63229164D01*
X119772856Y-63229164D02*
X119701428Y-63264878D01*
X119701428Y-63264878D02*
X119665714Y-63300592D01*
X119665714Y-63300592D02*
X119594285Y-63407735D01*
X119594285Y-63407735D02*
X119558571Y-63550592D01*
X119558571Y-63550592D02*
X119558571Y-63836307D01*
X119558571Y-63836307D02*
X119594285Y-63907735D01*
X119594285Y-63907735D02*
X119629999Y-63943450D01*
X119629999Y-63943450D02*
X119701428Y-63979164D01*
X119701428Y-63979164D02*
X119844285Y-63979164D01*
X119844285Y-63979164D02*
X119915714Y-63943450D01*
X119915714Y-63943450D02*
X119951428Y-63907735D01*
X119951428Y-63907735D02*
X119987142Y-63836307D01*
X119987142Y-63836307D02*
X119987142Y-63657735D01*
X119987142Y-63657735D02*
X119951428Y-63586307D01*
X119951428Y-63586307D02*
X119915714Y-63550592D01*
X119915714Y-63550592D02*
X119844285Y-63514878D01*
X119844285Y-63514878D02*
X119701428Y-63514878D01*
X119701428Y-63514878D02*
X119629999Y-63550592D01*
X119629999Y-63550592D02*
X119594285Y-63586307D01*
X119594285Y-63586307D02*
X119558571Y-63657735D01*
X173719407Y-74223571D02*
X173755121Y-74152142D01*
X173755121Y-74152142D02*
X173826550Y-74080714D01*
X173826550Y-74080714D02*
X173933692Y-73973571D01*
X173933692Y-73973571D02*
X173969407Y-73902142D01*
X173969407Y-73902142D02*
X173969407Y-73830714D01*
X173790835Y-73866428D02*
X173826550Y-73795000D01*
X173826550Y-73795000D02*
X173897978Y-73723571D01*
X173897978Y-73723571D02*
X174040835Y-73687857D01*
X174040835Y-73687857D02*
X174290835Y-73687857D01*
X174290835Y-73687857D02*
X174433692Y-73723571D01*
X174433692Y-73723571D02*
X174505121Y-73795000D01*
X174505121Y-73795000D02*
X174540835Y-73866428D01*
X174540835Y-73866428D02*
X174540835Y-74009285D01*
X174540835Y-74009285D02*
X174505121Y-74080714D01*
X174505121Y-74080714D02*
X174433692Y-74152142D01*
X174433692Y-74152142D02*
X174290835Y-74187857D01*
X174290835Y-74187857D02*
X174040835Y-74187857D01*
X174040835Y-74187857D02*
X173897978Y-74152142D01*
X173897978Y-74152142D02*
X173826550Y-74080714D01*
X173826550Y-74080714D02*
X173790835Y-74009285D01*
X173790835Y-74009285D02*
X173790835Y-73866428D01*
X174469407Y-74473571D02*
X174505121Y-74509285D01*
X174505121Y-74509285D02*
X174540835Y-74580714D01*
X174540835Y-74580714D02*
X174540835Y-74759285D01*
X174540835Y-74759285D02*
X174505121Y-74830714D01*
X174505121Y-74830714D02*
X174469407Y-74866428D01*
X174469407Y-74866428D02*
X174397978Y-74902142D01*
X174397978Y-74902142D02*
X174326550Y-74902142D01*
X174326550Y-74902142D02*
X174219407Y-74866428D01*
X174219407Y-74866428D02*
X173790835Y-74437856D01*
X173790835Y-74437856D02*
X173790835Y-74902142D01*
X112422857Y-73039164D02*
X112422857Y-73574878D01*
X112422857Y-73574878D02*
X112387142Y-73682021D01*
X112387142Y-73682021D02*
X112315714Y-73753450D01*
X112315714Y-73753450D02*
X112208571Y-73789164D01*
X112208571Y-73789164D02*
X112137142Y-73789164D01*
X113172857Y-73789164D02*
X112744286Y-73789164D01*
X112958571Y-73789164D02*
X112958571Y-73039164D01*
X112958571Y-73039164D02*
X112887143Y-73146307D01*
X112887143Y-73146307D02*
X112815714Y-73217735D01*
X112815714Y-73217735D02*
X112744286Y-73253450D01*
X113637143Y-73039164D02*
X113708572Y-73039164D01*
X113708572Y-73039164D02*
X113780000Y-73074878D01*
X113780000Y-73074878D02*
X113815715Y-73110592D01*
X113815715Y-73110592D02*
X113851429Y-73182021D01*
X113851429Y-73182021D02*
X113887143Y-73324878D01*
X113887143Y-73324878D02*
X113887143Y-73503450D01*
X113887143Y-73503450D02*
X113851429Y-73646307D01*
X113851429Y-73646307D02*
X113815715Y-73717735D01*
X113815715Y-73717735D02*
X113780000Y-73753450D01*
X113780000Y-73753450D02*
X113708572Y-73789164D01*
X113708572Y-73789164D02*
X113637143Y-73789164D01*
X113637143Y-73789164D02*
X113565715Y-73753450D01*
X113565715Y-73753450D02*
X113530000Y-73717735D01*
X113530000Y-73717735D02*
X113494286Y-73646307D01*
X113494286Y-73646307D02*
X113458572Y-73503450D01*
X113458572Y-73503450D02*
X113458572Y-73324878D01*
X113458572Y-73324878D02*
X113494286Y-73182021D01*
X113494286Y-73182021D02*
X113530000Y-73110592D01*
X113530000Y-73110592D02*
X113565715Y-73074878D01*
X113565715Y-73074878D02*
X113637143Y-73039164D01*
X124640835Y-58170000D02*
X124105121Y-58170000D01*
X124105121Y-58170000D02*
X123997978Y-58134285D01*
X123997978Y-58134285D02*
X123926550Y-58062857D01*
X123926550Y-58062857D02*
X123890835Y-57955714D01*
X123890835Y-57955714D02*
X123890835Y-57884285D01*
X124569407Y-58491429D02*
X124605121Y-58527143D01*
X124605121Y-58527143D02*
X124640835Y-58598572D01*
X124640835Y-58598572D02*
X124640835Y-58777143D01*
X124640835Y-58777143D02*
X124605121Y-58848572D01*
X124605121Y-58848572D02*
X124569407Y-58884286D01*
X124569407Y-58884286D02*
X124497978Y-58920000D01*
X124497978Y-58920000D02*
X124426550Y-58920000D01*
X124426550Y-58920000D02*
X124319407Y-58884286D01*
X124319407Y-58884286D02*
X123890835Y-58455714D01*
X123890835Y-58455714D02*
X123890835Y-58920000D01*
X166990835Y-79125000D02*
X166455121Y-79125000D01*
X166455121Y-79125000D02*
X166347978Y-79089285D01*
X166347978Y-79089285D02*
X166276550Y-79017857D01*
X166276550Y-79017857D02*
X166240835Y-78910714D01*
X166240835Y-78910714D02*
X166240835Y-78839285D01*
X166740835Y-79803572D02*
X166240835Y-79803572D01*
X167026550Y-79625000D02*
X166490835Y-79446429D01*
X166490835Y-79446429D02*
X166490835Y-79910714D01*
X157354999Y-60918164D02*
X157104999Y-60561021D01*
X156926428Y-60918164D02*
X156926428Y-60168164D01*
X156926428Y-60168164D02*
X157212142Y-60168164D01*
X157212142Y-60168164D02*
X157283571Y-60203878D01*
X157283571Y-60203878D02*
X157319285Y-60239592D01*
X157319285Y-60239592D02*
X157354999Y-60311021D01*
X157354999Y-60311021D02*
X157354999Y-60418164D01*
X157354999Y-60418164D02*
X157319285Y-60489592D01*
X157319285Y-60489592D02*
X157283571Y-60525307D01*
X157283571Y-60525307D02*
X157212142Y-60561021D01*
X157212142Y-60561021D02*
X156926428Y-60561021D01*
X157997857Y-60168164D02*
X157854999Y-60168164D01*
X157854999Y-60168164D02*
X157783571Y-60203878D01*
X157783571Y-60203878D02*
X157747857Y-60239592D01*
X157747857Y-60239592D02*
X157676428Y-60346735D01*
X157676428Y-60346735D02*
X157640714Y-60489592D01*
X157640714Y-60489592D02*
X157640714Y-60775307D01*
X157640714Y-60775307D02*
X157676428Y-60846735D01*
X157676428Y-60846735D02*
X157712142Y-60882450D01*
X157712142Y-60882450D02*
X157783571Y-60918164D01*
X157783571Y-60918164D02*
X157926428Y-60918164D01*
X157926428Y-60918164D02*
X157997857Y-60882450D01*
X157997857Y-60882450D02*
X158033571Y-60846735D01*
X158033571Y-60846735D02*
X158069285Y-60775307D01*
X158069285Y-60775307D02*
X158069285Y-60596735D01*
X158069285Y-60596735D02*
X158033571Y-60525307D01*
X158033571Y-60525307D02*
X157997857Y-60489592D01*
X157997857Y-60489592D02*
X157926428Y-60453878D01*
X157926428Y-60453878D02*
X157783571Y-60453878D01*
X157783571Y-60453878D02*
X157712142Y-60489592D01*
X157712142Y-60489592D02*
X157676428Y-60525307D01*
X157676428Y-60525307D02*
X157640714Y-60596735D01*
X150242999Y-60918164D02*
X149992999Y-60561021D01*
X149814428Y-60918164D02*
X149814428Y-60168164D01*
X149814428Y-60168164D02*
X150100142Y-60168164D01*
X150100142Y-60168164D02*
X150171571Y-60203878D01*
X150171571Y-60203878D02*
X150207285Y-60239592D01*
X150207285Y-60239592D02*
X150242999Y-60311021D01*
X150242999Y-60311021D02*
X150242999Y-60418164D01*
X150242999Y-60418164D02*
X150207285Y-60489592D01*
X150207285Y-60489592D02*
X150171571Y-60525307D01*
X150171571Y-60525307D02*
X150100142Y-60561021D01*
X150100142Y-60561021D02*
X149814428Y-60561021D01*
X150921571Y-60168164D02*
X150564428Y-60168164D01*
X150564428Y-60168164D02*
X150528714Y-60525307D01*
X150528714Y-60525307D02*
X150564428Y-60489592D01*
X150564428Y-60489592D02*
X150635857Y-60453878D01*
X150635857Y-60453878D02*
X150814428Y-60453878D01*
X150814428Y-60453878D02*
X150885857Y-60489592D01*
X150885857Y-60489592D02*
X150921571Y-60525307D01*
X150921571Y-60525307D02*
X150957285Y-60596735D01*
X150957285Y-60596735D02*
X150957285Y-60775307D01*
X150957285Y-60775307D02*
X150921571Y-60846735D01*
X150921571Y-60846735D02*
X150885857Y-60882450D01*
X150885857Y-60882450D02*
X150814428Y-60918164D01*
X150814428Y-60918164D02*
X150635857Y-60918164D01*
X150635857Y-60918164D02*
X150564428Y-60882450D01*
X150564428Y-60882450D02*
X150528714Y-60846735D01*
X150877999Y-33613164D02*
X150627999Y-33256021D01*
X150449428Y-33613164D02*
X150449428Y-32863164D01*
X150449428Y-32863164D02*
X150735142Y-32863164D01*
X150735142Y-32863164D02*
X150806571Y-32898878D01*
X150806571Y-32898878D02*
X150842285Y-32934592D01*
X150842285Y-32934592D02*
X150877999Y-33006021D01*
X150877999Y-33006021D02*
X150877999Y-33113164D01*
X150877999Y-33113164D02*
X150842285Y-33184592D01*
X150842285Y-33184592D02*
X150806571Y-33220307D01*
X150806571Y-33220307D02*
X150735142Y-33256021D01*
X150735142Y-33256021D02*
X150449428Y-33256021D01*
X151520857Y-33113164D02*
X151520857Y-33613164D01*
X151342285Y-32827450D02*
X151163714Y-33363164D01*
X151163714Y-33363164D02*
X151627999Y-33363164D01*
X146837856Y-60918164D02*
X146587856Y-60561021D01*
X146409285Y-60918164D02*
X146409285Y-60168164D01*
X146409285Y-60168164D02*
X146694999Y-60168164D01*
X146694999Y-60168164D02*
X146766428Y-60203878D01*
X146766428Y-60203878D02*
X146802142Y-60239592D01*
X146802142Y-60239592D02*
X146837856Y-60311021D01*
X146837856Y-60311021D02*
X146837856Y-60418164D01*
X146837856Y-60418164D02*
X146802142Y-60489592D01*
X146802142Y-60489592D02*
X146766428Y-60525307D01*
X146766428Y-60525307D02*
X146694999Y-60561021D01*
X146694999Y-60561021D02*
X146409285Y-60561021D01*
X147552142Y-60918164D02*
X147123571Y-60918164D01*
X147337856Y-60918164D02*
X147337856Y-60168164D01*
X147337856Y-60168164D02*
X147266428Y-60275307D01*
X147266428Y-60275307D02*
X147194999Y-60346735D01*
X147194999Y-60346735D02*
X147123571Y-60382450D01*
X148266428Y-60918164D02*
X147837857Y-60918164D01*
X148052142Y-60918164D02*
X148052142Y-60168164D01*
X148052142Y-60168164D02*
X147980714Y-60275307D01*
X147980714Y-60275307D02*
X147909285Y-60346735D01*
X147909285Y-60346735D02*
X147837857Y-60382450D01*
X120070571Y-59084592D02*
X119999142Y-59048878D01*
X119999142Y-59048878D02*
X119927714Y-58977450D01*
X119927714Y-58977450D02*
X119820571Y-58870307D01*
X119820571Y-58870307D02*
X119749142Y-58834592D01*
X119749142Y-58834592D02*
X119677714Y-58834592D01*
X119713428Y-59013164D02*
X119642000Y-58977450D01*
X119642000Y-58977450D02*
X119570571Y-58906021D01*
X119570571Y-58906021D02*
X119534857Y-58763164D01*
X119534857Y-58763164D02*
X119534857Y-58513164D01*
X119534857Y-58513164D02*
X119570571Y-58370307D01*
X119570571Y-58370307D02*
X119642000Y-58298878D01*
X119642000Y-58298878D02*
X119713428Y-58263164D01*
X119713428Y-58263164D02*
X119856285Y-58263164D01*
X119856285Y-58263164D02*
X119927714Y-58298878D01*
X119927714Y-58298878D02*
X119999142Y-58370307D01*
X119999142Y-58370307D02*
X120034857Y-58513164D01*
X120034857Y-58513164D02*
X120034857Y-58763164D01*
X120034857Y-58763164D02*
X119999142Y-58906021D01*
X119999142Y-58906021D02*
X119927714Y-58977450D01*
X119927714Y-58977450D02*
X119856285Y-59013164D01*
X119856285Y-59013164D02*
X119713428Y-59013164D01*
X120284856Y-58263164D02*
X120784856Y-58263164D01*
X120784856Y-58263164D02*
X120463428Y-59013164D01*
X150877999Y-35391164D02*
X150627999Y-35034021D01*
X150449428Y-35391164D02*
X150449428Y-34641164D01*
X150449428Y-34641164D02*
X150735142Y-34641164D01*
X150735142Y-34641164D02*
X150806571Y-34676878D01*
X150806571Y-34676878D02*
X150842285Y-34712592D01*
X150842285Y-34712592D02*
X150877999Y-34784021D01*
X150877999Y-34784021D02*
X150877999Y-34891164D01*
X150877999Y-34891164D02*
X150842285Y-34962592D01*
X150842285Y-34962592D02*
X150806571Y-34998307D01*
X150806571Y-34998307D02*
X150735142Y-35034021D01*
X150735142Y-35034021D02*
X150449428Y-35034021D01*
X151127999Y-34641164D02*
X151592285Y-34641164D01*
X151592285Y-34641164D02*
X151342285Y-34926878D01*
X151342285Y-34926878D02*
X151449428Y-34926878D01*
X151449428Y-34926878D02*
X151520857Y-34962592D01*
X151520857Y-34962592D02*
X151556571Y-34998307D01*
X151556571Y-34998307D02*
X151592285Y-35069735D01*
X151592285Y-35069735D02*
X151592285Y-35248307D01*
X151592285Y-35248307D02*
X151556571Y-35319735D01*
X151556571Y-35319735D02*
X151520857Y-35355450D01*
X151520857Y-35355450D02*
X151449428Y-35391164D01*
X151449428Y-35391164D02*
X151235142Y-35391164D01*
X151235142Y-35391164D02*
X151163714Y-35355450D01*
X151163714Y-35355450D02*
X151127999Y-35319735D01*
X203608857Y-78075164D02*
X203608857Y-78610878D01*
X203608857Y-78610878D02*
X203573142Y-78718021D01*
X203573142Y-78718021D02*
X203501714Y-78789450D01*
X203501714Y-78789450D02*
X203394571Y-78825164D01*
X203394571Y-78825164D02*
X203323142Y-78825164D01*
X204358857Y-78825164D02*
X203930286Y-78825164D01*
X204144571Y-78825164D02*
X204144571Y-78075164D01*
X204144571Y-78075164D02*
X204073143Y-78182307D01*
X204073143Y-78182307D02*
X204001714Y-78253735D01*
X204001714Y-78253735D02*
X203930286Y-78289450D01*
X204608857Y-78075164D02*
X205073143Y-78075164D01*
X205073143Y-78075164D02*
X204823143Y-78360878D01*
X204823143Y-78360878D02*
X204930286Y-78360878D01*
X204930286Y-78360878D02*
X205001715Y-78396592D01*
X205001715Y-78396592D02*
X205037429Y-78432307D01*
X205037429Y-78432307D02*
X205073143Y-78503735D01*
X205073143Y-78503735D02*
X205073143Y-78682307D01*
X205073143Y-78682307D02*
X205037429Y-78753735D01*
X205037429Y-78753735D02*
X205001715Y-78789450D01*
X205001715Y-78789450D02*
X204930286Y-78825164D01*
X204930286Y-78825164D02*
X204716000Y-78825164D01*
X204716000Y-78825164D02*
X204644572Y-78789450D01*
X204644572Y-78789450D02*
X204608857Y-78753735D01*
X134580000Y-70709164D02*
X134580000Y-71244878D01*
X134580000Y-71244878D02*
X134544285Y-71352021D01*
X134544285Y-71352021D02*
X134472857Y-71423450D01*
X134472857Y-71423450D02*
X134365714Y-71459164D01*
X134365714Y-71459164D02*
X134294285Y-71459164D01*
X135294286Y-70709164D02*
X134937143Y-70709164D01*
X134937143Y-70709164D02*
X134901429Y-71066307D01*
X134901429Y-71066307D02*
X134937143Y-71030592D01*
X134937143Y-71030592D02*
X135008572Y-70994878D01*
X135008572Y-70994878D02*
X135187143Y-70994878D01*
X135187143Y-70994878D02*
X135258572Y-71030592D01*
X135258572Y-71030592D02*
X135294286Y-71066307D01*
X135294286Y-71066307D02*
X135330000Y-71137735D01*
X135330000Y-71137735D02*
X135330000Y-71316307D01*
X135330000Y-71316307D02*
X135294286Y-71387735D01*
X135294286Y-71387735D02*
X135258572Y-71423450D01*
X135258572Y-71423450D02*
X135187143Y-71459164D01*
X135187143Y-71459164D02*
X135008572Y-71459164D01*
X135008572Y-71459164D02*
X134937143Y-71423450D01*
X134937143Y-71423450D02*
X134901429Y-71387735D01*
X119308571Y-54004592D02*
X119237142Y-53968878D01*
X119237142Y-53968878D02*
X119165714Y-53897450D01*
X119165714Y-53897450D02*
X119058571Y-53790307D01*
X119058571Y-53790307D02*
X118987142Y-53754592D01*
X118987142Y-53754592D02*
X118915714Y-53754592D01*
X118951428Y-53933164D02*
X118880000Y-53897450D01*
X118880000Y-53897450D02*
X118808571Y-53826021D01*
X118808571Y-53826021D02*
X118772857Y-53683164D01*
X118772857Y-53683164D02*
X118772857Y-53433164D01*
X118772857Y-53433164D02*
X118808571Y-53290307D01*
X118808571Y-53290307D02*
X118880000Y-53218878D01*
X118880000Y-53218878D02*
X118951428Y-53183164D01*
X118951428Y-53183164D02*
X119094285Y-53183164D01*
X119094285Y-53183164D02*
X119165714Y-53218878D01*
X119165714Y-53218878D02*
X119237142Y-53290307D01*
X119237142Y-53290307D02*
X119272857Y-53433164D01*
X119272857Y-53433164D02*
X119272857Y-53683164D01*
X119272857Y-53683164D02*
X119237142Y-53826021D01*
X119237142Y-53826021D02*
X119165714Y-53897450D01*
X119165714Y-53897450D02*
X119094285Y-53933164D01*
X119094285Y-53933164D02*
X118951428Y-53933164D01*
X119522856Y-53183164D02*
X119987142Y-53183164D01*
X119987142Y-53183164D02*
X119737142Y-53468878D01*
X119737142Y-53468878D02*
X119844285Y-53468878D01*
X119844285Y-53468878D02*
X119915714Y-53504592D01*
X119915714Y-53504592D02*
X119951428Y-53540307D01*
X119951428Y-53540307D02*
X119987142Y-53611735D01*
X119987142Y-53611735D02*
X119987142Y-53790307D01*
X119987142Y-53790307D02*
X119951428Y-53861735D01*
X119951428Y-53861735D02*
X119915714Y-53897450D01*
X119915714Y-53897450D02*
X119844285Y-53933164D01*
X119844285Y-53933164D02*
X119629999Y-53933164D01*
X119629999Y-53933164D02*
X119558571Y-53897450D01*
X119558571Y-53897450D02*
X119522856Y-53861735D01*
X125604999Y-68659164D02*
X125354999Y-68302021D01*
X125176428Y-68659164D02*
X125176428Y-67909164D01*
X125176428Y-67909164D02*
X125462142Y-67909164D01*
X125462142Y-67909164D02*
X125533571Y-67944878D01*
X125533571Y-67944878D02*
X125569285Y-67980592D01*
X125569285Y-67980592D02*
X125604999Y-68052021D01*
X125604999Y-68052021D02*
X125604999Y-68159164D01*
X125604999Y-68159164D02*
X125569285Y-68230592D01*
X125569285Y-68230592D02*
X125533571Y-68266307D01*
X125533571Y-68266307D02*
X125462142Y-68302021D01*
X125462142Y-68302021D02*
X125176428Y-68302021D01*
X125890714Y-67980592D02*
X125926428Y-67944878D01*
X125926428Y-67944878D02*
X125997857Y-67909164D01*
X125997857Y-67909164D02*
X126176428Y-67909164D01*
X126176428Y-67909164D02*
X126247857Y-67944878D01*
X126247857Y-67944878D02*
X126283571Y-67980592D01*
X126283571Y-67980592D02*
X126319285Y-68052021D01*
X126319285Y-68052021D02*
X126319285Y-68123450D01*
X126319285Y-68123450D02*
X126283571Y-68230592D01*
X126283571Y-68230592D02*
X125854999Y-68659164D01*
X125854999Y-68659164D02*
X126319285Y-68659164D01*
X144297856Y-60918164D02*
X144047856Y-60561021D01*
X143869285Y-60918164D02*
X143869285Y-60168164D01*
X143869285Y-60168164D02*
X144154999Y-60168164D01*
X144154999Y-60168164D02*
X144226428Y-60203878D01*
X144226428Y-60203878D02*
X144262142Y-60239592D01*
X144262142Y-60239592D02*
X144297856Y-60311021D01*
X144297856Y-60311021D02*
X144297856Y-60418164D01*
X144297856Y-60418164D02*
X144262142Y-60489592D01*
X144262142Y-60489592D02*
X144226428Y-60525307D01*
X144226428Y-60525307D02*
X144154999Y-60561021D01*
X144154999Y-60561021D02*
X143869285Y-60561021D01*
X145012142Y-60918164D02*
X144583571Y-60918164D01*
X144797856Y-60918164D02*
X144797856Y-60168164D01*
X144797856Y-60168164D02*
X144726428Y-60275307D01*
X144726428Y-60275307D02*
X144654999Y-60346735D01*
X144654999Y-60346735D02*
X144583571Y-60382450D01*
X145476428Y-60168164D02*
X145547857Y-60168164D01*
X145547857Y-60168164D02*
X145619285Y-60203878D01*
X145619285Y-60203878D02*
X145655000Y-60239592D01*
X145655000Y-60239592D02*
X145690714Y-60311021D01*
X145690714Y-60311021D02*
X145726428Y-60453878D01*
X145726428Y-60453878D02*
X145726428Y-60632450D01*
X145726428Y-60632450D02*
X145690714Y-60775307D01*
X145690714Y-60775307D02*
X145655000Y-60846735D01*
X145655000Y-60846735D02*
X145619285Y-60882450D01*
X145619285Y-60882450D02*
X145547857Y-60918164D01*
X145547857Y-60918164D02*
X145476428Y-60918164D01*
X145476428Y-60918164D02*
X145405000Y-60882450D01*
X145405000Y-60882450D02*
X145369285Y-60846735D01*
X145369285Y-60846735D02*
X145333571Y-60775307D01*
X145333571Y-60775307D02*
X145297857Y-60632450D01*
X145297857Y-60632450D02*
X145297857Y-60453878D01*
X145297857Y-60453878D02*
X145333571Y-60311021D01*
X145333571Y-60311021D02*
X145369285Y-60239592D01*
X145369285Y-60239592D02*
X145405000Y-60203878D01*
X145405000Y-60203878D02*
X145476428Y-60168164D01*
X178449164Y-65019999D02*
X178984878Y-65019999D01*
X178984878Y-65019999D02*
X179092021Y-65055714D01*
X179092021Y-65055714D02*
X179163450Y-65127142D01*
X179163450Y-65127142D02*
X179199164Y-65234285D01*
X179199164Y-65234285D02*
X179199164Y-65305714D01*
X179199164Y-64627142D02*
X179199164Y-64484285D01*
X179199164Y-64484285D02*
X179163450Y-64412856D01*
X179163450Y-64412856D02*
X179127735Y-64377142D01*
X179127735Y-64377142D02*
X179020592Y-64305713D01*
X179020592Y-64305713D02*
X178877735Y-64269999D01*
X178877735Y-64269999D02*
X178592021Y-64269999D01*
X178592021Y-64269999D02*
X178520592Y-64305713D01*
X178520592Y-64305713D02*
X178484878Y-64341428D01*
X178484878Y-64341428D02*
X178449164Y-64412856D01*
X178449164Y-64412856D02*
X178449164Y-64555713D01*
X178449164Y-64555713D02*
X178484878Y-64627142D01*
X178484878Y-64627142D02*
X178520592Y-64662856D01*
X178520592Y-64662856D02*
X178592021Y-64698570D01*
X178592021Y-64698570D02*
X178770592Y-64698570D01*
X178770592Y-64698570D02*
X178842021Y-64662856D01*
X178842021Y-64662856D02*
X178877735Y-64627142D01*
X178877735Y-64627142D02*
X178913450Y-64555713D01*
X178913450Y-64555713D02*
X178913450Y-64412856D01*
X178913450Y-64412856D02*
X178877735Y-64341428D01*
X178877735Y-64341428D02*
X178842021Y-64305713D01*
X178842021Y-64305713D02*
X178770592Y-64269999D01*
X134800835Y-37850000D02*
X134265121Y-37850000D01*
X134265121Y-37850000D02*
X134157978Y-37814285D01*
X134157978Y-37814285D02*
X134086550Y-37742857D01*
X134086550Y-37742857D02*
X134050835Y-37635714D01*
X134050835Y-37635714D02*
X134050835Y-37564285D01*
X134050835Y-38600000D02*
X134050835Y-38171429D01*
X134050835Y-38385714D02*
X134800835Y-38385714D01*
X134800835Y-38385714D02*
X134693692Y-38314286D01*
X134693692Y-38314286D02*
X134622264Y-38242857D01*
X134622264Y-38242857D02*
X134586550Y-38171429D01*
X157209407Y-74223571D02*
X157245121Y-74152142D01*
X157245121Y-74152142D02*
X157316550Y-74080714D01*
X157316550Y-74080714D02*
X157423692Y-73973571D01*
X157423692Y-73973571D02*
X157459407Y-73902142D01*
X157459407Y-73902142D02*
X157459407Y-73830714D01*
X157280835Y-73866428D02*
X157316550Y-73795000D01*
X157316550Y-73795000D02*
X157387978Y-73723571D01*
X157387978Y-73723571D02*
X157530835Y-73687857D01*
X157530835Y-73687857D02*
X157780835Y-73687857D01*
X157780835Y-73687857D02*
X157923692Y-73723571D01*
X157923692Y-73723571D02*
X157995121Y-73795000D01*
X157995121Y-73795000D02*
X158030835Y-73866428D01*
X158030835Y-73866428D02*
X158030835Y-74009285D01*
X158030835Y-74009285D02*
X157995121Y-74080714D01*
X157995121Y-74080714D02*
X157923692Y-74152142D01*
X157923692Y-74152142D02*
X157780835Y-74187857D01*
X157780835Y-74187857D02*
X157530835Y-74187857D01*
X157530835Y-74187857D02*
X157387978Y-74152142D01*
X157387978Y-74152142D02*
X157316550Y-74080714D01*
X157316550Y-74080714D02*
X157280835Y-74009285D01*
X157280835Y-74009285D02*
X157280835Y-73866428D01*
X157280835Y-74902142D02*
X157280835Y-74473571D01*
X157280835Y-74687856D02*
X158030835Y-74687856D01*
X158030835Y-74687856D02*
X157923692Y-74616428D01*
X157923692Y-74616428D02*
X157852264Y-74544999D01*
X157852264Y-74544999D02*
X157816550Y-74473571D01*
X157209407Y-69778571D02*
X157245121Y-69707142D01*
X157245121Y-69707142D02*
X157316550Y-69635714D01*
X157316550Y-69635714D02*
X157423692Y-69528571D01*
X157423692Y-69528571D02*
X157459407Y-69457142D01*
X157459407Y-69457142D02*
X157459407Y-69385714D01*
X157280835Y-69421428D02*
X157316550Y-69350000D01*
X157316550Y-69350000D02*
X157387978Y-69278571D01*
X157387978Y-69278571D02*
X157530835Y-69242857D01*
X157530835Y-69242857D02*
X157780835Y-69242857D01*
X157780835Y-69242857D02*
X157923692Y-69278571D01*
X157923692Y-69278571D02*
X157995121Y-69350000D01*
X157995121Y-69350000D02*
X158030835Y-69421428D01*
X158030835Y-69421428D02*
X158030835Y-69564285D01*
X158030835Y-69564285D02*
X157995121Y-69635714D01*
X157995121Y-69635714D02*
X157923692Y-69707142D01*
X157923692Y-69707142D02*
X157780835Y-69742857D01*
X157780835Y-69742857D02*
X157530835Y-69742857D01*
X157530835Y-69742857D02*
X157387978Y-69707142D01*
X157387978Y-69707142D02*
X157316550Y-69635714D01*
X157316550Y-69635714D02*
X157280835Y-69564285D01*
X157280835Y-69564285D02*
X157280835Y-69421428D01*
X157780835Y-70385714D02*
X157280835Y-70385714D01*
X158066550Y-70207142D02*
X157530835Y-70028571D01*
X157530835Y-70028571D02*
X157530835Y-70492856D01*
X144172857Y-28926164D02*
X144172857Y-29461878D01*
X144172857Y-29461878D02*
X144137142Y-29569021D01*
X144137142Y-29569021D02*
X144065714Y-29640450D01*
X144065714Y-29640450D02*
X143958571Y-29676164D01*
X143958571Y-29676164D02*
X143887142Y-29676164D01*
X144922857Y-29676164D02*
X144494286Y-29676164D01*
X144708571Y-29676164D02*
X144708571Y-28926164D01*
X144708571Y-28926164D02*
X144637143Y-29033307D01*
X144637143Y-29033307D02*
X144565714Y-29104735D01*
X144565714Y-29104735D02*
X144494286Y-29140450D01*
X145637143Y-29676164D02*
X145208572Y-29676164D01*
X145422857Y-29676164D02*
X145422857Y-28926164D01*
X145422857Y-28926164D02*
X145351429Y-29033307D01*
X145351429Y-29033307D02*
X145280000Y-29104735D01*
X145280000Y-29104735D02*
X145208572Y-29140450D01*
X173719407Y-69778571D02*
X173755121Y-69707142D01*
X173755121Y-69707142D02*
X173826550Y-69635714D01*
X173826550Y-69635714D02*
X173933692Y-69528571D01*
X173933692Y-69528571D02*
X173969407Y-69457142D01*
X173969407Y-69457142D02*
X173969407Y-69385714D01*
X173790835Y-69421428D02*
X173826550Y-69350000D01*
X173826550Y-69350000D02*
X173897978Y-69278571D01*
X173897978Y-69278571D02*
X174040835Y-69242857D01*
X174040835Y-69242857D02*
X174290835Y-69242857D01*
X174290835Y-69242857D02*
X174433692Y-69278571D01*
X174433692Y-69278571D02*
X174505121Y-69350000D01*
X174505121Y-69350000D02*
X174540835Y-69421428D01*
X174540835Y-69421428D02*
X174540835Y-69564285D01*
X174540835Y-69564285D02*
X174505121Y-69635714D01*
X174505121Y-69635714D02*
X174433692Y-69707142D01*
X174433692Y-69707142D02*
X174290835Y-69742857D01*
X174290835Y-69742857D02*
X174040835Y-69742857D01*
X174040835Y-69742857D02*
X173897978Y-69707142D01*
X173897978Y-69707142D02*
X173826550Y-69635714D01*
X173826550Y-69635714D02*
X173790835Y-69564285D01*
X173790835Y-69564285D02*
X173790835Y-69421428D01*
X174540835Y-70421428D02*
X174540835Y-70064285D01*
X174540835Y-70064285D02*
X174183692Y-70028571D01*
X174183692Y-70028571D02*
X174219407Y-70064285D01*
X174219407Y-70064285D02*
X174255121Y-70135714D01*
X174255121Y-70135714D02*
X174255121Y-70314285D01*
X174255121Y-70314285D02*
X174219407Y-70385714D01*
X174219407Y-70385714D02*
X174183692Y-70421428D01*
X174183692Y-70421428D02*
X174112264Y-70457142D01*
X174112264Y-70457142D02*
X173933692Y-70457142D01*
X173933692Y-70457142D02*
X173862264Y-70421428D01*
X173862264Y-70421428D02*
X173826550Y-70385714D01*
X173826550Y-70385714D02*
X173790835Y-70314285D01*
X173790835Y-70314285D02*
X173790835Y-70135714D01*
X173790835Y-70135714D02*
X173826550Y-70064285D01*
X173826550Y-70064285D02*
X173862264Y-70028571D01*
X173340835Y-29872857D02*
X172805121Y-29872857D01*
X172805121Y-29872857D02*
X172697978Y-29837142D01*
X172697978Y-29837142D02*
X172626550Y-29765714D01*
X172626550Y-29765714D02*
X172590835Y-29658571D01*
X172590835Y-29658571D02*
X172590835Y-29587142D01*
X172590835Y-30622857D02*
X172590835Y-30194286D01*
X172590835Y-30408571D02*
X173340835Y-30408571D01*
X173340835Y-30408571D02*
X173233692Y-30337143D01*
X173233692Y-30337143D02*
X173162264Y-30265714D01*
X173162264Y-30265714D02*
X173126550Y-30194286D01*
X173269407Y-30908572D02*
X173305121Y-30944286D01*
X173305121Y-30944286D02*
X173340835Y-31015715D01*
X173340835Y-31015715D02*
X173340835Y-31194286D01*
X173340835Y-31194286D02*
X173305121Y-31265715D01*
X173305121Y-31265715D02*
X173269407Y-31301429D01*
X173269407Y-31301429D02*
X173197978Y-31337143D01*
X173197978Y-31337143D02*
X173126550Y-31337143D01*
X173126550Y-31337143D02*
X173019407Y-31301429D01*
X173019407Y-31301429D02*
X172590835Y-30872857D01*
X172590835Y-30872857D02*
X172590835Y-31337143D01*
X164181164Y-67559999D02*
X164716878Y-67559999D01*
X164716878Y-67559999D02*
X164824021Y-67595714D01*
X164824021Y-67595714D02*
X164895450Y-67667142D01*
X164895450Y-67667142D02*
X164931164Y-67774285D01*
X164931164Y-67774285D02*
X164931164Y-67845714D01*
X164502592Y-67095713D02*
X164466878Y-67167142D01*
X164466878Y-67167142D02*
X164431164Y-67202856D01*
X164431164Y-67202856D02*
X164359735Y-67238570D01*
X164359735Y-67238570D02*
X164324021Y-67238570D01*
X164324021Y-67238570D02*
X164252592Y-67202856D01*
X164252592Y-67202856D02*
X164216878Y-67167142D01*
X164216878Y-67167142D02*
X164181164Y-67095713D01*
X164181164Y-67095713D02*
X164181164Y-66952856D01*
X164181164Y-66952856D02*
X164216878Y-66881428D01*
X164216878Y-66881428D02*
X164252592Y-66845713D01*
X164252592Y-66845713D02*
X164324021Y-66809999D01*
X164324021Y-66809999D02*
X164359735Y-66809999D01*
X164359735Y-66809999D02*
X164431164Y-66845713D01*
X164431164Y-66845713D02*
X164466878Y-66881428D01*
X164466878Y-66881428D02*
X164502592Y-66952856D01*
X164502592Y-66952856D02*
X164502592Y-67095713D01*
X164502592Y-67095713D02*
X164538307Y-67167142D01*
X164538307Y-67167142D02*
X164574021Y-67202856D01*
X164574021Y-67202856D02*
X164645450Y-67238570D01*
X164645450Y-67238570D02*
X164788307Y-67238570D01*
X164788307Y-67238570D02*
X164859735Y-67202856D01*
X164859735Y-67202856D02*
X164895450Y-67167142D01*
X164895450Y-67167142D02*
X164931164Y-67095713D01*
X164931164Y-67095713D02*
X164931164Y-66952856D01*
X164931164Y-66952856D02*
X164895450Y-66881428D01*
X164895450Y-66881428D02*
X164859735Y-66845713D01*
X164859735Y-66845713D02*
X164788307Y-66809999D01*
X164788307Y-66809999D02*
X164645450Y-66809999D01*
X164645450Y-66809999D02*
X164574021Y-66845713D01*
X164574021Y-66845713D02*
X164538307Y-66881428D01*
X164538307Y-66881428D02*
X164502592Y-66952856D01*
X150480835Y-79125000D02*
X149945121Y-79125000D01*
X149945121Y-79125000D02*
X149837978Y-79089285D01*
X149837978Y-79089285D02*
X149766550Y-79017857D01*
X149766550Y-79017857D02*
X149730835Y-78910714D01*
X149730835Y-78910714D02*
X149730835Y-78839285D01*
X150480835Y-79410714D02*
X150480835Y-79875000D01*
X150480835Y-79875000D02*
X150195121Y-79625000D01*
X150195121Y-79625000D02*
X150195121Y-79732143D01*
X150195121Y-79732143D02*
X150159407Y-79803572D01*
X150159407Y-79803572D02*
X150123692Y-79839286D01*
X150123692Y-79839286D02*
X150052264Y-79875000D01*
X150052264Y-79875000D02*
X149873692Y-79875000D01*
X149873692Y-79875000D02*
X149802264Y-79839286D01*
X149802264Y-79839286D02*
X149766550Y-79803572D01*
X149766550Y-79803572D02*
X149730835Y-79732143D01*
X149730835Y-79732143D02*
X149730835Y-79517857D01*
X149730835Y-79517857D02*
X149766550Y-79446429D01*
X149766550Y-79446429D02*
X149802264Y-79410714D01*
X142114999Y-60918164D02*
X141864999Y-60561021D01*
X141686428Y-60918164D02*
X141686428Y-60168164D01*
X141686428Y-60168164D02*
X141972142Y-60168164D01*
X141972142Y-60168164D02*
X142043571Y-60203878D01*
X142043571Y-60203878D02*
X142079285Y-60239592D01*
X142079285Y-60239592D02*
X142114999Y-60311021D01*
X142114999Y-60311021D02*
X142114999Y-60418164D01*
X142114999Y-60418164D02*
X142079285Y-60489592D01*
X142079285Y-60489592D02*
X142043571Y-60525307D01*
X142043571Y-60525307D02*
X141972142Y-60561021D01*
X141972142Y-60561021D02*
X141686428Y-60561021D01*
X142472142Y-60918164D02*
X142614999Y-60918164D01*
X142614999Y-60918164D02*
X142686428Y-60882450D01*
X142686428Y-60882450D02*
X142722142Y-60846735D01*
X142722142Y-60846735D02*
X142793571Y-60739592D01*
X142793571Y-60739592D02*
X142829285Y-60596735D01*
X142829285Y-60596735D02*
X142829285Y-60311021D01*
X142829285Y-60311021D02*
X142793571Y-60239592D01*
X142793571Y-60239592D02*
X142757857Y-60203878D01*
X142757857Y-60203878D02*
X142686428Y-60168164D01*
X142686428Y-60168164D02*
X142543571Y-60168164D01*
X142543571Y-60168164D02*
X142472142Y-60203878D01*
X142472142Y-60203878D02*
X142436428Y-60239592D01*
X142436428Y-60239592D02*
X142400714Y-60311021D01*
X142400714Y-60311021D02*
X142400714Y-60489592D01*
X142400714Y-60489592D02*
X142436428Y-60561021D01*
X142436428Y-60561021D02*
X142472142Y-60596735D01*
X142472142Y-60596735D02*
X142543571Y-60632450D01*
X142543571Y-60632450D02*
X142686428Y-60632450D01*
X142686428Y-60632450D02*
X142757857Y-60596735D01*
X142757857Y-60596735D02*
X142793571Y-60561021D01*
X142793571Y-60561021D02*
X142829285Y-60489592D01*
X154814999Y-60918164D02*
X154564999Y-60561021D01*
X154386428Y-60918164D02*
X154386428Y-60168164D01*
X154386428Y-60168164D02*
X154672142Y-60168164D01*
X154672142Y-60168164D02*
X154743571Y-60203878D01*
X154743571Y-60203878D02*
X154779285Y-60239592D01*
X154779285Y-60239592D02*
X154814999Y-60311021D01*
X154814999Y-60311021D02*
X154814999Y-60418164D01*
X154814999Y-60418164D02*
X154779285Y-60489592D01*
X154779285Y-60489592D02*
X154743571Y-60525307D01*
X154743571Y-60525307D02*
X154672142Y-60561021D01*
X154672142Y-60561021D02*
X154386428Y-60561021D01*
X155064999Y-60168164D02*
X155564999Y-60168164D01*
X155564999Y-60168164D02*
X155243571Y-60918164D01*
X119340000Y-70709164D02*
X119340000Y-71244878D01*
X119340000Y-71244878D02*
X119304285Y-71352021D01*
X119304285Y-71352021D02*
X119232857Y-71423450D01*
X119232857Y-71423450D02*
X119125714Y-71459164D01*
X119125714Y-71459164D02*
X119054285Y-71459164D01*
X120018572Y-70709164D02*
X119875714Y-70709164D01*
X119875714Y-70709164D02*
X119804286Y-70744878D01*
X119804286Y-70744878D02*
X119768572Y-70780592D01*
X119768572Y-70780592D02*
X119697143Y-70887735D01*
X119697143Y-70887735D02*
X119661429Y-71030592D01*
X119661429Y-71030592D02*
X119661429Y-71316307D01*
X119661429Y-71316307D02*
X119697143Y-71387735D01*
X119697143Y-71387735D02*
X119732857Y-71423450D01*
X119732857Y-71423450D02*
X119804286Y-71459164D01*
X119804286Y-71459164D02*
X119947143Y-71459164D01*
X119947143Y-71459164D02*
X120018572Y-71423450D01*
X120018572Y-71423450D02*
X120054286Y-71387735D01*
X120054286Y-71387735D02*
X120090000Y-71316307D01*
X120090000Y-71316307D02*
X120090000Y-71137735D01*
X120090000Y-71137735D02*
X120054286Y-71066307D01*
X120054286Y-71066307D02*
X120018572Y-71030592D01*
X120018572Y-71030592D02*
X119947143Y-70994878D01*
X119947143Y-70994878D02*
X119804286Y-70994878D01*
X119804286Y-70994878D02*
X119732857Y-71030592D01*
X119732857Y-71030592D02*
X119697143Y-71066307D01*
X119697143Y-71066307D02*
X119661429Y-71137735D01*
D11*
%TO.C,R8*%
X151877500Y-62721258D02*
X151877500Y-62246742D01*
X152922500Y-62721258D02*
X152922500Y-62246742D01*
%TO.C,R1*%
X137452263Y-64685000D02*
X138899737Y-64685000D01*
X137452263Y-67395000D02*
X138899737Y-67395000D01*
%TO.C,Q6*%
X119380000Y-64480000D02*
X118580000Y-64480000D01*
X119380000Y-64480000D02*
X120180000Y-64480000D01*
X119380000Y-67600000D02*
X118580000Y-67600000D01*
X119380000Y-67600000D02*
X120180000Y-67600000D01*
X118080000Y-64530000D02*
X117840000Y-64200000D01*
X118320000Y-64200000D01*
X118080000Y-64530000D01*
G36*
X118080000Y-64530000D02*
G01*
X117840000Y-64200000D01*
X118320000Y-64200000D01*
X118080000Y-64530000D01*
G37*
%TO.C,Q2*%
X174970000Y-74295000D02*
X174970000Y-73495000D01*
X174970000Y-74295000D02*
X174970000Y-75095000D01*
X178090000Y-74295000D02*
X178090000Y-73495000D01*
X178090000Y-74295000D02*
X178090000Y-75095000D01*
X175020000Y-75595000D02*
X174690000Y-75835000D01*
X174690000Y-75355000D01*
X175020000Y-75595000D01*
G36*
X175020000Y-75595000D02*
G01*
X174690000Y-75835000D01*
X174690000Y-75355000D01*
X175020000Y-75595000D01*
G37*
%TO.C,J10*%
X111700000Y-69850000D02*
X111700000Y-62170000D01*
X114360000Y-62170000D02*
X111700000Y-62170000D01*
X114360000Y-69850000D02*
X111700000Y-69850000D01*
X114360000Y-69850000D02*
X114360000Y-62170000D01*
X114360000Y-71120000D02*
X114360000Y-72450000D01*
X114360000Y-72450000D02*
X113030000Y-72450000D01*
%TO.C,J2*%
X125670000Y-57090000D02*
X127000000Y-57090000D01*
X125670000Y-58420000D02*
X125670000Y-57090000D01*
X128270000Y-57090000D02*
X166430000Y-57090000D01*
X128270000Y-59750000D02*
X128270000Y-57090000D01*
X128270000Y-59750000D02*
X166430000Y-59750000D01*
X166430000Y-59750000D02*
X166430000Y-57090000D01*
%TO.C,J4*%
X167580000Y-80705000D02*
X167580000Y-79375000D01*
X168910000Y-80705000D02*
X167580000Y-80705000D01*
X170180000Y-78045000D02*
X177860000Y-78045000D01*
X170180000Y-80705000D02*
X170180000Y-78045000D01*
X170180000Y-80705000D02*
X177860000Y-80705000D01*
X177860000Y-80705000D02*
X177860000Y-78045000D01*
%TO.C,R6*%
X156957500Y-62721258D02*
X156957500Y-62246742D01*
X158002500Y-62721258D02*
X158002500Y-62246742D01*
%TO.C,R5*%
X149845500Y-62721258D02*
X149845500Y-62246742D01*
X150890500Y-62721258D02*
X150890500Y-62246742D01*
%TO.C,R4*%
X149081258Y-32751500D02*
X148606742Y-32751500D01*
X149081258Y-33796500D02*
X148606742Y-33796500D01*
%TO.C,R11*%
X146797500Y-62848258D02*
X146797500Y-62373742D01*
X147842500Y-62848258D02*
X147842500Y-62373742D01*
%TO.C,Q7*%
X119380000Y-59400000D02*
X118580000Y-59400000D01*
X119380000Y-59400000D02*
X120180000Y-59400000D01*
X119380000Y-62520000D02*
X118580000Y-62520000D01*
X119380000Y-62520000D02*
X120180000Y-62520000D01*
X120920000Y-62800000D02*
X120440000Y-62800000D01*
X120680000Y-62470000D01*
X120920000Y-62800000D01*
G36*
X120920000Y-62800000D02*
G01*
X120440000Y-62800000D01*
X120680000Y-62470000D01*
X120920000Y-62800000D01*
G37*
%TO.C,R3*%
X149081258Y-34529500D02*
X148606742Y-34529500D01*
X149081258Y-35574500D02*
X148606742Y-35574500D01*
%TO.C,J13*%
X188390000Y-27640000D02*
X187110000Y-27640000D01*
X188390000Y-28240000D02*
X187110000Y-28240000D01*
X188390000Y-31840000D02*
X187110000Y-31840000D01*
X188390000Y-32440000D02*
X187110000Y-32440000D01*
X188390000Y-36040000D02*
X187110000Y-36040000D01*
X188390000Y-36640000D02*
X187110000Y-36640000D01*
X188390000Y-40240000D02*
X187110000Y-40240000D01*
X188390000Y-40840000D02*
X187110000Y-40840000D01*
X188390000Y-44440000D02*
X187110000Y-44440000D01*
X188390000Y-45040000D02*
X187110000Y-45040000D01*
X188390000Y-48640000D02*
X187110000Y-48640000D01*
X188390000Y-49240000D02*
X187110000Y-49240000D01*
X188390000Y-52840000D02*
X187110000Y-52840000D01*
X188390000Y-53440000D02*
X187110000Y-53440000D01*
X188390000Y-57040000D02*
X187110000Y-57040000D01*
X188390000Y-57640000D02*
X187110000Y-57640000D01*
X188390000Y-61240000D02*
X187110000Y-61240000D01*
X188390000Y-61840000D02*
X187110000Y-61840000D01*
X188390000Y-65440000D02*
X187110000Y-65440000D01*
X188390000Y-66040000D02*
X187110000Y-66040000D01*
X188390000Y-69640000D02*
X187110000Y-69640000D01*
X188390000Y-70240000D02*
X187110000Y-70240000D01*
X188390000Y-73840000D02*
X187110000Y-73840000D01*
X188390000Y-74440000D02*
X187110000Y-74440000D01*
X190200000Y-25340000D02*
X190800000Y-25340000D01*
X190500000Y-25940000D02*
X190200000Y-25340000D01*
X190800000Y-25340000D02*
X190500000Y-25940000D01*
X191490000Y-25130000D02*
X204510000Y-25130000D01*
X191490000Y-25940000D02*
X191490000Y-25130000D01*
X191490000Y-76140000D02*
X191490000Y-76950000D01*
X191490000Y-76950000D02*
X204510000Y-76950000D01*
X191500000Y-29550000D02*
X191500000Y-30530000D01*
X191500000Y-33750000D02*
X191500000Y-34730000D01*
X191500000Y-37950000D02*
X191500000Y-38930000D01*
X191500000Y-42150000D02*
X191500000Y-43130000D01*
X191500000Y-46350000D02*
X191500000Y-47330000D01*
X191500000Y-50550000D02*
X191500000Y-51530000D01*
X191500000Y-54750000D02*
X191500000Y-55730000D01*
X191500000Y-58950000D02*
X191500000Y-59930000D01*
X191500000Y-63150000D02*
X191500000Y-64130000D01*
X191500000Y-67350000D02*
X191500000Y-68330000D01*
X191500000Y-71550000D02*
X191500000Y-72530000D01*
X204510000Y-25130000D02*
X204510000Y-51040000D01*
X204510000Y-76950000D02*
X204510000Y-51040000D01*
%TO.C,J5*%
X135830000Y-72450000D02*
X135830000Y-71120000D01*
X137160000Y-72450000D02*
X135830000Y-72450000D01*
X138430000Y-69790000D02*
X146110000Y-69790000D01*
X138430000Y-72450000D02*
X138430000Y-69790000D01*
X138430000Y-72450000D02*
X146110000Y-72450000D01*
X146110000Y-72450000D02*
X146110000Y-69790000D01*
%TO.C,Q3*%
X119380000Y-54320000D02*
X118580000Y-54320000D01*
X119380000Y-54320000D02*
X120180000Y-54320000D01*
X119380000Y-57440000D02*
X118580000Y-57440000D01*
X119380000Y-57440000D02*
X120180000Y-57440000D01*
X120920000Y-57720000D02*
X120440000Y-57720000D01*
X120680000Y-57390000D01*
X120920000Y-57720000D01*
G36*
X120920000Y-57720000D02*
G01*
X120440000Y-57720000D01*
X120680000Y-57390000D01*
X120920000Y-57720000D01*
G37*
%TO.C,R2*%
X126453737Y-64685000D02*
X125006263Y-64685000D01*
X126453737Y-67395000D02*
X125006263Y-67395000D01*
%TO.C,R10*%
X144257500Y-62848258D02*
X144257500Y-62373742D01*
X145302500Y-62848258D02*
X145302500Y-62373742D01*
%TO.C,J9*%
X172660000Y-63440000D02*
X172660000Y-66100000D01*
X175260000Y-63440000D02*
X172660000Y-63440000D01*
X175260000Y-63440000D02*
X175260000Y-66100000D01*
X175260000Y-66100000D02*
X172660000Y-66100000D01*
X176530000Y-63440000D02*
X177860000Y-63440000D01*
X177860000Y-63440000D02*
X177860000Y-64770000D01*
%TO.C,J1*%
X135830000Y-36770000D02*
X137160000Y-36770000D01*
X135830000Y-38100000D02*
X135830000Y-36770000D01*
X138430000Y-36770000D02*
X166430000Y-36770000D01*
X138430000Y-39430000D02*
X138430000Y-36770000D01*
X138430000Y-39430000D02*
X166430000Y-39430000D01*
X166430000Y-39430000D02*
X166430000Y-36770000D01*
%TO.C,Q1*%
X158460000Y-74295000D02*
X158460000Y-73495000D01*
X158460000Y-74295000D02*
X158460000Y-75095000D01*
X161580000Y-74295000D02*
X161580000Y-73495000D01*
X161580000Y-74295000D02*
X161580000Y-75095000D01*
X158510000Y-75595000D02*
X158180000Y-75835000D01*
X158180000Y-75355000D01*
X158510000Y-75595000D01*
G36*
X158510000Y-75595000D02*
G01*
X158180000Y-75835000D01*
X158180000Y-75355000D01*
X158510000Y-75595000D01*
G37*
%TO.C,Q4*%
X158460000Y-69850000D02*
X158460000Y-69050000D01*
X158460000Y-69850000D02*
X158460000Y-70650000D01*
X161580000Y-69850000D02*
X161580000Y-69050000D01*
X161580000Y-69850000D02*
X161580000Y-70650000D01*
X158510000Y-71150000D02*
X158180000Y-71390000D01*
X158180000Y-70910000D01*
X158510000Y-71150000D01*
G36*
X158510000Y-71150000D02*
G01*
X158180000Y-71390000D01*
X158180000Y-70910000D01*
X158510000Y-71150000D01*
G37*
%TO.C,J11*%
X145990000Y-26610000D02*
X171510000Y-26610000D01*
X145990000Y-29210000D02*
X145990000Y-26610000D01*
X145990000Y-31810000D02*
X145990000Y-30480000D01*
X147320000Y-31810000D02*
X145990000Y-31810000D01*
X148590000Y-29210000D02*
X145990000Y-29210000D01*
X148590000Y-31810000D02*
X148590000Y-29210000D01*
X148590000Y-31810000D02*
X171510000Y-31810000D01*
X171510000Y-31810000D02*
X171510000Y-26610000D01*
%TO.C,Q5*%
X174970000Y-69850000D02*
X174970000Y-69050000D01*
X174970000Y-69850000D02*
X174970000Y-70650000D01*
X178090000Y-69850000D02*
X178090000Y-69050000D01*
X178090000Y-69850000D02*
X178090000Y-70650000D01*
X175020000Y-71150000D02*
X174690000Y-71390000D01*
X174690000Y-70910000D01*
X175020000Y-71150000D01*
G36*
X175020000Y-71150000D02*
G01*
X174690000Y-71390000D01*
X174690000Y-70910000D01*
X175020000Y-71150000D01*
G37*
%TO.C,J12*%
X173930000Y-31810000D02*
X173930000Y-30480000D01*
X175260000Y-31810000D02*
X173930000Y-31810000D01*
X176530000Y-29150000D02*
X179130000Y-29150000D01*
X176530000Y-31810000D02*
X176530000Y-29150000D01*
X176530000Y-31810000D02*
X179130000Y-31810000D01*
X179130000Y-31810000D02*
X179130000Y-29150000D01*
%TO.C,J8*%
X159452000Y-63440000D02*
X159452000Y-66100000D01*
X162052000Y-63440000D02*
X159452000Y-63440000D01*
X162052000Y-63440000D02*
X162052000Y-66100000D01*
X162052000Y-66100000D02*
X159452000Y-66100000D01*
X163322000Y-63440000D02*
X164652000Y-63440000D01*
X164652000Y-63440000D02*
X164652000Y-64770000D01*
%TO.C,J3*%
X151070000Y-80705000D02*
X151070000Y-79375000D01*
X152400000Y-80705000D02*
X151070000Y-80705000D01*
X153670000Y-78045000D02*
X161350000Y-78045000D01*
X153670000Y-80705000D02*
X153670000Y-78045000D01*
X153670000Y-80705000D02*
X161350000Y-80705000D01*
X161350000Y-80705000D02*
X161350000Y-78045000D01*
%TO.C,R9*%
X141717500Y-62721258D02*
X141717500Y-62246742D01*
X142762500Y-62721258D02*
X142762500Y-62246742D01*
%TO.C,R7*%
X154417500Y-62721258D02*
X154417500Y-62246742D01*
X155462500Y-62721258D02*
X155462500Y-62246742D01*
%TO.C,J6*%
X120590000Y-72450000D02*
X120590000Y-71120000D01*
X121920000Y-72450000D02*
X120590000Y-72450000D01*
X123190000Y-69790000D02*
X130870000Y-69790000D01*
X123190000Y-72450000D02*
X123190000Y-69790000D01*
X123190000Y-72450000D02*
X130870000Y-72450000D01*
X130870000Y-72450000D02*
X130870000Y-69790000D01*
%TD*%
%LPC*%
D12*
%TO.C,R8*%
X152400000Y-63309000D03*
X152400000Y-61659000D03*
%TD*%
D13*
%TO.C,REF\u002A\u002A*%
X200660000Y-27940000D03*
%TD*%
D14*
%TO.C,R1*%
X136713500Y-66040000D03*
X139638500Y-66040000D03*
%TD*%
D15*
%TO.C,Q6*%
X118242500Y-65090000D03*
X118242500Y-66040000D03*
X118242500Y-66990000D03*
X120517500Y-66990000D03*
X120517500Y-66040000D03*
X120517500Y-65090000D03*
%TD*%
D16*
%TO.C,Q2*%
X175580000Y-75432500D03*
X176530000Y-75432500D03*
X177480000Y-75432500D03*
X177480000Y-73157500D03*
X176530000Y-73157500D03*
X175580000Y-73157500D03*
%TD*%
D13*
%TO.C,REF\u002A\u002A*%
X114300000Y-27940000D03*
%TD*%
D17*
%TO.C,J10*%
X113030000Y-71120000D03*
D18*
X113030000Y-68580000D03*
X113030000Y-66040000D03*
X113030000Y-63500000D03*
%TD*%
D17*
%TO.C,J2*%
X127000000Y-58420000D03*
D18*
X129540000Y-58420000D03*
X132080000Y-58420000D03*
X134620000Y-58420000D03*
X137160000Y-58420000D03*
X139700000Y-58420000D03*
X142240000Y-58420000D03*
X144780000Y-58420000D03*
X147320000Y-58420000D03*
X149860000Y-58420000D03*
X152400000Y-58420000D03*
X154940000Y-58420000D03*
X157480000Y-58420000D03*
X160020000Y-58420000D03*
X162560000Y-58420000D03*
X165100000Y-58420000D03*
%TD*%
D17*
%TO.C,J4*%
X168910000Y-79375000D03*
D18*
X171450000Y-79375000D03*
X173990000Y-79375000D03*
X176530000Y-79375000D03*
%TD*%
D12*
%TO.C,R6*%
X157480000Y-63309000D03*
X157480000Y-61659000D03*
%TD*%
%TO.C,R5*%
X150368000Y-63309000D03*
X150368000Y-61659000D03*
%TD*%
D13*
%TO.C,REF\u002A\u002A*%
X114300000Y-78740000D03*
%TD*%
D19*
%TO.C,R4*%
X149669000Y-33274000D03*
X148019000Y-33274000D03*
%TD*%
D12*
%TO.C,R11*%
X147320000Y-63436000D03*
X147320000Y-61786000D03*
%TD*%
D20*
%TO.C,Q7*%
X120517500Y-61910000D03*
X120517500Y-60960000D03*
X120517500Y-60010000D03*
X118242500Y-60010000D03*
X118242500Y-60960000D03*
X118242500Y-61910000D03*
%TD*%
D19*
%TO.C,R3*%
X149669000Y-35052000D03*
X148019000Y-35052000D03*
%TD*%
D21*
%TO.C,J13*%
X190500000Y-27940000D03*
D22*
X190500000Y-32140000D03*
X190500000Y-36340000D03*
X190500000Y-40540000D03*
X190500000Y-44740000D03*
X190500000Y-48940000D03*
X190500000Y-53140000D03*
X190500000Y-57340000D03*
X190500000Y-61540000D03*
X190500000Y-65740000D03*
X190500000Y-69940000D03*
X190500000Y-74140000D03*
X185000000Y-27940000D03*
X185000000Y-32140000D03*
X185000000Y-36340000D03*
X185000000Y-40540000D03*
X185000000Y-44740000D03*
X185000000Y-48940000D03*
X185000000Y-53140000D03*
X185000000Y-57340000D03*
X185000000Y-61540000D03*
X185000000Y-65740000D03*
X185000000Y-69940000D03*
X185000000Y-74140000D03*
%TD*%
D17*
%TO.C,J5*%
X137160000Y-71120000D03*
D18*
X139700000Y-71120000D03*
X142240000Y-71120000D03*
X144780000Y-71120000D03*
%TD*%
D20*
%TO.C,Q3*%
X120517500Y-56830000D03*
X120517500Y-55880000D03*
X120517500Y-54930000D03*
X118242500Y-54930000D03*
X118242500Y-55880000D03*
X118242500Y-56830000D03*
%TD*%
D23*
%TO.C,R2*%
X127192500Y-66040000D03*
X124267500Y-66040000D03*
%TD*%
D12*
%TO.C,R10*%
X144780000Y-63436000D03*
X144780000Y-61786000D03*
%TD*%
D17*
%TO.C,J9*%
X176530000Y-64770000D03*
D18*
X173990000Y-64770000D03*
%TD*%
D17*
%TO.C,J1*%
X137160000Y-38100000D03*
D18*
X139700000Y-38100000D03*
X142240000Y-38100000D03*
X144780000Y-38100000D03*
X147320000Y-38100000D03*
X149860000Y-38100000D03*
X152400000Y-38100000D03*
X154940000Y-38100000D03*
X157480000Y-38100000D03*
X160020000Y-38100000D03*
X162560000Y-38100000D03*
X165100000Y-38100000D03*
%TD*%
D16*
%TO.C,Q1*%
X159070000Y-75432500D03*
X160020000Y-75432500D03*
X160970000Y-75432500D03*
X160970000Y-73157500D03*
X160020000Y-73157500D03*
X159070000Y-73157500D03*
%TD*%
%TO.C,Q4*%
X159070000Y-70987500D03*
X160020000Y-70987500D03*
X160970000Y-70987500D03*
X160970000Y-68712500D03*
X160020000Y-68712500D03*
X159070000Y-68712500D03*
%TD*%
D17*
%TO.C,J11*%
X147320000Y-30480000D03*
D18*
X147320000Y-27940000D03*
X149860000Y-30480000D03*
X149860000Y-27940000D03*
X152400000Y-30480000D03*
X152400000Y-27940000D03*
X154940000Y-30480000D03*
X154940000Y-27940000D03*
X157480000Y-30480000D03*
X157480000Y-27940000D03*
X160020000Y-30480000D03*
X160020000Y-27940000D03*
X162560000Y-30480000D03*
X162560000Y-27940000D03*
X165100000Y-30480000D03*
X165100000Y-27940000D03*
X167640000Y-30480000D03*
X167640000Y-27940000D03*
X170180000Y-30480000D03*
X170180000Y-27940000D03*
%TD*%
D16*
%TO.C,Q5*%
X175580000Y-70987500D03*
X176530000Y-70987500D03*
X177480000Y-70987500D03*
X177480000Y-68712500D03*
X176530000Y-68712500D03*
X175580000Y-68712500D03*
%TD*%
D13*
%TO.C,REF\u002A\u002A*%
X200660000Y-78740000D03*
%TD*%
D17*
%TO.C,J12*%
X175260000Y-30480000D03*
D18*
X177800000Y-30480000D03*
%TD*%
D17*
%TO.C,J8*%
X163322000Y-64770000D03*
D18*
X160782000Y-64770000D03*
%TD*%
D17*
%TO.C,J3*%
X152400000Y-79375000D03*
D18*
X154940000Y-79375000D03*
X157480000Y-79375000D03*
X160020000Y-79375000D03*
%TD*%
D12*
%TO.C,R9*%
X142240000Y-63309000D03*
X142240000Y-61659000D03*
%TD*%
%TO.C,R7*%
X154940000Y-63309000D03*
X154940000Y-61659000D03*
%TD*%
D17*
%TO.C,J6*%
X121920000Y-71120000D03*
D18*
X124460000Y-71120000D03*
X127000000Y-71120000D03*
X129540000Y-71120000D03*
%TD*%
%LPD*%
M02*
