%TF.GenerationSoftware,KiCad,Pcbnew,5.1.9+dfsg1-1*%
%TF.CreationDate,2021-02-28T18:52:37-05:00*%
%TF.ProjectId,incubator_pcb,696e6375-6261-4746-9f72-5f7063622e6b,rev?*%
%TF.SameCoordinates,Original*%
%TF.FileFunction,Paste,Top*%
%TF.FilePolarity,Positive*%
%FSLAX46Y46*%
G04 Gerber Fmt 4.6, Leading zero omitted, Abs format (unit mm)*
G04 Created by KiCad (PCBNEW 5.1.9+dfsg1-1) date 2021-02-28 18:52:37*
%MOMM*%
%LPD*%
G01*
G04 APERTURE LIST*
%ADD10R,2.750000X3.050000*%
%ADD11R,1.200000X2.200000*%
G04 APERTURE END LIST*
D10*
X41396380Y-91975120D03*
X38346380Y-88625120D03*
X38346380Y-91975120D03*
X41396380Y-88625120D03*
D11*
X42151380Y-96600120D03*
X37591380Y-96600120D03*
D10*
X52064380Y-91975120D03*
X49014380Y-88625120D03*
X49014380Y-91975120D03*
X52064380Y-88625120D03*
D11*
X52819380Y-96600120D03*
X48259380Y-96600120D03*
G36*
G01*
X71304999Y-119764000D02*
X72205001Y-119764000D01*
G75*
G02*
X72455000Y-120013999I0J-249999D01*
G01*
X72455000Y-120714001D01*
G75*
G02*
X72205001Y-120964000I-249999J0D01*
G01*
X71304999Y-120964000D01*
G75*
G02*
X71055000Y-120714001I0J249999D01*
G01*
X71055000Y-120013999D01*
G75*
G02*
X71304999Y-119764000I249999J0D01*
G01*
G37*
G36*
G01*
X71304999Y-117764000D02*
X72205001Y-117764000D01*
G75*
G02*
X72455000Y-118013999I0J-249999D01*
G01*
X72455000Y-118714001D01*
G75*
G02*
X72205001Y-118964000I-249999J0D01*
G01*
X71304999Y-118964000D01*
G75*
G02*
X71055000Y-118714001I0J249999D01*
G01*
X71055000Y-118013999D01*
G75*
G02*
X71304999Y-117764000I249999J0D01*
G01*
G37*
G36*
G01*
X71177999Y-100841000D02*
X72078001Y-100841000D01*
G75*
G02*
X72328000Y-101090999I0J-249999D01*
G01*
X72328000Y-101791001D01*
G75*
G02*
X72078001Y-102041000I-249999J0D01*
G01*
X71177999Y-102041000D01*
G75*
G02*
X70928000Y-101791001I0J249999D01*
G01*
X70928000Y-101090999D01*
G75*
G02*
X71177999Y-100841000I249999J0D01*
G01*
G37*
G36*
G01*
X71177999Y-98841000D02*
X72078001Y-98841000D01*
G75*
G02*
X72328000Y-99090999I0J-249999D01*
G01*
X72328000Y-99791001D01*
G75*
G02*
X72078001Y-100041000I-249999J0D01*
G01*
X71177999Y-100041000D01*
G75*
G02*
X70928000Y-99791001I0J249999D01*
G01*
X70928000Y-99090999D01*
G75*
G02*
X71177999Y-98841000I249999J0D01*
G01*
G37*
G36*
G01*
X69140379Y-119740120D02*
X70040381Y-119740120D01*
G75*
G02*
X70290380Y-119990119I0J-249999D01*
G01*
X70290380Y-120690121D01*
G75*
G02*
X70040381Y-120940120I-249999J0D01*
G01*
X69140379Y-120940120D01*
G75*
G02*
X68890380Y-120690121I0J249999D01*
G01*
X68890380Y-119990119D01*
G75*
G02*
X69140379Y-119740120I249999J0D01*
G01*
G37*
G36*
G01*
X69140379Y-117740120D02*
X70040381Y-117740120D01*
G75*
G02*
X70290380Y-117990119I0J-249999D01*
G01*
X70290380Y-118690121D01*
G75*
G02*
X70040381Y-118940120I-249999J0D01*
G01*
X69140379Y-118940120D01*
G75*
G02*
X68890380Y-118690121I0J249999D01*
G01*
X68890380Y-117990119D01*
G75*
G02*
X69140379Y-117740120I249999J0D01*
G01*
G37*
G36*
G01*
X69140379Y-100841000D02*
X70040381Y-100841000D01*
G75*
G02*
X70290380Y-101090999I0J-249999D01*
G01*
X70290380Y-101791001D01*
G75*
G02*
X70040381Y-102041000I-249999J0D01*
G01*
X69140379Y-102041000D01*
G75*
G02*
X68890380Y-101791001I0J249999D01*
G01*
X68890380Y-101090999D01*
G75*
G02*
X69140379Y-100841000I249999J0D01*
G01*
G37*
G36*
G01*
X69140379Y-98841000D02*
X70040381Y-98841000D01*
G75*
G02*
X70290380Y-99090999I0J-249999D01*
G01*
X70290380Y-99791001D01*
G75*
G02*
X70040381Y-100041000I-249999J0D01*
G01*
X69140379Y-100041000D01*
G75*
G02*
X68890380Y-99791001I0J249999D01*
G01*
X68890380Y-99090999D01*
G75*
G02*
X69140379Y-98841000I249999J0D01*
G01*
G37*
G36*
G01*
X60636999Y-119764000D02*
X61537001Y-119764000D01*
G75*
G02*
X61787000Y-120013999I0J-249999D01*
G01*
X61787000Y-120714001D01*
G75*
G02*
X61537001Y-120964000I-249999J0D01*
G01*
X60636999Y-120964000D01*
G75*
G02*
X60387000Y-120714001I0J249999D01*
G01*
X60387000Y-120013999D01*
G75*
G02*
X60636999Y-119764000I249999J0D01*
G01*
G37*
G36*
G01*
X60636999Y-117764000D02*
X61537001Y-117764000D01*
G75*
G02*
X61787000Y-118013999I0J-249999D01*
G01*
X61787000Y-118714001D01*
G75*
G02*
X61537001Y-118964000I-249999J0D01*
G01*
X60636999Y-118964000D01*
G75*
G02*
X60387000Y-118714001I0J249999D01*
G01*
X60387000Y-118013999D01*
G75*
G02*
X60636999Y-117764000I249999J0D01*
G01*
G37*
G36*
G01*
X60509999Y-100841000D02*
X61410001Y-100841000D01*
G75*
G02*
X61660000Y-101090999I0J-249999D01*
G01*
X61660000Y-101791001D01*
G75*
G02*
X61410001Y-102041000I-249999J0D01*
G01*
X60509999Y-102041000D01*
G75*
G02*
X60260000Y-101791001I0J249999D01*
G01*
X60260000Y-101090999D01*
G75*
G02*
X60509999Y-100841000I249999J0D01*
G01*
G37*
G36*
G01*
X60509999Y-98841000D02*
X61410001Y-98841000D01*
G75*
G02*
X61660000Y-99090999I0J-249999D01*
G01*
X61660000Y-99791001D01*
G75*
G02*
X61410001Y-100041000I-249999J0D01*
G01*
X60509999Y-100041000D01*
G75*
G02*
X60260000Y-99791001I0J249999D01*
G01*
X60260000Y-99090999D01*
G75*
G02*
X60509999Y-98841000I249999J0D01*
G01*
G37*
G36*
G01*
X58472379Y-119740120D02*
X59372381Y-119740120D01*
G75*
G02*
X59622380Y-119990119I0J-249999D01*
G01*
X59622380Y-120690121D01*
G75*
G02*
X59372381Y-120940120I-249999J0D01*
G01*
X58472379Y-120940120D01*
G75*
G02*
X58222380Y-120690121I0J249999D01*
G01*
X58222380Y-119990119D01*
G75*
G02*
X58472379Y-119740120I249999J0D01*
G01*
G37*
G36*
G01*
X58472379Y-117740120D02*
X59372381Y-117740120D01*
G75*
G02*
X59622380Y-117990119I0J-249999D01*
G01*
X59622380Y-118690121D01*
G75*
G02*
X59372381Y-118940120I-249999J0D01*
G01*
X58472379Y-118940120D01*
G75*
G02*
X58222380Y-118690121I0J249999D01*
G01*
X58222380Y-117990119D01*
G75*
G02*
X58472379Y-117740120I249999J0D01*
G01*
G37*
G36*
G01*
X58472379Y-100841000D02*
X59372381Y-100841000D01*
G75*
G02*
X59622380Y-101090999I0J-249999D01*
G01*
X59622380Y-101791001D01*
G75*
G02*
X59372381Y-102041000I-249999J0D01*
G01*
X58472379Y-102041000D01*
G75*
G02*
X58222380Y-101791001I0J249999D01*
G01*
X58222380Y-101090999D01*
G75*
G02*
X58472379Y-100841000I249999J0D01*
G01*
G37*
G36*
G01*
X58472379Y-98841000D02*
X59372381Y-98841000D01*
G75*
G02*
X59622380Y-99090999I0J-249999D01*
G01*
X59622380Y-99791001D01*
G75*
G02*
X59372381Y-100041000I-249999J0D01*
G01*
X58472379Y-100041000D01*
G75*
G02*
X58222380Y-99791001I0J249999D01*
G01*
X58222380Y-99090999D01*
G75*
G02*
X58472379Y-98841000I249999J0D01*
G01*
G37*
G36*
G01*
X92640999Y-119764000D02*
X93541001Y-119764000D01*
G75*
G02*
X93791000Y-120013999I0J-249999D01*
G01*
X93791000Y-120714001D01*
G75*
G02*
X93541001Y-120964000I-249999J0D01*
G01*
X92640999Y-120964000D01*
G75*
G02*
X92391000Y-120714001I0J249999D01*
G01*
X92391000Y-120013999D01*
G75*
G02*
X92640999Y-119764000I249999J0D01*
G01*
G37*
G36*
G01*
X92640999Y-117764000D02*
X93541001Y-117764000D01*
G75*
G02*
X93791000Y-118013999I0J-249999D01*
G01*
X93791000Y-118714001D01*
G75*
G02*
X93541001Y-118964000I-249999J0D01*
G01*
X92640999Y-118964000D01*
G75*
G02*
X92391000Y-118714001I0J249999D01*
G01*
X92391000Y-118013999D01*
G75*
G02*
X92640999Y-117764000I249999J0D01*
G01*
G37*
G36*
G01*
X92513999Y-100841000D02*
X93414001Y-100841000D01*
G75*
G02*
X93664000Y-101090999I0J-249999D01*
G01*
X93664000Y-101791001D01*
G75*
G02*
X93414001Y-102041000I-249999J0D01*
G01*
X92513999Y-102041000D01*
G75*
G02*
X92264000Y-101791001I0J249999D01*
G01*
X92264000Y-101090999D01*
G75*
G02*
X92513999Y-100841000I249999J0D01*
G01*
G37*
G36*
G01*
X92513999Y-98841000D02*
X93414001Y-98841000D01*
G75*
G02*
X93664000Y-99090999I0J-249999D01*
G01*
X93664000Y-99791001D01*
G75*
G02*
X93414001Y-100041000I-249999J0D01*
G01*
X92513999Y-100041000D01*
G75*
G02*
X92264000Y-99791001I0J249999D01*
G01*
X92264000Y-99090999D01*
G75*
G02*
X92513999Y-98841000I249999J0D01*
G01*
G37*
G36*
G01*
X90476379Y-119740120D02*
X91376381Y-119740120D01*
G75*
G02*
X91626380Y-119990119I0J-249999D01*
G01*
X91626380Y-120690121D01*
G75*
G02*
X91376381Y-120940120I-249999J0D01*
G01*
X90476379Y-120940120D01*
G75*
G02*
X90226380Y-120690121I0J249999D01*
G01*
X90226380Y-119990119D01*
G75*
G02*
X90476379Y-119740120I249999J0D01*
G01*
G37*
G36*
G01*
X90476379Y-117740120D02*
X91376381Y-117740120D01*
G75*
G02*
X91626380Y-117990119I0J-249999D01*
G01*
X91626380Y-118690121D01*
G75*
G02*
X91376381Y-118940120I-249999J0D01*
G01*
X90476379Y-118940120D01*
G75*
G02*
X90226380Y-118690121I0J249999D01*
G01*
X90226380Y-117990119D01*
G75*
G02*
X90476379Y-117740120I249999J0D01*
G01*
G37*
G36*
G01*
X90476379Y-100841000D02*
X91376381Y-100841000D01*
G75*
G02*
X91626380Y-101090999I0J-249999D01*
G01*
X91626380Y-101791001D01*
G75*
G02*
X91376381Y-102041000I-249999J0D01*
G01*
X90476379Y-102041000D01*
G75*
G02*
X90226380Y-101791001I0J249999D01*
G01*
X90226380Y-101090999D01*
G75*
G02*
X90476379Y-100841000I249999J0D01*
G01*
G37*
G36*
G01*
X90476379Y-98841000D02*
X91376381Y-98841000D01*
G75*
G02*
X91626380Y-99090999I0J-249999D01*
G01*
X91626380Y-99791001D01*
G75*
G02*
X91376381Y-100041000I-249999J0D01*
G01*
X90476379Y-100041000D01*
G75*
G02*
X90226380Y-99791001I0J249999D01*
G01*
X90226380Y-99090999D01*
G75*
G02*
X90476379Y-98841000I249999J0D01*
G01*
G37*
G36*
G01*
X81972999Y-119764000D02*
X82873001Y-119764000D01*
G75*
G02*
X83123000Y-120013999I0J-249999D01*
G01*
X83123000Y-120714001D01*
G75*
G02*
X82873001Y-120964000I-249999J0D01*
G01*
X81972999Y-120964000D01*
G75*
G02*
X81723000Y-120714001I0J249999D01*
G01*
X81723000Y-120013999D01*
G75*
G02*
X81972999Y-119764000I249999J0D01*
G01*
G37*
G36*
G01*
X81972999Y-117764000D02*
X82873001Y-117764000D01*
G75*
G02*
X83123000Y-118013999I0J-249999D01*
G01*
X83123000Y-118714001D01*
G75*
G02*
X82873001Y-118964000I-249999J0D01*
G01*
X81972999Y-118964000D01*
G75*
G02*
X81723000Y-118714001I0J249999D01*
G01*
X81723000Y-118013999D01*
G75*
G02*
X81972999Y-117764000I249999J0D01*
G01*
G37*
G36*
G01*
X81845999Y-100841000D02*
X82746001Y-100841000D01*
G75*
G02*
X82996000Y-101090999I0J-249999D01*
G01*
X82996000Y-101791001D01*
G75*
G02*
X82746001Y-102041000I-249999J0D01*
G01*
X81845999Y-102041000D01*
G75*
G02*
X81596000Y-101791001I0J249999D01*
G01*
X81596000Y-101090999D01*
G75*
G02*
X81845999Y-100841000I249999J0D01*
G01*
G37*
G36*
G01*
X81845999Y-98841000D02*
X82746001Y-98841000D01*
G75*
G02*
X82996000Y-99090999I0J-249999D01*
G01*
X82996000Y-99791001D01*
G75*
G02*
X82746001Y-100041000I-249999J0D01*
G01*
X81845999Y-100041000D01*
G75*
G02*
X81596000Y-99791001I0J249999D01*
G01*
X81596000Y-99090999D01*
G75*
G02*
X81845999Y-98841000I249999J0D01*
G01*
G37*
G36*
G01*
X79808379Y-119740120D02*
X80708381Y-119740120D01*
G75*
G02*
X80958380Y-119990119I0J-249999D01*
G01*
X80958380Y-120690121D01*
G75*
G02*
X80708381Y-120940120I-249999J0D01*
G01*
X79808379Y-120940120D01*
G75*
G02*
X79558380Y-120690121I0J249999D01*
G01*
X79558380Y-119990119D01*
G75*
G02*
X79808379Y-119740120I249999J0D01*
G01*
G37*
G36*
G01*
X79808379Y-117740120D02*
X80708381Y-117740120D01*
G75*
G02*
X80958380Y-117990119I0J-249999D01*
G01*
X80958380Y-118690121D01*
G75*
G02*
X80708381Y-118940120I-249999J0D01*
G01*
X79808379Y-118940120D01*
G75*
G02*
X79558380Y-118690121I0J249999D01*
G01*
X79558380Y-117990119D01*
G75*
G02*
X79808379Y-117740120I249999J0D01*
G01*
G37*
G36*
G01*
X79808379Y-100841000D02*
X80708381Y-100841000D01*
G75*
G02*
X80958380Y-101090999I0J-249999D01*
G01*
X80958380Y-101791001D01*
G75*
G02*
X80708381Y-102041000I-249999J0D01*
G01*
X79808379Y-102041000D01*
G75*
G02*
X79558380Y-101791001I0J249999D01*
G01*
X79558380Y-101090999D01*
G75*
G02*
X79808379Y-100841000I249999J0D01*
G01*
G37*
G36*
G01*
X79808379Y-98841000D02*
X80708381Y-98841000D01*
G75*
G02*
X80958380Y-99090999I0J-249999D01*
G01*
X80958380Y-99791001D01*
G75*
G02*
X80708381Y-100041000I-249999J0D01*
G01*
X79808379Y-100041000D01*
G75*
G02*
X79558380Y-99791001I0J249999D01*
G01*
X79558380Y-99090999D01*
G75*
G02*
X79808379Y-98841000I249999J0D01*
G01*
G37*
G36*
G01*
X49968999Y-119764000D02*
X50869001Y-119764000D01*
G75*
G02*
X51119000Y-120013999I0J-249999D01*
G01*
X51119000Y-120714001D01*
G75*
G02*
X50869001Y-120964000I-249999J0D01*
G01*
X49968999Y-120964000D01*
G75*
G02*
X49719000Y-120714001I0J249999D01*
G01*
X49719000Y-120013999D01*
G75*
G02*
X49968999Y-119764000I249999J0D01*
G01*
G37*
G36*
G01*
X49968999Y-117764000D02*
X50869001Y-117764000D01*
G75*
G02*
X51119000Y-118013999I0J-249999D01*
G01*
X51119000Y-118714001D01*
G75*
G02*
X50869001Y-118964000I-249999J0D01*
G01*
X49968999Y-118964000D01*
G75*
G02*
X49719000Y-118714001I0J249999D01*
G01*
X49719000Y-118013999D01*
G75*
G02*
X49968999Y-117764000I249999J0D01*
G01*
G37*
G36*
G01*
X49841999Y-100841000D02*
X50742001Y-100841000D01*
G75*
G02*
X50992000Y-101090999I0J-249999D01*
G01*
X50992000Y-101791001D01*
G75*
G02*
X50742001Y-102041000I-249999J0D01*
G01*
X49841999Y-102041000D01*
G75*
G02*
X49592000Y-101791001I0J249999D01*
G01*
X49592000Y-101090999D01*
G75*
G02*
X49841999Y-100841000I249999J0D01*
G01*
G37*
G36*
G01*
X49841999Y-98841000D02*
X50742001Y-98841000D01*
G75*
G02*
X50992000Y-99090999I0J-249999D01*
G01*
X50992000Y-99791001D01*
G75*
G02*
X50742001Y-100041000I-249999J0D01*
G01*
X49841999Y-100041000D01*
G75*
G02*
X49592000Y-99791001I0J249999D01*
G01*
X49592000Y-99090999D01*
G75*
G02*
X49841999Y-98841000I249999J0D01*
G01*
G37*
G36*
G01*
X47804379Y-119740120D02*
X48704381Y-119740120D01*
G75*
G02*
X48954380Y-119990119I0J-249999D01*
G01*
X48954380Y-120690121D01*
G75*
G02*
X48704381Y-120940120I-249999J0D01*
G01*
X47804379Y-120940120D01*
G75*
G02*
X47554380Y-120690121I0J249999D01*
G01*
X47554380Y-119990119D01*
G75*
G02*
X47804379Y-119740120I249999J0D01*
G01*
G37*
G36*
G01*
X47804379Y-117740120D02*
X48704381Y-117740120D01*
G75*
G02*
X48954380Y-117990119I0J-249999D01*
G01*
X48954380Y-118690121D01*
G75*
G02*
X48704381Y-118940120I-249999J0D01*
G01*
X47804379Y-118940120D01*
G75*
G02*
X47554380Y-118690121I0J249999D01*
G01*
X47554380Y-117990119D01*
G75*
G02*
X47804379Y-117740120I249999J0D01*
G01*
G37*
G36*
G01*
X47804379Y-100841000D02*
X48704381Y-100841000D01*
G75*
G02*
X48954380Y-101090999I0J-249999D01*
G01*
X48954380Y-101791001D01*
G75*
G02*
X48704381Y-102041000I-249999J0D01*
G01*
X47804379Y-102041000D01*
G75*
G02*
X47554380Y-101791001I0J249999D01*
G01*
X47554380Y-101090999D01*
G75*
G02*
X47804379Y-100841000I249999J0D01*
G01*
G37*
G36*
G01*
X47804379Y-98841000D02*
X48704381Y-98841000D01*
G75*
G02*
X48954380Y-99090999I0J-249999D01*
G01*
X48954380Y-99791001D01*
G75*
G02*
X48704381Y-100041000I-249999J0D01*
G01*
X47804379Y-100041000D01*
G75*
G02*
X47554380Y-99791001I0J249999D01*
G01*
X47554380Y-99090999D01*
G75*
G02*
X47804379Y-98841000I249999J0D01*
G01*
G37*
G36*
G01*
X39300999Y-119764000D02*
X40201001Y-119764000D01*
G75*
G02*
X40451000Y-120013999I0J-249999D01*
G01*
X40451000Y-120714001D01*
G75*
G02*
X40201001Y-120964000I-249999J0D01*
G01*
X39300999Y-120964000D01*
G75*
G02*
X39051000Y-120714001I0J249999D01*
G01*
X39051000Y-120013999D01*
G75*
G02*
X39300999Y-119764000I249999J0D01*
G01*
G37*
G36*
G01*
X39300999Y-117764000D02*
X40201001Y-117764000D01*
G75*
G02*
X40451000Y-118013999I0J-249999D01*
G01*
X40451000Y-118714001D01*
G75*
G02*
X40201001Y-118964000I-249999J0D01*
G01*
X39300999Y-118964000D01*
G75*
G02*
X39051000Y-118714001I0J249999D01*
G01*
X39051000Y-118013999D01*
G75*
G02*
X39300999Y-117764000I249999J0D01*
G01*
G37*
G36*
G01*
X39173999Y-100841000D02*
X40074001Y-100841000D01*
G75*
G02*
X40324000Y-101090999I0J-249999D01*
G01*
X40324000Y-101791001D01*
G75*
G02*
X40074001Y-102041000I-249999J0D01*
G01*
X39173999Y-102041000D01*
G75*
G02*
X38924000Y-101791001I0J249999D01*
G01*
X38924000Y-101090999D01*
G75*
G02*
X39173999Y-100841000I249999J0D01*
G01*
G37*
G36*
G01*
X39173999Y-98841000D02*
X40074001Y-98841000D01*
G75*
G02*
X40324000Y-99090999I0J-249999D01*
G01*
X40324000Y-99791001D01*
G75*
G02*
X40074001Y-100041000I-249999J0D01*
G01*
X39173999Y-100041000D01*
G75*
G02*
X38924000Y-99791001I0J249999D01*
G01*
X38924000Y-99090999D01*
G75*
G02*
X39173999Y-98841000I249999J0D01*
G01*
G37*
G36*
G01*
X37136379Y-119740120D02*
X38036381Y-119740120D01*
G75*
G02*
X38286380Y-119990119I0J-249999D01*
G01*
X38286380Y-120690121D01*
G75*
G02*
X38036381Y-120940120I-249999J0D01*
G01*
X37136379Y-120940120D01*
G75*
G02*
X36886380Y-120690121I0J249999D01*
G01*
X36886380Y-119990119D01*
G75*
G02*
X37136379Y-119740120I249999J0D01*
G01*
G37*
G36*
G01*
X37136379Y-117740120D02*
X38036381Y-117740120D01*
G75*
G02*
X38286380Y-117990119I0J-249999D01*
G01*
X38286380Y-118690121D01*
G75*
G02*
X38036381Y-118940120I-249999J0D01*
G01*
X37136379Y-118940120D01*
G75*
G02*
X36886380Y-118690121I0J249999D01*
G01*
X36886380Y-117990119D01*
G75*
G02*
X37136379Y-117740120I249999J0D01*
G01*
G37*
G36*
G01*
X37136379Y-100841000D02*
X38036381Y-100841000D01*
G75*
G02*
X38286380Y-101090999I0J-249999D01*
G01*
X38286380Y-101791001D01*
G75*
G02*
X38036381Y-102041000I-249999J0D01*
G01*
X37136379Y-102041000D01*
G75*
G02*
X36886380Y-101791001I0J249999D01*
G01*
X36886380Y-101090999D01*
G75*
G02*
X37136379Y-100841000I249999J0D01*
G01*
G37*
G36*
G01*
X37136379Y-98841000D02*
X38036381Y-98841000D01*
G75*
G02*
X38286380Y-99090999I0J-249999D01*
G01*
X38286380Y-99791001D01*
G75*
G02*
X38036381Y-100041000I-249999J0D01*
G01*
X37136379Y-100041000D01*
G75*
G02*
X36886380Y-99791001I0J249999D01*
G01*
X36886380Y-99090999D01*
G75*
G02*
X37136379Y-98841000I249999J0D01*
G01*
G37*
G36*
G01*
X8070001Y-119250000D02*
X7169999Y-119250000D01*
G75*
G02*
X6920000Y-119000001I0J249999D01*
G01*
X6920000Y-118299999D01*
G75*
G02*
X7169999Y-118050000I249999J0D01*
G01*
X8070001Y-118050000D01*
G75*
G02*
X8320000Y-118299999I0J-249999D01*
G01*
X8320000Y-119000001D01*
G75*
G02*
X8070001Y-119250000I-249999J0D01*
G01*
G37*
G36*
G01*
X8070001Y-121250000D02*
X7169999Y-121250000D01*
G75*
G02*
X6920000Y-121000001I0J249999D01*
G01*
X6920000Y-120299999D01*
G75*
G02*
X7169999Y-120050000I249999J0D01*
G01*
X8070001Y-120050000D01*
G75*
G02*
X8320000Y-120299999I0J-249999D01*
G01*
X8320000Y-121000001D01*
G75*
G02*
X8070001Y-121250000I-249999J0D01*
G01*
G37*
G36*
G01*
X7705001Y-103845000D02*
X6404999Y-103845000D01*
G75*
G02*
X6155000Y-103595001I0J249999D01*
G01*
X6155000Y-102894999D01*
G75*
G02*
X6404999Y-102645000I249999J0D01*
G01*
X7705001Y-102645000D01*
G75*
G02*
X7955000Y-102894999I0J-249999D01*
G01*
X7955000Y-103595001D01*
G75*
G02*
X7705001Y-103845000I-249999J0D01*
G01*
G37*
G36*
G01*
X7705001Y-109445000D02*
X6404999Y-109445000D01*
G75*
G02*
X6155000Y-109195001I0J249999D01*
G01*
X6155000Y-108494999D01*
G75*
G02*
X6404999Y-108245000I249999J0D01*
G01*
X7705001Y-108245000D01*
G75*
G02*
X7955000Y-108494999I0J-249999D01*
G01*
X7955000Y-109195001D01*
G75*
G02*
X7705001Y-109445000I-249999J0D01*
G01*
G37*
G36*
G01*
X10205000Y-104845000D02*
X8955000Y-104845000D01*
G75*
G02*
X8805000Y-104695000I0J150000D01*
G01*
X8805000Y-104395000D01*
G75*
G02*
X8955000Y-104245000I150000J0D01*
G01*
X10205000Y-104245000D01*
G75*
G02*
X10355000Y-104395000I0J-150000D01*
G01*
X10355000Y-104695000D01*
G75*
G02*
X10205000Y-104845000I-150000J0D01*
G01*
G37*
G36*
G01*
X10205000Y-105845000D02*
X8955000Y-105845000D01*
G75*
G02*
X8805000Y-105695000I0J150000D01*
G01*
X8805000Y-105395000D01*
G75*
G02*
X8955000Y-105245000I150000J0D01*
G01*
X10205000Y-105245000D01*
G75*
G02*
X10355000Y-105395000I0J-150000D01*
G01*
X10355000Y-105695000D01*
G75*
G02*
X10205000Y-105845000I-150000J0D01*
G01*
G37*
G36*
G01*
X10205000Y-106845000D02*
X8955000Y-106845000D01*
G75*
G02*
X8805000Y-106695000I0J150000D01*
G01*
X8805000Y-106395000D01*
G75*
G02*
X8955000Y-106245000I150000J0D01*
G01*
X10205000Y-106245000D01*
G75*
G02*
X10355000Y-106395000I0J-150000D01*
G01*
X10355000Y-106695000D01*
G75*
G02*
X10205000Y-106845000I-150000J0D01*
G01*
G37*
G36*
G01*
X10205000Y-107845000D02*
X8955000Y-107845000D01*
G75*
G02*
X8805000Y-107695000I0J150000D01*
G01*
X8805000Y-107395000D01*
G75*
G02*
X8955000Y-107245000I150000J0D01*
G01*
X10205000Y-107245000D01*
G75*
G02*
X10355000Y-107395000I0J-150000D01*
G01*
X10355000Y-107695000D01*
G75*
G02*
X10205000Y-107845000I-150000J0D01*
G01*
G37*
G36*
G01*
X7705001Y-91780000D02*
X6404999Y-91780000D01*
G75*
G02*
X6155000Y-91530001I0J249999D01*
G01*
X6155000Y-90829999D01*
G75*
G02*
X6404999Y-90580000I249999J0D01*
G01*
X7705001Y-90580000D01*
G75*
G02*
X7955000Y-90829999I0J-249999D01*
G01*
X7955000Y-91530001D01*
G75*
G02*
X7705001Y-91780000I-249999J0D01*
G01*
G37*
G36*
G01*
X7705001Y-97380000D02*
X6404999Y-97380000D01*
G75*
G02*
X6155000Y-97130001I0J249999D01*
G01*
X6155000Y-96429999D01*
G75*
G02*
X6404999Y-96180000I249999J0D01*
G01*
X7705001Y-96180000D01*
G75*
G02*
X7955000Y-96429999I0J-249999D01*
G01*
X7955000Y-97130001D01*
G75*
G02*
X7705001Y-97380000I-249999J0D01*
G01*
G37*
G36*
G01*
X10205000Y-92780000D02*
X8955000Y-92780000D01*
G75*
G02*
X8805000Y-92630000I0J150000D01*
G01*
X8805000Y-92330000D01*
G75*
G02*
X8955000Y-92180000I150000J0D01*
G01*
X10205000Y-92180000D01*
G75*
G02*
X10355000Y-92330000I0J-150000D01*
G01*
X10355000Y-92630000D01*
G75*
G02*
X10205000Y-92780000I-150000J0D01*
G01*
G37*
G36*
G01*
X10205000Y-93780000D02*
X8955000Y-93780000D01*
G75*
G02*
X8805000Y-93630000I0J150000D01*
G01*
X8805000Y-93330000D01*
G75*
G02*
X8955000Y-93180000I150000J0D01*
G01*
X10205000Y-93180000D01*
G75*
G02*
X10355000Y-93330000I0J-150000D01*
G01*
X10355000Y-93630000D01*
G75*
G02*
X10205000Y-93780000I-150000J0D01*
G01*
G37*
G36*
G01*
X10205000Y-94780000D02*
X8955000Y-94780000D01*
G75*
G02*
X8805000Y-94630000I0J150000D01*
G01*
X8805000Y-94330000D01*
G75*
G02*
X8955000Y-94180000I150000J0D01*
G01*
X10205000Y-94180000D01*
G75*
G02*
X10355000Y-94330000I0J-150000D01*
G01*
X10355000Y-94630000D01*
G75*
G02*
X10205000Y-94780000I-150000J0D01*
G01*
G37*
G36*
G01*
X10205000Y-95780000D02*
X8955000Y-95780000D01*
G75*
G02*
X8805000Y-95630000I0J150000D01*
G01*
X8805000Y-95330000D01*
G75*
G02*
X8955000Y-95180000I150000J0D01*
G01*
X10205000Y-95180000D01*
G75*
G02*
X10355000Y-95330000I0J-150000D01*
G01*
X10355000Y-95630000D01*
G75*
G02*
X10205000Y-95780000I-150000J0D01*
G01*
G37*
D10*
X73400380Y-110355120D03*
X70350380Y-107005120D03*
X70350380Y-110355120D03*
X73400380Y-107005120D03*
D11*
X74155380Y-114980120D03*
X69595380Y-114980120D03*
D10*
X73400380Y-91975120D03*
X70350380Y-88625120D03*
X70350380Y-91975120D03*
X73400380Y-88625120D03*
D11*
X74155380Y-96600120D03*
X69595380Y-96600120D03*
D10*
X62732380Y-110355120D03*
X59682380Y-107005120D03*
X59682380Y-110355120D03*
X62732380Y-107005120D03*
D11*
X63487380Y-114980120D03*
X58927380Y-114980120D03*
D10*
X62732380Y-91975120D03*
X59682380Y-88625120D03*
X59682380Y-91975120D03*
X62732380Y-88625120D03*
D11*
X63487380Y-96600120D03*
X58927380Y-96600120D03*
D10*
X94736380Y-110355120D03*
X91686380Y-107005120D03*
X91686380Y-110355120D03*
X94736380Y-107005120D03*
D11*
X95491380Y-114980120D03*
X90931380Y-114980120D03*
D10*
X94736380Y-91975120D03*
X91686380Y-88625120D03*
X91686380Y-91975120D03*
X94736380Y-88625120D03*
D11*
X95491380Y-96600120D03*
X90931380Y-96600120D03*
D10*
X84068380Y-110355120D03*
X81018380Y-107005120D03*
X81018380Y-110355120D03*
X84068380Y-107005120D03*
D11*
X84823380Y-114980120D03*
X80263380Y-114980120D03*
D10*
X84068380Y-91975120D03*
X81018380Y-88625120D03*
X81018380Y-91975120D03*
X84068380Y-88625120D03*
D11*
X84823380Y-96600120D03*
X80263380Y-96600120D03*
D10*
X52064380Y-110355120D03*
X49014380Y-107005120D03*
X49014380Y-110355120D03*
X52064380Y-107005120D03*
D11*
X52819380Y-114980120D03*
X48259380Y-114980120D03*
D10*
X41396380Y-110355120D03*
X38346380Y-107005120D03*
X38346380Y-110355120D03*
X41396380Y-107005120D03*
D11*
X42151380Y-114980120D03*
X37591380Y-114980120D03*
G36*
G01*
X8070001Y-114875000D02*
X7169999Y-114875000D01*
G75*
G02*
X6920000Y-114625001I0J249999D01*
G01*
X6920000Y-113974999D01*
G75*
G02*
X7169999Y-113725000I249999J0D01*
G01*
X8070001Y-113725000D01*
G75*
G02*
X8320000Y-113974999I0J-249999D01*
G01*
X8320000Y-114625001D01*
G75*
G02*
X8070001Y-114875000I-249999J0D01*
G01*
G37*
G36*
G01*
X8070001Y-116925000D02*
X7169999Y-116925000D01*
G75*
G02*
X6920000Y-116675001I0J249999D01*
G01*
X6920000Y-116024999D01*
G75*
G02*
X7169999Y-115775000I249999J0D01*
G01*
X8070001Y-115775000D01*
G75*
G02*
X8320000Y-116024999I0J-249999D01*
G01*
X8320000Y-116675001D01*
G75*
G02*
X8070001Y-116925000I-249999J0D01*
G01*
G37*
M02*
