M48
; DRILL file {KiCad 5.1.9+dfsg1-1} date Sun Feb 28 18:44:55 2021
; FORMAT={-:-/ absolute / inch / decimal}
; #@! TF.CreationDate,2021-02-28T18:44:55-05:00
; #@! TF.GenerationSoftware,Kicad,Pcbnew,5.1.9+dfsg1-1
; #@! TF.FileFunction,Plated,1,4,PTH
FMAT,2
INCH
T1C0.0157
T2C0.0394
%
G90
G05
T1
X0.35Y-4.75
X0.375Y-4.475
X0.45Y-3.725
X0.45Y-3.775
X0.45Y-4.2
X0.45Y-4.25
X0.8Y-3.875
X0.9Y-3.85
X1.4Y-3.7
X1.4Y-4.475
X1.4221Y-3.5987
X1.425Y-4.55
X1.625Y-3.875
X1.625Y-3.925
X1.625Y-3.975
X1.625Y-4.625
X1.625Y-4.675
X1.625Y-4.725
X1.675Y-3.925
X1.675Y-3.975
X1.675Y-4.625
X1.675Y-4.675
X1.675Y-4.725
X1.8327Y-3.79
X1.8335Y-3.65
X1.8335Y-3.7239
X2.045Y-3.875
X2.045Y-3.925
X2.045Y-3.975
X2.045Y-4.625
X2.045Y-4.675
X2.045Y-4.725
X2.095Y-3.925
X2.095Y-3.975
X2.095Y-4.625
X2.095Y-4.675
X2.095Y-4.725
X2.2527Y-3.77
X2.2535Y-3.69
X2.465Y-3.975
X2.465Y-4.625
X2.465Y-4.675
X2.465Y-4.725
X2.4715Y-3.8747
X2.4715Y-3.9237
X2.515Y-3.925
X2.515Y-3.975
X2.515Y-4.625
X2.515Y-4.675
X2.515Y-4.725
X2.65Y-4.1
X2.6927Y-3.8
X2.6992Y-4.1236
X2.7Y-3.725
X2.885Y-3.875
X2.885Y-3.925
X2.885Y-3.975
X2.885Y-4.625
X2.885Y-4.675
X2.885Y-4.725
X2.935Y-3.925
X2.935Y-3.975
X2.935Y-4.625
X2.935Y-4.675
X2.935Y-4.725
X3.0724Y-4.275
X3.0927Y-3.8
X3.1Y-3.725
X3.1Y-4.325
X3.305Y-3.875
X3.305Y-3.925
X3.305Y-3.975
X3.305Y-4.625
X3.305Y-4.675
X3.305Y-4.725
X3.355Y-3.925
X3.355Y-3.975
X3.355Y-4.625
X3.355Y-4.675
X3.355Y-4.725
X3.475Y-4.325
X3.5Y-4.425
X3.525Y-3.725
X3.525Y-3.8
X3.725Y-3.875
X3.725Y-3.925
X3.725Y-3.975
X3.725Y-4.625
X3.725Y-4.675
X3.725Y-4.725
X3.775Y-3.925
X3.775Y-3.975
X3.775Y-4.625
X3.775Y-4.675
X3.775Y-4.725
T2
X0.42Y-3.0
X0.57Y-3.0
X0.6Y-3.275
X0.6Y-3.762
X0.6Y-4.237
X0.62Y-4.67
X0.62Y-4.77
X0.7Y-3.275
X0.7Y-3.762
X0.7Y-4.237
X0.72Y-3.0
X0.72Y-4.67
X0.72Y-4.77
X0.8Y-3.275
X0.8Y-3.762
X0.8Y-4.237
X0.82Y-4.67
X0.82Y-4.77
X0.87Y-3.0
X0.9Y-3.275
X0.9Y-3.762
X0.9Y-4.237
X1.0Y-3.275
X1.02Y-3.0
X1.2Y-3.025
X1.2Y-3.125
X1.2Y-3.225
X1.2Y-3.325
X1.2Y-3.425
X1.2Y-3.525
X1.2Y-3.625
X1.2Y-3.725
X1.2Y-3.825
X1.2Y-3.925
X1.2Y-4.025
X1.2Y-4.125
X1.2Y-4.225
X1.2Y-4.325
X1.2Y-4.425
X1.2Y-4.525
X1.2Y-4.625
X1.2Y-4.725
X1.2Y-4.825
X1.2Y-4.925
X1.3Y-3.025
X1.3Y-3.125
X1.3Y-3.225
X1.3Y-3.325
X1.3Y-3.425
X1.3Y-3.525
X1.3Y-3.625
X1.3Y-3.725
X1.3Y-3.825
X1.3Y-3.925
X1.3Y-4.025
X1.3Y-4.125
X1.3Y-4.225
X1.3Y-4.325
X1.3Y-4.425
X1.3Y-4.525
X1.3Y-4.625
X1.3Y-4.725
X1.3Y-4.825
X1.3Y-4.925
X1.875Y-3.0
X2.025Y-3.0
X2.175Y-3.0
X2.325Y-3.0
X2.475Y-3.0
X2.625Y-3.0
X2.775Y-3.0
X2.925Y-3.0
X3.075Y-3.0
X3.225Y-3.0
X3.375Y-3.0
X3.525Y-3.0
T0
M30
