%TF.GenerationSoftware,KiCad,Pcbnew,5.1.9+dfsg1-1*%
%TF.CreationDate,2021-02-28T18:52:37-05:00*%
%TF.ProjectId,incubator_pcb,696e6375-6261-4746-9f72-5f7063622e6b,rev?*%
%TF.SameCoordinates,Original*%
%TF.FileFunction,Soldermask,Bot*%
%TF.FilePolarity,Negative*%
%FSLAX46Y46*%
G04 Gerber Fmt 4.6, Leading zero omitted, Abs format (unit mm)*
G04 Created by KiCad (PCBNEW 5.1.9+dfsg1-1) date 2021-02-28 18:52:37*
%MOMM*%
%LPD*%
G01*
G04 APERTURE LIST*
%ADD10O,1.802000X1.802000*%
%ADD11O,2.102000X3.102000*%
G04 APERTURE END LIST*
D10*
X20828000Y-118618000D03*
X20828000Y-121158000D03*
X18288000Y-118618000D03*
X18288000Y-121158000D03*
X15748000Y-118618000D03*
G36*
G01*
X16598000Y-122059000D02*
X14898000Y-122059000D01*
G75*
G02*
X14847000Y-122008000I0J51000D01*
G01*
X14847000Y-120308000D01*
G75*
G02*
X14898000Y-120257000I51000J0D01*
G01*
X16598000Y-120257000D01*
G75*
G02*
X16649000Y-120308000I0J-51000D01*
G01*
X16649000Y-122008000D01*
G75*
G02*
X16598000Y-122059000I-51000J0D01*
G01*
G37*
G36*
G01*
X40940000Y-81475000D02*
X40940000Y-83625000D01*
G75*
G02*
X40870000Y-83695000I-70000J0D01*
G01*
X40170000Y-83695000D01*
G75*
G02*
X40100000Y-83625000I0J70000D01*
G01*
X40100000Y-81475000D01*
G75*
G02*
X40170000Y-81405000I70000J0D01*
G01*
X40870000Y-81405000D01*
G75*
G02*
X40940000Y-81475000I0J-70000D01*
G01*
G37*
G36*
G01*
X42210000Y-81475000D02*
X42210000Y-83625000D01*
G75*
G02*
X42140000Y-83695000I-70000J0D01*
G01*
X41440000Y-83695000D01*
G75*
G02*
X41370000Y-83625000I0J70000D01*
G01*
X41370000Y-81475000D01*
G75*
G02*
X41440000Y-81405000I70000J0D01*
G01*
X42140000Y-81405000D01*
G75*
G02*
X42210000Y-81475000I0J-70000D01*
G01*
G37*
G36*
G01*
X43480000Y-81475000D02*
X43480000Y-83625000D01*
G75*
G02*
X43410000Y-83695000I-70000J0D01*
G01*
X42710000Y-83695000D01*
G75*
G02*
X42640000Y-83625000I0J70000D01*
G01*
X42640000Y-81475000D01*
G75*
G02*
X42710000Y-81405000I70000J0D01*
G01*
X43410000Y-81405000D01*
G75*
G02*
X43480000Y-81475000I0J-70000D01*
G01*
G37*
G36*
G01*
X44750000Y-81475000D02*
X44750000Y-83625000D01*
G75*
G02*
X44680000Y-83695000I-70000J0D01*
G01*
X43980000Y-83695000D01*
G75*
G02*
X43910000Y-83625000I0J70000D01*
G01*
X43910000Y-81475000D01*
G75*
G02*
X43980000Y-81405000I70000J0D01*
G01*
X44680000Y-81405000D01*
G75*
G02*
X44750000Y-81475000I0J-70000D01*
G01*
G37*
G36*
G01*
X40930000Y-86850000D02*
X40930000Y-89000000D01*
G75*
G02*
X40860000Y-89070000I-70000J0D01*
G01*
X40160000Y-89070000D01*
G75*
G02*
X40090000Y-89000000I0J70000D01*
G01*
X40090000Y-86850000D01*
G75*
G02*
X40160000Y-86780000I70000J0D01*
G01*
X40860000Y-86780000D01*
G75*
G02*
X40930000Y-86850000I0J-70000D01*
G01*
G37*
G36*
G01*
X42200000Y-86850000D02*
X42200000Y-89000000D01*
G75*
G02*
X42130000Y-89070000I-70000J0D01*
G01*
X41430000Y-89070000D01*
G75*
G02*
X41360000Y-89000000I0J70000D01*
G01*
X41360000Y-86850000D01*
G75*
G02*
X41430000Y-86780000I70000J0D01*
G01*
X42130000Y-86780000D01*
G75*
G02*
X42200000Y-86850000I0J-70000D01*
G01*
G37*
G36*
G01*
X44750000Y-86850000D02*
X44750000Y-89000000D01*
G75*
G02*
X44680000Y-89070000I-70000J0D01*
G01*
X43980000Y-89070000D01*
G75*
G02*
X43910000Y-89000000I0J70000D01*
G01*
X43910000Y-86850000D01*
G75*
G02*
X43980000Y-86780000I70000J0D01*
G01*
X44680000Y-86780000D01*
G75*
G02*
X44750000Y-86850000I0J-70000D01*
G01*
G37*
G36*
G01*
X43480000Y-86850000D02*
X43480000Y-89000000D01*
G75*
G02*
X43410000Y-89070000I-70000J0D01*
G01*
X42710000Y-89070000D01*
G75*
G02*
X42640000Y-89000000I0J70000D01*
G01*
X42640000Y-86850000D01*
G75*
G02*
X42710000Y-86780000I70000J0D01*
G01*
X43410000Y-86780000D01*
G75*
G02*
X43480000Y-86850000I0J-70000D01*
G01*
G37*
G36*
G01*
X75974248Y-92154000D02*
X76933752Y-92154000D01*
G75*
G02*
X77205000Y-92425248I0J-271248D01*
G01*
X77205000Y-93184752D01*
G75*
G02*
X76933752Y-93456000I-271248J0D01*
G01*
X75974248Y-93456000D01*
G75*
G02*
X75703000Y-93184752I0J271248D01*
G01*
X75703000Y-92425248D01*
G75*
G02*
X75974248Y-92154000I271248J0D01*
G01*
G37*
G36*
G01*
X75974248Y-90154000D02*
X76933752Y-90154000D01*
G75*
G02*
X77205000Y-90425248I0J-271248D01*
G01*
X77205000Y-91184752D01*
G75*
G02*
X76933752Y-91456000I-271248J0D01*
G01*
X75974248Y-91456000D01*
G75*
G02*
X75703000Y-91184752I0J271248D01*
G01*
X75703000Y-90425248D01*
G75*
G02*
X75974248Y-90154000I271248J0D01*
G01*
G37*
G36*
G01*
X72164248Y-92154000D02*
X73123752Y-92154000D01*
G75*
G02*
X73395000Y-92425248I0J-271248D01*
G01*
X73395000Y-93184752D01*
G75*
G02*
X73123752Y-93456000I-271248J0D01*
G01*
X72164248Y-93456000D01*
G75*
G02*
X71893000Y-93184752I0J271248D01*
G01*
X71893000Y-92425248D01*
G75*
G02*
X72164248Y-92154000I271248J0D01*
G01*
G37*
G36*
G01*
X72164248Y-90154000D02*
X73123752Y-90154000D01*
G75*
G02*
X73395000Y-90425248I0J-271248D01*
G01*
X73395000Y-91184752D01*
G75*
G02*
X73123752Y-91456000I-271248J0D01*
G01*
X72164248Y-91456000D01*
G75*
G02*
X71893000Y-91184752I0J271248D01*
G01*
X71893000Y-90425248D01*
G75*
G02*
X72164248Y-90154000I271248J0D01*
G01*
G37*
G36*
G01*
X70259248Y-92154000D02*
X71218752Y-92154000D01*
G75*
G02*
X71490000Y-92425248I0J-271248D01*
G01*
X71490000Y-93184752D01*
G75*
G02*
X71218752Y-93456000I-271248J0D01*
G01*
X70259248Y-93456000D01*
G75*
G02*
X69988000Y-93184752I0J271248D01*
G01*
X69988000Y-92425248D01*
G75*
G02*
X70259248Y-92154000I271248J0D01*
G01*
G37*
G36*
G01*
X70259248Y-90154000D02*
X71218752Y-90154000D01*
G75*
G02*
X71490000Y-90425248I0J-271248D01*
G01*
X71490000Y-91184752D01*
G75*
G02*
X71218752Y-91456000I-271248J0D01*
G01*
X70259248Y-91456000D01*
G75*
G02*
X69988000Y-91184752I0J271248D01*
G01*
X69988000Y-90425248D01*
G75*
G02*
X70259248Y-90154000I271248J0D01*
G01*
G37*
G36*
G01*
X74069248Y-92154000D02*
X75028752Y-92154000D01*
G75*
G02*
X75300000Y-92425248I0J-271248D01*
G01*
X75300000Y-93184752D01*
G75*
G02*
X75028752Y-93456000I-271248J0D01*
G01*
X74069248Y-93456000D01*
G75*
G02*
X73798000Y-93184752I0J271248D01*
G01*
X73798000Y-92425248D01*
G75*
G02*
X74069248Y-92154000I271248J0D01*
G01*
G37*
G36*
G01*
X74069248Y-90154000D02*
X75028752Y-90154000D01*
G75*
G02*
X75300000Y-90425248I0J-271248D01*
G01*
X75300000Y-91184752D01*
G75*
G02*
X75028752Y-91456000I-271248J0D01*
G01*
X74069248Y-91456000D01*
G75*
G02*
X73798000Y-91184752I0J271248D01*
G01*
X73798000Y-90425248D01*
G75*
G02*
X74069248Y-90154000I271248J0D01*
G01*
G37*
G36*
G01*
X65306248Y-92154000D02*
X66265752Y-92154000D01*
G75*
G02*
X66537000Y-92425248I0J-271248D01*
G01*
X66537000Y-93184752D01*
G75*
G02*
X66265752Y-93456000I-271248J0D01*
G01*
X65306248Y-93456000D01*
G75*
G02*
X65035000Y-93184752I0J271248D01*
G01*
X65035000Y-92425248D01*
G75*
G02*
X65306248Y-92154000I271248J0D01*
G01*
G37*
G36*
G01*
X65306248Y-90154000D02*
X66265752Y-90154000D01*
G75*
G02*
X66537000Y-90425248I0J-271248D01*
G01*
X66537000Y-91184752D01*
G75*
G02*
X66265752Y-91456000I-271248J0D01*
G01*
X65306248Y-91456000D01*
G75*
G02*
X65035000Y-91184752I0J271248D01*
G01*
X65035000Y-90425248D01*
G75*
G02*
X65306248Y-90154000I271248J0D01*
G01*
G37*
G36*
G01*
X61496248Y-92154000D02*
X62455752Y-92154000D01*
G75*
G02*
X62727000Y-92425248I0J-271248D01*
G01*
X62727000Y-93184752D01*
G75*
G02*
X62455752Y-93456000I-271248J0D01*
G01*
X61496248Y-93456000D01*
G75*
G02*
X61225000Y-93184752I0J271248D01*
G01*
X61225000Y-92425248D01*
G75*
G02*
X61496248Y-92154000I271248J0D01*
G01*
G37*
G36*
G01*
X61496248Y-90154000D02*
X62455752Y-90154000D01*
G75*
G02*
X62727000Y-90425248I0J-271248D01*
G01*
X62727000Y-91184752D01*
G75*
G02*
X62455752Y-91456000I-271248J0D01*
G01*
X61496248Y-91456000D01*
G75*
G02*
X61225000Y-91184752I0J271248D01*
G01*
X61225000Y-90425248D01*
G75*
G02*
X61496248Y-90154000I271248J0D01*
G01*
G37*
G36*
G01*
X59591248Y-92154000D02*
X60550752Y-92154000D01*
G75*
G02*
X60822000Y-92425248I0J-271248D01*
G01*
X60822000Y-93184752D01*
G75*
G02*
X60550752Y-93456000I-271248J0D01*
G01*
X59591248Y-93456000D01*
G75*
G02*
X59320000Y-93184752I0J271248D01*
G01*
X59320000Y-92425248D01*
G75*
G02*
X59591248Y-92154000I271248J0D01*
G01*
G37*
G36*
G01*
X59591248Y-90154000D02*
X60550752Y-90154000D01*
G75*
G02*
X60822000Y-90425248I0J-271248D01*
G01*
X60822000Y-91184752D01*
G75*
G02*
X60550752Y-91456000I-271248J0D01*
G01*
X59591248Y-91456000D01*
G75*
G02*
X59320000Y-91184752I0J271248D01*
G01*
X59320000Y-90425248D01*
G75*
G02*
X59591248Y-90154000I271248J0D01*
G01*
G37*
G36*
G01*
X63401248Y-92154000D02*
X64360752Y-92154000D01*
G75*
G02*
X64632000Y-92425248I0J-271248D01*
G01*
X64632000Y-93184752D01*
G75*
G02*
X64360752Y-93456000I-271248J0D01*
G01*
X63401248Y-93456000D01*
G75*
G02*
X63130000Y-93184752I0J271248D01*
G01*
X63130000Y-92425248D01*
G75*
G02*
X63401248Y-92154000I271248J0D01*
G01*
G37*
G36*
G01*
X63401248Y-90154000D02*
X64360752Y-90154000D01*
G75*
G02*
X64632000Y-90425248I0J-271248D01*
G01*
X64632000Y-91184752D01*
G75*
G02*
X64360752Y-91456000I-271248J0D01*
G01*
X63401248Y-91456000D01*
G75*
G02*
X63130000Y-91184752I0J271248D01*
G01*
X63130000Y-90425248D01*
G75*
G02*
X63401248Y-90154000I271248J0D01*
G01*
G37*
G36*
G01*
X97310248Y-92154000D02*
X98269752Y-92154000D01*
G75*
G02*
X98541000Y-92425248I0J-271248D01*
G01*
X98541000Y-93184752D01*
G75*
G02*
X98269752Y-93456000I-271248J0D01*
G01*
X97310248Y-93456000D01*
G75*
G02*
X97039000Y-93184752I0J271248D01*
G01*
X97039000Y-92425248D01*
G75*
G02*
X97310248Y-92154000I271248J0D01*
G01*
G37*
G36*
G01*
X97310248Y-90154000D02*
X98269752Y-90154000D01*
G75*
G02*
X98541000Y-90425248I0J-271248D01*
G01*
X98541000Y-91184752D01*
G75*
G02*
X98269752Y-91456000I-271248J0D01*
G01*
X97310248Y-91456000D01*
G75*
G02*
X97039000Y-91184752I0J271248D01*
G01*
X97039000Y-90425248D01*
G75*
G02*
X97310248Y-90154000I271248J0D01*
G01*
G37*
G36*
G01*
X93500248Y-92154000D02*
X94459752Y-92154000D01*
G75*
G02*
X94731000Y-92425248I0J-271248D01*
G01*
X94731000Y-93184752D01*
G75*
G02*
X94459752Y-93456000I-271248J0D01*
G01*
X93500248Y-93456000D01*
G75*
G02*
X93229000Y-93184752I0J271248D01*
G01*
X93229000Y-92425248D01*
G75*
G02*
X93500248Y-92154000I271248J0D01*
G01*
G37*
G36*
G01*
X93500248Y-90154000D02*
X94459752Y-90154000D01*
G75*
G02*
X94731000Y-90425248I0J-271248D01*
G01*
X94731000Y-91184752D01*
G75*
G02*
X94459752Y-91456000I-271248J0D01*
G01*
X93500248Y-91456000D01*
G75*
G02*
X93229000Y-91184752I0J271248D01*
G01*
X93229000Y-90425248D01*
G75*
G02*
X93500248Y-90154000I271248J0D01*
G01*
G37*
G36*
G01*
X91595248Y-92154000D02*
X92554752Y-92154000D01*
G75*
G02*
X92826000Y-92425248I0J-271248D01*
G01*
X92826000Y-93184752D01*
G75*
G02*
X92554752Y-93456000I-271248J0D01*
G01*
X91595248Y-93456000D01*
G75*
G02*
X91324000Y-93184752I0J271248D01*
G01*
X91324000Y-92425248D01*
G75*
G02*
X91595248Y-92154000I271248J0D01*
G01*
G37*
G36*
G01*
X91595248Y-90154000D02*
X92554752Y-90154000D01*
G75*
G02*
X92826000Y-90425248I0J-271248D01*
G01*
X92826000Y-91184752D01*
G75*
G02*
X92554752Y-91456000I-271248J0D01*
G01*
X91595248Y-91456000D01*
G75*
G02*
X91324000Y-91184752I0J271248D01*
G01*
X91324000Y-90425248D01*
G75*
G02*
X91595248Y-90154000I271248J0D01*
G01*
G37*
G36*
G01*
X95405248Y-92154000D02*
X96364752Y-92154000D01*
G75*
G02*
X96636000Y-92425248I0J-271248D01*
G01*
X96636000Y-93184752D01*
G75*
G02*
X96364752Y-93456000I-271248J0D01*
G01*
X95405248Y-93456000D01*
G75*
G02*
X95134000Y-93184752I0J271248D01*
G01*
X95134000Y-92425248D01*
G75*
G02*
X95405248Y-92154000I271248J0D01*
G01*
G37*
G36*
G01*
X95405248Y-90154000D02*
X96364752Y-90154000D01*
G75*
G02*
X96636000Y-90425248I0J-271248D01*
G01*
X96636000Y-91184752D01*
G75*
G02*
X96364752Y-91456000I-271248J0D01*
G01*
X95405248Y-91456000D01*
G75*
G02*
X95134000Y-91184752I0J271248D01*
G01*
X95134000Y-90425248D01*
G75*
G02*
X95405248Y-90154000I271248J0D01*
G01*
G37*
G36*
G01*
X86642248Y-92154000D02*
X87601752Y-92154000D01*
G75*
G02*
X87873000Y-92425248I0J-271248D01*
G01*
X87873000Y-93184752D01*
G75*
G02*
X87601752Y-93456000I-271248J0D01*
G01*
X86642248Y-93456000D01*
G75*
G02*
X86371000Y-93184752I0J271248D01*
G01*
X86371000Y-92425248D01*
G75*
G02*
X86642248Y-92154000I271248J0D01*
G01*
G37*
G36*
G01*
X86642248Y-90154000D02*
X87601752Y-90154000D01*
G75*
G02*
X87873000Y-90425248I0J-271248D01*
G01*
X87873000Y-91184752D01*
G75*
G02*
X87601752Y-91456000I-271248J0D01*
G01*
X86642248Y-91456000D01*
G75*
G02*
X86371000Y-91184752I0J271248D01*
G01*
X86371000Y-90425248D01*
G75*
G02*
X86642248Y-90154000I271248J0D01*
G01*
G37*
G36*
G01*
X82832248Y-92154000D02*
X83791752Y-92154000D01*
G75*
G02*
X84063000Y-92425248I0J-271248D01*
G01*
X84063000Y-93184752D01*
G75*
G02*
X83791752Y-93456000I-271248J0D01*
G01*
X82832248Y-93456000D01*
G75*
G02*
X82561000Y-93184752I0J271248D01*
G01*
X82561000Y-92425248D01*
G75*
G02*
X82832248Y-92154000I271248J0D01*
G01*
G37*
G36*
G01*
X82832248Y-90154000D02*
X83791752Y-90154000D01*
G75*
G02*
X84063000Y-90425248I0J-271248D01*
G01*
X84063000Y-91184752D01*
G75*
G02*
X83791752Y-91456000I-271248J0D01*
G01*
X82832248Y-91456000D01*
G75*
G02*
X82561000Y-91184752I0J271248D01*
G01*
X82561000Y-90425248D01*
G75*
G02*
X82832248Y-90154000I271248J0D01*
G01*
G37*
G36*
G01*
X80927248Y-92154000D02*
X81886752Y-92154000D01*
G75*
G02*
X82158000Y-92425248I0J-271248D01*
G01*
X82158000Y-93184752D01*
G75*
G02*
X81886752Y-93456000I-271248J0D01*
G01*
X80927248Y-93456000D01*
G75*
G02*
X80656000Y-93184752I0J271248D01*
G01*
X80656000Y-92425248D01*
G75*
G02*
X80927248Y-92154000I271248J0D01*
G01*
G37*
G36*
G01*
X80927248Y-90154000D02*
X81886752Y-90154000D01*
G75*
G02*
X82158000Y-90425248I0J-271248D01*
G01*
X82158000Y-91184752D01*
G75*
G02*
X81886752Y-91456000I-271248J0D01*
G01*
X80927248Y-91456000D01*
G75*
G02*
X80656000Y-91184752I0J271248D01*
G01*
X80656000Y-90425248D01*
G75*
G02*
X80927248Y-90154000I271248J0D01*
G01*
G37*
G36*
G01*
X84737248Y-92154000D02*
X85696752Y-92154000D01*
G75*
G02*
X85968000Y-92425248I0J-271248D01*
G01*
X85968000Y-93184752D01*
G75*
G02*
X85696752Y-93456000I-271248J0D01*
G01*
X84737248Y-93456000D01*
G75*
G02*
X84466000Y-93184752I0J271248D01*
G01*
X84466000Y-92425248D01*
G75*
G02*
X84737248Y-92154000I271248J0D01*
G01*
G37*
G36*
G01*
X84737248Y-90154000D02*
X85696752Y-90154000D01*
G75*
G02*
X85968000Y-90425248I0J-271248D01*
G01*
X85968000Y-91184752D01*
G75*
G02*
X85696752Y-91456000I-271248J0D01*
G01*
X84737248Y-91456000D01*
G75*
G02*
X84466000Y-91184752I0J271248D01*
G01*
X84466000Y-90425248D01*
G75*
G02*
X84737248Y-90154000I271248J0D01*
G01*
G37*
G36*
G01*
X54638248Y-92154000D02*
X55597752Y-92154000D01*
G75*
G02*
X55869000Y-92425248I0J-271248D01*
G01*
X55869000Y-93184752D01*
G75*
G02*
X55597752Y-93456000I-271248J0D01*
G01*
X54638248Y-93456000D01*
G75*
G02*
X54367000Y-93184752I0J271248D01*
G01*
X54367000Y-92425248D01*
G75*
G02*
X54638248Y-92154000I271248J0D01*
G01*
G37*
G36*
G01*
X54638248Y-90154000D02*
X55597752Y-90154000D01*
G75*
G02*
X55869000Y-90425248I0J-271248D01*
G01*
X55869000Y-91184752D01*
G75*
G02*
X55597752Y-91456000I-271248J0D01*
G01*
X54638248Y-91456000D01*
G75*
G02*
X54367000Y-91184752I0J271248D01*
G01*
X54367000Y-90425248D01*
G75*
G02*
X54638248Y-90154000I271248J0D01*
G01*
G37*
G36*
G01*
X50828248Y-92154000D02*
X51787752Y-92154000D01*
G75*
G02*
X52059000Y-92425248I0J-271248D01*
G01*
X52059000Y-93184752D01*
G75*
G02*
X51787752Y-93456000I-271248J0D01*
G01*
X50828248Y-93456000D01*
G75*
G02*
X50557000Y-93184752I0J271248D01*
G01*
X50557000Y-92425248D01*
G75*
G02*
X50828248Y-92154000I271248J0D01*
G01*
G37*
G36*
G01*
X50828248Y-90154000D02*
X51787752Y-90154000D01*
G75*
G02*
X52059000Y-90425248I0J-271248D01*
G01*
X52059000Y-91184752D01*
G75*
G02*
X51787752Y-91456000I-271248J0D01*
G01*
X50828248Y-91456000D01*
G75*
G02*
X50557000Y-91184752I0J271248D01*
G01*
X50557000Y-90425248D01*
G75*
G02*
X50828248Y-90154000I271248J0D01*
G01*
G37*
G36*
G01*
X48923248Y-92154000D02*
X49882752Y-92154000D01*
G75*
G02*
X50154000Y-92425248I0J-271248D01*
G01*
X50154000Y-93184752D01*
G75*
G02*
X49882752Y-93456000I-271248J0D01*
G01*
X48923248Y-93456000D01*
G75*
G02*
X48652000Y-93184752I0J271248D01*
G01*
X48652000Y-92425248D01*
G75*
G02*
X48923248Y-92154000I271248J0D01*
G01*
G37*
G36*
G01*
X48923248Y-90154000D02*
X49882752Y-90154000D01*
G75*
G02*
X50154000Y-90425248I0J-271248D01*
G01*
X50154000Y-91184752D01*
G75*
G02*
X49882752Y-91456000I-271248J0D01*
G01*
X48923248Y-91456000D01*
G75*
G02*
X48652000Y-91184752I0J271248D01*
G01*
X48652000Y-90425248D01*
G75*
G02*
X48923248Y-90154000I271248J0D01*
G01*
G37*
G36*
G01*
X52733248Y-92154000D02*
X53692752Y-92154000D01*
G75*
G02*
X53964000Y-92425248I0J-271248D01*
G01*
X53964000Y-93184752D01*
G75*
G02*
X53692752Y-93456000I-271248J0D01*
G01*
X52733248Y-93456000D01*
G75*
G02*
X52462000Y-93184752I0J271248D01*
G01*
X52462000Y-92425248D01*
G75*
G02*
X52733248Y-92154000I271248J0D01*
G01*
G37*
G36*
G01*
X52733248Y-90154000D02*
X53692752Y-90154000D01*
G75*
G02*
X53964000Y-90425248I0J-271248D01*
G01*
X53964000Y-91184752D01*
G75*
G02*
X53692752Y-91456000I-271248J0D01*
G01*
X52733248Y-91456000D01*
G75*
G02*
X52462000Y-91184752I0J271248D01*
G01*
X52462000Y-90425248D01*
G75*
G02*
X52733248Y-90154000I271248J0D01*
G01*
G37*
G36*
G01*
X43970248Y-92154000D02*
X44929752Y-92154000D01*
G75*
G02*
X45201000Y-92425248I0J-271248D01*
G01*
X45201000Y-93184752D01*
G75*
G02*
X44929752Y-93456000I-271248J0D01*
G01*
X43970248Y-93456000D01*
G75*
G02*
X43699000Y-93184752I0J271248D01*
G01*
X43699000Y-92425248D01*
G75*
G02*
X43970248Y-92154000I271248J0D01*
G01*
G37*
G36*
G01*
X43970248Y-90154000D02*
X44929752Y-90154000D01*
G75*
G02*
X45201000Y-90425248I0J-271248D01*
G01*
X45201000Y-91184752D01*
G75*
G02*
X44929752Y-91456000I-271248J0D01*
G01*
X43970248Y-91456000D01*
G75*
G02*
X43699000Y-91184752I0J271248D01*
G01*
X43699000Y-90425248D01*
G75*
G02*
X43970248Y-90154000I271248J0D01*
G01*
G37*
G36*
G01*
X40160248Y-92154000D02*
X41119752Y-92154000D01*
G75*
G02*
X41391000Y-92425248I0J-271248D01*
G01*
X41391000Y-93184752D01*
G75*
G02*
X41119752Y-93456000I-271248J0D01*
G01*
X40160248Y-93456000D01*
G75*
G02*
X39889000Y-93184752I0J271248D01*
G01*
X39889000Y-92425248D01*
G75*
G02*
X40160248Y-92154000I271248J0D01*
G01*
G37*
G36*
G01*
X40160248Y-90154000D02*
X41119752Y-90154000D01*
G75*
G02*
X41391000Y-90425248I0J-271248D01*
G01*
X41391000Y-91184752D01*
G75*
G02*
X41119752Y-91456000I-271248J0D01*
G01*
X40160248Y-91456000D01*
G75*
G02*
X39889000Y-91184752I0J271248D01*
G01*
X39889000Y-90425248D01*
G75*
G02*
X40160248Y-90154000I271248J0D01*
G01*
G37*
G36*
G01*
X38255248Y-92154000D02*
X39214752Y-92154000D01*
G75*
G02*
X39486000Y-92425248I0J-271248D01*
G01*
X39486000Y-93184752D01*
G75*
G02*
X39214752Y-93456000I-271248J0D01*
G01*
X38255248Y-93456000D01*
G75*
G02*
X37984000Y-93184752I0J271248D01*
G01*
X37984000Y-92425248D01*
G75*
G02*
X38255248Y-92154000I271248J0D01*
G01*
G37*
G36*
G01*
X38255248Y-90154000D02*
X39214752Y-90154000D01*
G75*
G02*
X39486000Y-90425248I0J-271248D01*
G01*
X39486000Y-91184752D01*
G75*
G02*
X39214752Y-91456000I-271248J0D01*
G01*
X38255248Y-91456000D01*
G75*
G02*
X37984000Y-91184752I0J271248D01*
G01*
X37984000Y-90425248D01*
G75*
G02*
X38255248Y-90154000I271248J0D01*
G01*
G37*
G36*
G01*
X42065248Y-92154000D02*
X43024752Y-92154000D01*
G75*
G02*
X43296000Y-92425248I0J-271248D01*
G01*
X43296000Y-93184752D01*
G75*
G02*
X43024752Y-93456000I-271248J0D01*
G01*
X42065248Y-93456000D01*
G75*
G02*
X41794000Y-93184752I0J271248D01*
G01*
X41794000Y-92425248D01*
G75*
G02*
X42065248Y-92154000I271248J0D01*
G01*
G37*
G36*
G01*
X42065248Y-90154000D02*
X43024752Y-90154000D01*
G75*
G02*
X43296000Y-90425248I0J-271248D01*
G01*
X43296000Y-91184752D01*
G75*
G02*
X43024752Y-91456000I-271248J0D01*
G01*
X42065248Y-91456000D01*
G75*
G02*
X41794000Y-91184752I0J271248D01*
G01*
X41794000Y-90425248D01*
G75*
G02*
X42065248Y-90154000I271248J0D01*
G01*
G37*
X22860000Y-107619999D03*
X20320000Y-107619999D03*
X17780000Y-107619999D03*
G36*
G01*
X16090000Y-108520999D02*
X14390000Y-108520999D01*
G75*
G02*
X14339000Y-108469999I0J51000D01*
G01*
X14339000Y-106769999D01*
G75*
G02*
X14390000Y-106718999I51000J0D01*
G01*
X16090000Y-106718999D01*
G75*
G02*
X16141000Y-106769999I0J-51000D01*
G01*
X16141000Y-108469999D01*
G75*
G02*
X16090000Y-108520999I-51000J0D01*
G01*
G37*
X22860000Y-95554999D03*
X20320000Y-95554999D03*
X17780000Y-95554999D03*
G36*
G01*
X16090000Y-96455999D02*
X14390000Y-96455999D01*
G75*
G02*
X14339000Y-96404999I0J51000D01*
G01*
X14339000Y-94704999D01*
G75*
G02*
X14390000Y-94653999I51000J0D01*
G01*
X16090000Y-94653999D01*
G75*
G02*
X16141000Y-94704999I0J-51000D01*
G01*
X16141000Y-96404999D01*
G75*
G02*
X16090000Y-96455999I-51000J0D01*
G01*
G37*
X33020000Y-125095000D03*
X30480000Y-125095000D03*
X33020000Y-122555000D03*
X30480000Y-122555000D03*
X33020000Y-120015000D03*
X30480000Y-120015000D03*
X33020000Y-117475000D03*
X30480000Y-117475000D03*
X33020000Y-114935000D03*
X30480000Y-114935000D03*
X33020000Y-112395000D03*
X30480000Y-112395000D03*
X33020000Y-109855000D03*
X30480000Y-109855000D03*
X33020000Y-107315000D03*
X30480000Y-107315000D03*
X33020000Y-104775000D03*
X30480000Y-104775000D03*
X33020000Y-102235000D03*
X30480000Y-102235000D03*
X33020000Y-99695000D03*
X30480000Y-99695000D03*
X33020000Y-97155000D03*
X30480000Y-97155000D03*
X33020000Y-94615000D03*
X30480000Y-94615000D03*
X33020000Y-92075000D03*
X30480000Y-92075000D03*
X33020000Y-89535000D03*
X30480000Y-89535000D03*
X33020000Y-86995000D03*
X30480000Y-86995000D03*
X33020000Y-84455000D03*
X30480000Y-84455000D03*
X33020000Y-81915000D03*
X30480000Y-81915000D03*
X33020000Y-79375000D03*
X30480000Y-79375000D03*
X33020000Y-76835000D03*
G36*
G01*
X29579000Y-77685000D02*
X29579000Y-75985000D01*
G75*
G02*
X29630000Y-75934000I51000J0D01*
G01*
X31330000Y-75934000D01*
G75*
G02*
X31381000Y-75985000I0J-51000D01*
G01*
X31381000Y-77685000D01*
G75*
G02*
X31330000Y-77736000I-51000J0D01*
G01*
X29630000Y-77736000D01*
G75*
G02*
X29579000Y-77685000I0J51000D01*
G01*
G37*
D11*
X18288000Y-76200000D03*
X14478000Y-76200000D03*
X10668000Y-76200000D03*
X25908000Y-76200000D03*
X22098000Y-76200000D03*
D10*
X25400000Y-83185000D03*
X22860000Y-83185000D03*
X20320000Y-83185000D03*
X17780000Y-83185000D03*
G36*
G01*
X16090000Y-84086000D02*
X14390000Y-84086000D01*
G75*
G02*
X14339000Y-84035000I0J51000D01*
G01*
X14339000Y-82335000D01*
G75*
G02*
X14390000Y-82284000I51000J0D01*
G01*
X16090000Y-82284000D01*
G75*
G02*
X16141000Y-82335000I0J-51000D01*
G01*
X16141000Y-84035000D01*
G75*
G02*
X16090000Y-84086000I-51000J0D01*
G01*
G37*
D11*
X89535000Y-76200000D03*
X85725000Y-76200000D03*
X81915000Y-76200000D03*
X78105000Y-76200000D03*
X74295000Y-76200000D03*
X70485000Y-76200000D03*
X66675000Y-76200000D03*
X62865000Y-76200000D03*
X59055000Y-76200000D03*
X55245000Y-76200000D03*
X51435000Y-76200000D03*
X47625000Y-76200000D03*
G36*
G01*
X72944000Y-81475000D02*
X72944000Y-83625000D01*
G75*
G02*
X72874000Y-83695000I-70000J0D01*
G01*
X72174000Y-83695000D01*
G75*
G02*
X72104000Y-83625000I0J70000D01*
G01*
X72104000Y-81475000D01*
G75*
G02*
X72174000Y-81405000I70000J0D01*
G01*
X72874000Y-81405000D01*
G75*
G02*
X72944000Y-81475000I0J-70000D01*
G01*
G37*
G36*
G01*
X74214000Y-81475000D02*
X74214000Y-83625000D01*
G75*
G02*
X74144000Y-83695000I-70000J0D01*
G01*
X73444000Y-83695000D01*
G75*
G02*
X73374000Y-83625000I0J70000D01*
G01*
X73374000Y-81475000D01*
G75*
G02*
X73444000Y-81405000I70000J0D01*
G01*
X74144000Y-81405000D01*
G75*
G02*
X74214000Y-81475000I0J-70000D01*
G01*
G37*
G36*
G01*
X75484000Y-81475000D02*
X75484000Y-83625000D01*
G75*
G02*
X75414000Y-83695000I-70000J0D01*
G01*
X74714000Y-83695000D01*
G75*
G02*
X74644000Y-83625000I0J70000D01*
G01*
X74644000Y-81475000D01*
G75*
G02*
X74714000Y-81405000I70000J0D01*
G01*
X75414000Y-81405000D01*
G75*
G02*
X75484000Y-81475000I0J-70000D01*
G01*
G37*
G36*
G01*
X76754000Y-81475000D02*
X76754000Y-83625000D01*
G75*
G02*
X76684000Y-83695000I-70000J0D01*
G01*
X75984000Y-83695000D01*
G75*
G02*
X75914000Y-83625000I0J70000D01*
G01*
X75914000Y-81475000D01*
G75*
G02*
X75984000Y-81405000I70000J0D01*
G01*
X76684000Y-81405000D01*
G75*
G02*
X76754000Y-81475000I0J-70000D01*
G01*
G37*
G36*
G01*
X72934000Y-86850000D02*
X72934000Y-89000000D01*
G75*
G02*
X72864000Y-89070000I-70000J0D01*
G01*
X72164000Y-89070000D01*
G75*
G02*
X72094000Y-89000000I0J70000D01*
G01*
X72094000Y-86850000D01*
G75*
G02*
X72164000Y-86780000I70000J0D01*
G01*
X72864000Y-86780000D01*
G75*
G02*
X72934000Y-86850000I0J-70000D01*
G01*
G37*
G36*
G01*
X74204000Y-86850000D02*
X74204000Y-89000000D01*
G75*
G02*
X74134000Y-89070000I-70000J0D01*
G01*
X73434000Y-89070000D01*
G75*
G02*
X73364000Y-89000000I0J70000D01*
G01*
X73364000Y-86850000D01*
G75*
G02*
X73434000Y-86780000I70000J0D01*
G01*
X74134000Y-86780000D01*
G75*
G02*
X74204000Y-86850000I0J-70000D01*
G01*
G37*
G36*
G01*
X76754000Y-86850000D02*
X76754000Y-89000000D01*
G75*
G02*
X76684000Y-89070000I-70000J0D01*
G01*
X75984000Y-89070000D01*
G75*
G02*
X75914000Y-89000000I0J70000D01*
G01*
X75914000Y-86850000D01*
G75*
G02*
X75984000Y-86780000I70000J0D01*
G01*
X76684000Y-86780000D01*
G75*
G02*
X76754000Y-86850000I0J-70000D01*
G01*
G37*
G36*
G01*
X75484000Y-86850000D02*
X75484000Y-89000000D01*
G75*
G02*
X75414000Y-89070000I-70000J0D01*
G01*
X74714000Y-89070000D01*
G75*
G02*
X74644000Y-89000000I0J70000D01*
G01*
X74644000Y-86850000D01*
G75*
G02*
X74714000Y-86780000I70000J0D01*
G01*
X75414000Y-86780000D01*
G75*
G02*
X75484000Y-86850000I0J-70000D01*
G01*
G37*
G36*
G01*
X62276000Y-81475000D02*
X62276000Y-83625000D01*
G75*
G02*
X62206000Y-83695000I-70000J0D01*
G01*
X61506000Y-83695000D01*
G75*
G02*
X61436000Y-83625000I0J70000D01*
G01*
X61436000Y-81475000D01*
G75*
G02*
X61506000Y-81405000I70000J0D01*
G01*
X62206000Y-81405000D01*
G75*
G02*
X62276000Y-81475000I0J-70000D01*
G01*
G37*
G36*
G01*
X63546000Y-81475000D02*
X63546000Y-83625000D01*
G75*
G02*
X63476000Y-83695000I-70000J0D01*
G01*
X62776000Y-83695000D01*
G75*
G02*
X62706000Y-83625000I0J70000D01*
G01*
X62706000Y-81475000D01*
G75*
G02*
X62776000Y-81405000I70000J0D01*
G01*
X63476000Y-81405000D01*
G75*
G02*
X63546000Y-81475000I0J-70000D01*
G01*
G37*
G36*
G01*
X64816000Y-81475000D02*
X64816000Y-83625000D01*
G75*
G02*
X64746000Y-83695000I-70000J0D01*
G01*
X64046000Y-83695000D01*
G75*
G02*
X63976000Y-83625000I0J70000D01*
G01*
X63976000Y-81475000D01*
G75*
G02*
X64046000Y-81405000I70000J0D01*
G01*
X64746000Y-81405000D01*
G75*
G02*
X64816000Y-81475000I0J-70000D01*
G01*
G37*
G36*
G01*
X66086000Y-81475000D02*
X66086000Y-83625000D01*
G75*
G02*
X66016000Y-83695000I-70000J0D01*
G01*
X65316000Y-83695000D01*
G75*
G02*
X65246000Y-83625000I0J70000D01*
G01*
X65246000Y-81475000D01*
G75*
G02*
X65316000Y-81405000I70000J0D01*
G01*
X66016000Y-81405000D01*
G75*
G02*
X66086000Y-81475000I0J-70000D01*
G01*
G37*
G36*
G01*
X62266000Y-86850000D02*
X62266000Y-89000000D01*
G75*
G02*
X62196000Y-89070000I-70000J0D01*
G01*
X61496000Y-89070000D01*
G75*
G02*
X61426000Y-89000000I0J70000D01*
G01*
X61426000Y-86850000D01*
G75*
G02*
X61496000Y-86780000I70000J0D01*
G01*
X62196000Y-86780000D01*
G75*
G02*
X62266000Y-86850000I0J-70000D01*
G01*
G37*
G36*
G01*
X63536000Y-86850000D02*
X63536000Y-89000000D01*
G75*
G02*
X63466000Y-89070000I-70000J0D01*
G01*
X62766000Y-89070000D01*
G75*
G02*
X62696000Y-89000000I0J70000D01*
G01*
X62696000Y-86850000D01*
G75*
G02*
X62766000Y-86780000I70000J0D01*
G01*
X63466000Y-86780000D01*
G75*
G02*
X63536000Y-86850000I0J-70000D01*
G01*
G37*
G36*
G01*
X66086000Y-86850000D02*
X66086000Y-89000000D01*
G75*
G02*
X66016000Y-89070000I-70000J0D01*
G01*
X65316000Y-89070000D01*
G75*
G02*
X65246000Y-89000000I0J70000D01*
G01*
X65246000Y-86850000D01*
G75*
G02*
X65316000Y-86780000I70000J0D01*
G01*
X66016000Y-86780000D01*
G75*
G02*
X66086000Y-86850000I0J-70000D01*
G01*
G37*
G36*
G01*
X64816000Y-86850000D02*
X64816000Y-89000000D01*
G75*
G02*
X64746000Y-89070000I-70000J0D01*
G01*
X64046000Y-89070000D01*
G75*
G02*
X63976000Y-89000000I0J70000D01*
G01*
X63976000Y-86850000D01*
G75*
G02*
X64046000Y-86780000I70000J0D01*
G01*
X64746000Y-86780000D01*
G75*
G02*
X64816000Y-86850000I0J-70000D01*
G01*
G37*
G36*
G01*
X94280000Y-81475000D02*
X94280000Y-83625000D01*
G75*
G02*
X94210000Y-83695000I-70000J0D01*
G01*
X93510000Y-83695000D01*
G75*
G02*
X93440000Y-83625000I0J70000D01*
G01*
X93440000Y-81475000D01*
G75*
G02*
X93510000Y-81405000I70000J0D01*
G01*
X94210000Y-81405000D01*
G75*
G02*
X94280000Y-81475000I0J-70000D01*
G01*
G37*
G36*
G01*
X95550000Y-81475000D02*
X95550000Y-83625000D01*
G75*
G02*
X95480000Y-83695000I-70000J0D01*
G01*
X94780000Y-83695000D01*
G75*
G02*
X94710000Y-83625000I0J70000D01*
G01*
X94710000Y-81475000D01*
G75*
G02*
X94780000Y-81405000I70000J0D01*
G01*
X95480000Y-81405000D01*
G75*
G02*
X95550000Y-81475000I0J-70000D01*
G01*
G37*
G36*
G01*
X96820000Y-81475000D02*
X96820000Y-83625000D01*
G75*
G02*
X96750000Y-83695000I-70000J0D01*
G01*
X96050000Y-83695000D01*
G75*
G02*
X95980000Y-83625000I0J70000D01*
G01*
X95980000Y-81475000D01*
G75*
G02*
X96050000Y-81405000I70000J0D01*
G01*
X96750000Y-81405000D01*
G75*
G02*
X96820000Y-81475000I0J-70000D01*
G01*
G37*
G36*
G01*
X98090000Y-81475000D02*
X98090000Y-83625000D01*
G75*
G02*
X98020000Y-83695000I-70000J0D01*
G01*
X97320000Y-83695000D01*
G75*
G02*
X97250000Y-83625000I0J70000D01*
G01*
X97250000Y-81475000D01*
G75*
G02*
X97320000Y-81405000I70000J0D01*
G01*
X98020000Y-81405000D01*
G75*
G02*
X98090000Y-81475000I0J-70000D01*
G01*
G37*
G36*
G01*
X94270000Y-86850000D02*
X94270000Y-89000000D01*
G75*
G02*
X94200000Y-89070000I-70000J0D01*
G01*
X93500000Y-89070000D01*
G75*
G02*
X93430000Y-89000000I0J70000D01*
G01*
X93430000Y-86850000D01*
G75*
G02*
X93500000Y-86780000I70000J0D01*
G01*
X94200000Y-86780000D01*
G75*
G02*
X94270000Y-86850000I0J-70000D01*
G01*
G37*
G36*
G01*
X95540000Y-86850000D02*
X95540000Y-89000000D01*
G75*
G02*
X95470000Y-89070000I-70000J0D01*
G01*
X94770000Y-89070000D01*
G75*
G02*
X94700000Y-89000000I0J70000D01*
G01*
X94700000Y-86850000D01*
G75*
G02*
X94770000Y-86780000I70000J0D01*
G01*
X95470000Y-86780000D01*
G75*
G02*
X95540000Y-86850000I0J-70000D01*
G01*
G37*
G36*
G01*
X98090000Y-86850000D02*
X98090000Y-89000000D01*
G75*
G02*
X98020000Y-89070000I-70000J0D01*
G01*
X97320000Y-89070000D01*
G75*
G02*
X97250000Y-89000000I0J70000D01*
G01*
X97250000Y-86850000D01*
G75*
G02*
X97320000Y-86780000I70000J0D01*
G01*
X98020000Y-86780000D01*
G75*
G02*
X98090000Y-86850000I0J-70000D01*
G01*
G37*
G36*
G01*
X96820000Y-86850000D02*
X96820000Y-89000000D01*
G75*
G02*
X96750000Y-89070000I-70000J0D01*
G01*
X96050000Y-89070000D01*
G75*
G02*
X95980000Y-89000000I0J70000D01*
G01*
X95980000Y-86850000D01*
G75*
G02*
X96050000Y-86780000I70000J0D01*
G01*
X96750000Y-86780000D01*
G75*
G02*
X96820000Y-86850000I0J-70000D01*
G01*
G37*
G36*
G01*
X83612000Y-81475000D02*
X83612000Y-83625000D01*
G75*
G02*
X83542000Y-83695000I-70000J0D01*
G01*
X82842000Y-83695000D01*
G75*
G02*
X82772000Y-83625000I0J70000D01*
G01*
X82772000Y-81475000D01*
G75*
G02*
X82842000Y-81405000I70000J0D01*
G01*
X83542000Y-81405000D01*
G75*
G02*
X83612000Y-81475000I0J-70000D01*
G01*
G37*
G36*
G01*
X84882000Y-81475000D02*
X84882000Y-83625000D01*
G75*
G02*
X84812000Y-83695000I-70000J0D01*
G01*
X84112000Y-83695000D01*
G75*
G02*
X84042000Y-83625000I0J70000D01*
G01*
X84042000Y-81475000D01*
G75*
G02*
X84112000Y-81405000I70000J0D01*
G01*
X84812000Y-81405000D01*
G75*
G02*
X84882000Y-81475000I0J-70000D01*
G01*
G37*
G36*
G01*
X86152000Y-81475000D02*
X86152000Y-83625000D01*
G75*
G02*
X86082000Y-83695000I-70000J0D01*
G01*
X85382000Y-83695000D01*
G75*
G02*
X85312000Y-83625000I0J70000D01*
G01*
X85312000Y-81475000D01*
G75*
G02*
X85382000Y-81405000I70000J0D01*
G01*
X86082000Y-81405000D01*
G75*
G02*
X86152000Y-81475000I0J-70000D01*
G01*
G37*
G36*
G01*
X87422000Y-81475000D02*
X87422000Y-83625000D01*
G75*
G02*
X87352000Y-83695000I-70000J0D01*
G01*
X86652000Y-83695000D01*
G75*
G02*
X86582000Y-83625000I0J70000D01*
G01*
X86582000Y-81475000D01*
G75*
G02*
X86652000Y-81405000I70000J0D01*
G01*
X87352000Y-81405000D01*
G75*
G02*
X87422000Y-81475000I0J-70000D01*
G01*
G37*
G36*
G01*
X83602000Y-86850000D02*
X83602000Y-89000000D01*
G75*
G02*
X83532000Y-89070000I-70000J0D01*
G01*
X82832000Y-89070000D01*
G75*
G02*
X82762000Y-89000000I0J70000D01*
G01*
X82762000Y-86850000D01*
G75*
G02*
X82832000Y-86780000I70000J0D01*
G01*
X83532000Y-86780000D01*
G75*
G02*
X83602000Y-86850000I0J-70000D01*
G01*
G37*
G36*
G01*
X84872000Y-86850000D02*
X84872000Y-89000000D01*
G75*
G02*
X84802000Y-89070000I-70000J0D01*
G01*
X84102000Y-89070000D01*
G75*
G02*
X84032000Y-89000000I0J70000D01*
G01*
X84032000Y-86850000D01*
G75*
G02*
X84102000Y-86780000I70000J0D01*
G01*
X84802000Y-86780000D01*
G75*
G02*
X84872000Y-86850000I0J-70000D01*
G01*
G37*
G36*
G01*
X87422000Y-86850000D02*
X87422000Y-89000000D01*
G75*
G02*
X87352000Y-89070000I-70000J0D01*
G01*
X86652000Y-89070000D01*
G75*
G02*
X86582000Y-89000000I0J70000D01*
G01*
X86582000Y-86850000D01*
G75*
G02*
X86652000Y-86780000I70000J0D01*
G01*
X87352000Y-86780000D01*
G75*
G02*
X87422000Y-86850000I0J-70000D01*
G01*
G37*
G36*
G01*
X86152000Y-86850000D02*
X86152000Y-89000000D01*
G75*
G02*
X86082000Y-89070000I-70000J0D01*
G01*
X85382000Y-89070000D01*
G75*
G02*
X85312000Y-89000000I0J70000D01*
G01*
X85312000Y-86850000D01*
G75*
G02*
X85382000Y-86780000I70000J0D01*
G01*
X86082000Y-86780000D01*
G75*
G02*
X86152000Y-86850000I0J-70000D01*
G01*
G37*
G36*
G01*
X51608000Y-81475000D02*
X51608000Y-83625000D01*
G75*
G02*
X51538000Y-83695000I-70000J0D01*
G01*
X50838000Y-83695000D01*
G75*
G02*
X50768000Y-83625000I0J70000D01*
G01*
X50768000Y-81475000D01*
G75*
G02*
X50838000Y-81405000I70000J0D01*
G01*
X51538000Y-81405000D01*
G75*
G02*
X51608000Y-81475000I0J-70000D01*
G01*
G37*
G36*
G01*
X52878000Y-81475000D02*
X52878000Y-83625000D01*
G75*
G02*
X52808000Y-83695000I-70000J0D01*
G01*
X52108000Y-83695000D01*
G75*
G02*
X52038000Y-83625000I0J70000D01*
G01*
X52038000Y-81475000D01*
G75*
G02*
X52108000Y-81405000I70000J0D01*
G01*
X52808000Y-81405000D01*
G75*
G02*
X52878000Y-81475000I0J-70000D01*
G01*
G37*
G36*
G01*
X54148000Y-81475000D02*
X54148000Y-83625000D01*
G75*
G02*
X54078000Y-83695000I-70000J0D01*
G01*
X53378000Y-83695000D01*
G75*
G02*
X53308000Y-83625000I0J70000D01*
G01*
X53308000Y-81475000D01*
G75*
G02*
X53378000Y-81405000I70000J0D01*
G01*
X54078000Y-81405000D01*
G75*
G02*
X54148000Y-81475000I0J-70000D01*
G01*
G37*
G36*
G01*
X55418000Y-81475000D02*
X55418000Y-83625000D01*
G75*
G02*
X55348000Y-83695000I-70000J0D01*
G01*
X54648000Y-83695000D01*
G75*
G02*
X54578000Y-83625000I0J70000D01*
G01*
X54578000Y-81475000D01*
G75*
G02*
X54648000Y-81405000I70000J0D01*
G01*
X55348000Y-81405000D01*
G75*
G02*
X55418000Y-81475000I0J-70000D01*
G01*
G37*
G36*
G01*
X51598000Y-86850000D02*
X51598000Y-89000000D01*
G75*
G02*
X51528000Y-89070000I-70000J0D01*
G01*
X50828000Y-89070000D01*
G75*
G02*
X50758000Y-89000000I0J70000D01*
G01*
X50758000Y-86850000D01*
G75*
G02*
X50828000Y-86780000I70000J0D01*
G01*
X51528000Y-86780000D01*
G75*
G02*
X51598000Y-86850000I0J-70000D01*
G01*
G37*
G36*
G01*
X52868000Y-86850000D02*
X52868000Y-89000000D01*
G75*
G02*
X52798000Y-89070000I-70000J0D01*
G01*
X52098000Y-89070000D01*
G75*
G02*
X52028000Y-89000000I0J70000D01*
G01*
X52028000Y-86850000D01*
G75*
G02*
X52098000Y-86780000I70000J0D01*
G01*
X52798000Y-86780000D01*
G75*
G02*
X52868000Y-86850000I0J-70000D01*
G01*
G37*
G36*
G01*
X55418000Y-86850000D02*
X55418000Y-89000000D01*
G75*
G02*
X55348000Y-89070000I-70000J0D01*
G01*
X54648000Y-89070000D01*
G75*
G02*
X54578000Y-89000000I0J70000D01*
G01*
X54578000Y-86850000D01*
G75*
G02*
X54648000Y-86780000I70000J0D01*
G01*
X55348000Y-86780000D01*
G75*
G02*
X55418000Y-86850000I0J-70000D01*
G01*
G37*
G36*
G01*
X54148000Y-86850000D02*
X54148000Y-89000000D01*
G75*
G02*
X54078000Y-89070000I-70000J0D01*
G01*
X53378000Y-89070000D01*
G75*
G02*
X53308000Y-89000000I0J70000D01*
G01*
X53308000Y-86850000D01*
G75*
G02*
X53378000Y-86780000I70000J0D01*
G01*
X54078000Y-86780000D01*
G75*
G02*
X54148000Y-86850000I0J-70000D01*
G01*
G37*
M02*
