%TF.GenerationSoftware,KiCad,Pcbnew,5.1.9+dfsg1-1*%
%TF.CreationDate,2021-02-28T18:52:37-05:00*%
%TF.ProjectId,incubator_pcb,696e6375-6261-4746-9f72-5f7063622e6b,rev?*%
%TF.SameCoordinates,Original*%
%TF.FileFunction,Copper,L3,Inr*%
%TF.FilePolarity,Positive*%
%FSLAX46Y46*%
G04 Gerber Fmt 4.6, Leading zero omitted, Abs format (unit mm)*
G04 Created by KiCad (PCBNEW 5.1.9+dfsg1-1) date 2021-02-28 18:52:37*
%MOMM*%
%LPD*%
G01*
G04 APERTURE LIST*
%TA.AperFunction,ComponentPad*%
%ADD10O,1.700000X1.700000*%
%TD*%
%TA.AperFunction,ComponentPad*%
%ADD11R,1.700000X1.700000*%
%TD*%
%TA.AperFunction,ComponentPad*%
%ADD12O,2.000000X3.000000*%
%TD*%
%TA.AperFunction,ViaPad*%
%ADD13C,0.800000*%
%TD*%
%TA.AperFunction,Conductor*%
%ADD14C,0.250000*%
%TD*%
%TA.AperFunction,Conductor*%
%ADD15C,0.200000*%
%TD*%
%TA.AperFunction,Conductor*%
%ADD16C,0.500000*%
%TD*%
%TA.AperFunction,Conductor*%
%ADD17C,0.100000*%
%TD*%
G04 APERTURE END LIST*
D10*
X20828000Y-118618000D03*
X20828000Y-121158000D03*
X18288000Y-118618000D03*
X18288000Y-121158000D03*
X15748000Y-118618000D03*
D11*
X15748000Y-121158000D03*
D10*
X22860000Y-107619999D03*
X20320000Y-107619999D03*
X17780000Y-107619999D03*
D11*
X15240000Y-107619999D03*
D10*
X22860000Y-95554999D03*
X20320000Y-95554999D03*
X17780000Y-95554999D03*
D11*
X15240000Y-95554999D03*
D10*
X33020000Y-125095000D03*
X30480000Y-125095000D03*
X33020000Y-122555000D03*
X30480000Y-122555000D03*
X33020000Y-120015000D03*
X30480000Y-120015000D03*
X33020000Y-117475000D03*
X30480000Y-117475000D03*
X33020000Y-114935000D03*
X30480000Y-114935000D03*
X33020000Y-112395000D03*
X30480000Y-112395000D03*
X33020000Y-109855000D03*
X30480000Y-109855000D03*
X33020000Y-107315000D03*
X30480000Y-107315000D03*
X33020000Y-104775000D03*
X30480000Y-104775000D03*
X33020000Y-102235000D03*
X30480000Y-102235000D03*
X33020000Y-99695000D03*
X30480000Y-99695000D03*
X33020000Y-97155000D03*
X30480000Y-97155000D03*
X33020000Y-94615000D03*
X30480000Y-94615000D03*
X33020000Y-92075000D03*
X30480000Y-92075000D03*
X33020000Y-89535000D03*
X30480000Y-89535000D03*
X33020000Y-86995000D03*
X30480000Y-86995000D03*
X33020000Y-84455000D03*
X30480000Y-84455000D03*
X33020000Y-81915000D03*
X30480000Y-81915000D03*
X33020000Y-79375000D03*
X30480000Y-79375000D03*
X33020000Y-76835000D03*
D11*
X30480000Y-76835000D03*
D12*
X18288000Y-76200000D03*
X14478000Y-76200000D03*
X10668000Y-76200000D03*
X25908000Y-76200000D03*
X22098000Y-76200000D03*
D10*
X25400000Y-83185000D03*
X22860000Y-83185000D03*
X20320000Y-83185000D03*
X17780000Y-83185000D03*
D11*
X15240000Y-83185000D03*
D12*
X89535000Y-76200000D03*
X85725000Y-76200000D03*
X81915000Y-76200000D03*
X78105000Y-76200000D03*
X74295000Y-76200000D03*
X70485000Y-76200000D03*
X66675000Y-76200000D03*
X62865000Y-76200000D03*
X59055000Y-76200000D03*
X55245000Y-76200000D03*
X51435000Y-76200000D03*
X47625000Y-76200000D03*
D13*
X11430000Y-94615000D03*
X11430000Y-106680000D03*
X9525000Y-113665000D03*
X20320000Y-98425000D03*
X22860000Y-97789996D03*
X42545000Y-99695000D03*
X42545000Y-100965000D03*
X41275000Y-100965000D03*
X41275000Y-120015000D03*
X41275000Y-118745000D03*
X11430000Y-95885000D03*
X11430000Y-107950000D03*
X8890000Y-120650000D03*
X42545000Y-118745000D03*
X42545000Y-120015000D03*
X41275000Y-117475000D03*
X42545000Y-117475000D03*
X53213000Y-99695000D03*
X53213000Y-100965000D03*
X51943000Y-100965000D03*
X51943000Y-99695000D03*
X51943000Y-120015000D03*
X51943000Y-118745000D03*
X53213000Y-118745000D03*
X53213000Y-120015000D03*
X51943000Y-117475000D03*
X53213000Y-117475000D03*
X51943000Y-98425000D03*
X85217000Y-99695000D03*
X85217000Y-100965000D03*
X83947000Y-100965000D03*
X83947000Y-99695000D03*
X83947000Y-120015000D03*
X83947000Y-118745000D03*
X85217000Y-118745000D03*
X85217000Y-120015000D03*
X83947000Y-117475000D03*
X85217000Y-117475000D03*
X83947000Y-98425000D03*
X95885000Y-99695000D03*
X95885000Y-100965000D03*
X94615000Y-100965000D03*
X94615000Y-99695000D03*
X94615000Y-120015000D03*
X94615000Y-118745000D03*
X95885000Y-118745000D03*
X95885000Y-120015000D03*
X94615000Y-117475000D03*
X95885000Y-117475000D03*
X94615000Y-98425000D03*
X63881000Y-99695000D03*
X63881000Y-100965000D03*
X62611000Y-100965000D03*
X62611000Y-120015000D03*
X62611000Y-118745000D03*
X63881000Y-118745000D03*
X63881000Y-120015000D03*
X62611000Y-117475000D03*
X63881000Y-117475000D03*
X74549000Y-99695000D03*
X74549000Y-100965000D03*
X73279000Y-100965000D03*
X73279000Y-99695000D03*
X73279000Y-120015000D03*
X73279000Y-118745000D03*
X74549000Y-118745000D03*
X74549000Y-120015000D03*
X73279000Y-117475000D03*
X74549000Y-117475000D03*
X73279000Y-98425000D03*
X41275000Y-99695000D03*
X41275000Y-98425000D03*
X62776010Y-98416462D03*
X62776010Y-99661923D03*
X35560000Y-93980002D03*
X36195000Y-115570002D03*
X35560000Y-113665000D03*
X36121373Y-91406640D03*
X46571391Y-94587525D03*
X46551397Y-96266000D03*
X46571391Y-92710000D03*
X78740000Y-94615000D03*
X78740000Y-109855000D03*
X78555397Y-96520000D03*
X78039990Y-108585000D03*
X89535000Y-96520000D03*
X88900002Y-112395000D03*
X89535000Y-94615000D03*
X88264996Y-109855000D03*
X67310000Y-104140000D03*
X68395378Y-96520000D03*
X68580000Y-94615000D03*
X68559656Y-104738718D03*
X57219391Y-95758000D03*
X57239395Y-93726000D03*
D14*
X15240000Y-90805000D02*
X15240000Y-83185000D01*
X11430000Y-94615000D02*
X15240000Y-90805000D01*
X11430000Y-106680000D02*
X10604999Y-105854999D01*
X10604999Y-105854999D02*
X10604999Y-95440001D01*
X10604999Y-95440001D02*
X11430000Y-94615000D01*
X17705002Y-107619999D02*
X17780000Y-107619999D01*
X11660001Y-113665000D02*
X17705002Y-107619999D01*
X9525000Y-113665000D02*
X11660001Y-113665000D01*
X17780000Y-107619999D02*
X17780000Y-95554999D01*
X17780000Y-95554999D02*
X17780000Y-83185000D01*
D15*
X35560000Y-93980002D02*
X36594999Y-95015001D01*
X36594999Y-95015001D02*
X36594999Y-115170003D01*
X36594999Y-115170003D02*
X36195000Y-115570002D01*
X35560000Y-113665000D02*
X34859999Y-112964999D01*
X34859999Y-112964999D02*
X34859999Y-92668014D01*
X35721374Y-91806639D02*
X36121373Y-91406640D01*
X34859999Y-92668014D02*
X35721374Y-91806639D01*
X46571391Y-94587525D02*
X46571391Y-96246006D01*
X46571391Y-96246006D02*
X46551397Y-96266000D01*
X79440001Y-109154999D02*
X78740000Y-109855000D01*
X78740000Y-94615000D02*
X79440001Y-95315001D01*
X79440001Y-95315001D02*
X79440001Y-109154999D01*
X78039990Y-108519990D02*
X78039990Y-108585000D01*
X78555397Y-96520000D02*
X78555397Y-108069593D01*
X78555397Y-108069593D02*
X78039990Y-108585000D01*
X89535000Y-96520000D02*
X89535000Y-111760002D01*
X89535000Y-111760002D02*
X88900002Y-112395000D01*
X89535000Y-94615000D02*
X88264996Y-95885004D01*
X88264996Y-95885004D02*
X88264996Y-109855000D01*
X68395378Y-96520000D02*
X67945000Y-96970378D01*
X67945000Y-103505000D02*
X67310000Y-104140000D01*
X67945000Y-96970378D02*
X67945000Y-103505000D01*
X68580000Y-94615000D02*
X69095379Y-95130379D01*
X69095379Y-95130379D02*
X69095379Y-104202995D01*
X69095379Y-104202995D02*
X68559656Y-104738718D01*
D16*
X9069312Y-74101312D02*
X8788142Y-74443919D01*
X8579214Y-74834797D01*
X8450556Y-75258924D01*
X8418000Y-75589473D01*
X8418000Y-76810528D01*
X8450556Y-77141077D01*
X8579214Y-77565204D01*
X8788143Y-77956081D01*
X9069313Y-78298688D01*
X9411920Y-78579858D01*
X9802797Y-78788786D01*
X10226924Y-78917444D01*
X10668000Y-78960886D01*
X11109077Y-78917444D01*
X11533204Y-78788786D01*
X11924081Y-78579858D01*
X12266688Y-78298688D01*
X12547858Y-77956081D01*
X12573000Y-77909043D01*
X12598143Y-77956081D01*
X12879313Y-78298688D01*
X13221920Y-78579858D01*
X13612797Y-78788786D01*
X14036924Y-78917444D01*
X14478000Y-78960886D01*
X14919077Y-78917444D01*
X15343204Y-78788786D01*
X15734081Y-78579858D01*
X16076688Y-78298688D01*
X16357858Y-77956081D01*
X16383000Y-77909043D01*
X16408143Y-77956081D01*
X16689313Y-78298688D01*
X17031920Y-78579858D01*
X17422797Y-78788786D01*
X17846924Y-78917444D01*
X18288000Y-78960886D01*
X18729077Y-78917444D01*
X19153204Y-78788786D01*
X19544081Y-78579858D01*
X19886688Y-78298688D01*
X20167858Y-77956081D01*
X20193000Y-77909043D01*
X20218143Y-77956081D01*
X20499313Y-78298688D01*
X20841920Y-78579858D01*
X21232797Y-78788786D01*
X21656924Y-78917444D01*
X22098000Y-78960886D01*
X22539077Y-78917444D01*
X22963204Y-78788786D01*
X23354081Y-78579858D01*
X23696688Y-78298688D01*
X23977858Y-77956081D01*
X24003000Y-77909043D01*
X24028143Y-77956081D01*
X24309313Y-78298688D01*
X24651920Y-78579858D01*
X25042797Y-78788786D01*
X25466924Y-78917444D01*
X25908000Y-78960886D01*
X26349077Y-78917444D01*
X26773204Y-78788786D01*
X27164081Y-78579858D01*
X27506688Y-78298688D01*
X27787858Y-77956081D01*
X27996786Y-77565203D01*
X28125444Y-77141076D01*
X28158000Y-76810527D01*
X28158000Y-75589472D01*
X28125444Y-75258923D01*
X27996786Y-74834796D01*
X27787858Y-74443919D01*
X27506688Y-74101312D01*
X27273573Y-73910000D01*
X46259427Y-73910000D01*
X46026312Y-74101312D01*
X45745142Y-74443919D01*
X45536214Y-74834797D01*
X45407556Y-75258924D01*
X45375000Y-75589473D01*
X45375000Y-76810528D01*
X45407556Y-77141077D01*
X45536214Y-77565204D01*
X45745143Y-77956081D01*
X46026313Y-78298688D01*
X46368920Y-78579858D01*
X46759797Y-78788786D01*
X47183924Y-78917444D01*
X47625000Y-78960886D01*
X48066077Y-78917444D01*
X48490204Y-78788786D01*
X48881081Y-78579858D01*
X49223688Y-78298688D01*
X49504858Y-77956081D01*
X49530000Y-77909043D01*
X49555143Y-77956081D01*
X49836313Y-78298688D01*
X50178920Y-78579858D01*
X50569797Y-78788786D01*
X50993924Y-78917444D01*
X51435000Y-78960886D01*
X51876077Y-78917444D01*
X52300204Y-78788786D01*
X52691081Y-78579858D01*
X53033688Y-78298688D01*
X53314858Y-77956081D01*
X53340000Y-77909043D01*
X53365143Y-77956081D01*
X53646313Y-78298688D01*
X53988920Y-78579858D01*
X54379797Y-78788786D01*
X54803924Y-78917444D01*
X55245000Y-78960886D01*
X55686077Y-78917444D01*
X56110204Y-78788786D01*
X56501081Y-78579858D01*
X56843688Y-78298688D01*
X57124858Y-77956081D01*
X57150000Y-77909043D01*
X57175143Y-77956081D01*
X57456313Y-78298688D01*
X57798920Y-78579858D01*
X58189797Y-78788786D01*
X58613924Y-78917444D01*
X59055000Y-78960886D01*
X59496077Y-78917444D01*
X59920204Y-78788786D01*
X60311081Y-78579858D01*
X60653688Y-78298688D01*
X60934858Y-77956081D01*
X60960000Y-77909043D01*
X60985143Y-77956081D01*
X61266313Y-78298688D01*
X61608920Y-78579858D01*
X61999797Y-78788786D01*
X62423924Y-78917444D01*
X62865000Y-78960886D01*
X63306077Y-78917444D01*
X63730204Y-78788786D01*
X64121081Y-78579858D01*
X64463688Y-78298688D01*
X64744858Y-77956081D01*
X64770000Y-77909043D01*
X64795143Y-77956081D01*
X65076313Y-78298688D01*
X65418920Y-78579858D01*
X65809797Y-78788786D01*
X66233924Y-78917444D01*
X66675000Y-78960886D01*
X67116077Y-78917444D01*
X67540204Y-78788786D01*
X67931081Y-78579858D01*
X68273688Y-78298688D01*
X68554858Y-77956081D01*
X68580000Y-77909043D01*
X68605143Y-77956081D01*
X68886313Y-78298688D01*
X69228920Y-78579858D01*
X69619797Y-78788786D01*
X70043924Y-78917444D01*
X70485000Y-78960886D01*
X70926077Y-78917444D01*
X71350204Y-78788786D01*
X71741081Y-78579858D01*
X72083688Y-78298688D01*
X72364858Y-77956081D01*
X72390000Y-77909043D01*
X72415143Y-77956081D01*
X72696313Y-78298688D01*
X73038920Y-78579858D01*
X73429797Y-78788786D01*
X73853924Y-78917444D01*
X74295000Y-78960886D01*
X74736077Y-78917444D01*
X75160204Y-78788786D01*
X75551081Y-78579858D01*
X75893688Y-78298688D01*
X76174858Y-77956081D01*
X76200000Y-77909043D01*
X76225143Y-77956081D01*
X76506313Y-78298688D01*
X76848920Y-78579858D01*
X77239797Y-78788786D01*
X77663924Y-78917444D01*
X78105000Y-78960886D01*
X78546077Y-78917444D01*
X78970204Y-78788786D01*
X79361081Y-78579858D01*
X79703688Y-78298688D01*
X79984858Y-77956081D01*
X80010000Y-77909043D01*
X80035143Y-77956081D01*
X80316313Y-78298688D01*
X80658920Y-78579858D01*
X81049797Y-78788786D01*
X81473924Y-78917444D01*
X81915000Y-78960886D01*
X82356077Y-78917444D01*
X82780204Y-78788786D01*
X83171081Y-78579858D01*
X83513688Y-78298688D01*
X83794858Y-77956081D01*
X83820000Y-77909043D01*
X83845143Y-77956081D01*
X84126313Y-78298688D01*
X84468920Y-78579858D01*
X84859797Y-78788786D01*
X85283924Y-78917444D01*
X85725000Y-78960886D01*
X86166077Y-78917444D01*
X86590204Y-78788786D01*
X86981081Y-78579858D01*
X87323688Y-78298688D01*
X87604858Y-77956081D01*
X87630000Y-77909043D01*
X87655143Y-77956081D01*
X87936313Y-78298688D01*
X88278920Y-78579858D01*
X88669797Y-78788786D01*
X89093924Y-78917444D01*
X89535000Y-78960886D01*
X89976077Y-78917444D01*
X90400204Y-78788786D01*
X90791081Y-78579858D01*
X91133688Y-78298688D01*
X91414858Y-77956081D01*
X91623786Y-77565203D01*
X91752444Y-77141076D01*
X91785000Y-76810527D01*
X91785000Y-75589472D01*
X91752444Y-75258923D01*
X91623786Y-74834796D01*
X91414858Y-74443919D01*
X91133688Y-74101312D01*
X90900573Y-73910000D01*
X98810000Y-73910000D01*
X98810000Y-126750000D01*
X34323018Y-126750000D01*
X34358672Y-126726177D01*
X34651177Y-126433672D01*
X34880996Y-126089723D01*
X35039298Y-125707547D01*
X35120000Y-125301832D01*
X35120000Y-124888168D01*
X35039298Y-124482453D01*
X34880996Y-124100277D01*
X34697062Y-123825000D01*
X34880996Y-123549723D01*
X35039298Y-123167547D01*
X35120000Y-122761832D01*
X35120000Y-122348168D01*
X35039298Y-121942453D01*
X34880996Y-121560277D01*
X34697062Y-121285000D01*
X34880996Y-121009723D01*
X35039298Y-120627547D01*
X35120000Y-120221832D01*
X35120000Y-119808168D01*
X35039298Y-119402453D01*
X34880996Y-119020277D01*
X34697062Y-118745000D01*
X34880996Y-118469723D01*
X35039298Y-118087547D01*
X35120000Y-117681832D01*
X35120000Y-117312489D01*
X39625000Y-117312489D01*
X39625000Y-117637511D01*
X39688408Y-117956287D01*
X39752078Y-118110000D01*
X39688408Y-118263713D01*
X39625000Y-118582489D01*
X39625000Y-118907511D01*
X39688408Y-119226287D01*
X39752078Y-119380000D01*
X39688408Y-119533713D01*
X39625000Y-119852489D01*
X39625000Y-120177511D01*
X39688408Y-120496287D01*
X39812789Y-120796568D01*
X39993361Y-121066814D01*
X40223186Y-121296639D01*
X40493432Y-121477211D01*
X40793713Y-121601592D01*
X41112489Y-121665000D01*
X41437511Y-121665000D01*
X41756287Y-121601592D01*
X41910000Y-121537922D01*
X42063713Y-121601592D01*
X42382489Y-121665000D01*
X42707511Y-121665000D01*
X43026287Y-121601592D01*
X43326568Y-121477211D01*
X43596814Y-121296639D01*
X43826639Y-121066814D01*
X44007211Y-120796568D01*
X44131592Y-120496287D01*
X44195000Y-120177511D01*
X44195000Y-119852489D01*
X44131592Y-119533713D01*
X44067922Y-119380000D01*
X44131592Y-119226287D01*
X44195000Y-118907511D01*
X44195000Y-118582489D01*
X44131592Y-118263713D01*
X44067922Y-118110000D01*
X44131592Y-117956287D01*
X44195000Y-117637511D01*
X44195000Y-117312489D01*
X50293000Y-117312489D01*
X50293000Y-117637511D01*
X50356408Y-117956287D01*
X50420078Y-118110000D01*
X50356408Y-118263713D01*
X50293000Y-118582489D01*
X50293000Y-118907511D01*
X50356408Y-119226287D01*
X50420078Y-119380000D01*
X50356408Y-119533713D01*
X50293000Y-119852489D01*
X50293000Y-120177511D01*
X50356408Y-120496287D01*
X50480789Y-120796568D01*
X50661361Y-121066814D01*
X50891186Y-121296639D01*
X51161432Y-121477211D01*
X51461713Y-121601592D01*
X51780489Y-121665000D01*
X52105511Y-121665000D01*
X52424287Y-121601592D01*
X52578000Y-121537922D01*
X52731713Y-121601592D01*
X53050489Y-121665000D01*
X53375511Y-121665000D01*
X53694287Y-121601592D01*
X53994568Y-121477211D01*
X54264814Y-121296639D01*
X54494639Y-121066814D01*
X54675211Y-120796568D01*
X54799592Y-120496287D01*
X54863000Y-120177511D01*
X54863000Y-119852489D01*
X54799592Y-119533713D01*
X54735922Y-119380000D01*
X54799592Y-119226287D01*
X54863000Y-118907511D01*
X54863000Y-118582489D01*
X54799592Y-118263713D01*
X54735922Y-118110000D01*
X54799592Y-117956287D01*
X54863000Y-117637511D01*
X54863000Y-117312489D01*
X60961000Y-117312489D01*
X60961000Y-117637511D01*
X61024408Y-117956287D01*
X61088078Y-118110000D01*
X61024408Y-118263713D01*
X60961000Y-118582489D01*
X60961000Y-118907511D01*
X61024408Y-119226287D01*
X61088078Y-119380000D01*
X61024408Y-119533713D01*
X60961000Y-119852489D01*
X60961000Y-120177511D01*
X61024408Y-120496287D01*
X61148789Y-120796568D01*
X61329361Y-121066814D01*
X61559186Y-121296639D01*
X61829432Y-121477211D01*
X62129713Y-121601592D01*
X62448489Y-121665000D01*
X62773511Y-121665000D01*
X63092287Y-121601592D01*
X63246000Y-121537922D01*
X63399713Y-121601592D01*
X63718489Y-121665000D01*
X64043511Y-121665000D01*
X64362287Y-121601592D01*
X64662568Y-121477211D01*
X64932814Y-121296639D01*
X65162639Y-121066814D01*
X65343211Y-120796568D01*
X65467592Y-120496287D01*
X65531000Y-120177511D01*
X65531000Y-119852489D01*
X65467592Y-119533713D01*
X65403922Y-119380000D01*
X65467592Y-119226287D01*
X65531000Y-118907511D01*
X65531000Y-118582489D01*
X65467592Y-118263713D01*
X65403922Y-118110000D01*
X65467592Y-117956287D01*
X65531000Y-117637511D01*
X65531000Y-117312489D01*
X71629000Y-117312489D01*
X71629000Y-117637511D01*
X71692408Y-117956287D01*
X71756078Y-118110000D01*
X71692408Y-118263713D01*
X71629000Y-118582489D01*
X71629000Y-118907511D01*
X71692408Y-119226287D01*
X71756078Y-119380000D01*
X71692408Y-119533713D01*
X71629000Y-119852489D01*
X71629000Y-120177511D01*
X71692408Y-120496287D01*
X71816789Y-120796568D01*
X71997361Y-121066814D01*
X72227186Y-121296639D01*
X72497432Y-121477211D01*
X72797713Y-121601592D01*
X73116489Y-121665000D01*
X73441511Y-121665000D01*
X73760287Y-121601592D01*
X73914000Y-121537922D01*
X74067713Y-121601592D01*
X74386489Y-121665000D01*
X74711511Y-121665000D01*
X75030287Y-121601592D01*
X75330568Y-121477211D01*
X75600814Y-121296639D01*
X75830639Y-121066814D01*
X76011211Y-120796568D01*
X76135592Y-120496287D01*
X76199000Y-120177511D01*
X76199000Y-119852489D01*
X76135592Y-119533713D01*
X76071922Y-119380000D01*
X76135592Y-119226287D01*
X76199000Y-118907511D01*
X76199000Y-118582489D01*
X76135592Y-118263713D01*
X76071922Y-118110000D01*
X76135592Y-117956287D01*
X76199000Y-117637511D01*
X76199000Y-117312489D01*
X82297000Y-117312489D01*
X82297000Y-117637511D01*
X82360408Y-117956287D01*
X82424078Y-118110000D01*
X82360408Y-118263713D01*
X82297000Y-118582489D01*
X82297000Y-118907511D01*
X82360408Y-119226287D01*
X82424078Y-119380000D01*
X82360408Y-119533713D01*
X82297000Y-119852489D01*
X82297000Y-120177511D01*
X82360408Y-120496287D01*
X82484789Y-120796568D01*
X82665361Y-121066814D01*
X82895186Y-121296639D01*
X83165432Y-121477211D01*
X83465713Y-121601592D01*
X83784489Y-121665000D01*
X84109511Y-121665000D01*
X84428287Y-121601592D01*
X84582000Y-121537922D01*
X84735713Y-121601592D01*
X85054489Y-121665000D01*
X85379511Y-121665000D01*
X85698287Y-121601592D01*
X85998568Y-121477211D01*
X86268814Y-121296639D01*
X86498639Y-121066814D01*
X86679211Y-120796568D01*
X86803592Y-120496287D01*
X86867000Y-120177511D01*
X86867000Y-119852489D01*
X86803592Y-119533713D01*
X86739922Y-119380000D01*
X86803592Y-119226287D01*
X86867000Y-118907511D01*
X86867000Y-118582489D01*
X86803592Y-118263713D01*
X86739922Y-118110000D01*
X86803592Y-117956287D01*
X86867000Y-117637511D01*
X86867000Y-117312489D01*
X92965000Y-117312489D01*
X92965000Y-117637511D01*
X93028408Y-117956287D01*
X93092078Y-118110000D01*
X93028408Y-118263713D01*
X92965000Y-118582489D01*
X92965000Y-118907511D01*
X93028408Y-119226287D01*
X93092078Y-119380000D01*
X93028408Y-119533713D01*
X92965000Y-119852489D01*
X92965000Y-120177511D01*
X93028408Y-120496287D01*
X93152789Y-120796568D01*
X93333361Y-121066814D01*
X93563186Y-121296639D01*
X93833432Y-121477211D01*
X94133713Y-121601592D01*
X94452489Y-121665000D01*
X94777511Y-121665000D01*
X95096287Y-121601592D01*
X95250000Y-121537922D01*
X95403713Y-121601592D01*
X95722489Y-121665000D01*
X96047511Y-121665000D01*
X96366287Y-121601592D01*
X96666568Y-121477211D01*
X96936814Y-121296639D01*
X97166639Y-121066814D01*
X97347211Y-120796568D01*
X97471592Y-120496287D01*
X97535000Y-120177511D01*
X97535000Y-119852489D01*
X97471592Y-119533713D01*
X97407922Y-119380000D01*
X97471592Y-119226287D01*
X97535000Y-118907511D01*
X97535000Y-118582489D01*
X97471592Y-118263713D01*
X97407922Y-118110000D01*
X97471592Y-117956287D01*
X97535000Y-117637511D01*
X97535000Y-117312489D01*
X97471592Y-116993713D01*
X97347211Y-116693432D01*
X97166639Y-116423186D01*
X96936814Y-116193361D01*
X96666568Y-116012789D01*
X96366287Y-115888408D01*
X96047511Y-115825000D01*
X95722489Y-115825000D01*
X95403713Y-115888408D01*
X95250000Y-115952078D01*
X95096287Y-115888408D01*
X94777511Y-115825000D01*
X94452489Y-115825000D01*
X94133713Y-115888408D01*
X93833432Y-116012789D01*
X93563186Y-116193361D01*
X93333361Y-116423186D01*
X93152789Y-116693432D01*
X93028408Y-116993713D01*
X92965000Y-117312489D01*
X86867000Y-117312489D01*
X86803592Y-116993713D01*
X86679211Y-116693432D01*
X86498639Y-116423186D01*
X86268814Y-116193361D01*
X85998568Y-116012789D01*
X85698287Y-115888408D01*
X85379511Y-115825000D01*
X85054489Y-115825000D01*
X84735713Y-115888408D01*
X84582000Y-115952078D01*
X84428287Y-115888408D01*
X84109511Y-115825000D01*
X83784489Y-115825000D01*
X83465713Y-115888408D01*
X83165432Y-116012789D01*
X82895186Y-116193361D01*
X82665361Y-116423186D01*
X82484789Y-116693432D01*
X82360408Y-116993713D01*
X82297000Y-117312489D01*
X76199000Y-117312489D01*
X76135592Y-116993713D01*
X76011211Y-116693432D01*
X75830639Y-116423186D01*
X75600814Y-116193361D01*
X75330568Y-116012789D01*
X75030287Y-115888408D01*
X74711511Y-115825000D01*
X74386489Y-115825000D01*
X74067713Y-115888408D01*
X73914000Y-115952078D01*
X73760287Y-115888408D01*
X73441511Y-115825000D01*
X73116489Y-115825000D01*
X72797713Y-115888408D01*
X72497432Y-116012789D01*
X72227186Y-116193361D01*
X71997361Y-116423186D01*
X71816789Y-116693432D01*
X71692408Y-116993713D01*
X71629000Y-117312489D01*
X65531000Y-117312489D01*
X65467592Y-116993713D01*
X65343211Y-116693432D01*
X65162639Y-116423186D01*
X64932814Y-116193361D01*
X64662568Y-116012789D01*
X64362287Y-115888408D01*
X64043511Y-115825000D01*
X63718489Y-115825000D01*
X63399713Y-115888408D01*
X63246000Y-115952078D01*
X63092287Y-115888408D01*
X62773511Y-115825000D01*
X62448489Y-115825000D01*
X62129713Y-115888408D01*
X61829432Y-116012789D01*
X61559186Y-116193361D01*
X61329361Y-116423186D01*
X61148789Y-116693432D01*
X61024408Y-116993713D01*
X60961000Y-117312489D01*
X54863000Y-117312489D01*
X54799592Y-116993713D01*
X54675211Y-116693432D01*
X54494639Y-116423186D01*
X54264814Y-116193361D01*
X53994568Y-116012789D01*
X53694287Y-115888408D01*
X53375511Y-115825000D01*
X53050489Y-115825000D01*
X52731713Y-115888408D01*
X52578000Y-115952078D01*
X52424287Y-115888408D01*
X52105511Y-115825000D01*
X51780489Y-115825000D01*
X51461713Y-115888408D01*
X51161432Y-116012789D01*
X50891186Y-116193361D01*
X50661361Y-116423186D01*
X50480789Y-116693432D01*
X50356408Y-116993713D01*
X50293000Y-117312489D01*
X44195000Y-117312489D01*
X44131592Y-116993713D01*
X44007211Y-116693432D01*
X43826639Y-116423186D01*
X43596814Y-116193361D01*
X43326568Y-116012789D01*
X43026287Y-115888408D01*
X42707511Y-115825000D01*
X42382489Y-115825000D01*
X42063713Y-115888408D01*
X41910000Y-115952078D01*
X41756287Y-115888408D01*
X41437511Y-115825000D01*
X41112489Y-115825000D01*
X40793713Y-115888408D01*
X40493432Y-116012789D01*
X40223186Y-116193361D01*
X39993361Y-116423186D01*
X39812789Y-116693432D01*
X39688408Y-116993713D01*
X39625000Y-117312489D01*
X35120000Y-117312489D01*
X35120000Y-117268168D01*
X35039298Y-116862453D01*
X34958193Y-116666648D01*
X35143186Y-116851641D01*
X35413432Y-117032213D01*
X35713713Y-117156594D01*
X36032489Y-117220002D01*
X36357511Y-117220002D01*
X36676287Y-117156594D01*
X36976568Y-117032213D01*
X37246814Y-116851641D01*
X37476639Y-116621816D01*
X37657211Y-116351570D01*
X37781592Y-116051289D01*
X37845000Y-115732513D01*
X37845000Y-115695245D01*
X37848271Y-115689125D01*
X37925466Y-115434649D01*
X37944999Y-115236324D01*
X37944999Y-115236323D01*
X37951531Y-115170004D01*
X37944999Y-115103685D01*
X37944999Y-108422489D01*
X76389990Y-108422489D01*
X76389990Y-108747511D01*
X76453398Y-109066287D01*
X76577779Y-109366568D01*
X76758351Y-109636814D01*
X76988176Y-109866639D01*
X77090000Y-109934675D01*
X77090000Y-110017511D01*
X77153408Y-110336287D01*
X77277789Y-110636568D01*
X77458361Y-110906814D01*
X77688186Y-111136639D01*
X77958432Y-111317211D01*
X78258713Y-111441592D01*
X78577489Y-111505000D01*
X78902511Y-111505000D01*
X79221287Y-111441592D01*
X79521568Y-111317211D01*
X79791814Y-111136639D01*
X80021639Y-110906814D01*
X80202211Y-110636568D01*
X80326592Y-110336287D01*
X80365215Y-110142114D01*
X80399214Y-110114212D01*
X80567916Y-109908648D01*
X80683455Y-109692489D01*
X86614996Y-109692489D01*
X86614996Y-110017511D01*
X86678404Y-110336287D01*
X86802785Y-110636568D01*
X86983357Y-110906814D01*
X87213182Y-111136639D01*
X87483428Y-111317211D01*
X87602706Y-111366618D01*
X87437791Y-111613432D01*
X87313410Y-111913713D01*
X87250002Y-112232489D01*
X87250002Y-112557511D01*
X87313410Y-112876287D01*
X87437791Y-113176568D01*
X87618363Y-113446814D01*
X87848188Y-113676639D01*
X88118434Y-113857211D01*
X88418715Y-113981592D01*
X88737491Y-114045000D01*
X89062513Y-114045000D01*
X89381289Y-113981592D01*
X89681570Y-113857211D01*
X89951816Y-113676639D01*
X90181641Y-113446814D01*
X90362213Y-113176568D01*
X90486594Y-112876287D01*
X90525395Y-112681220D01*
X90662915Y-112513651D01*
X90788272Y-112279124D01*
X90865467Y-112024648D01*
X90885000Y-111826323D01*
X90885000Y-111826321D01*
X90891532Y-111760002D01*
X90885000Y-111693683D01*
X90885000Y-98262489D01*
X92965000Y-98262489D01*
X92965000Y-98587511D01*
X93028408Y-98906287D01*
X93092078Y-99060000D01*
X93028408Y-99213713D01*
X92965000Y-99532489D01*
X92965000Y-99857511D01*
X93028408Y-100176287D01*
X93092078Y-100330000D01*
X93028408Y-100483713D01*
X92965000Y-100802489D01*
X92965000Y-101127511D01*
X93028408Y-101446287D01*
X93152789Y-101746568D01*
X93333361Y-102016814D01*
X93563186Y-102246639D01*
X93833432Y-102427211D01*
X94133713Y-102551592D01*
X94452489Y-102615000D01*
X94777511Y-102615000D01*
X95096287Y-102551592D01*
X95250000Y-102487922D01*
X95403713Y-102551592D01*
X95722489Y-102615000D01*
X96047511Y-102615000D01*
X96366287Y-102551592D01*
X96666568Y-102427211D01*
X96936814Y-102246639D01*
X97166639Y-102016814D01*
X97347211Y-101746568D01*
X97471592Y-101446287D01*
X97535000Y-101127511D01*
X97535000Y-100802489D01*
X97471592Y-100483713D01*
X97407922Y-100330000D01*
X97471592Y-100176287D01*
X97535000Y-99857511D01*
X97535000Y-99532489D01*
X97471592Y-99213713D01*
X97347211Y-98913432D01*
X97166639Y-98643186D01*
X96936814Y-98413361D01*
X96666568Y-98232789D01*
X96366287Y-98108408D01*
X96228916Y-98081084D01*
X96201592Y-97943713D01*
X96077211Y-97643432D01*
X95896639Y-97373186D01*
X95666814Y-97143361D01*
X95396568Y-96962789D01*
X95096287Y-96838408D01*
X94777511Y-96775000D01*
X94452489Y-96775000D01*
X94133713Y-96838408D01*
X93833432Y-96962789D01*
X93563186Y-97143361D01*
X93333361Y-97373186D01*
X93152789Y-97643432D01*
X93028408Y-97943713D01*
X92965000Y-98262489D01*
X90885000Y-98262489D01*
X90885000Y-97469504D01*
X90997211Y-97301568D01*
X91121592Y-97001287D01*
X91185000Y-96682511D01*
X91185000Y-96357489D01*
X91121592Y-96038713D01*
X90997211Y-95738432D01*
X90882998Y-95567500D01*
X90997211Y-95396568D01*
X91121592Y-95096287D01*
X91185000Y-94777511D01*
X91185000Y-94452489D01*
X91121592Y-94133713D01*
X90997211Y-93833432D01*
X90816639Y-93563186D01*
X90586814Y-93333361D01*
X90316568Y-93152789D01*
X90016287Y-93028408D01*
X89697511Y-92965000D01*
X89372489Y-92965000D01*
X89053713Y-93028408D01*
X88753432Y-93152789D01*
X88483186Y-93333361D01*
X88253361Y-93563186D01*
X88072789Y-93833432D01*
X87948408Y-94133713D01*
X87909005Y-94331806D01*
X87357295Y-94883517D01*
X87305783Y-94925792D01*
X87263509Y-94977303D01*
X87263506Y-94977306D01*
X87137081Y-95131355D01*
X87085666Y-95227547D01*
X87011724Y-95365883D01*
X86934529Y-95620359D01*
X86920150Y-95766352D01*
X86908464Y-95885004D01*
X86914996Y-95951323D01*
X86914997Y-108905494D01*
X86802785Y-109073432D01*
X86678404Y-109373713D01*
X86614996Y-109692489D01*
X80683455Y-109692489D01*
X80693273Y-109674121D01*
X80770468Y-109419645D01*
X80790001Y-109221320D01*
X80790001Y-109221318D01*
X80796533Y-109154999D01*
X80790001Y-109088680D01*
X80790001Y-98262489D01*
X82297000Y-98262489D01*
X82297000Y-98587511D01*
X82360408Y-98906287D01*
X82424078Y-99060000D01*
X82360408Y-99213713D01*
X82297000Y-99532489D01*
X82297000Y-99857511D01*
X82360408Y-100176287D01*
X82424078Y-100330000D01*
X82360408Y-100483713D01*
X82297000Y-100802489D01*
X82297000Y-101127511D01*
X82360408Y-101446287D01*
X82484789Y-101746568D01*
X82665361Y-102016814D01*
X82895186Y-102246639D01*
X83165432Y-102427211D01*
X83465713Y-102551592D01*
X83784489Y-102615000D01*
X84109511Y-102615000D01*
X84428287Y-102551592D01*
X84582000Y-102487922D01*
X84735713Y-102551592D01*
X85054489Y-102615000D01*
X85379511Y-102615000D01*
X85698287Y-102551592D01*
X85998568Y-102427211D01*
X86268814Y-102246639D01*
X86498639Y-102016814D01*
X86679211Y-101746568D01*
X86803592Y-101446287D01*
X86867000Y-101127511D01*
X86867000Y-100802489D01*
X86803592Y-100483713D01*
X86739922Y-100330000D01*
X86803592Y-100176287D01*
X86867000Y-99857511D01*
X86867000Y-99532489D01*
X86803592Y-99213713D01*
X86679211Y-98913432D01*
X86498639Y-98643186D01*
X86268814Y-98413361D01*
X85998568Y-98232789D01*
X85698287Y-98108408D01*
X85560916Y-98081084D01*
X85533592Y-97943713D01*
X85409211Y-97643432D01*
X85228639Y-97373186D01*
X84998814Y-97143361D01*
X84728568Y-96962789D01*
X84428287Y-96838408D01*
X84109511Y-96775000D01*
X83784489Y-96775000D01*
X83465713Y-96838408D01*
X83165432Y-96962789D01*
X82895186Y-97143361D01*
X82665361Y-97373186D01*
X82484789Y-97643432D01*
X82360408Y-97943713D01*
X82297000Y-98262489D01*
X80790001Y-98262489D01*
X80790001Y-95381320D01*
X80796533Y-95315001D01*
X80789591Y-95244516D01*
X80770468Y-95050355D01*
X80693273Y-94795879D01*
X80567916Y-94561352D01*
X80534967Y-94521204D01*
X80441491Y-94407303D01*
X80441488Y-94407300D01*
X80399213Y-94355788D01*
X80365215Y-94327887D01*
X80326592Y-94133713D01*
X80202211Y-93833432D01*
X80021639Y-93563186D01*
X79791814Y-93333361D01*
X79521568Y-93152789D01*
X79221287Y-93028408D01*
X78902511Y-92965000D01*
X78577489Y-92965000D01*
X78258713Y-93028408D01*
X77958432Y-93152789D01*
X77688186Y-93333361D01*
X77458361Y-93563186D01*
X77277789Y-93833432D01*
X77153408Y-94133713D01*
X77090000Y-94452489D01*
X77090000Y-94777511D01*
X77153408Y-95096287D01*
X77277789Y-95396568D01*
X77304861Y-95437083D01*
X77273758Y-95468186D01*
X77093186Y-95738432D01*
X76968805Y-96038713D01*
X76905397Y-96357489D01*
X76905397Y-96682511D01*
X76968805Y-97001287D01*
X77093186Y-97301568D01*
X77205397Y-97469504D01*
X77205398Y-107158218D01*
X76988176Y-107303361D01*
X76758351Y-107533186D01*
X76577779Y-107803432D01*
X76453398Y-108103713D01*
X76389990Y-108422489D01*
X37944999Y-108422489D01*
X37944999Y-103977489D01*
X65660000Y-103977489D01*
X65660000Y-104302511D01*
X65723408Y-104621287D01*
X65847789Y-104921568D01*
X66028361Y-105191814D01*
X66258186Y-105421639D01*
X66528432Y-105602211D01*
X66828713Y-105726592D01*
X67147489Y-105790000D01*
X67277662Y-105790000D01*
X67278017Y-105790532D01*
X67507842Y-106020357D01*
X67778088Y-106200929D01*
X68078369Y-106325310D01*
X68397145Y-106388718D01*
X68722167Y-106388718D01*
X69040943Y-106325310D01*
X69341224Y-106200929D01*
X69611470Y-106020357D01*
X69841295Y-105790532D01*
X70021867Y-105520286D01*
X70146248Y-105220005D01*
X70190744Y-104996306D01*
X70223294Y-104956644D01*
X70348651Y-104722118D01*
X70375710Y-104632915D01*
X70425846Y-104467641D01*
X70445379Y-104269316D01*
X70445379Y-104269314D01*
X70451911Y-104202995D01*
X70445379Y-104136676D01*
X70445379Y-98262489D01*
X71629000Y-98262489D01*
X71629000Y-98587511D01*
X71692408Y-98906287D01*
X71756078Y-99060000D01*
X71692408Y-99213713D01*
X71629000Y-99532489D01*
X71629000Y-99857511D01*
X71692408Y-100176287D01*
X71756078Y-100330000D01*
X71692408Y-100483713D01*
X71629000Y-100802489D01*
X71629000Y-101127511D01*
X71692408Y-101446287D01*
X71816789Y-101746568D01*
X71997361Y-102016814D01*
X72227186Y-102246639D01*
X72497432Y-102427211D01*
X72797713Y-102551592D01*
X73116489Y-102615000D01*
X73441511Y-102615000D01*
X73760287Y-102551592D01*
X73914000Y-102487922D01*
X74067713Y-102551592D01*
X74386489Y-102615000D01*
X74711511Y-102615000D01*
X75030287Y-102551592D01*
X75330568Y-102427211D01*
X75600814Y-102246639D01*
X75830639Y-102016814D01*
X76011211Y-101746568D01*
X76135592Y-101446287D01*
X76199000Y-101127511D01*
X76199000Y-100802489D01*
X76135592Y-100483713D01*
X76071922Y-100330000D01*
X76135592Y-100176287D01*
X76199000Y-99857511D01*
X76199000Y-99532489D01*
X76135592Y-99213713D01*
X76011211Y-98913432D01*
X75830639Y-98643186D01*
X75600814Y-98413361D01*
X75330568Y-98232789D01*
X75030287Y-98108408D01*
X74892916Y-98081084D01*
X74865592Y-97943713D01*
X74741211Y-97643432D01*
X74560639Y-97373186D01*
X74330814Y-97143361D01*
X74060568Y-96962789D01*
X73760287Y-96838408D01*
X73441511Y-96775000D01*
X73116489Y-96775000D01*
X72797713Y-96838408D01*
X72497432Y-96962789D01*
X72227186Y-97143361D01*
X71997361Y-97373186D01*
X71816789Y-97643432D01*
X71692408Y-97943713D01*
X71629000Y-98262489D01*
X70445379Y-98262489D01*
X70445379Y-95196698D01*
X70451911Y-95130379D01*
X70445379Y-95064058D01*
X70425846Y-94865733D01*
X70348651Y-94611257D01*
X70223294Y-94376730D01*
X70212255Y-94363279D01*
X70166592Y-94133713D01*
X70042211Y-93833432D01*
X69861639Y-93563186D01*
X69631814Y-93333361D01*
X69361568Y-93152789D01*
X69061287Y-93028408D01*
X68742511Y-92965000D01*
X68417489Y-92965000D01*
X68098713Y-93028408D01*
X67798432Y-93152789D01*
X67528186Y-93333361D01*
X67298361Y-93563186D01*
X67117789Y-93833432D01*
X66993408Y-94133713D01*
X66930000Y-94452489D01*
X66930000Y-94777511D01*
X66993408Y-95096287D01*
X67117789Y-95396568D01*
X67144853Y-95437072D01*
X67113739Y-95468186D01*
X66933167Y-95738432D01*
X66808786Y-96038713D01*
X66747470Y-96346970D01*
X66691728Y-96451257D01*
X66614533Y-96705733D01*
X66602307Y-96829870D01*
X66588468Y-96970378D01*
X66595000Y-97036697D01*
X66595001Y-102650215D01*
X66528432Y-102677789D01*
X66258186Y-102858361D01*
X66028361Y-103088186D01*
X65847789Y-103358432D01*
X65723408Y-103658713D01*
X65660000Y-103977489D01*
X37944999Y-103977489D01*
X37944999Y-98262489D01*
X39625000Y-98262489D01*
X39625000Y-98587511D01*
X39688408Y-98906287D01*
X39752078Y-99060000D01*
X39688408Y-99213713D01*
X39625000Y-99532489D01*
X39625000Y-99857511D01*
X39688408Y-100176287D01*
X39752078Y-100330000D01*
X39688408Y-100483713D01*
X39625000Y-100802489D01*
X39625000Y-101127511D01*
X39688408Y-101446287D01*
X39812789Y-101746568D01*
X39993361Y-102016814D01*
X40223186Y-102246639D01*
X40493432Y-102427211D01*
X40793713Y-102551592D01*
X41112489Y-102615000D01*
X41437511Y-102615000D01*
X41756287Y-102551592D01*
X41910000Y-102487922D01*
X42063713Y-102551592D01*
X42382489Y-102615000D01*
X42707511Y-102615000D01*
X43026287Y-102551592D01*
X43326568Y-102427211D01*
X43596814Y-102246639D01*
X43826639Y-102016814D01*
X44007211Y-101746568D01*
X44131592Y-101446287D01*
X44195000Y-101127511D01*
X44195000Y-100802489D01*
X44131592Y-100483713D01*
X44067922Y-100330000D01*
X44131592Y-100176287D01*
X44195000Y-99857511D01*
X44195000Y-99532489D01*
X44131592Y-99213713D01*
X44007211Y-98913432D01*
X43826639Y-98643186D01*
X43596814Y-98413361D01*
X43371018Y-98262489D01*
X50293000Y-98262489D01*
X50293000Y-98587511D01*
X50356408Y-98906287D01*
X50420078Y-99060000D01*
X50356408Y-99213713D01*
X50293000Y-99532489D01*
X50293000Y-99857511D01*
X50356408Y-100176287D01*
X50420078Y-100330000D01*
X50356408Y-100483713D01*
X50293000Y-100802489D01*
X50293000Y-101127511D01*
X50356408Y-101446287D01*
X50480789Y-101746568D01*
X50661361Y-102016814D01*
X50891186Y-102246639D01*
X51161432Y-102427211D01*
X51461713Y-102551592D01*
X51780489Y-102615000D01*
X52105511Y-102615000D01*
X52424287Y-102551592D01*
X52578000Y-102487922D01*
X52731713Y-102551592D01*
X53050489Y-102615000D01*
X53375511Y-102615000D01*
X53694287Y-102551592D01*
X53994568Y-102427211D01*
X54264814Y-102246639D01*
X54494639Y-102016814D01*
X54675211Y-101746568D01*
X54799592Y-101446287D01*
X54863000Y-101127511D01*
X54863000Y-100802489D01*
X60961000Y-100802489D01*
X60961000Y-101127511D01*
X61024408Y-101446287D01*
X61148789Y-101746568D01*
X61329361Y-102016814D01*
X61559186Y-102246639D01*
X61829432Y-102427211D01*
X62129713Y-102551592D01*
X62448489Y-102615000D01*
X62773511Y-102615000D01*
X63092287Y-102551592D01*
X63246000Y-102487922D01*
X63399713Y-102551592D01*
X63718489Y-102615000D01*
X64043511Y-102615000D01*
X64362287Y-102551592D01*
X64662568Y-102427211D01*
X64932814Y-102246639D01*
X65162639Y-102016814D01*
X65343211Y-101746568D01*
X65467592Y-101446287D01*
X65531000Y-101127511D01*
X65531000Y-100802489D01*
X65467592Y-100483713D01*
X65403922Y-100330000D01*
X65467592Y-100176287D01*
X65531000Y-99857511D01*
X65531000Y-99532489D01*
X65467592Y-99213713D01*
X65343211Y-98913432D01*
X65162639Y-98643186D01*
X64932814Y-98413361D01*
X64662568Y-98232789D01*
X64400182Y-98124105D01*
X64362602Y-97935175D01*
X64238221Y-97634894D01*
X64057649Y-97364648D01*
X63827824Y-97134823D01*
X63557578Y-96954251D01*
X63257297Y-96829870D01*
X62938521Y-96766462D01*
X62613499Y-96766462D01*
X62294723Y-96829870D01*
X61994442Y-96954251D01*
X61724196Y-97134823D01*
X61494371Y-97364648D01*
X61313799Y-97634894D01*
X61189418Y-97935175D01*
X61126010Y-98253951D01*
X61126010Y-98578973D01*
X61189418Y-98897749D01*
X61248006Y-99039193D01*
X61189418Y-99180636D01*
X61126010Y-99499412D01*
X61126010Y-99824434D01*
X61186263Y-100127348D01*
X61148789Y-100183432D01*
X61024408Y-100483713D01*
X60961000Y-100802489D01*
X54863000Y-100802489D01*
X54799592Y-100483713D01*
X54735922Y-100330000D01*
X54799592Y-100176287D01*
X54863000Y-99857511D01*
X54863000Y-99532489D01*
X54799592Y-99213713D01*
X54675211Y-98913432D01*
X54494639Y-98643186D01*
X54264814Y-98413361D01*
X53994568Y-98232789D01*
X53694287Y-98108408D01*
X53556916Y-98081084D01*
X53529592Y-97943713D01*
X53405211Y-97643432D01*
X53224639Y-97373186D01*
X52994814Y-97143361D01*
X52724568Y-96962789D01*
X52424287Y-96838408D01*
X52105511Y-96775000D01*
X51780489Y-96775000D01*
X51461713Y-96838408D01*
X51161432Y-96962789D01*
X50891186Y-97143361D01*
X50661361Y-97373186D01*
X50480789Y-97643432D01*
X50356408Y-97943713D01*
X50293000Y-98262489D01*
X43371018Y-98262489D01*
X43326568Y-98232789D01*
X43026287Y-98108408D01*
X42888916Y-98081084D01*
X42861592Y-97943713D01*
X42737211Y-97643432D01*
X42556639Y-97373186D01*
X42326814Y-97143361D01*
X42056568Y-96962789D01*
X41756287Y-96838408D01*
X41437511Y-96775000D01*
X41112489Y-96775000D01*
X40793713Y-96838408D01*
X40493432Y-96962789D01*
X40223186Y-97143361D01*
X39993361Y-97373186D01*
X39812789Y-97643432D01*
X39688408Y-97943713D01*
X39625000Y-98262489D01*
X37944999Y-98262489D01*
X37944999Y-96103489D01*
X44901397Y-96103489D01*
X44901397Y-96428511D01*
X44964805Y-96747287D01*
X45089186Y-97047568D01*
X45269758Y-97317814D01*
X45499583Y-97547639D01*
X45769829Y-97728211D01*
X46070110Y-97852592D01*
X46388886Y-97916000D01*
X46713908Y-97916000D01*
X47032684Y-97852592D01*
X47332965Y-97728211D01*
X47603211Y-97547639D01*
X47833036Y-97317814D01*
X48013608Y-97047568D01*
X48137989Y-96747287D01*
X48201397Y-96428511D01*
X48201397Y-96103489D01*
X48137989Y-95784713D01*
X48059610Y-95595489D01*
X55569391Y-95595489D01*
X55569391Y-95920511D01*
X55632799Y-96239287D01*
X55757180Y-96539568D01*
X55937752Y-96809814D01*
X56167577Y-97039639D01*
X56437823Y-97220211D01*
X56738104Y-97344592D01*
X57056880Y-97408000D01*
X57381902Y-97408000D01*
X57700678Y-97344592D01*
X58000959Y-97220211D01*
X58271205Y-97039639D01*
X58501030Y-96809814D01*
X58681602Y-96539568D01*
X58805983Y-96239287D01*
X58869391Y-95920511D01*
X58869391Y-95595489D01*
X58805983Y-95276713D01*
X58681602Y-94976432D01*
X58534962Y-94756969D01*
X58701606Y-94507568D01*
X58825987Y-94207287D01*
X58889395Y-93888511D01*
X58889395Y-93563489D01*
X58825987Y-93244713D01*
X58701606Y-92944432D01*
X58521034Y-92674186D01*
X58291209Y-92444361D01*
X58020963Y-92263789D01*
X57720682Y-92139408D01*
X57401906Y-92076000D01*
X57076884Y-92076000D01*
X56758108Y-92139408D01*
X56457827Y-92263789D01*
X56187581Y-92444361D01*
X55957756Y-92674186D01*
X55777184Y-92944432D01*
X55652803Y-93244713D01*
X55589395Y-93563489D01*
X55589395Y-93888511D01*
X55652803Y-94207287D01*
X55777184Y-94507568D01*
X55923824Y-94727031D01*
X55757180Y-94976432D01*
X55632799Y-95276713D01*
X55569391Y-95595489D01*
X48059610Y-95595489D01*
X48013608Y-95484432D01*
X47985072Y-95441724D01*
X48033602Y-95369093D01*
X48157983Y-95068812D01*
X48221391Y-94750036D01*
X48221391Y-94425014D01*
X48157983Y-94106238D01*
X48033602Y-93805957D01*
X47928568Y-93648763D01*
X48033602Y-93491568D01*
X48157983Y-93191287D01*
X48221391Y-92872511D01*
X48221391Y-92547489D01*
X48157983Y-92228713D01*
X48033602Y-91928432D01*
X47853030Y-91658186D01*
X47623205Y-91428361D01*
X47352959Y-91247789D01*
X47052678Y-91123408D01*
X46733902Y-91060000D01*
X46408880Y-91060000D01*
X46090104Y-91123408D01*
X45789823Y-91247789D01*
X45519577Y-91428361D01*
X45289752Y-91658186D01*
X45109180Y-91928432D01*
X44984799Y-92228713D01*
X44921391Y-92547489D01*
X44921391Y-92872511D01*
X44984799Y-93191287D01*
X45109180Y-93491568D01*
X45214214Y-93648763D01*
X45109180Y-93805957D01*
X44984799Y-94106238D01*
X44921391Y-94425014D01*
X44921391Y-94750036D01*
X44984799Y-95068812D01*
X45109180Y-95369093D01*
X45137716Y-95411801D01*
X45089186Y-95484432D01*
X44964805Y-95784713D01*
X44901397Y-96103489D01*
X37944999Y-96103489D01*
X37944999Y-95081320D01*
X37951531Y-95015001D01*
X37944999Y-94948680D01*
X37925466Y-94750355D01*
X37851817Y-94507568D01*
X37848271Y-94495878D01*
X37722914Y-94261352D01*
X37596489Y-94107303D01*
X37596486Y-94107300D01*
X37554211Y-94055788D01*
X37502700Y-94013514D01*
X37185995Y-93696809D01*
X37146592Y-93498715D01*
X37022211Y-93198434D01*
X36841639Y-92928188D01*
X36817636Y-92904185D01*
X36902941Y-92868851D01*
X37173187Y-92688279D01*
X37403012Y-92458454D01*
X37583584Y-92188208D01*
X37707965Y-91887927D01*
X37771373Y-91569151D01*
X37771373Y-91244129D01*
X37707965Y-90925353D01*
X37583584Y-90625072D01*
X37403012Y-90354826D01*
X37173187Y-90125001D01*
X36902941Y-89944429D01*
X36602660Y-89820048D01*
X36283884Y-89756640D01*
X35958862Y-89756640D01*
X35640086Y-89820048D01*
X35339805Y-89944429D01*
X35069559Y-90125001D01*
X35033843Y-90160717D01*
X35039298Y-90147547D01*
X35120000Y-89741832D01*
X35120000Y-89328168D01*
X35039298Y-88922453D01*
X34880996Y-88540277D01*
X34697062Y-88265000D01*
X34880996Y-87989723D01*
X35039298Y-87607547D01*
X35120000Y-87201832D01*
X35120000Y-86788168D01*
X35039298Y-86382453D01*
X34880996Y-86000277D01*
X34697062Y-85725000D01*
X34880996Y-85449723D01*
X35039298Y-85067547D01*
X35120000Y-84661832D01*
X35120000Y-84248168D01*
X35039298Y-83842453D01*
X34880996Y-83460277D01*
X34697062Y-83185000D01*
X34880996Y-82909723D01*
X35039298Y-82527547D01*
X35120000Y-82121832D01*
X35120000Y-81708168D01*
X35039298Y-81302453D01*
X34880996Y-80920277D01*
X34697062Y-80645000D01*
X34880996Y-80369723D01*
X35039298Y-79987547D01*
X35120000Y-79581832D01*
X35120000Y-79168168D01*
X35039298Y-78762453D01*
X34880996Y-78380277D01*
X34697062Y-78105000D01*
X34880996Y-77829723D01*
X35039298Y-77447547D01*
X35120000Y-77041832D01*
X35120000Y-76628168D01*
X35039298Y-76222453D01*
X34880996Y-75840277D01*
X34651177Y-75496328D01*
X34358672Y-75203823D01*
X34014723Y-74974004D01*
X33632547Y-74815702D01*
X33226832Y-74735000D01*
X32813168Y-74735000D01*
X32407453Y-74815702D01*
X32025277Y-74974004D01*
X31681328Y-75203823D01*
X31388823Y-75496328D01*
X31159004Y-75840277D01*
X31000702Y-76222453D01*
X30920000Y-76628168D01*
X30920000Y-77041832D01*
X30977897Y-77332897D01*
X30686832Y-77275000D01*
X30273168Y-77275000D01*
X29867453Y-77355702D01*
X29485277Y-77514004D01*
X29141328Y-77743823D01*
X28848823Y-78036328D01*
X28619004Y-78380277D01*
X28460702Y-78762453D01*
X28380000Y-79168168D01*
X28380000Y-79581832D01*
X28460702Y-79987547D01*
X28619004Y-80369723D01*
X28802938Y-80645000D01*
X28619004Y-80920277D01*
X28460702Y-81302453D01*
X28380000Y-81708168D01*
X28380000Y-82121832D01*
X28460702Y-82527547D01*
X28619004Y-82909723D01*
X28802938Y-83185000D01*
X28619004Y-83460277D01*
X28460702Y-83842453D01*
X28380000Y-84248168D01*
X28380000Y-84661832D01*
X28460702Y-85067547D01*
X28619004Y-85449723D01*
X28802938Y-85725000D01*
X28619004Y-86000277D01*
X28460702Y-86382453D01*
X28380000Y-86788168D01*
X28380000Y-87201832D01*
X28460702Y-87607547D01*
X28619004Y-87989723D01*
X28802938Y-88265000D01*
X28619004Y-88540277D01*
X28460702Y-88922453D01*
X28380000Y-89328168D01*
X28380000Y-89741832D01*
X28460702Y-90147547D01*
X28619004Y-90529723D01*
X28802938Y-90805000D01*
X28619004Y-91080277D01*
X28460702Y-91462453D01*
X28380000Y-91868168D01*
X28380000Y-92281832D01*
X28460702Y-92687547D01*
X28619004Y-93069723D01*
X28802938Y-93345000D01*
X28619004Y-93620277D01*
X28460702Y-94002453D01*
X28380000Y-94408168D01*
X28380000Y-94821832D01*
X28460702Y-95227547D01*
X28619004Y-95609723D01*
X28848823Y-95953672D01*
X29141328Y-96246177D01*
X29485277Y-96475996D01*
X29867453Y-96634298D01*
X30273168Y-96715000D01*
X30686832Y-96715000D01*
X30977897Y-96657103D01*
X30920000Y-96948168D01*
X30920000Y-97361832D01*
X30977897Y-97652897D01*
X30686832Y-97595000D01*
X30273168Y-97595000D01*
X29867453Y-97675702D01*
X29485277Y-97834004D01*
X29141328Y-98063823D01*
X28848823Y-98356328D01*
X28619004Y-98700277D01*
X28460702Y-99082453D01*
X28380000Y-99488168D01*
X28380000Y-99901832D01*
X28460702Y-100307547D01*
X28619004Y-100689723D01*
X28802938Y-100965000D01*
X28619004Y-101240277D01*
X28460702Y-101622453D01*
X28380000Y-102028168D01*
X28380000Y-102441832D01*
X28460702Y-102847547D01*
X28619004Y-103229723D01*
X28802938Y-103505000D01*
X28619004Y-103780277D01*
X28460702Y-104162453D01*
X28380000Y-104568168D01*
X28380000Y-104981832D01*
X28460702Y-105387547D01*
X28619004Y-105769723D01*
X28802938Y-106045000D01*
X28619004Y-106320277D01*
X28460702Y-106702453D01*
X28380000Y-107108168D01*
X28380000Y-107521832D01*
X28460702Y-107927547D01*
X28619004Y-108309723D01*
X28802938Y-108585000D01*
X28619004Y-108860277D01*
X28460702Y-109242453D01*
X28380000Y-109648168D01*
X28380000Y-110061832D01*
X28460702Y-110467547D01*
X28619004Y-110849723D01*
X28802938Y-111125000D01*
X28619004Y-111400277D01*
X28460702Y-111782453D01*
X28380000Y-112188168D01*
X28380000Y-112601832D01*
X28460702Y-113007547D01*
X28619004Y-113389723D01*
X28802938Y-113665000D01*
X28619004Y-113940277D01*
X28460702Y-114322453D01*
X28380000Y-114728168D01*
X28380000Y-115141832D01*
X28460702Y-115547547D01*
X28619004Y-115929723D01*
X28802938Y-116205000D01*
X28619004Y-116480277D01*
X28460702Y-116862453D01*
X28380000Y-117268168D01*
X28380000Y-117681832D01*
X28460702Y-118087547D01*
X28619004Y-118469723D01*
X28802938Y-118745000D01*
X28619004Y-119020277D01*
X28460702Y-119402453D01*
X28380000Y-119808168D01*
X28380000Y-120221832D01*
X28460702Y-120627547D01*
X28619004Y-121009723D01*
X28802938Y-121285000D01*
X28619004Y-121560277D01*
X28460702Y-121942453D01*
X28380000Y-122348168D01*
X28380000Y-122761832D01*
X28460702Y-123167547D01*
X28619004Y-123549723D01*
X28802938Y-123825000D01*
X28619004Y-124100277D01*
X28460702Y-124482453D01*
X28380000Y-124888168D01*
X28380000Y-125301832D01*
X28460702Y-125707547D01*
X28619004Y-126089723D01*
X28848823Y-126433672D01*
X29141328Y-126726177D01*
X29176982Y-126750000D01*
X6600000Y-126750000D01*
X6600000Y-120487489D01*
X7240000Y-120487489D01*
X7240000Y-120812511D01*
X7303408Y-121131287D01*
X7427789Y-121431568D01*
X7608361Y-121701814D01*
X7838186Y-121931639D01*
X8108432Y-122112211D01*
X8408713Y-122236592D01*
X8727489Y-122300000D01*
X9052511Y-122300000D01*
X9371287Y-122236592D01*
X9671568Y-122112211D01*
X9941814Y-121931639D01*
X10171639Y-121701814D01*
X10352211Y-121431568D01*
X10476592Y-121131287D01*
X10540000Y-120812511D01*
X10540000Y-120487489D01*
X10504298Y-120308000D01*
X13641952Y-120308000D01*
X13641952Y-122008000D01*
X13666087Y-122253043D01*
X13737563Y-122488669D01*
X13853634Y-122705823D01*
X14009840Y-122896160D01*
X14200177Y-123052366D01*
X14417331Y-123168437D01*
X14652957Y-123239913D01*
X14898000Y-123264048D01*
X16598000Y-123264048D01*
X16843043Y-123239913D01*
X17078669Y-123168437D01*
X17295823Y-123052366D01*
X17321992Y-123030890D01*
X17675453Y-123177298D01*
X18081168Y-123258000D01*
X18494832Y-123258000D01*
X18900547Y-123177298D01*
X19282723Y-123018996D01*
X19558000Y-122835062D01*
X19833277Y-123018996D01*
X20215453Y-123177298D01*
X20621168Y-123258000D01*
X21034832Y-123258000D01*
X21440547Y-123177298D01*
X21822723Y-123018996D01*
X22166672Y-122789177D01*
X22459177Y-122496672D01*
X22688996Y-122152723D01*
X22847298Y-121770547D01*
X22928000Y-121364832D01*
X22928000Y-120951168D01*
X22847298Y-120545453D01*
X22688996Y-120163277D01*
X22505062Y-119888000D01*
X22688996Y-119612723D01*
X22847298Y-119230547D01*
X22928000Y-118824832D01*
X22928000Y-118411168D01*
X22847298Y-118005453D01*
X22688996Y-117623277D01*
X22459177Y-117279328D01*
X22166672Y-116986823D01*
X21822723Y-116757004D01*
X21440547Y-116598702D01*
X21034832Y-116518000D01*
X20621168Y-116518000D01*
X20215453Y-116598702D01*
X19833277Y-116757004D01*
X19558000Y-116940938D01*
X19282723Y-116757004D01*
X18900547Y-116598702D01*
X18494832Y-116518000D01*
X18081168Y-116518000D01*
X17675453Y-116598702D01*
X17293277Y-116757004D01*
X17018000Y-116940938D01*
X16742723Y-116757004D01*
X16360547Y-116598702D01*
X15954832Y-116518000D01*
X15541168Y-116518000D01*
X15135453Y-116598702D01*
X14753277Y-116757004D01*
X14409328Y-116986823D01*
X14116823Y-117279328D01*
X13887004Y-117623277D01*
X13728702Y-118005453D01*
X13648000Y-118411168D01*
X13648000Y-118824832D01*
X13728702Y-119230547D01*
X13875110Y-119584008D01*
X13853634Y-119610177D01*
X13737563Y-119827331D01*
X13666087Y-120062957D01*
X13641952Y-120308000D01*
X10504298Y-120308000D01*
X10476592Y-120168713D01*
X10352211Y-119868432D01*
X10171639Y-119598186D01*
X9941814Y-119368361D01*
X9671568Y-119187789D01*
X9371287Y-119063408D01*
X9052511Y-119000000D01*
X8727489Y-119000000D01*
X8408713Y-119063408D01*
X8108432Y-119187789D01*
X7838186Y-119368361D01*
X7608361Y-119598186D01*
X7427789Y-119868432D01*
X7303408Y-120168713D01*
X7240000Y-120487489D01*
X6600000Y-120487489D01*
X6600000Y-107787489D01*
X9780000Y-107787489D01*
X9780000Y-108112511D01*
X9843408Y-108431287D01*
X9967789Y-108731568D01*
X10148361Y-109001814D01*
X10378186Y-109231639D01*
X10648432Y-109412211D01*
X10948713Y-109536592D01*
X11267489Y-109600000D01*
X11592511Y-109600000D01*
X11911287Y-109536592D01*
X12211568Y-109412211D01*
X12481814Y-109231639D01*
X12711639Y-109001814D01*
X12892211Y-108731568D01*
X13016592Y-108431287D01*
X13080000Y-108112511D01*
X13080000Y-107787489D01*
X13016592Y-107468713D01*
X12892211Y-107168432D01*
X12711639Y-106898186D01*
X12583452Y-106769999D01*
X13133952Y-106769999D01*
X13133952Y-108469999D01*
X13158087Y-108715042D01*
X13229563Y-108950668D01*
X13345634Y-109167822D01*
X13501840Y-109358159D01*
X13692177Y-109514365D01*
X13909331Y-109630436D01*
X14144957Y-109701912D01*
X14390000Y-109726047D01*
X16090000Y-109726047D01*
X16335043Y-109701912D01*
X16570669Y-109630436D01*
X16787823Y-109514365D01*
X16978160Y-109358159D01*
X17134366Y-109167822D01*
X17250437Y-108950668D01*
X17321913Y-108715042D01*
X17346048Y-108469999D01*
X17346048Y-107413167D01*
X18220000Y-107413167D01*
X18220000Y-107826831D01*
X18300702Y-108232546D01*
X18459004Y-108614722D01*
X18688823Y-108958671D01*
X18981328Y-109251176D01*
X19325277Y-109480995D01*
X19707453Y-109639297D01*
X20113168Y-109719999D01*
X20526832Y-109719999D01*
X20932547Y-109639297D01*
X21314723Y-109480995D01*
X21590000Y-109297061D01*
X21865277Y-109480995D01*
X22247453Y-109639297D01*
X22653168Y-109719999D01*
X23066832Y-109719999D01*
X23472547Y-109639297D01*
X23854723Y-109480995D01*
X24198672Y-109251176D01*
X24491177Y-108958671D01*
X24720996Y-108614722D01*
X24879298Y-108232546D01*
X24960000Y-107826831D01*
X24960000Y-107413167D01*
X24879298Y-107007452D01*
X24720996Y-106625276D01*
X24491177Y-106281327D01*
X24198672Y-105988822D01*
X23854723Y-105759003D01*
X23472547Y-105600701D01*
X23066832Y-105519999D01*
X22653168Y-105519999D01*
X22247453Y-105600701D01*
X21865277Y-105759003D01*
X21590000Y-105942937D01*
X21314723Y-105759003D01*
X20932547Y-105600701D01*
X20526832Y-105519999D01*
X20113168Y-105519999D01*
X19707453Y-105600701D01*
X19325277Y-105759003D01*
X18981328Y-105988822D01*
X18688823Y-106281327D01*
X18459004Y-106625276D01*
X18300702Y-107007452D01*
X18220000Y-107413167D01*
X17346048Y-107413167D01*
X17346048Y-106769999D01*
X17321913Y-106524956D01*
X17250437Y-106289330D01*
X17134366Y-106072176D01*
X16978160Y-105881839D01*
X16787823Y-105725633D01*
X16570669Y-105609562D01*
X16335043Y-105538086D01*
X16090000Y-105513951D01*
X14390000Y-105513951D01*
X14144957Y-105538086D01*
X13909331Y-105609562D01*
X13692177Y-105725633D01*
X13501840Y-105881839D01*
X13345634Y-106072176D01*
X13229563Y-106289330D01*
X13158087Y-106524956D01*
X13133952Y-106769999D01*
X12583452Y-106769999D01*
X12481814Y-106668361D01*
X12211568Y-106487789D01*
X11911287Y-106363408D01*
X11592511Y-106300000D01*
X11267489Y-106300000D01*
X10948713Y-106363408D01*
X10648432Y-106487789D01*
X10378186Y-106668361D01*
X10148361Y-106898186D01*
X9967789Y-107168432D01*
X9843408Y-107468713D01*
X9780000Y-107787489D01*
X6600000Y-107787489D01*
X6600000Y-95722489D01*
X9780000Y-95722489D01*
X9780000Y-96047511D01*
X9843408Y-96366287D01*
X9967789Y-96666568D01*
X10148361Y-96936814D01*
X10378186Y-97166639D01*
X10648432Y-97347211D01*
X10948713Y-97471592D01*
X11267489Y-97535000D01*
X11592511Y-97535000D01*
X11911287Y-97471592D01*
X12211568Y-97347211D01*
X12481814Y-97166639D01*
X12711639Y-96936814D01*
X12892211Y-96666568D01*
X13016592Y-96366287D01*
X13080000Y-96047511D01*
X13080000Y-95722489D01*
X13016592Y-95403713D01*
X12892211Y-95103432D01*
X12711639Y-94833186D01*
X12583452Y-94704999D01*
X13133952Y-94704999D01*
X13133952Y-96404999D01*
X13158087Y-96650042D01*
X13229563Y-96885668D01*
X13345634Y-97102822D01*
X13501840Y-97293159D01*
X13692177Y-97449365D01*
X13909331Y-97565436D01*
X14144957Y-97636912D01*
X14390000Y-97661047D01*
X16090000Y-97661047D01*
X16335043Y-97636912D01*
X16570669Y-97565436D01*
X16787823Y-97449365D01*
X16978160Y-97293159D01*
X17134366Y-97102822D01*
X17250437Y-96885668D01*
X17321913Y-96650042D01*
X17346048Y-96404999D01*
X17346048Y-95348167D01*
X18220000Y-95348167D01*
X18220000Y-95761831D01*
X18300702Y-96167546D01*
X18459004Y-96549722D01*
X18688823Y-96893671D01*
X18981328Y-97186176D01*
X19127621Y-97283926D01*
X19038361Y-97373186D01*
X18857789Y-97643432D01*
X18733408Y-97943713D01*
X18670000Y-98262489D01*
X18670000Y-98587511D01*
X18733408Y-98906287D01*
X18857789Y-99206568D01*
X19038361Y-99476814D01*
X19268186Y-99706639D01*
X19538432Y-99887211D01*
X19838713Y-100011592D01*
X20157489Y-100075000D01*
X20482511Y-100075000D01*
X20801287Y-100011592D01*
X21101568Y-99887211D01*
X21371814Y-99706639D01*
X21601639Y-99476814D01*
X21782211Y-99206568D01*
X21831617Y-99087291D01*
X22078432Y-99252207D01*
X22378713Y-99376588D01*
X22697489Y-99439996D01*
X23022511Y-99439996D01*
X23341287Y-99376588D01*
X23641568Y-99252207D01*
X23911814Y-99071635D01*
X24141639Y-98841810D01*
X24322211Y-98571564D01*
X24446592Y-98271283D01*
X24510000Y-97952507D01*
X24510000Y-97627485D01*
X24446592Y-97308709D01*
X24338088Y-97046760D01*
X24491177Y-96893671D01*
X24720996Y-96549722D01*
X24879298Y-96167546D01*
X24960000Y-95761831D01*
X24960000Y-95348167D01*
X24879298Y-94942452D01*
X24720996Y-94560276D01*
X24491177Y-94216327D01*
X24198672Y-93923822D01*
X23854723Y-93694003D01*
X23472547Y-93535701D01*
X23066832Y-93454999D01*
X22653168Y-93454999D01*
X22247453Y-93535701D01*
X21865277Y-93694003D01*
X21590000Y-93877937D01*
X21314723Y-93694003D01*
X20932547Y-93535701D01*
X20526832Y-93454999D01*
X20113168Y-93454999D01*
X19707453Y-93535701D01*
X19325277Y-93694003D01*
X18981328Y-93923822D01*
X18688823Y-94216327D01*
X18459004Y-94560276D01*
X18300702Y-94942452D01*
X18220000Y-95348167D01*
X17346048Y-95348167D01*
X17346048Y-94704999D01*
X17321913Y-94459956D01*
X17250437Y-94224330D01*
X17134366Y-94007176D01*
X16978160Y-93816839D01*
X16787823Y-93660633D01*
X16570669Y-93544562D01*
X16335043Y-93473086D01*
X16090000Y-93448951D01*
X14390000Y-93448951D01*
X14144957Y-93473086D01*
X13909331Y-93544562D01*
X13692177Y-93660633D01*
X13501840Y-93816839D01*
X13345634Y-94007176D01*
X13229563Y-94224330D01*
X13158087Y-94459956D01*
X13133952Y-94704999D01*
X12583452Y-94704999D01*
X12481814Y-94603361D01*
X12211568Y-94422789D01*
X11911287Y-94298408D01*
X11592511Y-94235000D01*
X11267489Y-94235000D01*
X10948713Y-94298408D01*
X10648432Y-94422789D01*
X10378186Y-94603361D01*
X10148361Y-94833186D01*
X9967789Y-95103432D01*
X9843408Y-95403713D01*
X9780000Y-95722489D01*
X6600000Y-95722489D01*
X6600000Y-82978168D01*
X18220000Y-82978168D01*
X18220000Y-83391832D01*
X18300702Y-83797547D01*
X18459004Y-84179723D01*
X18688823Y-84523672D01*
X18981328Y-84816177D01*
X19325277Y-85045996D01*
X19707453Y-85204298D01*
X20113168Y-85285000D01*
X20526832Y-85285000D01*
X20932547Y-85204298D01*
X21314723Y-85045996D01*
X21590000Y-84862062D01*
X21865277Y-85045996D01*
X22247453Y-85204298D01*
X22653168Y-85285000D01*
X23066832Y-85285000D01*
X23472547Y-85204298D01*
X23854723Y-85045996D01*
X24130000Y-84862062D01*
X24405277Y-85045996D01*
X24787453Y-85204298D01*
X25193168Y-85285000D01*
X25606832Y-85285000D01*
X26012547Y-85204298D01*
X26394723Y-85045996D01*
X26738672Y-84816177D01*
X27031177Y-84523672D01*
X27260996Y-84179723D01*
X27419298Y-83797547D01*
X27500000Y-83391832D01*
X27500000Y-82978168D01*
X27419298Y-82572453D01*
X27260996Y-82190277D01*
X27031177Y-81846328D01*
X26738672Y-81553823D01*
X26394723Y-81324004D01*
X26012547Y-81165702D01*
X25606832Y-81085000D01*
X25193168Y-81085000D01*
X24787453Y-81165702D01*
X24405277Y-81324004D01*
X24130000Y-81507938D01*
X23854723Y-81324004D01*
X23472547Y-81165702D01*
X23066832Y-81085000D01*
X22653168Y-81085000D01*
X22247453Y-81165702D01*
X21865277Y-81324004D01*
X21590000Y-81507938D01*
X21314723Y-81324004D01*
X20932547Y-81165702D01*
X20526832Y-81085000D01*
X20113168Y-81085000D01*
X19707453Y-81165702D01*
X19325277Y-81324004D01*
X18981328Y-81553823D01*
X18688823Y-81846328D01*
X18459004Y-82190277D01*
X18300702Y-82572453D01*
X18220000Y-82978168D01*
X6600000Y-82978168D01*
X6600000Y-73910000D01*
X9302427Y-73910000D01*
X9069312Y-74101312D01*
%TA.AperFunction,Conductor*%
D17*
G36*
X9069312Y-74101312D02*
G01*
X8788142Y-74443919D01*
X8579214Y-74834797D01*
X8450556Y-75258924D01*
X8418000Y-75589473D01*
X8418000Y-76810528D01*
X8450556Y-77141077D01*
X8579214Y-77565204D01*
X8788143Y-77956081D01*
X9069313Y-78298688D01*
X9411920Y-78579858D01*
X9802797Y-78788786D01*
X10226924Y-78917444D01*
X10668000Y-78960886D01*
X11109077Y-78917444D01*
X11533204Y-78788786D01*
X11924081Y-78579858D01*
X12266688Y-78298688D01*
X12547858Y-77956081D01*
X12573000Y-77909043D01*
X12598143Y-77956081D01*
X12879313Y-78298688D01*
X13221920Y-78579858D01*
X13612797Y-78788786D01*
X14036924Y-78917444D01*
X14478000Y-78960886D01*
X14919077Y-78917444D01*
X15343204Y-78788786D01*
X15734081Y-78579858D01*
X16076688Y-78298688D01*
X16357858Y-77956081D01*
X16383000Y-77909043D01*
X16408143Y-77956081D01*
X16689313Y-78298688D01*
X17031920Y-78579858D01*
X17422797Y-78788786D01*
X17846924Y-78917444D01*
X18288000Y-78960886D01*
X18729077Y-78917444D01*
X19153204Y-78788786D01*
X19544081Y-78579858D01*
X19886688Y-78298688D01*
X20167858Y-77956081D01*
X20193000Y-77909043D01*
X20218143Y-77956081D01*
X20499313Y-78298688D01*
X20841920Y-78579858D01*
X21232797Y-78788786D01*
X21656924Y-78917444D01*
X22098000Y-78960886D01*
X22539077Y-78917444D01*
X22963204Y-78788786D01*
X23354081Y-78579858D01*
X23696688Y-78298688D01*
X23977858Y-77956081D01*
X24003000Y-77909043D01*
X24028143Y-77956081D01*
X24309313Y-78298688D01*
X24651920Y-78579858D01*
X25042797Y-78788786D01*
X25466924Y-78917444D01*
X25908000Y-78960886D01*
X26349077Y-78917444D01*
X26773204Y-78788786D01*
X27164081Y-78579858D01*
X27506688Y-78298688D01*
X27787858Y-77956081D01*
X27996786Y-77565203D01*
X28125444Y-77141076D01*
X28158000Y-76810527D01*
X28158000Y-75589472D01*
X28125444Y-75258923D01*
X27996786Y-74834796D01*
X27787858Y-74443919D01*
X27506688Y-74101312D01*
X27273573Y-73910000D01*
X46259427Y-73910000D01*
X46026312Y-74101312D01*
X45745142Y-74443919D01*
X45536214Y-74834797D01*
X45407556Y-75258924D01*
X45375000Y-75589473D01*
X45375000Y-76810528D01*
X45407556Y-77141077D01*
X45536214Y-77565204D01*
X45745143Y-77956081D01*
X46026313Y-78298688D01*
X46368920Y-78579858D01*
X46759797Y-78788786D01*
X47183924Y-78917444D01*
X47625000Y-78960886D01*
X48066077Y-78917444D01*
X48490204Y-78788786D01*
X48881081Y-78579858D01*
X49223688Y-78298688D01*
X49504858Y-77956081D01*
X49530000Y-77909043D01*
X49555143Y-77956081D01*
X49836313Y-78298688D01*
X50178920Y-78579858D01*
X50569797Y-78788786D01*
X50993924Y-78917444D01*
X51435000Y-78960886D01*
X51876077Y-78917444D01*
X52300204Y-78788786D01*
X52691081Y-78579858D01*
X53033688Y-78298688D01*
X53314858Y-77956081D01*
X53340000Y-77909043D01*
X53365143Y-77956081D01*
X53646313Y-78298688D01*
X53988920Y-78579858D01*
X54379797Y-78788786D01*
X54803924Y-78917444D01*
X55245000Y-78960886D01*
X55686077Y-78917444D01*
X56110204Y-78788786D01*
X56501081Y-78579858D01*
X56843688Y-78298688D01*
X57124858Y-77956081D01*
X57150000Y-77909043D01*
X57175143Y-77956081D01*
X57456313Y-78298688D01*
X57798920Y-78579858D01*
X58189797Y-78788786D01*
X58613924Y-78917444D01*
X59055000Y-78960886D01*
X59496077Y-78917444D01*
X59920204Y-78788786D01*
X60311081Y-78579858D01*
X60653688Y-78298688D01*
X60934858Y-77956081D01*
X60960000Y-77909043D01*
X60985143Y-77956081D01*
X61266313Y-78298688D01*
X61608920Y-78579858D01*
X61999797Y-78788786D01*
X62423924Y-78917444D01*
X62865000Y-78960886D01*
X63306077Y-78917444D01*
X63730204Y-78788786D01*
X64121081Y-78579858D01*
X64463688Y-78298688D01*
X64744858Y-77956081D01*
X64770000Y-77909043D01*
X64795143Y-77956081D01*
X65076313Y-78298688D01*
X65418920Y-78579858D01*
X65809797Y-78788786D01*
X66233924Y-78917444D01*
X66675000Y-78960886D01*
X67116077Y-78917444D01*
X67540204Y-78788786D01*
X67931081Y-78579858D01*
X68273688Y-78298688D01*
X68554858Y-77956081D01*
X68580000Y-77909043D01*
X68605143Y-77956081D01*
X68886313Y-78298688D01*
X69228920Y-78579858D01*
X69619797Y-78788786D01*
X70043924Y-78917444D01*
X70485000Y-78960886D01*
X70926077Y-78917444D01*
X71350204Y-78788786D01*
X71741081Y-78579858D01*
X72083688Y-78298688D01*
X72364858Y-77956081D01*
X72390000Y-77909043D01*
X72415143Y-77956081D01*
X72696313Y-78298688D01*
X73038920Y-78579858D01*
X73429797Y-78788786D01*
X73853924Y-78917444D01*
X74295000Y-78960886D01*
X74736077Y-78917444D01*
X75160204Y-78788786D01*
X75551081Y-78579858D01*
X75893688Y-78298688D01*
X76174858Y-77956081D01*
X76200000Y-77909043D01*
X76225143Y-77956081D01*
X76506313Y-78298688D01*
X76848920Y-78579858D01*
X77239797Y-78788786D01*
X77663924Y-78917444D01*
X78105000Y-78960886D01*
X78546077Y-78917444D01*
X78970204Y-78788786D01*
X79361081Y-78579858D01*
X79703688Y-78298688D01*
X79984858Y-77956081D01*
X80010000Y-77909043D01*
X80035143Y-77956081D01*
X80316313Y-78298688D01*
X80658920Y-78579858D01*
X81049797Y-78788786D01*
X81473924Y-78917444D01*
X81915000Y-78960886D01*
X82356077Y-78917444D01*
X82780204Y-78788786D01*
X83171081Y-78579858D01*
X83513688Y-78298688D01*
X83794858Y-77956081D01*
X83820000Y-77909043D01*
X83845143Y-77956081D01*
X84126313Y-78298688D01*
X84468920Y-78579858D01*
X84859797Y-78788786D01*
X85283924Y-78917444D01*
X85725000Y-78960886D01*
X86166077Y-78917444D01*
X86590204Y-78788786D01*
X86981081Y-78579858D01*
X87323688Y-78298688D01*
X87604858Y-77956081D01*
X87630000Y-77909043D01*
X87655143Y-77956081D01*
X87936313Y-78298688D01*
X88278920Y-78579858D01*
X88669797Y-78788786D01*
X89093924Y-78917444D01*
X89535000Y-78960886D01*
X89976077Y-78917444D01*
X90400204Y-78788786D01*
X90791081Y-78579858D01*
X91133688Y-78298688D01*
X91414858Y-77956081D01*
X91623786Y-77565203D01*
X91752444Y-77141076D01*
X91785000Y-76810527D01*
X91785000Y-75589472D01*
X91752444Y-75258923D01*
X91623786Y-74834796D01*
X91414858Y-74443919D01*
X91133688Y-74101312D01*
X90900573Y-73910000D01*
X98810000Y-73910000D01*
X98810000Y-126750000D01*
X34323018Y-126750000D01*
X34358672Y-126726177D01*
X34651177Y-126433672D01*
X34880996Y-126089723D01*
X35039298Y-125707547D01*
X35120000Y-125301832D01*
X35120000Y-124888168D01*
X35039298Y-124482453D01*
X34880996Y-124100277D01*
X34697062Y-123825000D01*
X34880996Y-123549723D01*
X35039298Y-123167547D01*
X35120000Y-122761832D01*
X35120000Y-122348168D01*
X35039298Y-121942453D01*
X34880996Y-121560277D01*
X34697062Y-121285000D01*
X34880996Y-121009723D01*
X35039298Y-120627547D01*
X35120000Y-120221832D01*
X35120000Y-119808168D01*
X35039298Y-119402453D01*
X34880996Y-119020277D01*
X34697062Y-118745000D01*
X34880996Y-118469723D01*
X35039298Y-118087547D01*
X35120000Y-117681832D01*
X35120000Y-117312489D01*
X39625000Y-117312489D01*
X39625000Y-117637511D01*
X39688408Y-117956287D01*
X39752078Y-118110000D01*
X39688408Y-118263713D01*
X39625000Y-118582489D01*
X39625000Y-118907511D01*
X39688408Y-119226287D01*
X39752078Y-119380000D01*
X39688408Y-119533713D01*
X39625000Y-119852489D01*
X39625000Y-120177511D01*
X39688408Y-120496287D01*
X39812789Y-120796568D01*
X39993361Y-121066814D01*
X40223186Y-121296639D01*
X40493432Y-121477211D01*
X40793713Y-121601592D01*
X41112489Y-121665000D01*
X41437511Y-121665000D01*
X41756287Y-121601592D01*
X41910000Y-121537922D01*
X42063713Y-121601592D01*
X42382489Y-121665000D01*
X42707511Y-121665000D01*
X43026287Y-121601592D01*
X43326568Y-121477211D01*
X43596814Y-121296639D01*
X43826639Y-121066814D01*
X44007211Y-120796568D01*
X44131592Y-120496287D01*
X44195000Y-120177511D01*
X44195000Y-119852489D01*
X44131592Y-119533713D01*
X44067922Y-119380000D01*
X44131592Y-119226287D01*
X44195000Y-118907511D01*
X44195000Y-118582489D01*
X44131592Y-118263713D01*
X44067922Y-118110000D01*
X44131592Y-117956287D01*
X44195000Y-117637511D01*
X44195000Y-117312489D01*
X50293000Y-117312489D01*
X50293000Y-117637511D01*
X50356408Y-117956287D01*
X50420078Y-118110000D01*
X50356408Y-118263713D01*
X50293000Y-118582489D01*
X50293000Y-118907511D01*
X50356408Y-119226287D01*
X50420078Y-119380000D01*
X50356408Y-119533713D01*
X50293000Y-119852489D01*
X50293000Y-120177511D01*
X50356408Y-120496287D01*
X50480789Y-120796568D01*
X50661361Y-121066814D01*
X50891186Y-121296639D01*
X51161432Y-121477211D01*
X51461713Y-121601592D01*
X51780489Y-121665000D01*
X52105511Y-121665000D01*
X52424287Y-121601592D01*
X52578000Y-121537922D01*
X52731713Y-121601592D01*
X53050489Y-121665000D01*
X53375511Y-121665000D01*
X53694287Y-121601592D01*
X53994568Y-121477211D01*
X54264814Y-121296639D01*
X54494639Y-121066814D01*
X54675211Y-120796568D01*
X54799592Y-120496287D01*
X54863000Y-120177511D01*
X54863000Y-119852489D01*
X54799592Y-119533713D01*
X54735922Y-119380000D01*
X54799592Y-119226287D01*
X54863000Y-118907511D01*
X54863000Y-118582489D01*
X54799592Y-118263713D01*
X54735922Y-118110000D01*
X54799592Y-117956287D01*
X54863000Y-117637511D01*
X54863000Y-117312489D01*
X60961000Y-117312489D01*
X60961000Y-117637511D01*
X61024408Y-117956287D01*
X61088078Y-118110000D01*
X61024408Y-118263713D01*
X60961000Y-118582489D01*
X60961000Y-118907511D01*
X61024408Y-119226287D01*
X61088078Y-119380000D01*
X61024408Y-119533713D01*
X60961000Y-119852489D01*
X60961000Y-120177511D01*
X61024408Y-120496287D01*
X61148789Y-120796568D01*
X61329361Y-121066814D01*
X61559186Y-121296639D01*
X61829432Y-121477211D01*
X62129713Y-121601592D01*
X62448489Y-121665000D01*
X62773511Y-121665000D01*
X63092287Y-121601592D01*
X63246000Y-121537922D01*
X63399713Y-121601592D01*
X63718489Y-121665000D01*
X64043511Y-121665000D01*
X64362287Y-121601592D01*
X64662568Y-121477211D01*
X64932814Y-121296639D01*
X65162639Y-121066814D01*
X65343211Y-120796568D01*
X65467592Y-120496287D01*
X65531000Y-120177511D01*
X65531000Y-119852489D01*
X65467592Y-119533713D01*
X65403922Y-119380000D01*
X65467592Y-119226287D01*
X65531000Y-118907511D01*
X65531000Y-118582489D01*
X65467592Y-118263713D01*
X65403922Y-118110000D01*
X65467592Y-117956287D01*
X65531000Y-117637511D01*
X65531000Y-117312489D01*
X71629000Y-117312489D01*
X71629000Y-117637511D01*
X71692408Y-117956287D01*
X71756078Y-118110000D01*
X71692408Y-118263713D01*
X71629000Y-118582489D01*
X71629000Y-118907511D01*
X71692408Y-119226287D01*
X71756078Y-119380000D01*
X71692408Y-119533713D01*
X71629000Y-119852489D01*
X71629000Y-120177511D01*
X71692408Y-120496287D01*
X71816789Y-120796568D01*
X71997361Y-121066814D01*
X72227186Y-121296639D01*
X72497432Y-121477211D01*
X72797713Y-121601592D01*
X73116489Y-121665000D01*
X73441511Y-121665000D01*
X73760287Y-121601592D01*
X73914000Y-121537922D01*
X74067713Y-121601592D01*
X74386489Y-121665000D01*
X74711511Y-121665000D01*
X75030287Y-121601592D01*
X75330568Y-121477211D01*
X75600814Y-121296639D01*
X75830639Y-121066814D01*
X76011211Y-120796568D01*
X76135592Y-120496287D01*
X76199000Y-120177511D01*
X76199000Y-119852489D01*
X76135592Y-119533713D01*
X76071922Y-119380000D01*
X76135592Y-119226287D01*
X76199000Y-118907511D01*
X76199000Y-118582489D01*
X76135592Y-118263713D01*
X76071922Y-118110000D01*
X76135592Y-117956287D01*
X76199000Y-117637511D01*
X76199000Y-117312489D01*
X82297000Y-117312489D01*
X82297000Y-117637511D01*
X82360408Y-117956287D01*
X82424078Y-118110000D01*
X82360408Y-118263713D01*
X82297000Y-118582489D01*
X82297000Y-118907511D01*
X82360408Y-119226287D01*
X82424078Y-119380000D01*
X82360408Y-119533713D01*
X82297000Y-119852489D01*
X82297000Y-120177511D01*
X82360408Y-120496287D01*
X82484789Y-120796568D01*
X82665361Y-121066814D01*
X82895186Y-121296639D01*
X83165432Y-121477211D01*
X83465713Y-121601592D01*
X83784489Y-121665000D01*
X84109511Y-121665000D01*
X84428287Y-121601592D01*
X84582000Y-121537922D01*
X84735713Y-121601592D01*
X85054489Y-121665000D01*
X85379511Y-121665000D01*
X85698287Y-121601592D01*
X85998568Y-121477211D01*
X86268814Y-121296639D01*
X86498639Y-121066814D01*
X86679211Y-120796568D01*
X86803592Y-120496287D01*
X86867000Y-120177511D01*
X86867000Y-119852489D01*
X86803592Y-119533713D01*
X86739922Y-119380000D01*
X86803592Y-119226287D01*
X86867000Y-118907511D01*
X86867000Y-118582489D01*
X86803592Y-118263713D01*
X86739922Y-118110000D01*
X86803592Y-117956287D01*
X86867000Y-117637511D01*
X86867000Y-117312489D01*
X92965000Y-117312489D01*
X92965000Y-117637511D01*
X93028408Y-117956287D01*
X93092078Y-118110000D01*
X93028408Y-118263713D01*
X92965000Y-118582489D01*
X92965000Y-118907511D01*
X93028408Y-119226287D01*
X93092078Y-119380000D01*
X93028408Y-119533713D01*
X92965000Y-119852489D01*
X92965000Y-120177511D01*
X93028408Y-120496287D01*
X93152789Y-120796568D01*
X93333361Y-121066814D01*
X93563186Y-121296639D01*
X93833432Y-121477211D01*
X94133713Y-121601592D01*
X94452489Y-121665000D01*
X94777511Y-121665000D01*
X95096287Y-121601592D01*
X95250000Y-121537922D01*
X95403713Y-121601592D01*
X95722489Y-121665000D01*
X96047511Y-121665000D01*
X96366287Y-121601592D01*
X96666568Y-121477211D01*
X96936814Y-121296639D01*
X97166639Y-121066814D01*
X97347211Y-120796568D01*
X97471592Y-120496287D01*
X97535000Y-120177511D01*
X97535000Y-119852489D01*
X97471592Y-119533713D01*
X97407922Y-119380000D01*
X97471592Y-119226287D01*
X97535000Y-118907511D01*
X97535000Y-118582489D01*
X97471592Y-118263713D01*
X97407922Y-118110000D01*
X97471592Y-117956287D01*
X97535000Y-117637511D01*
X97535000Y-117312489D01*
X97471592Y-116993713D01*
X97347211Y-116693432D01*
X97166639Y-116423186D01*
X96936814Y-116193361D01*
X96666568Y-116012789D01*
X96366287Y-115888408D01*
X96047511Y-115825000D01*
X95722489Y-115825000D01*
X95403713Y-115888408D01*
X95250000Y-115952078D01*
X95096287Y-115888408D01*
X94777511Y-115825000D01*
X94452489Y-115825000D01*
X94133713Y-115888408D01*
X93833432Y-116012789D01*
X93563186Y-116193361D01*
X93333361Y-116423186D01*
X93152789Y-116693432D01*
X93028408Y-116993713D01*
X92965000Y-117312489D01*
X86867000Y-117312489D01*
X86803592Y-116993713D01*
X86679211Y-116693432D01*
X86498639Y-116423186D01*
X86268814Y-116193361D01*
X85998568Y-116012789D01*
X85698287Y-115888408D01*
X85379511Y-115825000D01*
X85054489Y-115825000D01*
X84735713Y-115888408D01*
X84582000Y-115952078D01*
X84428287Y-115888408D01*
X84109511Y-115825000D01*
X83784489Y-115825000D01*
X83465713Y-115888408D01*
X83165432Y-116012789D01*
X82895186Y-116193361D01*
X82665361Y-116423186D01*
X82484789Y-116693432D01*
X82360408Y-116993713D01*
X82297000Y-117312489D01*
X76199000Y-117312489D01*
X76135592Y-116993713D01*
X76011211Y-116693432D01*
X75830639Y-116423186D01*
X75600814Y-116193361D01*
X75330568Y-116012789D01*
X75030287Y-115888408D01*
X74711511Y-115825000D01*
X74386489Y-115825000D01*
X74067713Y-115888408D01*
X73914000Y-115952078D01*
X73760287Y-115888408D01*
X73441511Y-115825000D01*
X73116489Y-115825000D01*
X72797713Y-115888408D01*
X72497432Y-116012789D01*
X72227186Y-116193361D01*
X71997361Y-116423186D01*
X71816789Y-116693432D01*
X71692408Y-116993713D01*
X71629000Y-117312489D01*
X65531000Y-117312489D01*
X65467592Y-116993713D01*
X65343211Y-116693432D01*
X65162639Y-116423186D01*
X64932814Y-116193361D01*
X64662568Y-116012789D01*
X64362287Y-115888408D01*
X64043511Y-115825000D01*
X63718489Y-115825000D01*
X63399713Y-115888408D01*
X63246000Y-115952078D01*
X63092287Y-115888408D01*
X62773511Y-115825000D01*
X62448489Y-115825000D01*
X62129713Y-115888408D01*
X61829432Y-116012789D01*
X61559186Y-116193361D01*
X61329361Y-116423186D01*
X61148789Y-116693432D01*
X61024408Y-116993713D01*
X60961000Y-117312489D01*
X54863000Y-117312489D01*
X54799592Y-116993713D01*
X54675211Y-116693432D01*
X54494639Y-116423186D01*
X54264814Y-116193361D01*
X53994568Y-116012789D01*
X53694287Y-115888408D01*
X53375511Y-115825000D01*
X53050489Y-115825000D01*
X52731713Y-115888408D01*
X52578000Y-115952078D01*
X52424287Y-115888408D01*
X52105511Y-115825000D01*
X51780489Y-115825000D01*
X51461713Y-115888408D01*
X51161432Y-116012789D01*
X50891186Y-116193361D01*
X50661361Y-116423186D01*
X50480789Y-116693432D01*
X50356408Y-116993713D01*
X50293000Y-117312489D01*
X44195000Y-117312489D01*
X44131592Y-116993713D01*
X44007211Y-116693432D01*
X43826639Y-116423186D01*
X43596814Y-116193361D01*
X43326568Y-116012789D01*
X43026287Y-115888408D01*
X42707511Y-115825000D01*
X42382489Y-115825000D01*
X42063713Y-115888408D01*
X41910000Y-115952078D01*
X41756287Y-115888408D01*
X41437511Y-115825000D01*
X41112489Y-115825000D01*
X40793713Y-115888408D01*
X40493432Y-116012789D01*
X40223186Y-116193361D01*
X39993361Y-116423186D01*
X39812789Y-116693432D01*
X39688408Y-116993713D01*
X39625000Y-117312489D01*
X35120000Y-117312489D01*
X35120000Y-117268168D01*
X35039298Y-116862453D01*
X34958193Y-116666648D01*
X35143186Y-116851641D01*
X35413432Y-117032213D01*
X35713713Y-117156594D01*
X36032489Y-117220002D01*
X36357511Y-117220002D01*
X36676287Y-117156594D01*
X36976568Y-117032213D01*
X37246814Y-116851641D01*
X37476639Y-116621816D01*
X37657211Y-116351570D01*
X37781592Y-116051289D01*
X37845000Y-115732513D01*
X37845000Y-115695245D01*
X37848271Y-115689125D01*
X37925466Y-115434649D01*
X37944999Y-115236324D01*
X37944999Y-115236323D01*
X37951531Y-115170004D01*
X37944999Y-115103685D01*
X37944999Y-108422489D01*
X76389990Y-108422489D01*
X76389990Y-108747511D01*
X76453398Y-109066287D01*
X76577779Y-109366568D01*
X76758351Y-109636814D01*
X76988176Y-109866639D01*
X77090000Y-109934675D01*
X77090000Y-110017511D01*
X77153408Y-110336287D01*
X77277789Y-110636568D01*
X77458361Y-110906814D01*
X77688186Y-111136639D01*
X77958432Y-111317211D01*
X78258713Y-111441592D01*
X78577489Y-111505000D01*
X78902511Y-111505000D01*
X79221287Y-111441592D01*
X79521568Y-111317211D01*
X79791814Y-111136639D01*
X80021639Y-110906814D01*
X80202211Y-110636568D01*
X80326592Y-110336287D01*
X80365215Y-110142114D01*
X80399214Y-110114212D01*
X80567916Y-109908648D01*
X80683455Y-109692489D01*
X86614996Y-109692489D01*
X86614996Y-110017511D01*
X86678404Y-110336287D01*
X86802785Y-110636568D01*
X86983357Y-110906814D01*
X87213182Y-111136639D01*
X87483428Y-111317211D01*
X87602706Y-111366618D01*
X87437791Y-111613432D01*
X87313410Y-111913713D01*
X87250002Y-112232489D01*
X87250002Y-112557511D01*
X87313410Y-112876287D01*
X87437791Y-113176568D01*
X87618363Y-113446814D01*
X87848188Y-113676639D01*
X88118434Y-113857211D01*
X88418715Y-113981592D01*
X88737491Y-114045000D01*
X89062513Y-114045000D01*
X89381289Y-113981592D01*
X89681570Y-113857211D01*
X89951816Y-113676639D01*
X90181641Y-113446814D01*
X90362213Y-113176568D01*
X90486594Y-112876287D01*
X90525395Y-112681220D01*
X90662915Y-112513651D01*
X90788272Y-112279124D01*
X90865467Y-112024648D01*
X90885000Y-111826323D01*
X90885000Y-111826321D01*
X90891532Y-111760002D01*
X90885000Y-111693683D01*
X90885000Y-98262489D01*
X92965000Y-98262489D01*
X92965000Y-98587511D01*
X93028408Y-98906287D01*
X93092078Y-99060000D01*
X93028408Y-99213713D01*
X92965000Y-99532489D01*
X92965000Y-99857511D01*
X93028408Y-100176287D01*
X93092078Y-100330000D01*
X93028408Y-100483713D01*
X92965000Y-100802489D01*
X92965000Y-101127511D01*
X93028408Y-101446287D01*
X93152789Y-101746568D01*
X93333361Y-102016814D01*
X93563186Y-102246639D01*
X93833432Y-102427211D01*
X94133713Y-102551592D01*
X94452489Y-102615000D01*
X94777511Y-102615000D01*
X95096287Y-102551592D01*
X95250000Y-102487922D01*
X95403713Y-102551592D01*
X95722489Y-102615000D01*
X96047511Y-102615000D01*
X96366287Y-102551592D01*
X96666568Y-102427211D01*
X96936814Y-102246639D01*
X97166639Y-102016814D01*
X97347211Y-101746568D01*
X97471592Y-101446287D01*
X97535000Y-101127511D01*
X97535000Y-100802489D01*
X97471592Y-100483713D01*
X97407922Y-100330000D01*
X97471592Y-100176287D01*
X97535000Y-99857511D01*
X97535000Y-99532489D01*
X97471592Y-99213713D01*
X97347211Y-98913432D01*
X97166639Y-98643186D01*
X96936814Y-98413361D01*
X96666568Y-98232789D01*
X96366287Y-98108408D01*
X96228916Y-98081084D01*
X96201592Y-97943713D01*
X96077211Y-97643432D01*
X95896639Y-97373186D01*
X95666814Y-97143361D01*
X95396568Y-96962789D01*
X95096287Y-96838408D01*
X94777511Y-96775000D01*
X94452489Y-96775000D01*
X94133713Y-96838408D01*
X93833432Y-96962789D01*
X93563186Y-97143361D01*
X93333361Y-97373186D01*
X93152789Y-97643432D01*
X93028408Y-97943713D01*
X92965000Y-98262489D01*
X90885000Y-98262489D01*
X90885000Y-97469504D01*
X90997211Y-97301568D01*
X91121592Y-97001287D01*
X91185000Y-96682511D01*
X91185000Y-96357489D01*
X91121592Y-96038713D01*
X90997211Y-95738432D01*
X90882998Y-95567500D01*
X90997211Y-95396568D01*
X91121592Y-95096287D01*
X91185000Y-94777511D01*
X91185000Y-94452489D01*
X91121592Y-94133713D01*
X90997211Y-93833432D01*
X90816639Y-93563186D01*
X90586814Y-93333361D01*
X90316568Y-93152789D01*
X90016287Y-93028408D01*
X89697511Y-92965000D01*
X89372489Y-92965000D01*
X89053713Y-93028408D01*
X88753432Y-93152789D01*
X88483186Y-93333361D01*
X88253361Y-93563186D01*
X88072789Y-93833432D01*
X87948408Y-94133713D01*
X87909005Y-94331806D01*
X87357295Y-94883517D01*
X87305783Y-94925792D01*
X87263509Y-94977303D01*
X87263506Y-94977306D01*
X87137081Y-95131355D01*
X87085666Y-95227547D01*
X87011724Y-95365883D01*
X86934529Y-95620359D01*
X86920150Y-95766352D01*
X86908464Y-95885004D01*
X86914996Y-95951323D01*
X86914997Y-108905494D01*
X86802785Y-109073432D01*
X86678404Y-109373713D01*
X86614996Y-109692489D01*
X80683455Y-109692489D01*
X80693273Y-109674121D01*
X80770468Y-109419645D01*
X80790001Y-109221320D01*
X80790001Y-109221318D01*
X80796533Y-109154999D01*
X80790001Y-109088680D01*
X80790001Y-98262489D01*
X82297000Y-98262489D01*
X82297000Y-98587511D01*
X82360408Y-98906287D01*
X82424078Y-99060000D01*
X82360408Y-99213713D01*
X82297000Y-99532489D01*
X82297000Y-99857511D01*
X82360408Y-100176287D01*
X82424078Y-100330000D01*
X82360408Y-100483713D01*
X82297000Y-100802489D01*
X82297000Y-101127511D01*
X82360408Y-101446287D01*
X82484789Y-101746568D01*
X82665361Y-102016814D01*
X82895186Y-102246639D01*
X83165432Y-102427211D01*
X83465713Y-102551592D01*
X83784489Y-102615000D01*
X84109511Y-102615000D01*
X84428287Y-102551592D01*
X84582000Y-102487922D01*
X84735713Y-102551592D01*
X85054489Y-102615000D01*
X85379511Y-102615000D01*
X85698287Y-102551592D01*
X85998568Y-102427211D01*
X86268814Y-102246639D01*
X86498639Y-102016814D01*
X86679211Y-101746568D01*
X86803592Y-101446287D01*
X86867000Y-101127511D01*
X86867000Y-100802489D01*
X86803592Y-100483713D01*
X86739922Y-100330000D01*
X86803592Y-100176287D01*
X86867000Y-99857511D01*
X86867000Y-99532489D01*
X86803592Y-99213713D01*
X86679211Y-98913432D01*
X86498639Y-98643186D01*
X86268814Y-98413361D01*
X85998568Y-98232789D01*
X85698287Y-98108408D01*
X85560916Y-98081084D01*
X85533592Y-97943713D01*
X85409211Y-97643432D01*
X85228639Y-97373186D01*
X84998814Y-97143361D01*
X84728568Y-96962789D01*
X84428287Y-96838408D01*
X84109511Y-96775000D01*
X83784489Y-96775000D01*
X83465713Y-96838408D01*
X83165432Y-96962789D01*
X82895186Y-97143361D01*
X82665361Y-97373186D01*
X82484789Y-97643432D01*
X82360408Y-97943713D01*
X82297000Y-98262489D01*
X80790001Y-98262489D01*
X80790001Y-95381320D01*
X80796533Y-95315001D01*
X80789591Y-95244516D01*
X80770468Y-95050355D01*
X80693273Y-94795879D01*
X80567916Y-94561352D01*
X80534967Y-94521204D01*
X80441491Y-94407303D01*
X80441488Y-94407300D01*
X80399213Y-94355788D01*
X80365215Y-94327887D01*
X80326592Y-94133713D01*
X80202211Y-93833432D01*
X80021639Y-93563186D01*
X79791814Y-93333361D01*
X79521568Y-93152789D01*
X79221287Y-93028408D01*
X78902511Y-92965000D01*
X78577489Y-92965000D01*
X78258713Y-93028408D01*
X77958432Y-93152789D01*
X77688186Y-93333361D01*
X77458361Y-93563186D01*
X77277789Y-93833432D01*
X77153408Y-94133713D01*
X77090000Y-94452489D01*
X77090000Y-94777511D01*
X77153408Y-95096287D01*
X77277789Y-95396568D01*
X77304861Y-95437083D01*
X77273758Y-95468186D01*
X77093186Y-95738432D01*
X76968805Y-96038713D01*
X76905397Y-96357489D01*
X76905397Y-96682511D01*
X76968805Y-97001287D01*
X77093186Y-97301568D01*
X77205397Y-97469504D01*
X77205398Y-107158218D01*
X76988176Y-107303361D01*
X76758351Y-107533186D01*
X76577779Y-107803432D01*
X76453398Y-108103713D01*
X76389990Y-108422489D01*
X37944999Y-108422489D01*
X37944999Y-103977489D01*
X65660000Y-103977489D01*
X65660000Y-104302511D01*
X65723408Y-104621287D01*
X65847789Y-104921568D01*
X66028361Y-105191814D01*
X66258186Y-105421639D01*
X66528432Y-105602211D01*
X66828713Y-105726592D01*
X67147489Y-105790000D01*
X67277662Y-105790000D01*
X67278017Y-105790532D01*
X67507842Y-106020357D01*
X67778088Y-106200929D01*
X68078369Y-106325310D01*
X68397145Y-106388718D01*
X68722167Y-106388718D01*
X69040943Y-106325310D01*
X69341224Y-106200929D01*
X69611470Y-106020357D01*
X69841295Y-105790532D01*
X70021867Y-105520286D01*
X70146248Y-105220005D01*
X70190744Y-104996306D01*
X70223294Y-104956644D01*
X70348651Y-104722118D01*
X70375710Y-104632915D01*
X70425846Y-104467641D01*
X70445379Y-104269316D01*
X70445379Y-104269314D01*
X70451911Y-104202995D01*
X70445379Y-104136676D01*
X70445379Y-98262489D01*
X71629000Y-98262489D01*
X71629000Y-98587511D01*
X71692408Y-98906287D01*
X71756078Y-99060000D01*
X71692408Y-99213713D01*
X71629000Y-99532489D01*
X71629000Y-99857511D01*
X71692408Y-100176287D01*
X71756078Y-100330000D01*
X71692408Y-100483713D01*
X71629000Y-100802489D01*
X71629000Y-101127511D01*
X71692408Y-101446287D01*
X71816789Y-101746568D01*
X71997361Y-102016814D01*
X72227186Y-102246639D01*
X72497432Y-102427211D01*
X72797713Y-102551592D01*
X73116489Y-102615000D01*
X73441511Y-102615000D01*
X73760287Y-102551592D01*
X73914000Y-102487922D01*
X74067713Y-102551592D01*
X74386489Y-102615000D01*
X74711511Y-102615000D01*
X75030287Y-102551592D01*
X75330568Y-102427211D01*
X75600814Y-102246639D01*
X75830639Y-102016814D01*
X76011211Y-101746568D01*
X76135592Y-101446287D01*
X76199000Y-101127511D01*
X76199000Y-100802489D01*
X76135592Y-100483713D01*
X76071922Y-100330000D01*
X76135592Y-100176287D01*
X76199000Y-99857511D01*
X76199000Y-99532489D01*
X76135592Y-99213713D01*
X76011211Y-98913432D01*
X75830639Y-98643186D01*
X75600814Y-98413361D01*
X75330568Y-98232789D01*
X75030287Y-98108408D01*
X74892916Y-98081084D01*
X74865592Y-97943713D01*
X74741211Y-97643432D01*
X74560639Y-97373186D01*
X74330814Y-97143361D01*
X74060568Y-96962789D01*
X73760287Y-96838408D01*
X73441511Y-96775000D01*
X73116489Y-96775000D01*
X72797713Y-96838408D01*
X72497432Y-96962789D01*
X72227186Y-97143361D01*
X71997361Y-97373186D01*
X71816789Y-97643432D01*
X71692408Y-97943713D01*
X71629000Y-98262489D01*
X70445379Y-98262489D01*
X70445379Y-95196698D01*
X70451911Y-95130379D01*
X70445379Y-95064058D01*
X70425846Y-94865733D01*
X70348651Y-94611257D01*
X70223294Y-94376730D01*
X70212255Y-94363279D01*
X70166592Y-94133713D01*
X70042211Y-93833432D01*
X69861639Y-93563186D01*
X69631814Y-93333361D01*
X69361568Y-93152789D01*
X69061287Y-93028408D01*
X68742511Y-92965000D01*
X68417489Y-92965000D01*
X68098713Y-93028408D01*
X67798432Y-93152789D01*
X67528186Y-93333361D01*
X67298361Y-93563186D01*
X67117789Y-93833432D01*
X66993408Y-94133713D01*
X66930000Y-94452489D01*
X66930000Y-94777511D01*
X66993408Y-95096287D01*
X67117789Y-95396568D01*
X67144853Y-95437072D01*
X67113739Y-95468186D01*
X66933167Y-95738432D01*
X66808786Y-96038713D01*
X66747470Y-96346970D01*
X66691728Y-96451257D01*
X66614533Y-96705733D01*
X66602307Y-96829870D01*
X66588468Y-96970378D01*
X66595000Y-97036697D01*
X66595001Y-102650215D01*
X66528432Y-102677789D01*
X66258186Y-102858361D01*
X66028361Y-103088186D01*
X65847789Y-103358432D01*
X65723408Y-103658713D01*
X65660000Y-103977489D01*
X37944999Y-103977489D01*
X37944999Y-98262489D01*
X39625000Y-98262489D01*
X39625000Y-98587511D01*
X39688408Y-98906287D01*
X39752078Y-99060000D01*
X39688408Y-99213713D01*
X39625000Y-99532489D01*
X39625000Y-99857511D01*
X39688408Y-100176287D01*
X39752078Y-100330000D01*
X39688408Y-100483713D01*
X39625000Y-100802489D01*
X39625000Y-101127511D01*
X39688408Y-101446287D01*
X39812789Y-101746568D01*
X39993361Y-102016814D01*
X40223186Y-102246639D01*
X40493432Y-102427211D01*
X40793713Y-102551592D01*
X41112489Y-102615000D01*
X41437511Y-102615000D01*
X41756287Y-102551592D01*
X41910000Y-102487922D01*
X42063713Y-102551592D01*
X42382489Y-102615000D01*
X42707511Y-102615000D01*
X43026287Y-102551592D01*
X43326568Y-102427211D01*
X43596814Y-102246639D01*
X43826639Y-102016814D01*
X44007211Y-101746568D01*
X44131592Y-101446287D01*
X44195000Y-101127511D01*
X44195000Y-100802489D01*
X44131592Y-100483713D01*
X44067922Y-100330000D01*
X44131592Y-100176287D01*
X44195000Y-99857511D01*
X44195000Y-99532489D01*
X44131592Y-99213713D01*
X44007211Y-98913432D01*
X43826639Y-98643186D01*
X43596814Y-98413361D01*
X43371018Y-98262489D01*
X50293000Y-98262489D01*
X50293000Y-98587511D01*
X50356408Y-98906287D01*
X50420078Y-99060000D01*
X50356408Y-99213713D01*
X50293000Y-99532489D01*
X50293000Y-99857511D01*
X50356408Y-100176287D01*
X50420078Y-100330000D01*
X50356408Y-100483713D01*
X50293000Y-100802489D01*
X50293000Y-101127511D01*
X50356408Y-101446287D01*
X50480789Y-101746568D01*
X50661361Y-102016814D01*
X50891186Y-102246639D01*
X51161432Y-102427211D01*
X51461713Y-102551592D01*
X51780489Y-102615000D01*
X52105511Y-102615000D01*
X52424287Y-102551592D01*
X52578000Y-102487922D01*
X52731713Y-102551592D01*
X53050489Y-102615000D01*
X53375511Y-102615000D01*
X53694287Y-102551592D01*
X53994568Y-102427211D01*
X54264814Y-102246639D01*
X54494639Y-102016814D01*
X54675211Y-101746568D01*
X54799592Y-101446287D01*
X54863000Y-101127511D01*
X54863000Y-100802489D01*
X60961000Y-100802489D01*
X60961000Y-101127511D01*
X61024408Y-101446287D01*
X61148789Y-101746568D01*
X61329361Y-102016814D01*
X61559186Y-102246639D01*
X61829432Y-102427211D01*
X62129713Y-102551592D01*
X62448489Y-102615000D01*
X62773511Y-102615000D01*
X63092287Y-102551592D01*
X63246000Y-102487922D01*
X63399713Y-102551592D01*
X63718489Y-102615000D01*
X64043511Y-102615000D01*
X64362287Y-102551592D01*
X64662568Y-102427211D01*
X64932814Y-102246639D01*
X65162639Y-102016814D01*
X65343211Y-101746568D01*
X65467592Y-101446287D01*
X65531000Y-101127511D01*
X65531000Y-100802489D01*
X65467592Y-100483713D01*
X65403922Y-100330000D01*
X65467592Y-100176287D01*
X65531000Y-99857511D01*
X65531000Y-99532489D01*
X65467592Y-99213713D01*
X65343211Y-98913432D01*
X65162639Y-98643186D01*
X64932814Y-98413361D01*
X64662568Y-98232789D01*
X64400182Y-98124105D01*
X64362602Y-97935175D01*
X64238221Y-97634894D01*
X64057649Y-97364648D01*
X63827824Y-97134823D01*
X63557578Y-96954251D01*
X63257297Y-96829870D01*
X62938521Y-96766462D01*
X62613499Y-96766462D01*
X62294723Y-96829870D01*
X61994442Y-96954251D01*
X61724196Y-97134823D01*
X61494371Y-97364648D01*
X61313799Y-97634894D01*
X61189418Y-97935175D01*
X61126010Y-98253951D01*
X61126010Y-98578973D01*
X61189418Y-98897749D01*
X61248006Y-99039193D01*
X61189418Y-99180636D01*
X61126010Y-99499412D01*
X61126010Y-99824434D01*
X61186263Y-100127348D01*
X61148789Y-100183432D01*
X61024408Y-100483713D01*
X60961000Y-100802489D01*
X54863000Y-100802489D01*
X54799592Y-100483713D01*
X54735922Y-100330000D01*
X54799592Y-100176287D01*
X54863000Y-99857511D01*
X54863000Y-99532489D01*
X54799592Y-99213713D01*
X54675211Y-98913432D01*
X54494639Y-98643186D01*
X54264814Y-98413361D01*
X53994568Y-98232789D01*
X53694287Y-98108408D01*
X53556916Y-98081084D01*
X53529592Y-97943713D01*
X53405211Y-97643432D01*
X53224639Y-97373186D01*
X52994814Y-97143361D01*
X52724568Y-96962789D01*
X52424287Y-96838408D01*
X52105511Y-96775000D01*
X51780489Y-96775000D01*
X51461713Y-96838408D01*
X51161432Y-96962789D01*
X50891186Y-97143361D01*
X50661361Y-97373186D01*
X50480789Y-97643432D01*
X50356408Y-97943713D01*
X50293000Y-98262489D01*
X43371018Y-98262489D01*
X43326568Y-98232789D01*
X43026287Y-98108408D01*
X42888916Y-98081084D01*
X42861592Y-97943713D01*
X42737211Y-97643432D01*
X42556639Y-97373186D01*
X42326814Y-97143361D01*
X42056568Y-96962789D01*
X41756287Y-96838408D01*
X41437511Y-96775000D01*
X41112489Y-96775000D01*
X40793713Y-96838408D01*
X40493432Y-96962789D01*
X40223186Y-97143361D01*
X39993361Y-97373186D01*
X39812789Y-97643432D01*
X39688408Y-97943713D01*
X39625000Y-98262489D01*
X37944999Y-98262489D01*
X37944999Y-96103489D01*
X44901397Y-96103489D01*
X44901397Y-96428511D01*
X44964805Y-96747287D01*
X45089186Y-97047568D01*
X45269758Y-97317814D01*
X45499583Y-97547639D01*
X45769829Y-97728211D01*
X46070110Y-97852592D01*
X46388886Y-97916000D01*
X46713908Y-97916000D01*
X47032684Y-97852592D01*
X47332965Y-97728211D01*
X47603211Y-97547639D01*
X47833036Y-97317814D01*
X48013608Y-97047568D01*
X48137989Y-96747287D01*
X48201397Y-96428511D01*
X48201397Y-96103489D01*
X48137989Y-95784713D01*
X48059610Y-95595489D01*
X55569391Y-95595489D01*
X55569391Y-95920511D01*
X55632799Y-96239287D01*
X55757180Y-96539568D01*
X55937752Y-96809814D01*
X56167577Y-97039639D01*
X56437823Y-97220211D01*
X56738104Y-97344592D01*
X57056880Y-97408000D01*
X57381902Y-97408000D01*
X57700678Y-97344592D01*
X58000959Y-97220211D01*
X58271205Y-97039639D01*
X58501030Y-96809814D01*
X58681602Y-96539568D01*
X58805983Y-96239287D01*
X58869391Y-95920511D01*
X58869391Y-95595489D01*
X58805983Y-95276713D01*
X58681602Y-94976432D01*
X58534962Y-94756969D01*
X58701606Y-94507568D01*
X58825987Y-94207287D01*
X58889395Y-93888511D01*
X58889395Y-93563489D01*
X58825987Y-93244713D01*
X58701606Y-92944432D01*
X58521034Y-92674186D01*
X58291209Y-92444361D01*
X58020963Y-92263789D01*
X57720682Y-92139408D01*
X57401906Y-92076000D01*
X57076884Y-92076000D01*
X56758108Y-92139408D01*
X56457827Y-92263789D01*
X56187581Y-92444361D01*
X55957756Y-92674186D01*
X55777184Y-92944432D01*
X55652803Y-93244713D01*
X55589395Y-93563489D01*
X55589395Y-93888511D01*
X55652803Y-94207287D01*
X55777184Y-94507568D01*
X55923824Y-94727031D01*
X55757180Y-94976432D01*
X55632799Y-95276713D01*
X55569391Y-95595489D01*
X48059610Y-95595489D01*
X48013608Y-95484432D01*
X47985072Y-95441724D01*
X48033602Y-95369093D01*
X48157983Y-95068812D01*
X48221391Y-94750036D01*
X48221391Y-94425014D01*
X48157983Y-94106238D01*
X48033602Y-93805957D01*
X47928568Y-93648763D01*
X48033602Y-93491568D01*
X48157983Y-93191287D01*
X48221391Y-92872511D01*
X48221391Y-92547489D01*
X48157983Y-92228713D01*
X48033602Y-91928432D01*
X47853030Y-91658186D01*
X47623205Y-91428361D01*
X47352959Y-91247789D01*
X47052678Y-91123408D01*
X46733902Y-91060000D01*
X46408880Y-91060000D01*
X46090104Y-91123408D01*
X45789823Y-91247789D01*
X45519577Y-91428361D01*
X45289752Y-91658186D01*
X45109180Y-91928432D01*
X44984799Y-92228713D01*
X44921391Y-92547489D01*
X44921391Y-92872511D01*
X44984799Y-93191287D01*
X45109180Y-93491568D01*
X45214214Y-93648763D01*
X45109180Y-93805957D01*
X44984799Y-94106238D01*
X44921391Y-94425014D01*
X44921391Y-94750036D01*
X44984799Y-95068812D01*
X45109180Y-95369093D01*
X45137716Y-95411801D01*
X45089186Y-95484432D01*
X44964805Y-95784713D01*
X44901397Y-96103489D01*
X37944999Y-96103489D01*
X37944999Y-95081320D01*
X37951531Y-95015001D01*
X37944999Y-94948680D01*
X37925466Y-94750355D01*
X37851817Y-94507568D01*
X37848271Y-94495878D01*
X37722914Y-94261352D01*
X37596489Y-94107303D01*
X37596486Y-94107300D01*
X37554211Y-94055788D01*
X37502700Y-94013514D01*
X37185995Y-93696809D01*
X37146592Y-93498715D01*
X37022211Y-93198434D01*
X36841639Y-92928188D01*
X36817636Y-92904185D01*
X36902941Y-92868851D01*
X37173187Y-92688279D01*
X37403012Y-92458454D01*
X37583584Y-92188208D01*
X37707965Y-91887927D01*
X37771373Y-91569151D01*
X37771373Y-91244129D01*
X37707965Y-90925353D01*
X37583584Y-90625072D01*
X37403012Y-90354826D01*
X37173187Y-90125001D01*
X36902941Y-89944429D01*
X36602660Y-89820048D01*
X36283884Y-89756640D01*
X35958862Y-89756640D01*
X35640086Y-89820048D01*
X35339805Y-89944429D01*
X35069559Y-90125001D01*
X35033843Y-90160717D01*
X35039298Y-90147547D01*
X35120000Y-89741832D01*
X35120000Y-89328168D01*
X35039298Y-88922453D01*
X34880996Y-88540277D01*
X34697062Y-88265000D01*
X34880996Y-87989723D01*
X35039298Y-87607547D01*
X35120000Y-87201832D01*
X35120000Y-86788168D01*
X35039298Y-86382453D01*
X34880996Y-86000277D01*
X34697062Y-85725000D01*
X34880996Y-85449723D01*
X35039298Y-85067547D01*
X35120000Y-84661832D01*
X35120000Y-84248168D01*
X35039298Y-83842453D01*
X34880996Y-83460277D01*
X34697062Y-83185000D01*
X34880996Y-82909723D01*
X35039298Y-82527547D01*
X35120000Y-82121832D01*
X35120000Y-81708168D01*
X35039298Y-81302453D01*
X34880996Y-80920277D01*
X34697062Y-80645000D01*
X34880996Y-80369723D01*
X35039298Y-79987547D01*
X35120000Y-79581832D01*
X35120000Y-79168168D01*
X35039298Y-78762453D01*
X34880996Y-78380277D01*
X34697062Y-78105000D01*
X34880996Y-77829723D01*
X35039298Y-77447547D01*
X35120000Y-77041832D01*
X35120000Y-76628168D01*
X35039298Y-76222453D01*
X34880996Y-75840277D01*
X34651177Y-75496328D01*
X34358672Y-75203823D01*
X34014723Y-74974004D01*
X33632547Y-74815702D01*
X33226832Y-74735000D01*
X32813168Y-74735000D01*
X32407453Y-74815702D01*
X32025277Y-74974004D01*
X31681328Y-75203823D01*
X31388823Y-75496328D01*
X31159004Y-75840277D01*
X31000702Y-76222453D01*
X30920000Y-76628168D01*
X30920000Y-77041832D01*
X30977897Y-77332897D01*
X30686832Y-77275000D01*
X30273168Y-77275000D01*
X29867453Y-77355702D01*
X29485277Y-77514004D01*
X29141328Y-77743823D01*
X28848823Y-78036328D01*
X28619004Y-78380277D01*
X28460702Y-78762453D01*
X28380000Y-79168168D01*
X28380000Y-79581832D01*
X28460702Y-79987547D01*
X28619004Y-80369723D01*
X28802938Y-80645000D01*
X28619004Y-80920277D01*
X28460702Y-81302453D01*
X28380000Y-81708168D01*
X28380000Y-82121832D01*
X28460702Y-82527547D01*
X28619004Y-82909723D01*
X28802938Y-83185000D01*
X28619004Y-83460277D01*
X28460702Y-83842453D01*
X28380000Y-84248168D01*
X28380000Y-84661832D01*
X28460702Y-85067547D01*
X28619004Y-85449723D01*
X28802938Y-85725000D01*
X28619004Y-86000277D01*
X28460702Y-86382453D01*
X28380000Y-86788168D01*
X28380000Y-87201832D01*
X28460702Y-87607547D01*
X28619004Y-87989723D01*
X28802938Y-88265000D01*
X28619004Y-88540277D01*
X28460702Y-88922453D01*
X28380000Y-89328168D01*
X28380000Y-89741832D01*
X28460702Y-90147547D01*
X28619004Y-90529723D01*
X28802938Y-90805000D01*
X28619004Y-91080277D01*
X28460702Y-91462453D01*
X28380000Y-91868168D01*
X28380000Y-92281832D01*
X28460702Y-92687547D01*
X28619004Y-93069723D01*
X28802938Y-93345000D01*
X28619004Y-93620277D01*
X28460702Y-94002453D01*
X28380000Y-94408168D01*
X28380000Y-94821832D01*
X28460702Y-95227547D01*
X28619004Y-95609723D01*
X28848823Y-95953672D01*
X29141328Y-96246177D01*
X29485277Y-96475996D01*
X29867453Y-96634298D01*
X30273168Y-96715000D01*
X30686832Y-96715000D01*
X30977897Y-96657103D01*
X30920000Y-96948168D01*
X30920000Y-97361832D01*
X30977897Y-97652897D01*
X30686832Y-97595000D01*
X30273168Y-97595000D01*
X29867453Y-97675702D01*
X29485277Y-97834004D01*
X29141328Y-98063823D01*
X28848823Y-98356328D01*
X28619004Y-98700277D01*
X28460702Y-99082453D01*
X28380000Y-99488168D01*
X28380000Y-99901832D01*
X28460702Y-100307547D01*
X28619004Y-100689723D01*
X28802938Y-100965000D01*
X28619004Y-101240277D01*
X28460702Y-101622453D01*
X28380000Y-102028168D01*
X28380000Y-102441832D01*
X28460702Y-102847547D01*
X28619004Y-103229723D01*
X28802938Y-103505000D01*
X28619004Y-103780277D01*
X28460702Y-104162453D01*
X28380000Y-104568168D01*
X28380000Y-104981832D01*
X28460702Y-105387547D01*
X28619004Y-105769723D01*
X28802938Y-106045000D01*
X28619004Y-106320277D01*
X28460702Y-106702453D01*
X28380000Y-107108168D01*
X28380000Y-107521832D01*
X28460702Y-107927547D01*
X28619004Y-108309723D01*
X28802938Y-108585000D01*
X28619004Y-108860277D01*
X28460702Y-109242453D01*
X28380000Y-109648168D01*
X28380000Y-110061832D01*
X28460702Y-110467547D01*
X28619004Y-110849723D01*
X28802938Y-111125000D01*
X28619004Y-111400277D01*
X28460702Y-111782453D01*
X28380000Y-112188168D01*
X28380000Y-112601832D01*
X28460702Y-113007547D01*
X28619004Y-113389723D01*
X28802938Y-113665000D01*
X28619004Y-113940277D01*
X28460702Y-114322453D01*
X28380000Y-114728168D01*
X28380000Y-115141832D01*
X28460702Y-115547547D01*
X28619004Y-115929723D01*
X28802938Y-116205000D01*
X28619004Y-116480277D01*
X28460702Y-116862453D01*
X28380000Y-117268168D01*
X28380000Y-117681832D01*
X28460702Y-118087547D01*
X28619004Y-118469723D01*
X28802938Y-118745000D01*
X28619004Y-119020277D01*
X28460702Y-119402453D01*
X28380000Y-119808168D01*
X28380000Y-120221832D01*
X28460702Y-120627547D01*
X28619004Y-121009723D01*
X28802938Y-121285000D01*
X28619004Y-121560277D01*
X28460702Y-121942453D01*
X28380000Y-122348168D01*
X28380000Y-122761832D01*
X28460702Y-123167547D01*
X28619004Y-123549723D01*
X28802938Y-123825000D01*
X28619004Y-124100277D01*
X28460702Y-124482453D01*
X28380000Y-124888168D01*
X28380000Y-125301832D01*
X28460702Y-125707547D01*
X28619004Y-126089723D01*
X28848823Y-126433672D01*
X29141328Y-126726177D01*
X29176982Y-126750000D01*
X6600000Y-126750000D01*
X6600000Y-120487489D01*
X7240000Y-120487489D01*
X7240000Y-120812511D01*
X7303408Y-121131287D01*
X7427789Y-121431568D01*
X7608361Y-121701814D01*
X7838186Y-121931639D01*
X8108432Y-122112211D01*
X8408713Y-122236592D01*
X8727489Y-122300000D01*
X9052511Y-122300000D01*
X9371287Y-122236592D01*
X9671568Y-122112211D01*
X9941814Y-121931639D01*
X10171639Y-121701814D01*
X10352211Y-121431568D01*
X10476592Y-121131287D01*
X10540000Y-120812511D01*
X10540000Y-120487489D01*
X10504298Y-120308000D01*
X13641952Y-120308000D01*
X13641952Y-122008000D01*
X13666087Y-122253043D01*
X13737563Y-122488669D01*
X13853634Y-122705823D01*
X14009840Y-122896160D01*
X14200177Y-123052366D01*
X14417331Y-123168437D01*
X14652957Y-123239913D01*
X14898000Y-123264048D01*
X16598000Y-123264048D01*
X16843043Y-123239913D01*
X17078669Y-123168437D01*
X17295823Y-123052366D01*
X17321992Y-123030890D01*
X17675453Y-123177298D01*
X18081168Y-123258000D01*
X18494832Y-123258000D01*
X18900547Y-123177298D01*
X19282723Y-123018996D01*
X19558000Y-122835062D01*
X19833277Y-123018996D01*
X20215453Y-123177298D01*
X20621168Y-123258000D01*
X21034832Y-123258000D01*
X21440547Y-123177298D01*
X21822723Y-123018996D01*
X22166672Y-122789177D01*
X22459177Y-122496672D01*
X22688996Y-122152723D01*
X22847298Y-121770547D01*
X22928000Y-121364832D01*
X22928000Y-120951168D01*
X22847298Y-120545453D01*
X22688996Y-120163277D01*
X22505062Y-119888000D01*
X22688996Y-119612723D01*
X22847298Y-119230547D01*
X22928000Y-118824832D01*
X22928000Y-118411168D01*
X22847298Y-118005453D01*
X22688996Y-117623277D01*
X22459177Y-117279328D01*
X22166672Y-116986823D01*
X21822723Y-116757004D01*
X21440547Y-116598702D01*
X21034832Y-116518000D01*
X20621168Y-116518000D01*
X20215453Y-116598702D01*
X19833277Y-116757004D01*
X19558000Y-116940938D01*
X19282723Y-116757004D01*
X18900547Y-116598702D01*
X18494832Y-116518000D01*
X18081168Y-116518000D01*
X17675453Y-116598702D01*
X17293277Y-116757004D01*
X17018000Y-116940938D01*
X16742723Y-116757004D01*
X16360547Y-116598702D01*
X15954832Y-116518000D01*
X15541168Y-116518000D01*
X15135453Y-116598702D01*
X14753277Y-116757004D01*
X14409328Y-116986823D01*
X14116823Y-117279328D01*
X13887004Y-117623277D01*
X13728702Y-118005453D01*
X13648000Y-118411168D01*
X13648000Y-118824832D01*
X13728702Y-119230547D01*
X13875110Y-119584008D01*
X13853634Y-119610177D01*
X13737563Y-119827331D01*
X13666087Y-120062957D01*
X13641952Y-120308000D01*
X10504298Y-120308000D01*
X10476592Y-120168713D01*
X10352211Y-119868432D01*
X10171639Y-119598186D01*
X9941814Y-119368361D01*
X9671568Y-119187789D01*
X9371287Y-119063408D01*
X9052511Y-119000000D01*
X8727489Y-119000000D01*
X8408713Y-119063408D01*
X8108432Y-119187789D01*
X7838186Y-119368361D01*
X7608361Y-119598186D01*
X7427789Y-119868432D01*
X7303408Y-120168713D01*
X7240000Y-120487489D01*
X6600000Y-120487489D01*
X6600000Y-107787489D01*
X9780000Y-107787489D01*
X9780000Y-108112511D01*
X9843408Y-108431287D01*
X9967789Y-108731568D01*
X10148361Y-109001814D01*
X10378186Y-109231639D01*
X10648432Y-109412211D01*
X10948713Y-109536592D01*
X11267489Y-109600000D01*
X11592511Y-109600000D01*
X11911287Y-109536592D01*
X12211568Y-109412211D01*
X12481814Y-109231639D01*
X12711639Y-109001814D01*
X12892211Y-108731568D01*
X13016592Y-108431287D01*
X13080000Y-108112511D01*
X13080000Y-107787489D01*
X13016592Y-107468713D01*
X12892211Y-107168432D01*
X12711639Y-106898186D01*
X12583452Y-106769999D01*
X13133952Y-106769999D01*
X13133952Y-108469999D01*
X13158087Y-108715042D01*
X13229563Y-108950668D01*
X13345634Y-109167822D01*
X13501840Y-109358159D01*
X13692177Y-109514365D01*
X13909331Y-109630436D01*
X14144957Y-109701912D01*
X14390000Y-109726047D01*
X16090000Y-109726047D01*
X16335043Y-109701912D01*
X16570669Y-109630436D01*
X16787823Y-109514365D01*
X16978160Y-109358159D01*
X17134366Y-109167822D01*
X17250437Y-108950668D01*
X17321913Y-108715042D01*
X17346048Y-108469999D01*
X17346048Y-107413167D01*
X18220000Y-107413167D01*
X18220000Y-107826831D01*
X18300702Y-108232546D01*
X18459004Y-108614722D01*
X18688823Y-108958671D01*
X18981328Y-109251176D01*
X19325277Y-109480995D01*
X19707453Y-109639297D01*
X20113168Y-109719999D01*
X20526832Y-109719999D01*
X20932547Y-109639297D01*
X21314723Y-109480995D01*
X21590000Y-109297061D01*
X21865277Y-109480995D01*
X22247453Y-109639297D01*
X22653168Y-109719999D01*
X23066832Y-109719999D01*
X23472547Y-109639297D01*
X23854723Y-109480995D01*
X24198672Y-109251176D01*
X24491177Y-108958671D01*
X24720996Y-108614722D01*
X24879298Y-108232546D01*
X24960000Y-107826831D01*
X24960000Y-107413167D01*
X24879298Y-107007452D01*
X24720996Y-106625276D01*
X24491177Y-106281327D01*
X24198672Y-105988822D01*
X23854723Y-105759003D01*
X23472547Y-105600701D01*
X23066832Y-105519999D01*
X22653168Y-105519999D01*
X22247453Y-105600701D01*
X21865277Y-105759003D01*
X21590000Y-105942937D01*
X21314723Y-105759003D01*
X20932547Y-105600701D01*
X20526832Y-105519999D01*
X20113168Y-105519999D01*
X19707453Y-105600701D01*
X19325277Y-105759003D01*
X18981328Y-105988822D01*
X18688823Y-106281327D01*
X18459004Y-106625276D01*
X18300702Y-107007452D01*
X18220000Y-107413167D01*
X17346048Y-107413167D01*
X17346048Y-106769999D01*
X17321913Y-106524956D01*
X17250437Y-106289330D01*
X17134366Y-106072176D01*
X16978160Y-105881839D01*
X16787823Y-105725633D01*
X16570669Y-105609562D01*
X16335043Y-105538086D01*
X16090000Y-105513951D01*
X14390000Y-105513951D01*
X14144957Y-105538086D01*
X13909331Y-105609562D01*
X13692177Y-105725633D01*
X13501840Y-105881839D01*
X13345634Y-106072176D01*
X13229563Y-106289330D01*
X13158087Y-106524956D01*
X13133952Y-106769999D01*
X12583452Y-106769999D01*
X12481814Y-106668361D01*
X12211568Y-106487789D01*
X11911287Y-106363408D01*
X11592511Y-106300000D01*
X11267489Y-106300000D01*
X10948713Y-106363408D01*
X10648432Y-106487789D01*
X10378186Y-106668361D01*
X10148361Y-106898186D01*
X9967789Y-107168432D01*
X9843408Y-107468713D01*
X9780000Y-107787489D01*
X6600000Y-107787489D01*
X6600000Y-95722489D01*
X9780000Y-95722489D01*
X9780000Y-96047511D01*
X9843408Y-96366287D01*
X9967789Y-96666568D01*
X10148361Y-96936814D01*
X10378186Y-97166639D01*
X10648432Y-97347211D01*
X10948713Y-97471592D01*
X11267489Y-97535000D01*
X11592511Y-97535000D01*
X11911287Y-97471592D01*
X12211568Y-97347211D01*
X12481814Y-97166639D01*
X12711639Y-96936814D01*
X12892211Y-96666568D01*
X13016592Y-96366287D01*
X13080000Y-96047511D01*
X13080000Y-95722489D01*
X13016592Y-95403713D01*
X12892211Y-95103432D01*
X12711639Y-94833186D01*
X12583452Y-94704999D01*
X13133952Y-94704999D01*
X13133952Y-96404999D01*
X13158087Y-96650042D01*
X13229563Y-96885668D01*
X13345634Y-97102822D01*
X13501840Y-97293159D01*
X13692177Y-97449365D01*
X13909331Y-97565436D01*
X14144957Y-97636912D01*
X14390000Y-97661047D01*
X16090000Y-97661047D01*
X16335043Y-97636912D01*
X16570669Y-97565436D01*
X16787823Y-97449365D01*
X16978160Y-97293159D01*
X17134366Y-97102822D01*
X17250437Y-96885668D01*
X17321913Y-96650042D01*
X17346048Y-96404999D01*
X17346048Y-95348167D01*
X18220000Y-95348167D01*
X18220000Y-95761831D01*
X18300702Y-96167546D01*
X18459004Y-96549722D01*
X18688823Y-96893671D01*
X18981328Y-97186176D01*
X19127621Y-97283926D01*
X19038361Y-97373186D01*
X18857789Y-97643432D01*
X18733408Y-97943713D01*
X18670000Y-98262489D01*
X18670000Y-98587511D01*
X18733408Y-98906287D01*
X18857789Y-99206568D01*
X19038361Y-99476814D01*
X19268186Y-99706639D01*
X19538432Y-99887211D01*
X19838713Y-100011592D01*
X20157489Y-100075000D01*
X20482511Y-100075000D01*
X20801287Y-100011592D01*
X21101568Y-99887211D01*
X21371814Y-99706639D01*
X21601639Y-99476814D01*
X21782211Y-99206568D01*
X21831617Y-99087291D01*
X22078432Y-99252207D01*
X22378713Y-99376588D01*
X22697489Y-99439996D01*
X23022511Y-99439996D01*
X23341287Y-99376588D01*
X23641568Y-99252207D01*
X23911814Y-99071635D01*
X24141639Y-98841810D01*
X24322211Y-98571564D01*
X24446592Y-98271283D01*
X24510000Y-97952507D01*
X24510000Y-97627485D01*
X24446592Y-97308709D01*
X24338088Y-97046760D01*
X24491177Y-96893671D01*
X24720996Y-96549722D01*
X24879298Y-96167546D01*
X24960000Y-95761831D01*
X24960000Y-95348167D01*
X24879298Y-94942452D01*
X24720996Y-94560276D01*
X24491177Y-94216327D01*
X24198672Y-93923822D01*
X23854723Y-93694003D01*
X23472547Y-93535701D01*
X23066832Y-93454999D01*
X22653168Y-93454999D01*
X22247453Y-93535701D01*
X21865277Y-93694003D01*
X21590000Y-93877937D01*
X21314723Y-93694003D01*
X20932547Y-93535701D01*
X20526832Y-93454999D01*
X20113168Y-93454999D01*
X19707453Y-93535701D01*
X19325277Y-93694003D01*
X18981328Y-93923822D01*
X18688823Y-94216327D01*
X18459004Y-94560276D01*
X18300702Y-94942452D01*
X18220000Y-95348167D01*
X17346048Y-95348167D01*
X17346048Y-94704999D01*
X17321913Y-94459956D01*
X17250437Y-94224330D01*
X17134366Y-94007176D01*
X16978160Y-93816839D01*
X16787823Y-93660633D01*
X16570669Y-93544562D01*
X16335043Y-93473086D01*
X16090000Y-93448951D01*
X14390000Y-93448951D01*
X14144957Y-93473086D01*
X13909331Y-93544562D01*
X13692177Y-93660633D01*
X13501840Y-93816839D01*
X13345634Y-94007176D01*
X13229563Y-94224330D01*
X13158087Y-94459956D01*
X13133952Y-94704999D01*
X12583452Y-94704999D01*
X12481814Y-94603361D01*
X12211568Y-94422789D01*
X11911287Y-94298408D01*
X11592511Y-94235000D01*
X11267489Y-94235000D01*
X10948713Y-94298408D01*
X10648432Y-94422789D01*
X10378186Y-94603361D01*
X10148361Y-94833186D01*
X9967789Y-95103432D01*
X9843408Y-95403713D01*
X9780000Y-95722489D01*
X6600000Y-95722489D01*
X6600000Y-82978168D01*
X18220000Y-82978168D01*
X18220000Y-83391832D01*
X18300702Y-83797547D01*
X18459004Y-84179723D01*
X18688823Y-84523672D01*
X18981328Y-84816177D01*
X19325277Y-85045996D01*
X19707453Y-85204298D01*
X20113168Y-85285000D01*
X20526832Y-85285000D01*
X20932547Y-85204298D01*
X21314723Y-85045996D01*
X21590000Y-84862062D01*
X21865277Y-85045996D01*
X22247453Y-85204298D01*
X22653168Y-85285000D01*
X23066832Y-85285000D01*
X23472547Y-85204298D01*
X23854723Y-85045996D01*
X24130000Y-84862062D01*
X24405277Y-85045996D01*
X24787453Y-85204298D01*
X25193168Y-85285000D01*
X25606832Y-85285000D01*
X26012547Y-85204298D01*
X26394723Y-85045996D01*
X26738672Y-84816177D01*
X27031177Y-84523672D01*
X27260996Y-84179723D01*
X27419298Y-83797547D01*
X27500000Y-83391832D01*
X27500000Y-82978168D01*
X27419298Y-82572453D01*
X27260996Y-82190277D01*
X27031177Y-81846328D01*
X26738672Y-81553823D01*
X26394723Y-81324004D01*
X26012547Y-81165702D01*
X25606832Y-81085000D01*
X25193168Y-81085000D01*
X24787453Y-81165702D01*
X24405277Y-81324004D01*
X24130000Y-81507938D01*
X23854723Y-81324004D01*
X23472547Y-81165702D01*
X23066832Y-81085000D01*
X22653168Y-81085000D01*
X22247453Y-81165702D01*
X21865277Y-81324004D01*
X21590000Y-81507938D01*
X21314723Y-81324004D01*
X20932547Y-81165702D01*
X20526832Y-81085000D01*
X20113168Y-81085000D01*
X19707453Y-81165702D01*
X19325277Y-81324004D01*
X18981328Y-81553823D01*
X18688823Y-81846328D01*
X18459004Y-82190277D01*
X18300702Y-82572453D01*
X18220000Y-82978168D01*
X6600000Y-82978168D01*
X6600000Y-73910000D01*
X9302427Y-73910000D01*
X9069312Y-74101312D01*
G37*
%TD.AperFunction*%
M02*
