%TF.GenerationSoftware,KiCad,Pcbnew,5.1.9+dfsg1-1*%
%TF.CreationDate,2021-02-28T18:52:37-05:00*%
%TF.ProjectId,incubator_pcb,696e6375-6261-4746-9f72-5f7063622e6b,rev?*%
%TF.SameCoordinates,Original*%
%TF.FileFunction,Legend,Bot*%
%TF.FilePolarity,Positive*%
%FSLAX46Y46*%
G04 Gerber Fmt 4.6, Leading zero omitted, Abs format (unit mm)*
G04 Created by KiCad (PCBNEW 5.1.9+dfsg1-1) date 2021-02-28 18:52:37*
%MOMM*%
%LPD*%
G01*
G04 APERTURE LIST*
%ADD10C,0.150000*%
%ADD11C,0.120000*%
G04 APERTURE END LIST*
D10*
X78587523Y-124912380D02*
X78587523Y-123912380D01*
X78016095Y-124912380D01*
X78016095Y-123912380D01*
X77349428Y-124436190D02*
X77349428Y-124912380D01*
X77682761Y-123912380D02*
X77349428Y-124436190D01*
X77016095Y-123912380D01*
X76111333Y-124817142D02*
X76158952Y-124864761D01*
X76301809Y-124912380D01*
X76397047Y-124912380D01*
X76539904Y-124864761D01*
X76635142Y-124769523D01*
X76682761Y-124674285D01*
X76730380Y-124483809D01*
X76730380Y-124340952D01*
X76682761Y-124150476D01*
X76635142Y-124055238D01*
X76539904Y-123960000D01*
X76397047Y-123912380D01*
X76301809Y-123912380D01*
X76158952Y-123960000D01*
X76111333Y-124007619D01*
X74730380Y-123912380D02*
X74539904Y-123912380D01*
X74444666Y-123960000D01*
X74349428Y-124055238D01*
X74301809Y-124245714D01*
X74301809Y-124579047D01*
X74349428Y-124769523D01*
X74444666Y-124864761D01*
X74539904Y-124912380D01*
X74730380Y-124912380D01*
X74825619Y-124864761D01*
X74920857Y-124769523D01*
X74968476Y-124579047D01*
X74968476Y-124245714D01*
X74920857Y-124055238D01*
X74825619Y-123960000D01*
X74730380Y-123912380D01*
X73873238Y-124245714D02*
X73873238Y-125245714D01*
X73873238Y-124293333D02*
X73778000Y-124245714D01*
X73587523Y-124245714D01*
X73492285Y-124293333D01*
X73444666Y-124340952D01*
X73397047Y-124436190D01*
X73397047Y-124721904D01*
X73444666Y-124817142D01*
X73492285Y-124864761D01*
X73587523Y-124912380D01*
X73778000Y-124912380D01*
X73873238Y-124864761D01*
X72587523Y-124864761D02*
X72682761Y-124912380D01*
X72873238Y-124912380D01*
X72968476Y-124864761D01*
X73016095Y-124769523D01*
X73016095Y-124388571D01*
X72968476Y-124293333D01*
X72873238Y-124245714D01*
X72682761Y-124245714D01*
X72587523Y-124293333D01*
X72539904Y-124388571D01*
X72539904Y-124483809D01*
X73016095Y-124579047D01*
X72111333Y-124245714D02*
X72111333Y-124912380D01*
X72111333Y-124340952D02*
X72063714Y-124293333D01*
X71968476Y-124245714D01*
X71825619Y-124245714D01*
X71730380Y-124293333D01*
X71682761Y-124388571D01*
X71682761Y-124912380D01*
X70444666Y-124912380D02*
X70444666Y-123912380D01*
X70063714Y-123912380D01*
X69968476Y-123960000D01*
X69920857Y-124007619D01*
X69873238Y-124102857D01*
X69873238Y-124245714D01*
X69920857Y-124340952D01*
X69968476Y-124388571D01*
X70063714Y-124436190D01*
X70444666Y-124436190D01*
X69301809Y-124912380D02*
X69397047Y-124864761D01*
X69444666Y-124769523D01*
X69444666Y-123912380D01*
X68492285Y-124912380D02*
X68492285Y-124388571D01*
X68539904Y-124293333D01*
X68635142Y-124245714D01*
X68825619Y-124245714D01*
X68920857Y-124293333D01*
X68492285Y-124864761D02*
X68587523Y-124912380D01*
X68825619Y-124912380D01*
X68920857Y-124864761D01*
X68968476Y-124769523D01*
X68968476Y-124674285D01*
X68920857Y-124579047D01*
X68825619Y-124531428D01*
X68587523Y-124531428D01*
X68492285Y-124483809D01*
X68016095Y-124245714D02*
X68016095Y-124912380D01*
X68016095Y-124340952D02*
X67968476Y-124293333D01*
X67873238Y-124245714D01*
X67730380Y-124245714D01*
X67635142Y-124293333D01*
X67587523Y-124388571D01*
X67587523Y-124912380D01*
X67254190Y-124245714D02*
X66873238Y-124245714D01*
X67111333Y-123912380D02*
X67111333Y-124769523D01*
X67063714Y-124864761D01*
X66968476Y-124912380D01*
X66873238Y-124912380D01*
X65778000Y-124912380D02*
X65778000Y-123912380D01*
X65301809Y-124245714D02*
X65301809Y-124912380D01*
X65301809Y-124340952D02*
X65254190Y-124293333D01*
X65158952Y-124245714D01*
X65016095Y-124245714D01*
X64920857Y-124293333D01*
X64873238Y-124388571D01*
X64873238Y-124912380D01*
X63968476Y-124864761D02*
X64063714Y-124912380D01*
X64254190Y-124912380D01*
X64349428Y-124864761D01*
X64397047Y-124817142D01*
X64444666Y-124721904D01*
X64444666Y-124436190D01*
X64397047Y-124340952D01*
X64349428Y-124293333D01*
X64254190Y-124245714D01*
X64063714Y-124245714D01*
X63968476Y-124293333D01*
X63111333Y-124245714D02*
X63111333Y-124912380D01*
X63539904Y-124245714D02*
X63539904Y-124769523D01*
X63492285Y-124864761D01*
X63397047Y-124912380D01*
X63254190Y-124912380D01*
X63158952Y-124864761D01*
X63111333Y-124817142D01*
X62635142Y-124912380D02*
X62635142Y-123912380D01*
X62635142Y-124293333D02*
X62539904Y-124245714D01*
X62349428Y-124245714D01*
X62254190Y-124293333D01*
X62206571Y-124340952D01*
X62158952Y-124436190D01*
X62158952Y-124721904D01*
X62206571Y-124817142D01*
X62254190Y-124864761D01*
X62349428Y-124912380D01*
X62539904Y-124912380D01*
X62635142Y-124864761D01*
X61301809Y-124912380D02*
X61301809Y-124388571D01*
X61349428Y-124293333D01*
X61444666Y-124245714D01*
X61635142Y-124245714D01*
X61730380Y-124293333D01*
X61301809Y-124864761D02*
X61397047Y-124912380D01*
X61635142Y-124912380D01*
X61730380Y-124864761D01*
X61778000Y-124769523D01*
X61778000Y-124674285D01*
X61730380Y-124579047D01*
X61635142Y-124531428D01*
X61397047Y-124531428D01*
X61301809Y-124483809D01*
X60968476Y-124245714D02*
X60587523Y-124245714D01*
X60825619Y-123912380D02*
X60825619Y-124769523D01*
X60778000Y-124864761D01*
X60682761Y-124912380D01*
X60587523Y-124912380D01*
X60111333Y-124912380D02*
X60206571Y-124864761D01*
X60254190Y-124817142D01*
X60301809Y-124721904D01*
X60301809Y-124436190D01*
X60254190Y-124340952D01*
X60206571Y-124293333D01*
X60111333Y-124245714D01*
X59968476Y-124245714D01*
X59873238Y-124293333D01*
X59825619Y-124340952D01*
X59778000Y-124436190D01*
X59778000Y-124721904D01*
X59825619Y-124817142D01*
X59873238Y-124864761D01*
X59968476Y-124912380D01*
X60111333Y-124912380D01*
X59349428Y-124912380D02*
X59349428Y-124245714D01*
X59349428Y-124436190D02*
X59301809Y-124340952D01*
X59254190Y-124293333D01*
X59158952Y-124245714D01*
X59063714Y-124245714D01*
X58063714Y-124245714D02*
X57825619Y-124912380D01*
X57587523Y-124245714D01*
X57254190Y-124007619D02*
X57206571Y-123960000D01*
X57111333Y-123912380D01*
X56873238Y-123912380D01*
X56778000Y-123960000D01*
X56730380Y-124007619D01*
X56682761Y-124102857D01*
X56682761Y-124198095D01*
X56730380Y-124340952D01*
X57301809Y-124912380D01*
X56682761Y-124912380D01*
X56063714Y-123912380D02*
X55968476Y-123912380D01*
X55873238Y-123960000D01*
X55825619Y-124007619D01*
X55778000Y-124102857D01*
X55730380Y-124293333D01*
X55730380Y-124531428D01*
X55778000Y-124721904D01*
X55825619Y-124817142D01*
X55873238Y-124864761D01*
X55968476Y-124912380D01*
X56063714Y-124912380D01*
X56158952Y-124864761D01*
X56206571Y-124817142D01*
X56254190Y-124721904D01*
X56301809Y-124531428D01*
X56301809Y-124293333D01*
X56254190Y-124102857D01*
X56206571Y-124007619D01*
X56158952Y-123960000D01*
X56063714Y-123912380D01*
X55349428Y-124007619D02*
X55301809Y-123960000D01*
X55206571Y-123912380D01*
X54968476Y-123912380D01*
X54873238Y-123960000D01*
X54825619Y-124007619D01*
X54778000Y-124102857D01*
X54778000Y-124198095D01*
X54825619Y-124340952D01*
X55397047Y-124912380D01*
X54778000Y-124912380D01*
X53825619Y-124912380D02*
X54397047Y-124912380D01*
X54111333Y-124912380D02*
X54111333Y-123912380D01*
X54206571Y-124055238D01*
X54301809Y-124150476D01*
X54397047Y-124198095D01*
X53206571Y-123912380D02*
X53111333Y-123912380D01*
X53016095Y-123960000D01*
X52968476Y-124007619D01*
X52920857Y-124102857D01*
X52873238Y-124293333D01*
X52873238Y-124531428D01*
X52920857Y-124721904D01*
X52968476Y-124817142D01*
X53016095Y-124864761D01*
X53111333Y-124912380D01*
X53206571Y-124912380D01*
X53301809Y-124864761D01*
X53349428Y-124817142D01*
X53397047Y-124721904D01*
X53444666Y-124531428D01*
X53444666Y-124293333D01*
X53397047Y-124102857D01*
X53349428Y-124007619D01*
X53301809Y-123960000D01*
X53206571Y-123912380D01*
X52492285Y-124007619D02*
X52444666Y-123960000D01*
X52349428Y-123912380D01*
X52111333Y-123912380D01*
X52016095Y-123960000D01*
X51968476Y-124007619D01*
X51920857Y-124102857D01*
X51920857Y-124198095D01*
X51968476Y-124340952D01*
X52539904Y-124912380D01*
X51920857Y-124912380D01*
D11*
X40020000Y-87405000D02*
X39820000Y-87405000D01*
X39820000Y-87405000D02*
X39820000Y-83105000D01*
X39820000Y-83105000D02*
X39970000Y-83105000D01*
X44870000Y-83105000D02*
X45020000Y-83105000D01*
X45020000Y-83105000D02*
X45020000Y-87405000D01*
X45020000Y-87405000D02*
X44820000Y-87405000D01*
X77189000Y-91577936D02*
X77189000Y-92032064D01*
X75719000Y-91577936D02*
X75719000Y-92032064D01*
X73379000Y-91577936D02*
X73379000Y-92032064D01*
X71909000Y-91577936D02*
X71909000Y-92032064D01*
X71474000Y-91577936D02*
X71474000Y-92032064D01*
X70004000Y-91577936D02*
X70004000Y-92032064D01*
X75284000Y-91577936D02*
X75284000Y-92032064D01*
X73814000Y-91577936D02*
X73814000Y-92032064D01*
X66521000Y-91577936D02*
X66521000Y-92032064D01*
X65051000Y-91577936D02*
X65051000Y-92032064D01*
X62711000Y-91577936D02*
X62711000Y-92032064D01*
X61241000Y-91577936D02*
X61241000Y-92032064D01*
X60806000Y-91577936D02*
X60806000Y-92032064D01*
X59336000Y-91577936D02*
X59336000Y-92032064D01*
X64616000Y-91577936D02*
X64616000Y-92032064D01*
X63146000Y-91577936D02*
X63146000Y-92032064D01*
X98525000Y-91577936D02*
X98525000Y-92032064D01*
X97055000Y-91577936D02*
X97055000Y-92032064D01*
X94715000Y-91577936D02*
X94715000Y-92032064D01*
X93245000Y-91577936D02*
X93245000Y-92032064D01*
X92810000Y-91577936D02*
X92810000Y-92032064D01*
X91340000Y-91577936D02*
X91340000Y-92032064D01*
X96620000Y-91577936D02*
X96620000Y-92032064D01*
X95150000Y-91577936D02*
X95150000Y-92032064D01*
X87857000Y-91577936D02*
X87857000Y-92032064D01*
X86387000Y-91577936D02*
X86387000Y-92032064D01*
X84047000Y-91577936D02*
X84047000Y-92032064D01*
X82577000Y-91577936D02*
X82577000Y-92032064D01*
X82142000Y-91577936D02*
X82142000Y-92032064D01*
X80672000Y-91577936D02*
X80672000Y-92032064D01*
X85952000Y-91577936D02*
X85952000Y-92032064D01*
X84482000Y-91577936D02*
X84482000Y-92032064D01*
X55853000Y-91577936D02*
X55853000Y-92032064D01*
X54383000Y-91577936D02*
X54383000Y-92032064D01*
X52043000Y-91577936D02*
X52043000Y-92032064D01*
X50573000Y-91577936D02*
X50573000Y-92032064D01*
X50138000Y-91577936D02*
X50138000Y-92032064D01*
X48668000Y-91577936D02*
X48668000Y-92032064D01*
X53948000Y-91577936D02*
X53948000Y-92032064D01*
X52478000Y-91577936D02*
X52478000Y-92032064D01*
X45185000Y-91577936D02*
X45185000Y-92032064D01*
X43715000Y-91577936D02*
X43715000Y-92032064D01*
X41375000Y-91577936D02*
X41375000Y-92032064D01*
X39905000Y-91577936D02*
X39905000Y-92032064D01*
X39470000Y-91577936D02*
X39470000Y-92032064D01*
X38000000Y-91577936D02*
X38000000Y-92032064D01*
X43280000Y-91577936D02*
X43280000Y-92032064D01*
X41810000Y-91577936D02*
X41810000Y-92032064D01*
X72024000Y-87405000D02*
X71824000Y-87405000D01*
X71824000Y-87405000D02*
X71824000Y-83105000D01*
X71824000Y-83105000D02*
X71974000Y-83105000D01*
X76874000Y-83105000D02*
X77024000Y-83105000D01*
X77024000Y-83105000D02*
X77024000Y-87405000D01*
X77024000Y-87405000D02*
X76824000Y-87405000D01*
X61356000Y-87405000D02*
X61156000Y-87405000D01*
X61156000Y-87405000D02*
X61156000Y-83105000D01*
X61156000Y-83105000D02*
X61306000Y-83105000D01*
X66206000Y-83105000D02*
X66356000Y-83105000D01*
X66356000Y-83105000D02*
X66356000Y-87405000D01*
X66356000Y-87405000D02*
X66156000Y-87405000D01*
X93360000Y-87405000D02*
X93160000Y-87405000D01*
X93160000Y-87405000D02*
X93160000Y-83105000D01*
X93160000Y-83105000D02*
X93310000Y-83105000D01*
X98210000Y-83105000D02*
X98360000Y-83105000D01*
X98360000Y-83105000D02*
X98360000Y-87405000D01*
X98360000Y-87405000D02*
X98160000Y-87405000D01*
X82692000Y-87405000D02*
X82492000Y-87405000D01*
X82492000Y-87405000D02*
X82492000Y-83105000D01*
X82492000Y-83105000D02*
X82642000Y-83105000D01*
X87542000Y-83105000D02*
X87692000Y-83105000D01*
X87692000Y-83105000D02*
X87692000Y-87405000D01*
X87692000Y-87405000D02*
X87492000Y-87405000D01*
X50688000Y-87405000D02*
X50488000Y-87405000D01*
X50488000Y-87405000D02*
X50488000Y-83105000D01*
X50488000Y-83105000D02*
X50638000Y-83105000D01*
X55538000Y-83105000D02*
X55688000Y-83105000D01*
X55688000Y-83105000D02*
X55688000Y-87405000D01*
X55688000Y-87405000D02*
X55488000Y-87405000D01*
D10*
X46447619Y-85239761D02*
X46400000Y-85144523D01*
X46304761Y-85049285D01*
X46161904Y-84906428D01*
X46114285Y-84811190D01*
X46114285Y-84715952D01*
X46352380Y-84763571D02*
X46304761Y-84668333D01*
X46209523Y-84573095D01*
X46019047Y-84525476D01*
X45685714Y-84525476D01*
X45495238Y-84573095D01*
X45400000Y-84668333D01*
X45352380Y-84763571D01*
X45352380Y-84954047D01*
X45400000Y-85049285D01*
X45495238Y-85144523D01*
X45685714Y-85192142D01*
X46019047Y-85192142D01*
X46209523Y-85144523D01*
X46304761Y-85049285D01*
X46352380Y-84954047D01*
X46352380Y-84763571D01*
X45352380Y-85525476D02*
X45352380Y-86144523D01*
X45733333Y-85811190D01*
X45733333Y-85954047D01*
X45780952Y-86049285D01*
X45828571Y-86096904D01*
X45923809Y-86144523D01*
X46161904Y-86144523D01*
X46257142Y-86096904D01*
X46304761Y-86049285D01*
X46352380Y-85954047D01*
X46352380Y-85668333D01*
X46304761Y-85573095D01*
X46257142Y-85525476D01*
X75256380Y-91162142D02*
X74780190Y-90828809D01*
X75256380Y-90590714D02*
X74256380Y-90590714D01*
X74256380Y-90971666D01*
X74304000Y-91066904D01*
X74351619Y-91114523D01*
X74446857Y-91162142D01*
X74589714Y-91162142D01*
X74684952Y-91114523D01*
X74732571Y-91066904D01*
X74780190Y-90971666D01*
X74780190Y-90590714D01*
X74589714Y-92019285D02*
X75256380Y-92019285D01*
X74208761Y-91781190D02*
X74923047Y-91543095D01*
X74923047Y-92162142D01*
X75256380Y-92590714D02*
X75256380Y-92781190D01*
X75208761Y-92876428D01*
X75161142Y-92924047D01*
X75018285Y-93019285D01*
X74827809Y-93066904D01*
X74446857Y-93066904D01*
X74351619Y-93019285D01*
X74304000Y-92971666D01*
X74256380Y-92876428D01*
X74256380Y-92685952D01*
X74304000Y-92590714D01*
X74351619Y-92543095D01*
X74446857Y-92495476D01*
X74684952Y-92495476D01*
X74780190Y-92543095D01*
X74827809Y-92590714D01*
X74875428Y-92685952D01*
X74875428Y-92876428D01*
X74827809Y-92971666D01*
X74780190Y-93019285D01*
X74684952Y-93066904D01*
X71446380Y-91162142D02*
X70970190Y-90828809D01*
X71446380Y-90590714D02*
X70446380Y-90590714D01*
X70446380Y-90971666D01*
X70494000Y-91066904D01*
X70541619Y-91114523D01*
X70636857Y-91162142D01*
X70779714Y-91162142D01*
X70874952Y-91114523D01*
X70922571Y-91066904D01*
X70970190Y-90971666D01*
X70970190Y-90590714D01*
X70779714Y-92019285D02*
X71446380Y-92019285D01*
X70398761Y-91781190D02*
X71113047Y-91543095D01*
X71113047Y-92162142D01*
X70874952Y-92685952D02*
X70827333Y-92590714D01*
X70779714Y-92543095D01*
X70684476Y-92495476D01*
X70636857Y-92495476D01*
X70541619Y-92543095D01*
X70494000Y-92590714D01*
X70446380Y-92685952D01*
X70446380Y-92876428D01*
X70494000Y-92971666D01*
X70541619Y-93019285D01*
X70636857Y-93066904D01*
X70684476Y-93066904D01*
X70779714Y-93019285D01*
X70827333Y-92971666D01*
X70874952Y-92876428D01*
X70874952Y-92685952D01*
X70922571Y-92590714D01*
X70970190Y-92543095D01*
X71065428Y-92495476D01*
X71255904Y-92495476D01*
X71351142Y-92543095D01*
X71398761Y-92590714D01*
X71446380Y-92685952D01*
X71446380Y-92876428D01*
X71398761Y-92971666D01*
X71351142Y-93019285D01*
X71255904Y-93066904D01*
X71065428Y-93066904D01*
X70970190Y-93019285D01*
X70922571Y-92971666D01*
X70874952Y-92876428D01*
X69541380Y-91162142D02*
X69065190Y-90828809D01*
X69541380Y-90590714D02*
X68541380Y-90590714D01*
X68541380Y-90971666D01*
X68589000Y-91066904D01*
X68636619Y-91114523D01*
X68731857Y-91162142D01*
X68874714Y-91162142D01*
X68969952Y-91114523D01*
X69017571Y-91066904D01*
X69065190Y-90971666D01*
X69065190Y-90590714D01*
X68874714Y-92019285D02*
X69541380Y-92019285D01*
X68493761Y-91781190D02*
X69208047Y-91543095D01*
X69208047Y-92162142D01*
X68541380Y-92447857D02*
X68541380Y-93114523D01*
X69541380Y-92685952D01*
X73351380Y-91162142D02*
X72875190Y-90828809D01*
X73351380Y-90590714D02*
X72351380Y-90590714D01*
X72351380Y-90971666D01*
X72399000Y-91066904D01*
X72446619Y-91114523D01*
X72541857Y-91162142D01*
X72684714Y-91162142D01*
X72779952Y-91114523D01*
X72827571Y-91066904D01*
X72875190Y-90971666D01*
X72875190Y-90590714D01*
X72684714Y-92019285D02*
X73351380Y-92019285D01*
X72303761Y-91781190D02*
X73018047Y-91543095D01*
X73018047Y-92162142D01*
X72351380Y-92971666D02*
X72351380Y-92781190D01*
X72399000Y-92685952D01*
X72446619Y-92638333D01*
X72589476Y-92543095D01*
X72779952Y-92495476D01*
X73160904Y-92495476D01*
X73256142Y-92543095D01*
X73303761Y-92590714D01*
X73351380Y-92685952D01*
X73351380Y-92876428D01*
X73303761Y-92971666D01*
X73256142Y-93019285D01*
X73160904Y-93066904D01*
X72922809Y-93066904D01*
X72827571Y-93019285D01*
X72779952Y-92971666D01*
X72732333Y-92876428D01*
X72732333Y-92685952D01*
X72779952Y-92590714D01*
X72827571Y-92543095D01*
X72922809Y-92495476D01*
X64588380Y-91162142D02*
X64112190Y-90828809D01*
X64588380Y-90590714D02*
X63588380Y-90590714D01*
X63588380Y-90971666D01*
X63636000Y-91066904D01*
X63683619Y-91114523D01*
X63778857Y-91162142D01*
X63921714Y-91162142D01*
X64016952Y-91114523D01*
X64064571Y-91066904D01*
X64112190Y-90971666D01*
X64112190Y-90590714D01*
X63921714Y-92019285D02*
X64588380Y-92019285D01*
X63540761Y-91781190D02*
X64255047Y-91543095D01*
X64255047Y-92162142D01*
X63588380Y-93019285D02*
X63588380Y-92543095D01*
X64064571Y-92495476D01*
X64016952Y-92543095D01*
X63969333Y-92638333D01*
X63969333Y-92876428D01*
X64016952Y-92971666D01*
X64064571Y-93019285D01*
X64159809Y-93066904D01*
X64397904Y-93066904D01*
X64493142Y-93019285D01*
X64540761Y-92971666D01*
X64588380Y-92876428D01*
X64588380Y-92638333D01*
X64540761Y-92543095D01*
X64493142Y-92495476D01*
X60778380Y-91162142D02*
X60302190Y-90828809D01*
X60778380Y-90590714D02*
X59778380Y-90590714D01*
X59778380Y-90971666D01*
X59826000Y-91066904D01*
X59873619Y-91114523D01*
X59968857Y-91162142D01*
X60111714Y-91162142D01*
X60206952Y-91114523D01*
X60254571Y-91066904D01*
X60302190Y-90971666D01*
X60302190Y-90590714D01*
X60111714Y-92019285D02*
X60778380Y-92019285D01*
X59730761Y-91781190D02*
X60445047Y-91543095D01*
X60445047Y-92162142D01*
X60111714Y-92971666D02*
X60778380Y-92971666D01*
X59730761Y-92733571D02*
X60445047Y-92495476D01*
X60445047Y-93114523D01*
X58873380Y-91162142D02*
X58397190Y-90828809D01*
X58873380Y-90590714D02*
X57873380Y-90590714D01*
X57873380Y-90971666D01*
X57921000Y-91066904D01*
X57968619Y-91114523D01*
X58063857Y-91162142D01*
X58206714Y-91162142D01*
X58301952Y-91114523D01*
X58349571Y-91066904D01*
X58397190Y-90971666D01*
X58397190Y-90590714D01*
X58206714Y-92019285D02*
X58873380Y-92019285D01*
X57825761Y-91781190D02*
X58540047Y-91543095D01*
X58540047Y-92162142D01*
X57873380Y-92447857D02*
X57873380Y-93066904D01*
X58254333Y-92733571D01*
X58254333Y-92876428D01*
X58301952Y-92971666D01*
X58349571Y-93019285D01*
X58444809Y-93066904D01*
X58682904Y-93066904D01*
X58778142Y-93019285D01*
X58825761Y-92971666D01*
X58873380Y-92876428D01*
X58873380Y-92590714D01*
X58825761Y-92495476D01*
X58778142Y-92447857D01*
X62683380Y-91162142D02*
X62207190Y-90828809D01*
X62683380Y-90590714D02*
X61683380Y-90590714D01*
X61683380Y-90971666D01*
X61731000Y-91066904D01*
X61778619Y-91114523D01*
X61873857Y-91162142D01*
X62016714Y-91162142D01*
X62111952Y-91114523D01*
X62159571Y-91066904D01*
X62207190Y-90971666D01*
X62207190Y-90590714D01*
X62016714Y-92019285D02*
X62683380Y-92019285D01*
X61635761Y-91781190D02*
X62350047Y-91543095D01*
X62350047Y-92162142D01*
X61778619Y-92495476D02*
X61731000Y-92543095D01*
X61683380Y-92638333D01*
X61683380Y-92876428D01*
X61731000Y-92971666D01*
X61778619Y-93019285D01*
X61873857Y-93066904D01*
X61969095Y-93066904D01*
X62111952Y-93019285D01*
X62683380Y-92447857D01*
X62683380Y-93066904D01*
X96592380Y-91162142D02*
X96116190Y-90828809D01*
X96592380Y-90590714D02*
X95592380Y-90590714D01*
X95592380Y-90971666D01*
X95640000Y-91066904D01*
X95687619Y-91114523D01*
X95782857Y-91162142D01*
X95925714Y-91162142D01*
X96020952Y-91114523D01*
X96068571Y-91066904D01*
X96116190Y-90971666D01*
X96116190Y-90590714D01*
X95925714Y-92019285D02*
X96592380Y-92019285D01*
X95544761Y-91781190D02*
X96259047Y-91543095D01*
X96259047Y-92162142D01*
X96592380Y-93066904D02*
X96592380Y-92495476D01*
X96592380Y-92781190D02*
X95592380Y-92781190D01*
X95735238Y-92685952D01*
X95830476Y-92590714D01*
X95878095Y-92495476D01*
X92782380Y-91162142D02*
X92306190Y-90828809D01*
X92782380Y-90590714D02*
X91782380Y-90590714D01*
X91782380Y-90971666D01*
X91830000Y-91066904D01*
X91877619Y-91114523D01*
X91972857Y-91162142D01*
X92115714Y-91162142D01*
X92210952Y-91114523D01*
X92258571Y-91066904D01*
X92306190Y-90971666D01*
X92306190Y-90590714D01*
X92115714Y-92019285D02*
X92782380Y-92019285D01*
X91734761Y-91781190D02*
X92449047Y-91543095D01*
X92449047Y-92162142D01*
X91782380Y-92733571D02*
X91782380Y-92828809D01*
X91830000Y-92924047D01*
X91877619Y-92971666D01*
X91972857Y-93019285D01*
X92163333Y-93066904D01*
X92401428Y-93066904D01*
X92591904Y-93019285D01*
X92687142Y-92971666D01*
X92734761Y-92924047D01*
X92782380Y-92828809D01*
X92782380Y-92733571D01*
X92734761Y-92638333D01*
X92687142Y-92590714D01*
X92591904Y-92543095D01*
X92401428Y-92495476D01*
X92163333Y-92495476D01*
X91972857Y-92543095D01*
X91877619Y-92590714D01*
X91830000Y-92638333D01*
X91782380Y-92733571D01*
X90877380Y-91162142D02*
X90401190Y-90828809D01*
X90877380Y-90590714D02*
X89877380Y-90590714D01*
X89877380Y-90971666D01*
X89925000Y-91066904D01*
X89972619Y-91114523D01*
X90067857Y-91162142D01*
X90210714Y-91162142D01*
X90305952Y-91114523D01*
X90353571Y-91066904D01*
X90401190Y-90971666D01*
X90401190Y-90590714D01*
X89877380Y-91495476D02*
X89877380Y-92114523D01*
X90258333Y-91781190D01*
X90258333Y-91924047D01*
X90305952Y-92019285D01*
X90353571Y-92066904D01*
X90448809Y-92114523D01*
X90686904Y-92114523D01*
X90782142Y-92066904D01*
X90829761Y-92019285D01*
X90877380Y-91924047D01*
X90877380Y-91638333D01*
X90829761Y-91543095D01*
X90782142Y-91495476D01*
X90877380Y-92590714D02*
X90877380Y-92781190D01*
X90829761Y-92876428D01*
X90782142Y-92924047D01*
X90639285Y-93019285D01*
X90448809Y-93066904D01*
X90067857Y-93066904D01*
X89972619Y-93019285D01*
X89925000Y-92971666D01*
X89877380Y-92876428D01*
X89877380Y-92685952D01*
X89925000Y-92590714D01*
X89972619Y-92543095D01*
X90067857Y-92495476D01*
X90305952Y-92495476D01*
X90401190Y-92543095D01*
X90448809Y-92590714D01*
X90496428Y-92685952D01*
X90496428Y-92876428D01*
X90448809Y-92971666D01*
X90401190Y-93019285D01*
X90305952Y-93066904D01*
X94687380Y-91162142D02*
X94211190Y-90828809D01*
X94687380Y-90590714D02*
X93687380Y-90590714D01*
X93687380Y-90971666D01*
X93735000Y-91066904D01*
X93782619Y-91114523D01*
X93877857Y-91162142D01*
X94020714Y-91162142D01*
X94115952Y-91114523D01*
X94163571Y-91066904D01*
X94211190Y-90971666D01*
X94211190Y-90590714D01*
X93687380Y-91495476D02*
X93687380Y-92114523D01*
X94068333Y-91781190D01*
X94068333Y-91924047D01*
X94115952Y-92019285D01*
X94163571Y-92066904D01*
X94258809Y-92114523D01*
X94496904Y-92114523D01*
X94592142Y-92066904D01*
X94639761Y-92019285D01*
X94687380Y-91924047D01*
X94687380Y-91638333D01*
X94639761Y-91543095D01*
X94592142Y-91495476D01*
X94115952Y-92685952D02*
X94068333Y-92590714D01*
X94020714Y-92543095D01*
X93925476Y-92495476D01*
X93877857Y-92495476D01*
X93782619Y-92543095D01*
X93735000Y-92590714D01*
X93687380Y-92685952D01*
X93687380Y-92876428D01*
X93735000Y-92971666D01*
X93782619Y-93019285D01*
X93877857Y-93066904D01*
X93925476Y-93066904D01*
X94020714Y-93019285D01*
X94068333Y-92971666D01*
X94115952Y-92876428D01*
X94115952Y-92685952D01*
X94163571Y-92590714D01*
X94211190Y-92543095D01*
X94306428Y-92495476D01*
X94496904Y-92495476D01*
X94592142Y-92543095D01*
X94639761Y-92590714D01*
X94687380Y-92685952D01*
X94687380Y-92876428D01*
X94639761Y-92971666D01*
X94592142Y-93019285D01*
X94496904Y-93066904D01*
X94306428Y-93066904D01*
X94211190Y-93019285D01*
X94163571Y-92971666D01*
X94115952Y-92876428D01*
X85924380Y-91162142D02*
X85448190Y-90828809D01*
X85924380Y-90590714D02*
X84924380Y-90590714D01*
X84924380Y-90971666D01*
X84972000Y-91066904D01*
X85019619Y-91114523D01*
X85114857Y-91162142D01*
X85257714Y-91162142D01*
X85352952Y-91114523D01*
X85400571Y-91066904D01*
X85448190Y-90971666D01*
X85448190Y-90590714D01*
X84924380Y-91495476D02*
X84924380Y-92114523D01*
X85305333Y-91781190D01*
X85305333Y-91924047D01*
X85352952Y-92019285D01*
X85400571Y-92066904D01*
X85495809Y-92114523D01*
X85733904Y-92114523D01*
X85829142Y-92066904D01*
X85876761Y-92019285D01*
X85924380Y-91924047D01*
X85924380Y-91638333D01*
X85876761Y-91543095D01*
X85829142Y-91495476D01*
X84924380Y-92971666D02*
X84924380Y-92781190D01*
X84972000Y-92685952D01*
X85019619Y-92638333D01*
X85162476Y-92543095D01*
X85352952Y-92495476D01*
X85733904Y-92495476D01*
X85829142Y-92543095D01*
X85876761Y-92590714D01*
X85924380Y-92685952D01*
X85924380Y-92876428D01*
X85876761Y-92971666D01*
X85829142Y-93019285D01*
X85733904Y-93066904D01*
X85495809Y-93066904D01*
X85400571Y-93019285D01*
X85352952Y-92971666D01*
X85305333Y-92876428D01*
X85305333Y-92685952D01*
X85352952Y-92590714D01*
X85400571Y-92543095D01*
X85495809Y-92495476D01*
X82114380Y-91162142D02*
X81638190Y-90828809D01*
X82114380Y-90590714D02*
X81114380Y-90590714D01*
X81114380Y-90971666D01*
X81162000Y-91066904D01*
X81209619Y-91114523D01*
X81304857Y-91162142D01*
X81447714Y-91162142D01*
X81542952Y-91114523D01*
X81590571Y-91066904D01*
X81638190Y-90971666D01*
X81638190Y-90590714D01*
X81114380Y-91495476D02*
X81114380Y-92114523D01*
X81495333Y-91781190D01*
X81495333Y-91924047D01*
X81542952Y-92019285D01*
X81590571Y-92066904D01*
X81685809Y-92114523D01*
X81923904Y-92114523D01*
X82019142Y-92066904D01*
X82066761Y-92019285D01*
X82114380Y-91924047D01*
X82114380Y-91638333D01*
X82066761Y-91543095D01*
X82019142Y-91495476D01*
X81447714Y-92971666D02*
X82114380Y-92971666D01*
X81066761Y-92733571D02*
X81781047Y-92495476D01*
X81781047Y-93114523D01*
X80209380Y-91162142D02*
X79733190Y-90828809D01*
X80209380Y-90590714D02*
X79209380Y-90590714D01*
X79209380Y-90971666D01*
X79257000Y-91066904D01*
X79304619Y-91114523D01*
X79399857Y-91162142D01*
X79542714Y-91162142D01*
X79637952Y-91114523D01*
X79685571Y-91066904D01*
X79733190Y-90971666D01*
X79733190Y-90590714D01*
X79209380Y-91495476D02*
X79209380Y-92114523D01*
X79590333Y-91781190D01*
X79590333Y-91924047D01*
X79637952Y-92019285D01*
X79685571Y-92066904D01*
X79780809Y-92114523D01*
X80018904Y-92114523D01*
X80114142Y-92066904D01*
X80161761Y-92019285D01*
X80209380Y-91924047D01*
X80209380Y-91638333D01*
X80161761Y-91543095D01*
X80114142Y-91495476D01*
X79209380Y-92733571D02*
X79209380Y-92828809D01*
X79257000Y-92924047D01*
X79304619Y-92971666D01*
X79399857Y-93019285D01*
X79590333Y-93066904D01*
X79828428Y-93066904D01*
X80018904Y-93019285D01*
X80114142Y-92971666D01*
X80161761Y-92924047D01*
X80209380Y-92828809D01*
X80209380Y-92733571D01*
X80161761Y-92638333D01*
X80114142Y-92590714D01*
X80018904Y-92543095D01*
X79828428Y-92495476D01*
X79590333Y-92495476D01*
X79399857Y-92543095D01*
X79304619Y-92590714D01*
X79257000Y-92638333D01*
X79209380Y-92733571D01*
X84019380Y-91162142D02*
X83543190Y-90828809D01*
X84019380Y-90590714D02*
X83019380Y-90590714D01*
X83019380Y-90971666D01*
X83067000Y-91066904D01*
X83114619Y-91114523D01*
X83209857Y-91162142D01*
X83352714Y-91162142D01*
X83447952Y-91114523D01*
X83495571Y-91066904D01*
X83543190Y-90971666D01*
X83543190Y-90590714D01*
X83114619Y-91543095D02*
X83067000Y-91590714D01*
X83019380Y-91685952D01*
X83019380Y-91924047D01*
X83067000Y-92019285D01*
X83114619Y-92066904D01*
X83209857Y-92114523D01*
X83305095Y-92114523D01*
X83447952Y-92066904D01*
X84019380Y-91495476D01*
X84019380Y-92114523D01*
X83447952Y-92685952D02*
X83400333Y-92590714D01*
X83352714Y-92543095D01*
X83257476Y-92495476D01*
X83209857Y-92495476D01*
X83114619Y-92543095D01*
X83067000Y-92590714D01*
X83019380Y-92685952D01*
X83019380Y-92876428D01*
X83067000Y-92971666D01*
X83114619Y-93019285D01*
X83209857Y-93066904D01*
X83257476Y-93066904D01*
X83352714Y-93019285D01*
X83400333Y-92971666D01*
X83447952Y-92876428D01*
X83447952Y-92685952D01*
X83495571Y-92590714D01*
X83543190Y-92543095D01*
X83638428Y-92495476D01*
X83828904Y-92495476D01*
X83924142Y-92543095D01*
X83971761Y-92590714D01*
X84019380Y-92685952D01*
X84019380Y-92876428D01*
X83971761Y-92971666D01*
X83924142Y-93019285D01*
X83828904Y-93066904D01*
X83638428Y-93066904D01*
X83543190Y-93019285D01*
X83495571Y-92971666D01*
X83447952Y-92876428D01*
X53920380Y-91162142D02*
X53444190Y-90828809D01*
X53920380Y-90590714D02*
X52920380Y-90590714D01*
X52920380Y-90971666D01*
X52968000Y-91066904D01*
X53015619Y-91114523D01*
X53110857Y-91162142D01*
X53253714Y-91162142D01*
X53348952Y-91114523D01*
X53396571Y-91066904D01*
X53444190Y-90971666D01*
X53444190Y-90590714D01*
X53015619Y-91543095D02*
X52968000Y-91590714D01*
X52920380Y-91685952D01*
X52920380Y-91924047D01*
X52968000Y-92019285D01*
X53015619Y-92066904D01*
X53110857Y-92114523D01*
X53206095Y-92114523D01*
X53348952Y-92066904D01*
X53920380Y-91495476D01*
X53920380Y-92114523D01*
X53253714Y-92971666D02*
X53920380Y-92971666D01*
X52872761Y-92733571D02*
X53587047Y-92495476D01*
X53587047Y-93114523D01*
X50110380Y-91162142D02*
X49634190Y-90828809D01*
X50110380Y-90590714D02*
X49110380Y-90590714D01*
X49110380Y-90971666D01*
X49158000Y-91066904D01*
X49205619Y-91114523D01*
X49300857Y-91162142D01*
X49443714Y-91162142D01*
X49538952Y-91114523D01*
X49586571Y-91066904D01*
X49634190Y-90971666D01*
X49634190Y-90590714D01*
X49205619Y-91543095D02*
X49158000Y-91590714D01*
X49110380Y-91685952D01*
X49110380Y-91924047D01*
X49158000Y-92019285D01*
X49205619Y-92066904D01*
X49300857Y-92114523D01*
X49396095Y-92114523D01*
X49538952Y-92066904D01*
X50110380Y-91495476D01*
X50110380Y-92114523D01*
X49205619Y-92495476D02*
X49158000Y-92543095D01*
X49110380Y-92638333D01*
X49110380Y-92876428D01*
X49158000Y-92971666D01*
X49205619Y-93019285D01*
X49300857Y-93066904D01*
X49396095Y-93066904D01*
X49538952Y-93019285D01*
X50110380Y-92447857D01*
X50110380Y-93066904D01*
X48205380Y-91162142D02*
X47729190Y-90828809D01*
X48205380Y-90590714D02*
X47205380Y-90590714D01*
X47205380Y-90971666D01*
X47253000Y-91066904D01*
X47300619Y-91114523D01*
X47395857Y-91162142D01*
X47538714Y-91162142D01*
X47633952Y-91114523D01*
X47681571Y-91066904D01*
X47729190Y-90971666D01*
X47729190Y-90590714D01*
X48205380Y-92114523D02*
X48205380Y-91543095D01*
X48205380Y-91828809D02*
X47205380Y-91828809D01*
X47348238Y-91733571D01*
X47443476Y-91638333D01*
X47491095Y-91543095D01*
X47633952Y-92685952D02*
X47586333Y-92590714D01*
X47538714Y-92543095D01*
X47443476Y-92495476D01*
X47395857Y-92495476D01*
X47300619Y-92543095D01*
X47253000Y-92590714D01*
X47205380Y-92685952D01*
X47205380Y-92876428D01*
X47253000Y-92971666D01*
X47300619Y-93019285D01*
X47395857Y-93066904D01*
X47443476Y-93066904D01*
X47538714Y-93019285D01*
X47586333Y-92971666D01*
X47633952Y-92876428D01*
X47633952Y-92685952D01*
X47681571Y-92590714D01*
X47729190Y-92543095D01*
X47824428Y-92495476D01*
X48014904Y-92495476D01*
X48110142Y-92543095D01*
X48157761Y-92590714D01*
X48205380Y-92685952D01*
X48205380Y-92876428D01*
X48157761Y-92971666D01*
X48110142Y-93019285D01*
X48014904Y-93066904D01*
X47824428Y-93066904D01*
X47729190Y-93019285D01*
X47681571Y-92971666D01*
X47633952Y-92876428D01*
X52015380Y-91162142D02*
X51539190Y-90828809D01*
X52015380Y-90590714D02*
X51015380Y-90590714D01*
X51015380Y-90971666D01*
X51063000Y-91066904D01*
X51110619Y-91114523D01*
X51205857Y-91162142D01*
X51348714Y-91162142D01*
X51443952Y-91114523D01*
X51491571Y-91066904D01*
X51539190Y-90971666D01*
X51539190Y-90590714D01*
X52015380Y-92114523D02*
X52015380Y-91543095D01*
X52015380Y-91828809D02*
X51015380Y-91828809D01*
X51158238Y-91733571D01*
X51253476Y-91638333D01*
X51301095Y-91543095D01*
X51015380Y-92971666D02*
X51015380Y-92781190D01*
X51063000Y-92685952D01*
X51110619Y-92638333D01*
X51253476Y-92543095D01*
X51443952Y-92495476D01*
X51824904Y-92495476D01*
X51920142Y-92543095D01*
X51967761Y-92590714D01*
X52015380Y-92685952D01*
X52015380Y-92876428D01*
X51967761Y-92971666D01*
X51920142Y-93019285D01*
X51824904Y-93066904D01*
X51586809Y-93066904D01*
X51491571Y-93019285D01*
X51443952Y-92971666D01*
X51396333Y-92876428D01*
X51396333Y-92685952D01*
X51443952Y-92590714D01*
X51491571Y-92543095D01*
X51586809Y-92495476D01*
X43252380Y-91162142D02*
X42776190Y-90828809D01*
X43252380Y-90590714D02*
X42252380Y-90590714D01*
X42252380Y-90971666D01*
X42300000Y-91066904D01*
X42347619Y-91114523D01*
X42442857Y-91162142D01*
X42585714Y-91162142D01*
X42680952Y-91114523D01*
X42728571Y-91066904D01*
X42776190Y-90971666D01*
X42776190Y-90590714D01*
X43252380Y-92114523D02*
X43252380Y-91543095D01*
X43252380Y-91828809D02*
X42252380Y-91828809D01*
X42395238Y-91733571D01*
X42490476Y-91638333D01*
X42538095Y-91543095D01*
X42347619Y-92495476D02*
X42300000Y-92543095D01*
X42252380Y-92638333D01*
X42252380Y-92876428D01*
X42300000Y-92971666D01*
X42347619Y-93019285D01*
X42442857Y-93066904D01*
X42538095Y-93066904D01*
X42680952Y-93019285D01*
X43252380Y-92447857D01*
X43252380Y-93066904D01*
X39442380Y-91162142D02*
X38966190Y-90828809D01*
X39442380Y-90590714D02*
X38442380Y-90590714D01*
X38442380Y-90971666D01*
X38490000Y-91066904D01*
X38537619Y-91114523D01*
X38632857Y-91162142D01*
X38775714Y-91162142D01*
X38870952Y-91114523D01*
X38918571Y-91066904D01*
X38966190Y-90971666D01*
X38966190Y-90590714D01*
X39442380Y-92114523D02*
X39442380Y-91543095D01*
X39442380Y-91828809D02*
X38442380Y-91828809D01*
X38585238Y-91733571D01*
X38680476Y-91638333D01*
X38728095Y-91543095D01*
X38442380Y-92733571D02*
X38442380Y-92828809D01*
X38490000Y-92924047D01*
X38537619Y-92971666D01*
X38632857Y-93019285D01*
X38823333Y-93066904D01*
X39061428Y-93066904D01*
X39251904Y-93019285D01*
X39347142Y-92971666D01*
X39394761Y-92924047D01*
X39442380Y-92828809D01*
X39442380Y-92733571D01*
X39394761Y-92638333D01*
X39347142Y-92590714D01*
X39251904Y-92543095D01*
X39061428Y-92495476D01*
X38823333Y-92495476D01*
X38632857Y-92543095D01*
X38537619Y-92590714D01*
X38490000Y-92638333D01*
X38442380Y-92733571D01*
X37537380Y-91638333D02*
X37061190Y-91305000D01*
X37537380Y-91066904D02*
X36537380Y-91066904D01*
X36537380Y-91447857D01*
X36585000Y-91543095D01*
X36632619Y-91590714D01*
X36727857Y-91638333D01*
X36870714Y-91638333D01*
X36965952Y-91590714D01*
X37013571Y-91543095D01*
X37061190Y-91447857D01*
X37061190Y-91066904D01*
X36537380Y-92495476D02*
X36537380Y-92305000D01*
X36585000Y-92209761D01*
X36632619Y-92162142D01*
X36775476Y-92066904D01*
X36965952Y-92019285D01*
X37346904Y-92019285D01*
X37442142Y-92066904D01*
X37489761Y-92114523D01*
X37537380Y-92209761D01*
X37537380Y-92400238D01*
X37489761Y-92495476D01*
X37442142Y-92543095D01*
X37346904Y-92590714D01*
X37108809Y-92590714D01*
X37013571Y-92543095D01*
X36965952Y-92495476D01*
X36918333Y-92400238D01*
X36918333Y-92209761D01*
X36965952Y-92114523D01*
X37013571Y-92066904D01*
X37108809Y-92019285D01*
X41347380Y-91638333D02*
X40871190Y-91305000D01*
X41347380Y-91066904D02*
X40347380Y-91066904D01*
X40347380Y-91447857D01*
X40395000Y-91543095D01*
X40442619Y-91590714D01*
X40537857Y-91638333D01*
X40680714Y-91638333D01*
X40775952Y-91590714D01*
X40823571Y-91543095D01*
X40871190Y-91447857D01*
X40871190Y-91066904D01*
X40680714Y-92495476D02*
X41347380Y-92495476D01*
X40299761Y-92257380D02*
X41014047Y-92019285D01*
X41014047Y-92638333D01*
X78451619Y-84763571D02*
X78404000Y-84668333D01*
X78308761Y-84573095D01*
X78165904Y-84430238D01*
X78118285Y-84335000D01*
X78118285Y-84239761D01*
X78356380Y-84287380D02*
X78308761Y-84192142D01*
X78213523Y-84096904D01*
X78023047Y-84049285D01*
X77689714Y-84049285D01*
X77499238Y-84096904D01*
X77404000Y-84192142D01*
X77356380Y-84287380D01*
X77356380Y-84477857D01*
X77404000Y-84573095D01*
X77499238Y-84668333D01*
X77689714Y-84715952D01*
X78023047Y-84715952D01*
X78213523Y-84668333D01*
X78308761Y-84573095D01*
X78356380Y-84477857D01*
X78356380Y-84287380D01*
X78356380Y-85668333D02*
X78356380Y-85096904D01*
X78356380Y-85382619D02*
X77356380Y-85382619D01*
X77499238Y-85287380D01*
X77594476Y-85192142D01*
X77642095Y-85096904D01*
X77784952Y-86239761D02*
X77737333Y-86144523D01*
X77689714Y-86096904D01*
X77594476Y-86049285D01*
X77546857Y-86049285D01*
X77451619Y-86096904D01*
X77404000Y-86144523D01*
X77356380Y-86239761D01*
X77356380Y-86430238D01*
X77404000Y-86525476D01*
X77451619Y-86573095D01*
X77546857Y-86620714D01*
X77594476Y-86620714D01*
X77689714Y-86573095D01*
X77737333Y-86525476D01*
X77784952Y-86430238D01*
X77784952Y-86239761D01*
X77832571Y-86144523D01*
X77880190Y-86096904D01*
X77975428Y-86049285D01*
X78165904Y-86049285D01*
X78261142Y-86096904D01*
X78308761Y-86144523D01*
X78356380Y-86239761D01*
X78356380Y-86430238D01*
X78308761Y-86525476D01*
X78261142Y-86573095D01*
X78165904Y-86620714D01*
X77975428Y-86620714D01*
X77880190Y-86573095D01*
X77832571Y-86525476D01*
X77784952Y-86430238D01*
X67783619Y-84763571D02*
X67736000Y-84668333D01*
X67640761Y-84573095D01*
X67497904Y-84430238D01*
X67450285Y-84335000D01*
X67450285Y-84239761D01*
X67688380Y-84287380D02*
X67640761Y-84192142D01*
X67545523Y-84096904D01*
X67355047Y-84049285D01*
X67021714Y-84049285D01*
X66831238Y-84096904D01*
X66736000Y-84192142D01*
X66688380Y-84287380D01*
X66688380Y-84477857D01*
X66736000Y-84573095D01*
X66831238Y-84668333D01*
X67021714Y-84715952D01*
X67355047Y-84715952D01*
X67545523Y-84668333D01*
X67640761Y-84573095D01*
X67688380Y-84477857D01*
X67688380Y-84287380D01*
X67688380Y-85668333D02*
X67688380Y-85096904D01*
X67688380Y-85382619D02*
X66688380Y-85382619D01*
X66831238Y-85287380D01*
X66926476Y-85192142D01*
X66974095Y-85096904D01*
X66688380Y-86573095D02*
X66688380Y-86096904D01*
X67164571Y-86049285D01*
X67116952Y-86096904D01*
X67069333Y-86192142D01*
X67069333Y-86430238D01*
X67116952Y-86525476D01*
X67164571Y-86573095D01*
X67259809Y-86620714D01*
X67497904Y-86620714D01*
X67593142Y-86573095D01*
X67640761Y-86525476D01*
X67688380Y-86430238D01*
X67688380Y-86192142D01*
X67640761Y-86096904D01*
X67593142Y-86049285D01*
X99787619Y-84763571D02*
X99740000Y-84668333D01*
X99644761Y-84573095D01*
X99501904Y-84430238D01*
X99454285Y-84335000D01*
X99454285Y-84239761D01*
X99692380Y-84287380D02*
X99644761Y-84192142D01*
X99549523Y-84096904D01*
X99359047Y-84049285D01*
X99025714Y-84049285D01*
X98835238Y-84096904D01*
X98740000Y-84192142D01*
X98692380Y-84287380D01*
X98692380Y-84477857D01*
X98740000Y-84573095D01*
X98835238Y-84668333D01*
X99025714Y-84715952D01*
X99359047Y-84715952D01*
X99549523Y-84668333D01*
X99644761Y-84573095D01*
X99692380Y-84477857D01*
X99692380Y-84287380D01*
X99692380Y-85668333D02*
X99692380Y-85096904D01*
X99692380Y-85382619D02*
X98692380Y-85382619D01*
X98835238Y-85287380D01*
X98930476Y-85192142D01*
X98978095Y-85096904D01*
X98787619Y-86049285D02*
X98740000Y-86096904D01*
X98692380Y-86192142D01*
X98692380Y-86430238D01*
X98740000Y-86525476D01*
X98787619Y-86573095D01*
X98882857Y-86620714D01*
X98978095Y-86620714D01*
X99120952Y-86573095D01*
X99692380Y-86001666D01*
X99692380Y-86620714D01*
X89119619Y-85239761D02*
X89072000Y-85144523D01*
X88976761Y-85049285D01*
X88833904Y-84906428D01*
X88786285Y-84811190D01*
X88786285Y-84715952D01*
X89024380Y-84763571D02*
X88976761Y-84668333D01*
X88881523Y-84573095D01*
X88691047Y-84525476D01*
X88357714Y-84525476D01*
X88167238Y-84573095D01*
X88072000Y-84668333D01*
X88024380Y-84763571D01*
X88024380Y-84954047D01*
X88072000Y-85049285D01*
X88167238Y-85144523D01*
X88357714Y-85192142D01*
X88691047Y-85192142D01*
X88881523Y-85144523D01*
X88976761Y-85049285D01*
X89024380Y-84954047D01*
X89024380Y-84763571D01*
X89024380Y-85668333D02*
X89024380Y-85858809D01*
X88976761Y-85954047D01*
X88929142Y-86001666D01*
X88786285Y-86096904D01*
X88595809Y-86144523D01*
X88214857Y-86144523D01*
X88119619Y-86096904D01*
X88072000Y-86049285D01*
X88024380Y-85954047D01*
X88024380Y-85763571D01*
X88072000Y-85668333D01*
X88119619Y-85620714D01*
X88214857Y-85573095D01*
X88452952Y-85573095D01*
X88548190Y-85620714D01*
X88595809Y-85668333D01*
X88643428Y-85763571D01*
X88643428Y-85954047D01*
X88595809Y-86049285D01*
X88548190Y-86096904D01*
X88452952Y-86144523D01*
X57115619Y-85239761D02*
X57068000Y-85144523D01*
X56972761Y-85049285D01*
X56829904Y-84906428D01*
X56782285Y-84811190D01*
X56782285Y-84715952D01*
X57020380Y-84763571D02*
X56972761Y-84668333D01*
X56877523Y-84573095D01*
X56687047Y-84525476D01*
X56353714Y-84525476D01*
X56163238Y-84573095D01*
X56068000Y-84668333D01*
X56020380Y-84763571D01*
X56020380Y-84954047D01*
X56068000Y-85049285D01*
X56163238Y-85144523D01*
X56353714Y-85192142D01*
X56687047Y-85192142D01*
X56877523Y-85144523D01*
X56972761Y-85049285D01*
X57020380Y-84954047D01*
X57020380Y-84763571D01*
X56020380Y-86049285D02*
X56020380Y-85858809D01*
X56068000Y-85763571D01*
X56115619Y-85715952D01*
X56258476Y-85620714D01*
X56448952Y-85573095D01*
X56829904Y-85573095D01*
X56925142Y-85620714D01*
X56972761Y-85668333D01*
X57020380Y-85763571D01*
X57020380Y-85954047D01*
X56972761Y-86049285D01*
X56925142Y-86096904D01*
X56829904Y-86144523D01*
X56591809Y-86144523D01*
X56496571Y-86096904D01*
X56448952Y-86049285D01*
X56401333Y-85954047D01*
X56401333Y-85763571D01*
X56448952Y-85668333D01*
X56496571Y-85620714D01*
X56591809Y-85573095D01*
M02*
