%TF.GenerationSoftware,KiCad,Pcbnew,5.1.9+dfsg1-1*%
%TF.CreationDate,2021-02-28T18:52:37-05:00*%
%TF.ProjectId,incubator_pcb,696e6375-6261-4746-9f72-5f7063622e6b,rev?*%
%TF.SameCoordinates,Original*%
%TF.FileFunction,Paste,Bot*%
%TF.FilePolarity,Positive*%
%FSLAX46Y46*%
G04 Gerber Fmt 4.6, Leading zero omitted, Abs format (unit mm)*
G04 Created by KiCad (PCBNEW 5.1.9+dfsg1-1) date 2021-02-28 18:52:37*
%MOMM*%
%LPD*%
G01*
G04 APERTURE LIST*
%ADD10R,0.600000X2.050000*%
G04 APERTURE END LIST*
D10*
X40520000Y-82550000D03*
X41790000Y-82550000D03*
X43060000Y-82550000D03*
X44330000Y-82550000D03*
X40510000Y-87925000D03*
X41780000Y-87925000D03*
X44330000Y-87925000D03*
X43060000Y-87925000D03*
G36*
G01*
X76003999Y-92205000D02*
X76904001Y-92205000D01*
G75*
G02*
X77154000Y-92454999I0J-249999D01*
G01*
X77154000Y-93155001D01*
G75*
G02*
X76904001Y-93405000I-249999J0D01*
G01*
X76003999Y-93405000D01*
G75*
G02*
X75754000Y-93155001I0J249999D01*
G01*
X75754000Y-92454999D01*
G75*
G02*
X76003999Y-92205000I249999J0D01*
G01*
G37*
G36*
G01*
X76003999Y-90205000D02*
X76904001Y-90205000D01*
G75*
G02*
X77154000Y-90454999I0J-249999D01*
G01*
X77154000Y-91155001D01*
G75*
G02*
X76904001Y-91405000I-249999J0D01*
G01*
X76003999Y-91405000D01*
G75*
G02*
X75754000Y-91155001I0J249999D01*
G01*
X75754000Y-90454999D01*
G75*
G02*
X76003999Y-90205000I249999J0D01*
G01*
G37*
G36*
G01*
X72193999Y-92205000D02*
X73094001Y-92205000D01*
G75*
G02*
X73344000Y-92454999I0J-249999D01*
G01*
X73344000Y-93155001D01*
G75*
G02*
X73094001Y-93405000I-249999J0D01*
G01*
X72193999Y-93405000D01*
G75*
G02*
X71944000Y-93155001I0J249999D01*
G01*
X71944000Y-92454999D01*
G75*
G02*
X72193999Y-92205000I249999J0D01*
G01*
G37*
G36*
G01*
X72193999Y-90205000D02*
X73094001Y-90205000D01*
G75*
G02*
X73344000Y-90454999I0J-249999D01*
G01*
X73344000Y-91155001D01*
G75*
G02*
X73094001Y-91405000I-249999J0D01*
G01*
X72193999Y-91405000D01*
G75*
G02*
X71944000Y-91155001I0J249999D01*
G01*
X71944000Y-90454999D01*
G75*
G02*
X72193999Y-90205000I249999J0D01*
G01*
G37*
G36*
G01*
X70288999Y-92205000D02*
X71189001Y-92205000D01*
G75*
G02*
X71439000Y-92454999I0J-249999D01*
G01*
X71439000Y-93155001D01*
G75*
G02*
X71189001Y-93405000I-249999J0D01*
G01*
X70288999Y-93405000D01*
G75*
G02*
X70039000Y-93155001I0J249999D01*
G01*
X70039000Y-92454999D01*
G75*
G02*
X70288999Y-92205000I249999J0D01*
G01*
G37*
G36*
G01*
X70288999Y-90205000D02*
X71189001Y-90205000D01*
G75*
G02*
X71439000Y-90454999I0J-249999D01*
G01*
X71439000Y-91155001D01*
G75*
G02*
X71189001Y-91405000I-249999J0D01*
G01*
X70288999Y-91405000D01*
G75*
G02*
X70039000Y-91155001I0J249999D01*
G01*
X70039000Y-90454999D01*
G75*
G02*
X70288999Y-90205000I249999J0D01*
G01*
G37*
G36*
G01*
X74098999Y-92205000D02*
X74999001Y-92205000D01*
G75*
G02*
X75249000Y-92454999I0J-249999D01*
G01*
X75249000Y-93155001D01*
G75*
G02*
X74999001Y-93405000I-249999J0D01*
G01*
X74098999Y-93405000D01*
G75*
G02*
X73849000Y-93155001I0J249999D01*
G01*
X73849000Y-92454999D01*
G75*
G02*
X74098999Y-92205000I249999J0D01*
G01*
G37*
G36*
G01*
X74098999Y-90205000D02*
X74999001Y-90205000D01*
G75*
G02*
X75249000Y-90454999I0J-249999D01*
G01*
X75249000Y-91155001D01*
G75*
G02*
X74999001Y-91405000I-249999J0D01*
G01*
X74098999Y-91405000D01*
G75*
G02*
X73849000Y-91155001I0J249999D01*
G01*
X73849000Y-90454999D01*
G75*
G02*
X74098999Y-90205000I249999J0D01*
G01*
G37*
G36*
G01*
X65335999Y-92205000D02*
X66236001Y-92205000D01*
G75*
G02*
X66486000Y-92454999I0J-249999D01*
G01*
X66486000Y-93155001D01*
G75*
G02*
X66236001Y-93405000I-249999J0D01*
G01*
X65335999Y-93405000D01*
G75*
G02*
X65086000Y-93155001I0J249999D01*
G01*
X65086000Y-92454999D01*
G75*
G02*
X65335999Y-92205000I249999J0D01*
G01*
G37*
G36*
G01*
X65335999Y-90205000D02*
X66236001Y-90205000D01*
G75*
G02*
X66486000Y-90454999I0J-249999D01*
G01*
X66486000Y-91155001D01*
G75*
G02*
X66236001Y-91405000I-249999J0D01*
G01*
X65335999Y-91405000D01*
G75*
G02*
X65086000Y-91155001I0J249999D01*
G01*
X65086000Y-90454999D01*
G75*
G02*
X65335999Y-90205000I249999J0D01*
G01*
G37*
G36*
G01*
X61525999Y-92205000D02*
X62426001Y-92205000D01*
G75*
G02*
X62676000Y-92454999I0J-249999D01*
G01*
X62676000Y-93155001D01*
G75*
G02*
X62426001Y-93405000I-249999J0D01*
G01*
X61525999Y-93405000D01*
G75*
G02*
X61276000Y-93155001I0J249999D01*
G01*
X61276000Y-92454999D01*
G75*
G02*
X61525999Y-92205000I249999J0D01*
G01*
G37*
G36*
G01*
X61525999Y-90205000D02*
X62426001Y-90205000D01*
G75*
G02*
X62676000Y-90454999I0J-249999D01*
G01*
X62676000Y-91155001D01*
G75*
G02*
X62426001Y-91405000I-249999J0D01*
G01*
X61525999Y-91405000D01*
G75*
G02*
X61276000Y-91155001I0J249999D01*
G01*
X61276000Y-90454999D01*
G75*
G02*
X61525999Y-90205000I249999J0D01*
G01*
G37*
G36*
G01*
X59620999Y-92205000D02*
X60521001Y-92205000D01*
G75*
G02*
X60771000Y-92454999I0J-249999D01*
G01*
X60771000Y-93155001D01*
G75*
G02*
X60521001Y-93405000I-249999J0D01*
G01*
X59620999Y-93405000D01*
G75*
G02*
X59371000Y-93155001I0J249999D01*
G01*
X59371000Y-92454999D01*
G75*
G02*
X59620999Y-92205000I249999J0D01*
G01*
G37*
G36*
G01*
X59620999Y-90205000D02*
X60521001Y-90205000D01*
G75*
G02*
X60771000Y-90454999I0J-249999D01*
G01*
X60771000Y-91155001D01*
G75*
G02*
X60521001Y-91405000I-249999J0D01*
G01*
X59620999Y-91405000D01*
G75*
G02*
X59371000Y-91155001I0J249999D01*
G01*
X59371000Y-90454999D01*
G75*
G02*
X59620999Y-90205000I249999J0D01*
G01*
G37*
G36*
G01*
X63430999Y-92205000D02*
X64331001Y-92205000D01*
G75*
G02*
X64581000Y-92454999I0J-249999D01*
G01*
X64581000Y-93155001D01*
G75*
G02*
X64331001Y-93405000I-249999J0D01*
G01*
X63430999Y-93405000D01*
G75*
G02*
X63181000Y-93155001I0J249999D01*
G01*
X63181000Y-92454999D01*
G75*
G02*
X63430999Y-92205000I249999J0D01*
G01*
G37*
G36*
G01*
X63430999Y-90205000D02*
X64331001Y-90205000D01*
G75*
G02*
X64581000Y-90454999I0J-249999D01*
G01*
X64581000Y-91155001D01*
G75*
G02*
X64331001Y-91405000I-249999J0D01*
G01*
X63430999Y-91405000D01*
G75*
G02*
X63181000Y-91155001I0J249999D01*
G01*
X63181000Y-90454999D01*
G75*
G02*
X63430999Y-90205000I249999J0D01*
G01*
G37*
G36*
G01*
X97339999Y-92205000D02*
X98240001Y-92205000D01*
G75*
G02*
X98490000Y-92454999I0J-249999D01*
G01*
X98490000Y-93155001D01*
G75*
G02*
X98240001Y-93405000I-249999J0D01*
G01*
X97339999Y-93405000D01*
G75*
G02*
X97090000Y-93155001I0J249999D01*
G01*
X97090000Y-92454999D01*
G75*
G02*
X97339999Y-92205000I249999J0D01*
G01*
G37*
G36*
G01*
X97339999Y-90205000D02*
X98240001Y-90205000D01*
G75*
G02*
X98490000Y-90454999I0J-249999D01*
G01*
X98490000Y-91155001D01*
G75*
G02*
X98240001Y-91405000I-249999J0D01*
G01*
X97339999Y-91405000D01*
G75*
G02*
X97090000Y-91155001I0J249999D01*
G01*
X97090000Y-90454999D01*
G75*
G02*
X97339999Y-90205000I249999J0D01*
G01*
G37*
G36*
G01*
X93529999Y-92205000D02*
X94430001Y-92205000D01*
G75*
G02*
X94680000Y-92454999I0J-249999D01*
G01*
X94680000Y-93155001D01*
G75*
G02*
X94430001Y-93405000I-249999J0D01*
G01*
X93529999Y-93405000D01*
G75*
G02*
X93280000Y-93155001I0J249999D01*
G01*
X93280000Y-92454999D01*
G75*
G02*
X93529999Y-92205000I249999J0D01*
G01*
G37*
G36*
G01*
X93529999Y-90205000D02*
X94430001Y-90205000D01*
G75*
G02*
X94680000Y-90454999I0J-249999D01*
G01*
X94680000Y-91155001D01*
G75*
G02*
X94430001Y-91405000I-249999J0D01*
G01*
X93529999Y-91405000D01*
G75*
G02*
X93280000Y-91155001I0J249999D01*
G01*
X93280000Y-90454999D01*
G75*
G02*
X93529999Y-90205000I249999J0D01*
G01*
G37*
G36*
G01*
X91624999Y-92205000D02*
X92525001Y-92205000D01*
G75*
G02*
X92775000Y-92454999I0J-249999D01*
G01*
X92775000Y-93155001D01*
G75*
G02*
X92525001Y-93405000I-249999J0D01*
G01*
X91624999Y-93405000D01*
G75*
G02*
X91375000Y-93155001I0J249999D01*
G01*
X91375000Y-92454999D01*
G75*
G02*
X91624999Y-92205000I249999J0D01*
G01*
G37*
G36*
G01*
X91624999Y-90205000D02*
X92525001Y-90205000D01*
G75*
G02*
X92775000Y-90454999I0J-249999D01*
G01*
X92775000Y-91155001D01*
G75*
G02*
X92525001Y-91405000I-249999J0D01*
G01*
X91624999Y-91405000D01*
G75*
G02*
X91375000Y-91155001I0J249999D01*
G01*
X91375000Y-90454999D01*
G75*
G02*
X91624999Y-90205000I249999J0D01*
G01*
G37*
G36*
G01*
X95434999Y-92205000D02*
X96335001Y-92205000D01*
G75*
G02*
X96585000Y-92454999I0J-249999D01*
G01*
X96585000Y-93155001D01*
G75*
G02*
X96335001Y-93405000I-249999J0D01*
G01*
X95434999Y-93405000D01*
G75*
G02*
X95185000Y-93155001I0J249999D01*
G01*
X95185000Y-92454999D01*
G75*
G02*
X95434999Y-92205000I249999J0D01*
G01*
G37*
G36*
G01*
X95434999Y-90205000D02*
X96335001Y-90205000D01*
G75*
G02*
X96585000Y-90454999I0J-249999D01*
G01*
X96585000Y-91155001D01*
G75*
G02*
X96335001Y-91405000I-249999J0D01*
G01*
X95434999Y-91405000D01*
G75*
G02*
X95185000Y-91155001I0J249999D01*
G01*
X95185000Y-90454999D01*
G75*
G02*
X95434999Y-90205000I249999J0D01*
G01*
G37*
G36*
G01*
X86671999Y-92205000D02*
X87572001Y-92205000D01*
G75*
G02*
X87822000Y-92454999I0J-249999D01*
G01*
X87822000Y-93155001D01*
G75*
G02*
X87572001Y-93405000I-249999J0D01*
G01*
X86671999Y-93405000D01*
G75*
G02*
X86422000Y-93155001I0J249999D01*
G01*
X86422000Y-92454999D01*
G75*
G02*
X86671999Y-92205000I249999J0D01*
G01*
G37*
G36*
G01*
X86671999Y-90205000D02*
X87572001Y-90205000D01*
G75*
G02*
X87822000Y-90454999I0J-249999D01*
G01*
X87822000Y-91155001D01*
G75*
G02*
X87572001Y-91405000I-249999J0D01*
G01*
X86671999Y-91405000D01*
G75*
G02*
X86422000Y-91155001I0J249999D01*
G01*
X86422000Y-90454999D01*
G75*
G02*
X86671999Y-90205000I249999J0D01*
G01*
G37*
G36*
G01*
X82861999Y-92205000D02*
X83762001Y-92205000D01*
G75*
G02*
X84012000Y-92454999I0J-249999D01*
G01*
X84012000Y-93155001D01*
G75*
G02*
X83762001Y-93405000I-249999J0D01*
G01*
X82861999Y-93405000D01*
G75*
G02*
X82612000Y-93155001I0J249999D01*
G01*
X82612000Y-92454999D01*
G75*
G02*
X82861999Y-92205000I249999J0D01*
G01*
G37*
G36*
G01*
X82861999Y-90205000D02*
X83762001Y-90205000D01*
G75*
G02*
X84012000Y-90454999I0J-249999D01*
G01*
X84012000Y-91155001D01*
G75*
G02*
X83762001Y-91405000I-249999J0D01*
G01*
X82861999Y-91405000D01*
G75*
G02*
X82612000Y-91155001I0J249999D01*
G01*
X82612000Y-90454999D01*
G75*
G02*
X82861999Y-90205000I249999J0D01*
G01*
G37*
G36*
G01*
X80956999Y-92205000D02*
X81857001Y-92205000D01*
G75*
G02*
X82107000Y-92454999I0J-249999D01*
G01*
X82107000Y-93155001D01*
G75*
G02*
X81857001Y-93405000I-249999J0D01*
G01*
X80956999Y-93405000D01*
G75*
G02*
X80707000Y-93155001I0J249999D01*
G01*
X80707000Y-92454999D01*
G75*
G02*
X80956999Y-92205000I249999J0D01*
G01*
G37*
G36*
G01*
X80956999Y-90205000D02*
X81857001Y-90205000D01*
G75*
G02*
X82107000Y-90454999I0J-249999D01*
G01*
X82107000Y-91155001D01*
G75*
G02*
X81857001Y-91405000I-249999J0D01*
G01*
X80956999Y-91405000D01*
G75*
G02*
X80707000Y-91155001I0J249999D01*
G01*
X80707000Y-90454999D01*
G75*
G02*
X80956999Y-90205000I249999J0D01*
G01*
G37*
G36*
G01*
X84766999Y-92205000D02*
X85667001Y-92205000D01*
G75*
G02*
X85917000Y-92454999I0J-249999D01*
G01*
X85917000Y-93155001D01*
G75*
G02*
X85667001Y-93405000I-249999J0D01*
G01*
X84766999Y-93405000D01*
G75*
G02*
X84517000Y-93155001I0J249999D01*
G01*
X84517000Y-92454999D01*
G75*
G02*
X84766999Y-92205000I249999J0D01*
G01*
G37*
G36*
G01*
X84766999Y-90205000D02*
X85667001Y-90205000D01*
G75*
G02*
X85917000Y-90454999I0J-249999D01*
G01*
X85917000Y-91155001D01*
G75*
G02*
X85667001Y-91405000I-249999J0D01*
G01*
X84766999Y-91405000D01*
G75*
G02*
X84517000Y-91155001I0J249999D01*
G01*
X84517000Y-90454999D01*
G75*
G02*
X84766999Y-90205000I249999J0D01*
G01*
G37*
G36*
G01*
X54667999Y-92205000D02*
X55568001Y-92205000D01*
G75*
G02*
X55818000Y-92454999I0J-249999D01*
G01*
X55818000Y-93155001D01*
G75*
G02*
X55568001Y-93405000I-249999J0D01*
G01*
X54667999Y-93405000D01*
G75*
G02*
X54418000Y-93155001I0J249999D01*
G01*
X54418000Y-92454999D01*
G75*
G02*
X54667999Y-92205000I249999J0D01*
G01*
G37*
G36*
G01*
X54667999Y-90205000D02*
X55568001Y-90205000D01*
G75*
G02*
X55818000Y-90454999I0J-249999D01*
G01*
X55818000Y-91155001D01*
G75*
G02*
X55568001Y-91405000I-249999J0D01*
G01*
X54667999Y-91405000D01*
G75*
G02*
X54418000Y-91155001I0J249999D01*
G01*
X54418000Y-90454999D01*
G75*
G02*
X54667999Y-90205000I249999J0D01*
G01*
G37*
G36*
G01*
X50857999Y-92205000D02*
X51758001Y-92205000D01*
G75*
G02*
X52008000Y-92454999I0J-249999D01*
G01*
X52008000Y-93155001D01*
G75*
G02*
X51758001Y-93405000I-249999J0D01*
G01*
X50857999Y-93405000D01*
G75*
G02*
X50608000Y-93155001I0J249999D01*
G01*
X50608000Y-92454999D01*
G75*
G02*
X50857999Y-92205000I249999J0D01*
G01*
G37*
G36*
G01*
X50857999Y-90205000D02*
X51758001Y-90205000D01*
G75*
G02*
X52008000Y-90454999I0J-249999D01*
G01*
X52008000Y-91155001D01*
G75*
G02*
X51758001Y-91405000I-249999J0D01*
G01*
X50857999Y-91405000D01*
G75*
G02*
X50608000Y-91155001I0J249999D01*
G01*
X50608000Y-90454999D01*
G75*
G02*
X50857999Y-90205000I249999J0D01*
G01*
G37*
G36*
G01*
X48952999Y-92205000D02*
X49853001Y-92205000D01*
G75*
G02*
X50103000Y-92454999I0J-249999D01*
G01*
X50103000Y-93155001D01*
G75*
G02*
X49853001Y-93405000I-249999J0D01*
G01*
X48952999Y-93405000D01*
G75*
G02*
X48703000Y-93155001I0J249999D01*
G01*
X48703000Y-92454999D01*
G75*
G02*
X48952999Y-92205000I249999J0D01*
G01*
G37*
G36*
G01*
X48952999Y-90205000D02*
X49853001Y-90205000D01*
G75*
G02*
X50103000Y-90454999I0J-249999D01*
G01*
X50103000Y-91155001D01*
G75*
G02*
X49853001Y-91405000I-249999J0D01*
G01*
X48952999Y-91405000D01*
G75*
G02*
X48703000Y-91155001I0J249999D01*
G01*
X48703000Y-90454999D01*
G75*
G02*
X48952999Y-90205000I249999J0D01*
G01*
G37*
G36*
G01*
X52762999Y-92205000D02*
X53663001Y-92205000D01*
G75*
G02*
X53913000Y-92454999I0J-249999D01*
G01*
X53913000Y-93155001D01*
G75*
G02*
X53663001Y-93405000I-249999J0D01*
G01*
X52762999Y-93405000D01*
G75*
G02*
X52513000Y-93155001I0J249999D01*
G01*
X52513000Y-92454999D01*
G75*
G02*
X52762999Y-92205000I249999J0D01*
G01*
G37*
G36*
G01*
X52762999Y-90205000D02*
X53663001Y-90205000D01*
G75*
G02*
X53913000Y-90454999I0J-249999D01*
G01*
X53913000Y-91155001D01*
G75*
G02*
X53663001Y-91405000I-249999J0D01*
G01*
X52762999Y-91405000D01*
G75*
G02*
X52513000Y-91155001I0J249999D01*
G01*
X52513000Y-90454999D01*
G75*
G02*
X52762999Y-90205000I249999J0D01*
G01*
G37*
G36*
G01*
X43999999Y-92205000D02*
X44900001Y-92205000D01*
G75*
G02*
X45150000Y-92454999I0J-249999D01*
G01*
X45150000Y-93155001D01*
G75*
G02*
X44900001Y-93405000I-249999J0D01*
G01*
X43999999Y-93405000D01*
G75*
G02*
X43750000Y-93155001I0J249999D01*
G01*
X43750000Y-92454999D01*
G75*
G02*
X43999999Y-92205000I249999J0D01*
G01*
G37*
G36*
G01*
X43999999Y-90205000D02*
X44900001Y-90205000D01*
G75*
G02*
X45150000Y-90454999I0J-249999D01*
G01*
X45150000Y-91155001D01*
G75*
G02*
X44900001Y-91405000I-249999J0D01*
G01*
X43999999Y-91405000D01*
G75*
G02*
X43750000Y-91155001I0J249999D01*
G01*
X43750000Y-90454999D01*
G75*
G02*
X43999999Y-90205000I249999J0D01*
G01*
G37*
G36*
G01*
X40189999Y-92205000D02*
X41090001Y-92205000D01*
G75*
G02*
X41340000Y-92454999I0J-249999D01*
G01*
X41340000Y-93155001D01*
G75*
G02*
X41090001Y-93405000I-249999J0D01*
G01*
X40189999Y-93405000D01*
G75*
G02*
X39940000Y-93155001I0J249999D01*
G01*
X39940000Y-92454999D01*
G75*
G02*
X40189999Y-92205000I249999J0D01*
G01*
G37*
G36*
G01*
X40189999Y-90205000D02*
X41090001Y-90205000D01*
G75*
G02*
X41340000Y-90454999I0J-249999D01*
G01*
X41340000Y-91155001D01*
G75*
G02*
X41090001Y-91405000I-249999J0D01*
G01*
X40189999Y-91405000D01*
G75*
G02*
X39940000Y-91155001I0J249999D01*
G01*
X39940000Y-90454999D01*
G75*
G02*
X40189999Y-90205000I249999J0D01*
G01*
G37*
G36*
G01*
X38284999Y-92205000D02*
X39185001Y-92205000D01*
G75*
G02*
X39435000Y-92454999I0J-249999D01*
G01*
X39435000Y-93155001D01*
G75*
G02*
X39185001Y-93405000I-249999J0D01*
G01*
X38284999Y-93405000D01*
G75*
G02*
X38035000Y-93155001I0J249999D01*
G01*
X38035000Y-92454999D01*
G75*
G02*
X38284999Y-92205000I249999J0D01*
G01*
G37*
G36*
G01*
X38284999Y-90205000D02*
X39185001Y-90205000D01*
G75*
G02*
X39435000Y-90454999I0J-249999D01*
G01*
X39435000Y-91155001D01*
G75*
G02*
X39185001Y-91405000I-249999J0D01*
G01*
X38284999Y-91405000D01*
G75*
G02*
X38035000Y-91155001I0J249999D01*
G01*
X38035000Y-90454999D01*
G75*
G02*
X38284999Y-90205000I249999J0D01*
G01*
G37*
G36*
G01*
X42094999Y-92205000D02*
X42995001Y-92205000D01*
G75*
G02*
X43245000Y-92454999I0J-249999D01*
G01*
X43245000Y-93155001D01*
G75*
G02*
X42995001Y-93405000I-249999J0D01*
G01*
X42094999Y-93405000D01*
G75*
G02*
X41845000Y-93155001I0J249999D01*
G01*
X41845000Y-92454999D01*
G75*
G02*
X42094999Y-92205000I249999J0D01*
G01*
G37*
G36*
G01*
X42094999Y-90205000D02*
X42995001Y-90205000D01*
G75*
G02*
X43245000Y-90454999I0J-249999D01*
G01*
X43245000Y-91155001D01*
G75*
G02*
X42995001Y-91405000I-249999J0D01*
G01*
X42094999Y-91405000D01*
G75*
G02*
X41845000Y-91155001I0J249999D01*
G01*
X41845000Y-90454999D01*
G75*
G02*
X42094999Y-90205000I249999J0D01*
G01*
G37*
X72524000Y-82550000D03*
X73794000Y-82550000D03*
X75064000Y-82550000D03*
X76334000Y-82550000D03*
X72514000Y-87925000D03*
X73784000Y-87925000D03*
X76334000Y-87925000D03*
X75064000Y-87925000D03*
X61856000Y-82550000D03*
X63126000Y-82550000D03*
X64396000Y-82550000D03*
X65666000Y-82550000D03*
X61846000Y-87925000D03*
X63116000Y-87925000D03*
X65666000Y-87925000D03*
X64396000Y-87925000D03*
X93860000Y-82550000D03*
X95130000Y-82550000D03*
X96400000Y-82550000D03*
X97670000Y-82550000D03*
X93850000Y-87925000D03*
X95120000Y-87925000D03*
X97670000Y-87925000D03*
X96400000Y-87925000D03*
X83192000Y-82550000D03*
X84462000Y-82550000D03*
X85732000Y-82550000D03*
X87002000Y-82550000D03*
X83182000Y-87925000D03*
X84452000Y-87925000D03*
X87002000Y-87925000D03*
X85732000Y-87925000D03*
X51188000Y-82550000D03*
X52458000Y-82550000D03*
X53728000Y-82550000D03*
X54998000Y-82550000D03*
X51178000Y-87925000D03*
X52448000Y-87925000D03*
X54998000Y-87925000D03*
X53728000Y-87925000D03*
M02*
