%FSLAX45Y45*%
G04 Gerber Fmt 4.5, Leading zero omitted, Abs format (unit mm)*
G04 Created by KiCad (PCBNEW (6.0.1)) date 2022-02-20 22:55:02*
%MOMM*%
%LPD*%
G01*
G04 APERTURE LIST*
%TA.AperFunction,Profile*%
%ADD10C,0.100000*%
%TD*%
%ADD11C,0.200000*%
%ADD12C,0.270000*%
%ADD13C,0.300000*%
G04 APERTURE END LIST*
D10*
X4064000Y-10096500D02*
X18034000Y-10096500D01*
X18034000Y-10096500D02*
X18034000Y-17018000D01*
X18034000Y-17018000D02*
X4064000Y-17018000D01*
X4064000Y-17018000D02*
X4064000Y-10096500D01*
D11*
D12*
X4818000Y-10533000D02*
X5088000Y-10803000D01*
X5088000Y-10533000D02*
X4818000Y-10803000D01*
X4818000Y-16375000D02*
X5088000Y-16645000D01*
X5088000Y-16375000D02*
X4818000Y-16645000D01*
X6088000Y-16375000D02*
X6358000Y-16645000D01*
X6358000Y-16375000D02*
X6088000Y-16645000D01*
X6215000Y-10533000D02*
X6485000Y-10803000D01*
X6485000Y-10533000D02*
X6215000Y-10803000D01*
X14597000Y-10533000D02*
X14867000Y-10803000D01*
X14867000Y-10533000D02*
X14597000Y-10803000D01*
X14597000Y-12057000D02*
X14867000Y-12327000D01*
X14867000Y-12057000D02*
X14597000Y-12327000D01*
X14597000Y-13708000D02*
X14867000Y-13978000D01*
X14867000Y-13708000D02*
X14597000Y-13978000D01*
X14597000Y-15105000D02*
X14867000Y-15375000D01*
X14867000Y-15105000D02*
X14597000Y-15375000D01*
D13*
X17540000Y-10935000D02*
G75*
G03*
X17540000Y-10935000I-150000J0D01*
G01*
X17540000Y-15555000D02*
G75*
G03*
X17540000Y-15555000I-150000J0D01*
G01*
D11*
X4316619Y-17333476D02*
X4316619Y-17133476D01*
X4364238Y-17133476D01*
X4392810Y-17143000D01*
X4411857Y-17162048D01*
X4421381Y-17181095D01*
X4430905Y-17219190D01*
X4430905Y-17247762D01*
X4421381Y-17285857D01*
X4411857Y-17304905D01*
X4392810Y-17323952D01*
X4364238Y-17333476D01*
X4316619Y-17333476D01*
X4516619Y-17333476D02*
X4516619Y-17200143D01*
X4516619Y-17238238D02*
X4526143Y-17219190D01*
X4535667Y-17209667D01*
X4554714Y-17200143D01*
X4573762Y-17200143D01*
X4640429Y-17333476D02*
X4640429Y-17200143D01*
X4640429Y-17133476D02*
X4630905Y-17143000D01*
X4640429Y-17152524D01*
X4649952Y-17143000D01*
X4640429Y-17133476D01*
X4640429Y-17152524D01*
X4764238Y-17333476D02*
X4745190Y-17323952D01*
X4735667Y-17304905D01*
X4735667Y-17133476D01*
X4869000Y-17333476D02*
X4849952Y-17323952D01*
X4840429Y-17304905D01*
X4840429Y-17133476D01*
X5097571Y-17333476D02*
X5097571Y-17133476D01*
X5164238Y-17276333D01*
X5230905Y-17133476D01*
X5230905Y-17333476D01*
X5411857Y-17333476D02*
X5411857Y-17228714D01*
X5402333Y-17209667D01*
X5383286Y-17200143D01*
X5345190Y-17200143D01*
X5326143Y-17209667D01*
X5411857Y-17323952D02*
X5392810Y-17333476D01*
X5345190Y-17333476D01*
X5326143Y-17323952D01*
X5316619Y-17304905D01*
X5316619Y-17285857D01*
X5326143Y-17266810D01*
X5345190Y-17257286D01*
X5392810Y-17257286D01*
X5411857Y-17247762D01*
X5507095Y-17200143D02*
X5507095Y-17400143D01*
X5507095Y-17209667D02*
X5526143Y-17200143D01*
X5564238Y-17200143D01*
X5583286Y-17209667D01*
X5592809Y-17219190D01*
X5602333Y-17238238D01*
X5602333Y-17295381D01*
X5592809Y-17314429D01*
X5583286Y-17323952D01*
X5564238Y-17333476D01*
X5526143Y-17333476D01*
X5507095Y-17323952D01*
X5688048Y-17314429D02*
X5697571Y-17323952D01*
X5688048Y-17333476D01*
X5678524Y-17323952D01*
X5688048Y-17314429D01*
X5688048Y-17333476D01*
X5688048Y-17209667D02*
X5697571Y-17219190D01*
X5688048Y-17228714D01*
X5678524Y-17219190D01*
X5688048Y-17209667D01*
X5688048Y-17228714D01*
X3859000Y-17563000D02*
X4059000Y-17763000D01*
X4059000Y-17563000D02*
X3859000Y-17763000D01*
X4307095Y-17572524D02*
X4316619Y-17563000D01*
X4335667Y-17553476D01*
X4383286Y-17553476D01*
X4402333Y-17563000D01*
X4411857Y-17572524D01*
X4421381Y-17591571D01*
X4421381Y-17610619D01*
X4411857Y-17639190D01*
X4297571Y-17753476D01*
X4421381Y-17753476D01*
X4507095Y-17734429D02*
X4516619Y-17743952D01*
X4507095Y-17753476D01*
X4497571Y-17743952D01*
X4507095Y-17734429D01*
X4507095Y-17753476D01*
X4583286Y-17553476D02*
X4716619Y-17553476D01*
X4630905Y-17753476D01*
X4830905Y-17553476D02*
X4849952Y-17553476D01*
X4869000Y-17563000D01*
X4878524Y-17572524D01*
X4888048Y-17591571D01*
X4897571Y-17629667D01*
X4897571Y-17677286D01*
X4888048Y-17715381D01*
X4878524Y-17734429D01*
X4869000Y-17743952D01*
X4849952Y-17753476D01*
X4830905Y-17753476D01*
X4811857Y-17743952D01*
X4802333Y-17734429D01*
X4792810Y-17715381D01*
X4783286Y-17677286D01*
X4783286Y-17629667D01*
X4792810Y-17591571D01*
X4802333Y-17572524D01*
X4811857Y-17563000D01*
X4830905Y-17553476D01*
X5021381Y-17553476D02*
X5040429Y-17553476D01*
X5059476Y-17563000D01*
X5069000Y-17572524D01*
X5078524Y-17591571D01*
X5088048Y-17629667D01*
X5088048Y-17677286D01*
X5078524Y-17715381D01*
X5069000Y-17734429D01*
X5059476Y-17743952D01*
X5040429Y-17753476D01*
X5021381Y-17753476D01*
X5002333Y-17743952D01*
X4992810Y-17734429D01*
X4983286Y-17715381D01*
X4973762Y-17677286D01*
X4973762Y-17629667D01*
X4983286Y-17591571D01*
X4992810Y-17572524D01*
X5002333Y-17563000D01*
X5021381Y-17553476D01*
X5173762Y-17753476D02*
X5173762Y-17620143D01*
X5173762Y-17639190D02*
X5183286Y-17629667D01*
X5202333Y-17620143D01*
X5230905Y-17620143D01*
X5249952Y-17629667D01*
X5259476Y-17648714D01*
X5259476Y-17753476D01*
X5259476Y-17648714D02*
X5269000Y-17629667D01*
X5288048Y-17620143D01*
X5316619Y-17620143D01*
X5335667Y-17629667D01*
X5345190Y-17648714D01*
X5345190Y-17753476D01*
X5440429Y-17753476D02*
X5440429Y-17620143D01*
X5440429Y-17639190D02*
X5449952Y-17629667D01*
X5469000Y-17620143D01*
X5497571Y-17620143D01*
X5516619Y-17629667D01*
X5526143Y-17648714D01*
X5526143Y-17753476D01*
X5526143Y-17648714D02*
X5535667Y-17629667D01*
X5554714Y-17620143D01*
X5583286Y-17620143D01*
X5602333Y-17629667D01*
X5611857Y-17648714D01*
X5611857Y-17753476D01*
X6002333Y-17543952D02*
X5830905Y-17801095D01*
X6259476Y-17553476D02*
X6278524Y-17553476D01*
X6297571Y-17563000D01*
X6307095Y-17572524D01*
X6316619Y-17591571D01*
X6326143Y-17629667D01*
X6326143Y-17677286D01*
X6316619Y-17715381D01*
X6307095Y-17734429D01*
X6297571Y-17743952D01*
X6278524Y-17753476D01*
X6259476Y-17753476D01*
X6240428Y-17743952D01*
X6230905Y-17734429D01*
X6221381Y-17715381D01*
X6211857Y-17677286D01*
X6211857Y-17629667D01*
X6221381Y-17591571D01*
X6230905Y-17572524D01*
X6240428Y-17563000D01*
X6259476Y-17553476D01*
X6411857Y-17734429D02*
X6421381Y-17743952D01*
X6411857Y-17753476D01*
X6402333Y-17743952D01*
X6411857Y-17734429D01*
X6411857Y-17753476D01*
X6611857Y-17753476D02*
X6497571Y-17753476D01*
X6554714Y-17753476D02*
X6554714Y-17553476D01*
X6535667Y-17582048D01*
X6516619Y-17601095D01*
X6497571Y-17610619D01*
X6735667Y-17553476D02*
X6754714Y-17553476D01*
X6773762Y-17563000D01*
X6783286Y-17572524D01*
X6792809Y-17591571D01*
X6802333Y-17629667D01*
X6802333Y-17677286D01*
X6792809Y-17715381D01*
X6783286Y-17734429D01*
X6773762Y-17743952D01*
X6754714Y-17753476D01*
X6735667Y-17753476D01*
X6716619Y-17743952D01*
X6707095Y-17734429D01*
X6697571Y-17715381D01*
X6688048Y-17677286D01*
X6688048Y-17629667D01*
X6697571Y-17591571D01*
X6707095Y-17572524D01*
X6716619Y-17563000D01*
X6735667Y-17553476D01*
X6973762Y-17553476D02*
X6935667Y-17553476D01*
X6916619Y-17563000D01*
X6907095Y-17572524D01*
X6888048Y-17601095D01*
X6878524Y-17639190D01*
X6878524Y-17715381D01*
X6888048Y-17734429D01*
X6897571Y-17743952D01*
X6916619Y-17753476D01*
X6954714Y-17753476D01*
X6973762Y-17743952D01*
X6983286Y-17734429D01*
X6992809Y-17715381D01*
X6992809Y-17667762D01*
X6983286Y-17648714D01*
X6973762Y-17639190D01*
X6954714Y-17629667D01*
X6916619Y-17629667D01*
X6897571Y-17639190D01*
X6888048Y-17648714D01*
X6878524Y-17667762D01*
X7059476Y-17553476D02*
X7183286Y-17553476D01*
X7116619Y-17629667D01*
X7145190Y-17629667D01*
X7164238Y-17639190D01*
X7173762Y-17648714D01*
X7183286Y-17667762D01*
X7183286Y-17715381D01*
X7173762Y-17734429D01*
X7164238Y-17743952D01*
X7145190Y-17753476D01*
X7088048Y-17753476D01*
X7069000Y-17743952D01*
X7059476Y-17734429D01*
X7259476Y-17553476D02*
X7259476Y-17591571D01*
X7335667Y-17553476D02*
X7335667Y-17591571D01*
X7630905Y-17829667D02*
X7621381Y-17820143D01*
X7602333Y-17791571D01*
X7592809Y-17772524D01*
X7583286Y-17743952D01*
X7573762Y-17696333D01*
X7573762Y-17658238D01*
X7583286Y-17610619D01*
X7592809Y-17582048D01*
X7602333Y-17563000D01*
X7621381Y-17534429D01*
X7630905Y-17524905D01*
X7735667Y-17639190D02*
X7716619Y-17629667D01*
X7707095Y-17620143D01*
X7697571Y-17601095D01*
X7697571Y-17591571D01*
X7707095Y-17572524D01*
X7716619Y-17563000D01*
X7735667Y-17553476D01*
X7773762Y-17553476D01*
X7792809Y-17563000D01*
X7802333Y-17572524D01*
X7811857Y-17591571D01*
X7811857Y-17601095D01*
X7802333Y-17620143D01*
X7792809Y-17629667D01*
X7773762Y-17639190D01*
X7735667Y-17639190D01*
X7716619Y-17648714D01*
X7707095Y-17658238D01*
X7697571Y-17677286D01*
X7697571Y-17715381D01*
X7707095Y-17734429D01*
X7716619Y-17743952D01*
X7735667Y-17753476D01*
X7773762Y-17753476D01*
X7792809Y-17743952D01*
X7802333Y-17734429D01*
X7811857Y-17715381D01*
X7811857Y-17677286D01*
X7802333Y-17658238D01*
X7792809Y-17648714D01*
X7773762Y-17639190D01*
X8049952Y-17753476D02*
X8049952Y-17553476D01*
X8135667Y-17753476D02*
X8135667Y-17648714D01*
X8126143Y-17629667D01*
X8107095Y-17620143D01*
X8078524Y-17620143D01*
X8059476Y-17629667D01*
X8049952Y-17639190D01*
X8259476Y-17753476D02*
X8240428Y-17743952D01*
X8230905Y-17734429D01*
X8221381Y-17715381D01*
X8221381Y-17658238D01*
X8230905Y-17639190D01*
X8240428Y-17629667D01*
X8259476Y-17620143D01*
X8288048Y-17620143D01*
X8307095Y-17629667D01*
X8316619Y-17639190D01*
X8326143Y-17658238D01*
X8326143Y-17715381D01*
X8316619Y-17734429D01*
X8307095Y-17743952D01*
X8288048Y-17753476D01*
X8259476Y-17753476D01*
X8440429Y-17753476D02*
X8421381Y-17743952D01*
X8411857Y-17724905D01*
X8411857Y-17553476D01*
X8592810Y-17743952D02*
X8573762Y-17753476D01*
X8535667Y-17753476D01*
X8516619Y-17743952D01*
X8507095Y-17724905D01*
X8507095Y-17648714D01*
X8516619Y-17629667D01*
X8535667Y-17620143D01*
X8573762Y-17620143D01*
X8592810Y-17629667D01*
X8602333Y-17648714D01*
X8602333Y-17667762D01*
X8507095Y-17686810D01*
X8678524Y-17743952D02*
X8697571Y-17753476D01*
X8735667Y-17753476D01*
X8754714Y-17743952D01*
X8764238Y-17724905D01*
X8764238Y-17715381D01*
X8754714Y-17696333D01*
X8735667Y-17686810D01*
X8707095Y-17686810D01*
X8688048Y-17677286D01*
X8678524Y-17658238D01*
X8678524Y-17648714D01*
X8688048Y-17629667D01*
X8707095Y-17620143D01*
X8735667Y-17620143D01*
X8754714Y-17629667D01*
X8830905Y-17829667D02*
X8840429Y-17820143D01*
X8859476Y-17791571D01*
X8869000Y-17772524D01*
X8878524Y-17743952D01*
X8888048Y-17696333D01*
X8888048Y-17658238D01*
X8878524Y-17610619D01*
X8869000Y-17582048D01*
X8859476Y-17563000D01*
X8840429Y-17534429D01*
X8830905Y-17524905D01*
X9192810Y-17829667D02*
X9183286Y-17820143D01*
X9164238Y-17791571D01*
X9154714Y-17772524D01*
X9145190Y-17743952D01*
X9135667Y-17696333D01*
X9135667Y-17658238D01*
X9145190Y-17610619D01*
X9154714Y-17582048D01*
X9164238Y-17563000D01*
X9183286Y-17534429D01*
X9192810Y-17524905D01*
X9269000Y-17620143D02*
X9269000Y-17753476D01*
X9269000Y-17639190D02*
X9278524Y-17629667D01*
X9297571Y-17620143D01*
X9326143Y-17620143D01*
X9345190Y-17629667D01*
X9354714Y-17648714D01*
X9354714Y-17753476D01*
X9478524Y-17753476D02*
X9459476Y-17743952D01*
X9449952Y-17734429D01*
X9440429Y-17715381D01*
X9440429Y-17658238D01*
X9449952Y-17639190D01*
X9459476Y-17629667D01*
X9478524Y-17620143D01*
X9507095Y-17620143D01*
X9526143Y-17629667D01*
X9535667Y-17639190D01*
X9545190Y-17658238D01*
X9545190Y-17715381D01*
X9535667Y-17734429D01*
X9526143Y-17743952D01*
X9507095Y-17753476D01*
X9478524Y-17753476D01*
X9602333Y-17620143D02*
X9678524Y-17620143D01*
X9630905Y-17553476D02*
X9630905Y-17724905D01*
X9640429Y-17743952D01*
X9659476Y-17753476D01*
X9678524Y-17753476D01*
X9897571Y-17620143D02*
X9897571Y-17820143D01*
X9897571Y-17629667D02*
X9916619Y-17620143D01*
X9954714Y-17620143D01*
X9973762Y-17629667D01*
X9983286Y-17639190D01*
X9992810Y-17658238D01*
X9992810Y-17715381D01*
X9983286Y-17734429D01*
X9973762Y-17743952D01*
X9954714Y-17753476D01*
X9916619Y-17753476D01*
X9897571Y-17743952D01*
X10107095Y-17753476D02*
X10088048Y-17743952D01*
X10078524Y-17724905D01*
X10078524Y-17553476D01*
X10269000Y-17753476D02*
X10269000Y-17648714D01*
X10259476Y-17629667D01*
X10240429Y-17620143D01*
X10202333Y-17620143D01*
X10183286Y-17629667D01*
X10269000Y-17743952D02*
X10249952Y-17753476D01*
X10202333Y-17753476D01*
X10183286Y-17743952D01*
X10173762Y-17724905D01*
X10173762Y-17705857D01*
X10183286Y-17686810D01*
X10202333Y-17677286D01*
X10249952Y-17677286D01*
X10269000Y-17667762D01*
X10335667Y-17620143D02*
X10411857Y-17620143D01*
X10364238Y-17553476D02*
X10364238Y-17724905D01*
X10373762Y-17743952D01*
X10392810Y-17753476D01*
X10411857Y-17753476D01*
X10554714Y-17743952D02*
X10535667Y-17753476D01*
X10497571Y-17753476D01*
X10478524Y-17743952D01*
X10469000Y-17724905D01*
X10469000Y-17648714D01*
X10478524Y-17629667D01*
X10497571Y-17620143D01*
X10535667Y-17620143D01*
X10554714Y-17629667D01*
X10564238Y-17648714D01*
X10564238Y-17667762D01*
X10469000Y-17686810D01*
X10735667Y-17753476D02*
X10735667Y-17553476D01*
X10735667Y-17743952D02*
X10716619Y-17753476D01*
X10678524Y-17753476D01*
X10659476Y-17743952D01*
X10649952Y-17734429D01*
X10640429Y-17715381D01*
X10640429Y-17658238D01*
X10649952Y-17639190D01*
X10659476Y-17629667D01*
X10678524Y-17620143D01*
X10716619Y-17620143D01*
X10735667Y-17629667D01*
X10811857Y-17829667D02*
X10821381Y-17820143D01*
X10840429Y-17791571D01*
X10849952Y-17772524D01*
X10859476Y-17743952D01*
X10869000Y-17696333D01*
X10869000Y-17658238D01*
X10859476Y-17610619D01*
X10849952Y-17582048D01*
X10840429Y-17563000D01*
X10821381Y-17534429D01*
X10811857Y-17524905D01*
X4059000Y-17983000D02*
G75*
G03*
X4059000Y-17983000I-100000J0D01*
G01*
X4297571Y-17873476D02*
X4421381Y-17873476D01*
X4354714Y-17949667D01*
X4383286Y-17949667D01*
X4402333Y-17959190D01*
X4411857Y-17968714D01*
X4421381Y-17987762D01*
X4421381Y-18035381D01*
X4411857Y-18054429D01*
X4402333Y-18063952D01*
X4383286Y-18073476D01*
X4326143Y-18073476D01*
X4307095Y-18063952D01*
X4297571Y-18054429D01*
X4507095Y-18054429D02*
X4516619Y-18063952D01*
X4507095Y-18073476D01*
X4497571Y-18063952D01*
X4507095Y-18054429D01*
X4507095Y-18073476D01*
X4640429Y-17873476D02*
X4659476Y-17873476D01*
X4678524Y-17883000D01*
X4688048Y-17892524D01*
X4697571Y-17911571D01*
X4707095Y-17949667D01*
X4707095Y-17997286D01*
X4697571Y-18035381D01*
X4688048Y-18054429D01*
X4678524Y-18063952D01*
X4659476Y-18073476D01*
X4640429Y-18073476D01*
X4621381Y-18063952D01*
X4611857Y-18054429D01*
X4602333Y-18035381D01*
X4592810Y-17997286D01*
X4592810Y-17949667D01*
X4602333Y-17911571D01*
X4611857Y-17892524D01*
X4621381Y-17883000D01*
X4640429Y-17873476D01*
X4830905Y-17873476D02*
X4849952Y-17873476D01*
X4869000Y-17883000D01*
X4878524Y-17892524D01*
X4888048Y-17911571D01*
X4897571Y-17949667D01*
X4897571Y-17997286D01*
X4888048Y-18035381D01*
X4878524Y-18054429D01*
X4869000Y-18063952D01*
X4849952Y-18073476D01*
X4830905Y-18073476D01*
X4811857Y-18063952D01*
X4802333Y-18054429D01*
X4792810Y-18035381D01*
X4783286Y-17997286D01*
X4783286Y-17949667D01*
X4792810Y-17911571D01*
X4802333Y-17892524D01*
X4811857Y-17883000D01*
X4830905Y-17873476D01*
X5021381Y-17873476D02*
X5040429Y-17873476D01*
X5059476Y-17883000D01*
X5069000Y-17892524D01*
X5078524Y-17911571D01*
X5088048Y-17949667D01*
X5088048Y-17997286D01*
X5078524Y-18035381D01*
X5069000Y-18054429D01*
X5059476Y-18063952D01*
X5040429Y-18073476D01*
X5021381Y-18073476D01*
X5002333Y-18063952D01*
X4992810Y-18054429D01*
X4983286Y-18035381D01*
X4973762Y-17997286D01*
X4973762Y-17949667D01*
X4983286Y-17911571D01*
X4992810Y-17892524D01*
X5002333Y-17883000D01*
X5021381Y-17873476D01*
X5173762Y-18073476D02*
X5173762Y-17940143D01*
X5173762Y-17959190D02*
X5183286Y-17949667D01*
X5202333Y-17940143D01*
X5230905Y-17940143D01*
X5249952Y-17949667D01*
X5259476Y-17968714D01*
X5259476Y-18073476D01*
X5259476Y-17968714D02*
X5269000Y-17949667D01*
X5288048Y-17940143D01*
X5316619Y-17940143D01*
X5335667Y-17949667D01*
X5345190Y-17968714D01*
X5345190Y-18073476D01*
X5440429Y-18073476D02*
X5440429Y-17940143D01*
X5440429Y-17959190D02*
X5449952Y-17949667D01*
X5469000Y-17940143D01*
X5497571Y-17940143D01*
X5516619Y-17949667D01*
X5526143Y-17968714D01*
X5526143Y-18073476D01*
X5526143Y-17968714D02*
X5535667Y-17949667D01*
X5554714Y-17940143D01*
X5583286Y-17940143D01*
X5602333Y-17949667D01*
X5611857Y-17968714D01*
X5611857Y-18073476D01*
X6002333Y-17863952D02*
X5830905Y-18121095D01*
X6259476Y-17873476D02*
X6278524Y-17873476D01*
X6297571Y-17883000D01*
X6307095Y-17892524D01*
X6316619Y-17911571D01*
X6326143Y-17949667D01*
X6326143Y-17997286D01*
X6316619Y-18035381D01*
X6307095Y-18054429D01*
X6297571Y-18063952D01*
X6278524Y-18073476D01*
X6259476Y-18073476D01*
X6240428Y-18063952D01*
X6230905Y-18054429D01*
X6221381Y-18035381D01*
X6211857Y-17997286D01*
X6211857Y-17949667D01*
X6221381Y-17911571D01*
X6230905Y-17892524D01*
X6240428Y-17883000D01*
X6259476Y-17873476D01*
X6411857Y-18054429D02*
X6421381Y-18063952D01*
X6411857Y-18073476D01*
X6402333Y-18063952D01*
X6411857Y-18054429D01*
X6411857Y-18073476D01*
X6611857Y-18073476D02*
X6497571Y-18073476D01*
X6554714Y-18073476D02*
X6554714Y-17873476D01*
X6535667Y-17902048D01*
X6516619Y-17921095D01*
X6497571Y-17930619D01*
X6802333Y-18073476D02*
X6688048Y-18073476D01*
X6745190Y-18073476D02*
X6745190Y-17873476D01*
X6726143Y-17902048D01*
X6707095Y-17921095D01*
X6688048Y-17930619D01*
X6916619Y-17959190D02*
X6897571Y-17949667D01*
X6888048Y-17940143D01*
X6878524Y-17921095D01*
X6878524Y-17911571D01*
X6888048Y-17892524D01*
X6897571Y-17883000D01*
X6916619Y-17873476D01*
X6954714Y-17873476D01*
X6973762Y-17883000D01*
X6983286Y-17892524D01*
X6992809Y-17911571D01*
X6992809Y-17921095D01*
X6983286Y-17940143D01*
X6973762Y-17949667D01*
X6954714Y-17959190D01*
X6916619Y-17959190D01*
X6897571Y-17968714D01*
X6888048Y-17978238D01*
X6878524Y-17997286D01*
X6878524Y-18035381D01*
X6888048Y-18054429D01*
X6897571Y-18063952D01*
X6916619Y-18073476D01*
X6954714Y-18073476D01*
X6973762Y-18063952D01*
X6983286Y-18054429D01*
X6992809Y-18035381D01*
X6992809Y-17997286D01*
X6983286Y-17978238D01*
X6973762Y-17968714D01*
X6954714Y-17959190D01*
X7183286Y-18073476D02*
X7069000Y-18073476D01*
X7126143Y-18073476D02*
X7126143Y-17873476D01*
X7107095Y-17902048D01*
X7088048Y-17921095D01*
X7069000Y-17930619D01*
X7259476Y-17873476D02*
X7259476Y-17911571D01*
X7335667Y-17873476D02*
X7335667Y-17911571D01*
X7630905Y-18149667D02*
X7621381Y-18140143D01*
X7602333Y-18111571D01*
X7592809Y-18092524D01*
X7583286Y-18063952D01*
X7573762Y-18016333D01*
X7573762Y-17978238D01*
X7583286Y-17930619D01*
X7592809Y-17902048D01*
X7602333Y-17883000D01*
X7621381Y-17854429D01*
X7630905Y-17844905D01*
X7697571Y-17892524D02*
X7707095Y-17883000D01*
X7726143Y-17873476D01*
X7773762Y-17873476D01*
X7792809Y-17883000D01*
X7802333Y-17892524D01*
X7811857Y-17911571D01*
X7811857Y-17930619D01*
X7802333Y-17959190D01*
X7688048Y-18073476D01*
X7811857Y-18073476D01*
X8049952Y-18073476D02*
X8049952Y-17873476D01*
X8135667Y-18073476D02*
X8135667Y-17968714D01*
X8126143Y-17949667D01*
X8107095Y-17940143D01*
X8078524Y-17940143D01*
X8059476Y-17949667D01*
X8049952Y-17959190D01*
X8259476Y-18073476D02*
X8240428Y-18063952D01*
X8230905Y-18054429D01*
X8221381Y-18035381D01*
X8221381Y-17978238D01*
X8230905Y-17959190D01*
X8240428Y-17949667D01*
X8259476Y-17940143D01*
X8288048Y-17940143D01*
X8307095Y-17949667D01*
X8316619Y-17959190D01*
X8326143Y-17978238D01*
X8326143Y-18035381D01*
X8316619Y-18054429D01*
X8307095Y-18063952D01*
X8288048Y-18073476D01*
X8259476Y-18073476D01*
X8440429Y-18073476D02*
X8421381Y-18063952D01*
X8411857Y-18044905D01*
X8411857Y-17873476D01*
X8592810Y-18063952D02*
X8573762Y-18073476D01*
X8535667Y-18073476D01*
X8516619Y-18063952D01*
X8507095Y-18044905D01*
X8507095Y-17968714D01*
X8516619Y-17949667D01*
X8535667Y-17940143D01*
X8573762Y-17940143D01*
X8592810Y-17949667D01*
X8602333Y-17968714D01*
X8602333Y-17987762D01*
X8507095Y-18006810D01*
X8678524Y-18063952D02*
X8697571Y-18073476D01*
X8735667Y-18073476D01*
X8754714Y-18063952D01*
X8764238Y-18044905D01*
X8764238Y-18035381D01*
X8754714Y-18016333D01*
X8735667Y-18006810D01*
X8707095Y-18006810D01*
X8688048Y-17997286D01*
X8678524Y-17978238D01*
X8678524Y-17968714D01*
X8688048Y-17949667D01*
X8707095Y-17940143D01*
X8735667Y-17940143D01*
X8754714Y-17949667D01*
X8830905Y-18149667D02*
X8840429Y-18140143D01*
X8859476Y-18111571D01*
X8869000Y-18092524D01*
X8878524Y-18063952D01*
X8888048Y-18016333D01*
X8888048Y-17978238D01*
X8878524Y-17930619D01*
X8869000Y-17902048D01*
X8859476Y-17883000D01*
X8840429Y-17854429D01*
X8830905Y-17844905D01*
X9192810Y-18149667D02*
X9183286Y-18140143D01*
X9164238Y-18111571D01*
X9154714Y-18092524D01*
X9145190Y-18063952D01*
X9135667Y-18016333D01*
X9135667Y-17978238D01*
X9145190Y-17930619D01*
X9154714Y-17902048D01*
X9164238Y-17883000D01*
X9183286Y-17854429D01*
X9192810Y-17844905D01*
X9269000Y-17940143D02*
X9269000Y-18073476D01*
X9269000Y-17959190D02*
X9278524Y-17949667D01*
X9297571Y-17940143D01*
X9326143Y-17940143D01*
X9345190Y-17949667D01*
X9354714Y-17968714D01*
X9354714Y-18073476D01*
X9478524Y-18073476D02*
X9459476Y-18063952D01*
X9449952Y-18054429D01*
X9440429Y-18035381D01*
X9440429Y-17978238D01*
X9449952Y-17959190D01*
X9459476Y-17949667D01*
X9478524Y-17940143D01*
X9507095Y-17940143D01*
X9526143Y-17949667D01*
X9535667Y-17959190D01*
X9545190Y-17978238D01*
X9545190Y-18035381D01*
X9535667Y-18054429D01*
X9526143Y-18063952D01*
X9507095Y-18073476D01*
X9478524Y-18073476D01*
X9602333Y-17940143D02*
X9678524Y-17940143D01*
X9630905Y-17873476D02*
X9630905Y-18044905D01*
X9640429Y-18063952D01*
X9659476Y-18073476D01*
X9678524Y-18073476D01*
X9897571Y-17940143D02*
X9897571Y-18140143D01*
X9897571Y-17949667D02*
X9916619Y-17940143D01*
X9954714Y-17940143D01*
X9973762Y-17949667D01*
X9983286Y-17959190D01*
X9992810Y-17978238D01*
X9992810Y-18035381D01*
X9983286Y-18054429D01*
X9973762Y-18063952D01*
X9954714Y-18073476D01*
X9916619Y-18073476D01*
X9897571Y-18063952D01*
X10107095Y-18073476D02*
X10088048Y-18063952D01*
X10078524Y-18044905D01*
X10078524Y-17873476D01*
X10269000Y-18073476D02*
X10269000Y-17968714D01*
X10259476Y-17949667D01*
X10240429Y-17940143D01*
X10202333Y-17940143D01*
X10183286Y-17949667D01*
X10269000Y-18063952D02*
X10249952Y-18073476D01*
X10202333Y-18073476D01*
X10183286Y-18063952D01*
X10173762Y-18044905D01*
X10173762Y-18025857D01*
X10183286Y-18006810D01*
X10202333Y-17997286D01*
X10249952Y-17997286D01*
X10269000Y-17987762D01*
X10335667Y-17940143D02*
X10411857Y-17940143D01*
X10364238Y-17873476D02*
X10364238Y-18044905D01*
X10373762Y-18063952D01*
X10392810Y-18073476D01*
X10411857Y-18073476D01*
X10554714Y-18063952D02*
X10535667Y-18073476D01*
X10497571Y-18073476D01*
X10478524Y-18063952D01*
X10469000Y-18044905D01*
X10469000Y-17968714D01*
X10478524Y-17949667D01*
X10497571Y-17940143D01*
X10535667Y-17940143D01*
X10554714Y-17949667D01*
X10564238Y-17968714D01*
X10564238Y-17987762D01*
X10469000Y-18006810D01*
X10735667Y-18073476D02*
X10735667Y-17873476D01*
X10735667Y-18063952D02*
X10716619Y-18073476D01*
X10678524Y-18073476D01*
X10659476Y-18063952D01*
X10649952Y-18054429D01*
X10640429Y-18035381D01*
X10640429Y-17978238D01*
X10649952Y-17959190D01*
X10659476Y-17949667D01*
X10678524Y-17940143D01*
X10716619Y-17940143D01*
X10735667Y-17949667D01*
X10811857Y-18149667D02*
X10821381Y-18140143D01*
X10840429Y-18111571D01*
X10849952Y-18092524D01*
X10859476Y-18063952D01*
X10869000Y-18016333D01*
X10869000Y-17978238D01*
X10859476Y-17930619D01*
X10849952Y-17902048D01*
X10840429Y-17883000D01*
X10821381Y-17854429D01*
X10811857Y-17844905D01*
M02*
