M48
; DRILL file {KiCad (6.0.1)} date Sun Feb 20 22:55:00 2022
; FORMAT={-:-/ absolute / metric / decimal}
; #@! TF.CreationDate,2022-02-20T22:55:00-05:00
; #@! TF.GenerationSoftware,Kicad,Pcbnew,(6.0.1)
; #@! TF.FileFunction,Plated,1,2,PTH
FMAT,2
METRIC
; #@! TA.AperFunction,Plated,PTH,ViaDrill
T1C0.400
; #@! TA.AperFunction,Plated,PTH,ComponentDrill
T2C1.000
; #@! TA.AperFunction,Plated,PTH,ComponentDrill
T3C1.300
; #@! TA.AperFunction,Plated,PTH,ComponentDrill
T4C1.800
%
G90
G05
T1
X52.832Y-145.796
X53.086Y-155.956
X55.118Y-156.972
X55.245Y-146.685
X56.388Y-147.828
X56.388Y-157.988
X57.15Y-123.444
X57.15Y-134.874
X57.658Y-137.414
X58.674Y-157.988
X59.69Y-125.476
X62.23Y-124.46
X62.23Y-135.89
X72.644Y-140.462
X72.898Y-112.014
X73.444Y-136.652
X73.914Y-110.109
X74.168Y-120.142
X74.422Y-137.922
X74.93Y-108.783
X74.93Y-134.366
X75.438Y-139.192
X75.692Y-130.556
X76.454Y-108.204
X77.216Y-129.032
X77.851Y-134.493
X78.232Y-130.556
X79.502Y-136.652
X80.01Y-114.3
X80.01Y-115.57
X80.01Y-116.84
X80.01Y-118.11
X80.01Y-119.38
X80.01Y-142.24
X80.01Y-143.51
X80.01Y-144.78
X80.01Y-146.05
X80.01Y-147.32
X91.44Y-114.3
X91.44Y-115.57
X91.44Y-116.84
X91.44Y-118.11
X91.44Y-119.38
X91.44Y-138.684
X91.44Y-142.24
X91.44Y-143.51
X91.44Y-144.78
X91.44Y-146.05
X91.44Y-147.32
X102.87Y-114.3
X102.87Y-115.57
X102.87Y-116.84
X102.87Y-118.11
X102.87Y-119.38
X102.87Y-142.24
X102.87Y-143.51
X102.87Y-144.78
X102.87Y-146.05
X102.87Y-147.32
X104.521Y-132.588
X114.3Y-113.792
X114.3Y-114.935
X114.3Y-116.205
X114.3Y-117.475
X114.3Y-118.745
X114.3Y-142.24
X114.3Y-143.51
X114.3Y-144.78
X114.3Y-146.05
X114.3Y-147.32
X115.697Y-136.779
X123.444Y-134.366
X125.73Y-113.665
X125.73Y-114.935
X125.73Y-116.205
X125.73Y-117.475
X125.73Y-118.745
X125.73Y-142.24
X125.73Y-143.51
X125.73Y-144.78
X125.73Y-146.05
X125.73Y-147.32
X126.111Y-109.347
X131.572Y-166.878
X131.572Y-168.148
X136.144Y-109.474
X136.144Y-130.556
X137.16Y-113.665
X137.16Y-114.935
X137.16Y-116.205
X137.16Y-117.475
X137.16Y-118.745
X137.16Y-142.24
X137.16Y-143.51
X137.16Y-144.78
X137.16Y-146.05
X137.16Y-147.32
T2
X54.61Y-131.318
X54.62Y-118.085
X57.15Y-131.318
X57.16Y-118.085
X59.69Y-131.318
X59.7Y-118.085
X60.96Y-140.97
X60.96Y-143.51
X60.96Y-146.05
X60.96Y-148.59
X60.96Y-151.13
X60.96Y-153.67
X62.23Y-131.318
X62.24Y-118.085
X68.072Y-109.982
X68.072Y-112.522
X68.072Y-115.062
X68.072Y-117.602
X68.072Y-120.142
X68.072Y-122.682
X68.072Y-125.222
X68.072Y-127.762
X68.072Y-130.302
X68.072Y-132.842
X68.072Y-135.382
X68.072Y-137.922
X68.072Y-140.462
X68.072Y-143.002
X68.072Y-145.542
X68.072Y-148.082
X68.072Y-150.622
X68.072Y-153.162
X68.072Y-155.702
X68.072Y-158.242
X70.612Y-109.982
X70.612Y-112.522
X70.612Y-115.062
X70.612Y-117.602
X70.612Y-120.142
X70.612Y-122.682
X70.612Y-125.222
X70.612Y-127.762
X70.612Y-130.302
X70.612Y-132.842
X70.612Y-135.382
X70.612Y-137.922
X70.612Y-140.462
X70.612Y-143.002
X70.612Y-145.542
X70.612Y-148.082
X70.612Y-150.622
X70.612Y-153.162
X70.612Y-155.702
X70.612Y-158.242
X153.67Y-109.22
X153.67Y-111.76
X153.67Y-114.3
X153.67Y-116.84
X153.67Y-119.38
X153.67Y-121.92
X153.797Y-126.619
X153.797Y-129.159
T3
X86.36Y-165.1
X90.17Y-165.1
X93.98Y-165.1
X97.79Y-165.1
X101.6Y-165.1
X105.41Y-165.1
X109.22Y-165.1
X113.03Y-165.1
X116.84Y-165.1
X120.65Y-165.1
X124.46Y-165.1
X128.27Y-165.1
X135.255Y-165.1
X139.065Y-165.1
X142.875Y-165.1
X146.685Y-165.1
X150.495Y-165.1
X154.305Y-165.1
X158.115Y-165.1
X161.925Y-165.1
X165.735Y-165.1
X169.545Y-165.1
X173.355Y-165.1
X177.165Y-165.1
T4
X161.1Y-109.35
X161.1Y-113.55
X161.1Y-117.75
X161.1Y-121.95
X161.1Y-126.15
X161.1Y-130.35
X161.1Y-134.55
X161.1Y-138.75
X161.1Y-142.95
X161.1Y-147.15
X161.1Y-151.35
X161.1Y-155.55
X166.6Y-109.35
X166.6Y-113.55
X166.6Y-117.75
X166.6Y-121.95
X166.6Y-126.15
X166.6Y-130.35
X166.6Y-134.55
X166.6Y-138.75
X166.6Y-142.95
X166.6Y-147.15
X166.6Y-151.35
X166.6Y-155.55
T0
M30
