%FSLAX45Y45*%
G04 Gerber Fmt 4.5, Leading zero omitted, Abs format (unit mm)*
G04 Created by KiCad (PCBNEW (6.0.1)) date 2022-02-20 22:55:02*
%MOMM*%
%LPD*%
G01*
G04 APERTURE LIST*
%TA.AperFunction,Profile*%
%ADD10C,0.100000*%
%TD*%
%ADD11C,0.200000*%
%ADD12C,0.040000*%
%ADD13C,0.100000*%
%ADD14C,0.130000*%
%ADD15C,0.180000*%
G04 APERTURE END LIST*
D10*
X4064000Y-10096500D02*
X18034000Y-10096500D01*
X18034000Y-10096500D02*
X18034000Y-17018000D01*
X18034000Y-17018000D02*
X4064000Y-17018000D01*
X4064000Y-17018000D02*
X4064000Y-10096500D01*
D11*
D12*
X5263200Y-14559600D02*
X5303200Y-14599600D01*
X5303200Y-14559600D02*
X5263200Y-14599600D01*
X5288600Y-15575600D02*
X5328600Y-15615600D01*
X5328600Y-15575600D02*
X5288600Y-15615600D01*
X5491800Y-15677200D02*
X5531800Y-15717200D01*
X5531800Y-15677200D02*
X5491800Y-15717200D01*
X5504500Y-14648500D02*
X5544500Y-14688500D01*
X5544500Y-14648500D02*
X5504500Y-14688500D01*
X5618800Y-14762800D02*
X5658800Y-14802800D01*
X5658800Y-14762800D02*
X5618800Y-14802800D01*
X5618800Y-15778800D02*
X5658800Y-15818800D01*
X5658800Y-15778800D02*
X5618800Y-15818800D01*
X5695000Y-12324400D02*
X5735000Y-12364400D01*
X5735000Y-12324400D02*
X5695000Y-12364400D01*
X5695000Y-13467400D02*
X5735000Y-13507400D01*
X5735000Y-13467400D02*
X5695000Y-13507400D01*
X5745800Y-13721400D02*
X5785800Y-13761400D01*
X5785800Y-13721400D02*
X5745800Y-13761400D01*
X5847400Y-15778800D02*
X5887400Y-15818800D01*
X5887400Y-15778800D02*
X5847400Y-15818800D01*
X5949000Y-12527600D02*
X5989000Y-12567600D01*
X5989000Y-12527600D02*
X5949000Y-12567600D01*
X6203000Y-12426000D02*
X6243000Y-12466000D01*
X6243000Y-12426000D02*
X6203000Y-12466000D01*
X6203000Y-13569000D02*
X6243000Y-13609000D01*
X6243000Y-13569000D02*
X6203000Y-13609000D01*
X7244400Y-14026200D02*
X7284400Y-14066200D01*
X7284400Y-14026200D02*
X7244400Y-14066200D01*
X7269800Y-11181400D02*
X7309800Y-11221400D01*
X7309800Y-11181400D02*
X7269800Y-11221400D01*
X7324350Y-13645200D02*
X7364350Y-13685200D01*
X7364350Y-13645200D02*
X7324350Y-13685200D01*
X7371400Y-10990900D02*
X7411400Y-11030900D01*
X7411400Y-10990900D02*
X7371400Y-11030900D01*
X7396800Y-11994200D02*
X7436800Y-12034200D01*
X7436800Y-11994200D02*
X7396800Y-12034200D01*
X7422200Y-13772200D02*
X7462200Y-13812200D01*
X7462200Y-13772200D02*
X7422200Y-13812200D01*
X7473000Y-10858269D02*
X7513000Y-10898269D01*
X7513000Y-10858269D02*
X7473000Y-10898269D01*
X7473000Y-13416600D02*
X7513000Y-13456600D01*
X7513000Y-13416600D02*
X7473000Y-13456600D01*
X7523800Y-13899200D02*
X7563800Y-13939200D01*
X7563800Y-13899200D02*
X7523800Y-13939200D01*
X7549200Y-13035600D02*
X7589200Y-13075600D01*
X7589200Y-13035600D02*
X7549200Y-13075600D01*
X7625400Y-10800400D02*
X7665400Y-10840400D01*
X7665400Y-10800400D02*
X7625400Y-10840400D01*
X7701600Y-12883200D02*
X7741600Y-12923200D01*
X7741600Y-12883200D02*
X7701600Y-12923200D01*
X7765100Y-13429300D02*
X7805100Y-13469300D01*
X7805100Y-13429300D02*
X7765100Y-13469300D01*
X7803200Y-13035600D02*
X7843200Y-13075600D01*
X7843200Y-13035600D02*
X7803200Y-13075600D01*
X7930200Y-13645200D02*
X7970200Y-13685200D01*
X7970200Y-13645200D02*
X7930200Y-13685200D01*
X7981000Y-11410000D02*
X8021000Y-11450000D01*
X8021000Y-11410000D02*
X7981000Y-11450000D01*
X7981000Y-11537000D02*
X8021000Y-11577000D01*
X8021000Y-11537000D02*
X7981000Y-11577000D01*
X7981000Y-11664000D02*
X8021000Y-11704000D01*
X8021000Y-11664000D02*
X7981000Y-11704000D01*
X7981000Y-11791000D02*
X8021000Y-11831000D01*
X8021000Y-11791000D02*
X7981000Y-11831000D01*
X7981000Y-11918000D02*
X8021000Y-11958000D01*
X8021000Y-11918000D02*
X7981000Y-11958000D01*
X7981000Y-14204000D02*
X8021000Y-14244000D01*
X8021000Y-14204000D02*
X7981000Y-14244000D01*
X7981000Y-14331000D02*
X8021000Y-14371000D01*
X8021000Y-14331000D02*
X7981000Y-14371000D01*
X7981000Y-14458000D02*
X8021000Y-14498000D01*
X8021000Y-14458000D02*
X7981000Y-14498000D01*
X7981000Y-14585000D02*
X8021000Y-14625000D01*
X8021000Y-14585000D02*
X7981000Y-14625000D01*
X7981000Y-14712000D02*
X8021000Y-14752000D01*
X8021000Y-14712000D02*
X7981000Y-14752000D01*
X9124000Y-11410000D02*
X9164000Y-11450000D01*
X9164000Y-11410000D02*
X9124000Y-11450000D01*
X9124000Y-11537000D02*
X9164000Y-11577000D01*
X9164000Y-11537000D02*
X9124000Y-11577000D01*
X9124000Y-11664000D02*
X9164000Y-11704000D01*
X9164000Y-11664000D02*
X9124000Y-11704000D01*
X9124000Y-11791000D02*
X9164000Y-11831000D01*
X9164000Y-11791000D02*
X9124000Y-11831000D01*
X9124000Y-11918000D02*
X9164000Y-11958000D01*
X9164000Y-11918000D02*
X9124000Y-11958000D01*
X9124000Y-13848400D02*
X9164000Y-13888400D01*
X9164000Y-13848400D02*
X9124000Y-13888400D01*
X9124000Y-14204000D02*
X9164000Y-14244000D01*
X9164000Y-14204000D02*
X9124000Y-14244000D01*
X9124000Y-14331000D02*
X9164000Y-14371000D01*
X9164000Y-14331000D02*
X9124000Y-14371000D01*
X9124000Y-14458000D02*
X9164000Y-14498000D01*
X9164000Y-14458000D02*
X9124000Y-14498000D01*
X9124000Y-14585000D02*
X9164000Y-14625000D01*
X9164000Y-14585000D02*
X9124000Y-14625000D01*
X9124000Y-14712000D02*
X9164000Y-14752000D01*
X9164000Y-14712000D02*
X9124000Y-14752000D01*
X10267000Y-11410000D02*
X10307000Y-11450000D01*
X10307000Y-11410000D02*
X10267000Y-11450000D01*
X10267000Y-11537000D02*
X10307000Y-11577000D01*
X10307000Y-11537000D02*
X10267000Y-11577000D01*
X10267000Y-11664000D02*
X10307000Y-11704000D01*
X10307000Y-11664000D02*
X10267000Y-11704000D01*
X10267000Y-11791000D02*
X10307000Y-11831000D01*
X10307000Y-11791000D02*
X10267000Y-11831000D01*
X10267000Y-11918000D02*
X10307000Y-11958000D01*
X10307000Y-11918000D02*
X10267000Y-11958000D01*
X10267000Y-14204000D02*
X10307000Y-14244000D01*
X10307000Y-14204000D02*
X10267000Y-14244000D01*
X10267000Y-14331000D02*
X10307000Y-14371000D01*
X10307000Y-14331000D02*
X10267000Y-14371000D01*
X10267000Y-14458000D02*
X10307000Y-14498000D01*
X10307000Y-14458000D02*
X10267000Y-14498000D01*
X10267000Y-14585000D02*
X10307000Y-14625000D01*
X10307000Y-14585000D02*
X10267000Y-14625000D01*
X10267000Y-14712000D02*
X10307000Y-14752000D01*
X10307000Y-14712000D02*
X10267000Y-14752000D01*
X10432100Y-13238800D02*
X10472100Y-13278800D01*
X10472100Y-13238800D02*
X10432100Y-13278800D01*
X11410000Y-11359200D02*
X11450000Y-11399200D01*
X11450000Y-11359200D02*
X11410000Y-11399200D01*
X11410000Y-11473500D02*
X11450000Y-11513500D01*
X11450000Y-11473500D02*
X11410000Y-11513500D01*
X11410000Y-11600500D02*
X11450000Y-11640500D01*
X11450000Y-11600500D02*
X11410000Y-11640500D01*
X11410000Y-11727500D02*
X11450000Y-11767500D01*
X11450000Y-11727500D02*
X11410000Y-11767500D01*
X11410000Y-11854500D02*
X11450000Y-11894500D01*
X11450000Y-11854500D02*
X11410000Y-11894500D01*
X11410000Y-14204000D02*
X11450000Y-14244000D01*
X11450000Y-14204000D02*
X11410000Y-14244000D01*
X11410000Y-14331000D02*
X11450000Y-14371000D01*
X11450000Y-14331000D02*
X11410000Y-14371000D01*
X11410000Y-14458000D02*
X11450000Y-14498000D01*
X11450000Y-14458000D02*
X11410000Y-14498000D01*
X11410000Y-14585000D02*
X11450000Y-14625000D01*
X11450000Y-14585000D02*
X11410000Y-14625000D01*
X11410000Y-14712000D02*
X11450000Y-14752000D01*
X11450000Y-14712000D02*
X11410000Y-14752000D01*
X11549700Y-13657900D02*
X11589700Y-13697900D01*
X11589700Y-13657900D02*
X11549700Y-13697900D01*
X12324400Y-13416600D02*
X12364400Y-13456600D01*
X12364400Y-13416600D02*
X12324400Y-13456600D01*
X12553000Y-11346500D02*
X12593000Y-11386500D01*
X12593000Y-11346500D02*
X12553000Y-11386500D01*
X12553000Y-11473500D02*
X12593000Y-11513500D01*
X12593000Y-11473500D02*
X12553000Y-11513500D01*
X12553000Y-11600500D02*
X12593000Y-11640500D01*
X12593000Y-11600500D02*
X12553000Y-11640500D01*
X12553000Y-11727500D02*
X12593000Y-11767500D01*
X12593000Y-11727500D02*
X12553000Y-11767500D01*
X12553000Y-11854500D02*
X12593000Y-11894500D01*
X12593000Y-11854500D02*
X12553000Y-11894500D01*
X12553000Y-14204000D02*
X12593000Y-14244000D01*
X12593000Y-14204000D02*
X12553000Y-14244000D01*
X12553000Y-14331000D02*
X12593000Y-14371000D01*
X12593000Y-14331000D02*
X12553000Y-14371000D01*
X12553000Y-14458000D02*
X12593000Y-14498000D01*
X12593000Y-14458000D02*
X12553000Y-14498000D01*
X12553000Y-14585000D02*
X12593000Y-14625000D01*
X12593000Y-14585000D02*
X12553000Y-14625000D01*
X12553000Y-14712000D02*
X12593000Y-14752000D01*
X12593000Y-14712000D02*
X12553000Y-14752000D01*
X12591100Y-10914700D02*
X12631100Y-10954700D01*
X12631100Y-10914700D02*
X12591100Y-10954700D01*
X13137200Y-16667800D02*
X13177200Y-16707800D01*
X13177200Y-16667800D02*
X13137200Y-16707800D01*
X13137200Y-16794800D02*
X13177200Y-16834800D01*
X13177200Y-16794800D02*
X13137200Y-16834800D01*
X13594400Y-10927400D02*
X13634400Y-10967400D01*
X13634400Y-10927400D02*
X13594400Y-10967400D01*
X13594400Y-13035600D02*
X13634400Y-13075600D01*
X13634400Y-13035600D02*
X13594400Y-13075600D01*
X13696000Y-11346500D02*
X13736000Y-11386500D01*
X13736000Y-11346500D02*
X13696000Y-11386500D01*
X13696000Y-11473500D02*
X13736000Y-11513500D01*
X13736000Y-11473500D02*
X13696000Y-11513500D01*
X13696000Y-11600500D02*
X13736000Y-11640500D01*
X13736000Y-11600500D02*
X13696000Y-11640500D01*
X13696000Y-11727500D02*
X13736000Y-11767500D01*
X13736000Y-11727500D02*
X13696000Y-11767500D01*
X13696000Y-11854500D02*
X13736000Y-11894500D01*
X13736000Y-11854500D02*
X13696000Y-11894500D01*
X13696000Y-14204000D02*
X13736000Y-14244000D01*
X13736000Y-14204000D02*
X13696000Y-14244000D01*
X13696000Y-14331000D02*
X13736000Y-14371000D01*
X13736000Y-14331000D02*
X13696000Y-14371000D01*
X13696000Y-14458000D02*
X13736000Y-14498000D01*
X13736000Y-14458000D02*
X13696000Y-14498000D01*
X13696000Y-14585000D02*
X13736000Y-14625000D01*
X13736000Y-14585000D02*
X13696000Y-14625000D01*
X13696000Y-14712000D02*
X13736000Y-14752000D01*
X13736000Y-14712000D02*
X13696000Y-14752000D01*
D13*
X5511000Y-13131800D02*
G75*
G03*
X5511000Y-13131800I-50000J0D01*
G01*
X5512000Y-11808500D02*
G75*
G03*
X5512000Y-11808500I-50000J0D01*
G01*
X5765000Y-13131800D02*
G75*
G03*
X5765000Y-13131800I-50000J0D01*
G01*
X5766000Y-11808500D02*
G75*
G03*
X5766000Y-11808500I-50000J0D01*
G01*
X6019000Y-13131800D02*
G75*
G03*
X6019000Y-13131800I-50000J0D01*
G01*
X6020000Y-11808500D02*
G75*
G03*
X6020000Y-11808500I-50000J0D01*
G01*
X6146000Y-14097000D02*
G75*
G03*
X6146000Y-14097000I-50000J0D01*
G01*
X6146000Y-14351000D02*
G75*
G03*
X6146000Y-14351000I-50000J0D01*
G01*
X6146000Y-14605000D02*
G75*
G03*
X6146000Y-14605000I-50000J0D01*
G01*
X6146000Y-14859000D02*
G75*
G03*
X6146000Y-14859000I-50000J0D01*
G01*
X6146000Y-15113000D02*
G75*
G03*
X6146000Y-15113000I-50000J0D01*
G01*
X6146000Y-15367000D02*
G75*
G03*
X6146000Y-15367000I-50000J0D01*
G01*
X6273000Y-13131800D02*
G75*
G03*
X6273000Y-13131800I-50000J0D01*
G01*
X6274000Y-11808500D02*
G75*
G03*
X6274000Y-11808500I-50000J0D01*
G01*
X6857200Y-10998200D02*
G75*
G03*
X6857200Y-10998200I-50000J0D01*
G01*
X6857200Y-11252200D02*
G75*
G03*
X6857200Y-11252200I-50000J0D01*
G01*
X6857200Y-11506200D02*
G75*
G03*
X6857200Y-11506200I-50000J0D01*
G01*
X6857200Y-11760200D02*
G75*
G03*
X6857200Y-11760200I-50000J0D01*
G01*
X6857200Y-12014200D02*
G75*
G03*
X6857200Y-12014200I-50000J0D01*
G01*
X6857200Y-12268200D02*
G75*
G03*
X6857200Y-12268200I-50000J0D01*
G01*
X6857200Y-12522200D02*
G75*
G03*
X6857200Y-12522200I-50000J0D01*
G01*
X6857200Y-12776200D02*
G75*
G03*
X6857200Y-12776200I-50000J0D01*
G01*
X6857200Y-13030200D02*
G75*
G03*
X6857200Y-13030200I-50000J0D01*
G01*
X6857200Y-13284200D02*
G75*
G03*
X6857200Y-13284200I-50000J0D01*
G01*
X6857200Y-13538200D02*
G75*
G03*
X6857200Y-13538200I-50000J0D01*
G01*
X6857200Y-13792200D02*
G75*
G03*
X6857200Y-13792200I-50000J0D01*
G01*
X6857200Y-14046200D02*
G75*
G03*
X6857200Y-14046200I-50000J0D01*
G01*
X6857200Y-14300200D02*
G75*
G03*
X6857200Y-14300200I-50000J0D01*
G01*
X6857200Y-14554200D02*
G75*
G03*
X6857200Y-14554200I-50000J0D01*
G01*
X6857200Y-14808200D02*
G75*
G03*
X6857200Y-14808200I-50000J0D01*
G01*
X6857200Y-15062200D02*
G75*
G03*
X6857200Y-15062200I-50000J0D01*
G01*
X6857200Y-15316200D02*
G75*
G03*
X6857200Y-15316200I-50000J0D01*
G01*
X6857200Y-15570200D02*
G75*
G03*
X6857200Y-15570200I-50000J0D01*
G01*
X6857200Y-15824200D02*
G75*
G03*
X6857200Y-15824200I-50000J0D01*
G01*
X7111200Y-10998200D02*
G75*
G03*
X7111200Y-10998200I-50000J0D01*
G01*
X7111200Y-11252200D02*
G75*
G03*
X7111200Y-11252200I-50000J0D01*
G01*
X7111200Y-11506200D02*
G75*
G03*
X7111200Y-11506200I-50000J0D01*
G01*
X7111200Y-11760200D02*
G75*
G03*
X7111200Y-11760200I-50000J0D01*
G01*
X7111200Y-12014200D02*
G75*
G03*
X7111200Y-12014200I-50000J0D01*
G01*
X7111200Y-12268200D02*
G75*
G03*
X7111200Y-12268200I-50000J0D01*
G01*
X7111200Y-12522200D02*
G75*
G03*
X7111200Y-12522200I-50000J0D01*
G01*
X7111200Y-12776200D02*
G75*
G03*
X7111200Y-12776200I-50000J0D01*
G01*
X7111200Y-13030200D02*
G75*
G03*
X7111200Y-13030200I-50000J0D01*
G01*
X7111200Y-13284200D02*
G75*
G03*
X7111200Y-13284200I-50000J0D01*
G01*
X7111200Y-13538200D02*
G75*
G03*
X7111200Y-13538200I-50000J0D01*
G01*
X7111200Y-13792200D02*
G75*
G03*
X7111200Y-13792200I-50000J0D01*
G01*
X7111200Y-14046200D02*
G75*
G03*
X7111200Y-14046200I-50000J0D01*
G01*
X7111200Y-14300200D02*
G75*
G03*
X7111200Y-14300200I-50000J0D01*
G01*
X7111200Y-14554200D02*
G75*
G03*
X7111200Y-14554200I-50000J0D01*
G01*
X7111200Y-14808200D02*
G75*
G03*
X7111200Y-14808200I-50000J0D01*
G01*
X7111200Y-15062200D02*
G75*
G03*
X7111200Y-15062200I-50000J0D01*
G01*
X7111200Y-15316200D02*
G75*
G03*
X7111200Y-15316200I-50000J0D01*
G01*
X7111200Y-15570200D02*
G75*
G03*
X7111200Y-15570200I-50000J0D01*
G01*
X7111200Y-15824200D02*
G75*
G03*
X7111200Y-15824200I-50000J0D01*
G01*
X15417000Y-10922000D02*
G75*
G03*
X15417000Y-10922000I-50000J0D01*
G01*
X15417000Y-11176000D02*
G75*
G03*
X15417000Y-11176000I-50000J0D01*
G01*
X15417000Y-11430000D02*
G75*
G03*
X15417000Y-11430000I-50000J0D01*
G01*
X15417000Y-11684000D02*
G75*
G03*
X15417000Y-11684000I-50000J0D01*
G01*
X15417000Y-11938000D02*
G75*
G03*
X15417000Y-11938000I-50000J0D01*
G01*
X15417000Y-12192000D02*
G75*
G03*
X15417000Y-12192000I-50000J0D01*
G01*
X15429700Y-12661900D02*
G75*
G03*
X15429700Y-12661900I-50000J0D01*
G01*
X15429700Y-12915900D02*
G75*
G03*
X15429700Y-12915900I-50000J0D01*
G01*
D14*
X8636000Y-16445000D02*
X8636000Y-16575000D01*
X8571000Y-16510000D02*
X8701000Y-16510000D01*
X9017000Y-16445000D02*
X9017000Y-16575000D01*
X8952000Y-16510000D02*
X9082000Y-16510000D01*
X9398000Y-16445000D02*
X9398000Y-16575000D01*
X9333000Y-16510000D02*
X9463000Y-16510000D01*
X9779000Y-16445000D02*
X9779000Y-16575000D01*
X9714000Y-16510000D02*
X9844000Y-16510000D01*
X10160000Y-16445000D02*
X10160000Y-16575000D01*
X10095000Y-16510000D02*
X10225000Y-16510000D01*
X10541000Y-16445000D02*
X10541000Y-16575000D01*
X10476000Y-16510000D02*
X10606000Y-16510000D01*
X10922000Y-16445000D02*
X10922000Y-16575000D01*
X10857000Y-16510000D02*
X10987000Y-16510000D01*
X11303000Y-16445000D02*
X11303000Y-16575000D01*
X11238000Y-16510000D02*
X11368000Y-16510000D01*
X11684000Y-16445000D02*
X11684000Y-16575000D01*
X11619000Y-16510000D02*
X11749000Y-16510000D01*
X12065000Y-16445000D02*
X12065000Y-16575000D01*
X12000000Y-16510000D02*
X12130000Y-16510000D01*
X12446000Y-16445000D02*
X12446000Y-16575000D01*
X12381000Y-16510000D02*
X12511000Y-16510000D01*
X12827000Y-16445000D02*
X12827000Y-16575000D01*
X12762000Y-16510000D02*
X12892000Y-16510000D01*
X13525500Y-16445000D02*
X13525500Y-16575000D01*
X13460500Y-16510000D02*
X13590500Y-16510000D01*
X13906500Y-16445000D02*
X13906500Y-16575000D01*
X13841500Y-16510000D02*
X13971500Y-16510000D01*
X14287500Y-16445000D02*
X14287500Y-16575000D01*
X14222500Y-16510000D02*
X14352500Y-16510000D01*
X14668500Y-16445000D02*
X14668500Y-16575000D01*
X14603500Y-16510000D02*
X14733500Y-16510000D01*
X15049500Y-16445000D02*
X15049500Y-16575000D01*
X14984500Y-16510000D02*
X15114500Y-16510000D01*
X15430500Y-16445000D02*
X15430500Y-16575000D01*
X15365500Y-16510000D02*
X15495500Y-16510000D01*
X15811500Y-16445000D02*
X15811500Y-16575000D01*
X15746500Y-16510000D02*
X15876500Y-16510000D01*
X16192500Y-16445000D02*
X16192500Y-16575000D01*
X16127500Y-16510000D02*
X16257500Y-16510000D01*
X16573500Y-16445000D02*
X16573500Y-16575000D01*
X16508500Y-16510000D02*
X16638500Y-16510000D01*
X16954500Y-16445000D02*
X16954500Y-16575000D01*
X16889500Y-16510000D02*
X17019500Y-16510000D01*
X17335500Y-16445000D02*
X17335500Y-16575000D01*
X17270500Y-16510000D02*
X17400500Y-16510000D01*
X17716500Y-16445000D02*
X17716500Y-16575000D01*
X17651500Y-16510000D02*
X17781500Y-16510000D01*
D15*
X16173640Y-10998640D02*
X16173640Y-10871360D01*
X16046360Y-10871360D01*
X16046360Y-10998640D01*
X16173640Y-10998640D01*
X16173640Y-11418640D02*
X16173640Y-11291360D01*
X16046360Y-11291360D01*
X16046360Y-11418640D01*
X16173640Y-11418640D01*
X16173640Y-11838640D02*
X16173640Y-11711360D01*
X16046360Y-11711360D01*
X16046360Y-11838640D01*
X16173640Y-11838640D01*
X16173640Y-12258640D02*
X16173640Y-12131360D01*
X16046360Y-12131360D01*
X16046360Y-12258640D01*
X16173640Y-12258640D01*
X16173640Y-12678640D02*
X16173640Y-12551360D01*
X16046360Y-12551360D01*
X16046360Y-12678640D01*
X16173640Y-12678640D01*
X16173640Y-13098640D02*
X16173640Y-12971360D01*
X16046360Y-12971360D01*
X16046360Y-13098640D01*
X16173640Y-13098640D01*
X16173640Y-13518640D02*
X16173640Y-13391360D01*
X16046360Y-13391360D01*
X16046360Y-13518640D01*
X16173640Y-13518640D01*
X16173640Y-13938640D02*
X16173640Y-13811360D01*
X16046360Y-13811360D01*
X16046360Y-13938640D01*
X16173640Y-13938640D01*
X16173640Y-14358640D02*
X16173640Y-14231360D01*
X16046360Y-14231360D01*
X16046360Y-14358640D01*
X16173640Y-14358640D01*
X16173640Y-14778640D02*
X16173640Y-14651360D01*
X16046360Y-14651360D01*
X16046360Y-14778640D01*
X16173640Y-14778640D01*
X16173640Y-15198640D02*
X16173640Y-15071360D01*
X16046360Y-15071360D01*
X16046360Y-15198640D01*
X16173640Y-15198640D01*
X16173640Y-15618640D02*
X16173640Y-15491360D01*
X16046360Y-15491360D01*
X16046360Y-15618640D01*
X16173640Y-15618640D01*
X16723640Y-10998640D02*
X16723640Y-10871360D01*
X16596360Y-10871360D01*
X16596360Y-10998640D01*
X16723640Y-10998640D01*
X16723640Y-11418640D02*
X16723640Y-11291360D01*
X16596360Y-11291360D01*
X16596360Y-11418640D01*
X16723640Y-11418640D01*
X16723640Y-11838640D02*
X16723640Y-11711360D01*
X16596360Y-11711360D01*
X16596360Y-11838640D01*
X16723640Y-11838640D01*
X16723640Y-12258640D02*
X16723640Y-12131360D01*
X16596360Y-12131360D01*
X16596360Y-12258640D01*
X16723640Y-12258640D01*
X16723640Y-12678640D02*
X16723640Y-12551360D01*
X16596360Y-12551360D01*
X16596360Y-12678640D01*
X16723640Y-12678640D01*
X16723640Y-13098640D02*
X16723640Y-12971360D01*
X16596360Y-12971360D01*
X16596360Y-13098640D01*
X16723640Y-13098640D01*
X16723640Y-13518640D02*
X16723640Y-13391360D01*
X16596360Y-13391360D01*
X16596360Y-13518640D01*
X16723640Y-13518640D01*
X16723640Y-13938640D02*
X16723640Y-13811360D01*
X16596360Y-13811360D01*
X16596360Y-13938640D01*
X16723640Y-13938640D01*
X16723640Y-14358640D02*
X16723640Y-14231360D01*
X16596360Y-14231360D01*
X16596360Y-14358640D01*
X16723640Y-14358640D01*
X16723640Y-14778640D02*
X16723640Y-14651360D01*
X16596360Y-14651360D01*
X16596360Y-14778640D01*
X16723640Y-14778640D01*
X16723640Y-15198640D02*
X16723640Y-15071360D01*
X16596360Y-15071360D01*
X16596360Y-15198640D01*
X16723640Y-15198640D01*
X16723640Y-15618640D02*
X16723640Y-15491360D01*
X16596360Y-15491360D01*
X16596360Y-15618640D01*
X16723640Y-15618640D01*
D11*
X4316619Y-17333476D02*
X4316619Y-17133476D01*
X4364238Y-17133476D01*
X4392810Y-17143000D01*
X4411857Y-17162048D01*
X4421381Y-17181095D01*
X4430905Y-17219190D01*
X4430905Y-17247762D01*
X4421381Y-17285857D01*
X4411857Y-17304905D01*
X4392810Y-17323952D01*
X4364238Y-17333476D01*
X4316619Y-17333476D01*
X4516619Y-17333476D02*
X4516619Y-17200143D01*
X4516619Y-17238238D02*
X4526143Y-17219190D01*
X4535667Y-17209667D01*
X4554714Y-17200143D01*
X4573762Y-17200143D01*
X4640429Y-17333476D02*
X4640429Y-17200143D01*
X4640429Y-17133476D02*
X4630905Y-17143000D01*
X4640429Y-17152524D01*
X4649952Y-17143000D01*
X4640429Y-17133476D01*
X4640429Y-17152524D01*
X4764238Y-17333476D02*
X4745190Y-17323952D01*
X4735667Y-17304905D01*
X4735667Y-17133476D01*
X4869000Y-17333476D02*
X4849952Y-17323952D01*
X4840429Y-17304905D01*
X4840429Y-17133476D01*
X5097571Y-17333476D02*
X5097571Y-17133476D01*
X5164238Y-17276333D01*
X5230905Y-17133476D01*
X5230905Y-17333476D01*
X5411857Y-17333476D02*
X5411857Y-17228714D01*
X5402333Y-17209667D01*
X5383286Y-17200143D01*
X5345190Y-17200143D01*
X5326143Y-17209667D01*
X5411857Y-17323952D02*
X5392810Y-17333476D01*
X5345190Y-17333476D01*
X5326143Y-17323952D01*
X5316619Y-17304905D01*
X5316619Y-17285857D01*
X5326143Y-17266810D01*
X5345190Y-17257286D01*
X5392810Y-17257286D01*
X5411857Y-17247762D01*
X5507095Y-17200143D02*
X5507095Y-17400143D01*
X5507095Y-17209667D02*
X5526143Y-17200143D01*
X5564238Y-17200143D01*
X5583286Y-17209667D01*
X5592809Y-17219190D01*
X5602333Y-17238238D01*
X5602333Y-17295381D01*
X5592809Y-17314429D01*
X5583286Y-17323952D01*
X5564238Y-17333476D01*
X5526143Y-17333476D01*
X5507095Y-17323952D01*
X5688048Y-17314429D02*
X5697571Y-17323952D01*
X5688048Y-17333476D01*
X5678524Y-17323952D01*
X5688048Y-17314429D01*
X5688048Y-17333476D01*
X5688048Y-17209667D02*
X5697571Y-17219190D01*
X5688048Y-17228714D01*
X5678524Y-17219190D01*
X5688048Y-17209667D01*
X5688048Y-17228714D01*
D12*
X4019000Y-17643000D02*
X4059000Y-17683000D01*
X4059000Y-17643000D02*
X4019000Y-17683000D01*
D11*
X4354714Y-17553476D02*
X4373762Y-17553476D01*
X4392810Y-17563000D01*
X4402333Y-17572524D01*
X4411857Y-17591571D01*
X4421381Y-17629667D01*
X4421381Y-17677286D01*
X4411857Y-17715381D01*
X4402333Y-17734429D01*
X4392810Y-17743952D01*
X4373762Y-17753476D01*
X4354714Y-17753476D01*
X4335667Y-17743952D01*
X4326143Y-17734429D01*
X4316619Y-17715381D01*
X4307095Y-17677286D01*
X4307095Y-17629667D01*
X4316619Y-17591571D01*
X4326143Y-17572524D01*
X4335667Y-17563000D01*
X4354714Y-17553476D01*
X4507095Y-17734429D02*
X4516619Y-17743952D01*
X4507095Y-17753476D01*
X4497571Y-17743952D01*
X4507095Y-17734429D01*
X4507095Y-17753476D01*
X4688048Y-17620143D02*
X4688048Y-17753476D01*
X4640429Y-17543952D02*
X4592810Y-17686810D01*
X4716619Y-17686810D01*
X4830905Y-17553476D02*
X4849952Y-17553476D01*
X4869000Y-17563000D01*
X4878524Y-17572524D01*
X4888048Y-17591571D01*
X4897571Y-17629667D01*
X4897571Y-17677286D01*
X4888048Y-17715381D01*
X4878524Y-17734429D01*
X4869000Y-17743952D01*
X4849952Y-17753476D01*
X4830905Y-17753476D01*
X4811857Y-17743952D01*
X4802333Y-17734429D01*
X4792810Y-17715381D01*
X4783286Y-17677286D01*
X4783286Y-17629667D01*
X4792810Y-17591571D01*
X4802333Y-17572524D01*
X4811857Y-17563000D01*
X4830905Y-17553476D01*
X5021381Y-17553476D02*
X5040429Y-17553476D01*
X5059476Y-17563000D01*
X5069000Y-17572524D01*
X5078524Y-17591571D01*
X5088048Y-17629667D01*
X5088048Y-17677286D01*
X5078524Y-17715381D01*
X5069000Y-17734429D01*
X5059476Y-17743952D01*
X5040429Y-17753476D01*
X5021381Y-17753476D01*
X5002333Y-17743952D01*
X4992810Y-17734429D01*
X4983286Y-17715381D01*
X4973762Y-17677286D01*
X4973762Y-17629667D01*
X4983286Y-17591571D01*
X4992810Y-17572524D01*
X5002333Y-17563000D01*
X5021381Y-17553476D01*
X5173762Y-17753476D02*
X5173762Y-17620143D01*
X5173762Y-17639190D02*
X5183286Y-17629667D01*
X5202333Y-17620143D01*
X5230905Y-17620143D01*
X5249952Y-17629667D01*
X5259476Y-17648714D01*
X5259476Y-17753476D01*
X5259476Y-17648714D02*
X5269000Y-17629667D01*
X5288048Y-17620143D01*
X5316619Y-17620143D01*
X5335667Y-17629667D01*
X5345190Y-17648714D01*
X5345190Y-17753476D01*
X5440429Y-17753476D02*
X5440429Y-17620143D01*
X5440429Y-17639190D02*
X5449952Y-17629667D01*
X5469000Y-17620143D01*
X5497571Y-17620143D01*
X5516619Y-17629667D01*
X5526143Y-17648714D01*
X5526143Y-17753476D01*
X5526143Y-17648714D02*
X5535667Y-17629667D01*
X5554714Y-17620143D01*
X5583286Y-17620143D01*
X5602333Y-17629667D01*
X5611857Y-17648714D01*
X5611857Y-17753476D01*
X6002333Y-17543952D02*
X5830905Y-17801095D01*
X6259476Y-17553476D02*
X6278524Y-17553476D01*
X6297571Y-17563000D01*
X6307095Y-17572524D01*
X6316619Y-17591571D01*
X6326143Y-17629667D01*
X6326143Y-17677286D01*
X6316619Y-17715381D01*
X6307095Y-17734429D01*
X6297571Y-17743952D01*
X6278524Y-17753476D01*
X6259476Y-17753476D01*
X6240428Y-17743952D01*
X6230905Y-17734429D01*
X6221381Y-17715381D01*
X6211857Y-17677286D01*
X6211857Y-17629667D01*
X6221381Y-17591571D01*
X6230905Y-17572524D01*
X6240428Y-17563000D01*
X6259476Y-17553476D01*
X6411857Y-17734429D02*
X6421381Y-17743952D01*
X6411857Y-17753476D01*
X6402333Y-17743952D01*
X6411857Y-17734429D01*
X6411857Y-17753476D01*
X6545190Y-17553476D02*
X6564238Y-17553476D01*
X6583286Y-17563000D01*
X6592809Y-17572524D01*
X6602333Y-17591571D01*
X6611857Y-17629667D01*
X6611857Y-17677286D01*
X6602333Y-17715381D01*
X6592809Y-17734429D01*
X6583286Y-17743952D01*
X6564238Y-17753476D01*
X6545190Y-17753476D01*
X6526143Y-17743952D01*
X6516619Y-17734429D01*
X6507095Y-17715381D01*
X6497571Y-17677286D01*
X6497571Y-17629667D01*
X6507095Y-17591571D01*
X6516619Y-17572524D01*
X6526143Y-17563000D01*
X6545190Y-17553476D01*
X6802333Y-17753476D02*
X6688048Y-17753476D01*
X6745190Y-17753476D02*
X6745190Y-17553476D01*
X6726143Y-17582048D01*
X6707095Y-17601095D01*
X6688048Y-17610619D01*
X6983286Y-17553476D02*
X6888048Y-17553476D01*
X6878524Y-17648714D01*
X6888048Y-17639190D01*
X6907095Y-17629667D01*
X6954714Y-17629667D01*
X6973762Y-17639190D01*
X6983286Y-17648714D01*
X6992809Y-17667762D01*
X6992809Y-17715381D01*
X6983286Y-17734429D01*
X6973762Y-17743952D01*
X6954714Y-17753476D01*
X6907095Y-17753476D01*
X6888048Y-17743952D01*
X6878524Y-17734429D01*
X7059476Y-17553476D02*
X7192809Y-17553476D01*
X7107095Y-17753476D01*
X7259476Y-17553476D02*
X7259476Y-17591571D01*
X7335667Y-17553476D02*
X7335667Y-17591571D01*
X7630905Y-17829667D02*
X7621381Y-17820143D01*
X7602333Y-17791571D01*
X7592809Y-17772524D01*
X7583286Y-17743952D01*
X7573762Y-17696333D01*
X7573762Y-17658238D01*
X7583286Y-17610619D01*
X7592809Y-17582048D01*
X7602333Y-17563000D01*
X7621381Y-17534429D01*
X7630905Y-17524905D01*
X7716619Y-17753476D02*
X7754714Y-17753476D01*
X7773762Y-17743952D01*
X7783286Y-17734429D01*
X7802333Y-17705857D01*
X7811857Y-17667762D01*
X7811857Y-17591571D01*
X7802333Y-17572524D01*
X7792809Y-17563000D01*
X7773762Y-17553476D01*
X7735667Y-17553476D01*
X7716619Y-17563000D01*
X7707095Y-17572524D01*
X7697571Y-17591571D01*
X7697571Y-17639190D01*
X7707095Y-17658238D01*
X7716619Y-17667762D01*
X7735667Y-17677286D01*
X7773762Y-17677286D01*
X7792809Y-17667762D01*
X7802333Y-17658238D01*
X7811857Y-17639190D01*
X7878524Y-17553476D02*
X8011857Y-17553476D01*
X7926143Y-17753476D01*
X8240428Y-17753476D02*
X8240428Y-17553476D01*
X8326143Y-17753476D02*
X8326143Y-17648714D01*
X8316619Y-17629667D01*
X8297571Y-17620143D01*
X8269000Y-17620143D01*
X8249952Y-17629667D01*
X8240428Y-17639190D01*
X8449952Y-17753476D02*
X8430905Y-17743952D01*
X8421381Y-17734429D01*
X8411857Y-17715381D01*
X8411857Y-17658238D01*
X8421381Y-17639190D01*
X8430905Y-17629667D01*
X8449952Y-17620143D01*
X8478524Y-17620143D01*
X8497571Y-17629667D01*
X8507095Y-17639190D01*
X8516619Y-17658238D01*
X8516619Y-17715381D01*
X8507095Y-17734429D01*
X8497571Y-17743952D01*
X8478524Y-17753476D01*
X8449952Y-17753476D01*
X8630905Y-17753476D02*
X8611857Y-17743952D01*
X8602333Y-17724905D01*
X8602333Y-17553476D01*
X8783286Y-17743952D02*
X8764238Y-17753476D01*
X8726143Y-17753476D01*
X8707095Y-17743952D01*
X8697571Y-17724905D01*
X8697571Y-17648714D01*
X8707095Y-17629667D01*
X8726143Y-17620143D01*
X8764238Y-17620143D01*
X8783286Y-17629667D01*
X8792810Y-17648714D01*
X8792810Y-17667762D01*
X8697571Y-17686810D01*
X8869000Y-17743952D02*
X8888048Y-17753476D01*
X8926143Y-17753476D01*
X8945190Y-17743952D01*
X8954714Y-17724905D01*
X8954714Y-17715381D01*
X8945190Y-17696333D01*
X8926143Y-17686810D01*
X8897571Y-17686810D01*
X8878524Y-17677286D01*
X8869000Y-17658238D01*
X8869000Y-17648714D01*
X8878524Y-17629667D01*
X8897571Y-17620143D01*
X8926143Y-17620143D01*
X8945190Y-17629667D01*
X9021381Y-17829667D02*
X9030905Y-17820143D01*
X9049952Y-17791571D01*
X9059476Y-17772524D01*
X9069000Y-17743952D01*
X9078524Y-17696333D01*
X9078524Y-17658238D01*
X9069000Y-17610619D01*
X9059476Y-17582048D01*
X9049952Y-17563000D01*
X9030905Y-17534429D01*
X9021381Y-17524905D01*
D13*
X4059000Y-17927000D02*
G75*
G03*
X4059000Y-17927000I-50000J0D01*
G01*
D11*
X4421381Y-18017476D02*
X4307095Y-18017476D01*
X4364238Y-18017476D02*
X4364238Y-17817476D01*
X4345190Y-17846048D01*
X4326143Y-17865095D01*
X4307095Y-17874619D01*
X4507095Y-17998429D02*
X4516619Y-18007952D01*
X4507095Y-18017476D01*
X4497571Y-18007952D01*
X4507095Y-17998429D01*
X4507095Y-18017476D01*
X4640429Y-17817476D02*
X4659476Y-17817476D01*
X4678524Y-17827000D01*
X4688048Y-17836524D01*
X4697571Y-17855571D01*
X4707095Y-17893667D01*
X4707095Y-17941286D01*
X4697571Y-17979381D01*
X4688048Y-17998429D01*
X4678524Y-18007952D01*
X4659476Y-18017476D01*
X4640429Y-18017476D01*
X4621381Y-18007952D01*
X4611857Y-17998429D01*
X4602333Y-17979381D01*
X4592810Y-17941286D01*
X4592810Y-17893667D01*
X4602333Y-17855571D01*
X4611857Y-17836524D01*
X4621381Y-17827000D01*
X4640429Y-17817476D01*
X4830905Y-17817476D02*
X4849952Y-17817476D01*
X4869000Y-17827000D01*
X4878524Y-17836524D01*
X4888048Y-17855571D01*
X4897571Y-17893667D01*
X4897571Y-17941286D01*
X4888048Y-17979381D01*
X4878524Y-17998429D01*
X4869000Y-18007952D01*
X4849952Y-18017476D01*
X4830905Y-18017476D01*
X4811857Y-18007952D01*
X4802333Y-17998429D01*
X4792810Y-17979381D01*
X4783286Y-17941286D01*
X4783286Y-17893667D01*
X4792810Y-17855571D01*
X4802333Y-17836524D01*
X4811857Y-17827000D01*
X4830905Y-17817476D01*
X5021381Y-17817476D02*
X5040429Y-17817476D01*
X5059476Y-17827000D01*
X5069000Y-17836524D01*
X5078524Y-17855571D01*
X5088048Y-17893667D01*
X5088048Y-17941286D01*
X5078524Y-17979381D01*
X5069000Y-17998429D01*
X5059476Y-18007952D01*
X5040429Y-18017476D01*
X5021381Y-18017476D01*
X5002333Y-18007952D01*
X4992810Y-17998429D01*
X4983286Y-17979381D01*
X4973762Y-17941286D01*
X4973762Y-17893667D01*
X4983286Y-17855571D01*
X4992810Y-17836524D01*
X5002333Y-17827000D01*
X5021381Y-17817476D01*
X5173762Y-18017476D02*
X5173762Y-17884143D01*
X5173762Y-17903190D02*
X5183286Y-17893667D01*
X5202333Y-17884143D01*
X5230905Y-17884143D01*
X5249952Y-17893667D01*
X5259476Y-17912714D01*
X5259476Y-18017476D01*
X5259476Y-17912714D02*
X5269000Y-17893667D01*
X5288048Y-17884143D01*
X5316619Y-17884143D01*
X5335667Y-17893667D01*
X5345190Y-17912714D01*
X5345190Y-18017476D01*
X5440429Y-18017476D02*
X5440429Y-17884143D01*
X5440429Y-17903190D02*
X5449952Y-17893667D01*
X5469000Y-17884143D01*
X5497571Y-17884143D01*
X5516619Y-17893667D01*
X5526143Y-17912714D01*
X5526143Y-18017476D01*
X5526143Y-17912714D02*
X5535667Y-17893667D01*
X5554714Y-17884143D01*
X5583286Y-17884143D01*
X5602333Y-17893667D01*
X5611857Y-17912714D01*
X5611857Y-18017476D01*
X6002333Y-17807952D02*
X5830905Y-18065095D01*
X6259476Y-17817476D02*
X6278524Y-17817476D01*
X6297571Y-17827000D01*
X6307095Y-17836524D01*
X6316619Y-17855571D01*
X6326143Y-17893667D01*
X6326143Y-17941286D01*
X6316619Y-17979381D01*
X6307095Y-17998429D01*
X6297571Y-18007952D01*
X6278524Y-18017476D01*
X6259476Y-18017476D01*
X6240428Y-18007952D01*
X6230905Y-17998429D01*
X6221381Y-17979381D01*
X6211857Y-17941286D01*
X6211857Y-17893667D01*
X6221381Y-17855571D01*
X6230905Y-17836524D01*
X6240428Y-17827000D01*
X6259476Y-17817476D01*
X6411857Y-17998429D02*
X6421381Y-18007952D01*
X6411857Y-18017476D01*
X6402333Y-18007952D01*
X6411857Y-17998429D01*
X6411857Y-18017476D01*
X6545190Y-17817476D02*
X6564238Y-17817476D01*
X6583286Y-17827000D01*
X6592809Y-17836524D01*
X6602333Y-17855571D01*
X6611857Y-17893667D01*
X6611857Y-17941286D01*
X6602333Y-17979381D01*
X6592809Y-17998429D01*
X6583286Y-18007952D01*
X6564238Y-18017476D01*
X6545190Y-18017476D01*
X6526143Y-18007952D01*
X6516619Y-17998429D01*
X6507095Y-17979381D01*
X6497571Y-17941286D01*
X6497571Y-17893667D01*
X6507095Y-17855571D01*
X6516619Y-17836524D01*
X6526143Y-17827000D01*
X6545190Y-17817476D01*
X6678524Y-17817476D02*
X6802333Y-17817476D01*
X6735667Y-17893667D01*
X6764238Y-17893667D01*
X6783286Y-17903190D01*
X6792809Y-17912714D01*
X6802333Y-17931762D01*
X6802333Y-17979381D01*
X6792809Y-17998429D01*
X6783286Y-18007952D01*
X6764238Y-18017476D01*
X6707095Y-18017476D01*
X6688048Y-18007952D01*
X6678524Y-17998429D01*
X6897571Y-18017476D02*
X6935667Y-18017476D01*
X6954714Y-18007952D01*
X6964238Y-17998429D01*
X6983286Y-17969857D01*
X6992809Y-17931762D01*
X6992809Y-17855571D01*
X6983286Y-17836524D01*
X6973762Y-17827000D01*
X6954714Y-17817476D01*
X6916619Y-17817476D01*
X6897571Y-17827000D01*
X6888048Y-17836524D01*
X6878524Y-17855571D01*
X6878524Y-17903190D01*
X6888048Y-17922238D01*
X6897571Y-17931762D01*
X6916619Y-17941286D01*
X6954714Y-17941286D01*
X6973762Y-17931762D01*
X6983286Y-17922238D01*
X6992809Y-17903190D01*
X7164238Y-17884143D02*
X7164238Y-18017476D01*
X7116619Y-17807952D02*
X7069000Y-17950810D01*
X7192809Y-17950810D01*
X7259476Y-17817476D02*
X7259476Y-17855571D01*
X7335667Y-17817476D02*
X7335667Y-17855571D01*
X7630905Y-18093667D02*
X7621381Y-18084143D01*
X7602333Y-18055571D01*
X7592809Y-18036524D01*
X7583286Y-18007952D01*
X7573762Y-17960333D01*
X7573762Y-17922238D01*
X7583286Y-17874619D01*
X7592809Y-17846048D01*
X7602333Y-17827000D01*
X7621381Y-17798429D01*
X7630905Y-17788905D01*
X7792809Y-17817476D02*
X7754714Y-17817476D01*
X7735667Y-17827000D01*
X7726143Y-17836524D01*
X7707095Y-17865095D01*
X7697571Y-17903190D01*
X7697571Y-17979381D01*
X7707095Y-17998429D01*
X7716619Y-18007952D01*
X7735667Y-18017476D01*
X7773762Y-18017476D01*
X7792809Y-18007952D01*
X7802333Y-17998429D01*
X7811857Y-17979381D01*
X7811857Y-17931762D01*
X7802333Y-17912714D01*
X7792809Y-17903190D01*
X7773762Y-17893667D01*
X7735667Y-17893667D01*
X7716619Y-17903190D01*
X7707095Y-17912714D01*
X7697571Y-17931762D01*
X7888048Y-17836524D02*
X7897571Y-17827000D01*
X7916619Y-17817476D01*
X7964238Y-17817476D01*
X7983286Y-17827000D01*
X7992809Y-17836524D01*
X8002333Y-17855571D01*
X8002333Y-17874619D01*
X7992809Y-17903190D01*
X7878524Y-18017476D01*
X8002333Y-18017476D01*
X8240428Y-18017476D02*
X8240428Y-17817476D01*
X8326143Y-18017476D02*
X8326143Y-17912714D01*
X8316619Y-17893667D01*
X8297571Y-17884143D01*
X8269000Y-17884143D01*
X8249952Y-17893667D01*
X8240428Y-17903190D01*
X8449952Y-18017476D02*
X8430905Y-18007952D01*
X8421381Y-17998429D01*
X8411857Y-17979381D01*
X8411857Y-17922238D01*
X8421381Y-17903190D01*
X8430905Y-17893667D01*
X8449952Y-17884143D01*
X8478524Y-17884143D01*
X8497571Y-17893667D01*
X8507095Y-17903190D01*
X8516619Y-17922238D01*
X8516619Y-17979381D01*
X8507095Y-17998429D01*
X8497571Y-18007952D01*
X8478524Y-18017476D01*
X8449952Y-18017476D01*
X8630905Y-18017476D02*
X8611857Y-18007952D01*
X8602333Y-17988905D01*
X8602333Y-17817476D01*
X8783286Y-18007952D02*
X8764238Y-18017476D01*
X8726143Y-18017476D01*
X8707095Y-18007952D01*
X8697571Y-17988905D01*
X8697571Y-17912714D01*
X8707095Y-17893667D01*
X8726143Y-17884143D01*
X8764238Y-17884143D01*
X8783286Y-17893667D01*
X8792810Y-17912714D01*
X8792810Y-17931762D01*
X8697571Y-17950810D01*
X8869000Y-18007952D02*
X8888048Y-18017476D01*
X8926143Y-18017476D01*
X8945190Y-18007952D01*
X8954714Y-17988905D01*
X8954714Y-17979381D01*
X8945190Y-17960333D01*
X8926143Y-17950810D01*
X8897571Y-17950810D01*
X8878524Y-17941286D01*
X8869000Y-17922238D01*
X8869000Y-17912714D01*
X8878524Y-17893667D01*
X8897571Y-17884143D01*
X8926143Y-17884143D01*
X8945190Y-17893667D01*
X9021381Y-18093667D02*
X9030905Y-18084143D01*
X9049952Y-18055571D01*
X9059476Y-18036524D01*
X9069000Y-18007952D01*
X9078524Y-17960333D01*
X9078524Y-17922238D01*
X9069000Y-17874619D01*
X9059476Y-17846048D01*
X9049952Y-17827000D01*
X9030905Y-17798429D01*
X9021381Y-17788905D01*
D14*
X3994000Y-18126000D02*
X3994000Y-18256000D01*
X3929000Y-18191000D02*
X4059000Y-18191000D01*
D11*
X4421381Y-18281476D02*
X4307095Y-18281476D01*
X4364238Y-18281476D02*
X4364238Y-18081476D01*
X4345190Y-18110048D01*
X4326143Y-18129095D01*
X4307095Y-18138619D01*
X4507095Y-18262429D02*
X4516619Y-18271952D01*
X4507095Y-18281476D01*
X4497571Y-18271952D01*
X4507095Y-18262429D01*
X4507095Y-18281476D01*
X4583286Y-18081476D02*
X4707095Y-18081476D01*
X4640429Y-18157667D01*
X4669000Y-18157667D01*
X4688048Y-18167190D01*
X4697571Y-18176714D01*
X4707095Y-18195762D01*
X4707095Y-18243381D01*
X4697571Y-18262429D01*
X4688048Y-18271952D01*
X4669000Y-18281476D01*
X4611857Y-18281476D01*
X4592810Y-18271952D01*
X4583286Y-18262429D01*
X4830905Y-18081476D02*
X4849952Y-18081476D01*
X4869000Y-18091000D01*
X4878524Y-18100524D01*
X4888048Y-18119571D01*
X4897571Y-18157667D01*
X4897571Y-18205286D01*
X4888048Y-18243381D01*
X4878524Y-18262429D01*
X4869000Y-18271952D01*
X4849952Y-18281476D01*
X4830905Y-18281476D01*
X4811857Y-18271952D01*
X4802333Y-18262429D01*
X4792810Y-18243381D01*
X4783286Y-18205286D01*
X4783286Y-18157667D01*
X4792810Y-18119571D01*
X4802333Y-18100524D01*
X4811857Y-18091000D01*
X4830905Y-18081476D01*
X5021381Y-18081476D02*
X5040429Y-18081476D01*
X5059476Y-18091000D01*
X5069000Y-18100524D01*
X5078524Y-18119571D01*
X5088048Y-18157667D01*
X5088048Y-18205286D01*
X5078524Y-18243381D01*
X5069000Y-18262429D01*
X5059476Y-18271952D01*
X5040429Y-18281476D01*
X5021381Y-18281476D01*
X5002333Y-18271952D01*
X4992810Y-18262429D01*
X4983286Y-18243381D01*
X4973762Y-18205286D01*
X4973762Y-18157667D01*
X4983286Y-18119571D01*
X4992810Y-18100524D01*
X5002333Y-18091000D01*
X5021381Y-18081476D01*
X5173762Y-18281476D02*
X5173762Y-18148143D01*
X5173762Y-18167190D02*
X5183286Y-18157667D01*
X5202333Y-18148143D01*
X5230905Y-18148143D01*
X5249952Y-18157667D01*
X5259476Y-18176714D01*
X5259476Y-18281476D01*
X5259476Y-18176714D02*
X5269000Y-18157667D01*
X5288048Y-18148143D01*
X5316619Y-18148143D01*
X5335667Y-18157667D01*
X5345190Y-18176714D01*
X5345190Y-18281476D01*
X5440429Y-18281476D02*
X5440429Y-18148143D01*
X5440429Y-18167190D02*
X5449952Y-18157667D01*
X5469000Y-18148143D01*
X5497571Y-18148143D01*
X5516619Y-18157667D01*
X5526143Y-18176714D01*
X5526143Y-18281476D01*
X5526143Y-18176714D02*
X5535667Y-18157667D01*
X5554714Y-18148143D01*
X5583286Y-18148143D01*
X5602333Y-18157667D01*
X5611857Y-18176714D01*
X5611857Y-18281476D01*
X6002333Y-18071952D02*
X5830905Y-18329095D01*
X6259476Y-18081476D02*
X6278524Y-18081476D01*
X6297571Y-18091000D01*
X6307095Y-18100524D01*
X6316619Y-18119571D01*
X6326143Y-18157667D01*
X6326143Y-18205286D01*
X6316619Y-18243381D01*
X6307095Y-18262429D01*
X6297571Y-18271952D01*
X6278524Y-18281476D01*
X6259476Y-18281476D01*
X6240428Y-18271952D01*
X6230905Y-18262429D01*
X6221381Y-18243381D01*
X6211857Y-18205286D01*
X6211857Y-18157667D01*
X6221381Y-18119571D01*
X6230905Y-18100524D01*
X6240428Y-18091000D01*
X6259476Y-18081476D01*
X6411857Y-18262429D02*
X6421381Y-18271952D01*
X6411857Y-18281476D01*
X6402333Y-18271952D01*
X6411857Y-18262429D01*
X6411857Y-18281476D01*
X6545190Y-18081476D02*
X6564238Y-18081476D01*
X6583286Y-18091000D01*
X6592809Y-18100524D01*
X6602333Y-18119571D01*
X6611857Y-18157667D01*
X6611857Y-18205286D01*
X6602333Y-18243381D01*
X6592809Y-18262429D01*
X6583286Y-18271952D01*
X6564238Y-18281476D01*
X6545190Y-18281476D01*
X6526143Y-18271952D01*
X6516619Y-18262429D01*
X6507095Y-18243381D01*
X6497571Y-18205286D01*
X6497571Y-18157667D01*
X6507095Y-18119571D01*
X6516619Y-18100524D01*
X6526143Y-18091000D01*
X6545190Y-18081476D01*
X6792809Y-18081476D02*
X6697571Y-18081476D01*
X6688048Y-18176714D01*
X6697571Y-18167190D01*
X6716619Y-18157667D01*
X6764238Y-18157667D01*
X6783286Y-18167190D01*
X6792809Y-18176714D01*
X6802333Y-18195762D01*
X6802333Y-18243381D01*
X6792809Y-18262429D01*
X6783286Y-18271952D01*
X6764238Y-18281476D01*
X6716619Y-18281476D01*
X6697571Y-18271952D01*
X6688048Y-18262429D01*
X6992809Y-18281476D02*
X6878524Y-18281476D01*
X6935667Y-18281476D02*
X6935667Y-18081476D01*
X6916619Y-18110048D01*
X6897571Y-18129095D01*
X6878524Y-18138619D01*
X7069000Y-18100524D02*
X7078524Y-18091000D01*
X7097571Y-18081476D01*
X7145190Y-18081476D01*
X7164238Y-18091000D01*
X7173762Y-18100524D01*
X7183286Y-18119571D01*
X7183286Y-18138619D01*
X7173762Y-18167190D01*
X7059476Y-18281476D01*
X7183286Y-18281476D01*
X7259476Y-18081476D02*
X7259476Y-18119571D01*
X7335667Y-18081476D02*
X7335667Y-18119571D01*
X7630905Y-18357667D02*
X7621381Y-18348143D01*
X7602333Y-18319571D01*
X7592809Y-18300524D01*
X7583286Y-18271952D01*
X7573762Y-18224333D01*
X7573762Y-18186238D01*
X7583286Y-18138619D01*
X7592809Y-18110048D01*
X7602333Y-18091000D01*
X7621381Y-18062429D01*
X7630905Y-18052905D01*
X7697571Y-18100524D02*
X7707095Y-18091000D01*
X7726143Y-18081476D01*
X7773762Y-18081476D01*
X7792809Y-18091000D01*
X7802333Y-18100524D01*
X7811857Y-18119571D01*
X7811857Y-18138619D01*
X7802333Y-18167190D01*
X7688048Y-18281476D01*
X7811857Y-18281476D01*
X7983286Y-18148143D02*
X7983286Y-18281476D01*
X7935667Y-18071952D02*
X7888048Y-18214810D01*
X8011857Y-18214810D01*
X8240428Y-18281476D02*
X8240428Y-18081476D01*
X8326143Y-18281476D02*
X8326143Y-18176714D01*
X8316619Y-18157667D01*
X8297571Y-18148143D01*
X8269000Y-18148143D01*
X8249952Y-18157667D01*
X8240428Y-18167190D01*
X8449952Y-18281476D02*
X8430905Y-18271952D01*
X8421381Y-18262429D01*
X8411857Y-18243381D01*
X8411857Y-18186238D01*
X8421381Y-18167190D01*
X8430905Y-18157667D01*
X8449952Y-18148143D01*
X8478524Y-18148143D01*
X8497571Y-18157667D01*
X8507095Y-18167190D01*
X8516619Y-18186238D01*
X8516619Y-18243381D01*
X8507095Y-18262429D01*
X8497571Y-18271952D01*
X8478524Y-18281476D01*
X8449952Y-18281476D01*
X8630905Y-18281476D02*
X8611857Y-18271952D01*
X8602333Y-18252905D01*
X8602333Y-18081476D01*
X8783286Y-18271952D02*
X8764238Y-18281476D01*
X8726143Y-18281476D01*
X8707095Y-18271952D01*
X8697571Y-18252905D01*
X8697571Y-18176714D01*
X8707095Y-18157667D01*
X8726143Y-18148143D01*
X8764238Y-18148143D01*
X8783286Y-18157667D01*
X8792810Y-18176714D01*
X8792810Y-18195762D01*
X8697571Y-18214810D01*
X8869000Y-18271952D02*
X8888048Y-18281476D01*
X8926143Y-18281476D01*
X8945190Y-18271952D01*
X8954714Y-18252905D01*
X8954714Y-18243381D01*
X8945190Y-18224333D01*
X8926143Y-18214810D01*
X8897571Y-18214810D01*
X8878524Y-18205286D01*
X8869000Y-18186238D01*
X8869000Y-18176714D01*
X8878524Y-18157667D01*
X8897571Y-18148143D01*
X8926143Y-18148143D01*
X8945190Y-18157667D01*
X9021381Y-18357667D02*
X9030905Y-18348143D01*
X9049952Y-18319571D01*
X9059476Y-18300524D01*
X9069000Y-18271952D01*
X9078524Y-18224333D01*
X9078524Y-18186238D01*
X9069000Y-18138619D01*
X9059476Y-18110048D01*
X9049952Y-18091000D01*
X9030905Y-18062429D01*
X9021381Y-18052905D01*
D15*
X4032640Y-18518640D02*
X4032640Y-18391360D01*
X3905360Y-18391360D01*
X3905360Y-18518640D01*
X4032640Y-18518640D01*
D11*
X4421381Y-18545476D02*
X4307095Y-18545476D01*
X4364238Y-18545476D02*
X4364238Y-18345476D01*
X4345190Y-18374048D01*
X4326143Y-18393095D01*
X4307095Y-18402619D01*
X4507095Y-18526429D02*
X4516619Y-18535952D01*
X4507095Y-18545476D01*
X4497571Y-18535952D01*
X4507095Y-18526429D01*
X4507095Y-18545476D01*
X4630905Y-18431190D02*
X4611857Y-18421667D01*
X4602333Y-18412143D01*
X4592810Y-18393095D01*
X4592810Y-18383571D01*
X4602333Y-18364524D01*
X4611857Y-18355000D01*
X4630905Y-18345476D01*
X4669000Y-18345476D01*
X4688048Y-18355000D01*
X4697571Y-18364524D01*
X4707095Y-18383571D01*
X4707095Y-18393095D01*
X4697571Y-18412143D01*
X4688048Y-18421667D01*
X4669000Y-18431190D01*
X4630905Y-18431190D01*
X4611857Y-18440714D01*
X4602333Y-18450238D01*
X4592810Y-18469286D01*
X4592810Y-18507381D01*
X4602333Y-18526429D01*
X4611857Y-18535952D01*
X4630905Y-18545476D01*
X4669000Y-18545476D01*
X4688048Y-18535952D01*
X4697571Y-18526429D01*
X4707095Y-18507381D01*
X4707095Y-18469286D01*
X4697571Y-18450238D01*
X4688048Y-18440714D01*
X4669000Y-18431190D01*
X4830905Y-18345476D02*
X4849952Y-18345476D01*
X4869000Y-18355000D01*
X4878524Y-18364524D01*
X4888048Y-18383571D01*
X4897571Y-18421667D01*
X4897571Y-18469286D01*
X4888048Y-18507381D01*
X4878524Y-18526429D01*
X4869000Y-18535952D01*
X4849952Y-18545476D01*
X4830905Y-18545476D01*
X4811857Y-18535952D01*
X4802333Y-18526429D01*
X4792810Y-18507381D01*
X4783286Y-18469286D01*
X4783286Y-18421667D01*
X4792810Y-18383571D01*
X4802333Y-18364524D01*
X4811857Y-18355000D01*
X4830905Y-18345476D01*
X5021381Y-18345476D02*
X5040429Y-18345476D01*
X5059476Y-18355000D01*
X5069000Y-18364524D01*
X5078524Y-18383571D01*
X5088048Y-18421667D01*
X5088048Y-18469286D01*
X5078524Y-18507381D01*
X5069000Y-18526429D01*
X5059476Y-18535952D01*
X5040429Y-18545476D01*
X5021381Y-18545476D01*
X5002333Y-18535952D01*
X4992810Y-18526429D01*
X4983286Y-18507381D01*
X4973762Y-18469286D01*
X4973762Y-18421667D01*
X4983286Y-18383571D01*
X4992810Y-18364524D01*
X5002333Y-18355000D01*
X5021381Y-18345476D01*
X5173762Y-18545476D02*
X5173762Y-18412143D01*
X5173762Y-18431190D02*
X5183286Y-18421667D01*
X5202333Y-18412143D01*
X5230905Y-18412143D01*
X5249952Y-18421667D01*
X5259476Y-18440714D01*
X5259476Y-18545476D01*
X5259476Y-18440714D02*
X5269000Y-18421667D01*
X5288048Y-18412143D01*
X5316619Y-18412143D01*
X5335667Y-18421667D01*
X5345190Y-18440714D01*
X5345190Y-18545476D01*
X5440429Y-18545476D02*
X5440429Y-18412143D01*
X5440429Y-18431190D02*
X5449952Y-18421667D01*
X5469000Y-18412143D01*
X5497571Y-18412143D01*
X5516619Y-18421667D01*
X5526143Y-18440714D01*
X5526143Y-18545476D01*
X5526143Y-18440714D02*
X5535667Y-18421667D01*
X5554714Y-18412143D01*
X5583286Y-18412143D01*
X5602333Y-18421667D01*
X5611857Y-18440714D01*
X5611857Y-18545476D01*
X6002333Y-18335952D02*
X5830905Y-18593095D01*
X6259476Y-18345476D02*
X6278524Y-18345476D01*
X6297571Y-18355000D01*
X6307095Y-18364524D01*
X6316619Y-18383571D01*
X6326143Y-18421667D01*
X6326143Y-18469286D01*
X6316619Y-18507381D01*
X6307095Y-18526429D01*
X6297571Y-18535952D01*
X6278524Y-18545476D01*
X6259476Y-18545476D01*
X6240428Y-18535952D01*
X6230905Y-18526429D01*
X6221381Y-18507381D01*
X6211857Y-18469286D01*
X6211857Y-18421667D01*
X6221381Y-18383571D01*
X6230905Y-18364524D01*
X6240428Y-18355000D01*
X6259476Y-18345476D01*
X6411857Y-18526429D02*
X6421381Y-18535952D01*
X6411857Y-18545476D01*
X6402333Y-18535952D01*
X6411857Y-18526429D01*
X6411857Y-18545476D01*
X6545190Y-18345476D02*
X6564238Y-18345476D01*
X6583286Y-18355000D01*
X6592809Y-18364524D01*
X6602333Y-18383571D01*
X6611857Y-18421667D01*
X6611857Y-18469286D01*
X6602333Y-18507381D01*
X6592809Y-18526429D01*
X6583286Y-18535952D01*
X6564238Y-18545476D01*
X6545190Y-18545476D01*
X6526143Y-18535952D01*
X6516619Y-18526429D01*
X6507095Y-18507381D01*
X6497571Y-18469286D01*
X6497571Y-18421667D01*
X6507095Y-18383571D01*
X6516619Y-18364524D01*
X6526143Y-18355000D01*
X6545190Y-18345476D01*
X6678524Y-18345476D02*
X6811857Y-18345476D01*
X6726143Y-18545476D01*
X6926143Y-18345476D02*
X6945190Y-18345476D01*
X6964238Y-18355000D01*
X6973762Y-18364524D01*
X6983286Y-18383571D01*
X6992809Y-18421667D01*
X6992809Y-18469286D01*
X6983286Y-18507381D01*
X6973762Y-18526429D01*
X6964238Y-18535952D01*
X6945190Y-18545476D01*
X6926143Y-18545476D01*
X6907095Y-18535952D01*
X6897571Y-18526429D01*
X6888048Y-18507381D01*
X6878524Y-18469286D01*
X6878524Y-18421667D01*
X6888048Y-18383571D01*
X6897571Y-18364524D01*
X6907095Y-18355000D01*
X6926143Y-18345476D01*
X7088048Y-18545476D02*
X7126143Y-18545476D01*
X7145190Y-18535952D01*
X7154714Y-18526429D01*
X7173762Y-18497857D01*
X7183286Y-18459762D01*
X7183286Y-18383571D01*
X7173762Y-18364524D01*
X7164238Y-18355000D01*
X7145190Y-18345476D01*
X7107095Y-18345476D01*
X7088048Y-18355000D01*
X7078524Y-18364524D01*
X7069000Y-18383571D01*
X7069000Y-18431190D01*
X7078524Y-18450238D01*
X7088048Y-18459762D01*
X7107095Y-18469286D01*
X7145190Y-18469286D01*
X7164238Y-18459762D01*
X7173762Y-18450238D01*
X7183286Y-18431190D01*
X7259476Y-18345476D02*
X7259476Y-18383571D01*
X7335667Y-18345476D02*
X7335667Y-18383571D01*
X7630905Y-18621667D02*
X7621381Y-18612143D01*
X7602333Y-18583571D01*
X7592809Y-18564524D01*
X7583286Y-18535952D01*
X7573762Y-18488333D01*
X7573762Y-18450238D01*
X7583286Y-18402619D01*
X7592809Y-18374048D01*
X7602333Y-18355000D01*
X7621381Y-18326429D01*
X7630905Y-18316905D01*
X7697571Y-18364524D02*
X7707095Y-18355000D01*
X7726143Y-18345476D01*
X7773762Y-18345476D01*
X7792809Y-18355000D01*
X7802333Y-18364524D01*
X7811857Y-18383571D01*
X7811857Y-18402619D01*
X7802333Y-18431190D01*
X7688048Y-18545476D01*
X7811857Y-18545476D01*
X7983286Y-18412143D02*
X7983286Y-18545476D01*
X7935667Y-18335952D02*
X7888048Y-18478810D01*
X8011857Y-18478810D01*
X8240428Y-18545476D02*
X8240428Y-18345476D01*
X8326143Y-18545476D02*
X8326143Y-18440714D01*
X8316619Y-18421667D01*
X8297571Y-18412143D01*
X8269000Y-18412143D01*
X8249952Y-18421667D01*
X8240428Y-18431190D01*
X8449952Y-18545476D02*
X8430905Y-18535952D01*
X8421381Y-18526429D01*
X8411857Y-18507381D01*
X8411857Y-18450238D01*
X8421381Y-18431190D01*
X8430905Y-18421667D01*
X8449952Y-18412143D01*
X8478524Y-18412143D01*
X8497571Y-18421667D01*
X8507095Y-18431190D01*
X8516619Y-18450238D01*
X8516619Y-18507381D01*
X8507095Y-18526429D01*
X8497571Y-18535952D01*
X8478524Y-18545476D01*
X8449952Y-18545476D01*
X8630905Y-18545476D02*
X8611857Y-18535952D01*
X8602333Y-18516905D01*
X8602333Y-18345476D01*
X8783286Y-18535952D02*
X8764238Y-18545476D01*
X8726143Y-18545476D01*
X8707095Y-18535952D01*
X8697571Y-18516905D01*
X8697571Y-18440714D01*
X8707095Y-18421667D01*
X8726143Y-18412143D01*
X8764238Y-18412143D01*
X8783286Y-18421667D01*
X8792810Y-18440714D01*
X8792810Y-18459762D01*
X8697571Y-18478810D01*
X8869000Y-18535952D02*
X8888048Y-18545476D01*
X8926143Y-18545476D01*
X8945190Y-18535952D01*
X8954714Y-18516905D01*
X8954714Y-18507381D01*
X8945190Y-18488333D01*
X8926143Y-18478810D01*
X8897571Y-18478810D01*
X8878524Y-18469286D01*
X8869000Y-18450238D01*
X8869000Y-18440714D01*
X8878524Y-18421667D01*
X8897571Y-18412143D01*
X8926143Y-18412143D01*
X8945190Y-18421667D01*
X9021381Y-18621667D02*
X9030905Y-18612143D01*
X9049952Y-18583571D01*
X9059476Y-18564524D01*
X9069000Y-18535952D01*
X9078524Y-18488333D01*
X9078524Y-18450238D01*
X9069000Y-18402619D01*
X9059476Y-18374048D01*
X9049952Y-18355000D01*
X9030905Y-18326429D01*
X9021381Y-18316905D01*
M02*
