%TF.GenerationSoftware,KiCad,Pcbnew,8.0.2-1*%
%TF.CreationDate,2024-11-16T15:05:09-05:00*%
%TF.ProjectId,Incubator-PowerBoard,496e6375-6261-4746-9f72-2d506f776572,v01a*%
%TF.SameCoordinates,Original*%
%TF.FileFunction,OtherDrawing,Comment*%
%FSLAX46Y46*%
G04 Gerber Fmt 4.6, Leading zero omitted, Abs format (unit mm)*
G04 Created by KiCad (PCBNEW 8.0.2-1) date 2024-11-16 15:05:09*
%MOMM*%
%LPD*%
G01*
G04 APERTURE LIST*
%ADD10C,0.150000*%
G04 APERTURE END LIST*
D10*
X173660057Y-52879046D02*
X173612438Y-52831427D01*
X173612438Y-52831427D02*
X173564819Y-52736189D01*
X173564819Y-52736189D02*
X173564819Y-52498094D01*
X173564819Y-52498094D02*
X173612438Y-52402856D01*
X173612438Y-52402856D02*
X173660057Y-52355237D01*
X173660057Y-52355237D02*
X173755295Y-52307618D01*
X173755295Y-52307618D02*
X173850533Y-52307618D01*
X173850533Y-52307618D02*
X173993390Y-52355237D01*
X173993390Y-52355237D02*
X174564819Y-52926665D01*
X174564819Y-52926665D02*
X174564819Y-52307618D01*
X173564819Y-51688570D02*
X173564819Y-51593332D01*
X173564819Y-51593332D02*
X173612438Y-51498094D01*
X173612438Y-51498094D02*
X173660057Y-51450475D01*
X173660057Y-51450475D02*
X173755295Y-51402856D01*
X173755295Y-51402856D02*
X173945771Y-51355237D01*
X173945771Y-51355237D02*
X174183866Y-51355237D01*
X174183866Y-51355237D02*
X174374342Y-51402856D01*
X174374342Y-51402856D02*
X174469580Y-51450475D01*
X174469580Y-51450475D02*
X174517200Y-51498094D01*
X174517200Y-51498094D02*
X174564819Y-51593332D01*
X174564819Y-51593332D02*
X174564819Y-51688570D01*
X174564819Y-51688570D02*
X174517200Y-51783808D01*
X174517200Y-51783808D02*
X174469580Y-51831427D01*
X174469580Y-51831427D02*
X174374342Y-51879046D01*
X174374342Y-51879046D02*
X174183866Y-51926665D01*
X174183866Y-51926665D02*
X173945771Y-51926665D01*
X173945771Y-51926665D02*
X173755295Y-51879046D01*
X173755295Y-51879046D02*
X173660057Y-51831427D01*
X173660057Y-51831427D02*
X173612438Y-51783808D01*
X173612438Y-51783808D02*
X173564819Y-51688570D01*
X174469580Y-50926665D02*
X174517200Y-50879046D01*
X174517200Y-50879046D02*
X174564819Y-50926665D01*
X174564819Y-50926665D02*
X174517200Y-50974284D01*
X174517200Y-50974284D02*
X174469580Y-50926665D01*
X174469580Y-50926665D02*
X174564819Y-50926665D01*
X173564819Y-50545713D02*
X173564819Y-49926666D01*
X173564819Y-49926666D02*
X173945771Y-50259999D01*
X173945771Y-50259999D02*
X173945771Y-50117142D01*
X173945771Y-50117142D02*
X173993390Y-50021904D01*
X173993390Y-50021904D02*
X174041009Y-49974285D01*
X174041009Y-49974285D02*
X174136247Y-49926666D01*
X174136247Y-49926666D02*
X174374342Y-49926666D01*
X174374342Y-49926666D02*
X174469580Y-49974285D01*
X174469580Y-49974285D02*
X174517200Y-50021904D01*
X174517200Y-50021904D02*
X174564819Y-50117142D01*
X174564819Y-50117142D02*
X174564819Y-50402856D01*
X174564819Y-50402856D02*
X174517200Y-50498094D01*
X174517200Y-50498094D02*
X174469580Y-50545713D01*
X173660057Y-49545713D02*
X173612438Y-49498094D01*
X173612438Y-49498094D02*
X173564819Y-49402856D01*
X173564819Y-49402856D02*
X173564819Y-49164761D01*
X173564819Y-49164761D02*
X173612438Y-49069523D01*
X173612438Y-49069523D02*
X173660057Y-49021904D01*
X173660057Y-49021904D02*
X173755295Y-48974285D01*
X173755295Y-48974285D02*
X173850533Y-48974285D01*
X173850533Y-48974285D02*
X173993390Y-49021904D01*
X173993390Y-49021904D02*
X174564819Y-49593332D01*
X174564819Y-49593332D02*
X174564819Y-48974285D01*
X173564819Y-48355237D02*
X173564819Y-48259999D01*
X173564819Y-48259999D02*
X173612438Y-48164761D01*
X173612438Y-48164761D02*
X173660057Y-48117142D01*
X173660057Y-48117142D02*
X173755295Y-48069523D01*
X173755295Y-48069523D02*
X173945771Y-48021904D01*
X173945771Y-48021904D02*
X174183866Y-48021904D01*
X174183866Y-48021904D02*
X174374342Y-48069523D01*
X174374342Y-48069523D02*
X174469580Y-48117142D01*
X174469580Y-48117142D02*
X174517200Y-48164761D01*
X174517200Y-48164761D02*
X174564819Y-48259999D01*
X174564819Y-48259999D02*
X174564819Y-48355237D01*
X174564819Y-48355237D02*
X174517200Y-48450475D01*
X174517200Y-48450475D02*
X174469580Y-48498094D01*
X174469580Y-48498094D02*
X174374342Y-48545713D01*
X174374342Y-48545713D02*
X174183866Y-48593332D01*
X174183866Y-48593332D02*
X173945771Y-48593332D01*
X173945771Y-48593332D02*
X173755295Y-48545713D01*
X173755295Y-48545713D02*
X173660057Y-48498094D01*
X173660057Y-48498094D02*
X173612438Y-48450475D01*
X173612438Y-48450475D02*
X173564819Y-48355237D01*
X173564819Y-47402856D02*
X173564819Y-47307618D01*
X173564819Y-47307618D02*
X173612438Y-47212380D01*
X173612438Y-47212380D02*
X173660057Y-47164761D01*
X173660057Y-47164761D02*
X173755295Y-47117142D01*
X173755295Y-47117142D02*
X173945771Y-47069523D01*
X173945771Y-47069523D02*
X174183866Y-47069523D01*
X174183866Y-47069523D02*
X174374342Y-47117142D01*
X174374342Y-47117142D02*
X174469580Y-47164761D01*
X174469580Y-47164761D02*
X174517200Y-47212380D01*
X174517200Y-47212380D02*
X174564819Y-47307618D01*
X174564819Y-47307618D02*
X174564819Y-47402856D01*
X174564819Y-47402856D02*
X174517200Y-47498094D01*
X174517200Y-47498094D02*
X174469580Y-47545713D01*
X174469580Y-47545713D02*
X174374342Y-47593332D01*
X174374342Y-47593332D02*
X174183866Y-47640951D01*
X174183866Y-47640951D02*
X173945771Y-47640951D01*
X173945771Y-47640951D02*
X173755295Y-47593332D01*
X173755295Y-47593332D02*
X173660057Y-47545713D01*
X173660057Y-47545713D02*
X173612438Y-47498094D01*
X173612438Y-47498094D02*
X173564819Y-47402856D01*
X174564819Y-45879046D02*
X173898152Y-45879046D01*
X173993390Y-45879046D02*
X173945771Y-45831427D01*
X173945771Y-45831427D02*
X173898152Y-45736189D01*
X173898152Y-45736189D02*
X173898152Y-45593332D01*
X173898152Y-45593332D02*
X173945771Y-45498094D01*
X173945771Y-45498094D02*
X174041009Y-45450475D01*
X174041009Y-45450475D02*
X174564819Y-45450475D01*
X174041009Y-45450475D02*
X173945771Y-45402856D01*
X173945771Y-45402856D02*
X173898152Y-45307618D01*
X173898152Y-45307618D02*
X173898152Y-45164761D01*
X173898152Y-45164761D02*
X173945771Y-45069522D01*
X173945771Y-45069522D02*
X174041009Y-45021903D01*
X174041009Y-45021903D02*
X174564819Y-45021903D01*
X174564819Y-44545713D02*
X173898152Y-44545713D01*
X173993390Y-44545713D02*
X173945771Y-44498094D01*
X173945771Y-44498094D02*
X173898152Y-44402856D01*
X173898152Y-44402856D02*
X173898152Y-44259999D01*
X173898152Y-44259999D02*
X173945771Y-44164761D01*
X173945771Y-44164761D02*
X174041009Y-44117142D01*
X174041009Y-44117142D02*
X174564819Y-44117142D01*
X174041009Y-44117142D02*
X173945771Y-44069523D01*
X173945771Y-44069523D02*
X173898152Y-43974285D01*
X173898152Y-43974285D02*
X173898152Y-43831428D01*
X173898152Y-43831428D02*
X173945771Y-43736189D01*
X173945771Y-43736189D02*
X174041009Y-43688570D01*
X174041009Y-43688570D02*
X174564819Y-43688570D01*
X165600000Y-58420000D02*
X175846420Y-58420000D01*
X165600000Y-38100000D02*
X175846420Y-38100000D01*
X175260000Y-58420000D02*
X175260000Y-38100000D01*
X175260000Y-58420000D02*
X175260000Y-38100000D01*
X175260000Y-58420000D02*
X174673579Y-57293496D01*
X175260000Y-58420000D02*
X175846421Y-57293496D01*
X175260000Y-38100000D02*
X175846421Y-39226504D01*
X175260000Y-38100000D02*
X174673579Y-39226504D01*
X206969164Y-56447144D02*
X206969164Y-56590001D01*
X206969164Y-56590001D02*
X207004878Y-56661429D01*
X207004878Y-56661429D02*
X207040592Y-56697144D01*
X207040592Y-56697144D02*
X207147735Y-56768572D01*
X207147735Y-56768572D02*
X207290592Y-56804286D01*
X207290592Y-56804286D02*
X207576307Y-56804286D01*
X207576307Y-56804286D02*
X207647735Y-56768572D01*
X207647735Y-56768572D02*
X207683450Y-56732858D01*
X207683450Y-56732858D02*
X207719164Y-56661429D01*
X207719164Y-56661429D02*
X207719164Y-56518572D01*
X207719164Y-56518572D02*
X207683450Y-56447144D01*
X207683450Y-56447144D02*
X207647735Y-56411429D01*
X207647735Y-56411429D02*
X207576307Y-56375715D01*
X207576307Y-56375715D02*
X207397735Y-56375715D01*
X207397735Y-56375715D02*
X207326307Y-56411429D01*
X207326307Y-56411429D02*
X207290592Y-56447144D01*
X207290592Y-56447144D02*
X207254878Y-56518572D01*
X207254878Y-56518572D02*
X207254878Y-56661429D01*
X207254878Y-56661429D02*
X207290592Y-56732858D01*
X207290592Y-56732858D02*
X207326307Y-56768572D01*
X207326307Y-56768572D02*
X207397735Y-56804286D01*
X206969164Y-55911429D02*
X206969164Y-55840000D01*
X206969164Y-55840000D02*
X207004878Y-55768572D01*
X207004878Y-55768572D02*
X207040592Y-55732858D01*
X207040592Y-55732858D02*
X207112021Y-55697143D01*
X207112021Y-55697143D02*
X207254878Y-55661429D01*
X207254878Y-55661429D02*
X207433450Y-55661429D01*
X207433450Y-55661429D02*
X207576307Y-55697143D01*
X207576307Y-55697143D02*
X207647735Y-55732858D01*
X207647735Y-55732858D02*
X207683450Y-55768572D01*
X207683450Y-55768572D02*
X207719164Y-55840000D01*
X207719164Y-55840000D02*
X207719164Y-55911429D01*
X207719164Y-55911429D02*
X207683450Y-55982858D01*
X207683450Y-55982858D02*
X207647735Y-56018572D01*
X207647735Y-56018572D02*
X207576307Y-56054286D01*
X207576307Y-56054286D02*
X207433450Y-56090000D01*
X207433450Y-56090000D02*
X207254878Y-56090000D01*
X207254878Y-56090000D02*
X207112021Y-56054286D01*
X207112021Y-56054286D02*
X207040592Y-56018572D01*
X207040592Y-56018572D02*
X207004878Y-55982858D01*
X207004878Y-55982858D02*
X206969164Y-55911429D01*
X207647735Y-55340000D02*
X207683450Y-55304286D01*
X207683450Y-55304286D02*
X207719164Y-55340000D01*
X207719164Y-55340000D02*
X207683450Y-55375714D01*
X207683450Y-55375714D02*
X207647735Y-55340000D01*
X207647735Y-55340000D02*
X207719164Y-55340000D01*
X207719164Y-54947143D02*
X207719164Y-54804286D01*
X207719164Y-54804286D02*
X207683450Y-54732857D01*
X207683450Y-54732857D02*
X207647735Y-54697143D01*
X207647735Y-54697143D02*
X207540592Y-54625714D01*
X207540592Y-54625714D02*
X207397735Y-54590000D01*
X207397735Y-54590000D02*
X207112021Y-54590000D01*
X207112021Y-54590000D02*
X207040592Y-54625714D01*
X207040592Y-54625714D02*
X207004878Y-54661429D01*
X207004878Y-54661429D02*
X206969164Y-54732857D01*
X206969164Y-54732857D02*
X206969164Y-54875714D01*
X206969164Y-54875714D02*
X207004878Y-54947143D01*
X207004878Y-54947143D02*
X207040592Y-54982857D01*
X207040592Y-54982857D02*
X207112021Y-55018571D01*
X207112021Y-55018571D02*
X207290592Y-55018571D01*
X207290592Y-55018571D02*
X207362021Y-54982857D01*
X207362021Y-54982857D02*
X207397735Y-54947143D01*
X207397735Y-54947143D02*
X207433450Y-54875714D01*
X207433450Y-54875714D02*
X207433450Y-54732857D01*
X207433450Y-54732857D02*
X207397735Y-54661429D01*
X207397735Y-54661429D02*
X207362021Y-54625714D01*
X207362021Y-54625714D02*
X207290592Y-54590000D01*
X206969164Y-53947143D02*
X206969164Y-54090000D01*
X206969164Y-54090000D02*
X207004878Y-54161428D01*
X207004878Y-54161428D02*
X207040592Y-54197143D01*
X207040592Y-54197143D02*
X207147735Y-54268571D01*
X207147735Y-54268571D02*
X207290592Y-54304285D01*
X207290592Y-54304285D02*
X207576307Y-54304285D01*
X207576307Y-54304285D02*
X207647735Y-54268571D01*
X207647735Y-54268571D02*
X207683450Y-54232857D01*
X207683450Y-54232857D02*
X207719164Y-54161428D01*
X207719164Y-54161428D02*
X207719164Y-54018571D01*
X207719164Y-54018571D02*
X207683450Y-53947143D01*
X207683450Y-53947143D02*
X207647735Y-53911428D01*
X207647735Y-53911428D02*
X207576307Y-53875714D01*
X207576307Y-53875714D02*
X207397735Y-53875714D01*
X207397735Y-53875714D02*
X207326307Y-53911428D01*
X207326307Y-53911428D02*
X207290592Y-53947143D01*
X207290592Y-53947143D02*
X207254878Y-54018571D01*
X207254878Y-54018571D02*
X207254878Y-54161428D01*
X207254878Y-54161428D02*
X207290592Y-54232857D01*
X207290592Y-54232857D02*
X207326307Y-54268571D01*
X207326307Y-54268571D02*
X207397735Y-54304285D01*
X206969164Y-53411428D02*
X206969164Y-53339999D01*
X206969164Y-53339999D02*
X207004878Y-53268571D01*
X207004878Y-53268571D02*
X207040592Y-53232857D01*
X207040592Y-53232857D02*
X207112021Y-53197142D01*
X207112021Y-53197142D02*
X207254878Y-53161428D01*
X207254878Y-53161428D02*
X207433450Y-53161428D01*
X207433450Y-53161428D02*
X207576307Y-53197142D01*
X207576307Y-53197142D02*
X207647735Y-53232857D01*
X207647735Y-53232857D02*
X207683450Y-53268571D01*
X207683450Y-53268571D02*
X207719164Y-53339999D01*
X207719164Y-53339999D02*
X207719164Y-53411428D01*
X207719164Y-53411428D02*
X207683450Y-53482857D01*
X207683450Y-53482857D02*
X207647735Y-53518571D01*
X207647735Y-53518571D02*
X207576307Y-53554285D01*
X207576307Y-53554285D02*
X207433450Y-53589999D01*
X207433450Y-53589999D02*
X207254878Y-53589999D01*
X207254878Y-53589999D02*
X207112021Y-53554285D01*
X207112021Y-53554285D02*
X207040592Y-53518571D01*
X207040592Y-53518571D02*
X207004878Y-53482857D01*
X207004878Y-53482857D02*
X206969164Y-53411428D01*
X206969164Y-52697142D02*
X206969164Y-52625713D01*
X206969164Y-52625713D02*
X207004878Y-52554285D01*
X207004878Y-52554285D02*
X207040592Y-52518571D01*
X207040592Y-52518571D02*
X207112021Y-52482856D01*
X207112021Y-52482856D02*
X207254878Y-52447142D01*
X207254878Y-52447142D02*
X207433450Y-52447142D01*
X207433450Y-52447142D02*
X207576307Y-52482856D01*
X207576307Y-52482856D02*
X207647735Y-52518571D01*
X207647735Y-52518571D02*
X207683450Y-52554285D01*
X207683450Y-52554285D02*
X207719164Y-52625713D01*
X207719164Y-52625713D02*
X207719164Y-52697142D01*
X207719164Y-52697142D02*
X207683450Y-52768571D01*
X207683450Y-52768571D02*
X207647735Y-52804285D01*
X207647735Y-52804285D02*
X207576307Y-52839999D01*
X207576307Y-52839999D02*
X207433450Y-52875713D01*
X207433450Y-52875713D02*
X207254878Y-52875713D01*
X207254878Y-52875713D02*
X207112021Y-52839999D01*
X207112021Y-52839999D02*
X207040592Y-52804285D01*
X207040592Y-52804285D02*
X207004878Y-52768571D01*
X207004878Y-52768571D02*
X206969164Y-52697142D01*
X207719164Y-51554284D02*
X207219164Y-51554284D01*
X207290592Y-51554284D02*
X207254878Y-51518570D01*
X207254878Y-51518570D02*
X207219164Y-51447141D01*
X207219164Y-51447141D02*
X207219164Y-51339998D01*
X207219164Y-51339998D02*
X207254878Y-51268570D01*
X207254878Y-51268570D02*
X207326307Y-51232856D01*
X207326307Y-51232856D02*
X207719164Y-51232856D01*
X207326307Y-51232856D02*
X207254878Y-51197141D01*
X207254878Y-51197141D02*
X207219164Y-51125713D01*
X207219164Y-51125713D02*
X207219164Y-51018570D01*
X207219164Y-51018570D02*
X207254878Y-50947141D01*
X207254878Y-50947141D02*
X207326307Y-50911427D01*
X207326307Y-50911427D02*
X207719164Y-50911427D01*
X207719164Y-50554284D02*
X207219164Y-50554284D01*
X207290592Y-50554284D02*
X207254878Y-50518570D01*
X207254878Y-50518570D02*
X207219164Y-50447141D01*
X207219164Y-50447141D02*
X207219164Y-50339998D01*
X207219164Y-50339998D02*
X207254878Y-50268570D01*
X207254878Y-50268570D02*
X207326307Y-50232856D01*
X207326307Y-50232856D02*
X207719164Y-50232856D01*
X207326307Y-50232856D02*
X207254878Y-50197141D01*
X207254878Y-50197141D02*
X207219164Y-50125713D01*
X207219164Y-50125713D02*
X207219164Y-50018570D01*
X207219164Y-50018570D02*
X207254878Y-49947141D01*
X207254878Y-49947141D02*
X207326307Y-49911427D01*
X207326307Y-49911427D02*
X207719164Y-49911427D01*
X206240000Y-22860000D02*
X208866420Y-22860000D01*
X208866420Y-83820000D02*
X206240000Y-83820000D01*
X208280000Y-22860000D02*
X208280000Y-83820000D01*
X208280000Y-22860000D02*
X208280000Y-83820000D01*
X208280000Y-22860000D02*
X208866421Y-23986504D01*
X208280000Y-22860000D02*
X207693579Y-23986504D01*
X208280000Y-83820000D02*
X207693579Y-82693496D01*
X208280000Y-83820000D02*
X208866421Y-82693496D01*
X154087141Y-19759164D02*
X154229998Y-19759164D01*
X154229998Y-19759164D02*
X154301427Y-19723450D01*
X154301427Y-19723450D02*
X154337141Y-19687735D01*
X154337141Y-19687735D02*
X154408570Y-19580592D01*
X154408570Y-19580592D02*
X154444284Y-19437735D01*
X154444284Y-19437735D02*
X154444284Y-19152021D01*
X154444284Y-19152021D02*
X154408570Y-19080592D01*
X154408570Y-19080592D02*
X154372856Y-19044878D01*
X154372856Y-19044878D02*
X154301427Y-19009164D01*
X154301427Y-19009164D02*
X154158570Y-19009164D01*
X154158570Y-19009164D02*
X154087141Y-19044878D01*
X154087141Y-19044878D02*
X154051427Y-19080592D01*
X154051427Y-19080592D02*
X154015713Y-19152021D01*
X154015713Y-19152021D02*
X154015713Y-19330592D01*
X154015713Y-19330592D02*
X154051427Y-19402021D01*
X154051427Y-19402021D02*
X154087141Y-19437735D01*
X154087141Y-19437735D02*
X154158570Y-19473450D01*
X154158570Y-19473450D02*
X154301427Y-19473450D01*
X154301427Y-19473450D02*
X154372856Y-19437735D01*
X154372856Y-19437735D02*
X154408570Y-19402021D01*
X154408570Y-19402021D02*
X154444284Y-19330592D01*
X155087142Y-19009164D02*
X154944284Y-19009164D01*
X154944284Y-19009164D02*
X154872856Y-19044878D01*
X154872856Y-19044878D02*
X154837142Y-19080592D01*
X154837142Y-19080592D02*
X154765713Y-19187735D01*
X154765713Y-19187735D02*
X154729999Y-19330592D01*
X154729999Y-19330592D02*
X154729999Y-19616307D01*
X154729999Y-19616307D02*
X154765713Y-19687735D01*
X154765713Y-19687735D02*
X154801427Y-19723450D01*
X154801427Y-19723450D02*
X154872856Y-19759164D01*
X154872856Y-19759164D02*
X155015713Y-19759164D01*
X155015713Y-19759164D02*
X155087142Y-19723450D01*
X155087142Y-19723450D02*
X155122856Y-19687735D01*
X155122856Y-19687735D02*
X155158570Y-19616307D01*
X155158570Y-19616307D02*
X155158570Y-19437735D01*
X155158570Y-19437735D02*
X155122856Y-19366307D01*
X155122856Y-19366307D02*
X155087142Y-19330592D01*
X155087142Y-19330592D02*
X155015713Y-19294878D01*
X155015713Y-19294878D02*
X154872856Y-19294878D01*
X154872856Y-19294878D02*
X154801427Y-19330592D01*
X154801427Y-19330592D02*
X154765713Y-19366307D01*
X154765713Y-19366307D02*
X154729999Y-19437735D01*
X155479999Y-19687735D02*
X155515713Y-19723450D01*
X155515713Y-19723450D02*
X155479999Y-19759164D01*
X155479999Y-19759164D02*
X155444285Y-19723450D01*
X155444285Y-19723450D02*
X155479999Y-19687735D01*
X155479999Y-19687735D02*
X155479999Y-19759164D01*
X156194285Y-19009164D02*
X155837142Y-19009164D01*
X155837142Y-19009164D02*
X155801428Y-19366307D01*
X155801428Y-19366307D02*
X155837142Y-19330592D01*
X155837142Y-19330592D02*
X155908571Y-19294878D01*
X155908571Y-19294878D02*
X156087142Y-19294878D01*
X156087142Y-19294878D02*
X156158571Y-19330592D01*
X156158571Y-19330592D02*
X156194285Y-19366307D01*
X156194285Y-19366307D02*
X156229999Y-19437735D01*
X156229999Y-19437735D02*
X156229999Y-19616307D01*
X156229999Y-19616307D02*
X156194285Y-19687735D01*
X156194285Y-19687735D02*
X156158571Y-19723450D01*
X156158571Y-19723450D02*
X156087142Y-19759164D01*
X156087142Y-19759164D02*
X155908571Y-19759164D01*
X155908571Y-19759164D02*
X155837142Y-19723450D01*
X155837142Y-19723450D02*
X155801428Y-19687735D01*
X156515714Y-19080592D02*
X156551428Y-19044878D01*
X156551428Y-19044878D02*
X156622857Y-19009164D01*
X156622857Y-19009164D02*
X156801428Y-19009164D01*
X156801428Y-19009164D02*
X156872857Y-19044878D01*
X156872857Y-19044878D02*
X156908571Y-19080592D01*
X156908571Y-19080592D02*
X156944285Y-19152021D01*
X156944285Y-19152021D02*
X156944285Y-19223450D01*
X156944285Y-19223450D02*
X156908571Y-19330592D01*
X156908571Y-19330592D02*
X156479999Y-19759164D01*
X156479999Y-19759164D02*
X156944285Y-19759164D01*
X157408571Y-19009164D02*
X157480000Y-19009164D01*
X157480000Y-19009164D02*
X157551428Y-19044878D01*
X157551428Y-19044878D02*
X157587143Y-19080592D01*
X157587143Y-19080592D02*
X157622857Y-19152021D01*
X157622857Y-19152021D02*
X157658571Y-19294878D01*
X157658571Y-19294878D02*
X157658571Y-19473450D01*
X157658571Y-19473450D02*
X157622857Y-19616307D01*
X157622857Y-19616307D02*
X157587143Y-19687735D01*
X157587143Y-19687735D02*
X157551428Y-19723450D01*
X157551428Y-19723450D02*
X157480000Y-19759164D01*
X157480000Y-19759164D02*
X157408571Y-19759164D01*
X157408571Y-19759164D02*
X157337143Y-19723450D01*
X157337143Y-19723450D02*
X157301428Y-19687735D01*
X157301428Y-19687735D02*
X157265714Y-19616307D01*
X157265714Y-19616307D02*
X157230000Y-19473450D01*
X157230000Y-19473450D02*
X157230000Y-19294878D01*
X157230000Y-19294878D02*
X157265714Y-19152021D01*
X157265714Y-19152021D02*
X157301428Y-19080592D01*
X157301428Y-19080592D02*
X157337143Y-19044878D01*
X157337143Y-19044878D02*
X157408571Y-19009164D01*
X158122857Y-19009164D02*
X158194286Y-19009164D01*
X158194286Y-19009164D02*
X158265714Y-19044878D01*
X158265714Y-19044878D02*
X158301429Y-19080592D01*
X158301429Y-19080592D02*
X158337143Y-19152021D01*
X158337143Y-19152021D02*
X158372857Y-19294878D01*
X158372857Y-19294878D02*
X158372857Y-19473450D01*
X158372857Y-19473450D02*
X158337143Y-19616307D01*
X158337143Y-19616307D02*
X158301429Y-19687735D01*
X158301429Y-19687735D02*
X158265714Y-19723450D01*
X158265714Y-19723450D02*
X158194286Y-19759164D01*
X158194286Y-19759164D02*
X158122857Y-19759164D01*
X158122857Y-19759164D02*
X158051429Y-19723450D01*
X158051429Y-19723450D02*
X158015714Y-19687735D01*
X158015714Y-19687735D02*
X157980000Y-19616307D01*
X157980000Y-19616307D02*
X157944286Y-19473450D01*
X157944286Y-19473450D02*
X157944286Y-19294878D01*
X157944286Y-19294878D02*
X157980000Y-19152021D01*
X157980000Y-19152021D02*
X158015714Y-19080592D01*
X158015714Y-19080592D02*
X158051429Y-19044878D01*
X158051429Y-19044878D02*
X158122857Y-19009164D01*
X159265715Y-19759164D02*
X159265715Y-19259164D01*
X159265715Y-19330592D02*
X159301429Y-19294878D01*
X159301429Y-19294878D02*
X159372858Y-19259164D01*
X159372858Y-19259164D02*
X159480001Y-19259164D01*
X159480001Y-19259164D02*
X159551429Y-19294878D01*
X159551429Y-19294878D02*
X159587144Y-19366307D01*
X159587144Y-19366307D02*
X159587144Y-19759164D01*
X159587144Y-19366307D02*
X159622858Y-19294878D01*
X159622858Y-19294878D02*
X159694286Y-19259164D01*
X159694286Y-19259164D02*
X159801429Y-19259164D01*
X159801429Y-19259164D02*
X159872858Y-19294878D01*
X159872858Y-19294878D02*
X159908572Y-19366307D01*
X159908572Y-19366307D02*
X159908572Y-19759164D01*
X160265715Y-19759164D02*
X160265715Y-19259164D01*
X160265715Y-19330592D02*
X160301429Y-19294878D01*
X160301429Y-19294878D02*
X160372858Y-19259164D01*
X160372858Y-19259164D02*
X160480001Y-19259164D01*
X160480001Y-19259164D02*
X160551429Y-19294878D01*
X160551429Y-19294878D02*
X160587144Y-19366307D01*
X160587144Y-19366307D02*
X160587144Y-19759164D01*
X160587144Y-19366307D02*
X160622858Y-19294878D01*
X160622858Y-19294878D02*
X160694286Y-19259164D01*
X160694286Y-19259164D02*
X160801429Y-19259164D01*
X160801429Y-19259164D02*
X160872858Y-19294878D01*
X160872858Y-19294878D02*
X160908572Y-19366307D01*
X160908572Y-19366307D02*
X160908572Y-19759164D01*
X109220000Y-22360000D02*
X109220000Y-19733580D01*
X205740000Y-19733580D02*
X205740000Y-22360000D01*
X109220000Y-20320000D02*
X205740000Y-20320000D01*
X109220000Y-20320000D02*
X205740000Y-20320000D01*
X109220000Y-20320000D02*
X110346504Y-19733579D01*
X109220000Y-20320000D02*
X110346504Y-20906421D01*
X205740000Y-20320000D02*
X204613496Y-20906421D01*
X205740000Y-20320000D02*
X204613496Y-19733579D01*
M02*
