%TF.GenerationSoftware,KiCad,Pcbnew,8.0.2-1*%
%TF.CreationDate,2024-11-16T15:01:59-05:00*%
%TF.ProjectId,Incubator-PowerBoard,496e6375-6261-4746-9f72-2d506f776572,v01a*%
%TF.SameCoordinates,Original*%
%TF.FileFunction,Drillmap*%
%TF.FilePolarity,Positive*%
%FSLAX45Y45*%
G04 Gerber Fmt 4.5, Leading zero omitted, Abs format (unit mm)*
G04 Created by KiCad (PCBNEW 8.0.2-1) date 2024-11-16 15:01:59*
%MOMM*%
%LPD*%
G01*
G04 APERTURE LIST*
%ADD10C,0.100000*%
%ADD11C,0.200000*%
%ADD12C,0.180000*%
%ADD13C,0.400000*%
G04 APERTURE END LIST*
D10*
X10922000Y-2286000D02*
X20574000Y-2286000D01*
X20574000Y-8382000D01*
X10922000Y-8382000D01*
X10922000Y-2286000D01*
D11*
D10*
X11518900Y-5473700D02*
X11544300Y-5499100D01*
X11544300Y-5473700D02*
X11518900Y-5499100D01*
X11569700Y-5981700D02*
X11595100Y-6007100D01*
X11595100Y-5981700D02*
X11569700Y-6007100D01*
X11595100Y-5473700D02*
X11620500Y-5499100D01*
X11620500Y-5473700D02*
X11595100Y-5499100D01*
X11671300Y-5473700D02*
X11696700Y-5499100D01*
X11696700Y-5473700D02*
X11671300Y-5499100D01*
X11671300Y-5880100D02*
X11696700Y-5905500D01*
X11696700Y-5880100D02*
X11671300Y-5905500D01*
X11671300Y-5981700D02*
X11696700Y-6007100D01*
X11696700Y-5981700D02*
X11671300Y-6007100D01*
X11798300Y-5219700D02*
X11823700Y-5245100D01*
X11823700Y-5219700D02*
X11798300Y-5245100D01*
X11798300Y-5295900D02*
X11823700Y-5321300D01*
X11823700Y-5295900D02*
X11798300Y-5321300D01*
X11798300Y-5372100D02*
X11823700Y-5397500D01*
X11823700Y-5372100D02*
X11798300Y-5397500D01*
X11798300Y-5880100D02*
X11823700Y-5905500D01*
X11823700Y-5880100D02*
X11798300Y-5905500D01*
X11874500Y-5880100D02*
X11899900Y-5905500D01*
X11899900Y-5880100D02*
X11874500Y-5905500D01*
X12052300Y-6794500D02*
X12077700Y-6819900D01*
X12077700Y-6794500D02*
X12052300Y-6819900D01*
X12052300Y-6870700D02*
X12077700Y-6896100D01*
X12077700Y-6870700D02*
X12052300Y-6896100D01*
X12153900Y-6692900D02*
X12179300Y-6718300D01*
X12179300Y-6692900D02*
X12153900Y-6718300D01*
X12153900Y-6769100D02*
X12179300Y-6794500D01*
X12179300Y-6769100D02*
X12153900Y-6794500D01*
X14592300Y-3314700D02*
X14617700Y-3340100D01*
X14617700Y-3314700D02*
X14592300Y-3340100D01*
X14719300Y-6413500D02*
X14744700Y-6438900D01*
X14744700Y-6413500D02*
X14719300Y-6438900D01*
X15024100Y-6073140D02*
X15049500Y-6098540D01*
X15049500Y-6073140D02*
X15024100Y-6098540D01*
X15659100Y-6489700D02*
X15684500Y-6515100D01*
X15684500Y-6489700D02*
X15659100Y-6515100D01*
X16192500Y-6794500D02*
X16217900Y-6819900D01*
X16217900Y-6794500D02*
X16192500Y-6819900D01*
X16192500Y-6870700D02*
X16217900Y-6896100D01*
X16217900Y-6870700D02*
X16192500Y-6896100D01*
X16192500Y-7226300D02*
X16217900Y-7251700D01*
X16217900Y-7226300D02*
X16192500Y-7251700D01*
X16192500Y-7302500D02*
X16217900Y-7327900D01*
X16217900Y-7302500D02*
X16192500Y-7327900D01*
X16268700Y-6794500D02*
X16294100Y-6819900D01*
X16294100Y-6794500D02*
X16268700Y-6819900D01*
X16268700Y-6870700D02*
X16294100Y-6896100D01*
X16294100Y-6870700D02*
X16268700Y-6896100D01*
X16268700Y-7226300D02*
X16294100Y-7251700D01*
X16294100Y-7226300D02*
X16268700Y-7251700D01*
X16268700Y-7302500D02*
X16294100Y-7327900D01*
X16294100Y-7302500D02*
X16268700Y-7327900D01*
X16370300Y-7073900D02*
X16395700Y-7099300D01*
X16395700Y-7073900D02*
X16370300Y-7099300D01*
X16941800Y-3670300D02*
X16967200Y-3695700D01*
X16967200Y-3670300D02*
X16941800Y-3695700D01*
X16941800Y-3797300D02*
X16967200Y-3822700D01*
X16967200Y-3797300D02*
X16941800Y-3822700D01*
X17068800Y-3670300D02*
X17094200Y-3695700D01*
X17094200Y-3670300D02*
X17068800Y-3695700D01*
X17068800Y-3797300D02*
X17094200Y-3822700D01*
X17094200Y-3797300D02*
X17068800Y-3822700D01*
X17741900Y-6692900D02*
X17767300Y-6718300D01*
X17767300Y-6692900D02*
X17741900Y-6718300D01*
X17818100Y-6692900D02*
X17843500Y-6718300D01*
X17843500Y-6692900D02*
X17818100Y-6718300D01*
X17818100Y-7302500D02*
X17843500Y-7327900D01*
X17843500Y-7302500D02*
X17818100Y-7327900D01*
X17843500Y-6769100D02*
X17868900Y-6794500D01*
X17868900Y-6769100D02*
X17843500Y-6794500D01*
X17843500Y-6845300D02*
X17868900Y-6870700D01*
X17868900Y-6845300D02*
X17843500Y-6870700D01*
X17894300Y-7226300D02*
X17919700Y-7251700D01*
X17919700Y-7226300D02*
X17894300Y-7251700D01*
X17894300Y-7302500D02*
X17919700Y-7327900D01*
X17919700Y-7302500D02*
X17894300Y-7327900D01*
X17970500Y-7099300D02*
X17995900Y-7124700D01*
X17995900Y-7099300D02*
X17970500Y-7124700D01*
X11353000Y-6350000D02*
G75*
G02*
X11253000Y-6350000I-50000J0D01*
G01*
X11253000Y-6350000D02*
G75*
G02*
X11353000Y-6350000I50000J0D01*
G01*
X11353000Y-6604000D02*
G75*
G02*
X11253000Y-6604000I-50000J0D01*
G01*
X11253000Y-6604000D02*
G75*
G02*
X11353000Y-6604000I50000J0D01*
G01*
X11353000Y-6858000D02*
G75*
G02*
X11253000Y-6858000I-50000J0D01*
G01*
X11253000Y-6858000D02*
G75*
G02*
X11353000Y-6858000I50000J0D01*
G01*
X11353000Y-7112000D02*
G75*
G02*
X11253000Y-7112000I-50000J0D01*
G01*
X11253000Y-7112000D02*
G75*
G02*
X11353000Y-7112000I50000J0D01*
G01*
X12242000Y-7112000D02*
G75*
G02*
X12142000Y-7112000I-50000J0D01*
G01*
X12142000Y-7112000D02*
G75*
G02*
X12242000Y-7112000I50000J0D01*
G01*
X12496000Y-7112000D02*
G75*
G02*
X12396000Y-7112000I-50000J0D01*
G01*
X12396000Y-7112000D02*
G75*
G02*
X12496000Y-7112000I50000J0D01*
G01*
X12750000Y-5842000D02*
G75*
G02*
X12650000Y-5842000I-50000J0D01*
G01*
X12650000Y-5842000D02*
G75*
G02*
X12750000Y-5842000I50000J0D01*
G01*
X12750000Y-7112000D02*
G75*
G02*
X12650000Y-7112000I-50000J0D01*
G01*
X12650000Y-7112000D02*
G75*
G02*
X12750000Y-7112000I50000J0D01*
G01*
X13004000Y-5842000D02*
G75*
G02*
X12904000Y-5842000I-50000J0D01*
G01*
X12904000Y-5842000D02*
G75*
G02*
X13004000Y-5842000I50000J0D01*
G01*
X13004000Y-7112000D02*
G75*
G02*
X12904000Y-7112000I-50000J0D01*
G01*
X12904000Y-7112000D02*
G75*
G02*
X13004000Y-7112000I50000J0D01*
G01*
X13258000Y-5842000D02*
G75*
G02*
X13158000Y-5842000I-50000J0D01*
G01*
X13158000Y-5842000D02*
G75*
G02*
X13258000Y-5842000I50000J0D01*
G01*
X13512000Y-5842000D02*
G75*
G02*
X13412000Y-5842000I-50000J0D01*
G01*
X13412000Y-5842000D02*
G75*
G02*
X13512000Y-5842000I50000J0D01*
G01*
X13766000Y-3810000D02*
G75*
G02*
X13666000Y-3810000I-50000J0D01*
G01*
X13666000Y-3810000D02*
G75*
G02*
X13766000Y-3810000I50000J0D01*
G01*
X13766000Y-5842000D02*
G75*
G02*
X13666000Y-5842000I-50000J0D01*
G01*
X13666000Y-5842000D02*
G75*
G02*
X13766000Y-5842000I50000J0D01*
G01*
X13766000Y-7112000D02*
G75*
G02*
X13666000Y-7112000I-50000J0D01*
G01*
X13666000Y-7112000D02*
G75*
G02*
X13766000Y-7112000I50000J0D01*
G01*
X14020000Y-3810000D02*
G75*
G02*
X13920000Y-3810000I-50000J0D01*
G01*
X13920000Y-3810000D02*
G75*
G02*
X14020000Y-3810000I50000J0D01*
G01*
X14020000Y-5842000D02*
G75*
G02*
X13920000Y-5842000I-50000J0D01*
G01*
X13920000Y-5842000D02*
G75*
G02*
X14020000Y-5842000I50000J0D01*
G01*
X14020000Y-7112000D02*
G75*
G02*
X13920000Y-7112000I-50000J0D01*
G01*
X13920000Y-7112000D02*
G75*
G02*
X14020000Y-7112000I50000J0D01*
G01*
X14274000Y-3810000D02*
G75*
G02*
X14174000Y-3810000I-50000J0D01*
G01*
X14174000Y-3810000D02*
G75*
G02*
X14274000Y-3810000I50000J0D01*
G01*
X14274000Y-5842000D02*
G75*
G02*
X14174000Y-5842000I-50000J0D01*
G01*
X14174000Y-5842000D02*
G75*
G02*
X14274000Y-5842000I50000J0D01*
G01*
X14274000Y-7112000D02*
G75*
G02*
X14174000Y-7112000I-50000J0D01*
G01*
X14174000Y-7112000D02*
G75*
G02*
X14274000Y-7112000I50000J0D01*
G01*
X14528000Y-3810000D02*
G75*
G02*
X14428000Y-3810000I-50000J0D01*
G01*
X14428000Y-3810000D02*
G75*
G02*
X14528000Y-3810000I50000J0D01*
G01*
X14528000Y-5842000D02*
G75*
G02*
X14428000Y-5842000I-50000J0D01*
G01*
X14428000Y-5842000D02*
G75*
G02*
X14528000Y-5842000I50000J0D01*
G01*
X14528000Y-7112000D02*
G75*
G02*
X14428000Y-7112000I-50000J0D01*
G01*
X14428000Y-7112000D02*
G75*
G02*
X14528000Y-7112000I50000J0D01*
G01*
X14782000Y-2794000D02*
G75*
G02*
X14682000Y-2794000I-50000J0D01*
G01*
X14682000Y-2794000D02*
G75*
G02*
X14782000Y-2794000I50000J0D01*
G01*
X14782000Y-3048000D02*
G75*
G02*
X14682000Y-3048000I-50000J0D01*
G01*
X14682000Y-3048000D02*
G75*
G02*
X14782000Y-3048000I50000J0D01*
G01*
X14782000Y-3810000D02*
G75*
G02*
X14682000Y-3810000I-50000J0D01*
G01*
X14682000Y-3810000D02*
G75*
G02*
X14782000Y-3810000I50000J0D01*
G01*
X14782000Y-5842000D02*
G75*
G02*
X14682000Y-5842000I-50000J0D01*
G01*
X14682000Y-5842000D02*
G75*
G02*
X14782000Y-5842000I50000J0D01*
G01*
X15036000Y-2794000D02*
G75*
G02*
X14936000Y-2794000I-50000J0D01*
G01*
X14936000Y-2794000D02*
G75*
G02*
X15036000Y-2794000I50000J0D01*
G01*
X15036000Y-3048000D02*
G75*
G02*
X14936000Y-3048000I-50000J0D01*
G01*
X14936000Y-3048000D02*
G75*
G02*
X15036000Y-3048000I50000J0D01*
G01*
X15036000Y-3810000D02*
G75*
G02*
X14936000Y-3810000I-50000J0D01*
G01*
X14936000Y-3810000D02*
G75*
G02*
X15036000Y-3810000I50000J0D01*
G01*
X15036000Y-5842000D02*
G75*
G02*
X14936000Y-5842000I-50000J0D01*
G01*
X14936000Y-5842000D02*
G75*
G02*
X15036000Y-5842000I50000J0D01*
G01*
X15290000Y-2794000D02*
G75*
G02*
X15190000Y-2794000I-50000J0D01*
G01*
X15190000Y-2794000D02*
G75*
G02*
X15290000Y-2794000I50000J0D01*
G01*
X15290000Y-3048000D02*
G75*
G02*
X15190000Y-3048000I-50000J0D01*
G01*
X15190000Y-3048000D02*
G75*
G02*
X15290000Y-3048000I50000J0D01*
G01*
X15290000Y-3810000D02*
G75*
G02*
X15190000Y-3810000I-50000J0D01*
G01*
X15190000Y-3810000D02*
G75*
G02*
X15290000Y-3810000I50000J0D01*
G01*
X15290000Y-5842000D02*
G75*
G02*
X15190000Y-5842000I-50000J0D01*
G01*
X15190000Y-5842000D02*
G75*
G02*
X15290000Y-5842000I50000J0D01*
G01*
X15290000Y-7937500D02*
G75*
G02*
X15190000Y-7937500I-50000J0D01*
G01*
X15190000Y-7937500D02*
G75*
G02*
X15290000Y-7937500I50000J0D01*
G01*
X15544000Y-2794000D02*
G75*
G02*
X15444000Y-2794000I-50000J0D01*
G01*
X15444000Y-2794000D02*
G75*
G02*
X15544000Y-2794000I50000J0D01*
G01*
X15544000Y-3048000D02*
G75*
G02*
X15444000Y-3048000I-50000J0D01*
G01*
X15444000Y-3048000D02*
G75*
G02*
X15544000Y-3048000I50000J0D01*
G01*
X15544000Y-3810000D02*
G75*
G02*
X15444000Y-3810000I-50000J0D01*
G01*
X15444000Y-3810000D02*
G75*
G02*
X15544000Y-3810000I50000J0D01*
G01*
X15544000Y-5842000D02*
G75*
G02*
X15444000Y-5842000I-50000J0D01*
G01*
X15444000Y-5842000D02*
G75*
G02*
X15544000Y-5842000I50000J0D01*
G01*
X15544000Y-7937500D02*
G75*
G02*
X15444000Y-7937500I-50000J0D01*
G01*
X15444000Y-7937500D02*
G75*
G02*
X15544000Y-7937500I50000J0D01*
G01*
X15798000Y-2794000D02*
G75*
G02*
X15698000Y-2794000I-50000J0D01*
G01*
X15698000Y-2794000D02*
G75*
G02*
X15798000Y-2794000I50000J0D01*
G01*
X15798000Y-3048000D02*
G75*
G02*
X15698000Y-3048000I-50000J0D01*
G01*
X15698000Y-3048000D02*
G75*
G02*
X15798000Y-3048000I50000J0D01*
G01*
X15798000Y-3810000D02*
G75*
G02*
X15698000Y-3810000I-50000J0D01*
G01*
X15698000Y-3810000D02*
G75*
G02*
X15798000Y-3810000I50000J0D01*
G01*
X15798000Y-5842000D02*
G75*
G02*
X15698000Y-5842000I-50000J0D01*
G01*
X15698000Y-5842000D02*
G75*
G02*
X15798000Y-5842000I50000J0D01*
G01*
X15798000Y-7937500D02*
G75*
G02*
X15698000Y-7937500I-50000J0D01*
G01*
X15698000Y-7937500D02*
G75*
G02*
X15798000Y-7937500I50000J0D01*
G01*
X16052000Y-2794000D02*
G75*
G02*
X15952000Y-2794000I-50000J0D01*
G01*
X15952000Y-2794000D02*
G75*
G02*
X16052000Y-2794000I50000J0D01*
G01*
X16052000Y-3048000D02*
G75*
G02*
X15952000Y-3048000I-50000J0D01*
G01*
X15952000Y-3048000D02*
G75*
G02*
X16052000Y-3048000I50000J0D01*
G01*
X16052000Y-3810000D02*
G75*
G02*
X15952000Y-3810000I-50000J0D01*
G01*
X15952000Y-3810000D02*
G75*
G02*
X16052000Y-3810000I50000J0D01*
G01*
X16052000Y-5842000D02*
G75*
G02*
X15952000Y-5842000I-50000J0D01*
G01*
X15952000Y-5842000D02*
G75*
G02*
X16052000Y-5842000I50000J0D01*
G01*
X16052000Y-7937500D02*
G75*
G02*
X15952000Y-7937500I-50000J0D01*
G01*
X15952000Y-7937500D02*
G75*
G02*
X16052000Y-7937500I50000J0D01*
G01*
X16128200Y-6477000D02*
G75*
G02*
X16028200Y-6477000I-50000J0D01*
G01*
X16028200Y-6477000D02*
G75*
G02*
X16128200Y-6477000I50000J0D01*
G01*
X16306000Y-2794000D02*
G75*
G02*
X16206000Y-2794000I-50000J0D01*
G01*
X16206000Y-2794000D02*
G75*
G02*
X16306000Y-2794000I50000J0D01*
G01*
X16306000Y-3048000D02*
G75*
G02*
X16206000Y-3048000I-50000J0D01*
G01*
X16206000Y-3048000D02*
G75*
G02*
X16306000Y-3048000I50000J0D01*
G01*
X16306000Y-3810000D02*
G75*
G02*
X16206000Y-3810000I-50000J0D01*
G01*
X16206000Y-3810000D02*
G75*
G02*
X16306000Y-3810000I50000J0D01*
G01*
X16306000Y-5842000D02*
G75*
G02*
X16206000Y-5842000I-50000J0D01*
G01*
X16206000Y-5842000D02*
G75*
G02*
X16306000Y-5842000I50000J0D01*
G01*
X16382200Y-6477000D02*
G75*
G02*
X16282200Y-6477000I-50000J0D01*
G01*
X16282200Y-6477000D02*
G75*
G02*
X16382200Y-6477000I50000J0D01*
G01*
X16560000Y-2794000D02*
G75*
G02*
X16460000Y-2794000I-50000J0D01*
G01*
X16460000Y-2794000D02*
G75*
G02*
X16560000Y-2794000I50000J0D01*
G01*
X16560000Y-3048000D02*
G75*
G02*
X16460000Y-3048000I-50000J0D01*
G01*
X16460000Y-3048000D02*
G75*
G02*
X16560000Y-3048000I50000J0D01*
G01*
X16560000Y-3810000D02*
G75*
G02*
X16460000Y-3810000I-50000J0D01*
G01*
X16460000Y-3810000D02*
G75*
G02*
X16560000Y-3810000I50000J0D01*
G01*
X16560000Y-5842000D02*
G75*
G02*
X16460000Y-5842000I-50000J0D01*
G01*
X16460000Y-5842000D02*
G75*
G02*
X16560000Y-5842000I50000J0D01*
G01*
X16814000Y-2794000D02*
G75*
G02*
X16714000Y-2794000I-50000J0D01*
G01*
X16714000Y-2794000D02*
G75*
G02*
X16814000Y-2794000I50000J0D01*
G01*
X16814000Y-3048000D02*
G75*
G02*
X16714000Y-3048000I-50000J0D01*
G01*
X16714000Y-3048000D02*
G75*
G02*
X16814000Y-3048000I50000J0D01*
G01*
X16941000Y-7937500D02*
G75*
G02*
X16841000Y-7937500I-50000J0D01*
G01*
X16841000Y-7937500D02*
G75*
G02*
X16941000Y-7937500I50000J0D01*
G01*
X17068000Y-2794000D02*
G75*
G02*
X16968000Y-2794000I-50000J0D01*
G01*
X16968000Y-2794000D02*
G75*
G02*
X17068000Y-2794000I50000J0D01*
G01*
X17068000Y-3048000D02*
G75*
G02*
X16968000Y-3048000I-50000J0D01*
G01*
X16968000Y-3048000D02*
G75*
G02*
X17068000Y-3048000I50000J0D01*
G01*
X17195000Y-7937500D02*
G75*
G02*
X17095000Y-7937500I-50000J0D01*
G01*
X17095000Y-7937500D02*
G75*
G02*
X17195000Y-7937500I50000J0D01*
G01*
X17449000Y-6477000D02*
G75*
G02*
X17349000Y-6477000I-50000J0D01*
G01*
X17349000Y-6477000D02*
G75*
G02*
X17449000Y-6477000I50000J0D01*
G01*
X17449000Y-7937500D02*
G75*
G02*
X17349000Y-7937500I-50000J0D01*
G01*
X17349000Y-7937500D02*
G75*
G02*
X17449000Y-7937500I50000J0D01*
G01*
X17576000Y-3048000D02*
G75*
G02*
X17476000Y-3048000I-50000J0D01*
G01*
X17476000Y-3048000D02*
G75*
G02*
X17576000Y-3048000I50000J0D01*
G01*
X17703000Y-6477000D02*
G75*
G02*
X17603000Y-6477000I-50000J0D01*
G01*
X17603000Y-6477000D02*
G75*
G02*
X17703000Y-6477000I50000J0D01*
G01*
X17703000Y-7937500D02*
G75*
G02*
X17603000Y-7937500I-50000J0D01*
G01*
X17603000Y-7937500D02*
G75*
G02*
X17703000Y-7937500I50000J0D01*
G01*
X17830000Y-3048000D02*
G75*
G02*
X17730000Y-3048000I-50000J0D01*
G01*
X17730000Y-3048000D02*
G75*
G02*
X17830000Y-3048000I50000J0D01*
G01*
D12*
X18500000Y-2704000D02*
X18500000Y-2884000D01*
X18410000Y-2794000D02*
X18590000Y-2794000D01*
X18500000Y-3124000D02*
X18500000Y-3304000D01*
X18410000Y-3214000D02*
X18590000Y-3214000D01*
X18500000Y-3544000D02*
X18500000Y-3724000D01*
X18410000Y-3634000D02*
X18590000Y-3634000D01*
X18500000Y-3964000D02*
X18500000Y-4144000D01*
X18410000Y-4054000D02*
X18590000Y-4054000D01*
X18500000Y-4384000D02*
X18500000Y-4564000D01*
X18410000Y-4474000D02*
X18590000Y-4474000D01*
X18500000Y-4804000D02*
X18500000Y-4984000D01*
X18410000Y-4894000D02*
X18590000Y-4894000D01*
X18500000Y-5224000D02*
X18500000Y-5404000D01*
X18410000Y-5314000D02*
X18590000Y-5314000D01*
X18500000Y-5644000D02*
X18500000Y-5824000D01*
X18410000Y-5734000D02*
X18590000Y-5734000D01*
X18500000Y-6064000D02*
X18500000Y-6244000D01*
X18410000Y-6154000D02*
X18590000Y-6154000D01*
X18500000Y-6484000D02*
X18500000Y-6664000D01*
X18410000Y-6574000D02*
X18590000Y-6574000D01*
X18500000Y-6904000D02*
X18500000Y-7084000D01*
X18410000Y-6994000D02*
X18590000Y-6994000D01*
X18500000Y-7324000D02*
X18500000Y-7504000D01*
X18410000Y-7414000D02*
X18590000Y-7414000D01*
X19050000Y-2704000D02*
X19050000Y-2884000D01*
X18960000Y-2794000D02*
X19140000Y-2794000D01*
X19050000Y-3124000D02*
X19050000Y-3304000D01*
X18960000Y-3214000D02*
X19140000Y-3214000D01*
X19050000Y-3544000D02*
X19050000Y-3724000D01*
X18960000Y-3634000D02*
X19140000Y-3634000D01*
X19050000Y-3964000D02*
X19050000Y-4144000D01*
X18960000Y-4054000D02*
X19140000Y-4054000D01*
X19050000Y-4384000D02*
X19050000Y-4564000D01*
X18960000Y-4474000D02*
X19140000Y-4474000D01*
X19050000Y-4804000D02*
X19050000Y-4984000D01*
X18960000Y-4894000D02*
X19140000Y-4894000D01*
X19050000Y-5224000D02*
X19050000Y-5404000D01*
X18960000Y-5314000D02*
X19140000Y-5314000D01*
X19050000Y-5644000D02*
X19050000Y-5824000D01*
X18960000Y-5734000D02*
X19140000Y-5734000D01*
X19050000Y-6064000D02*
X19050000Y-6244000D01*
X18960000Y-6154000D02*
X19140000Y-6154000D01*
X19050000Y-6484000D02*
X19050000Y-6664000D01*
X18960000Y-6574000D02*
X19140000Y-6574000D01*
X19050000Y-6904000D02*
X19050000Y-7084000D01*
X18960000Y-6994000D02*
X19140000Y-6994000D01*
X19050000Y-7324000D02*
X19050000Y-7504000D01*
X18960000Y-7414000D02*
X19140000Y-7414000D01*
D13*
X11571423Y-2935423D02*
X11571423Y-2652577D01*
X11288577Y-2652577D01*
X11288577Y-2935423D01*
X11571423Y-2935423D01*
X11571423Y-8015423D02*
X11571423Y-7732577D01*
X11288577Y-7732577D01*
X11288577Y-8015423D01*
X11571423Y-8015423D01*
X20207423Y-2935423D02*
X20207423Y-2652577D01*
X19924577Y-2652577D01*
X19924577Y-2935423D01*
X20207423Y-2935423D01*
X20207423Y-8015423D02*
X20207423Y-7732577D01*
X19924577Y-7732577D01*
X19924577Y-8015423D01*
X20207423Y-8015423D01*
D11*
X11177777Y-8698484D02*
X11177777Y-8498484D01*
X11177777Y-8498484D02*
X11225396Y-8498484D01*
X11225396Y-8498484D02*
X11253967Y-8508008D01*
X11253967Y-8508008D02*
X11273015Y-8527055D01*
X11273015Y-8527055D02*
X11282539Y-8546103D01*
X11282539Y-8546103D02*
X11292062Y-8584198D01*
X11292062Y-8584198D02*
X11292062Y-8612770D01*
X11292062Y-8612770D02*
X11282539Y-8650865D01*
X11282539Y-8650865D02*
X11273015Y-8669912D01*
X11273015Y-8669912D02*
X11253967Y-8688960D01*
X11253967Y-8688960D02*
X11225396Y-8698484D01*
X11225396Y-8698484D02*
X11177777Y-8698484D01*
X11377777Y-8698484D02*
X11377777Y-8565150D01*
X11377777Y-8603246D02*
X11387301Y-8584198D01*
X11387301Y-8584198D02*
X11396824Y-8574674D01*
X11396824Y-8574674D02*
X11415872Y-8565150D01*
X11415872Y-8565150D02*
X11434920Y-8565150D01*
X11501586Y-8698484D02*
X11501586Y-8565150D01*
X11501586Y-8498484D02*
X11492062Y-8508008D01*
X11492062Y-8508008D02*
X11501586Y-8517531D01*
X11501586Y-8517531D02*
X11511110Y-8508008D01*
X11511110Y-8508008D02*
X11501586Y-8498484D01*
X11501586Y-8498484D02*
X11501586Y-8517531D01*
X11625396Y-8698484D02*
X11606348Y-8688960D01*
X11606348Y-8688960D02*
X11596824Y-8669912D01*
X11596824Y-8669912D02*
X11596824Y-8498484D01*
X11730158Y-8698484D02*
X11711110Y-8688960D01*
X11711110Y-8688960D02*
X11701586Y-8669912D01*
X11701586Y-8669912D02*
X11701586Y-8498484D01*
X11958729Y-8698484D02*
X11958729Y-8498484D01*
X11958729Y-8498484D02*
X12025396Y-8641341D01*
X12025396Y-8641341D02*
X12092062Y-8498484D01*
X12092062Y-8498484D02*
X12092062Y-8698484D01*
X12273015Y-8698484D02*
X12273015Y-8593722D01*
X12273015Y-8593722D02*
X12263491Y-8574674D01*
X12263491Y-8574674D02*
X12244443Y-8565150D01*
X12244443Y-8565150D02*
X12206348Y-8565150D01*
X12206348Y-8565150D02*
X12187301Y-8574674D01*
X12273015Y-8688960D02*
X12253967Y-8698484D01*
X12253967Y-8698484D02*
X12206348Y-8698484D01*
X12206348Y-8698484D02*
X12187301Y-8688960D01*
X12187301Y-8688960D02*
X12177777Y-8669912D01*
X12177777Y-8669912D02*
X12177777Y-8650865D01*
X12177777Y-8650865D02*
X12187301Y-8631817D01*
X12187301Y-8631817D02*
X12206348Y-8622293D01*
X12206348Y-8622293D02*
X12253967Y-8622293D01*
X12253967Y-8622293D02*
X12273015Y-8612770D01*
X12368253Y-8565150D02*
X12368253Y-8765150D01*
X12368253Y-8574674D02*
X12387301Y-8565150D01*
X12387301Y-8565150D02*
X12425396Y-8565150D01*
X12425396Y-8565150D02*
X12444443Y-8574674D01*
X12444443Y-8574674D02*
X12453967Y-8584198D01*
X12453967Y-8584198D02*
X12463491Y-8603246D01*
X12463491Y-8603246D02*
X12463491Y-8660389D01*
X12463491Y-8660389D02*
X12453967Y-8679436D01*
X12453967Y-8679436D02*
X12444443Y-8688960D01*
X12444443Y-8688960D02*
X12425396Y-8698484D01*
X12425396Y-8698484D02*
X12387301Y-8698484D01*
X12387301Y-8698484D02*
X12368253Y-8688960D01*
X12549205Y-8679436D02*
X12558729Y-8688960D01*
X12558729Y-8688960D02*
X12549205Y-8698484D01*
X12549205Y-8698484D02*
X12539682Y-8688960D01*
X12539682Y-8688960D02*
X12549205Y-8679436D01*
X12549205Y-8679436D02*
X12549205Y-8698484D01*
X12549205Y-8574674D02*
X12558729Y-8584198D01*
X12558729Y-8584198D02*
X12549205Y-8593722D01*
X12549205Y-8593722D02*
X12539682Y-8584198D01*
X12539682Y-8584198D02*
X12549205Y-8574674D01*
X12549205Y-8574674D02*
X12549205Y-8593722D01*
D10*
X10891600Y-9014300D02*
X10917000Y-9039700D01*
X10917000Y-9014300D02*
X10891600Y-9039700D01*
D11*
X11215872Y-8918484D02*
X11234920Y-8918484D01*
X11234920Y-8918484D02*
X11253967Y-8928008D01*
X11253967Y-8928008D02*
X11263491Y-8937531D01*
X11263491Y-8937531D02*
X11273015Y-8956579D01*
X11273015Y-8956579D02*
X11282539Y-8994674D01*
X11282539Y-8994674D02*
X11282539Y-9042293D01*
X11282539Y-9042293D02*
X11273015Y-9080389D01*
X11273015Y-9080389D02*
X11263491Y-9099436D01*
X11263491Y-9099436D02*
X11253967Y-9108960D01*
X11253967Y-9108960D02*
X11234920Y-9118484D01*
X11234920Y-9118484D02*
X11215872Y-9118484D01*
X11215872Y-9118484D02*
X11196824Y-9108960D01*
X11196824Y-9108960D02*
X11187301Y-9099436D01*
X11187301Y-9099436D02*
X11177777Y-9080389D01*
X11177777Y-9080389D02*
X11168253Y-9042293D01*
X11168253Y-9042293D02*
X11168253Y-8994674D01*
X11168253Y-8994674D02*
X11177777Y-8956579D01*
X11177777Y-8956579D02*
X11187301Y-8937531D01*
X11187301Y-8937531D02*
X11196824Y-8928008D01*
X11196824Y-8928008D02*
X11215872Y-8918484D01*
X11368253Y-9099436D02*
X11377777Y-9108960D01*
X11377777Y-9108960D02*
X11368253Y-9118484D01*
X11368253Y-9118484D02*
X11358729Y-9108960D01*
X11358729Y-9108960D02*
X11368253Y-9099436D01*
X11368253Y-9099436D02*
X11368253Y-9118484D01*
X11453967Y-8937531D02*
X11463491Y-8928008D01*
X11463491Y-8928008D02*
X11482539Y-8918484D01*
X11482539Y-8918484D02*
X11530158Y-8918484D01*
X11530158Y-8918484D02*
X11549205Y-8928008D01*
X11549205Y-8928008D02*
X11558729Y-8937531D01*
X11558729Y-8937531D02*
X11568253Y-8956579D01*
X11568253Y-8956579D02*
X11568253Y-8975627D01*
X11568253Y-8975627D02*
X11558729Y-9004198D01*
X11558729Y-9004198D02*
X11444443Y-9118484D01*
X11444443Y-9118484D02*
X11568253Y-9118484D01*
X11749205Y-8918484D02*
X11653967Y-8918484D01*
X11653967Y-8918484D02*
X11644443Y-9013722D01*
X11644443Y-9013722D02*
X11653967Y-9004198D01*
X11653967Y-9004198D02*
X11673015Y-8994674D01*
X11673015Y-8994674D02*
X11720634Y-8994674D01*
X11720634Y-8994674D02*
X11739682Y-9004198D01*
X11739682Y-9004198D02*
X11749205Y-9013722D01*
X11749205Y-9013722D02*
X11758729Y-9032770D01*
X11758729Y-9032770D02*
X11758729Y-9080389D01*
X11758729Y-9080389D02*
X11749205Y-9099436D01*
X11749205Y-9099436D02*
X11739682Y-9108960D01*
X11739682Y-9108960D02*
X11720634Y-9118484D01*
X11720634Y-9118484D02*
X11673015Y-9118484D01*
X11673015Y-9118484D02*
X11653967Y-9108960D01*
X11653967Y-9108960D02*
X11644443Y-9099436D01*
X11930158Y-8985150D02*
X11930158Y-9118484D01*
X11882539Y-8908960D02*
X11834920Y-9051817D01*
X11834920Y-9051817D02*
X11958729Y-9051817D01*
X12034920Y-9118484D02*
X12034920Y-8985150D01*
X12034920Y-9004198D02*
X12044443Y-8994674D01*
X12044443Y-8994674D02*
X12063491Y-8985150D01*
X12063491Y-8985150D02*
X12092063Y-8985150D01*
X12092063Y-8985150D02*
X12111110Y-8994674D01*
X12111110Y-8994674D02*
X12120634Y-9013722D01*
X12120634Y-9013722D02*
X12120634Y-9118484D01*
X12120634Y-9013722D02*
X12130158Y-8994674D01*
X12130158Y-8994674D02*
X12149205Y-8985150D01*
X12149205Y-8985150D02*
X12177777Y-8985150D01*
X12177777Y-8985150D02*
X12196824Y-8994674D01*
X12196824Y-8994674D02*
X12206348Y-9013722D01*
X12206348Y-9013722D02*
X12206348Y-9118484D01*
X12301586Y-9118484D02*
X12301586Y-8985150D01*
X12301586Y-9004198D02*
X12311110Y-8994674D01*
X12311110Y-8994674D02*
X12330158Y-8985150D01*
X12330158Y-8985150D02*
X12358729Y-8985150D01*
X12358729Y-8985150D02*
X12377777Y-8994674D01*
X12377777Y-8994674D02*
X12387301Y-9013722D01*
X12387301Y-9013722D02*
X12387301Y-9118484D01*
X12387301Y-9013722D02*
X12396824Y-8994674D01*
X12396824Y-8994674D02*
X12415872Y-8985150D01*
X12415872Y-8985150D02*
X12444443Y-8985150D01*
X12444443Y-8985150D02*
X12463491Y-8994674D01*
X12463491Y-8994674D02*
X12473015Y-9013722D01*
X12473015Y-9013722D02*
X12473015Y-9118484D01*
X12863491Y-8908960D02*
X12692063Y-9166103D01*
X13120634Y-8918484D02*
X13139682Y-8918484D01*
X13139682Y-8918484D02*
X13158729Y-8928008D01*
X13158729Y-8928008D02*
X13168253Y-8937531D01*
X13168253Y-8937531D02*
X13177777Y-8956579D01*
X13177777Y-8956579D02*
X13187301Y-8994674D01*
X13187301Y-8994674D02*
X13187301Y-9042293D01*
X13187301Y-9042293D02*
X13177777Y-9080389D01*
X13177777Y-9080389D02*
X13168253Y-9099436D01*
X13168253Y-9099436D02*
X13158729Y-9108960D01*
X13158729Y-9108960D02*
X13139682Y-9118484D01*
X13139682Y-9118484D02*
X13120634Y-9118484D01*
X13120634Y-9118484D02*
X13101586Y-9108960D01*
X13101586Y-9108960D02*
X13092063Y-9099436D01*
X13092063Y-9099436D02*
X13082539Y-9080389D01*
X13082539Y-9080389D02*
X13073015Y-9042293D01*
X13073015Y-9042293D02*
X13073015Y-8994674D01*
X13073015Y-8994674D02*
X13082539Y-8956579D01*
X13082539Y-8956579D02*
X13092063Y-8937531D01*
X13092063Y-8937531D02*
X13101586Y-8928008D01*
X13101586Y-8928008D02*
X13120634Y-8918484D01*
X13273015Y-9099436D02*
X13282539Y-9108960D01*
X13282539Y-9108960D02*
X13273015Y-9118484D01*
X13273015Y-9118484D02*
X13263491Y-9108960D01*
X13263491Y-9108960D02*
X13273015Y-9099436D01*
X13273015Y-9099436D02*
X13273015Y-9118484D01*
X13406348Y-8918484D02*
X13425396Y-8918484D01*
X13425396Y-8918484D02*
X13444444Y-8928008D01*
X13444444Y-8928008D02*
X13453967Y-8937531D01*
X13453967Y-8937531D02*
X13463491Y-8956579D01*
X13463491Y-8956579D02*
X13473015Y-8994674D01*
X13473015Y-8994674D02*
X13473015Y-9042293D01*
X13473015Y-9042293D02*
X13463491Y-9080389D01*
X13463491Y-9080389D02*
X13453967Y-9099436D01*
X13453967Y-9099436D02*
X13444444Y-9108960D01*
X13444444Y-9108960D02*
X13425396Y-9118484D01*
X13425396Y-9118484D02*
X13406348Y-9118484D01*
X13406348Y-9118484D02*
X13387301Y-9108960D01*
X13387301Y-9108960D02*
X13377777Y-9099436D01*
X13377777Y-9099436D02*
X13368253Y-9080389D01*
X13368253Y-9080389D02*
X13358729Y-9042293D01*
X13358729Y-9042293D02*
X13358729Y-8994674D01*
X13358729Y-8994674D02*
X13368253Y-8956579D01*
X13368253Y-8956579D02*
X13377777Y-8937531D01*
X13377777Y-8937531D02*
X13387301Y-8928008D01*
X13387301Y-8928008D02*
X13406348Y-8918484D01*
X13663491Y-9118484D02*
X13549206Y-9118484D01*
X13606348Y-9118484D02*
X13606348Y-8918484D01*
X13606348Y-8918484D02*
X13587301Y-8947055D01*
X13587301Y-8947055D02*
X13568253Y-8966103D01*
X13568253Y-8966103D02*
X13549206Y-8975627D01*
X13787301Y-8918484D02*
X13806348Y-8918484D01*
X13806348Y-8918484D02*
X13825396Y-8928008D01*
X13825396Y-8928008D02*
X13834920Y-8937531D01*
X13834920Y-8937531D02*
X13844444Y-8956579D01*
X13844444Y-8956579D02*
X13853967Y-8994674D01*
X13853967Y-8994674D02*
X13853967Y-9042293D01*
X13853967Y-9042293D02*
X13844444Y-9080389D01*
X13844444Y-9080389D02*
X13834920Y-9099436D01*
X13834920Y-9099436D02*
X13825396Y-9108960D01*
X13825396Y-9108960D02*
X13806348Y-9118484D01*
X13806348Y-9118484D02*
X13787301Y-9118484D01*
X13787301Y-9118484D02*
X13768253Y-9108960D01*
X13768253Y-9108960D02*
X13758729Y-9099436D01*
X13758729Y-9099436D02*
X13749206Y-9080389D01*
X13749206Y-9080389D02*
X13739682Y-9042293D01*
X13739682Y-9042293D02*
X13739682Y-8994674D01*
X13739682Y-8994674D02*
X13749206Y-8956579D01*
X13749206Y-8956579D02*
X13758729Y-8937531D01*
X13758729Y-8937531D02*
X13768253Y-8928008D01*
X13768253Y-8928008D02*
X13787301Y-8918484D01*
X13977777Y-8918484D02*
X13996825Y-8918484D01*
X13996825Y-8918484D02*
X14015872Y-8928008D01*
X14015872Y-8928008D02*
X14025396Y-8937531D01*
X14025396Y-8937531D02*
X14034920Y-8956579D01*
X14034920Y-8956579D02*
X14044444Y-8994674D01*
X14044444Y-8994674D02*
X14044444Y-9042293D01*
X14044444Y-9042293D02*
X14034920Y-9080389D01*
X14034920Y-9080389D02*
X14025396Y-9099436D01*
X14025396Y-9099436D02*
X14015872Y-9108960D01*
X14015872Y-9108960D02*
X13996825Y-9118484D01*
X13996825Y-9118484D02*
X13977777Y-9118484D01*
X13977777Y-9118484D02*
X13958729Y-9108960D01*
X13958729Y-9108960D02*
X13949206Y-9099436D01*
X13949206Y-9099436D02*
X13939682Y-9080389D01*
X13939682Y-9080389D02*
X13930158Y-9042293D01*
X13930158Y-9042293D02*
X13930158Y-8994674D01*
X13930158Y-8994674D02*
X13939682Y-8956579D01*
X13939682Y-8956579D02*
X13949206Y-8937531D01*
X13949206Y-8937531D02*
X13958729Y-8928008D01*
X13958729Y-8928008D02*
X13977777Y-8918484D01*
X14120634Y-8918484D02*
X14120634Y-8956579D01*
X14196825Y-8918484D02*
X14196825Y-8956579D01*
X14492063Y-9194674D02*
X14482539Y-9185150D01*
X14482539Y-9185150D02*
X14463491Y-9156579D01*
X14463491Y-9156579D02*
X14453968Y-9137531D01*
X14453968Y-9137531D02*
X14444444Y-9108960D01*
X14444444Y-9108960D02*
X14434920Y-9061341D01*
X14434920Y-9061341D02*
X14434920Y-9023246D01*
X14434920Y-9023246D02*
X14444444Y-8975627D01*
X14444444Y-8975627D02*
X14453968Y-8947055D01*
X14453968Y-8947055D02*
X14463491Y-8928008D01*
X14463491Y-8928008D02*
X14482539Y-8899436D01*
X14482539Y-8899436D02*
X14492063Y-8889912D01*
X14653968Y-8985150D02*
X14653968Y-9118484D01*
X14606348Y-8908960D02*
X14558729Y-9051817D01*
X14558729Y-9051817D02*
X14682539Y-9051817D01*
X14796825Y-8918484D02*
X14815872Y-8918484D01*
X14815872Y-8918484D02*
X14834920Y-8928008D01*
X14834920Y-8928008D02*
X14844444Y-8937531D01*
X14844444Y-8937531D02*
X14853968Y-8956579D01*
X14853968Y-8956579D02*
X14863491Y-8994674D01*
X14863491Y-8994674D02*
X14863491Y-9042293D01*
X14863491Y-9042293D02*
X14853968Y-9080389D01*
X14853968Y-9080389D02*
X14844444Y-9099436D01*
X14844444Y-9099436D02*
X14834920Y-9108960D01*
X14834920Y-9108960D02*
X14815872Y-9118484D01*
X14815872Y-9118484D02*
X14796825Y-9118484D01*
X14796825Y-9118484D02*
X14777777Y-9108960D01*
X14777777Y-9108960D02*
X14768253Y-9099436D01*
X14768253Y-9099436D02*
X14758729Y-9080389D01*
X14758729Y-9080389D02*
X14749206Y-9042293D01*
X14749206Y-9042293D02*
X14749206Y-8994674D01*
X14749206Y-8994674D02*
X14758729Y-8956579D01*
X14758729Y-8956579D02*
X14768253Y-8937531D01*
X14768253Y-8937531D02*
X14777777Y-8928008D01*
X14777777Y-8928008D02*
X14796825Y-8918484D01*
X15101587Y-9118484D02*
X15101587Y-8918484D01*
X15187301Y-9118484D02*
X15187301Y-9013722D01*
X15187301Y-9013722D02*
X15177777Y-8994674D01*
X15177777Y-8994674D02*
X15158730Y-8985150D01*
X15158730Y-8985150D02*
X15130158Y-8985150D01*
X15130158Y-8985150D02*
X15111110Y-8994674D01*
X15111110Y-8994674D02*
X15101587Y-9004198D01*
X15311110Y-9118484D02*
X15292063Y-9108960D01*
X15292063Y-9108960D02*
X15282539Y-9099436D01*
X15282539Y-9099436D02*
X15273015Y-9080389D01*
X15273015Y-9080389D02*
X15273015Y-9023246D01*
X15273015Y-9023246D02*
X15282539Y-9004198D01*
X15282539Y-9004198D02*
X15292063Y-8994674D01*
X15292063Y-8994674D02*
X15311110Y-8985150D01*
X15311110Y-8985150D02*
X15339682Y-8985150D01*
X15339682Y-8985150D02*
X15358730Y-8994674D01*
X15358730Y-8994674D02*
X15368253Y-9004198D01*
X15368253Y-9004198D02*
X15377777Y-9023246D01*
X15377777Y-9023246D02*
X15377777Y-9080389D01*
X15377777Y-9080389D02*
X15368253Y-9099436D01*
X15368253Y-9099436D02*
X15358730Y-9108960D01*
X15358730Y-9108960D02*
X15339682Y-9118484D01*
X15339682Y-9118484D02*
X15311110Y-9118484D01*
X15492063Y-9118484D02*
X15473015Y-9108960D01*
X15473015Y-9108960D02*
X15463491Y-9089912D01*
X15463491Y-9089912D02*
X15463491Y-8918484D01*
X15644444Y-9108960D02*
X15625396Y-9118484D01*
X15625396Y-9118484D02*
X15587301Y-9118484D01*
X15587301Y-9118484D02*
X15568253Y-9108960D01*
X15568253Y-9108960D02*
X15558730Y-9089912D01*
X15558730Y-9089912D02*
X15558730Y-9013722D01*
X15558730Y-9013722D02*
X15568253Y-8994674D01*
X15568253Y-8994674D02*
X15587301Y-8985150D01*
X15587301Y-8985150D02*
X15625396Y-8985150D01*
X15625396Y-8985150D02*
X15644444Y-8994674D01*
X15644444Y-8994674D02*
X15653968Y-9013722D01*
X15653968Y-9013722D02*
X15653968Y-9032770D01*
X15653968Y-9032770D02*
X15558730Y-9051817D01*
X15730158Y-9108960D02*
X15749206Y-9118484D01*
X15749206Y-9118484D02*
X15787301Y-9118484D01*
X15787301Y-9118484D02*
X15806349Y-9108960D01*
X15806349Y-9108960D02*
X15815872Y-9089912D01*
X15815872Y-9089912D02*
X15815872Y-9080389D01*
X15815872Y-9080389D02*
X15806349Y-9061341D01*
X15806349Y-9061341D02*
X15787301Y-9051817D01*
X15787301Y-9051817D02*
X15758730Y-9051817D01*
X15758730Y-9051817D02*
X15739682Y-9042293D01*
X15739682Y-9042293D02*
X15730158Y-9023246D01*
X15730158Y-9023246D02*
X15730158Y-9013722D01*
X15730158Y-9013722D02*
X15739682Y-8994674D01*
X15739682Y-8994674D02*
X15758730Y-8985150D01*
X15758730Y-8985150D02*
X15787301Y-8985150D01*
X15787301Y-8985150D02*
X15806349Y-8994674D01*
X15882539Y-9194674D02*
X15892063Y-9185150D01*
X15892063Y-9185150D02*
X15911111Y-9156579D01*
X15911111Y-9156579D02*
X15920634Y-9137531D01*
X15920634Y-9137531D02*
X15930158Y-9108960D01*
X15930158Y-9108960D02*
X15939682Y-9061341D01*
X15939682Y-9061341D02*
X15939682Y-9023246D01*
X15939682Y-9023246D02*
X15930158Y-8975627D01*
X15930158Y-8975627D02*
X15920634Y-8947055D01*
X15920634Y-8947055D02*
X15911111Y-8928008D01*
X15911111Y-8928008D02*
X15892063Y-8899436D01*
X15892063Y-8899436D02*
X15882539Y-8889912D01*
D10*
X10917000Y-9291000D02*
G75*
G02*
X10817000Y-9291000I-50000J0D01*
G01*
X10817000Y-9291000D02*
G75*
G02*
X10917000Y-9291000I50000J0D01*
G01*
D11*
X11282539Y-9382484D02*
X11168253Y-9382484D01*
X11225396Y-9382484D02*
X11225396Y-9182484D01*
X11225396Y-9182484D02*
X11206348Y-9211055D01*
X11206348Y-9211055D02*
X11187301Y-9230103D01*
X11187301Y-9230103D02*
X11168253Y-9239627D01*
X11368253Y-9363436D02*
X11377777Y-9372960D01*
X11377777Y-9372960D02*
X11368253Y-9382484D01*
X11368253Y-9382484D02*
X11358729Y-9372960D01*
X11358729Y-9372960D02*
X11368253Y-9363436D01*
X11368253Y-9363436D02*
X11368253Y-9382484D01*
X11501586Y-9182484D02*
X11520634Y-9182484D01*
X11520634Y-9182484D02*
X11539682Y-9192008D01*
X11539682Y-9192008D02*
X11549205Y-9201531D01*
X11549205Y-9201531D02*
X11558729Y-9220579D01*
X11558729Y-9220579D02*
X11568253Y-9258674D01*
X11568253Y-9258674D02*
X11568253Y-9306293D01*
X11568253Y-9306293D02*
X11558729Y-9344389D01*
X11558729Y-9344389D02*
X11549205Y-9363436D01*
X11549205Y-9363436D02*
X11539682Y-9372960D01*
X11539682Y-9372960D02*
X11520634Y-9382484D01*
X11520634Y-9382484D02*
X11501586Y-9382484D01*
X11501586Y-9382484D02*
X11482539Y-9372960D01*
X11482539Y-9372960D02*
X11473015Y-9363436D01*
X11473015Y-9363436D02*
X11463491Y-9344389D01*
X11463491Y-9344389D02*
X11453967Y-9306293D01*
X11453967Y-9306293D02*
X11453967Y-9258674D01*
X11453967Y-9258674D02*
X11463491Y-9220579D01*
X11463491Y-9220579D02*
X11473015Y-9201531D01*
X11473015Y-9201531D02*
X11482539Y-9192008D01*
X11482539Y-9192008D02*
X11501586Y-9182484D01*
X11692062Y-9182484D02*
X11711110Y-9182484D01*
X11711110Y-9182484D02*
X11730158Y-9192008D01*
X11730158Y-9192008D02*
X11739682Y-9201531D01*
X11739682Y-9201531D02*
X11749205Y-9220579D01*
X11749205Y-9220579D02*
X11758729Y-9258674D01*
X11758729Y-9258674D02*
X11758729Y-9306293D01*
X11758729Y-9306293D02*
X11749205Y-9344389D01*
X11749205Y-9344389D02*
X11739682Y-9363436D01*
X11739682Y-9363436D02*
X11730158Y-9372960D01*
X11730158Y-9372960D02*
X11711110Y-9382484D01*
X11711110Y-9382484D02*
X11692062Y-9382484D01*
X11692062Y-9382484D02*
X11673015Y-9372960D01*
X11673015Y-9372960D02*
X11663491Y-9363436D01*
X11663491Y-9363436D02*
X11653967Y-9344389D01*
X11653967Y-9344389D02*
X11644443Y-9306293D01*
X11644443Y-9306293D02*
X11644443Y-9258674D01*
X11644443Y-9258674D02*
X11653967Y-9220579D01*
X11653967Y-9220579D02*
X11663491Y-9201531D01*
X11663491Y-9201531D02*
X11673015Y-9192008D01*
X11673015Y-9192008D02*
X11692062Y-9182484D01*
X11882539Y-9182484D02*
X11901586Y-9182484D01*
X11901586Y-9182484D02*
X11920634Y-9192008D01*
X11920634Y-9192008D02*
X11930158Y-9201531D01*
X11930158Y-9201531D02*
X11939682Y-9220579D01*
X11939682Y-9220579D02*
X11949205Y-9258674D01*
X11949205Y-9258674D02*
X11949205Y-9306293D01*
X11949205Y-9306293D02*
X11939682Y-9344389D01*
X11939682Y-9344389D02*
X11930158Y-9363436D01*
X11930158Y-9363436D02*
X11920634Y-9372960D01*
X11920634Y-9372960D02*
X11901586Y-9382484D01*
X11901586Y-9382484D02*
X11882539Y-9382484D01*
X11882539Y-9382484D02*
X11863491Y-9372960D01*
X11863491Y-9372960D02*
X11853967Y-9363436D01*
X11853967Y-9363436D02*
X11844443Y-9344389D01*
X11844443Y-9344389D02*
X11834920Y-9306293D01*
X11834920Y-9306293D02*
X11834920Y-9258674D01*
X11834920Y-9258674D02*
X11844443Y-9220579D01*
X11844443Y-9220579D02*
X11853967Y-9201531D01*
X11853967Y-9201531D02*
X11863491Y-9192008D01*
X11863491Y-9192008D02*
X11882539Y-9182484D01*
X12034920Y-9382484D02*
X12034920Y-9249150D01*
X12034920Y-9268198D02*
X12044443Y-9258674D01*
X12044443Y-9258674D02*
X12063491Y-9249150D01*
X12063491Y-9249150D02*
X12092063Y-9249150D01*
X12092063Y-9249150D02*
X12111110Y-9258674D01*
X12111110Y-9258674D02*
X12120634Y-9277722D01*
X12120634Y-9277722D02*
X12120634Y-9382484D01*
X12120634Y-9277722D02*
X12130158Y-9258674D01*
X12130158Y-9258674D02*
X12149205Y-9249150D01*
X12149205Y-9249150D02*
X12177777Y-9249150D01*
X12177777Y-9249150D02*
X12196824Y-9258674D01*
X12196824Y-9258674D02*
X12206348Y-9277722D01*
X12206348Y-9277722D02*
X12206348Y-9382484D01*
X12301586Y-9382484D02*
X12301586Y-9249150D01*
X12301586Y-9268198D02*
X12311110Y-9258674D01*
X12311110Y-9258674D02*
X12330158Y-9249150D01*
X12330158Y-9249150D02*
X12358729Y-9249150D01*
X12358729Y-9249150D02*
X12377777Y-9258674D01*
X12377777Y-9258674D02*
X12387301Y-9277722D01*
X12387301Y-9277722D02*
X12387301Y-9382484D01*
X12387301Y-9277722D02*
X12396824Y-9258674D01*
X12396824Y-9258674D02*
X12415872Y-9249150D01*
X12415872Y-9249150D02*
X12444443Y-9249150D01*
X12444443Y-9249150D02*
X12463491Y-9258674D01*
X12463491Y-9258674D02*
X12473015Y-9277722D01*
X12473015Y-9277722D02*
X12473015Y-9382484D01*
X12863491Y-9172960D02*
X12692063Y-9430103D01*
X13120634Y-9182484D02*
X13139682Y-9182484D01*
X13139682Y-9182484D02*
X13158729Y-9192008D01*
X13158729Y-9192008D02*
X13168253Y-9201531D01*
X13168253Y-9201531D02*
X13177777Y-9220579D01*
X13177777Y-9220579D02*
X13187301Y-9258674D01*
X13187301Y-9258674D02*
X13187301Y-9306293D01*
X13187301Y-9306293D02*
X13177777Y-9344389D01*
X13177777Y-9344389D02*
X13168253Y-9363436D01*
X13168253Y-9363436D02*
X13158729Y-9372960D01*
X13158729Y-9372960D02*
X13139682Y-9382484D01*
X13139682Y-9382484D02*
X13120634Y-9382484D01*
X13120634Y-9382484D02*
X13101586Y-9372960D01*
X13101586Y-9372960D02*
X13092063Y-9363436D01*
X13092063Y-9363436D02*
X13082539Y-9344389D01*
X13082539Y-9344389D02*
X13073015Y-9306293D01*
X13073015Y-9306293D02*
X13073015Y-9258674D01*
X13073015Y-9258674D02*
X13082539Y-9220579D01*
X13082539Y-9220579D02*
X13092063Y-9201531D01*
X13092063Y-9201531D02*
X13101586Y-9192008D01*
X13101586Y-9192008D02*
X13120634Y-9182484D01*
X13273015Y-9363436D02*
X13282539Y-9372960D01*
X13282539Y-9372960D02*
X13273015Y-9382484D01*
X13273015Y-9382484D02*
X13263491Y-9372960D01*
X13263491Y-9372960D02*
X13273015Y-9363436D01*
X13273015Y-9363436D02*
X13273015Y-9382484D01*
X13406348Y-9182484D02*
X13425396Y-9182484D01*
X13425396Y-9182484D02*
X13444444Y-9192008D01*
X13444444Y-9192008D02*
X13453967Y-9201531D01*
X13453967Y-9201531D02*
X13463491Y-9220579D01*
X13463491Y-9220579D02*
X13473015Y-9258674D01*
X13473015Y-9258674D02*
X13473015Y-9306293D01*
X13473015Y-9306293D02*
X13463491Y-9344389D01*
X13463491Y-9344389D02*
X13453967Y-9363436D01*
X13453967Y-9363436D02*
X13444444Y-9372960D01*
X13444444Y-9372960D02*
X13425396Y-9382484D01*
X13425396Y-9382484D02*
X13406348Y-9382484D01*
X13406348Y-9382484D02*
X13387301Y-9372960D01*
X13387301Y-9372960D02*
X13377777Y-9363436D01*
X13377777Y-9363436D02*
X13368253Y-9344389D01*
X13368253Y-9344389D02*
X13358729Y-9306293D01*
X13358729Y-9306293D02*
X13358729Y-9258674D01*
X13358729Y-9258674D02*
X13368253Y-9220579D01*
X13368253Y-9220579D02*
X13377777Y-9201531D01*
X13377777Y-9201531D02*
X13387301Y-9192008D01*
X13387301Y-9192008D02*
X13406348Y-9182484D01*
X13539682Y-9182484D02*
X13663491Y-9182484D01*
X13663491Y-9182484D02*
X13596825Y-9258674D01*
X13596825Y-9258674D02*
X13625396Y-9258674D01*
X13625396Y-9258674D02*
X13644444Y-9268198D01*
X13644444Y-9268198D02*
X13653967Y-9277722D01*
X13653967Y-9277722D02*
X13663491Y-9296770D01*
X13663491Y-9296770D02*
X13663491Y-9344389D01*
X13663491Y-9344389D02*
X13653967Y-9363436D01*
X13653967Y-9363436D02*
X13644444Y-9372960D01*
X13644444Y-9372960D02*
X13625396Y-9382484D01*
X13625396Y-9382484D02*
X13568253Y-9382484D01*
X13568253Y-9382484D02*
X13549206Y-9372960D01*
X13549206Y-9372960D02*
X13539682Y-9363436D01*
X13758729Y-9382484D02*
X13796825Y-9382484D01*
X13796825Y-9382484D02*
X13815872Y-9372960D01*
X13815872Y-9372960D02*
X13825396Y-9363436D01*
X13825396Y-9363436D02*
X13844444Y-9334865D01*
X13844444Y-9334865D02*
X13853967Y-9296770D01*
X13853967Y-9296770D02*
X13853967Y-9220579D01*
X13853967Y-9220579D02*
X13844444Y-9201531D01*
X13844444Y-9201531D02*
X13834920Y-9192008D01*
X13834920Y-9192008D02*
X13815872Y-9182484D01*
X13815872Y-9182484D02*
X13777777Y-9182484D01*
X13777777Y-9182484D02*
X13758729Y-9192008D01*
X13758729Y-9192008D02*
X13749206Y-9201531D01*
X13749206Y-9201531D02*
X13739682Y-9220579D01*
X13739682Y-9220579D02*
X13739682Y-9268198D01*
X13739682Y-9268198D02*
X13749206Y-9287246D01*
X13749206Y-9287246D02*
X13758729Y-9296770D01*
X13758729Y-9296770D02*
X13777777Y-9306293D01*
X13777777Y-9306293D02*
X13815872Y-9306293D01*
X13815872Y-9306293D02*
X13834920Y-9296770D01*
X13834920Y-9296770D02*
X13844444Y-9287246D01*
X13844444Y-9287246D02*
X13853967Y-9268198D01*
X14025396Y-9249150D02*
X14025396Y-9382484D01*
X13977777Y-9172960D02*
X13930158Y-9315817D01*
X13930158Y-9315817D02*
X14053967Y-9315817D01*
X14120634Y-9182484D02*
X14120634Y-9220579D01*
X14196825Y-9182484D02*
X14196825Y-9220579D01*
X14492063Y-9458674D02*
X14482539Y-9449150D01*
X14482539Y-9449150D02*
X14463491Y-9420579D01*
X14463491Y-9420579D02*
X14453968Y-9401531D01*
X14453968Y-9401531D02*
X14444444Y-9372960D01*
X14444444Y-9372960D02*
X14434920Y-9325341D01*
X14434920Y-9325341D02*
X14434920Y-9287246D01*
X14434920Y-9287246D02*
X14444444Y-9239627D01*
X14444444Y-9239627D02*
X14453968Y-9211055D01*
X14453968Y-9211055D02*
X14463491Y-9192008D01*
X14463491Y-9192008D02*
X14482539Y-9163436D01*
X14482539Y-9163436D02*
X14492063Y-9153912D01*
X14549206Y-9182484D02*
X14682539Y-9182484D01*
X14682539Y-9182484D02*
X14596825Y-9382484D01*
X14844444Y-9249150D02*
X14844444Y-9382484D01*
X14796825Y-9172960D02*
X14749206Y-9315817D01*
X14749206Y-9315817D02*
X14873015Y-9315817D01*
X15101587Y-9382484D02*
X15101587Y-9182484D01*
X15187301Y-9382484D02*
X15187301Y-9277722D01*
X15187301Y-9277722D02*
X15177777Y-9258674D01*
X15177777Y-9258674D02*
X15158730Y-9249150D01*
X15158730Y-9249150D02*
X15130158Y-9249150D01*
X15130158Y-9249150D02*
X15111110Y-9258674D01*
X15111110Y-9258674D02*
X15101587Y-9268198D01*
X15311110Y-9382484D02*
X15292063Y-9372960D01*
X15292063Y-9372960D02*
X15282539Y-9363436D01*
X15282539Y-9363436D02*
X15273015Y-9344389D01*
X15273015Y-9344389D02*
X15273015Y-9287246D01*
X15273015Y-9287246D02*
X15282539Y-9268198D01*
X15282539Y-9268198D02*
X15292063Y-9258674D01*
X15292063Y-9258674D02*
X15311110Y-9249150D01*
X15311110Y-9249150D02*
X15339682Y-9249150D01*
X15339682Y-9249150D02*
X15358730Y-9258674D01*
X15358730Y-9258674D02*
X15368253Y-9268198D01*
X15368253Y-9268198D02*
X15377777Y-9287246D01*
X15377777Y-9287246D02*
X15377777Y-9344389D01*
X15377777Y-9344389D02*
X15368253Y-9363436D01*
X15368253Y-9363436D02*
X15358730Y-9372960D01*
X15358730Y-9372960D02*
X15339682Y-9382484D01*
X15339682Y-9382484D02*
X15311110Y-9382484D01*
X15492063Y-9382484D02*
X15473015Y-9372960D01*
X15473015Y-9372960D02*
X15463491Y-9353912D01*
X15463491Y-9353912D02*
X15463491Y-9182484D01*
X15644444Y-9372960D02*
X15625396Y-9382484D01*
X15625396Y-9382484D02*
X15587301Y-9382484D01*
X15587301Y-9382484D02*
X15568253Y-9372960D01*
X15568253Y-9372960D02*
X15558730Y-9353912D01*
X15558730Y-9353912D02*
X15558730Y-9277722D01*
X15558730Y-9277722D02*
X15568253Y-9258674D01*
X15568253Y-9258674D02*
X15587301Y-9249150D01*
X15587301Y-9249150D02*
X15625396Y-9249150D01*
X15625396Y-9249150D02*
X15644444Y-9258674D01*
X15644444Y-9258674D02*
X15653968Y-9277722D01*
X15653968Y-9277722D02*
X15653968Y-9296770D01*
X15653968Y-9296770D02*
X15558730Y-9315817D01*
X15730158Y-9372960D02*
X15749206Y-9382484D01*
X15749206Y-9382484D02*
X15787301Y-9382484D01*
X15787301Y-9382484D02*
X15806349Y-9372960D01*
X15806349Y-9372960D02*
X15815872Y-9353912D01*
X15815872Y-9353912D02*
X15815872Y-9344389D01*
X15815872Y-9344389D02*
X15806349Y-9325341D01*
X15806349Y-9325341D02*
X15787301Y-9315817D01*
X15787301Y-9315817D02*
X15758730Y-9315817D01*
X15758730Y-9315817D02*
X15739682Y-9306293D01*
X15739682Y-9306293D02*
X15730158Y-9287246D01*
X15730158Y-9287246D02*
X15730158Y-9277722D01*
X15730158Y-9277722D02*
X15739682Y-9258674D01*
X15739682Y-9258674D02*
X15758730Y-9249150D01*
X15758730Y-9249150D02*
X15787301Y-9249150D01*
X15787301Y-9249150D02*
X15806349Y-9258674D01*
X15882539Y-9458674D02*
X15892063Y-9449150D01*
X15892063Y-9449150D02*
X15911111Y-9420579D01*
X15911111Y-9420579D02*
X15920634Y-9401531D01*
X15920634Y-9401531D02*
X15930158Y-9372960D01*
X15930158Y-9372960D02*
X15939682Y-9325341D01*
X15939682Y-9325341D02*
X15939682Y-9287246D01*
X15939682Y-9287246D02*
X15930158Y-9239627D01*
X15930158Y-9239627D02*
X15920634Y-9211055D01*
X15920634Y-9211055D02*
X15911111Y-9192008D01*
X15911111Y-9192008D02*
X15892063Y-9163436D01*
X15892063Y-9163436D02*
X15882539Y-9153912D01*
D12*
X10827000Y-9465000D02*
X10827000Y-9645000D01*
X10737000Y-9555000D02*
X10917000Y-9555000D01*
D11*
X11282539Y-9646484D02*
X11168253Y-9646484D01*
X11225396Y-9646484D02*
X11225396Y-9446484D01*
X11225396Y-9446484D02*
X11206348Y-9475055D01*
X11206348Y-9475055D02*
X11187301Y-9494103D01*
X11187301Y-9494103D02*
X11168253Y-9503627D01*
X11368253Y-9627436D02*
X11377777Y-9636960D01*
X11377777Y-9636960D02*
X11368253Y-9646484D01*
X11368253Y-9646484D02*
X11358729Y-9636960D01*
X11358729Y-9636960D02*
X11368253Y-9627436D01*
X11368253Y-9627436D02*
X11368253Y-9646484D01*
X11492062Y-9532198D02*
X11473015Y-9522674D01*
X11473015Y-9522674D02*
X11463491Y-9513150D01*
X11463491Y-9513150D02*
X11453967Y-9494103D01*
X11453967Y-9494103D02*
X11453967Y-9484579D01*
X11453967Y-9484579D02*
X11463491Y-9465531D01*
X11463491Y-9465531D02*
X11473015Y-9456008D01*
X11473015Y-9456008D02*
X11492062Y-9446484D01*
X11492062Y-9446484D02*
X11530158Y-9446484D01*
X11530158Y-9446484D02*
X11549205Y-9456008D01*
X11549205Y-9456008D02*
X11558729Y-9465531D01*
X11558729Y-9465531D02*
X11568253Y-9484579D01*
X11568253Y-9484579D02*
X11568253Y-9494103D01*
X11568253Y-9494103D02*
X11558729Y-9513150D01*
X11558729Y-9513150D02*
X11549205Y-9522674D01*
X11549205Y-9522674D02*
X11530158Y-9532198D01*
X11530158Y-9532198D02*
X11492062Y-9532198D01*
X11492062Y-9532198D02*
X11473015Y-9541722D01*
X11473015Y-9541722D02*
X11463491Y-9551246D01*
X11463491Y-9551246D02*
X11453967Y-9570293D01*
X11453967Y-9570293D02*
X11453967Y-9608389D01*
X11453967Y-9608389D02*
X11463491Y-9627436D01*
X11463491Y-9627436D02*
X11473015Y-9636960D01*
X11473015Y-9636960D02*
X11492062Y-9646484D01*
X11492062Y-9646484D02*
X11530158Y-9646484D01*
X11530158Y-9646484D02*
X11549205Y-9636960D01*
X11549205Y-9636960D02*
X11558729Y-9627436D01*
X11558729Y-9627436D02*
X11568253Y-9608389D01*
X11568253Y-9608389D02*
X11568253Y-9570293D01*
X11568253Y-9570293D02*
X11558729Y-9551246D01*
X11558729Y-9551246D02*
X11549205Y-9541722D01*
X11549205Y-9541722D02*
X11530158Y-9532198D01*
X11692062Y-9446484D02*
X11711110Y-9446484D01*
X11711110Y-9446484D02*
X11730158Y-9456008D01*
X11730158Y-9456008D02*
X11739682Y-9465531D01*
X11739682Y-9465531D02*
X11749205Y-9484579D01*
X11749205Y-9484579D02*
X11758729Y-9522674D01*
X11758729Y-9522674D02*
X11758729Y-9570293D01*
X11758729Y-9570293D02*
X11749205Y-9608389D01*
X11749205Y-9608389D02*
X11739682Y-9627436D01*
X11739682Y-9627436D02*
X11730158Y-9636960D01*
X11730158Y-9636960D02*
X11711110Y-9646484D01*
X11711110Y-9646484D02*
X11692062Y-9646484D01*
X11692062Y-9646484D02*
X11673015Y-9636960D01*
X11673015Y-9636960D02*
X11663491Y-9627436D01*
X11663491Y-9627436D02*
X11653967Y-9608389D01*
X11653967Y-9608389D02*
X11644443Y-9570293D01*
X11644443Y-9570293D02*
X11644443Y-9522674D01*
X11644443Y-9522674D02*
X11653967Y-9484579D01*
X11653967Y-9484579D02*
X11663491Y-9465531D01*
X11663491Y-9465531D02*
X11673015Y-9456008D01*
X11673015Y-9456008D02*
X11692062Y-9446484D01*
X11882539Y-9446484D02*
X11901586Y-9446484D01*
X11901586Y-9446484D02*
X11920634Y-9456008D01*
X11920634Y-9456008D02*
X11930158Y-9465531D01*
X11930158Y-9465531D02*
X11939682Y-9484579D01*
X11939682Y-9484579D02*
X11949205Y-9522674D01*
X11949205Y-9522674D02*
X11949205Y-9570293D01*
X11949205Y-9570293D02*
X11939682Y-9608389D01*
X11939682Y-9608389D02*
X11930158Y-9627436D01*
X11930158Y-9627436D02*
X11920634Y-9636960D01*
X11920634Y-9636960D02*
X11901586Y-9646484D01*
X11901586Y-9646484D02*
X11882539Y-9646484D01*
X11882539Y-9646484D02*
X11863491Y-9636960D01*
X11863491Y-9636960D02*
X11853967Y-9627436D01*
X11853967Y-9627436D02*
X11844443Y-9608389D01*
X11844443Y-9608389D02*
X11834920Y-9570293D01*
X11834920Y-9570293D02*
X11834920Y-9522674D01*
X11834920Y-9522674D02*
X11844443Y-9484579D01*
X11844443Y-9484579D02*
X11853967Y-9465531D01*
X11853967Y-9465531D02*
X11863491Y-9456008D01*
X11863491Y-9456008D02*
X11882539Y-9446484D01*
X12034920Y-9646484D02*
X12034920Y-9513150D01*
X12034920Y-9532198D02*
X12044443Y-9522674D01*
X12044443Y-9522674D02*
X12063491Y-9513150D01*
X12063491Y-9513150D02*
X12092063Y-9513150D01*
X12092063Y-9513150D02*
X12111110Y-9522674D01*
X12111110Y-9522674D02*
X12120634Y-9541722D01*
X12120634Y-9541722D02*
X12120634Y-9646484D01*
X12120634Y-9541722D02*
X12130158Y-9522674D01*
X12130158Y-9522674D02*
X12149205Y-9513150D01*
X12149205Y-9513150D02*
X12177777Y-9513150D01*
X12177777Y-9513150D02*
X12196824Y-9522674D01*
X12196824Y-9522674D02*
X12206348Y-9541722D01*
X12206348Y-9541722D02*
X12206348Y-9646484D01*
X12301586Y-9646484D02*
X12301586Y-9513150D01*
X12301586Y-9532198D02*
X12311110Y-9522674D01*
X12311110Y-9522674D02*
X12330158Y-9513150D01*
X12330158Y-9513150D02*
X12358729Y-9513150D01*
X12358729Y-9513150D02*
X12377777Y-9522674D01*
X12377777Y-9522674D02*
X12387301Y-9541722D01*
X12387301Y-9541722D02*
X12387301Y-9646484D01*
X12387301Y-9541722D02*
X12396824Y-9522674D01*
X12396824Y-9522674D02*
X12415872Y-9513150D01*
X12415872Y-9513150D02*
X12444443Y-9513150D01*
X12444443Y-9513150D02*
X12463491Y-9522674D01*
X12463491Y-9522674D02*
X12473015Y-9541722D01*
X12473015Y-9541722D02*
X12473015Y-9646484D01*
X12863491Y-9436960D02*
X12692063Y-9694103D01*
X13120634Y-9446484D02*
X13139682Y-9446484D01*
X13139682Y-9446484D02*
X13158729Y-9456008D01*
X13158729Y-9456008D02*
X13168253Y-9465531D01*
X13168253Y-9465531D02*
X13177777Y-9484579D01*
X13177777Y-9484579D02*
X13187301Y-9522674D01*
X13187301Y-9522674D02*
X13187301Y-9570293D01*
X13187301Y-9570293D02*
X13177777Y-9608389D01*
X13177777Y-9608389D02*
X13168253Y-9627436D01*
X13168253Y-9627436D02*
X13158729Y-9636960D01*
X13158729Y-9636960D02*
X13139682Y-9646484D01*
X13139682Y-9646484D02*
X13120634Y-9646484D01*
X13120634Y-9646484D02*
X13101586Y-9636960D01*
X13101586Y-9636960D02*
X13092063Y-9627436D01*
X13092063Y-9627436D02*
X13082539Y-9608389D01*
X13082539Y-9608389D02*
X13073015Y-9570293D01*
X13073015Y-9570293D02*
X13073015Y-9522674D01*
X13073015Y-9522674D02*
X13082539Y-9484579D01*
X13082539Y-9484579D02*
X13092063Y-9465531D01*
X13092063Y-9465531D02*
X13101586Y-9456008D01*
X13101586Y-9456008D02*
X13120634Y-9446484D01*
X13273015Y-9627436D02*
X13282539Y-9636960D01*
X13282539Y-9636960D02*
X13273015Y-9646484D01*
X13273015Y-9646484D02*
X13263491Y-9636960D01*
X13263491Y-9636960D02*
X13273015Y-9627436D01*
X13273015Y-9627436D02*
X13273015Y-9646484D01*
X13406348Y-9446484D02*
X13425396Y-9446484D01*
X13425396Y-9446484D02*
X13444444Y-9456008D01*
X13444444Y-9456008D02*
X13453967Y-9465531D01*
X13453967Y-9465531D02*
X13463491Y-9484579D01*
X13463491Y-9484579D02*
X13473015Y-9522674D01*
X13473015Y-9522674D02*
X13473015Y-9570293D01*
X13473015Y-9570293D02*
X13463491Y-9608389D01*
X13463491Y-9608389D02*
X13453967Y-9627436D01*
X13453967Y-9627436D02*
X13444444Y-9636960D01*
X13444444Y-9636960D02*
X13425396Y-9646484D01*
X13425396Y-9646484D02*
X13406348Y-9646484D01*
X13406348Y-9646484D02*
X13387301Y-9636960D01*
X13387301Y-9636960D02*
X13377777Y-9627436D01*
X13377777Y-9627436D02*
X13368253Y-9608389D01*
X13368253Y-9608389D02*
X13358729Y-9570293D01*
X13358729Y-9570293D02*
X13358729Y-9522674D01*
X13358729Y-9522674D02*
X13368253Y-9484579D01*
X13368253Y-9484579D02*
X13377777Y-9465531D01*
X13377777Y-9465531D02*
X13387301Y-9456008D01*
X13387301Y-9456008D02*
X13406348Y-9446484D01*
X13539682Y-9446484D02*
X13673015Y-9446484D01*
X13673015Y-9446484D02*
X13587301Y-9646484D01*
X13787301Y-9446484D02*
X13806348Y-9446484D01*
X13806348Y-9446484D02*
X13825396Y-9456008D01*
X13825396Y-9456008D02*
X13834920Y-9465531D01*
X13834920Y-9465531D02*
X13844444Y-9484579D01*
X13844444Y-9484579D02*
X13853967Y-9522674D01*
X13853967Y-9522674D02*
X13853967Y-9570293D01*
X13853967Y-9570293D02*
X13844444Y-9608389D01*
X13844444Y-9608389D02*
X13834920Y-9627436D01*
X13834920Y-9627436D02*
X13825396Y-9636960D01*
X13825396Y-9636960D02*
X13806348Y-9646484D01*
X13806348Y-9646484D02*
X13787301Y-9646484D01*
X13787301Y-9646484D02*
X13768253Y-9636960D01*
X13768253Y-9636960D02*
X13758729Y-9627436D01*
X13758729Y-9627436D02*
X13749206Y-9608389D01*
X13749206Y-9608389D02*
X13739682Y-9570293D01*
X13739682Y-9570293D02*
X13739682Y-9522674D01*
X13739682Y-9522674D02*
X13749206Y-9484579D01*
X13749206Y-9484579D02*
X13758729Y-9465531D01*
X13758729Y-9465531D02*
X13768253Y-9456008D01*
X13768253Y-9456008D02*
X13787301Y-9446484D01*
X13949206Y-9646484D02*
X13987301Y-9646484D01*
X13987301Y-9646484D02*
X14006348Y-9636960D01*
X14006348Y-9636960D02*
X14015872Y-9627436D01*
X14015872Y-9627436D02*
X14034920Y-9598865D01*
X14034920Y-9598865D02*
X14044444Y-9560770D01*
X14044444Y-9560770D02*
X14044444Y-9484579D01*
X14044444Y-9484579D02*
X14034920Y-9465531D01*
X14034920Y-9465531D02*
X14025396Y-9456008D01*
X14025396Y-9456008D02*
X14006348Y-9446484D01*
X14006348Y-9446484D02*
X13968253Y-9446484D01*
X13968253Y-9446484D02*
X13949206Y-9456008D01*
X13949206Y-9456008D02*
X13939682Y-9465531D01*
X13939682Y-9465531D02*
X13930158Y-9484579D01*
X13930158Y-9484579D02*
X13930158Y-9532198D01*
X13930158Y-9532198D02*
X13939682Y-9551246D01*
X13939682Y-9551246D02*
X13949206Y-9560770D01*
X13949206Y-9560770D02*
X13968253Y-9570293D01*
X13968253Y-9570293D02*
X14006348Y-9570293D01*
X14006348Y-9570293D02*
X14025396Y-9560770D01*
X14025396Y-9560770D02*
X14034920Y-9551246D01*
X14034920Y-9551246D02*
X14044444Y-9532198D01*
X14120634Y-9446484D02*
X14120634Y-9484579D01*
X14196825Y-9446484D02*
X14196825Y-9484579D01*
X14492063Y-9722674D02*
X14482539Y-9713150D01*
X14482539Y-9713150D02*
X14463491Y-9684579D01*
X14463491Y-9684579D02*
X14453968Y-9665531D01*
X14453968Y-9665531D02*
X14444444Y-9636960D01*
X14444444Y-9636960D02*
X14434920Y-9589341D01*
X14434920Y-9589341D02*
X14434920Y-9551246D01*
X14434920Y-9551246D02*
X14444444Y-9503627D01*
X14444444Y-9503627D02*
X14453968Y-9475055D01*
X14453968Y-9475055D02*
X14463491Y-9456008D01*
X14463491Y-9456008D02*
X14482539Y-9427436D01*
X14482539Y-9427436D02*
X14492063Y-9417912D01*
X14558729Y-9465531D02*
X14568253Y-9456008D01*
X14568253Y-9456008D02*
X14587301Y-9446484D01*
X14587301Y-9446484D02*
X14634920Y-9446484D01*
X14634920Y-9446484D02*
X14653968Y-9456008D01*
X14653968Y-9456008D02*
X14663491Y-9465531D01*
X14663491Y-9465531D02*
X14673015Y-9484579D01*
X14673015Y-9484579D02*
X14673015Y-9503627D01*
X14673015Y-9503627D02*
X14663491Y-9532198D01*
X14663491Y-9532198D02*
X14549206Y-9646484D01*
X14549206Y-9646484D02*
X14673015Y-9646484D01*
X14844444Y-9513150D02*
X14844444Y-9646484D01*
X14796825Y-9436960D02*
X14749206Y-9579817D01*
X14749206Y-9579817D02*
X14873015Y-9579817D01*
X15101587Y-9646484D02*
X15101587Y-9446484D01*
X15187301Y-9646484D02*
X15187301Y-9541722D01*
X15187301Y-9541722D02*
X15177777Y-9522674D01*
X15177777Y-9522674D02*
X15158730Y-9513150D01*
X15158730Y-9513150D02*
X15130158Y-9513150D01*
X15130158Y-9513150D02*
X15111110Y-9522674D01*
X15111110Y-9522674D02*
X15101587Y-9532198D01*
X15311110Y-9646484D02*
X15292063Y-9636960D01*
X15292063Y-9636960D02*
X15282539Y-9627436D01*
X15282539Y-9627436D02*
X15273015Y-9608389D01*
X15273015Y-9608389D02*
X15273015Y-9551246D01*
X15273015Y-9551246D02*
X15282539Y-9532198D01*
X15282539Y-9532198D02*
X15292063Y-9522674D01*
X15292063Y-9522674D02*
X15311110Y-9513150D01*
X15311110Y-9513150D02*
X15339682Y-9513150D01*
X15339682Y-9513150D02*
X15358730Y-9522674D01*
X15358730Y-9522674D02*
X15368253Y-9532198D01*
X15368253Y-9532198D02*
X15377777Y-9551246D01*
X15377777Y-9551246D02*
X15377777Y-9608389D01*
X15377777Y-9608389D02*
X15368253Y-9627436D01*
X15368253Y-9627436D02*
X15358730Y-9636960D01*
X15358730Y-9636960D02*
X15339682Y-9646484D01*
X15339682Y-9646484D02*
X15311110Y-9646484D01*
X15492063Y-9646484D02*
X15473015Y-9636960D01*
X15473015Y-9636960D02*
X15463491Y-9617912D01*
X15463491Y-9617912D02*
X15463491Y-9446484D01*
X15644444Y-9636960D02*
X15625396Y-9646484D01*
X15625396Y-9646484D02*
X15587301Y-9646484D01*
X15587301Y-9646484D02*
X15568253Y-9636960D01*
X15568253Y-9636960D02*
X15558730Y-9617912D01*
X15558730Y-9617912D02*
X15558730Y-9541722D01*
X15558730Y-9541722D02*
X15568253Y-9522674D01*
X15568253Y-9522674D02*
X15587301Y-9513150D01*
X15587301Y-9513150D02*
X15625396Y-9513150D01*
X15625396Y-9513150D02*
X15644444Y-9522674D01*
X15644444Y-9522674D02*
X15653968Y-9541722D01*
X15653968Y-9541722D02*
X15653968Y-9560770D01*
X15653968Y-9560770D02*
X15558730Y-9579817D01*
X15730158Y-9636960D02*
X15749206Y-9646484D01*
X15749206Y-9646484D02*
X15787301Y-9646484D01*
X15787301Y-9646484D02*
X15806349Y-9636960D01*
X15806349Y-9636960D02*
X15815872Y-9617912D01*
X15815872Y-9617912D02*
X15815872Y-9608389D01*
X15815872Y-9608389D02*
X15806349Y-9589341D01*
X15806349Y-9589341D02*
X15787301Y-9579817D01*
X15787301Y-9579817D02*
X15758730Y-9579817D01*
X15758730Y-9579817D02*
X15739682Y-9570293D01*
X15739682Y-9570293D02*
X15730158Y-9551246D01*
X15730158Y-9551246D02*
X15730158Y-9541722D01*
X15730158Y-9541722D02*
X15739682Y-9522674D01*
X15739682Y-9522674D02*
X15758730Y-9513150D01*
X15758730Y-9513150D02*
X15787301Y-9513150D01*
X15787301Y-9513150D02*
X15806349Y-9522674D01*
X15882539Y-9722674D02*
X15892063Y-9713150D01*
X15892063Y-9713150D02*
X15911111Y-9684579D01*
X15911111Y-9684579D02*
X15920634Y-9665531D01*
X15920634Y-9665531D02*
X15930158Y-9636960D01*
X15930158Y-9636960D02*
X15939682Y-9589341D01*
X15939682Y-9589341D02*
X15939682Y-9551246D01*
X15939682Y-9551246D02*
X15930158Y-9503627D01*
X15930158Y-9503627D02*
X15920634Y-9475055D01*
X15920634Y-9475055D02*
X15911111Y-9456008D01*
X15911111Y-9456008D02*
X15892063Y-9427436D01*
X15892063Y-9427436D02*
X15882539Y-9417912D01*
X10887711Y-9925711D02*
X10887711Y-9784289D01*
X10746289Y-9784289D01*
X10746289Y-9925711D01*
X10887711Y-9925711D01*
X11263491Y-9813150D02*
X11263491Y-9946484D01*
X11215872Y-9736960D02*
X11168253Y-9879817D01*
X11168253Y-9879817D02*
X11292062Y-9879817D01*
X11368253Y-9927436D02*
X11377777Y-9936960D01*
X11377777Y-9936960D02*
X11368253Y-9946484D01*
X11368253Y-9946484D02*
X11358729Y-9936960D01*
X11358729Y-9936960D02*
X11368253Y-9927436D01*
X11368253Y-9927436D02*
X11368253Y-9946484D01*
X11501586Y-9746484D02*
X11520634Y-9746484D01*
X11520634Y-9746484D02*
X11539682Y-9756008D01*
X11539682Y-9756008D02*
X11549205Y-9765531D01*
X11549205Y-9765531D02*
X11558729Y-9784579D01*
X11558729Y-9784579D02*
X11568253Y-9822674D01*
X11568253Y-9822674D02*
X11568253Y-9870293D01*
X11568253Y-9870293D02*
X11558729Y-9908389D01*
X11558729Y-9908389D02*
X11549205Y-9927436D01*
X11549205Y-9927436D02*
X11539682Y-9936960D01*
X11539682Y-9936960D02*
X11520634Y-9946484D01*
X11520634Y-9946484D02*
X11501586Y-9946484D01*
X11501586Y-9946484D02*
X11482539Y-9936960D01*
X11482539Y-9936960D02*
X11473015Y-9927436D01*
X11473015Y-9927436D02*
X11463491Y-9908389D01*
X11463491Y-9908389D02*
X11453967Y-9870293D01*
X11453967Y-9870293D02*
X11453967Y-9822674D01*
X11453967Y-9822674D02*
X11463491Y-9784579D01*
X11463491Y-9784579D02*
X11473015Y-9765531D01*
X11473015Y-9765531D02*
X11482539Y-9756008D01*
X11482539Y-9756008D02*
X11501586Y-9746484D01*
X11692062Y-9746484D02*
X11711110Y-9746484D01*
X11711110Y-9746484D02*
X11730158Y-9756008D01*
X11730158Y-9756008D02*
X11739682Y-9765531D01*
X11739682Y-9765531D02*
X11749205Y-9784579D01*
X11749205Y-9784579D02*
X11758729Y-9822674D01*
X11758729Y-9822674D02*
X11758729Y-9870293D01*
X11758729Y-9870293D02*
X11749205Y-9908389D01*
X11749205Y-9908389D02*
X11739682Y-9927436D01*
X11739682Y-9927436D02*
X11730158Y-9936960D01*
X11730158Y-9936960D02*
X11711110Y-9946484D01*
X11711110Y-9946484D02*
X11692062Y-9946484D01*
X11692062Y-9946484D02*
X11673015Y-9936960D01*
X11673015Y-9936960D02*
X11663491Y-9927436D01*
X11663491Y-9927436D02*
X11653967Y-9908389D01*
X11653967Y-9908389D02*
X11644443Y-9870293D01*
X11644443Y-9870293D02*
X11644443Y-9822674D01*
X11644443Y-9822674D02*
X11653967Y-9784579D01*
X11653967Y-9784579D02*
X11663491Y-9765531D01*
X11663491Y-9765531D02*
X11673015Y-9756008D01*
X11673015Y-9756008D02*
X11692062Y-9746484D01*
X11882539Y-9746484D02*
X11901586Y-9746484D01*
X11901586Y-9746484D02*
X11920634Y-9756008D01*
X11920634Y-9756008D02*
X11930158Y-9765531D01*
X11930158Y-9765531D02*
X11939682Y-9784579D01*
X11939682Y-9784579D02*
X11949205Y-9822674D01*
X11949205Y-9822674D02*
X11949205Y-9870293D01*
X11949205Y-9870293D02*
X11939682Y-9908389D01*
X11939682Y-9908389D02*
X11930158Y-9927436D01*
X11930158Y-9927436D02*
X11920634Y-9936960D01*
X11920634Y-9936960D02*
X11901586Y-9946484D01*
X11901586Y-9946484D02*
X11882539Y-9946484D01*
X11882539Y-9946484D02*
X11863491Y-9936960D01*
X11863491Y-9936960D02*
X11853967Y-9927436D01*
X11853967Y-9927436D02*
X11844443Y-9908389D01*
X11844443Y-9908389D02*
X11834920Y-9870293D01*
X11834920Y-9870293D02*
X11834920Y-9822674D01*
X11834920Y-9822674D02*
X11844443Y-9784579D01*
X11844443Y-9784579D02*
X11853967Y-9765531D01*
X11853967Y-9765531D02*
X11863491Y-9756008D01*
X11863491Y-9756008D02*
X11882539Y-9746484D01*
X12034920Y-9946484D02*
X12034920Y-9813150D01*
X12034920Y-9832198D02*
X12044443Y-9822674D01*
X12044443Y-9822674D02*
X12063491Y-9813150D01*
X12063491Y-9813150D02*
X12092063Y-9813150D01*
X12092063Y-9813150D02*
X12111110Y-9822674D01*
X12111110Y-9822674D02*
X12120634Y-9841722D01*
X12120634Y-9841722D02*
X12120634Y-9946484D01*
X12120634Y-9841722D02*
X12130158Y-9822674D01*
X12130158Y-9822674D02*
X12149205Y-9813150D01*
X12149205Y-9813150D02*
X12177777Y-9813150D01*
X12177777Y-9813150D02*
X12196824Y-9822674D01*
X12196824Y-9822674D02*
X12206348Y-9841722D01*
X12206348Y-9841722D02*
X12206348Y-9946484D01*
X12301586Y-9946484D02*
X12301586Y-9813150D01*
X12301586Y-9832198D02*
X12311110Y-9822674D01*
X12311110Y-9822674D02*
X12330158Y-9813150D01*
X12330158Y-9813150D02*
X12358729Y-9813150D01*
X12358729Y-9813150D02*
X12377777Y-9822674D01*
X12377777Y-9822674D02*
X12387301Y-9841722D01*
X12387301Y-9841722D02*
X12387301Y-9946484D01*
X12387301Y-9841722D02*
X12396824Y-9822674D01*
X12396824Y-9822674D02*
X12415872Y-9813150D01*
X12415872Y-9813150D02*
X12444443Y-9813150D01*
X12444443Y-9813150D02*
X12463491Y-9822674D01*
X12463491Y-9822674D02*
X12473015Y-9841722D01*
X12473015Y-9841722D02*
X12473015Y-9946484D01*
X12863491Y-9736960D02*
X12692063Y-9994103D01*
X13120634Y-9746484D02*
X13139682Y-9746484D01*
X13139682Y-9746484D02*
X13158729Y-9756008D01*
X13158729Y-9756008D02*
X13168253Y-9765531D01*
X13168253Y-9765531D02*
X13177777Y-9784579D01*
X13177777Y-9784579D02*
X13187301Y-9822674D01*
X13187301Y-9822674D02*
X13187301Y-9870293D01*
X13187301Y-9870293D02*
X13177777Y-9908389D01*
X13177777Y-9908389D02*
X13168253Y-9927436D01*
X13168253Y-9927436D02*
X13158729Y-9936960D01*
X13158729Y-9936960D02*
X13139682Y-9946484D01*
X13139682Y-9946484D02*
X13120634Y-9946484D01*
X13120634Y-9946484D02*
X13101586Y-9936960D01*
X13101586Y-9936960D02*
X13092063Y-9927436D01*
X13092063Y-9927436D02*
X13082539Y-9908389D01*
X13082539Y-9908389D02*
X13073015Y-9870293D01*
X13073015Y-9870293D02*
X13073015Y-9822674D01*
X13073015Y-9822674D02*
X13082539Y-9784579D01*
X13082539Y-9784579D02*
X13092063Y-9765531D01*
X13092063Y-9765531D02*
X13101586Y-9756008D01*
X13101586Y-9756008D02*
X13120634Y-9746484D01*
X13273015Y-9927436D02*
X13282539Y-9936960D01*
X13282539Y-9936960D02*
X13273015Y-9946484D01*
X13273015Y-9946484D02*
X13263491Y-9936960D01*
X13263491Y-9936960D02*
X13273015Y-9927436D01*
X13273015Y-9927436D02*
X13273015Y-9946484D01*
X13473015Y-9946484D02*
X13358729Y-9946484D01*
X13415872Y-9946484D02*
X13415872Y-9746484D01*
X13415872Y-9746484D02*
X13396825Y-9775055D01*
X13396825Y-9775055D02*
X13377777Y-9794103D01*
X13377777Y-9794103D02*
X13358729Y-9803627D01*
X13653967Y-9746484D02*
X13558729Y-9746484D01*
X13558729Y-9746484D02*
X13549206Y-9841722D01*
X13549206Y-9841722D02*
X13558729Y-9832198D01*
X13558729Y-9832198D02*
X13577777Y-9822674D01*
X13577777Y-9822674D02*
X13625396Y-9822674D01*
X13625396Y-9822674D02*
X13644444Y-9832198D01*
X13644444Y-9832198D02*
X13653967Y-9841722D01*
X13653967Y-9841722D02*
X13663491Y-9860770D01*
X13663491Y-9860770D02*
X13663491Y-9908389D01*
X13663491Y-9908389D02*
X13653967Y-9927436D01*
X13653967Y-9927436D02*
X13644444Y-9936960D01*
X13644444Y-9936960D02*
X13625396Y-9946484D01*
X13625396Y-9946484D02*
X13577777Y-9946484D01*
X13577777Y-9946484D02*
X13558729Y-9936960D01*
X13558729Y-9936960D02*
X13549206Y-9927436D01*
X13730158Y-9746484D02*
X13863491Y-9746484D01*
X13863491Y-9746484D02*
X13777777Y-9946484D01*
X14034920Y-9746484D02*
X13939682Y-9746484D01*
X13939682Y-9746484D02*
X13930158Y-9841722D01*
X13930158Y-9841722D02*
X13939682Y-9832198D01*
X13939682Y-9832198D02*
X13958729Y-9822674D01*
X13958729Y-9822674D02*
X14006348Y-9822674D01*
X14006348Y-9822674D02*
X14025396Y-9832198D01*
X14025396Y-9832198D02*
X14034920Y-9841722D01*
X14034920Y-9841722D02*
X14044444Y-9860770D01*
X14044444Y-9860770D02*
X14044444Y-9908389D01*
X14044444Y-9908389D02*
X14034920Y-9927436D01*
X14034920Y-9927436D02*
X14025396Y-9936960D01*
X14025396Y-9936960D02*
X14006348Y-9946484D01*
X14006348Y-9946484D02*
X13958729Y-9946484D01*
X13958729Y-9946484D02*
X13939682Y-9936960D01*
X13939682Y-9936960D02*
X13930158Y-9927436D01*
X14120634Y-9746484D02*
X14120634Y-9784579D01*
X14196825Y-9746484D02*
X14196825Y-9784579D01*
X14492063Y-10022674D02*
X14482539Y-10013150D01*
X14482539Y-10013150D02*
X14463491Y-9984579D01*
X14463491Y-9984579D02*
X14453968Y-9965531D01*
X14453968Y-9965531D02*
X14444444Y-9936960D01*
X14444444Y-9936960D02*
X14434920Y-9889341D01*
X14434920Y-9889341D02*
X14434920Y-9851246D01*
X14434920Y-9851246D02*
X14444444Y-9803627D01*
X14444444Y-9803627D02*
X14453968Y-9775055D01*
X14453968Y-9775055D02*
X14463491Y-9756008D01*
X14463491Y-9756008D02*
X14482539Y-9727436D01*
X14482539Y-9727436D02*
X14492063Y-9717912D01*
X14653968Y-9813150D02*
X14653968Y-9946484D01*
X14606348Y-9736960D02*
X14558729Y-9879817D01*
X14558729Y-9879817D02*
X14682539Y-9879817D01*
X14911110Y-9946484D02*
X14911110Y-9746484D01*
X14996825Y-9946484D02*
X14996825Y-9841722D01*
X14996825Y-9841722D02*
X14987301Y-9822674D01*
X14987301Y-9822674D02*
X14968253Y-9813150D01*
X14968253Y-9813150D02*
X14939682Y-9813150D01*
X14939682Y-9813150D02*
X14920634Y-9822674D01*
X14920634Y-9822674D02*
X14911110Y-9832198D01*
X15120634Y-9946484D02*
X15101587Y-9936960D01*
X15101587Y-9936960D02*
X15092063Y-9927436D01*
X15092063Y-9927436D02*
X15082539Y-9908389D01*
X15082539Y-9908389D02*
X15082539Y-9851246D01*
X15082539Y-9851246D02*
X15092063Y-9832198D01*
X15092063Y-9832198D02*
X15101587Y-9822674D01*
X15101587Y-9822674D02*
X15120634Y-9813150D01*
X15120634Y-9813150D02*
X15149206Y-9813150D01*
X15149206Y-9813150D02*
X15168253Y-9822674D01*
X15168253Y-9822674D02*
X15177777Y-9832198D01*
X15177777Y-9832198D02*
X15187301Y-9851246D01*
X15187301Y-9851246D02*
X15187301Y-9908389D01*
X15187301Y-9908389D02*
X15177777Y-9927436D01*
X15177777Y-9927436D02*
X15168253Y-9936960D01*
X15168253Y-9936960D02*
X15149206Y-9946484D01*
X15149206Y-9946484D02*
X15120634Y-9946484D01*
X15301587Y-9946484D02*
X15282539Y-9936960D01*
X15282539Y-9936960D02*
X15273015Y-9917912D01*
X15273015Y-9917912D02*
X15273015Y-9746484D01*
X15453968Y-9936960D02*
X15434920Y-9946484D01*
X15434920Y-9946484D02*
X15396825Y-9946484D01*
X15396825Y-9946484D02*
X15377777Y-9936960D01*
X15377777Y-9936960D02*
X15368253Y-9917912D01*
X15368253Y-9917912D02*
X15368253Y-9841722D01*
X15368253Y-9841722D02*
X15377777Y-9822674D01*
X15377777Y-9822674D02*
X15396825Y-9813150D01*
X15396825Y-9813150D02*
X15434920Y-9813150D01*
X15434920Y-9813150D02*
X15453968Y-9822674D01*
X15453968Y-9822674D02*
X15463491Y-9841722D01*
X15463491Y-9841722D02*
X15463491Y-9860770D01*
X15463491Y-9860770D02*
X15368253Y-9879817D01*
X15539682Y-9936960D02*
X15558730Y-9946484D01*
X15558730Y-9946484D02*
X15596825Y-9946484D01*
X15596825Y-9946484D02*
X15615872Y-9936960D01*
X15615872Y-9936960D02*
X15625396Y-9917912D01*
X15625396Y-9917912D02*
X15625396Y-9908389D01*
X15625396Y-9908389D02*
X15615872Y-9889341D01*
X15615872Y-9889341D02*
X15596825Y-9879817D01*
X15596825Y-9879817D02*
X15568253Y-9879817D01*
X15568253Y-9879817D02*
X15549206Y-9870293D01*
X15549206Y-9870293D02*
X15539682Y-9851246D01*
X15539682Y-9851246D02*
X15539682Y-9841722D01*
X15539682Y-9841722D02*
X15549206Y-9822674D01*
X15549206Y-9822674D02*
X15568253Y-9813150D01*
X15568253Y-9813150D02*
X15596825Y-9813150D01*
X15596825Y-9813150D02*
X15615872Y-9822674D01*
X15692063Y-10022674D02*
X15701587Y-10013150D01*
X15701587Y-10013150D02*
X15720634Y-9984579D01*
X15720634Y-9984579D02*
X15730158Y-9965531D01*
X15730158Y-9965531D02*
X15739682Y-9936960D01*
X15739682Y-9936960D02*
X15749206Y-9889341D01*
X15749206Y-9889341D02*
X15749206Y-9851246D01*
X15749206Y-9851246D02*
X15739682Y-9803627D01*
X15739682Y-9803627D02*
X15730158Y-9775055D01*
X15730158Y-9775055D02*
X15720634Y-9756008D01*
X15720634Y-9756008D02*
X15701587Y-9727436D01*
X15701587Y-9727436D02*
X15692063Y-9717912D01*
X16053968Y-10022674D02*
X16044444Y-10013150D01*
X16044444Y-10013150D02*
X16025396Y-9984579D01*
X16025396Y-9984579D02*
X16015872Y-9965531D01*
X16015872Y-9965531D02*
X16006349Y-9936960D01*
X16006349Y-9936960D02*
X15996825Y-9889341D01*
X15996825Y-9889341D02*
X15996825Y-9851246D01*
X15996825Y-9851246D02*
X16006349Y-9803627D01*
X16006349Y-9803627D02*
X16015872Y-9775055D01*
X16015872Y-9775055D02*
X16025396Y-9756008D01*
X16025396Y-9756008D02*
X16044444Y-9727436D01*
X16044444Y-9727436D02*
X16053968Y-9717912D01*
X16130158Y-9813150D02*
X16130158Y-9946484D01*
X16130158Y-9832198D02*
X16139682Y-9822674D01*
X16139682Y-9822674D02*
X16158730Y-9813150D01*
X16158730Y-9813150D02*
X16187301Y-9813150D01*
X16187301Y-9813150D02*
X16206349Y-9822674D01*
X16206349Y-9822674D02*
X16215872Y-9841722D01*
X16215872Y-9841722D02*
X16215872Y-9946484D01*
X16339682Y-9946484D02*
X16320634Y-9936960D01*
X16320634Y-9936960D02*
X16311111Y-9927436D01*
X16311111Y-9927436D02*
X16301587Y-9908389D01*
X16301587Y-9908389D02*
X16301587Y-9851246D01*
X16301587Y-9851246D02*
X16311111Y-9832198D01*
X16311111Y-9832198D02*
X16320634Y-9822674D01*
X16320634Y-9822674D02*
X16339682Y-9813150D01*
X16339682Y-9813150D02*
X16368253Y-9813150D01*
X16368253Y-9813150D02*
X16387301Y-9822674D01*
X16387301Y-9822674D02*
X16396825Y-9832198D01*
X16396825Y-9832198D02*
X16406349Y-9851246D01*
X16406349Y-9851246D02*
X16406349Y-9908389D01*
X16406349Y-9908389D02*
X16396825Y-9927436D01*
X16396825Y-9927436D02*
X16387301Y-9936960D01*
X16387301Y-9936960D02*
X16368253Y-9946484D01*
X16368253Y-9946484D02*
X16339682Y-9946484D01*
X16463492Y-9813150D02*
X16539682Y-9813150D01*
X16492063Y-9746484D02*
X16492063Y-9917912D01*
X16492063Y-9917912D02*
X16501587Y-9936960D01*
X16501587Y-9936960D02*
X16520634Y-9946484D01*
X16520634Y-9946484D02*
X16539682Y-9946484D01*
X16758730Y-9813150D02*
X16758730Y-10013150D01*
X16758730Y-9822674D02*
X16777777Y-9813150D01*
X16777777Y-9813150D02*
X16815873Y-9813150D01*
X16815873Y-9813150D02*
X16834920Y-9822674D01*
X16834920Y-9822674D02*
X16844444Y-9832198D01*
X16844444Y-9832198D02*
X16853968Y-9851246D01*
X16853968Y-9851246D02*
X16853968Y-9908389D01*
X16853968Y-9908389D02*
X16844444Y-9927436D01*
X16844444Y-9927436D02*
X16834920Y-9936960D01*
X16834920Y-9936960D02*
X16815873Y-9946484D01*
X16815873Y-9946484D02*
X16777777Y-9946484D01*
X16777777Y-9946484D02*
X16758730Y-9936960D01*
X16968254Y-9946484D02*
X16949206Y-9936960D01*
X16949206Y-9936960D02*
X16939682Y-9917912D01*
X16939682Y-9917912D02*
X16939682Y-9746484D01*
X17130158Y-9946484D02*
X17130158Y-9841722D01*
X17130158Y-9841722D02*
X17120635Y-9822674D01*
X17120635Y-9822674D02*
X17101587Y-9813150D01*
X17101587Y-9813150D02*
X17063492Y-9813150D01*
X17063492Y-9813150D02*
X17044444Y-9822674D01*
X17130158Y-9936960D02*
X17111111Y-9946484D01*
X17111111Y-9946484D02*
X17063492Y-9946484D01*
X17063492Y-9946484D02*
X17044444Y-9936960D01*
X17044444Y-9936960D02*
X17034920Y-9917912D01*
X17034920Y-9917912D02*
X17034920Y-9898865D01*
X17034920Y-9898865D02*
X17044444Y-9879817D01*
X17044444Y-9879817D02*
X17063492Y-9870293D01*
X17063492Y-9870293D02*
X17111111Y-9870293D01*
X17111111Y-9870293D02*
X17130158Y-9860770D01*
X17196825Y-9813150D02*
X17273015Y-9813150D01*
X17225396Y-9746484D02*
X17225396Y-9917912D01*
X17225396Y-9917912D02*
X17234920Y-9936960D01*
X17234920Y-9936960D02*
X17253968Y-9946484D01*
X17253968Y-9946484D02*
X17273015Y-9946484D01*
X17415873Y-9936960D02*
X17396825Y-9946484D01*
X17396825Y-9946484D02*
X17358730Y-9946484D01*
X17358730Y-9946484D02*
X17339682Y-9936960D01*
X17339682Y-9936960D02*
X17330158Y-9917912D01*
X17330158Y-9917912D02*
X17330158Y-9841722D01*
X17330158Y-9841722D02*
X17339682Y-9822674D01*
X17339682Y-9822674D02*
X17358730Y-9813150D01*
X17358730Y-9813150D02*
X17396825Y-9813150D01*
X17396825Y-9813150D02*
X17415873Y-9822674D01*
X17415873Y-9822674D02*
X17425396Y-9841722D01*
X17425396Y-9841722D02*
X17425396Y-9860770D01*
X17425396Y-9860770D02*
X17330158Y-9879817D01*
X17596825Y-9946484D02*
X17596825Y-9746484D01*
X17596825Y-9936960D02*
X17577777Y-9946484D01*
X17577777Y-9946484D02*
X17539682Y-9946484D01*
X17539682Y-9946484D02*
X17520635Y-9936960D01*
X17520635Y-9936960D02*
X17511111Y-9927436D01*
X17511111Y-9927436D02*
X17501587Y-9908389D01*
X17501587Y-9908389D02*
X17501587Y-9851246D01*
X17501587Y-9851246D02*
X17511111Y-9832198D01*
X17511111Y-9832198D02*
X17520635Y-9822674D01*
X17520635Y-9822674D02*
X17539682Y-9813150D01*
X17539682Y-9813150D02*
X17577777Y-9813150D01*
X17577777Y-9813150D02*
X17596825Y-9822674D01*
X17673016Y-10022674D02*
X17682539Y-10013150D01*
X17682539Y-10013150D02*
X17701587Y-9984579D01*
X17701587Y-9984579D02*
X17711111Y-9965531D01*
X17711111Y-9965531D02*
X17720635Y-9936960D01*
X17720635Y-9936960D02*
X17730158Y-9889341D01*
X17730158Y-9889341D02*
X17730158Y-9851246D01*
X17730158Y-9851246D02*
X17720635Y-9803627D01*
X17720635Y-9803627D02*
X17711111Y-9775055D01*
X17711111Y-9775055D02*
X17701587Y-9756008D01*
X17701587Y-9756008D02*
X17682539Y-9727436D01*
X17682539Y-9727436D02*
X17673016Y-9717912D01*
M02*
