%TF.GenerationSoftware,KiCad,Pcbnew,8.0.2-1*%
%TF.CreationDate,2024-11-16T15:05:08-05:00*%
%TF.ProjectId,Incubator-PowerBoard,496e6375-6261-4746-9f72-2d506f776572,v01a*%
%TF.SameCoordinates,Original*%
%TF.FileFunction,Copper,L2,Bot*%
%TF.FilePolarity,Positive*%
%FSLAX46Y46*%
G04 Gerber Fmt 4.6, Leading zero omitted, Abs format (unit mm)*
G04 Created by KiCad (PCBNEW 8.0.2-1) date 2024-11-16 15:05:08*
%MOMM*%
%LPD*%
G01*
G04 APERTURE LIST*
G04 Aperture macros list*
%AMRoundRect*
0 Rectangle with rounded corners*
0 $1 Rounding radius*
0 $2 $3 $4 $5 $6 $7 $8 $9 X,Y pos of 4 corners*
0 Add a 4 corners polygon primitive as box body*
4,1,4,$2,$3,$4,$5,$6,$7,$8,$9,$2,$3,0*
0 Add four circle primitives for the rounded corners*
1,1,$1+$1,$2,$3*
1,1,$1+$1,$4,$5*
1,1,$1+$1,$6,$7*
1,1,$1+$1,$8,$9*
0 Add four rect primitives between the rounded corners*
20,1,$1+$1,$2,$3,$4,$5,0*
20,1,$1+$1,$4,$5,$6,$7,0*
20,1,$1+$1,$6,$7,$8,$9,0*
20,1,$1+$1,$8,$9,$2,$3,0*%
G04 Aperture macros list end*
%TA.AperFunction,ComponentPad*%
%ADD10R,1.700000X1.700000*%
%TD*%
%TA.AperFunction,ComponentPad*%
%ADD11O,1.700000X1.700000*%
%TD*%
%TA.AperFunction,ComponentPad*%
%ADD12RoundRect,0.250001X-1.599999X1.099999X-1.599999X-1.099999X1.599999X-1.099999X1.599999X1.099999X0*%
%TD*%
%TA.AperFunction,ComponentPad*%
%ADD13O,3.700000X2.700000*%
%TD*%
%TA.AperFunction,ViaPad*%
%ADD14C,0.558800*%
%TD*%
%TA.AperFunction,Conductor*%
%ADD15C,0.254000*%
%TD*%
%TA.AperFunction,Conductor*%
%ADD16C,0.508000*%
%TD*%
G04 APERTURE END LIST*
D10*
%TO.P,J10,1,Pin_1*%
%TO.N,+12V*%
X113030000Y-71120000D03*
D11*
%TO.P,J10,2,Pin_2*%
%TO.N,Net-(J10-Pin_2)*%
X113030000Y-68580000D03*
%TO.P,J10,3,Pin_3*%
%TO.N,Net-(J10-Pin_3)*%
X113030000Y-66040000D03*
%TO.P,J10,4,Pin_4*%
%TO.N,Net-(J10-Pin_4)*%
X113030000Y-63500000D03*
%TD*%
D10*
%TO.P,J2,1,Pin_1*%
%TO.N,unconnected-(J2-Pin_1-Pad1)*%
X127000000Y-58420000D03*
D11*
%TO.P,J2,2,Pin_2*%
%TO.N,VCC*%
X129540000Y-58420000D03*
%TO.P,J2,3,Pin_3*%
%TO.N,unconnected-(J2-Pin_3-Pad3)*%
X132080000Y-58420000D03*
%TO.P,J2,4,Pin_4*%
%TO.N,GND*%
X134620000Y-58420000D03*
%TO.P,J2,5,Pin_5*%
%TO.N,/AO*%
X137160000Y-58420000D03*
%TO.P,J2,6,Pin_6*%
%TO.N,/A1*%
X139700000Y-58420000D03*
%TO.P,J2,7,Pin_7*%
%TO.N,Net-(J2-Pin_7)*%
X142240000Y-58420000D03*
%TO.P,J2,8,Pin_8*%
%TO.N,Net-(J2-Pin_8)*%
X144780000Y-58420000D03*
%TO.P,J2,9,Pin_9*%
%TO.N,Net-(J2-Pin_9)*%
X147320000Y-58420000D03*
%TO.P,J2,10,Pin_10*%
%TO.N,/TACH_2*%
X149860000Y-58420000D03*
%TO.P,J2,11,Pin_11*%
%TO.N,/SCK*%
X152400000Y-58420000D03*
%TO.P,J2,12,Pin_12*%
%TO.N,/MOSI*%
X154940000Y-58420000D03*
%TO.P,J2,13,Pin_13*%
%TO.N,/MISO*%
X157480000Y-58420000D03*
%TO.P,J2,14,Pin_14*%
%TO.N,unconnected-(J2-Pin_14-Pad14)*%
X160020000Y-58420000D03*
%TO.P,J2,15,Pin_15*%
%TO.N,unconnected-(J2-Pin_15-Pad15)*%
X162560000Y-58420000D03*
%TO.P,J2,16,Pin_16*%
%TO.N,/TACH_1*%
X165100000Y-58420000D03*
%TD*%
D10*
%TO.P,J4,1,Pin_1*%
%TO.N,unconnected-(J4-Pin_1-Pad1)*%
X168910000Y-79375000D03*
D11*
%TO.P,J4,2,Pin_2*%
%TO.N,unconnected-(J4-Pin_2-Pad2)*%
X171450000Y-79375000D03*
%TO.P,J4,3,Pin_3*%
%TO.N,+12V*%
X173990000Y-79375000D03*
%TO.P,J4,4,Pin_4*%
%TO.N,Net-(J4-Pin_4)*%
X176530000Y-79375000D03*
%TD*%
D12*
%TO.P,J13,1,+3.3V*%
%TO.N,+3V3*%
X190500000Y-27940000D03*
D13*
%TO.P,J13,2,+3.3V*%
X190500000Y-32140000D03*
%TO.P,J13,3,GND*%
%TO.N,GND*%
X190500000Y-36340000D03*
%TO.P,J13,4,+5V*%
%TO.N,+5V*%
X190500000Y-40540000D03*
%TO.P,J13,5,GND*%
%TO.N,GND*%
X190500000Y-44740000D03*
%TO.P,J13,6,+5V*%
%TO.N,+5V*%
X190500000Y-48940000D03*
%TO.P,J13,7,GND*%
%TO.N,GND*%
X190500000Y-53140000D03*
%TO.P,J13,8,PWR_OK*%
%TO.N,unconnected-(J13-PWR_OK-Pad8)*%
X190500000Y-57340000D03*
%TO.P,J13,9,+5VSB*%
%TO.N,unconnected-(J13-+5VSB-Pad9)*%
X190500000Y-61540000D03*
%TO.P,J13,10,+12V*%
%TO.N,+12V*%
X190500000Y-65740000D03*
%TO.P,J13,11,+12V*%
X190500000Y-69940000D03*
%TO.P,J13,12,+3.3V*%
%TO.N,+3V3*%
X190500000Y-74140000D03*
%TO.P,J13,13,+3.3V*%
X185000000Y-27940000D03*
%TO.P,J13,14,-12V*%
%TO.N,unconnected-(J13--12V-Pad14)*%
X185000000Y-32140000D03*
%TO.P,J13,15,GND*%
%TO.N,GND*%
X185000000Y-36340000D03*
%TO.P,J13,16,PS_ON#*%
%TO.N,/PS_ON*%
X185000000Y-40540000D03*
%TO.P,J13,17,GND*%
%TO.N,GND*%
X185000000Y-44740000D03*
%TO.P,J13,18,GND*%
X185000000Y-48940000D03*
%TO.P,J13,19,GND*%
X185000000Y-53140000D03*
%TO.P,J13,20,NC*%
%TO.N,unconnected-(J13-NC-Pad20)*%
X185000000Y-57340000D03*
%TO.P,J13,21,+5V*%
%TO.N,+5V*%
X185000000Y-61540000D03*
%TO.P,J13,22,+5V*%
X185000000Y-65740000D03*
%TO.P,J13,23,+5V*%
X185000000Y-69940000D03*
%TO.P,J13,24,GND*%
%TO.N,GND*%
X185000000Y-74140000D03*
%TD*%
D10*
%TO.P,J5,1,Pin_1*%
%TO.N,/PWM_FAN_IN_1*%
X137160000Y-71120000D03*
D11*
%TO.P,J5,2,Pin_2*%
%TO.N,/TACH_1*%
X139700000Y-71120000D03*
%TO.P,J5,3,Pin_3*%
%TO.N,+12V*%
X142240000Y-71120000D03*
%TO.P,J5,4,Pin_4*%
%TO.N,GND*%
X144780000Y-71120000D03*
%TD*%
D10*
%TO.P,J9,1,Pin_1*%
%TO.N,+5V*%
X176530000Y-64770000D03*
D11*
%TO.P,J9,2,Pin_2*%
%TO.N,Net-(J9-Pin_2)*%
X173990000Y-64770000D03*
%TD*%
D10*
%TO.P,J1,1,Pin_1*%
%TO.N,unconnected-(J1-Pin_1-Pad1)*%
X137160000Y-38100000D03*
D11*
%TO.P,J1,2,Pin_2*%
%TO.N,unconnected-(J1-Pin_2-Pad2)*%
X139700000Y-38100000D03*
%TO.P,J1,3,Pin_3*%
%TO.N,+5V*%
X142240000Y-38100000D03*
%TO.P,J1,4,Pin_4*%
%TO.N,/IO13*%
X144780000Y-38100000D03*
%TO.P,J1,5,Pin_5*%
%TO.N,/IO12*%
X147320000Y-38100000D03*
%TO.P,J1,6,Pin_6*%
%TO.N,/TOGGLE_COOL_1*%
X149860000Y-38100000D03*
%TO.P,J1,7,Pin_7*%
%TO.N,/TOGGLE_COOL_2*%
X152400000Y-38100000D03*
%TO.P,J1,8,Pin_8*%
%TO.N,/BUTTON_1*%
X154940000Y-38100000D03*
%TO.P,J1,9,Pin_9*%
%TO.N,/BUTTON_2*%
X157480000Y-38100000D03*
%TO.P,J1,10,Pin_10*%
%TO.N,/BUTTON_3*%
X160020000Y-38100000D03*
%TO.P,J1,11,Pin_11*%
%TO.N,/SDA*%
X162560000Y-38100000D03*
%TO.P,J1,12,Pin_12*%
%TO.N,/SCL*%
X165100000Y-38100000D03*
%TD*%
D10*
%TO.P,J11,1,Pin_1*%
%TO.N,+3V3*%
X147320000Y-30480000D03*
D11*
%TO.P,J11,2,Pin_2*%
%TO.N,/AO*%
X147320000Y-27940000D03*
%TO.P,J11,3,Pin_3*%
%TO.N,GND*%
X149860000Y-30480000D03*
%TO.P,J11,4,Pin_4*%
%TO.N,/A1*%
X149860000Y-27940000D03*
%TO.P,J11,5,Pin_5*%
%TO.N,/BUTTON_1*%
X152400000Y-30480000D03*
%TO.P,J11,6,Pin_6*%
%TO.N,/IO13*%
X152400000Y-27940000D03*
%TO.P,J11,7,Pin_7*%
%TO.N,/BUTTON_2*%
X154940000Y-30480000D03*
%TO.P,J11,8,Pin_8*%
%TO.N,/IO12*%
X154940000Y-27940000D03*
%TO.P,J11,9,Pin_9*%
%TO.N,/BUTTON_3*%
X157480000Y-30480000D03*
%TO.P,J11,10,Pin_10*%
%TO.N,/SCK*%
X157480000Y-27940000D03*
%TO.P,J11,11,Pin_11*%
%TO.N,unconnected-(J11-Pin_11-Pad11)*%
X160020000Y-30480000D03*
%TO.P,J11,12,Pin_12*%
%TO.N,/MOSI*%
X160020000Y-27940000D03*
%TO.P,J11,13,Pin_13*%
%TO.N,/SDA*%
X162560000Y-30480000D03*
%TO.P,J11,14,Pin_14*%
%TO.N,/MISO*%
X162560000Y-27940000D03*
%TO.P,J11,15,Pin_15*%
%TO.N,/SCL*%
X165100000Y-30480000D03*
%TO.P,J11,16,Pin_16*%
%TO.N,unconnected-(J11-Pin_16-Pad16)*%
X165100000Y-27940000D03*
%TO.P,J11,17,Pin_17*%
%TO.N,+5V*%
X167640000Y-30480000D03*
%TO.P,J11,18,Pin_18*%
%TO.N,unconnected-(J11-Pin_18-Pad18)*%
X167640000Y-27940000D03*
%TO.P,J11,19,Pin_19*%
%TO.N,GND*%
X170180000Y-30480000D03*
%TO.P,J11,20,Pin_20*%
%TO.N,unconnected-(J11-Pin_20-Pad20)*%
X170180000Y-27940000D03*
%TD*%
D10*
%TO.P,J12,1,Pin_1*%
%TO.N,/PS_ON*%
X175260000Y-30480000D03*
D11*
%TO.P,J12,2,Pin_2*%
%TO.N,GND*%
X177800000Y-30480000D03*
%TD*%
D10*
%TO.P,J8,1,Pin_1*%
%TO.N,+5V*%
X163322000Y-64770000D03*
D11*
%TO.P,J8,2,Pin_2*%
%TO.N,Net-(J8-Pin_2)*%
X160782000Y-64770000D03*
%TD*%
D10*
%TO.P,J3,1,Pin_1*%
%TO.N,unconnected-(J3-Pin_1-Pad1)*%
X152400000Y-79375000D03*
D11*
%TO.P,J3,2,Pin_2*%
%TO.N,unconnected-(J3-Pin_2-Pad2)*%
X154940000Y-79375000D03*
%TO.P,J3,3,Pin_3*%
%TO.N,+12V*%
X157480000Y-79375000D03*
%TO.P,J3,4,Pin_4*%
%TO.N,Net-(J3-Pin_4)*%
X160020000Y-79375000D03*
%TD*%
D10*
%TO.P,J6,1,Pin_1*%
%TO.N,/PWM_FAN_IN_2*%
X121920000Y-71120000D03*
D11*
%TO.P,J6,2,Pin_2*%
%TO.N,/TACH_2*%
X124460000Y-71120000D03*
%TO.P,J6,3,Pin_3*%
%TO.N,+12V*%
X127000000Y-71120000D03*
%TO.P,J6,4,Pin_4*%
%TO.N,GND*%
X129540000Y-71120000D03*
%TD*%
D14*
%TO.N,/TOGGLE_COOL_1*%
X163830000Y-70866000D03*
%TO.N,+5V*%
X170815000Y-36830000D03*
X170815000Y-38100000D03*
X169545000Y-36830000D03*
X169545000Y-38100000D03*
%TO.N,/TOGGLE_COOL_2*%
X179832000Y-71120000D03*
%TO.N,GND*%
X118872000Y-58928000D03*
X178308000Y-73152000D03*
X146050000Y-33274000D03*
X162052000Y-68072000D03*
X115316000Y-54864000D03*
X115824000Y-59944000D03*
X121666000Y-67818000D03*
X121666000Y-67056000D03*
X116078000Y-54864000D03*
X178308000Y-67056000D03*
X162052000Y-68834000D03*
X162814000Y-68834000D03*
X150368000Y-60858400D03*
X116840000Y-54864000D03*
X162052000Y-73152000D03*
X178562000Y-68580000D03*
X162814000Y-68072000D03*
X116840000Y-59944000D03*
X162052000Y-72390000D03*
X118110000Y-52324000D03*
X118110000Y-58928000D03*
X179070000Y-73152000D03*
X162814000Y-73152000D03*
X177546000Y-67056000D03*
X179070000Y-72390000D03*
X116840000Y-58928000D03*
X118110000Y-53086000D03*
X118110000Y-53848000D03*
X178562000Y-67818000D03*
X120650000Y-68072000D03*
X162814000Y-72390000D03*
X120650000Y-68834000D03*
%TO.N,/PWM_FAN_IN_2*%
X147320000Y-64262000D03*
X156718000Y-65024000D03*
%TD*%
D15*
%TO.N,/TOGGLE_COOL_1*%
X166370000Y-49530000D02*
X168910000Y-52070000D01*
X149860000Y-43180000D02*
X156210000Y-49530000D01*
X156210000Y-49530000D02*
X166370000Y-49530000D01*
X168910000Y-69088000D02*
X167132000Y-70866000D01*
X149860000Y-38100000D02*
X149860000Y-43180000D01*
X168910000Y-52070000D02*
X168910000Y-69088000D01*
X167132000Y-70866000D02*
X163830000Y-70866000D01*
%TO.N,/IO13*%
X153631000Y-32043000D02*
X153631000Y-29171000D01*
X153631000Y-29171000D02*
X152400000Y-27940000D01*
X153162000Y-32512000D02*
X153631000Y-32043000D01*
X148082000Y-32512000D02*
X153162000Y-32512000D01*
X144780000Y-38100000D02*
X144780000Y-35814000D01*
X144780000Y-35814000D02*
X148082000Y-32512000D01*
D16*
%TO.N,+5V*%
X169545000Y-36830000D02*
X169545000Y-38100000D01*
X167640000Y-34925000D02*
X169545000Y-36830000D01*
X169545000Y-36830000D02*
X170815000Y-36830000D01*
X167640000Y-30480000D02*
X167640000Y-34925000D01*
X170815000Y-36830000D02*
X170815000Y-38100000D01*
D15*
%TO.N,/TOGGLE_COOL_2*%
X175580000Y-52390000D02*
X175580000Y-61214000D01*
X175299000Y-66079000D02*
X175514000Y-66294000D01*
X179832000Y-67646053D02*
X179832000Y-70866000D01*
X179832000Y-70866000D02*
X179832000Y-71120000D01*
X175514000Y-66294000D02*
X178479947Y-66294000D01*
X178479947Y-66294000D02*
X179832000Y-67646053D01*
X175580000Y-61214000D02*
X175299000Y-61495000D01*
X172720000Y-48260000D02*
X175260000Y-50800000D01*
X175260000Y-50800000D02*
X175260000Y-52070000D01*
X175299000Y-61495000D02*
X175299000Y-66079000D01*
X175260000Y-52070000D02*
X175580000Y-52390000D01*
X152400000Y-38100000D02*
X152400000Y-41910000D01*
X152400000Y-41910000D02*
X158750000Y-48260000D01*
X158750000Y-48260000D02*
X172720000Y-48260000D01*
%TO.N,/IO12*%
X156171000Y-29171000D02*
X154940000Y-27940000D01*
X147320000Y-38100000D02*
X147320000Y-35306000D01*
X156171000Y-32297000D02*
X156171000Y-29171000D01*
X148844000Y-33782000D02*
X154686000Y-33782000D01*
X147320000Y-35306000D02*
X148844000Y-33782000D01*
X154686000Y-33782000D02*
X156171000Y-32297000D01*
%TO.N,/PWM_FAN_IN_2*%
X147574000Y-65024000D02*
X147320000Y-65024000D01*
X156718000Y-65024000D02*
X147574000Y-65024000D01*
X121920000Y-72644000D02*
X122936000Y-73660000D01*
X147320000Y-72390000D02*
X147320000Y-65278000D01*
X147320000Y-65024000D02*
X147320000Y-64770000D01*
X147320000Y-65278000D02*
X147320000Y-65024000D01*
X138176000Y-73660000D02*
X138430000Y-73406000D01*
X146304000Y-73406000D02*
X147320000Y-72390000D01*
X147320000Y-64770000D02*
X147320000Y-64516000D01*
X121920000Y-71120000D02*
X121920000Y-72644000D01*
X147320000Y-64770000D02*
X147574000Y-65024000D01*
X147320000Y-64516000D02*
X147320000Y-64262000D01*
X147574000Y-65024000D02*
X147320000Y-65278000D01*
X122936000Y-73660000D02*
X138176000Y-73660000D01*
X138430000Y-73406000D02*
X146304000Y-73406000D01*
%TO.N,/MISO*%
X125095000Y-25400000D02*
X160020000Y-25400000D01*
X120650000Y-29845000D02*
X125095000Y-25400000D01*
X121920000Y-62865000D02*
X120650000Y-61595000D01*
X153035000Y-62865000D02*
X121920000Y-62865000D01*
X120650000Y-61595000D02*
X120650000Y-29845000D01*
X157480000Y-58420000D02*
X153035000Y-62865000D01*
X160020000Y-25400000D02*
X162560000Y-27940000D01*
%TO.N,/AO*%
X133858000Y-42926000D02*
X133858000Y-30226000D01*
X133858000Y-30226000D02*
X136144000Y-27940000D01*
X136144000Y-27940000D02*
X147320000Y-27940000D01*
X137160000Y-46228000D02*
X133858000Y-42926000D01*
X137160000Y-58420000D02*
X137160000Y-46228000D01*
%TO.N,/MOSI*%
X122471580Y-62230000D02*
X121285000Y-61043420D01*
X154940000Y-58420000D02*
X154940000Y-59138420D01*
X151848420Y-62230000D02*
X122471580Y-62230000D01*
X158750000Y-25908000D02*
X160020000Y-27178000D01*
X121285000Y-32936580D02*
X128313580Y-25908000D01*
X160020000Y-27178000D02*
X160020000Y-27940000D01*
X121285000Y-61043420D02*
X121285000Y-32936580D01*
X128313580Y-25908000D02*
X158750000Y-25908000D01*
X154940000Y-59138420D02*
X151848420Y-62230000D01*
%TO.N,/SCK*%
X151765000Y-61595000D02*
X122555000Y-61595000D01*
X128270000Y-26670000D02*
X156210000Y-26670000D01*
X121920000Y-60960000D02*
X121920000Y-33020000D01*
X156210000Y-26670000D02*
X157480000Y-27940000D01*
X122555000Y-61595000D02*
X121920000Y-60960000D01*
X152400000Y-60960000D02*
X151765000Y-61595000D01*
X152400000Y-58420000D02*
X152400000Y-60960000D01*
X121920000Y-33020000D02*
X128270000Y-26670000D01*
%TO.N,/A1*%
X136867000Y-29249000D02*
X148551000Y-29249000D01*
X139700000Y-58420000D02*
X139700000Y-47498000D01*
X139700000Y-47498000D02*
X134874000Y-42672000D01*
X148551000Y-29249000D02*
X149860000Y-27940000D01*
X134874000Y-42672000D02*
X134874000Y-31242000D01*
X134874000Y-31242000D02*
X136867000Y-29249000D01*
%TD*%
%TA.AperFunction,Conductor*%
%TO.N,GND*%
G36*
X199332121Y-24150002D02*
G01*
X199378614Y-24203658D01*
X199390000Y-24256000D01*
X199390000Y-26010635D01*
X199369998Y-26078756D01*
X199340704Y-26110597D01*
X199170321Y-26241336D01*
X199170300Y-26241355D01*
X198961355Y-26450300D01*
X198961336Y-26450321D01*
X198781432Y-26684777D01*
X198781427Y-26684783D01*
X198633668Y-26940709D01*
X198633663Y-26940719D01*
X198520566Y-27213760D01*
X198444074Y-27499232D01*
X198405500Y-27792230D01*
X198405500Y-28087769D01*
X198444074Y-28380767D01*
X198444075Y-28380773D01*
X198444076Y-28380775D01*
X198520566Y-28666240D01*
X198633662Y-28939279D01*
X198633663Y-28939280D01*
X198633668Y-28939290D01*
X198781427Y-29195216D01*
X198781432Y-29195222D01*
X198961336Y-29429678D01*
X198961355Y-29429699D01*
X199170305Y-29638649D01*
X199170315Y-29638658D01*
X199170316Y-29638659D01*
X199340706Y-29769404D01*
X199382571Y-29826739D01*
X199390000Y-29869364D01*
X199390000Y-76810635D01*
X199369998Y-76878756D01*
X199340704Y-76910597D01*
X199170321Y-77041336D01*
X199170300Y-77041355D01*
X198961355Y-77250300D01*
X198961336Y-77250321D01*
X198781432Y-77484777D01*
X198781427Y-77484783D01*
X198633668Y-77740709D01*
X198633663Y-77740719D01*
X198520566Y-78013760D01*
X198444074Y-78299232D01*
X198405500Y-78592230D01*
X198405500Y-78887769D01*
X198444074Y-79180767D01*
X198444075Y-79180773D01*
X198444076Y-79180775D01*
X198520566Y-79466240D01*
X198633662Y-79739279D01*
X198633663Y-79739280D01*
X198633668Y-79739290D01*
X198781427Y-79995216D01*
X198781432Y-79995222D01*
X198961336Y-80229678D01*
X198961355Y-80229699D01*
X199170305Y-80438649D01*
X199170315Y-80438658D01*
X199170316Y-80438659D01*
X199340706Y-80569404D01*
X199382571Y-80626739D01*
X199390000Y-80669364D01*
X199390000Y-82424000D01*
X199369998Y-82492121D01*
X199316342Y-82538614D01*
X199264000Y-82550000D01*
X110616000Y-82550000D01*
X110547879Y-82529998D01*
X110501386Y-82476342D01*
X110490000Y-82424000D01*
X110490000Y-78592230D01*
X112045500Y-78592230D01*
X112045500Y-78887769D01*
X112084074Y-79180767D01*
X112084075Y-79180773D01*
X112084076Y-79180775D01*
X112160566Y-79466240D01*
X112273662Y-79739279D01*
X112273663Y-79739280D01*
X112273668Y-79739290D01*
X112421427Y-79995216D01*
X112421432Y-79995222D01*
X112601336Y-80229678D01*
X112601355Y-80229699D01*
X112810300Y-80438644D01*
X112810306Y-80438649D01*
X112810316Y-80438659D01*
X112810319Y-80438661D01*
X112810321Y-80438663D01*
X112854784Y-80472781D01*
X113044780Y-80618570D01*
X113044781Y-80618571D01*
X113044783Y-80618572D01*
X113246635Y-80735111D01*
X113300721Y-80766338D01*
X113573760Y-80879434D01*
X113859225Y-80955924D01*
X113859231Y-80955924D01*
X113859232Y-80955925D01*
X113887417Y-80959635D01*
X114152232Y-80994500D01*
X114152239Y-80994500D01*
X114447761Y-80994500D01*
X114447768Y-80994500D01*
X114740775Y-80955924D01*
X115026240Y-80879434D01*
X115299279Y-80766338D01*
X115555220Y-80618570D01*
X115789684Y-80438659D01*
X115998659Y-80229684D01*
X116178570Y-79995220D01*
X116326338Y-79739279D01*
X116439434Y-79466240D01*
X116515924Y-79180775D01*
X116554500Y-78887768D01*
X116554500Y-78592232D01*
X116542348Y-78499930D01*
X151295500Y-78499930D01*
X151295500Y-80250063D01*
X151295501Y-80250073D01*
X151310265Y-80324300D01*
X151366516Y-80408484D01*
X151450697Y-80464733D01*
X151450699Y-80464734D01*
X151524933Y-80479500D01*
X153275066Y-80479499D01*
X153275069Y-80479498D01*
X153275073Y-80479498D01*
X153324326Y-80469701D01*
X153349301Y-80464734D01*
X153433484Y-80408484D01*
X153489734Y-80324301D01*
X153504500Y-80250067D01*
X153504499Y-79374995D01*
X153830768Y-79374995D01*
X153830768Y-79375004D01*
X153849654Y-79578819D01*
X153849655Y-79578821D01*
X153905672Y-79775701D01*
X153996912Y-79958935D01*
X153996913Y-79958936D01*
X154120266Y-80122284D01*
X154271536Y-80260185D01*
X154445566Y-80367940D01*
X154445568Y-80367940D01*
X154445573Y-80367944D01*
X154636444Y-80441888D01*
X154837653Y-80479500D01*
X154837655Y-80479500D01*
X155042345Y-80479500D01*
X155042347Y-80479500D01*
X155243556Y-80441888D01*
X155434427Y-80367944D01*
X155608462Y-80260186D01*
X155759732Y-80122285D01*
X155883088Y-79958935D01*
X155974328Y-79775701D01*
X156030345Y-79578821D01*
X156049232Y-79375000D01*
X156049232Y-79374995D01*
X156370768Y-79374995D01*
X156370768Y-79375004D01*
X156389654Y-79578819D01*
X156389655Y-79578821D01*
X156445672Y-79775701D01*
X156536912Y-79958935D01*
X156536913Y-79958936D01*
X156660266Y-80122284D01*
X156811536Y-80260185D01*
X156985566Y-80367940D01*
X156985568Y-80367940D01*
X156985573Y-80367944D01*
X157176444Y-80441888D01*
X157377653Y-80479500D01*
X157377655Y-80479500D01*
X157582345Y-80479500D01*
X157582347Y-80479500D01*
X157783556Y-80441888D01*
X157974427Y-80367944D01*
X158148462Y-80260186D01*
X158299732Y-80122285D01*
X158423088Y-79958935D01*
X158514328Y-79775701D01*
X158570345Y-79578821D01*
X158589232Y-79375000D01*
X158589232Y-79374995D01*
X158910768Y-79374995D01*
X158910768Y-79375004D01*
X158929654Y-79578819D01*
X158929655Y-79578821D01*
X158985672Y-79775701D01*
X159076912Y-79958935D01*
X159076913Y-79958936D01*
X159200266Y-80122284D01*
X159351536Y-80260185D01*
X159525566Y-80367940D01*
X159525568Y-80367940D01*
X159525573Y-80367944D01*
X159716444Y-80441888D01*
X159917653Y-80479500D01*
X159917655Y-80479500D01*
X160122345Y-80479500D01*
X160122347Y-80479500D01*
X160323556Y-80441888D01*
X160514427Y-80367944D01*
X160688462Y-80260186D01*
X160839732Y-80122285D01*
X160963088Y-79958935D01*
X161054328Y-79775701D01*
X161110345Y-79578821D01*
X161129232Y-79375000D01*
X161110345Y-79171179D01*
X161054328Y-78974299D01*
X160963088Y-78791065D01*
X160922538Y-78737368D01*
X160839733Y-78627715D01*
X160699560Y-78499930D01*
X167805500Y-78499930D01*
X167805500Y-80250063D01*
X167805501Y-80250073D01*
X167820265Y-80324300D01*
X167876516Y-80408484D01*
X167960697Y-80464733D01*
X167960699Y-80464734D01*
X168034933Y-80479500D01*
X169785066Y-80479499D01*
X169785069Y-80479498D01*
X169785073Y-80479498D01*
X169834326Y-80469701D01*
X169859301Y-80464734D01*
X169943484Y-80408484D01*
X169999734Y-80324301D01*
X170014500Y-80250067D01*
X170014499Y-79374995D01*
X170340768Y-79374995D01*
X170340768Y-79375004D01*
X170359654Y-79578819D01*
X170359655Y-79578821D01*
X170415672Y-79775701D01*
X170506912Y-79958935D01*
X170506913Y-79958936D01*
X170630266Y-80122284D01*
X170781536Y-80260185D01*
X170955566Y-80367940D01*
X170955568Y-80367940D01*
X170955573Y-80367944D01*
X171146444Y-80441888D01*
X171347653Y-80479500D01*
X171347655Y-80479500D01*
X171552345Y-80479500D01*
X171552347Y-80479500D01*
X171753556Y-80441888D01*
X171944427Y-80367944D01*
X172118462Y-80260186D01*
X172269732Y-80122285D01*
X172393088Y-79958935D01*
X172484328Y-79775701D01*
X172540345Y-79578821D01*
X172559232Y-79375000D01*
X172559232Y-79374995D01*
X172880768Y-79374995D01*
X172880768Y-79375004D01*
X172899654Y-79578819D01*
X172899655Y-79578821D01*
X172955672Y-79775701D01*
X173046912Y-79958935D01*
X173046913Y-79958936D01*
X173170266Y-80122284D01*
X173321536Y-80260185D01*
X173495566Y-80367940D01*
X173495568Y-80367940D01*
X173495573Y-80367944D01*
X173686444Y-80441888D01*
X173887653Y-80479500D01*
X173887655Y-80479500D01*
X174092345Y-80479500D01*
X174092347Y-80479500D01*
X174293556Y-80441888D01*
X174484427Y-80367944D01*
X174658462Y-80260186D01*
X174809732Y-80122285D01*
X174933088Y-79958935D01*
X175024328Y-79775701D01*
X175080345Y-79578821D01*
X175099232Y-79375000D01*
X175099232Y-79374995D01*
X175420768Y-79374995D01*
X175420768Y-79375004D01*
X175439654Y-79578819D01*
X175439655Y-79578821D01*
X175495672Y-79775701D01*
X175586912Y-79958935D01*
X175586913Y-79958936D01*
X175710266Y-80122284D01*
X175861536Y-80260185D01*
X176035566Y-80367940D01*
X176035568Y-80367940D01*
X176035573Y-80367944D01*
X176226444Y-80441888D01*
X176427653Y-80479500D01*
X176427655Y-80479500D01*
X176632345Y-80479500D01*
X176632347Y-80479500D01*
X176833556Y-80441888D01*
X177024427Y-80367944D01*
X177198462Y-80260186D01*
X177349732Y-80122285D01*
X177473088Y-79958935D01*
X177564328Y-79775701D01*
X177620345Y-79578821D01*
X177639232Y-79375000D01*
X177620345Y-79171179D01*
X177564328Y-78974299D01*
X177473088Y-78791065D01*
X177432538Y-78737368D01*
X177349733Y-78627715D01*
X177198463Y-78489814D01*
X177024433Y-78382059D01*
X177024428Y-78382057D01*
X177024427Y-78382056D01*
X177024422Y-78382054D01*
X176833559Y-78308113D01*
X176833560Y-78308113D01*
X176833557Y-78308112D01*
X176833556Y-78308112D01*
X176632347Y-78270500D01*
X176427653Y-78270500D01*
X176226444Y-78308112D01*
X176226439Y-78308113D01*
X176035577Y-78382054D01*
X176035566Y-78382059D01*
X175861536Y-78489814D01*
X175710266Y-78627715D01*
X175586913Y-78791063D01*
X175495671Y-78974301D01*
X175439654Y-79171180D01*
X175420768Y-79374995D01*
X175099232Y-79374995D01*
X175080345Y-79171179D01*
X175024328Y-78974299D01*
X174933088Y-78791065D01*
X174892538Y-78737368D01*
X174809733Y-78627715D01*
X174658463Y-78489814D01*
X174484433Y-78382059D01*
X174484428Y-78382057D01*
X174484427Y-78382056D01*
X174484422Y-78382054D01*
X174293559Y-78308113D01*
X174293560Y-78308113D01*
X174293557Y-78308112D01*
X174293556Y-78308112D01*
X174092347Y-78270500D01*
X173887653Y-78270500D01*
X173686444Y-78308112D01*
X173686439Y-78308113D01*
X173495577Y-78382054D01*
X173495566Y-78382059D01*
X173321536Y-78489814D01*
X173170266Y-78627715D01*
X173046913Y-78791063D01*
X172955671Y-78974301D01*
X172899654Y-79171180D01*
X172880768Y-79374995D01*
X172559232Y-79374995D01*
X172540345Y-79171179D01*
X172484328Y-78974299D01*
X172393088Y-78791065D01*
X172352538Y-78737368D01*
X172269733Y-78627715D01*
X172118463Y-78489814D01*
X171944433Y-78382059D01*
X171944428Y-78382057D01*
X171944427Y-78382056D01*
X171944422Y-78382054D01*
X171753559Y-78308113D01*
X171753560Y-78308113D01*
X171753557Y-78308112D01*
X171753556Y-78308112D01*
X171552347Y-78270500D01*
X171347653Y-78270500D01*
X171146444Y-78308112D01*
X171146439Y-78308113D01*
X170955577Y-78382054D01*
X170955566Y-78382059D01*
X170781536Y-78489814D01*
X170630266Y-78627715D01*
X170506913Y-78791063D01*
X170415671Y-78974301D01*
X170359654Y-79171180D01*
X170340768Y-79374995D01*
X170014499Y-79374995D01*
X170014499Y-78499934D01*
X170014498Y-78499930D01*
X170014498Y-78499926D01*
X169999734Y-78425699D01*
X169943483Y-78341515D01*
X169859302Y-78285266D01*
X169785067Y-78270500D01*
X168034936Y-78270500D01*
X168034926Y-78270501D01*
X167960699Y-78285265D01*
X167876515Y-78341516D01*
X167820266Y-78425697D01*
X167805500Y-78499930D01*
X160699560Y-78499930D01*
X160688463Y-78489814D01*
X160514433Y-78382059D01*
X160514428Y-78382057D01*
X160514427Y-78382056D01*
X160514422Y-78382054D01*
X160323559Y-78308113D01*
X160323560Y-78308113D01*
X160323557Y-78308112D01*
X160323556Y-78308112D01*
X160122347Y-78270500D01*
X159917653Y-78270500D01*
X159716444Y-78308112D01*
X159716439Y-78308113D01*
X159525577Y-78382054D01*
X159525566Y-78382059D01*
X159351536Y-78489814D01*
X159200266Y-78627715D01*
X159076913Y-78791063D01*
X158985671Y-78974301D01*
X158929654Y-79171180D01*
X158910768Y-79374995D01*
X158589232Y-79374995D01*
X158570345Y-79171179D01*
X158514328Y-78974299D01*
X158423088Y-78791065D01*
X158382538Y-78737368D01*
X158299733Y-78627715D01*
X158148463Y-78489814D01*
X157974433Y-78382059D01*
X157974428Y-78382057D01*
X157974427Y-78382056D01*
X157974422Y-78382054D01*
X157783559Y-78308113D01*
X157783560Y-78308113D01*
X157783557Y-78308112D01*
X157783556Y-78308112D01*
X157582347Y-78270500D01*
X157377653Y-78270500D01*
X157176444Y-78308112D01*
X157176439Y-78308113D01*
X156985577Y-78382054D01*
X156985566Y-78382059D01*
X156811536Y-78489814D01*
X156660266Y-78627715D01*
X156536913Y-78791063D01*
X156445671Y-78974301D01*
X156389654Y-79171180D01*
X156370768Y-79374995D01*
X156049232Y-79374995D01*
X156030345Y-79171179D01*
X155974328Y-78974299D01*
X155883088Y-78791065D01*
X155842538Y-78737368D01*
X155759733Y-78627715D01*
X155608463Y-78489814D01*
X155434433Y-78382059D01*
X155434428Y-78382057D01*
X155434427Y-78382056D01*
X155434422Y-78382054D01*
X155243559Y-78308113D01*
X155243560Y-78308113D01*
X155243557Y-78308112D01*
X155243556Y-78308112D01*
X155042347Y-78270500D01*
X154837653Y-78270500D01*
X154636444Y-78308112D01*
X154636439Y-78308113D01*
X154445577Y-78382054D01*
X154445566Y-78382059D01*
X154271536Y-78489814D01*
X154120266Y-78627715D01*
X153996913Y-78791063D01*
X153905671Y-78974301D01*
X153849654Y-79171180D01*
X153830768Y-79374995D01*
X153504499Y-79374995D01*
X153504499Y-78499934D01*
X153504498Y-78499930D01*
X153504498Y-78499926D01*
X153489734Y-78425699D01*
X153433483Y-78341515D01*
X153349302Y-78285266D01*
X153275067Y-78270500D01*
X151524936Y-78270500D01*
X151524926Y-78270501D01*
X151450699Y-78285265D01*
X151366515Y-78341516D01*
X151310266Y-78425697D01*
X151295500Y-78499930D01*
X116542348Y-78499930D01*
X116515924Y-78299225D01*
X116439434Y-78013760D01*
X116326338Y-77740721D01*
X116178570Y-77484780D01*
X115998659Y-77250316D01*
X115998653Y-77250310D01*
X115998644Y-77250300D01*
X115789699Y-77041355D01*
X115789678Y-77041336D01*
X115681883Y-76958622D01*
X115555220Y-76861430D01*
X115555218Y-76861429D01*
X115555216Y-76861427D01*
X115299290Y-76713668D01*
X115299285Y-76713665D01*
X115299279Y-76713662D01*
X115026240Y-76600566D01*
X114740775Y-76524076D01*
X114740773Y-76524075D01*
X114740767Y-76524074D01*
X114447769Y-76485500D01*
X114447768Y-76485500D01*
X114152232Y-76485500D01*
X114152230Y-76485500D01*
X113859232Y-76524074D01*
X113573760Y-76600566D01*
X113300719Y-76713663D01*
X113300709Y-76713668D01*
X113044783Y-76861427D01*
X113044777Y-76861432D01*
X112810321Y-77041336D01*
X112810300Y-77041355D01*
X112601355Y-77250300D01*
X112601336Y-77250321D01*
X112421432Y-77484777D01*
X112421427Y-77484783D01*
X112273668Y-77740709D01*
X112273663Y-77740719D01*
X112160566Y-78013760D01*
X112084074Y-78299232D01*
X112045500Y-78592230D01*
X110490000Y-78592230D01*
X110490000Y-70244930D01*
X111925500Y-70244930D01*
X111925500Y-71995063D01*
X111925501Y-71995073D01*
X111940265Y-72069300D01*
X111996516Y-72153484D01*
X112080697Y-72209733D01*
X112080699Y-72209734D01*
X112154933Y-72224500D01*
X113905066Y-72224499D01*
X113905069Y-72224498D01*
X113905073Y-72224498D01*
X113954326Y-72214701D01*
X113979301Y-72209734D01*
X114063484Y-72153484D01*
X114119734Y-72069301D01*
X114134500Y-71995067D01*
X114134499Y-70244934D01*
X114134498Y-70244930D01*
X120815500Y-70244930D01*
X120815500Y-71995063D01*
X120815501Y-71995073D01*
X120830265Y-72069300D01*
X120886516Y-72153484D01*
X120970697Y-72209733D01*
X120970699Y-72209734D01*
X121044933Y-72224500D01*
X121412500Y-72224499D01*
X121480620Y-72244501D01*
X121527113Y-72298156D01*
X121538500Y-72350499D01*
X121538500Y-72694223D01*
X121538499Y-72694223D01*
X121564500Y-72791258D01*
X121614721Y-72878243D01*
X121614729Y-72878253D01*
X122630724Y-73894247D01*
X122701753Y-73965276D01*
X122701754Y-73965277D01*
X122701756Y-73965278D01*
X122788741Y-74015499D01*
X122788743Y-74015499D01*
X122788746Y-74015501D01*
X122885775Y-74041500D01*
X122885777Y-74041500D01*
X138226223Y-74041500D01*
X138226225Y-74041500D01*
X138323254Y-74015501D01*
X138323257Y-74015499D01*
X138323258Y-74015499D01*
X138327586Y-74013000D01*
X182896120Y-74013000D01*
X184107630Y-74013000D01*
X184100000Y-74051358D01*
X184100000Y-74228642D01*
X184107630Y-74267000D01*
X182896121Y-74267000D01*
X182935497Y-74515609D01*
X183013513Y-74755717D01*
X183013516Y-74755723D01*
X183128138Y-74980682D01*
X183276539Y-75184938D01*
X183276541Y-75184941D01*
X183455058Y-75363458D01*
X183455061Y-75363460D01*
X183659317Y-75511861D01*
X183884276Y-75626483D01*
X183884282Y-75626486D01*
X184124390Y-75704502D01*
X184373765Y-75744000D01*
X184873000Y-75744000D01*
X184873000Y-75032370D01*
X184911358Y-75040000D01*
X185088642Y-75040000D01*
X185127000Y-75032370D01*
X185127000Y-75744000D01*
X185626235Y-75744000D01*
X185875609Y-75704502D01*
X186115717Y-75626486D01*
X186115723Y-75626483D01*
X186340682Y-75511861D01*
X186544938Y-75363460D01*
X186544941Y-75363458D01*
X186723458Y-75184941D01*
X186723460Y-75184938D01*
X186871861Y-74980682D01*
X186986483Y-74755723D01*
X186986486Y-74755717D01*
X187064502Y-74515609D01*
X187103879Y-74267000D01*
X185892370Y-74267000D01*
X185900000Y-74228642D01*
X185900000Y-74051358D01*
X185892514Y-74013723D01*
X188395500Y-74013723D01*
X188395500Y-74266277D01*
X188435009Y-74515721D01*
X188513052Y-74755914D01*
X188627709Y-74980941D01*
X188776156Y-75185261D01*
X188776158Y-75185263D01*
X188776160Y-75185266D01*
X188954733Y-75363839D01*
X188954736Y-75363841D01*
X188954739Y-75363844D01*
X189159059Y-75512291D01*
X189384086Y-75626948D01*
X189624279Y-75704991D01*
X189873723Y-75744500D01*
X189873726Y-75744500D01*
X191126274Y-75744500D01*
X191126277Y-75744500D01*
X191375721Y-75704991D01*
X191615914Y-75626948D01*
X191840941Y-75512291D01*
X192045261Y-75363844D01*
X192223844Y-75185261D01*
X192372291Y-74980941D01*
X192486948Y-74755914D01*
X192564991Y-74515721D01*
X192604500Y-74266277D01*
X192604500Y-74013723D01*
X192564991Y-73764279D01*
X192486948Y-73524086D01*
X192372291Y-73299059D01*
X192223844Y-73094739D01*
X192223841Y-73094736D01*
X192223839Y-73094733D01*
X192045266Y-72916160D01*
X192045263Y-72916158D01*
X192045261Y-72916156D01*
X191891458Y-72804412D01*
X191840944Y-72767711D01*
X191840943Y-72767710D01*
X191840941Y-72767709D01*
X191615914Y-72653052D01*
X191615911Y-72653051D01*
X191615909Y-72653050D01*
X191375725Y-72575010D01*
X191375723Y-72575009D01*
X191375721Y-72575009D01*
X191126277Y-72535500D01*
X189873723Y-72535500D01*
X189624279Y-72575009D01*
X189624277Y-72575009D01*
X189624274Y-72575010D01*
X189384090Y-72653050D01*
X189384084Y-72653053D01*
X189159055Y-72767711D01*
X188954736Y-72916158D01*
X188954733Y-72916160D01*
X188776160Y-73094733D01*
X188776158Y-73094736D01*
X188627711Y-73299055D01*
X188513053Y-73524084D01*
X188513050Y-73524090D01*
X188435010Y-73764274D01*
X188435009Y-73764277D01*
X188435009Y-73764279D01*
X188395500Y-74013723D01*
X185892514Y-74013723D01*
X185892370Y-74013000D01*
X187103879Y-74013000D01*
X187064502Y-73764390D01*
X186986486Y-73524282D01*
X186986483Y-73524276D01*
X186871861Y-73299317D01*
X186723460Y-73095061D01*
X186723458Y-73095058D01*
X186544941Y-72916541D01*
X186544938Y-72916539D01*
X186340682Y-72768138D01*
X186115723Y-72653516D01*
X186115717Y-72653513D01*
X185875609Y-72575497D01*
X185626235Y-72536000D01*
X185127000Y-72536000D01*
X185127000Y-73247629D01*
X185088642Y-73240000D01*
X184911358Y-73240000D01*
X184873000Y-73247629D01*
X184873000Y-72536000D01*
X184373765Y-72536000D01*
X184124390Y-72575497D01*
X183884282Y-72653513D01*
X183884276Y-72653516D01*
X183659317Y-72768138D01*
X183455061Y-72916539D01*
X183455058Y-72916541D01*
X183276541Y-73095058D01*
X183276539Y-73095061D01*
X183128138Y-73299317D01*
X183013516Y-73524276D01*
X183013513Y-73524282D01*
X182935497Y-73764390D01*
X182896120Y-74013000D01*
X138327586Y-74013000D01*
X138366750Y-73990388D01*
X138410247Y-73965276D01*
X138481276Y-73894247D01*
X138551118Y-73824405D01*
X138613430Y-73790379D01*
X138640213Y-73787500D01*
X146354223Y-73787500D01*
X146354225Y-73787500D01*
X146451254Y-73761501D01*
X146451257Y-73761499D01*
X146451258Y-73761499D01*
X146494750Y-73736388D01*
X146538247Y-73711276D01*
X146609276Y-73640247D01*
X147625276Y-72624247D01*
X147653703Y-72575009D01*
X147675501Y-72537254D01*
X147701500Y-72440225D01*
X147701500Y-65531500D01*
X147721502Y-65463379D01*
X147775158Y-65416886D01*
X147827500Y-65405500D01*
X156295383Y-65405500D01*
X156363504Y-65425502D01*
X156372076Y-65431530D01*
X156448746Y-65490361D01*
X156578624Y-65544158D01*
X156718000Y-65562507D01*
X156857376Y-65544158D01*
X156987254Y-65490361D01*
X157098782Y-65404782D01*
X157184361Y-65293254D01*
X157238158Y-65163376D01*
X157256507Y-65024000D01*
X157238158Y-64884624D01*
X157190677Y-64769995D01*
X159672768Y-64769995D01*
X159672768Y-64770004D01*
X159691654Y-64973819D01*
X159712492Y-65047056D01*
X159747672Y-65170701D01*
X159838912Y-65353935D01*
X159854499Y-65374576D01*
X159962266Y-65517284D01*
X160113536Y-65655185D01*
X160287566Y-65762940D01*
X160287568Y-65762940D01*
X160287573Y-65762944D01*
X160478444Y-65836888D01*
X160679653Y-65874500D01*
X160679655Y-65874500D01*
X160884345Y-65874500D01*
X160884347Y-65874500D01*
X161085556Y-65836888D01*
X161276427Y-65762944D01*
X161450462Y-65655186D01*
X161601732Y-65517285D01*
X161725088Y-65353935D01*
X161816328Y-65170701D01*
X161872345Y-64973821D01*
X161891232Y-64770000D01*
X161889818Y-64754745D01*
X161872411Y-64566888D01*
X161872345Y-64566179D01*
X161816328Y-64369299D01*
X161725088Y-64186065D01*
X161647964Y-64083936D01*
X161601733Y-64022715D01*
X161461560Y-63894930D01*
X162217500Y-63894930D01*
X162217500Y-65645063D01*
X162217501Y-65645073D01*
X162232265Y-65719300D01*
X162288516Y-65803484D01*
X162372697Y-65859733D01*
X162372699Y-65859734D01*
X162446933Y-65874500D01*
X164197066Y-65874499D01*
X164197069Y-65874498D01*
X164197073Y-65874498D01*
X164246326Y-65864701D01*
X164271301Y-65859734D01*
X164355484Y-65803484D01*
X164411734Y-65719301D01*
X164426500Y-65645067D01*
X164426499Y-63894934D01*
X164426498Y-63894930D01*
X164426498Y-63894926D01*
X164411734Y-63820699D01*
X164394989Y-63795639D01*
X164355484Y-63736516D01*
X164355483Y-63736515D01*
X164271302Y-63680266D01*
X164197067Y-63665500D01*
X162446936Y-63665500D01*
X162446926Y-63665501D01*
X162372699Y-63680265D01*
X162288515Y-63736516D01*
X162232266Y-63820697D01*
X162217500Y-63894930D01*
X161461560Y-63894930D01*
X161450463Y-63884814D01*
X161276433Y-63777059D01*
X161276428Y-63777057D01*
X161276427Y-63777056D01*
X161276422Y-63777054D01*
X161085559Y-63703113D01*
X161085560Y-63703113D01*
X161085557Y-63703112D01*
X161085556Y-63703112D01*
X160884347Y-63665500D01*
X160679653Y-63665500D01*
X160478444Y-63703112D01*
X160478439Y-63703113D01*
X160287577Y-63777054D01*
X160287566Y-63777059D01*
X160113536Y-63884814D01*
X159962266Y-64022715D01*
X159838913Y-64186063D01*
X159747671Y-64369301D01*
X159691654Y-64566180D01*
X159672768Y-64769995D01*
X157190677Y-64769995D01*
X157184361Y-64754747D01*
X157098782Y-64643218D01*
X157098780Y-64643216D01*
X157098779Y-64643215D01*
X156987260Y-64557643D01*
X156987252Y-64557638D01*
X156857374Y-64503841D01*
X156718000Y-64485493D01*
X156578625Y-64503841D01*
X156448748Y-64557638D01*
X156448745Y-64557640D01*
X156372086Y-64616463D01*
X156305865Y-64642063D01*
X156295382Y-64642500D01*
X147928853Y-64642500D01*
X147860732Y-64622498D01*
X147814239Y-64568842D01*
X147804135Y-64498568D01*
X147812442Y-64468287D01*
X147840158Y-64401376D01*
X147858507Y-64262000D01*
X147840158Y-64122624D01*
X147786361Y-63992747D01*
X147700782Y-63881218D01*
X147700780Y-63881216D01*
X147700779Y-63881215D01*
X147589260Y-63795643D01*
X147589252Y-63795638D01*
X147459374Y-63741841D01*
X147320000Y-63723493D01*
X147180625Y-63741841D01*
X147050748Y-63795638D01*
X147050745Y-63795640D01*
X146939218Y-63881218D01*
X146853640Y-63992745D01*
X146853638Y-63992748D01*
X146799841Y-64122625D01*
X146781493Y-64261999D01*
X146781493Y-64262000D01*
X146799841Y-64401374D01*
X146842285Y-64503842D01*
X146853639Y-64531254D01*
X146912462Y-64607913D01*
X146938063Y-64674132D01*
X146938500Y-64684617D01*
X146938500Y-72179787D01*
X146918498Y-72247908D01*
X146901595Y-72268882D01*
X146182882Y-72987595D01*
X146120570Y-73021621D01*
X146093787Y-73024500D01*
X138379775Y-73024500D01*
X138320390Y-73040412D01*
X138282741Y-73050500D01*
X138195756Y-73100721D01*
X138195753Y-73100724D01*
X138054880Y-73241596D01*
X137992571Y-73275620D01*
X137965787Y-73278500D01*
X123146213Y-73278500D01*
X123078092Y-73258498D01*
X123057118Y-73241595D01*
X122338405Y-72522882D01*
X122304379Y-72460570D01*
X122301500Y-72433787D01*
X122301500Y-72350499D01*
X122321502Y-72282378D01*
X122375158Y-72235885D01*
X122427500Y-72224499D01*
X122795064Y-72224499D01*
X122795066Y-72224499D01*
X122795069Y-72224498D01*
X122795072Y-72224498D01*
X122831663Y-72217219D01*
X122869301Y-72209734D01*
X122953484Y-72153484D01*
X123009734Y-72069301D01*
X123024500Y-71995067D01*
X123024499Y-71119995D01*
X123350768Y-71119995D01*
X123350768Y-71120004D01*
X123369654Y-71323819D01*
X123421202Y-71504991D01*
X123425672Y-71520701D01*
X123516912Y-71703935D01*
X123516913Y-71703936D01*
X123640266Y-71867284D01*
X123791536Y-72005185D01*
X123965566Y-72112940D01*
X123965568Y-72112940D01*
X123965573Y-72112944D01*
X124156444Y-72186888D01*
X124357653Y-72224500D01*
X124357655Y-72224500D01*
X124562345Y-72224500D01*
X124562347Y-72224500D01*
X124763556Y-72186888D01*
X124954427Y-72112944D01*
X125128462Y-72005186D01*
X125279732Y-71867285D01*
X125403088Y-71703935D01*
X125494328Y-71520701D01*
X125550345Y-71323821D01*
X125557417Y-71247500D01*
X125569232Y-71120004D01*
X125569232Y-71119995D01*
X125890768Y-71119995D01*
X125890768Y-71120004D01*
X125909654Y-71323819D01*
X125961202Y-71504991D01*
X125965672Y-71520701D01*
X126056912Y-71703935D01*
X126056913Y-71703936D01*
X126180266Y-71867284D01*
X126331536Y-72005185D01*
X126505566Y-72112940D01*
X126505568Y-72112940D01*
X126505573Y-72112944D01*
X126696444Y-72186888D01*
X126897653Y-72224500D01*
X126897655Y-72224500D01*
X127102345Y-72224500D01*
X127102347Y-72224500D01*
X127303556Y-72186888D01*
X127494427Y-72112944D01*
X127668462Y-72005186D01*
X127819732Y-71867285D01*
X127943088Y-71703935D01*
X128034328Y-71520701D01*
X128090345Y-71323821D01*
X128097417Y-71247500D01*
X128109232Y-71120004D01*
X128109232Y-71119995D01*
X128097464Y-70992998D01*
X128443037Y-70992998D01*
X128443038Y-70993000D01*
X129056392Y-70993000D01*
X129040000Y-71054174D01*
X129040000Y-71185826D01*
X129056392Y-71247000D01*
X128443038Y-71247000D01*
X128443037Y-71247001D01*
X128450147Y-71323725D01*
X128506138Y-71520514D01*
X128506140Y-71520519D01*
X128597340Y-71703672D01*
X128720637Y-71866946D01*
X128871838Y-72004784D01*
X129045796Y-72112493D01*
X129045803Y-72112496D01*
X129236578Y-72186403D01*
X129236576Y-72186403D01*
X129413000Y-72219381D01*
X129413000Y-71603608D01*
X129474174Y-71620000D01*
X129605826Y-71620000D01*
X129667000Y-71603608D01*
X129667000Y-72219381D01*
X129843422Y-72186403D01*
X130034196Y-72112496D01*
X130034203Y-72112493D01*
X130208161Y-72004784D01*
X130359362Y-71866946D01*
X130482659Y-71703672D01*
X130573859Y-71520519D01*
X130573861Y-71520514D01*
X130629852Y-71323725D01*
X130636962Y-71247001D01*
X130636962Y-71247000D01*
X130023608Y-71247000D01*
X130040000Y-71185826D01*
X130040000Y-71054174D01*
X130023608Y-70993000D01*
X130636962Y-70993000D01*
X130636962Y-70992998D01*
X130629852Y-70916274D01*
X130573861Y-70719485D01*
X130573859Y-70719480D01*
X130482659Y-70536327D01*
X130359362Y-70373053D01*
X130218818Y-70244930D01*
X136055500Y-70244930D01*
X136055500Y-71995063D01*
X136055501Y-71995073D01*
X136070265Y-72069300D01*
X136126516Y-72153484D01*
X136210697Y-72209733D01*
X136210699Y-72209734D01*
X136284933Y-72224500D01*
X138035066Y-72224499D01*
X138035069Y-72224498D01*
X138035073Y-72224498D01*
X138084326Y-72214701D01*
X138109301Y-72209734D01*
X138193484Y-72153484D01*
X138249734Y-72069301D01*
X138264500Y-71995067D01*
X138264499Y-71119995D01*
X138590768Y-71119995D01*
X138590768Y-71120004D01*
X138609654Y-71323819D01*
X138661202Y-71504991D01*
X138665672Y-71520701D01*
X138756912Y-71703935D01*
X138756913Y-71703936D01*
X138880266Y-71867284D01*
X139031536Y-72005185D01*
X139205566Y-72112940D01*
X139205568Y-72112940D01*
X139205573Y-72112944D01*
X139396444Y-72186888D01*
X139597653Y-72224500D01*
X139597655Y-72224500D01*
X139802345Y-72224500D01*
X139802347Y-72224500D01*
X140003556Y-72186888D01*
X140194427Y-72112944D01*
X140368462Y-72005186D01*
X140519732Y-71867285D01*
X140643088Y-71703935D01*
X140734328Y-71520701D01*
X140790345Y-71323821D01*
X140797417Y-71247500D01*
X140809232Y-71120004D01*
X140809232Y-71119995D01*
X141130768Y-71119995D01*
X141130768Y-71120004D01*
X141149654Y-71323819D01*
X141201202Y-71504991D01*
X141205672Y-71520701D01*
X141296912Y-71703935D01*
X141296913Y-71703936D01*
X141420266Y-71867284D01*
X141571536Y-72005185D01*
X141745566Y-72112940D01*
X141745568Y-72112940D01*
X141745573Y-72112944D01*
X141936444Y-72186888D01*
X142137653Y-72224500D01*
X142137655Y-72224500D01*
X142342345Y-72224500D01*
X142342347Y-72224500D01*
X142543556Y-72186888D01*
X142734427Y-72112944D01*
X142908462Y-72005186D01*
X143059732Y-71867285D01*
X143183088Y-71703935D01*
X143274328Y-71520701D01*
X143330345Y-71323821D01*
X143337417Y-71247500D01*
X143349232Y-71120004D01*
X143349232Y-71119995D01*
X143337464Y-70992998D01*
X143683037Y-70992998D01*
X143683038Y-70993000D01*
X144296392Y-70993000D01*
X144280000Y-71054174D01*
X144280000Y-71185826D01*
X144296392Y-71247000D01*
X143683038Y-71247000D01*
X143683037Y-71247001D01*
X143690147Y-71323725D01*
X143746138Y-71520514D01*
X143746140Y-71520519D01*
X143837340Y-71703672D01*
X143960637Y-71866946D01*
X144111838Y-72004784D01*
X144285796Y-72112493D01*
X144285803Y-72112496D01*
X144476578Y-72186403D01*
X144476576Y-72186403D01*
X144653000Y-72219381D01*
X144653000Y-71603608D01*
X144714174Y-71620000D01*
X144845826Y-71620000D01*
X144907000Y-71603608D01*
X144907000Y-72219381D01*
X145083422Y-72186403D01*
X145274196Y-72112496D01*
X145274203Y-72112493D01*
X145448161Y-72004784D01*
X145599362Y-71866946D01*
X145722659Y-71703672D01*
X145813859Y-71520519D01*
X145813861Y-71520514D01*
X145869852Y-71323725D01*
X145876962Y-71247001D01*
X145876962Y-71247000D01*
X145263608Y-71247000D01*
X145280000Y-71185826D01*
X145280000Y-71054174D01*
X145263608Y-70993000D01*
X145876962Y-70993000D01*
X145876962Y-70992998D01*
X145869852Y-70916274D01*
X145813861Y-70719485D01*
X145813859Y-70719480D01*
X145722659Y-70536327D01*
X145599362Y-70373053D01*
X145448161Y-70235215D01*
X145274203Y-70127506D01*
X145274196Y-70127503D01*
X145083422Y-70053596D01*
X145083424Y-70053596D01*
X144907000Y-70020617D01*
X144907000Y-70636391D01*
X144845826Y-70620000D01*
X144714174Y-70620000D01*
X144653000Y-70636391D01*
X144653000Y-70020617D01*
X144476576Y-70053596D01*
X144285803Y-70127503D01*
X144285796Y-70127506D01*
X144111838Y-70235215D01*
X143960637Y-70373053D01*
X143837340Y-70536327D01*
X143746140Y-70719480D01*
X143746138Y-70719485D01*
X143690147Y-70916274D01*
X143683037Y-70992998D01*
X143337464Y-70992998D01*
X143330345Y-70916180D01*
X143316068Y-70866000D01*
X143274328Y-70719299D01*
X143183088Y-70536065D01*
X143080066Y-70399641D01*
X143059733Y-70372715D01*
X142908463Y-70234814D01*
X142734433Y-70127059D01*
X142734428Y-70127057D01*
X142734427Y-70127056D01*
X142734422Y-70127054D01*
X142543559Y-70053113D01*
X142543560Y-70053113D01*
X142543557Y-70053112D01*
X142543556Y-70053112D01*
X142342347Y-70015500D01*
X142137653Y-70015500D01*
X141936444Y-70053112D01*
X141936439Y-70053113D01*
X141745577Y-70127054D01*
X141745566Y-70127059D01*
X141571536Y-70234814D01*
X141420266Y-70372715D01*
X141296913Y-70536063D01*
X141205671Y-70719301D01*
X141149654Y-70916180D01*
X141130768Y-71119995D01*
X140809232Y-71119995D01*
X140790345Y-70916180D01*
X140776068Y-70866000D01*
X140734328Y-70719299D01*
X140643088Y-70536065D01*
X140540066Y-70399641D01*
X140519733Y-70372715D01*
X140368463Y-70234814D01*
X140194433Y-70127059D01*
X140194428Y-70127057D01*
X140194427Y-70127056D01*
X140194422Y-70127054D01*
X140003559Y-70053113D01*
X140003560Y-70053113D01*
X140003557Y-70053112D01*
X140003556Y-70053112D01*
X139802347Y-70015500D01*
X139597653Y-70015500D01*
X139396444Y-70053112D01*
X139396439Y-70053113D01*
X139205577Y-70127054D01*
X139205566Y-70127059D01*
X139031536Y-70234814D01*
X138880266Y-70372715D01*
X138756913Y-70536063D01*
X138665671Y-70719301D01*
X138609654Y-70916180D01*
X138590768Y-71119995D01*
X138264499Y-71119995D01*
X138264499Y-70244934D01*
X138264498Y-70244930D01*
X138264498Y-70244926D01*
X138249734Y-70170699D01*
X138193483Y-70086515D01*
X138109302Y-70030266D01*
X138035067Y-70015500D01*
X136284936Y-70015500D01*
X136284926Y-70015501D01*
X136210699Y-70030265D01*
X136126515Y-70086516D01*
X136070266Y-70170697D01*
X136055500Y-70244930D01*
X130218818Y-70244930D01*
X130208161Y-70235215D01*
X130034203Y-70127506D01*
X130034196Y-70127503D01*
X129843422Y-70053596D01*
X129843424Y-70053596D01*
X129667000Y-70020617D01*
X129667000Y-70636391D01*
X129605826Y-70620000D01*
X129474174Y-70620000D01*
X129413000Y-70636391D01*
X129413000Y-70020617D01*
X129236576Y-70053596D01*
X129045803Y-70127503D01*
X129045796Y-70127506D01*
X128871838Y-70235215D01*
X128720637Y-70373053D01*
X128597340Y-70536327D01*
X128506140Y-70719480D01*
X128506138Y-70719485D01*
X128450147Y-70916274D01*
X128443037Y-70992998D01*
X128097464Y-70992998D01*
X128090345Y-70916180D01*
X128076068Y-70866000D01*
X128034328Y-70719299D01*
X127943088Y-70536065D01*
X127840066Y-70399641D01*
X127819733Y-70372715D01*
X127668463Y-70234814D01*
X127494433Y-70127059D01*
X127494428Y-70127057D01*
X127494427Y-70127056D01*
X127494422Y-70127054D01*
X127303559Y-70053113D01*
X127303560Y-70053113D01*
X127303557Y-70053112D01*
X127303556Y-70053112D01*
X127102347Y-70015500D01*
X126897653Y-70015500D01*
X126696444Y-70053112D01*
X126696439Y-70053113D01*
X126505577Y-70127054D01*
X126505566Y-70127059D01*
X126331536Y-70234814D01*
X126180266Y-70372715D01*
X126056913Y-70536063D01*
X125965671Y-70719301D01*
X125909654Y-70916180D01*
X125890768Y-71119995D01*
X125569232Y-71119995D01*
X125550345Y-70916180D01*
X125536068Y-70866000D01*
X125494328Y-70719299D01*
X125403088Y-70536065D01*
X125300066Y-70399641D01*
X125279733Y-70372715D01*
X125128463Y-70234814D01*
X124954433Y-70127059D01*
X124954428Y-70127057D01*
X124954427Y-70127056D01*
X124954422Y-70127054D01*
X124763559Y-70053113D01*
X124763560Y-70053113D01*
X124763557Y-70053112D01*
X124763556Y-70053112D01*
X124562347Y-70015500D01*
X124357653Y-70015500D01*
X124156444Y-70053112D01*
X124156439Y-70053113D01*
X123965577Y-70127054D01*
X123965566Y-70127059D01*
X123791536Y-70234814D01*
X123640266Y-70372715D01*
X123516913Y-70536063D01*
X123425671Y-70719301D01*
X123369654Y-70916180D01*
X123350768Y-71119995D01*
X123024499Y-71119995D01*
X123024499Y-70244934D01*
X123024498Y-70244930D01*
X123024498Y-70244926D01*
X123009734Y-70170699D01*
X122953483Y-70086515D01*
X122869302Y-70030266D01*
X122795067Y-70015500D01*
X121044936Y-70015500D01*
X121044926Y-70015501D01*
X120970699Y-70030265D01*
X120886515Y-70086516D01*
X120830266Y-70170697D01*
X120815500Y-70244930D01*
X114134498Y-70244930D01*
X114134498Y-70244926D01*
X114119734Y-70170699D01*
X114063483Y-70086515D01*
X113979302Y-70030266D01*
X113905067Y-70015500D01*
X112154936Y-70015500D01*
X112154926Y-70015501D01*
X112080699Y-70030265D01*
X111996515Y-70086516D01*
X111940266Y-70170697D01*
X111925500Y-70244930D01*
X110490000Y-70244930D01*
X110490000Y-68579995D01*
X111920768Y-68579995D01*
X111920768Y-68580004D01*
X111939654Y-68783819D01*
X111991740Y-68966882D01*
X111995672Y-68980701D01*
X112086912Y-69163935D01*
X112086913Y-69163936D01*
X112210266Y-69327284D01*
X112361536Y-69465185D01*
X112535566Y-69572940D01*
X112535568Y-69572940D01*
X112535573Y-69572944D01*
X112726444Y-69646888D01*
X112927653Y-69684500D01*
X112927655Y-69684500D01*
X113132345Y-69684500D01*
X113132347Y-69684500D01*
X113333556Y-69646888D01*
X113524427Y-69572944D01*
X113698462Y-69465186D01*
X113849732Y-69327285D01*
X113973088Y-69163935D01*
X114064328Y-68980701D01*
X114120345Y-68783821D01*
X114139232Y-68580000D01*
X114138093Y-68567711D01*
X114120345Y-68376180D01*
X114108771Y-68335500D01*
X114064328Y-68179299D01*
X113973088Y-67996065D01*
X113932538Y-67942368D01*
X113849733Y-67832715D01*
X113698463Y-67694814D01*
X113524433Y-67587059D01*
X113524428Y-67587057D01*
X113524427Y-67587056D01*
X113333559Y-67513113D01*
X113333560Y-67513113D01*
X113333557Y-67513112D01*
X113333556Y-67513112D01*
X113132347Y-67475500D01*
X112927653Y-67475500D01*
X112726444Y-67513112D01*
X112726439Y-67513113D01*
X112535577Y-67587054D01*
X112535566Y-67587059D01*
X112361536Y-67694814D01*
X112210266Y-67832715D01*
X112086913Y-67996063D01*
X111995671Y-68179301D01*
X111939654Y-68376180D01*
X111920768Y-68579995D01*
X110490000Y-68579995D01*
X110490000Y-66039995D01*
X111920768Y-66039995D01*
X111920768Y-66040004D01*
X111939654Y-66243819D01*
X111971548Y-66355914D01*
X111995672Y-66440701D01*
X112086912Y-66623935D01*
X112086913Y-66623936D01*
X112210266Y-66787284D01*
X112361536Y-66925185D01*
X112535566Y-67032940D01*
X112535568Y-67032940D01*
X112535573Y-67032944D01*
X112726444Y-67106888D01*
X112927653Y-67144500D01*
X112927655Y-67144500D01*
X113132345Y-67144500D01*
X113132347Y-67144500D01*
X113333556Y-67106888D01*
X113524427Y-67032944D01*
X113698462Y-66925186D01*
X113849732Y-66787285D01*
X113851261Y-66785261D01*
X113870006Y-66760436D01*
X113973088Y-66623935D01*
X114064328Y-66440701D01*
X114120345Y-66243821D01*
X114132215Y-66115725D01*
X114139232Y-66040004D01*
X114139232Y-66039995D01*
X114120411Y-65836888D01*
X114120345Y-65836179D01*
X114064328Y-65639299D01*
X113973088Y-65456065D01*
X113932538Y-65402368D01*
X113849733Y-65292715D01*
X113698463Y-65154814D01*
X113524433Y-65047059D01*
X113524428Y-65047057D01*
X113524427Y-65047056D01*
X113464910Y-65023999D01*
X113333559Y-64973113D01*
X113333560Y-64973113D01*
X113333557Y-64973112D01*
X113333556Y-64973112D01*
X113132347Y-64935500D01*
X112927653Y-64935500D01*
X112726444Y-64973112D01*
X112726439Y-64973113D01*
X112535577Y-65047054D01*
X112535566Y-65047059D01*
X112361536Y-65154814D01*
X112210266Y-65292715D01*
X112086913Y-65456063D01*
X111995671Y-65639301D01*
X111939654Y-65836180D01*
X111920768Y-66039995D01*
X110490000Y-66039995D01*
X110490000Y-63499995D01*
X111920768Y-63499995D01*
X111920768Y-63500004D01*
X111939654Y-63703819D01*
X111991152Y-63884814D01*
X111995672Y-63900701D01*
X112086912Y-64083935D01*
X112086913Y-64083936D01*
X112210266Y-64247284D01*
X112361536Y-64385185D01*
X112535566Y-64492940D01*
X112535568Y-64492940D01*
X112535573Y-64492944D01*
X112726444Y-64566888D01*
X112927653Y-64604500D01*
X112927655Y-64604500D01*
X113132345Y-64604500D01*
X113132347Y-64604500D01*
X113333556Y-64566888D01*
X113524427Y-64492944D01*
X113698462Y-64385186D01*
X113849732Y-64247285D01*
X113973088Y-64083935D01*
X114064328Y-63900701D01*
X114120345Y-63703821D01*
X114126640Y-63635880D01*
X114139232Y-63500004D01*
X114139232Y-63499995D01*
X114120345Y-63296180D01*
X114106210Y-63246500D01*
X114064328Y-63099299D01*
X113973088Y-62916065D01*
X113932538Y-62862368D01*
X113849733Y-62752715D01*
X113698463Y-62614814D01*
X113524433Y-62507059D01*
X113524428Y-62507057D01*
X113524427Y-62507056D01*
X113333559Y-62433113D01*
X113333560Y-62433113D01*
X113333557Y-62433112D01*
X113333556Y-62433112D01*
X113132347Y-62395500D01*
X112927653Y-62395500D01*
X112726444Y-62433112D01*
X112726439Y-62433113D01*
X112535577Y-62507054D01*
X112535566Y-62507059D01*
X112361536Y-62614814D01*
X112210266Y-62752715D01*
X112086913Y-62916063D01*
X111995671Y-63099301D01*
X111939654Y-63296180D01*
X111920768Y-63499995D01*
X110490000Y-63499995D01*
X110490000Y-61645223D01*
X120268499Y-61645223D01*
X120294498Y-61742251D01*
X120294501Y-61742258D01*
X120327997Y-61800274D01*
X120327998Y-61800276D01*
X120344723Y-61829245D01*
X120344727Y-61829251D01*
X121614724Y-63099247D01*
X121685753Y-63170276D01*
X121685754Y-63170277D01*
X121685756Y-63170278D01*
X121772741Y-63220499D01*
X121772743Y-63220499D01*
X121772746Y-63220501D01*
X121869775Y-63246500D01*
X121869777Y-63246500D01*
X153085223Y-63246500D01*
X153085225Y-63246500D01*
X153182254Y-63220501D01*
X153182257Y-63220499D01*
X153182258Y-63220499D01*
X153225750Y-63195388D01*
X153269247Y-63170276D01*
X153340276Y-63099247D01*
X153357996Y-63081527D01*
X153357998Y-63081523D01*
X156957074Y-59482446D01*
X157019384Y-59448422D01*
X157090199Y-59453487D01*
X157091684Y-59454052D01*
X157176439Y-59486886D01*
X157176440Y-59486886D01*
X157176444Y-59486888D01*
X157377653Y-59524500D01*
X157377655Y-59524500D01*
X157582345Y-59524500D01*
X157582347Y-59524500D01*
X157783556Y-59486888D01*
X157974427Y-59412944D01*
X158148462Y-59305186D01*
X158299732Y-59167285D01*
X158423088Y-59003935D01*
X158514328Y-58820701D01*
X158570345Y-58623821D01*
X158576640Y-58555880D01*
X158589232Y-58420004D01*
X158589232Y-58419995D01*
X158910768Y-58419995D01*
X158910768Y-58420004D01*
X158929654Y-58623819D01*
X158959014Y-58727007D01*
X158985672Y-58820701D01*
X159076912Y-59003935D01*
X159076913Y-59003936D01*
X159200266Y-59167284D01*
X159351536Y-59305185D01*
X159525566Y-59412940D01*
X159525568Y-59412940D01*
X159525573Y-59412944D01*
X159716444Y-59486888D01*
X159917653Y-59524500D01*
X159917655Y-59524500D01*
X160122345Y-59524500D01*
X160122347Y-59524500D01*
X160323556Y-59486888D01*
X160514427Y-59412944D01*
X160688462Y-59305186D01*
X160839732Y-59167285D01*
X160963088Y-59003935D01*
X161054328Y-58820701D01*
X161110345Y-58623821D01*
X161116640Y-58555880D01*
X161129232Y-58420004D01*
X161129232Y-58419995D01*
X161450768Y-58419995D01*
X161450768Y-58420004D01*
X161469654Y-58623819D01*
X161499014Y-58727007D01*
X161525672Y-58820701D01*
X161616912Y-59003935D01*
X161616913Y-59003936D01*
X161740266Y-59167284D01*
X161891536Y-59305185D01*
X162065566Y-59412940D01*
X162065568Y-59412940D01*
X162065573Y-59412944D01*
X162256444Y-59486888D01*
X162457653Y-59524500D01*
X162457655Y-59524500D01*
X162662345Y-59524500D01*
X162662347Y-59524500D01*
X162863556Y-59486888D01*
X163054427Y-59412944D01*
X163228462Y-59305186D01*
X163379732Y-59167285D01*
X163503088Y-59003935D01*
X163594328Y-58820701D01*
X163650345Y-58623821D01*
X163656640Y-58555880D01*
X163669232Y-58420004D01*
X163669232Y-58419995D01*
X163990768Y-58419995D01*
X163990768Y-58420004D01*
X164009654Y-58623819D01*
X164039014Y-58727007D01*
X164065672Y-58820701D01*
X164156912Y-59003935D01*
X164156913Y-59003936D01*
X164280266Y-59167284D01*
X164431536Y-59305185D01*
X164605566Y-59412940D01*
X164605568Y-59412940D01*
X164605573Y-59412944D01*
X164796444Y-59486888D01*
X164997653Y-59524500D01*
X164997655Y-59524500D01*
X165202345Y-59524500D01*
X165202347Y-59524500D01*
X165403556Y-59486888D01*
X165594427Y-59412944D01*
X165768462Y-59305186D01*
X165919732Y-59167285D01*
X166043088Y-59003935D01*
X166134328Y-58820701D01*
X166190345Y-58623821D01*
X166196640Y-58555880D01*
X166209232Y-58420004D01*
X166209232Y-58419995D01*
X166190345Y-58216180D01*
X166190345Y-58216179D01*
X166134328Y-58019299D01*
X166043088Y-57836065D01*
X165952209Y-57715721D01*
X165919733Y-57672715D01*
X165768463Y-57534814D01*
X165594433Y-57427059D01*
X165594428Y-57427057D01*
X165594427Y-57427056D01*
X165554554Y-57411609D01*
X165403559Y-57353113D01*
X165403560Y-57353113D01*
X165403557Y-57353112D01*
X165403556Y-57353112D01*
X165202347Y-57315500D01*
X164997653Y-57315500D01*
X164796444Y-57353112D01*
X164796439Y-57353113D01*
X164605577Y-57427054D01*
X164605566Y-57427059D01*
X164431536Y-57534814D01*
X164280266Y-57672715D01*
X164156913Y-57836063D01*
X164065671Y-58019301D01*
X164009654Y-58216180D01*
X163990768Y-58419995D01*
X163669232Y-58419995D01*
X163650345Y-58216180D01*
X163650345Y-58216179D01*
X163594328Y-58019299D01*
X163503088Y-57836065D01*
X163412209Y-57715721D01*
X163379733Y-57672715D01*
X163228463Y-57534814D01*
X163054433Y-57427059D01*
X163054428Y-57427057D01*
X163054427Y-57427056D01*
X163014554Y-57411609D01*
X162863559Y-57353113D01*
X162863560Y-57353113D01*
X162863557Y-57353112D01*
X162863556Y-57353112D01*
X162662347Y-57315500D01*
X162457653Y-57315500D01*
X162256444Y-57353112D01*
X162256439Y-57353113D01*
X162065577Y-57427054D01*
X162065566Y-57427059D01*
X161891536Y-57534814D01*
X161740266Y-57672715D01*
X161616913Y-57836063D01*
X161525671Y-58019301D01*
X161469654Y-58216180D01*
X161450768Y-58419995D01*
X161129232Y-58419995D01*
X161110345Y-58216180D01*
X161110345Y-58216179D01*
X161054328Y-58019299D01*
X160963088Y-57836065D01*
X160872209Y-57715721D01*
X160839733Y-57672715D01*
X160688463Y-57534814D01*
X160514433Y-57427059D01*
X160514428Y-57427057D01*
X160514427Y-57427056D01*
X160474554Y-57411609D01*
X160323559Y-57353113D01*
X160323560Y-57353113D01*
X160323557Y-57353112D01*
X160323556Y-57353112D01*
X160122347Y-57315500D01*
X159917653Y-57315500D01*
X159716444Y-57353112D01*
X159716439Y-57353113D01*
X159525577Y-57427054D01*
X159525566Y-57427059D01*
X159351536Y-57534814D01*
X159200266Y-57672715D01*
X159076913Y-57836063D01*
X158985671Y-58019301D01*
X158929654Y-58216180D01*
X158910768Y-58419995D01*
X158589232Y-58419995D01*
X158570345Y-58216180D01*
X158570345Y-58216179D01*
X158514328Y-58019299D01*
X158423088Y-57836065D01*
X158332209Y-57715721D01*
X158299733Y-57672715D01*
X158148463Y-57534814D01*
X157974433Y-57427059D01*
X157974428Y-57427057D01*
X157974427Y-57427056D01*
X157934554Y-57411609D01*
X157783559Y-57353113D01*
X157783560Y-57353113D01*
X157783557Y-57353112D01*
X157783556Y-57353112D01*
X157582347Y-57315500D01*
X157377653Y-57315500D01*
X157176444Y-57353112D01*
X157176439Y-57353113D01*
X156985577Y-57427054D01*
X156985566Y-57427059D01*
X156811536Y-57534814D01*
X156660266Y-57672715D01*
X156536913Y-57836063D01*
X156445671Y-58019301D01*
X156389654Y-58216180D01*
X156370768Y-58419995D01*
X156370768Y-58420004D01*
X156389654Y-58623819D01*
X156446252Y-58822743D01*
X156445655Y-58893737D01*
X156414157Y-58946319D01*
X152913882Y-62446595D01*
X152851570Y-62480621D01*
X152824787Y-62483500D01*
X152438632Y-62483500D01*
X152370511Y-62463498D01*
X152324018Y-62409842D01*
X152313914Y-62339568D01*
X152343408Y-62274988D01*
X152349537Y-62268405D01*
X153001825Y-61616117D01*
X155077600Y-59540340D01*
X155139910Y-59506317D01*
X155143481Y-59505594D01*
X155243556Y-59486888D01*
X155434427Y-59412944D01*
X155608462Y-59305186D01*
X155759732Y-59167285D01*
X155883088Y-59003935D01*
X155974328Y-58820701D01*
X156030345Y-58623821D01*
X156036640Y-58555880D01*
X156049232Y-58420004D01*
X156049232Y-58419995D01*
X156030345Y-58216180D01*
X156030345Y-58216179D01*
X155974328Y-58019299D01*
X155883088Y-57836065D01*
X155792209Y-57715721D01*
X155759733Y-57672715D01*
X155608463Y-57534814D01*
X155434433Y-57427059D01*
X155434428Y-57427057D01*
X155434427Y-57427056D01*
X155394554Y-57411609D01*
X155243559Y-57353113D01*
X155243560Y-57353113D01*
X155243557Y-57353112D01*
X155243556Y-57353112D01*
X155042347Y-57315500D01*
X154837653Y-57315500D01*
X154636444Y-57353112D01*
X154636439Y-57353113D01*
X154445577Y-57427054D01*
X154445566Y-57427059D01*
X154271536Y-57534814D01*
X154120266Y-57672715D01*
X153996913Y-57836063D01*
X153905671Y-58019301D01*
X153849654Y-58216180D01*
X153830768Y-58419995D01*
X153830768Y-58420004D01*
X153849654Y-58623819D01*
X153879014Y-58727007D01*
X153905672Y-58820701D01*
X153996912Y-59003935D01*
X153996913Y-59003936D01*
X154120268Y-59167286D01*
X154154229Y-59198245D01*
X154191097Y-59258919D01*
X154189309Y-59329893D01*
X154158440Y-59380456D01*
X152996595Y-60542302D01*
X152934283Y-60576327D01*
X152863468Y-60571263D01*
X152806632Y-60528716D01*
X152781821Y-60462196D01*
X152781500Y-60453207D01*
X152781500Y-59543004D01*
X152801502Y-59474883D01*
X152855158Y-59428390D01*
X152861983Y-59425513D01*
X152866998Y-59423569D01*
X152894427Y-59412944D01*
X153068462Y-59305186D01*
X153219732Y-59167285D01*
X153343088Y-59003935D01*
X153434328Y-58820701D01*
X153490345Y-58623821D01*
X153496640Y-58555880D01*
X153509232Y-58420004D01*
X153509232Y-58419995D01*
X153490345Y-58216180D01*
X153490345Y-58216179D01*
X153434328Y-58019299D01*
X153343088Y-57836065D01*
X153252209Y-57715721D01*
X153219733Y-57672715D01*
X153068463Y-57534814D01*
X152894433Y-57427059D01*
X152894428Y-57427057D01*
X152894427Y-57427056D01*
X152854554Y-57411609D01*
X152703559Y-57353113D01*
X152703560Y-57353113D01*
X152703557Y-57353112D01*
X152703556Y-57353112D01*
X152502347Y-57315500D01*
X152297653Y-57315500D01*
X152096444Y-57353112D01*
X152096439Y-57353113D01*
X151905577Y-57427054D01*
X151905566Y-57427059D01*
X151731536Y-57534814D01*
X151580266Y-57672715D01*
X151456913Y-57836063D01*
X151365671Y-58019301D01*
X151309654Y-58216180D01*
X151290768Y-58419995D01*
X151290768Y-58420004D01*
X151309654Y-58623819D01*
X151339014Y-58727007D01*
X151365672Y-58820701D01*
X151456912Y-59003935D01*
X151456913Y-59003936D01*
X151580266Y-59167284D01*
X151731536Y-59305185D01*
X151905566Y-59412940D01*
X151905568Y-59412940D01*
X151905573Y-59412944D01*
X151930306Y-59422525D01*
X151938017Y-59425513D01*
X151994312Y-59468772D01*
X152018282Y-59535600D01*
X152018500Y-59543004D01*
X152018500Y-60749787D01*
X151998498Y-60817908D01*
X151981595Y-60838882D01*
X151643882Y-61176595D01*
X151581570Y-61210621D01*
X151554787Y-61213500D01*
X122765213Y-61213500D01*
X122697092Y-61193498D01*
X122676118Y-61176595D01*
X122338405Y-60838882D01*
X122304379Y-60776570D01*
X122301500Y-60749787D01*
X122301500Y-57544930D01*
X125895500Y-57544930D01*
X125895500Y-59295063D01*
X125895501Y-59295073D01*
X125910265Y-59369300D01*
X125966516Y-59453484D01*
X126050697Y-59509733D01*
X126050699Y-59509734D01*
X126124933Y-59524500D01*
X127875066Y-59524499D01*
X127875069Y-59524498D01*
X127875073Y-59524498D01*
X127934127Y-59512752D01*
X127949301Y-59509734D01*
X128033484Y-59453484D01*
X128089734Y-59369301D01*
X128104500Y-59295067D01*
X128104499Y-58419995D01*
X128430768Y-58419995D01*
X128430768Y-58420004D01*
X128449654Y-58623819D01*
X128479014Y-58727007D01*
X128505672Y-58820701D01*
X128596912Y-59003935D01*
X128596913Y-59003936D01*
X128720266Y-59167284D01*
X128871536Y-59305185D01*
X129045566Y-59412940D01*
X129045568Y-59412940D01*
X129045573Y-59412944D01*
X129236444Y-59486888D01*
X129437653Y-59524500D01*
X129437655Y-59524500D01*
X129642345Y-59524500D01*
X129642347Y-59524500D01*
X129843556Y-59486888D01*
X130034427Y-59412944D01*
X130208462Y-59305186D01*
X130359732Y-59167285D01*
X130483088Y-59003935D01*
X130574328Y-58820701D01*
X130630345Y-58623821D01*
X130636640Y-58555880D01*
X130649232Y-58420004D01*
X130649232Y-58419995D01*
X130970768Y-58419995D01*
X130970768Y-58420004D01*
X130989654Y-58623819D01*
X131019014Y-58727007D01*
X131045672Y-58820701D01*
X131136912Y-59003935D01*
X131136913Y-59003936D01*
X131260266Y-59167284D01*
X131411536Y-59305185D01*
X131585566Y-59412940D01*
X131585568Y-59412940D01*
X131585573Y-59412944D01*
X131776444Y-59486888D01*
X131977653Y-59524500D01*
X131977655Y-59524500D01*
X132182345Y-59524500D01*
X132182347Y-59524500D01*
X132383556Y-59486888D01*
X132574427Y-59412944D01*
X132748462Y-59305186D01*
X132899732Y-59167285D01*
X133023088Y-59003935D01*
X133114328Y-58820701D01*
X133170345Y-58623821D01*
X133176640Y-58555880D01*
X133189232Y-58420004D01*
X133189232Y-58419995D01*
X133177464Y-58292998D01*
X133523037Y-58292998D01*
X133523038Y-58293000D01*
X134136392Y-58293000D01*
X134120000Y-58354174D01*
X134120000Y-58485826D01*
X134136392Y-58547000D01*
X133523038Y-58547000D01*
X133523037Y-58547001D01*
X133530147Y-58623725D01*
X133586138Y-58820514D01*
X133586140Y-58820519D01*
X133677340Y-59003672D01*
X133800637Y-59166946D01*
X133951838Y-59304784D01*
X134125796Y-59412493D01*
X134125803Y-59412496D01*
X134316578Y-59486403D01*
X134316576Y-59486403D01*
X134493000Y-59519381D01*
X134493000Y-58903608D01*
X134554174Y-58920000D01*
X134685826Y-58920000D01*
X134747000Y-58903608D01*
X134747000Y-59519381D01*
X134923422Y-59486403D01*
X135114196Y-59412496D01*
X135114203Y-59412493D01*
X135288161Y-59304784D01*
X135439362Y-59166946D01*
X135562659Y-59003672D01*
X135653859Y-58820519D01*
X135653861Y-58820514D01*
X135709852Y-58623725D01*
X135716962Y-58547001D01*
X135716962Y-58547000D01*
X135103608Y-58547000D01*
X135120000Y-58485826D01*
X135120000Y-58354174D01*
X135103608Y-58293000D01*
X135716962Y-58293000D01*
X135716962Y-58292998D01*
X135709852Y-58216274D01*
X135653861Y-58019485D01*
X135653859Y-58019480D01*
X135562659Y-57836327D01*
X135439362Y-57673053D01*
X135288161Y-57535215D01*
X135114203Y-57427506D01*
X135114196Y-57427503D01*
X134923422Y-57353596D01*
X134923424Y-57353596D01*
X134747000Y-57320617D01*
X134747000Y-57936391D01*
X134685826Y-57920000D01*
X134554174Y-57920000D01*
X134493000Y-57936391D01*
X134493000Y-57320617D01*
X134316576Y-57353596D01*
X134125803Y-57427503D01*
X134125796Y-57427506D01*
X133951838Y-57535215D01*
X133800637Y-57673053D01*
X133677340Y-57836327D01*
X133586140Y-58019480D01*
X133586138Y-58019485D01*
X133530147Y-58216274D01*
X133523037Y-58292998D01*
X133177464Y-58292998D01*
X133170345Y-58216180D01*
X133170345Y-58216179D01*
X133114328Y-58019299D01*
X133023088Y-57836065D01*
X132932209Y-57715721D01*
X132899733Y-57672715D01*
X132748463Y-57534814D01*
X132574433Y-57427059D01*
X132574428Y-57427057D01*
X132574427Y-57427056D01*
X132534554Y-57411609D01*
X132383559Y-57353113D01*
X132383560Y-57353113D01*
X132383557Y-57353112D01*
X132383556Y-57353112D01*
X132182347Y-57315500D01*
X131977653Y-57315500D01*
X131776444Y-57353112D01*
X131776439Y-57353113D01*
X131585577Y-57427054D01*
X131585566Y-57427059D01*
X131411536Y-57534814D01*
X131260266Y-57672715D01*
X131136913Y-57836063D01*
X131045671Y-58019301D01*
X130989654Y-58216180D01*
X130970768Y-58419995D01*
X130649232Y-58419995D01*
X130630345Y-58216180D01*
X130630345Y-58216179D01*
X130574328Y-58019299D01*
X130483088Y-57836065D01*
X130392209Y-57715721D01*
X130359733Y-57672715D01*
X130208463Y-57534814D01*
X130034433Y-57427059D01*
X130034428Y-57427057D01*
X130034427Y-57427056D01*
X129994554Y-57411609D01*
X129843559Y-57353113D01*
X129843560Y-57353113D01*
X129843557Y-57353112D01*
X129843556Y-57353112D01*
X129642347Y-57315500D01*
X129437653Y-57315500D01*
X129236444Y-57353112D01*
X129236439Y-57353113D01*
X129045577Y-57427054D01*
X129045566Y-57427059D01*
X128871536Y-57534814D01*
X128720266Y-57672715D01*
X128596913Y-57836063D01*
X128505671Y-58019301D01*
X128449654Y-58216180D01*
X128430768Y-58419995D01*
X128104499Y-58419995D01*
X128104499Y-57544934D01*
X128104498Y-57544930D01*
X128104498Y-57544926D01*
X128089734Y-57470699D01*
X128060574Y-57427059D01*
X128033484Y-57386516D01*
X128033483Y-57386515D01*
X127949302Y-57330266D01*
X127875067Y-57315500D01*
X126124936Y-57315500D01*
X126124926Y-57315501D01*
X126050699Y-57330265D01*
X125966515Y-57386516D01*
X125910266Y-57470697D01*
X125895500Y-57544930D01*
X122301500Y-57544930D01*
X122301500Y-33230213D01*
X122321502Y-33162092D01*
X122338405Y-33141118D01*
X128391118Y-27088405D01*
X128453430Y-27054379D01*
X128480213Y-27051500D01*
X146353866Y-27051500D01*
X146421987Y-27071502D01*
X146468480Y-27125158D01*
X146478584Y-27195432D01*
X146454416Y-27253432D01*
X146376912Y-27356064D01*
X146376908Y-27356069D01*
X146310885Y-27488663D01*
X146262616Y-27540727D01*
X146198095Y-27558500D01*
X136093775Y-27558500D01*
X136034390Y-27574412D01*
X135996741Y-27584500D01*
X135909756Y-27634721D01*
X135909746Y-27634729D01*
X134190047Y-29354430D01*
X133623753Y-29920724D01*
X133588239Y-29956238D01*
X133552725Y-29991751D01*
X133552721Y-29991756D01*
X133502500Y-30078741D01*
X133487963Y-30132991D01*
X133477246Y-30172993D01*
X133476500Y-30175776D01*
X133476500Y-42976223D01*
X133476499Y-42976223D01*
X133502500Y-43073258D01*
X133535131Y-43129775D01*
X133552721Y-43160243D01*
X133552729Y-43160253D01*
X136741595Y-46349118D01*
X136775621Y-46411430D01*
X136778500Y-46438213D01*
X136778500Y-57296995D01*
X136758498Y-57365116D01*
X136704842Y-57411609D01*
X136698018Y-57414486D01*
X136665576Y-57427054D01*
X136665569Y-57427058D01*
X136491536Y-57534814D01*
X136340266Y-57672715D01*
X136216913Y-57836063D01*
X136125671Y-58019301D01*
X136069654Y-58216180D01*
X136050768Y-58419995D01*
X136050768Y-58420004D01*
X136069654Y-58623819D01*
X136099014Y-58727007D01*
X136125672Y-58820701D01*
X136216912Y-59003935D01*
X136216913Y-59003936D01*
X136340266Y-59167284D01*
X136491536Y-59305185D01*
X136665566Y-59412940D01*
X136665568Y-59412940D01*
X136665573Y-59412944D01*
X136856444Y-59486888D01*
X137057653Y-59524500D01*
X137057655Y-59524500D01*
X137262345Y-59524500D01*
X137262347Y-59524500D01*
X137463556Y-59486888D01*
X137654427Y-59412944D01*
X137828462Y-59305186D01*
X137979732Y-59167285D01*
X138103088Y-59003935D01*
X138194328Y-58820701D01*
X138250345Y-58623821D01*
X138256640Y-58555880D01*
X138269232Y-58420004D01*
X138269232Y-58419995D01*
X138250345Y-58216180D01*
X138250345Y-58216179D01*
X138194328Y-58019299D01*
X138103088Y-57836065D01*
X138012209Y-57715721D01*
X137979733Y-57672715D01*
X137828463Y-57534814D01*
X137654430Y-57427058D01*
X137654427Y-57427056D01*
X137654425Y-57427055D01*
X137654423Y-57427054D01*
X137621982Y-57414486D01*
X137565687Y-57371225D01*
X137541718Y-57304397D01*
X137541500Y-57296995D01*
X137541500Y-46183213D01*
X137561502Y-46115092D01*
X137615158Y-46068599D01*
X137685432Y-46058495D01*
X137750012Y-46087989D01*
X137756595Y-46094118D01*
X139281595Y-47619118D01*
X139315621Y-47681430D01*
X139318500Y-47708213D01*
X139318500Y-57296995D01*
X139298498Y-57365116D01*
X139244842Y-57411609D01*
X139238018Y-57414486D01*
X139205576Y-57427054D01*
X139205569Y-57427058D01*
X139031536Y-57534814D01*
X138880266Y-57672715D01*
X138756913Y-57836063D01*
X138665671Y-58019301D01*
X138609654Y-58216180D01*
X138590768Y-58419995D01*
X138590768Y-58420004D01*
X138609654Y-58623819D01*
X138639014Y-58727007D01*
X138665672Y-58820701D01*
X138756912Y-59003935D01*
X138756913Y-59003936D01*
X138880266Y-59167284D01*
X139031536Y-59305185D01*
X139205566Y-59412940D01*
X139205568Y-59412940D01*
X139205573Y-59412944D01*
X139396444Y-59486888D01*
X139597653Y-59524500D01*
X139597655Y-59524500D01*
X139802345Y-59524500D01*
X139802347Y-59524500D01*
X140003556Y-59486888D01*
X140194427Y-59412944D01*
X140368462Y-59305186D01*
X140519732Y-59167285D01*
X140643088Y-59003935D01*
X140734328Y-58820701D01*
X140790345Y-58623821D01*
X140796640Y-58555880D01*
X140809232Y-58420004D01*
X140809232Y-58419995D01*
X141130768Y-58419995D01*
X141130768Y-58420004D01*
X141149654Y-58623819D01*
X141179014Y-58727007D01*
X141205672Y-58820701D01*
X141296912Y-59003935D01*
X141296913Y-59003936D01*
X141420266Y-59167284D01*
X141571536Y-59305185D01*
X141745566Y-59412940D01*
X141745568Y-59412940D01*
X141745573Y-59412944D01*
X141936444Y-59486888D01*
X142137653Y-59524500D01*
X142137655Y-59524500D01*
X142342345Y-59524500D01*
X142342347Y-59524500D01*
X142543556Y-59486888D01*
X142734427Y-59412944D01*
X142908462Y-59305186D01*
X143059732Y-59167285D01*
X143183088Y-59003935D01*
X143274328Y-58820701D01*
X143330345Y-58623821D01*
X143336640Y-58555880D01*
X143349232Y-58420004D01*
X143349232Y-58419995D01*
X143670768Y-58419995D01*
X143670768Y-58420004D01*
X143689654Y-58623819D01*
X143719014Y-58727007D01*
X143745672Y-58820701D01*
X143836912Y-59003935D01*
X143836913Y-59003936D01*
X143960266Y-59167284D01*
X144111536Y-59305185D01*
X144285566Y-59412940D01*
X144285568Y-59412940D01*
X144285573Y-59412944D01*
X144476444Y-59486888D01*
X144677653Y-59524500D01*
X144677655Y-59524500D01*
X144882345Y-59524500D01*
X144882347Y-59524500D01*
X145083556Y-59486888D01*
X145274427Y-59412944D01*
X145448462Y-59305186D01*
X145599732Y-59167285D01*
X145723088Y-59003935D01*
X145814328Y-58820701D01*
X145870345Y-58623821D01*
X145876640Y-58555880D01*
X145889232Y-58420004D01*
X145889232Y-58419995D01*
X146210768Y-58419995D01*
X146210768Y-58420004D01*
X146229654Y-58623819D01*
X146259014Y-58727007D01*
X146285672Y-58820701D01*
X146376912Y-59003935D01*
X146376913Y-59003936D01*
X146500266Y-59167284D01*
X146651536Y-59305185D01*
X146825566Y-59412940D01*
X146825568Y-59412940D01*
X146825573Y-59412944D01*
X147016444Y-59486888D01*
X147217653Y-59524500D01*
X147217655Y-59524500D01*
X147422345Y-59524500D01*
X147422347Y-59524500D01*
X147623556Y-59486888D01*
X147814427Y-59412944D01*
X147988462Y-59305186D01*
X148139732Y-59167285D01*
X148263088Y-59003935D01*
X148354328Y-58820701D01*
X148410345Y-58623821D01*
X148416640Y-58555880D01*
X148429232Y-58420004D01*
X148429232Y-58419995D01*
X148750768Y-58419995D01*
X148750768Y-58420004D01*
X148769654Y-58623819D01*
X148799014Y-58727007D01*
X148825672Y-58820701D01*
X148916912Y-59003935D01*
X148916913Y-59003936D01*
X149040266Y-59167284D01*
X149191536Y-59305185D01*
X149365566Y-59412940D01*
X149365568Y-59412940D01*
X149365573Y-59412944D01*
X149556444Y-59486888D01*
X149757653Y-59524500D01*
X149757655Y-59524500D01*
X149962345Y-59524500D01*
X149962347Y-59524500D01*
X150163556Y-59486888D01*
X150354427Y-59412944D01*
X150528462Y-59305186D01*
X150679732Y-59167285D01*
X150803088Y-59003935D01*
X150894328Y-58820701D01*
X150950345Y-58623821D01*
X150956640Y-58555880D01*
X150969232Y-58420004D01*
X150969232Y-58419995D01*
X150950345Y-58216180D01*
X150950345Y-58216179D01*
X150894328Y-58019299D01*
X150803088Y-57836065D01*
X150712209Y-57715721D01*
X150679733Y-57672715D01*
X150528463Y-57534814D01*
X150354433Y-57427059D01*
X150354428Y-57427057D01*
X150354427Y-57427056D01*
X150314554Y-57411609D01*
X150163559Y-57353113D01*
X150163560Y-57353113D01*
X150163557Y-57353112D01*
X150163556Y-57353112D01*
X149962347Y-57315500D01*
X149757653Y-57315500D01*
X149556444Y-57353112D01*
X149556439Y-57353113D01*
X149365577Y-57427054D01*
X149365566Y-57427059D01*
X149191536Y-57534814D01*
X149040266Y-57672715D01*
X148916913Y-57836063D01*
X148825671Y-58019301D01*
X148769654Y-58216180D01*
X148750768Y-58419995D01*
X148429232Y-58419995D01*
X148410345Y-58216180D01*
X148410345Y-58216179D01*
X148354328Y-58019299D01*
X148263088Y-57836065D01*
X148172209Y-57715721D01*
X148139733Y-57672715D01*
X147988463Y-57534814D01*
X147814433Y-57427059D01*
X147814428Y-57427057D01*
X147814427Y-57427056D01*
X147774554Y-57411609D01*
X147623559Y-57353113D01*
X147623560Y-57353113D01*
X147623557Y-57353112D01*
X147623556Y-57353112D01*
X147422347Y-57315500D01*
X147217653Y-57315500D01*
X147016444Y-57353112D01*
X147016439Y-57353113D01*
X146825577Y-57427054D01*
X146825566Y-57427059D01*
X146651536Y-57534814D01*
X146500266Y-57672715D01*
X146376913Y-57836063D01*
X146285671Y-58019301D01*
X146229654Y-58216180D01*
X146210768Y-58419995D01*
X145889232Y-58419995D01*
X145870345Y-58216180D01*
X145870345Y-58216179D01*
X145814328Y-58019299D01*
X145723088Y-57836065D01*
X145632209Y-57715721D01*
X145599733Y-57672715D01*
X145448463Y-57534814D01*
X145274433Y-57427059D01*
X145274428Y-57427057D01*
X145274427Y-57427056D01*
X145234554Y-57411609D01*
X145083559Y-57353113D01*
X145083560Y-57353113D01*
X145083557Y-57353112D01*
X145083556Y-57353112D01*
X144882347Y-57315500D01*
X144677653Y-57315500D01*
X144476444Y-57353112D01*
X144476439Y-57353113D01*
X144285577Y-57427054D01*
X144285566Y-57427059D01*
X144111536Y-57534814D01*
X143960266Y-57672715D01*
X143836913Y-57836063D01*
X143745671Y-58019301D01*
X143689654Y-58216180D01*
X143670768Y-58419995D01*
X143349232Y-58419995D01*
X143330345Y-58216180D01*
X143330345Y-58216179D01*
X143274328Y-58019299D01*
X143183088Y-57836065D01*
X143092209Y-57715721D01*
X143059733Y-57672715D01*
X142908463Y-57534814D01*
X142734433Y-57427059D01*
X142734428Y-57427057D01*
X142734427Y-57427056D01*
X142694554Y-57411609D01*
X142543559Y-57353113D01*
X142543560Y-57353113D01*
X142543557Y-57353112D01*
X142543556Y-57353112D01*
X142342347Y-57315500D01*
X142137653Y-57315500D01*
X141936444Y-57353112D01*
X141936439Y-57353113D01*
X141745577Y-57427054D01*
X141745566Y-57427059D01*
X141571536Y-57534814D01*
X141420266Y-57672715D01*
X141296913Y-57836063D01*
X141205671Y-58019301D01*
X141149654Y-58216180D01*
X141130768Y-58419995D01*
X140809232Y-58419995D01*
X140790345Y-58216180D01*
X140790345Y-58216179D01*
X140734328Y-58019299D01*
X140643088Y-57836065D01*
X140552209Y-57715721D01*
X140519733Y-57672715D01*
X140368463Y-57534814D01*
X140194430Y-57427058D01*
X140194427Y-57427056D01*
X140194425Y-57427055D01*
X140194423Y-57427054D01*
X140161982Y-57414486D01*
X140105687Y-57371225D01*
X140081718Y-57304397D01*
X140081500Y-57296995D01*
X140081500Y-47558388D01*
X140081501Y-47558375D01*
X140081501Y-47447776D01*
X140081501Y-47447775D01*
X140055502Y-47350747D01*
X140005276Y-47263753D01*
X140005274Y-47263751D01*
X140005270Y-47263746D01*
X135292405Y-42550881D01*
X135258379Y-42488569D01*
X135255500Y-42461786D01*
X135255500Y-37224930D01*
X136055500Y-37224930D01*
X136055500Y-38975063D01*
X136055501Y-38975073D01*
X136070265Y-39049300D01*
X136126516Y-39133484D01*
X136210697Y-39189733D01*
X136210699Y-39189734D01*
X136284933Y-39204500D01*
X138035066Y-39204499D01*
X138035069Y-39204498D01*
X138035073Y-39204498D01*
X138084326Y-39194701D01*
X138109301Y-39189734D01*
X138193484Y-39133484D01*
X138249734Y-39049301D01*
X138264500Y-38975067D01*
X138264499Y-38099995D01*
X138590768Y-38099995D01*
X138590768Y-38100004D01*
X138609654Y-38303819D01*
X138665671Y-38500698D01*
X138665672Y-38500701D01*
X138756912Y-38683935D01*
X138756913Y-38683936D01*
X138880266Y-38847284D01*
X139031536Y-38985185D01*
X139205566Y-39092940D01*
X139205568Y-39092940D01*
X139205573Y-39092944D01*
X139396444Y-39166888D01*
X139597653Y-39204500D01*
X139597655Y-39204500D01*
X139802345Y-39204500D01*
X139802347Y-39204500D01*
X140003556Y-39166888D01*
X140194427Y-39092944D01*
X140368462Y-38985186D01*
X140519732Y-38847285D01*
X140643088Y-38683935D01*
X140734328Y-38500701D01*
X140790345Y-38303821D01*
X140809232Y-38100000D01*
X140809232Y-38099995D01*
X141130768Y-38099995D01*
X141130768Y-38100004D01*
X141149654Y-38303819D01*
X141205671Y-38500698D01*
X141205672Y-38500701D01*
X141296912Y-38683935D01*
X141296913Y-38683936D01*
X141420266Y-38847284D01*
X141571536Y-38985185D01*
X141745566Y-39092940D01*
X141745568Y-39092940D01*
X141745573Y-39092944D01*
X141936444Y-39166888D01*
X142137653Y-39204500D01*
X142137655Y-39204500D01*
X142342345Y-39204500D01*
X142342347Y-39204500D01*
X142543556Y-39166888D01*
X142734427Y-39092944D01*
X142908462Y-38985186D01*
X143059732Y-38847285D01*
X143183088Y-38683935D01*
X143274328Y-38500701D01*
X143330345Y-38303821D01*
X143349232Y-38100000D01*
X143343166Y-38034543D01*
X143330345Y-37896180D01*
X143330345Y-37896179D01*
X143274328Y-37699299D01*
X143183088Y-37516065D01*
X143142538Y-37462368D01*
X143059733Y-37352715D01*
X142908463Y-37214814D01*
X142734433Y-37107059D01*
X142734428Y-37107057D01*
X142734427Y-37107056D01*
X142694554Y-37091609D01*
X142543559Y-37033113D01*
X142543560Y-37033113D01*
X142543557Y-37033112D01*
X142543556Y-37033112D01*
X142342347Y-36995500D01*
X142137653Y-36995500D01*
X141936444Y-37033112D01*
X141936439Y-37033113D01*
X141745577Y-37107054D01*
X141745566Y-37107059D01*
X141571536Y-37214814D01*
X141420266Y-37352715D01*
X141296913Y-37516063D01*
X141205671Y-37699301D01*
X141149654Y-37896180D01*
X141130768Y-38099995D01*
X140809232Y-38099995D01*
X140803166Y-38034543D01*
X140790345Y-37896180D01*
X140790345Y-37896179D01*
X140734328Y-37699299D01*
X140643088Y-37516065D01*
X140602538Y-37462368D01*
X140519733Y-37352715D01*
X140368463Y-37214814D01*
X140194433Y-37107059D01*
X140194428Y-37107057D01*
X140194427Y-37107056D01*
X140154554Y-37091609D01*
X140003559Y-37033113D01*
X140003560Y-37033113D01*
X140003557Y-37033112D01*
X140003556Y-37033112D01*
X139802347Y-36995500D01*
X139597653Y-36995500D01*
X139396444Y-37033112D01*
X139396439Y-37033113D01*
X139205577Y-37107054D01*
X139205566Y-37107059D01*
X139031536Y-37214814D01*
X138880266Y-37352715D01*
X138756913Y-37516063D01*
X138665671Y-37699301D01*
X138609654Y-37896180D01*
X138590768Y-38099995D01*
X138264499Y-38099995D01*
X138264499Y-37224934D01*
X138264498Y-37224930D01*
X138264498Y-37224926D01*
X138249734Y-37150699D01*
X138220574Y-37107059D01*
X138193484Y-37066516D01*
X138192763Y-37066034D01*
X138109302Y-37010266D01*
X138035067Y-36995500D01*
X136284936Y-36995500D01*
X136284926Y-36995501D01*
X136210699Y-37010265D01*
X136126515Y-37066516D01*
X136070266Y-37150697D01*
X136055500Y-37224930D01*
X135255500Y-37224930D01*
X135255500Y-31452213D01*
X135275502Y-31384092D01*
X135292405Y-31363118D01*
X136988118Y-29667405D01*
X137050430Y-29633379D01*
X137077213Y-29630500D01*
X146089500Y-29630500D01*
X146157621Y-29650502D01*
X146204114Y-29704158D01*
X146215500Y-29756500D01*
X146215500Y-31355063D01*
X146215501Y-31355073D01*
X146230265Y-31429300D01*
X146286516Y-31513484D01*
X146370697Y-31569733D01*
X146370699Y-31569734D01*
X146444933Y-31584500D01*
X148195066Y-31584499D01*
X148195069Y-31584498D01*
X148195073Y-31584498D01*
X148244326Y-31574701D01*
X148269301Y-31569734D01*
X148353484Y-31513484D01*
X148409734Y-31429301D01*
X148424500Y-31355067D01*
X148424499Y-30352998D01*
X148763037Y-30352998D01*
X148763038Y-30353000D01*
X149376392Y-30353000D01*
X149360000Y-30414174D01*
X149360000Y-30545826D01*
X149376392Y-30607000D01*
X148763038Y-30607000D01*
X148763037Y-30607001D01*
X148770147Y-30683725D01*
X148826138Y-30880514D01*
X148826140Y-30880519D01*
X148917340Y-31063672D01*
X149040637Y-31226946D01*
X149191838Y-31364784D01*
X149365796Y-31472493D01*
X149365803Y-31472496D01*
X149556578Y-31546403D01*
X149556576Y-31546403D01*
X149733000Y-31579381D01*
X149733000Y-30963608D01*
X149794174Y-30980000D01*
X149925826Y-30980000D01*
X149987000Y-30963608D01*
X149987000Y-31579381D01*
X150163422Y-31546403D01*
X150354196Y-31472496D01*
X150354203Y-31472493D01*
X150528161Y-31364784D01*
X150679362Y-31226946D01*
X150802659Y-31063672D01*
X150893859Y-30880519D01*
X150893861Y-30880514D01*
X150949852Y-30683725D01*
X150956962Y-30607001D01*
X150956962Y-30607000D01*
X150343608Y-30607000D01*
X150360000Y-30545826D01*
X150360000Y-30414174D01*
X150343608Y-30353000D01*
X150956962Y-30353000D01*
X150956962Y-30352998D01*
X150949852Y-30276274D01*
X150893861Y-30079485D01*
X150893859Y-30079480D01*
X150802659Y-29896327D01*
X150679362Y-29733053D01*
X150528161Y-29595215D01*
X150354203Y-29487506D01*
X150354196Y-29487503D01*
X150163422Y-29413596D01*
X150163424Y-29413596D01*
X149987000Y-29380617D01*
X149987000Y-29996391D01*
X149925826Y-29980000D01*
X149794174Y-29980000D01*
X149733000Y-29996391D01*
X149733000Y-29380617D01*
X149556576Y-29413596D01*
X149365803Y-29487503D01*
X149365796Y-29487506D01*
X149191838Y-29595215D01*
X149040637Y-29733053D01*
X148917340Y-29896327D01*
X148826140Y-30079480D01*
X148826138Y-30079485D01*
X148770147Y-30276274D01*
X148763037Y-30352998D01*
X148424499Y-30352998D01*
X148424499Y-29756499D01*
X148444501Y-29688379D01*
X148498157Y-29641886D01*
X148550499Y-29630500D01*
X148601223Y-29630500D01*
X148601225Y-29630500D01*
X148698254Y-29604501D01*
X148698257Y-29604499D01*
X148698258Y-29604499D01*
X148741750Y-29579388D01*
X148785247Y-29554276D01*
X148856276Y-29483247D01*
X148873985Y-29465538D01*
X148873991Y-29465530D01*
X149337074Y-29002446D01*
X149399385Y-28968423D01*
X149470200Y-28973487D01*
X149471685Y-28974052D01*
X149556439Y-29006886D01*
X149556440Y-29006886D01*
X149556444Y-29006888D01*
X149757653Y-29044500D01*
X149757655Y-29044500D01*
X149962345Y-29044500D01*
X149962347Y-29044500D01*
X150163556Y-29006888D01*
X150354427Y-28932944D01*
X150528462Y-28825186D01*
X150679732Y-28687285D01*
X150803088Y-28523935D01*
X150894328Y-28340701D01*
X150950345Y-28143821D01*
X150969232Y-27940000D01*
X150950345Y-27736179D01*
X150894328Y-27539299D01*
X150803088Y-27356065D01*
X150771766Y-27314588D01*
X150725584Y-27253432D01*
X150700494Y-27187016D01*
X150715294Y-27117579D01*
X150765285Y-27067167D01*
X150826134Y-27051500D01*
X151433866Y-27051500D01*
X151501987Y-27071502D01*
X151548480Y-27125158D01*
X151558584Y-27195432D01*
X151534416Y-27253432D01*
X151456913Y-27356063D01*
X151365671Y-27539301D01*
X151309654Y-27736180D01*
X151290768Y-27939995D01*
X151290768Y-27940004D01*
X151309654Y-28143819D01*
X151358566Y-28315725D01*
X151365672Y-28340701D01*
X151456912Y-28523935D01*
X151456913Y-28523936D01*
X151580266Y-28687284D01*
X151731536Y-28825185D01*
X151905566Y-28932940D01*
X151905568Y-28932940D01*
X151905573Y-28932944D01*
X152096444Y-29006888D01*
X152297653Y-29044500D01*
X152297655Y-29044500D01*
X152502345Y-29044500D01*
X152502347Y-29044500D01*
X152703556Y-29006888D01*
X152788316Y-28974051D01*
X152859058Y-28968094D01*
X152921794Y-29001331D01*
X152922925Y-29002448D01*
X153212595Y-29292118D01*
X153246621Y-29354430D01*
X153249500Y-29381213D01*
X153249500Y-29480694D01*
X153229498Y-29548815D01*
X153175842Y-29595308D01*
X153105568Y-29605412D01*
X153057170Y-29587821D01*
X152894438Y-29487062D01*
X152894431Y-29487058D01*
X152894427Y-29487056D01*
X152838844Y-29465523D01*
X152703559Y-29413113D01*
X152703560Y-29413113D01*
X152703557Y-29413112D01*
X152703556Y-29413112D01*
X152502347Y-29375500D01*
X152297653Y-29375500D01*
X152096444Y-29413112D01*
X152096439Y-29413113D01*
X151905577Y-29487054D01*
X151905566Y-29487059D01*
X151731536Y-29594814D01*
X151580266Y-29732715D01*
X151456913Y-29896063D01*
X151365671Y-30079301D01*
X151309654Y-30276180D01*
X151290768Y-30479995D01*
X151290768Y-30480004D01*
X151309654Y-30683819D01*
X151339014Y-30787007D01*
X151365672Y-30880701D01*
X151456912Y-31063935D01*
X151456913Y-31063936D01*
X151580266Y-31227284D01*
X151731536Y-31365185D01*
X151905566Y-31472940D01*
X151905568Y-31472940D01*
X151905573Y-31472944D01*
X152096444Y-31546888D01*
X152297653Y-31584500D01*
X152297655Y-31584500D01*
X152502345Y-31584500D01*
X152502347Y-31584500D01*
X152703556Y-31546888D01*
X152894427Y-31472944D01*
X153057169Y-31372177D01*
X153125616Y-31353323D01*
X153193392Y-31374466D01*
X153238977Y-31428895D01*
X153249500Y-31479305D01*
X153249500Y-31832787D01*
X153229498Y-31900908D01*
X153212595Y-31921882D01*
X153040882Y-32093595D01*
X152978570Y-32127621D01*
X152951787Y-32130500D01*
X148031775Y-32130500D01*
X147972390Y-32146412D01*
X147934741Y-32156500D01*
X147876283Y-32190252D01*
X147847756Y-32206721D01*
X147847746Y-32206729D01*
X145365512Y-34688965D01*
X144545753Y-35508724D01*
X144512047Y-35542430D01*
X144474725Y-35579751D01*
X144474721Y-35579756D01*
X144424500Y-35666741D01*
X144398500Y-35763776D01*
X144398500Y-36976995D01*
X144378498Y-37045116D01*
X144324842Y-37091609D01*
X144318018Y-37094486D01*
X144285576Y-37107054D01*
X144285569Y-37107058D01*
X144111536Y-37214814D01*
X143960266Y-37352715D01*
X143836913Y-37516063D01*
X143745671Y-37699301D01*
X143689654Y-37896180D01*
X143670768Y-38099995D01*
X143670768Y-38100004D01*
X143689654Y-38303819D01*
X143745671Y-38500698D01*
X143745672Y-38500701D01*
X143836912Y-38683935D01*
X143836913Y-38683936D01*
X143960266Y-38847284D01*
X144111536Y-38985185D01*
X144285566Y-39092940D01*
X144285568Y-39092940D01*
X144285573Y-39092944D01*
X144476444Y-39166888D01*
X144677653Y-39204500D01*
X144677655Y-39204500D01*
X144882345Y-39204500D01*
X144882347Y-39204500D01*
X145083556Y-39166888D01*
X145274427Y-39092944D01*
X145448462Y-38985186D01*
X145599732Y-38847285D01*
X145723088Y-38683935D01*
X145814328Y-38500701D01*
X145870345Y-38303821D01*
X145889232Y-38100000D01*
X145883166Y-38034543D01*
X145870345Y-37896180D01*
X145870345Y-37896179D01*
X145814328Y-37699299D01*
X145723088Y-37516065D01*
X145682538Y-37462368D01*
X145599733Y-37352715D01*
X145448463Y-37214814D01*
X145274430Y-37107058D01*
X145274427Y-37107056D01*
X145274425Y-37107055D01*
X145274423Y-37107054D01*
X145241982Y-37094486D01*
X145185687Y-37051225D01*
X145161718Y-36984397D01*
X145161500Y-36976995D01*
X145161500Y-36024213D01*
X145181502Y-35956092D01*
X145198405Y-35935118D01*
X148203118Y-32930405D01*
X148265430Y-32896379D01*
X148292213Y-32893500D01*
X153212223Y-32893500D01*
X153212225Y-32893500D01*
X153309254Y-32867501D01*
X153309257Y-32867499D01*
X153309258Y-32867499D01*
X153352750Y-32842388D01*
X153396247Y-32817276D01*
X153467276Y-32746247D01*
X153936276Y-32277247D01*
X153953869Y-32246775D01*
X153986501Y-32190254D01*
X154012500Y-32093225D01*
X154012500Y-31414405D01*
X154032502Y-31346284D01*
X154086158Y-31299791D01*
X154156432Y-31289687D01*
X154221012Y-31319181D01*
X154223386Y-31321290D01*
X154271536Y-31365185D01*
X154445566Y-31472940D01*
X154445568Y-31472940D01*
X154445573Y-31472944D01*
X154636444Y-31546888D01*
X154837653Y-31584500D01*
X154837655Y-31584500D01*
X155042345Y-31584500D01*
X155042347Y-31584500D01*
X155243556Y-31546888D01*
X155434427Y-31472944D01*
X155597169Y-31372177D01*
X155665616Y-31353323D01*
X155733392Y-31374466D01*
X155778977Y-31428895D01*
X155789500Y-31479305D01*
X155789500Y-32086787D01*
X155769498Y-32154908D01*
X155752595Y-32175882D01*
X154564882Y-33363595D01*
X154502570Y-33397621D01*
X154475787Y-33400500D01*
X148793775Y-33400500D01*
X148734390Y-33416412D01*
X148696741Y-33426500D01*
X148609756Y-33476721D01*
X148609751Y-33476725D01*
X148574238Y-33512239D01*
X148538724Y-33547753D01*
X148538722Y-33547755D01*
X148070230Y-34016247D01*
X147068030Y-35018446D01*
X147068028Y-35018448D01*
X147014729Y-35071746D01*
X147014721Y-35071756D01*
X146964500Y-35158741D01*
X146964499Y-35158746D01*
X146943470Y-35237229D01*
X146938500Y-35255776D01*
X146938500Y-36976995D01*
X146918498Y-37045116D01*
X146864842Y-37091609D01*
X146858018Y-37094486D01*
X146825576Y-37107054D01*
X146825569Y-37107058D01*
X146651536Y-37214814D01*
X146500266Y-37352715D01*
X146376913Y-37516063D01*
X146285671Y-37699301D01*
X146229654Y-37896180D01*
X146210768Y-38099995D01*
X146210768Y-38100004D01*
X146229654Y-38303819D01*
X146285671Y-38500698D01*
X146285672Y-38500701D01*
X146376912Y-38683935D01*
X146376913Y-38683936D01*
X146500266Y-38847284D01*
X146651536Y-38985185D01*
X146825566Y-39092940D01*
X146825568Y-39092940D01*
X146825573Y-39092944D01*
X147016444Y-39166888D01*
X147217653Y-39204500D01*
X147217655Y-39204500D01*
X147422345Y-39204500D01*
X147422347Y-39204500D01*
X147623556Y-39166888D01*
X147814427Y-39092944D01*
X147988462Y-38985186D01*
X148139732Y-38847285D01*
X148263088Y-38683935D01*
X148354328Y-38500701D01*
X148410345Y-38303821D01*
X148429232Y-38100000D01*
X148429232Y-38099995D01*
X148750768Y-38099995D01*
X148750768Y-38100004D01*
X148769654Y-38303819D01*
X148825671Y-38500698D01*
X148825672Y-38500701D01*
X148916912Y-38683935D01*
X148916913Y-38683936D01*
X149040266Y-38847284D01*
X149191536Y-38985185D01*
X149365566Y-39092940D01*
X149365568Y-39092940D01*
X149365573Y-39092944D01*
X149390306Y-39102525D01*
X149398017Y-39105513D01*
X149454312Y-39148772D01*
X149478282Y-39215600D01*
X149478500Y-39223004D01*
X149478500Y-43230223D01*
X149478499Y-43230223D01*
X149504500Y-43327258D01*
X149554721Y-43414243D01*
X149554729Y-43414253D01*
X155904724Y-49764247D01*
X155975753Y-49835276D01*
X155975754Y-49835277D01*
X155975756Y-49835278D01*
X156062741Y-49885499D01*
X156062743Y-49885499D01*
X156062746Y-49885501D01*
X156159775Y-49911500D01*
X166159787Y-49911500D01*
X166227908Y-49931502D01*
X166248882Y-49948405D01*
X168491595Y-52191117D01*
X168525620Y-52253429D01*
X168528500Y-52280212D01*
X168528500Y-68877787D01*
X168508498Y-68945908D01*
X168491595Y-68966882D01*
X167010882Y-70447595D01*
X166948570Y-70481621D01*
X166921787Y-70484500D01*
X164252617Y-70484500D01*
X164184496Y-70464498D01*
X164175923Y-70458469D01*
X164099254Y-70399639D01*
X164035070Y-70373053D01*
X163969374Y-70345841D01*
X163830000Y-70327493D01*
X163690625Y-70345841D01*
X163560748Y-70399638D01*
X163560745Y-70399640D01*
X163449218Y-70485218D01*
X163363640Y-70596745D01*
X163363638Y-70596748D01*
X163309841Y-70726625D01*
X163291493Y-70865999D01*
X163291493Y-70866000D01*
X163309841Y-71005374D01*
X163363638Y-71135252D01*
X163363643Y-71135260D01*
X163449217Y-71246782D01*
X163560739Y-71332356D01*
X163560746Y-71332361D01*
X163690624Y-71386158D01*
X163830000Y-71404507D01*
X163969376Y-71386158D01*
X164099254Y-71332361D01*
X164175913Y-71273537D01*
X164242132Y-71247937D01*
X164252617Y-71247500D01*
X167182223Y-71247500D01*
X167182225Y-71247500D01*
X167279254Y-71221501D01*
X167279257Y-71221499D01*
X167279258Y-71221499D01*
X167341045Y-71185826D01*
X167366247Y-71171276D01*
X167437276Y-71100247D01*
X169215276Y-69322247D01*
X169265502Y-69235253D01*
X169291501Y-69138225D01*
X169291501Y-69037775D01*
X169291501Y-69030058D01*
X169291500Y-69030040D01*
X169291500Y-52019776D01*
X169272504Y-51948882D01*
X169265501Y-51922746D01*
X169265499Y-51922743D01*
X169265499Y-51922741D01*
X169215278Y-51835756D01*
X169215270Y-51835746D01*
X169139858Y-51760334D01*
X169139835Y-51760313D01*
X166604251Y-49224727D01*
X166604245Y-49224723D01*
X166579343Y-49210346D01*
X166579343Y-49210345D01*
X166579341Y-49210345D01*
X166517258Y-49174501D01*
X166517255Y-49174500D01*
X166517254Y-49174499D01*
X166517252Y-49174498D01*
X166517251Y-49174498D01*
X166491253Y-49167532D01*
X166420225Y-49148500D01*
X166420223Y-49148500D01*
X156420213Y-49148500D01*
X156352092Y-49128498D01*
X156331118Y-49111595D01*
X150278405Y-43058882D01*
X150244379Y-42996570D01*
X150241500Y-42969787D01*
X150241500Y-39223004D01*
X150261502Y-39154883D01*
X150315158Y-39108390D01*
X150321983Y-39105513D01*
X150326998Y-39103569D01*
X150354427Y-39092944D01*
X150528462Y-38985186D01*
X150679732Y-38847285D01*
X150803088Y-38683935D01*
X150894328Y-38500701D01*
X150950345Y-38303821D01*
X150969232Y-38100000D01*
X150969232Y-38099995D01*
X151290768Y-38099995D01*
X151290768Y-38100004D01*
X151309654Y-38303819D01*
X151365671Y-38500698D01*
X151365672Y-38500701D01*
X151456912Y-38683935D01*
X151456913Y-38683936D01*
X151580266Y-38847284D01*
X151731536Y-38985185D01*
X151905566Y-39092940D01*
X151905568Y-39092940D01*
X151905573Y-39092944D01*
X151930306Y-39102525D01*
X151938017Y-39105513D01*
X151994312Y-39148772D01*
X152018282Y-39215600D01*
X152018500Y-39223004D01*
X152018500Y-41960223D01*
X152018499Y-41960223D01*
X152044498Y-42057251D01*
X152044499Y-42057254D01*
X152072060Y-42104991D01*
X152094724Y-42144247D01*
X152094727Y-42144250D01*
X152094730Y-42144254D01*
X158444724Y-48494247D01*
X158515753Y-48565276D01*
X158515754Y-48565277D01*
X158515756Y-48565278D01*
X158602741Y-48615499D01*
X158602743Y-48615499D01*
X158602746Y-48615501D01*
X158699775Y-48641500D01*
X172509787Y-48641500D01*
X172577908Y-48661502D01*
X172598882Y-48678405D01*
X174841595Y-50921117D01*
X174875620Y-50983429D01*
X174878500Y-51010212D01*
X174878500Y-52120223D01*
X174878499Y-52120223D01*
X174891499Y-52168739D01*
X174904499Y-52217254D01*
X174954723Y-52304246D01*
X174954724Y-52304247D01*
X174954725Y-52304248D01*
X175161595Y-52511117D01*
X175195620Y-52573429D01*
X175198500Y-52600213D01*
X175198500Y-61003787D01*
X175178498Y-61071908D01*
X175161595Y-61092882D01*
X175064753Y-61189724D01*
X175043856Y-61210621D01*
X174993725Y-61260751D01*
X174993721Y-61260756D01*
X174943500Y-61347741D01*
X174939879Y-61361256D01*
X174919590Y-61436977D01*
X174917500Y-61444776D01*
X174917500Y-63835594D01*
X174897498Y-63903715D01*
X174843842Y-63950208D01*
X174773568Y-63960312D01*
X174708988Y-63930818D01*
X174706615Y-63928710D01*
X174658463Y-63884814D01*
X174484433Y-63777059D01*
X174484428Y-63777057D01*
X174484427Y-63777056D01*
X174484422Y-63777054D01*
X174293559Y-63703113D01*
X174293560Y-63703113D01*
X174293557Y-63703112D01*
X174293556Y-63703112D01*
X174092347Y-63665500D01*
X173887653Y-63665500D01*
X173686444Y-63703112D01*
X173686439Y-63703113D01*
X173495577Y-63777054D01*
X173495566Y-63777059D01*
X173321536Y-63884814D01*
X173170266Y-64022715D01*
X173046913Y-64186063D01*
X172955671Y-64369301D01*
X172899654Y-64566180D01*
X172880768Y-64769995D01*
X172880768Y-64770004D01*
X172899654Y-64973819D01*
X172920492Y-65047056D01*
X172955672Y-65170701D01*
X173046912Y-65353935D01*
X173062499Y-65374576D01*
X173170266Y-65517284D01*
X173321536Y-65655185D01*
X173495566Y-65762940D01*
X173495568Y-65762940D01*
X173495573Y-65762944D01*
X173686444Y-65836888D01*
X173887653Y-65874500D01*
X173887655Y-65874500D01*
X174092345Y-65874500D01*
X174092347Y-65874500D01*
X174293556Y-65836888D01*
X174484427Y-65762944D01*
X174658462Y-65655186D01*
X174682102Y-65633635D01*
X174706614Y-65611290D01*
X174770431Y-65580179D01*
X174840938Y-65588509D01*
X174895748Y-65633635D01*
X174917460Y-65701230D01*
X174917500Y-65704405D01*
X174917500Y-66129223D01*
X174917499Y-66129223D01*
X174943500Y-66226258D01*
X174993721Y-66313243D01*
X174993729Y-66313253D01*
X175279746Y-66599270D01*
X175279751Y-66599274D01*
X175279753Y-66599276D01*
X175279754Y-66599277D01*
X175279756Y-66599278D01*
X175366742Y-66649500D01*
X175366744Y-66649500D01*
X175366747Y-66649502D01*
X175463775Y-66675500D01*
X178269734Y-66675500D01*
X178337855Y-66695502D01*
X178358829Y-66712405D01*
X179413595Y-67767171D01*
X179447621Y-67829483D01*
X179450500Y-67856266D01*
X179450500Y-70697381D01*
X179430498Y-70765502D01*
X179424463Y-70774084D01*
X179365643Y-70850740D01*
X179365638Y-70850748D01*
X179311841Y-70980625D01*
X179293493Y-71119999D01*
X179293493Y-71120000D01*
X179311841Y-71259374D01*
X179365638Y-71389252D01*
X179365643Y-71389260D01*
X179451217Y-71500782D01*
X179562739Y-71586356D01*
X179562746Y-71586361D01*
X179692624Y-71640158D01*
X179832000Y-71658507D01*
X179971376Y-71640158D01*
X180101254Y-71586361D01*
X180212782Y-71500782D01*
X180298361Y-71389254D01*
X180352158Y-71259376D01*
X180370507Y-71120000D01*
X180367906Y-71100247D01*
X180352158Y-70980625D01*
X180304679Y-70865999D01*
X180298361Y-70850747D01*
X180269392Y-70812993D01*
X180239537Y-70774084D01*
X180213937Y-70707863D01*
X180213500Y-70697381D01*
X180213500Y-69813723D01*
X182895500Y-69813723D01*
X182895500Y-70066277D01*
X182935009Y-70315721D01*
X182935010Y-70315725D01*
X183006687Y-70536327D01*
X183013052Y-70555914D01*
X183127709Y-70780941D01*
X183276156Y-70985261D01*
X183276158Y-70985263D01*
X183276160Y-70985266D01*
X183454733Y-71163839D01*
X183454736Y-71163841D01*
X183454739Y-71163844D01*
X183659059Y-71312291D01*
X183884086Y-71426948D01*
X184124279Y-71504991D01*
X184373723Y-71544500D01*
X184373726Y-71544500D01*
X185626274Y-71544500D01*
X185626277Y-71544500D01*
X185875721Y-71504991D01*
X186115914Y-71426948D01*
X186340941Y-71312291D01*
X186545261Y-71163844D01*
X186723844Y-70985261D01*
X186872291Y-70780941D01*
X186986948Y-70555914D01*
X187064991Y-70315721D01*
X187104500Y-70066277D01*
X187104500Y-69813723D01*
X188395500Y-69813723D01*
X188395500Y-70066277D01*
X188435009Y-70315721D01*
X188435010Y-70315725D01*
X188506687Y-70536327D01*
X188513052Y-70555914D01*
X188627709Y-70780941D01*
X188776156Y-70985261D01*
X188776158Y-70985263D01*
X188776160Y-70985266D01*
X188954733Y-71163839D01*
X188954736Y-71163841D01*
X188954739Y-71163844D01*
X189159059Y-71312291D01*
X189384086Y-71426948D01*
X189624279Y-71504991D01*
X189873723Y-71544500D01*
X189873726Y-71544500D01*
X191126274Y-71544500D01*
X191126277Y-71544500D01*
X191375721Y-71504991D01*
X191615914Y-71426948D01*
X191840941Y-71312291D01*
X192045261Y-71163844D01*
X192223844Y-70985261D01*
X192372291Y-70780941D01*
X192486948Y-70555914D01*
X192564991Y-70315721D01*
X192604500Y-70066277D01*
X192604500Y-69813723D01*
X192564991Y-69564279D01*
X192486948Y-69324086D01*
X192372291Y-69099059D01*
X192223844Y-68894739D01*
X192223841Y-68894736D01*
X192223839Y-68894733D01*
X192045266Y-68716160D01*
X192045263Y-68716158D01*
X192045261Y-68716156D01*
X191840941Y-68567709D01*
X191615914Y-68453052D01*
X191615911Y-68453051D01*
X191615909Y-68453050D01*
X191375725Y-68375010D01*
X191375723Y-68375009D01*
X191375721Y-68375009D01*
X191126277Y-68335500D01*
X189873723Y-68335500D01*
X189624279Y-68375009D01*
X189624277Y-68375009D01*
X189624274Y-68375010D01*
X189384090Y-68453050D01*
X189384084Y-68453053D01*
X189159055Y-68567711D01*
X188954736Y-68716158D01*
X188954733Y-68716160D01*
X188776160Y-68894733D01*
X188776158Y-68894736D01*
X188627711Y-69099055D01*
X188513053Y-69324084D01*
X188513050Y-69324090D01*
X188435010Y-69564274D01*
X188435009Y-69564277D01*
X188435009Y-69564279D01*
X188395500Y-69813723D01*
X187104500Y-69813723D01*
X187064991Y-69564279D01*
X186986948Y-69324086D01*
X186872291Y-69099059D01*
X186723844Y-68894739D01*
X186723841Y-68894736D01*
X186723839Y-68894733D01*
X186545266Y-68716160D01*
X186545263Y-68716158D01*
X186545261Y-68716156D01*
X186340941Y-68567709D01*
X186115914Y-68453052D01*
X186115911Y-68453051D01*
X186115909Y-68453050D01*
X185875725Y-68375010D01*
X185875723Y-68375009D01*
X185875721Y-68375009D01*
X185626277Y-68335500D01*
X184373723Y-68335500D01*
X184124279Y-68375009D01*
X184124277Y-68375009D01*
X184124274Y-68375010D01*
X183884090Y-68453050D01*
X183884084Y-68453053D01*
X183659055Y-68567711D01*
X183454736Y-68716158D01*
X183454733Y-68716160D01*
X183276160Y-68894733D01*
X183276158Y-68894736D01*
X183127711Y-69099055D01*
X183013053Y-69324084D01*
X183013050Y-69324090D01*
X182935010Y-69564274D01*
X182935009Y-69564277D01*
X182935009Y-69564279D01*
X182895500Y-69813723D01*
X180213500Y-69813723D01*
X180213500Y-67706441D01*
X180213501Y-67706428D01*
X180213501Y-67595829D01*
X180211151Y-67587059D01*
X180187502Y-67498800D01*
X180137276Y-67411806D01*
X180137274Y-67411804D01*
X180137270Y-67411799D01*
X178714200Y-65988729D01*
X178714190Y-65988721D01*
X178674294Y-65965687D01*
X178674292Y-65965687D01*
X178627201Y-65938499D01*
X178530172Y-65912500D01*
X178530170Y-65912500D01*
X177726373Y-65912500D01*
X177658252Y-65892498D01*
X177611759Y-65838842D01*
X177601655Y-65768568D01*
X177615980Y-65731180D01*
X177614985Y-65730768D01*
X177619733Y-65719303D01*
X177619733Y-65719302D01*
X177619734Y-65719301D01*
X177634500Y-65645067D01*
X177634500Y-65613723D01*
X182895500Y-65613723D01*
X182895500Y-65866277D01*
X182935009Y-66115721D01*
X182935010Y-66115725D01*
X182999190Y-66313253D01*
X183013052Y-66355914D01*
X183127709Y-66580941D01*
X183127711Y-66580944D01*
X183158946Y-66623935D01*
X183276156Y-66785261D01*
X183276158Y-66785263D01*
X183276160Y-66785266D01*
X183454733Y-66963839D01*
X183454736Y-66963841D01*
X183454739Y-66963844D01*
X183659059Y-67112291D01*
X183884086Y-67226948D01*
X184124279Y-67304991D01*
X184373723Y-67344500D01*
X184373726Y-67344500D01*
X185626274Y-67344500D01*
X185626277Y-67344500D01*
X185875721Y-67304991D01*
X186115914Y-67226948D01*
X186340941Y-67112291D01*
X186545261Y-66963844D01*
X186723844Y-66785261D01*
X186872291Y-66580941D01*
X186986948Y-66355914D01*
X187064991Y-66115721D01*
X187104500Y-65866277D01*
X187104500Y-65613723D01*
X188395500Y-65613723D01*
X188395500Y-65866277D01*
X188435009Y-66115721D01*
X188435010Y-66115725D01*
X188499190Y-66313253D01*
X188513052Y-66355914D01*
X188627709Y-66580941D01*
X188627711Y-66580944D01*
X188658946Y-66623935D01*
X188776156Y-66785261D01*
X188776158Y-66785263D01*
X188776160Y-66785266D01*
X188954733Y-66963839D01*
X188954736Y-66963841D01*
X188954739Y-66963844D01*
X189159059Y-67112291D01*
X189384086Y-67226948D01*
X189624279Y-67304991D01*
X189873723Y-67344500D01*
X189873726Y-67344500D01*
X191126274Y-67344500D01*
X191126277Y-67344500D01*
X191375721Y-67304991D01*
X191615914Y-67226948D01*
X191840941Y-67112291D01*
X192045261Y-66963844D01*
X192223844Y-66785261D01*
X192372291Y-66580941D01*
X192486948Y-66355914D01*
X192564991Y-66115721D01*
X192604500Y-65866277D01*
X192604500Y-65613723D01*
X192564991Y-65364279D01*
X192486948Y-65124086D01*
X192372291Y-64899059D01*
X192223844Y-64694739D01*
X192223841Y-64694736D01*
X192223839Y-64694733D01*
X192045266Y-64516160D01*
X192045263Y-64516158D01*
X192045261Y-64516156D01*
X191843132Y-64369301D01*
X191840944Y-64367711D01*
X191840943Y-64367710D01*
X191840941Y-64367709D01*
X191615914Y-64253052D01*
X191615911Y-64253051D01*
X191615909Y-64253050D01*
X191375725Y-64175010D01*
X191375723Y-64175009D01*
X191375721Y-64175009D01*
X191126277Y-64135500D01*
X189873723Y-64135500D01*
X189624279Y-64175009D01*
X189624277Y-64175009D01*
X189624274Y-64175010D01*
X189384090Y-64253050D01*
X189384084Y-64253053D01*
X189159055Y-64367711D01*
X188954736Y-64516158D01*
X188954733Y-64516160D01*
X188776160Y-64694733D01*
X188776158Y-64694736D01*
X188627711Y-64899055D01*
X188513053Y-65124084D01*
X188513050Y-65124090D01*
X188435010Y-65364274D01*
X188435009Y-65364277D01*
X188435009Y-65364279D01*
X188395500Y-65613723D01*
X187104500Y-65613723D01*
X187064991Y-65364279D01*
X186986948Y-65124086D01*
X186872291Y-64899059D01*
X186723844Y-64694739D01*
X186723841Y-64694736D01*
X186723839Y-64694733D01*
X186545266Y-64516160D01*
X186545263Y-64516158D01*
X186545261Y-64516156D01*
X186343132Y-64369301D01*
X186340944Y-64367711D01*
X186340943Y-64367710D01*
X186340941Y-64367709D01*
X186115914Y-64253052D01*
X186115911Y-64253051D01*
X186115909Y-64253050D01*
X185875725Y-64175010D01*
X185875723Y-64175009D01*
X185875721Y-64175009D01*
X185626277Y-64135500D01*
X184373723Y-64135500D01*
X184124279Y-64175009D01*
X184124277Y-64175009D01*
X184124274Y-64175010D01*
X183884090Y-64253050D01*
X183884084Y-64253053D01*
X183659055Y-64367711D01*
X183454736Y-64516158D01*
X183454733Y-64516160D01*
X183276160Y-64694733D01*
X183276158Y-64694736D01*
X183127711Y-64899055D01*
X183013053Y-65124084D01*
X183013050Y-65124090D01*
X182935010Y-65364274D01*
X182935009Y-65364277D01*
X182935009Y-65364279D01*
X182895500Y-65613723D01*
X177634500Y-65613723D01*
X177634499Y-63894934D01*
X177634498Y-63894930D01*
X177634498Y-63894926D01*
X177619734Y-63820699D01*
X177602989Y-63795639D01*
X177563484Y-63736516D01*
X177563483Y-63736515D01*
X177479302Y-63680266D01*
X177405069Y-63665500D01*
X177405067Y-63665500D01*
X175806500Y-63665500D01*
X175738379Y-63645498D01*
X175691886Y-63591842D01*
X175680500Y-63539500D01*
X175680500Y-61705213D01*
X175700502Y-61637092D01*
X175717400Y-61616122D01*
X175885276Y-61448247D01*
X175905208Y-61413723D01*
X182895500Y-61413723D01*
X182895500Y-61666277D01*
X182935009Y-61915721D01*
X183013052Y-62155914D01*
X183127709Y-62380941D01*
X183276156Y-62585261D01*
X183276158Y-62585263D01*
X183276160Y-62585266D01*
X183454733Y-62763839D01*
X183454736Y-62763841D01*
X183454739Y-62763844D01*
X183659059Y-62912291D01*
X183884086Y-63026948D01*
X184124279Y-63104991D01*
X184373723Y-63144500D01*
X184373726Y-63144500D01*
X185626274Y-63144500D01*
X185626277Y-63144500D01*
X185875721Y-63104991D01*
X186115914Y-63026948D01*
X186340941Y-62912291D01*
X186545261Y-62763844D01*
X186723844Y-62585261D01*
X186872291Y-62380941D01*
X186986948Y-62155914D01*
X187064991Y-61915721D01*
X187104500Y-61666277D01*
X187104500Y-61413723D01*
X188395500Y-61413723D01*
X188395500Y-61666277D01*
X188435009Y-61915721D01*
X188513052Y-62155914D01*
X188627709Y-62380941D01*
X188776156Y-62585261D01*
X188776158Y-62585263D01*
X188776160Y-62585266D01*
X188954733Y-62763839D01*
X188954736Y-62763841D01*
X188954739Y-62763844D01*
X189159059Y-62912291D01*
X189384086Y-63026948D01*
X189624279Y-63104991D01*
X189873723Y-63144500D01*
X189873726Y-63144500D01*
X191126274Y-63144500D01*
X191126277Y-63144500D01*
X191375721Y-63104991D01*
X191615914Y-63026948D01*
X191840941Y-62912291D01*
X192045261Y-62763844D01*
X192223844Y-62585261D01*
X192372291Y-62380941D01*
X192486948Y-62155914D01*
X192564991Y-61915721D01*
X192604500Y-61666277D01*
X192604500Y-61413723D01*
X192564991Y-61164279D01*
X192486948Y-60924086D01*
X192372291Y-60699059D01*
X192223844Y-60494739D01*
X192223841Y-60494736D01*
X192223839Y-60494733D01*
X192045266Y-60316160D01*
X192045263Y-60316158D01*
X192045261Y-60316156D01*
X191840941Y-60167709D01*
X191615914Y-60053052D01*
X191615911Y-60053051D01*
X191615909Y-60053050D01*
X191375725Y-59975010D01*
X191375723Y-59975009D01*
X191375721Y-59975009D01*
X191126277Y-59935500D01*
X189873723Y-59935500D01*
X189624279Y-59975009D01*
X189624277Y-59975009D01*
X189624274Y-59975010D01*
X189384090Y-60053050D01*
X189384084Y-60053053D01*
X189159055Y-60167711D01*
X188954736Y-60316158D01*
X188954733Y-60316160D01*
X188776160Y-60494733D01*
X188776158Y-60494736D01*
X188627711Y-60699055D01*
X188513053Y-60924084D01*
X188513050Y-60924090D01*
X188435010Y-61164274D01*
X188435009Y-61164277D01*
X188435009Y-61164279D01*
X188395500Y-61413723D01*
X187104500Y-61413723D01*
X187064991Y-61164279D01*
X186986948Y-60924086D01*
X186872291Y-60699059D01*
X186723844Y-60494739D01*
X186723841Y-60494736D01*
X186723839Y-60494733D01*
X186545266Y-60316160D01*
X186545263Y-60316158D01*
X186545261Y-60316156D01*
X186340941Y-60167709D01*
X186115914Y-60053052D01*
X186115911Y-60053051D01*
X186115909Y-60053050D01*
X185875725Y-59975010D01*
X185875723Y-59975009D01*
X185875721Y-59975009D01*
X185626277Y-59935500D01*
X184373723Y-59935500D01*
X184124279Y-59975009D01*
X184124277Y-59975009D01*
X184124274Y-59975010D01*
X183884090Y-60053050D01*
X183884084Y-60053053D01*
X183659055Y-60167711D01*
X183454736Y-60316158D01*
X183454733Y-60316160D01*
X183276160Y-60494733D01*
X183276158Y-60494736D01*
X183127711Y-60699055D01*
X183013053Y-60924084D01*
X183013050Y-60924090D01*
X182935010Y-61164274D01*
X182935009Y-61164277D01*
X182935009Y-61164279D01*
X182895500Y-61413723D01*
X175905208Y-61413723D01*
X175913754Y-61398921D01*
X175935501Y-61361254D01*
X175961500Y-61264225D01*
X175961500Y-57213723D01*
X182895500Y-57213723D01*
X182895500Y-57466277D01*
X182935009Y-57715721D01*
X183013052Y-57955914D01*
X183127709Y-58180941D01*
X183276156Y-58385261D01*
X183276158Y-58385263D01*
X183276160Y-58385266D01*
X183454733Y-58563839D01*
X183454736Y-58563841D01*
X183454739Y-58563844D01*
X183659059Y-58712291D01*
X183884086Y-58826948D01*
X184124279Y-58904991D01*
X184373723Y-58944500D01*
X184373726Y-58944500D01*
X185626274Y-58944500D01*
X185626277Y-58944500D01*
X185875721Y-58904991D01*
X186115914Y-58826948D01*
X186340941Y-58712291D01*
X186545261Y-58563844D01*
X186723844Y-58385261D01*
X186872291Y-58180941D01*
X186986948Y-57955914D01*
X187064991Y-57715721D01*
X187104500Y-57466277D01*
X187104500Y-57213723D01*
X188395500Y-57213723D01*
X188395500Y-57466277D01*
X188435009Y-57715721D01*
X188513052Y-57955914D01*
X188627709Y-58180941D01*
X188776156Y-58385261D01*
X188776158Y-58385263D01*
X188776160Y-58385266D01*
X188954733Y-58563839D01*
X188954736Y-58563841D01*
X188954739Y-58563844D01*
X189159059Y-58712291D01*
X189384086Y-58826948D01*
X189624279Y-58904991D01*
X189873723Y-58944500D01*
X189873726Y-58944500D01*
X191126274Y-58944500D01*
X191126277Y-58944500D01*
X191375721Y-58904991D01*
X191615914Y-58826948D01*
X191840941Y-58712291D01*
X192045261Y-58563844D01*
X192223844Y-58385261D01*
X192372291Y-58180941D01*
X192486948Y-57955914D01*
X192564991Y-57715721D01*
X192604500Y-57466277D01*
X192604500Y-57213723D01*
X192564991Y-56964279D01*
X192486948Y-56724086D01*
X192372291Y-56499059D01*
X192223844Y-56294739D01*
X192223841Y-56294736D01*
X192223839Y-56294733D01*
X192045266Y-56116160D01*
X192045263Y-56116158D01*
X192045261Y-56116156D01*
X191840941Y-55967709D01*
X191615914Y-55853052D01*
X191615911Y-55853051D01*
X191615909Y-55853050D01*
X191375725Y-55775010D01*
X191375723Y-55775009D01*
X191375721Y-55775009D01*
X191126277Y-55735500D01*
X189873723Y-55735500D01*
X189624279Y-55775009D01*
X189624277Y-55775009D01*
X189624274Y-55775010D01*
X189384090Y-55853050D01*
X189384084Y-55853053D01*
X189159055Y-55967711D01*
X188954736Y-56116158D01*
X188954733Y-56116160D01*
X188776160Y-56294733D01*
X188776158Y-56294736D01*
X188627711Y-56499055D01*
X188513053Y-56724084D01*
X188513050Y-56724090D01*
X188435010Y-56964274D01*
X188435009Y-56964277D01*
X188435009Y-56964279D01*
X188395500Y-57213723D01*
X187104500Y-57213723D01*
X187064991Y-56964279D01*
X186986948Y-56724086D01*
X186872291Y-56499059D01*
X186723844Y-56294739D01*
X186723841Y-56294736D01*
X186723839Y-56294733D01*
X186545266Y-56116160D01*
X186545263Y-56116158D01*
X186545261Y-56116156D01*
X186340941Y-55967709D01*
X186115914Y-55853052D01*
X186115911Y-55853051D01*
X186115909Y-55853050D01*
X185875725Y-55775010D01*
X185875723Y-55775009D01*
X185875721Y-55775009D01*
X185626277Y-55735500D01*
X184373723Y-55735500D01*
X184124279Y-55775009D01*
X184124277Y-55775009D01*
X184124274Y-55775010D01*
X183884090Y-55853050D01*
X183884084Y-55853053D01*
X183659055Y-55967711D01*
X183454736Y-56116158D01*
X183454733Y-56116160D01*
X183276160Y-56294733D01*
X183276158Y-56294736D01*
X183127711Y-56499055D01*
X183013053Y-56724084D01*
X183013050Y-56724090D01*
X182935010Y-56964274D01*
X182935009Y-56964277D01*
X182935009Y-56964279D01*
X182895500Y-57213723D01*
X175961500Y-57213723D01*
X175961500Y-53013000D01*
X182896120Y-53013000D01*
X184107630Y-53013000D01*
X184100000Y-53051358D01*
X184100000Y-53228642D01*
X184107630Y-53267000D01*
X182896121Y-53267000D01*
X182935497Y-53515609D01*
X183013513Y-53755717D01*
X183013516Y-53755723D01*
X183128138Y-53980682D01*
X183276539Y-54184938D01*
X183276541Y-54184941D01*
X183455058Y-54363458D01*
X183455061Y-54363460D01*
X183659317Y-54511861D01*
X183884276Y-54626483D01*
X183884282Y-54626486D01*
X184124390Y-54704502D01*
X184373765Y-54744000D01*
X184873000Y-54744000D01*
X184873000Y-54032370D01*
X184911358Y-54040000D01*
X185088642Y-54040000D01*
X185127000Y-54032370D01*
X185127000Y-54744000D01*
X185626235Y-54744000D01*
X185875609Y-54704502D01*
X186115717Y-54626486D01*
X186115723Y-54626483D01*
X186340682Y-54511861D01*
X186544938Y-54363460D01*
X186544941Y-54363458D01*
X186723458Y-54184941D01*
X186723460Y-54184938D01*
X186871861Y-53980682D01*
X186986483Y-53755723D01*
X186986486Y-53755717D01*
X187064502Y-53515609D01*
X187103879Y-53267000D01*
X185892370Y-53267000D01*
X185900000Y-53228642D01*
X185900000Y-53051358D01*
X185892370Y-53013000D01*
X187103879Y-53013000D01*
X188396120Y-53013000D01*
X189607630Y-53013000D01*
X189600000Y-53051358D01*
X189600000Y-53228642D01*
X189607630Y-53267000D01*
X188396121Y-53267000D01*
X188435497Y-53515609D01*
X188513513Y-53755717D01*
X188513516Y-53755723D01*
X188628138Y-53980682D01*
X188776539Y-54184938D01*
X188776541Y-54184941D01*
X188955058Y-54363458D01*
X188955061Y-54363460D01*
X189159317Y-54511861D01*
X189384276Y-54626483D01*
X189384282Y-54626486D01*
X189624390Y-54704502D01*
X189873765Y-54744000D01*
X190373000Y-54744000D01*
X190373000Y-54032370D01*
X190411358Y-54040000D01*
X190588642Y-54040000D01*
X190627000Y-54032370D01*
X190627000Y-54744000D01*
X191126235Y-54744000D01*
X191375609Y-54704502D01*
X191615717Y-54626486D01*
X191615723Y-54626483D01*
X191840682Y-54511861D01*
X192044938Y-54363460D01*
X192044941Y-54363458D01*
X192223458Y-54184941D01*
X192223460Y-54184938D01*
X192371861Y-53980682D01*
X192486483Y-53755723D01*
X192486486Y-53755717D01*
X192564502Y-53515609D01*
X192603879Y-53267000D01*
X191392370Y-53267000D01*
X191400000Y-53228642D01*
X191400000Y-53051358D01*
X191392370Y-53013000D01*
X192603879Y-53013000D01*
X192564502Y-52764390D01*
X192486486Y-52524282D01*
X192486483Y-52524276D01*
X192371861Y-52299317D01*
X192223460Y-52095061D01*
X192223458Y-52095058D01*
X192044941Y-51916541D01*
X192044938Y-51916539D01*
X191840682Y-51768138D01*
X191615723Y-51653516D01*
X191615717Y-51653513D01*
X191375609Y-51575497D01*
X191126235Y-51536000D01*
X190627000Y-51536000D01*
X190627000Y-52247629D01*
X190588642Y-52240000D01*
X190411358Y-52240000D01*
X190373000Y-52247629D01*
X190373000Y-51536000D01*
X189873765Y-51536000D01*
X189624390Y-51575497D01*
X189384282Y-51653513D01*
X189384276Y-51653516D01*
X189159317Y-51768138D01*
X188955061Y-51916539D01*
X188955058Y-51916541D01*
X188776541Y-52095058D01*
X188776539Y-52095061D01*
X188628138Y-52299317D01*
X188513516Y-52524276D01*
X188513513Y-52524282D01*
X188435497Y-52764390D01*
X188396120Y-53013000D01*
X187103879Y-53013000D01*
X187064502Y-52764390D01*
X186986486Y-52524282D01*
X186986483Y-52524276D01*
X186871861Y-52299317D01*
X186723460Y-52095061D01*
X186723458Y-52095058D01*
X186544941Y-51916541D01*
X186544938Y-51916539D01*
X186340682Y-51768138D01*
X186115723Y-51653516D01*
X186115717Y-51653513D01*
X185875609Y-51575497D01*
X185626235Y-51536000D01*
X185127000Y-51536000D01*
X185127000Y-52247629D01*
X185088642Y-52240000D01*
X184911358Y-52240000D01*
X184873000Y-52247629D01*
X184873000Y-51536000D01*
X184373765Y-51536000D01*
X184124390Y-51575497D01*
X183884282Y-51653513D01*
X183884276Y-51653516D01*
X183659317Y-51768138D01*
X183455061Y-51916539D01*
X183455058Y-51916541D01*
X183276541Y-52095058D01*
X183276539Y-52095061D01*
X183128138Y-52299317D01*
X183013516Y-52524276D01*
X183013513Y-52524282D01*
X182935497Y-52764390D01*
X182896120Y-53013000D01*
X175961500Y-53013000D01*
X175961500Y-52339775D01*
X175935501Y-52242746D01*
X175935499Y-52242743D01*
X175935499Y-52242741D01*
X175885278Y-52155756D01*
X175885274Y-52155751D01*
X175814247Y-52084724D01*
X175814245Y-52084722D01*
X175678405Y-51948882D01*
X175644379Y-51886570D01*
X175641500Y-51859787D01*
X175641500Y-50749776D01*
X175641500Y-50749775D01*
X175615501Y-50652746D01*
X175615499Y-50652743D01*
X175615499Y-50652741D01*
X175565278Y-50565756D01*
X175565270Y-50565746D01*
X175489858Y-50490334D01*
X175489835Y-50490313D01*
X173812523Y-48813000D01*
X182896120Y-48813000D01*
X184107630Y-48813000D01*
X184100000Y-48851358D01*
X184100000Y-49028642D01*
X184107630Y-49067000D01*
X182896121Y-49067000D01*
X182935497Y-49315609D01*
X183013513Y-49555717D01*
X183013516Y-49555723D01*
X183128138Y-49780682D01*
X183276539Y-49984938D01*
X183276541Y-49984941D01*
X183455058Y-50163458D01*
X183455061Y-50163460D01*
X183659317Y-50311861D01*
X183884276Y-50426483D01*
X183884282Y-50426486D01*
X184124390Y-50504502D01*
X184373765Y-50544000D01*
X184873000Y-50544000D01*
X184873000Y-49832370D01*
X184911358Y-49840000D01*
X185088642Y-49840000D01*
X185127000Y-49832370D01*
X185127000Y-50544000D01*
X185626235Y-50544000D01*
X185875609Y-50504502D01*
X186115717Y-50426486D01*
X186115723Y-50426483D01*
X186340682Y-50311861D01*
X186544938Y-50163460D01*
X186544941Y-50163458D01*
X186723458Y-49984941D01*
X186723460Y-49984938D01*
X186871861Y-49780682D01*
X186986483Y-49555723D01*
X186986486Y-49555717D01*
X187064502Y-49315609D01*
X187103879Y-49067000D01*
X185892370Y-49067000D01*
X185900000Y-49028642D01*
X185900000Y-48851358D01*
X185892514Y-48813723D01*
X188395500Y-48813723D01*
X188395500Y-49066277D01*
X188435009Y-49315721D01*
X188513052Y-49555914D01*
X188627709Y-49780941D01*
X188776156Y-49985261D01*
X188776158Y-49985263D01*
X188776160Y-49985266D01*
X188954733Y-50163839D01*
X188954736Y-50163841D01*
X188954739Y-50163844D01*
X189159059Y-50312291D01*
X189384086Y-50426948D01*
X189624279Y-50504991D01*
X189873723Y-50544500D01*
X189873726Y-50544500D01*
X191126274Y-50544500D01*
X191126277Y-50544500D01*
X191375721Y-50504991D01*
X191615914Y-50426948D01*
X191840941Y-50312291D01*
X192045261Y-50163844D01*
X192223844Y-49985261D01*
X192372291Y-49780941D01*
X192486948Y-49555914D01*
X192564991Y-49315721D01*
X192604500Y-49066277D01*
X192604500Y-48813723D01*
X192564991Y-48564279D01*
X192486948Y-48324086D01*
X192372291Y-48099059D01*
X192223844Y-47894739D01*
X192223841Y-47894736D01*
X192223839Y-47894733D01*
X192045266Y-47716160D01*
X192045263Y-47716158D01*
X192045261Y-47716156D01*
X191891458Y-47604412D01*
X191840944Y-47567711D01*
X191840943Y-47567710D01*
X191840941Y-47567709D01*
X191615914Y-47453052D01*
X191615911Y-47453051D01*
X191615909Y-47453050D01*
X191375725Y-47375010D01*
X191375723Y-47375009D01*
X191375721Y-47375009D01*
X191126277Y-47335500D01*
X189873723Y-47335500D01*
X189624279Y-47375009D01*
X189624277Y-47375009D01*
X189624274Y-47375010D01*
X189384090Y-47453050D01*
X189384084Y-47453053D01*
X189159055Y-47567711D01*
X188954736Y-47716158D01*
X188954733Y-47716160D01*
X188776160Y-47894733D01*
X188776158Y-47894736D01*
X188627711Y-48099055D01*
X188513053Y-48324084D01*
X188513050Y-48324090D01*
X188435010Y-48564274D01*
X188435009Y-48564277D01*
X188435009Y-48564279D01*
X188395500Y-48813723D01*
X185892514Y-48813723D01*
X185892370Y-48813000D01*
X187103879Y-48813000D01*
X187064502Y-48564390D01*
X186986486Y-48324282D01*
X186986483Y-48324276D01*
X186871861Y-48099317D01*
X186723460Y-47895061D01*
X186723458Y-47895058D01*
X186544941Y-47716541D01*
X186544938Y-47716539D01*
X186340682Y-47568138D01*
X186115723Y-47453516D01*
X186115717Y-47453513D01*
X185875609Y-47375497D01*
X185626235Y-47336000D01*
X185127000Y-47336000D01*
X185127000Y-48047629D01*
X185088642Y-48040000D01*
X184911358Y-48040000D01*
X184873000Y-48047629D01*
X184873000Y-47336000D01*
X184373765Y-47336000D01*
X184124390Y-47375497D01*
X183884282Y-47453513D01*
X183884276Y-47453516D01*
X183659317Y-47568138D01*
X183455061Y-47716539D01*
X183455058Y-47716541D01*
X183276541Y-47895058D01*
X183276539Y-47895061D01*
X183128138Y-48099317D01*
X183013516Y-48324276D01*
X183013513Y-48324282D01*
X182935497Y-48564390D01*
X182896120Y-48813000D01*
X173812523Y-48813000D01*
X172954251Y-47954727D01*
X172954244Y-47954722D01*
X172950541Y-47952584D01*
X172867258Y-47904500D01*
X172832031Y-47895061D01*
X172770225Y-47878500D01*
X172770223Y-47878500D01*
X158960213Y-47878500D01*
X158892092Y-47858498D01*
X158871118Y-47841595D01*
X155642523Y-44613000D01*
X182896120Y-44613000D01*
X184107630Y-44613000D01*
X184100000Y-44651358D01*
X184100000Y-44828642D01*
X184107630Y-44867000D01*
X182896121Y-44867000D01*
X182935497Y-45115609D01*
X183013513Y-45355717D01*
X183013516Y-45355723D01*
X183128138Y-45580682D01*
X183276539Y-45784938D01*
X183276541Y-45784941D01*
X183455058Y-45963458D01*
X183455061Y-45963460D01*
X183659317Y-46111861D01*
X183884276Y-46226483D01*
X183884282Y-46226486D01*
X184124390Y-46304502D01*
X184373765Y-46344000D01*
X184873000Y-46344000D01*
X184873000Y-45632370D01*
X184911358Y-45640000D01*
X185088642Y-45640000D01*
X185127000Y-45632370D01*
X185127000Y-46344000D01*
X185626235Y-46344000D01*
X185875609Y-46304502D01*
X186115717Y-46226486D01*
X186115723Y-46226483D01*
X186340682Y-46111861D01*
X186544938Y-45963460D01*
X186544941Y-45963458D01*
X186723458Y-45784941D01*
X186723460Y-45784938D01*
X186871861Y-45580682D01*
X186986483Y-45355723D01*
X186986486Y-45355717D01*
X187064502Y-45115609D01*
X187103879Y-44867000D01*
X185892370Y-44867000D01*
X185900000Y-44828642D01*
X185900000Y-44651358D01*
X185892370Y-44613000D01*
X187103879Y-44613000D01*
X188396120Y-44613000D01*
X189607630Y-44613000D01*
X189600000Y-44651358D01*
X189600000Y-44828642D01*
X189607630Y-44867000D01*
X188396121Y-44867000D01*
X188435497Y-45115609D01*
X188513513Y-45355717D01*
X188513516Y-45355723D01*
X188628138Y-45580682D01*
X188776539Y-45784938D01*
X188776541Y-45784941D01*
X188955058Y-45963458D01*
X188955061Y-45963460D01*
X189159317Y-46111861D01*
X189384276Y-46226483D01*
X189384282Y-46226486D01*
X189624390Y-46304502D01*
X189873765Y-46344000D01*
X190373000Y-46344000D01*
X190373000Y-45632370D01*
X190411358Y-45640000D01*
X190588642Y-45640000D01*
X190627000Y-45632370D01*
X190627000Y-46344000D01*
X191126235Y-46344000D01*
X191375609Y-46304502D01*
X191615717Y-46226486D01*
X191615723Y-46226483D01*
X191840682Y-46111861D01*
X192044938Y-45963460D01*
X192044941Y-45963458D01*
X192223458Y-45784941D01*
X192223460Y-45784938D01*
X192371861Y-45580682D01*
X192486483Y-45355723D01*
X192486486Y-45355717D01*
X192564502Y-45115609D01*
X192603879Y-44867000D01*
X191392370Y-44867000D01*
X191400000Y-44828642D01*
X191400000Y-44651358D01*
X191392370Y-44613000D01*
X192603879Y-44613000D01*
X192564502Y-44364390D01*
X192486486Y-44124282D01*
X192486483Y-44124276D01*
X192371861Y-43899317D01*
X192223460Y-43695061D01*
X192223458Y-43695058D01*
X192044941Y-43516541D01*
X192044938Y-43516539D01*
X191840682Y-43368138D01*
X191615723Y-43253516D01*
X191615717Y-43253513D01*
X191375609Y-43175497D01*
X191126235Y-43136000D01*
X190627000Y-43136000D01*
X190627000Y-43847629D01*
X190588642Y-43840000D01*
X190411358Y-43840000D01*
X190373000Y-43847629D01*
X190373000Y-43136000D01*
X189873765Y-43136000D01*
X189624390Y-43175497D01*
X189384282Y-43253513D01*
X189384276Y-43253516D01*
X189159317Y-43368138D01*
X188955061Y-43516539D01*
X188955058Y-43516541D01*
X188776541Y-43695058D01*
X188776539Y-43695061D01*
X188628138Y-43899317D01*
X188513516Y-44124276D01*
X188513513Y-44124282D01*
X188435497Y-44364390D01*
X188396120Y-44613000D01*
X187103879Y-44613000D01*
X187064502Y-44364390D01*
X186986486Y-44124282D01*
X186986483Y-44124276D01*
X186871861Y-43899317D01*
X186723460Y-43695061D01*
X186723458Y-43695058D01*
X186544941Y-43516541D01*
X186544938Y-43516539D01*
X186340682Y-43368138D01*
X186115723Y-43253516D01*
X186115717Y-43253513D01*
X185875609Y-43175497D01*
X185626235Y-43136000D01*
X185127000Y-43136000D01*
X185127000Y-43847629D01*
X185088642Y-43840000D01*
X184911358Y-43840000D01*
X184873000Y-43847629D01*
X184873000Y-43136000D01*
X184373765Y-43136000D01*
X184124390Y-43175497D01*
X183884282Y-43253513D01*
X183884276Y-43253516D01*
X183659317Y-43368138D01*
X183455061Y-43516539D01*
X183455058Y-43516541D01*
X183276541Y-43695058D01*
X183276539Y-43695061D01*
X183128138Y-43899317D01*
X183013516Y-44124276D01*
X183013513Y-44124282D01*
X182935497Y-44364390D01*
X182896120Y-44613000D01*
X155642523Y-44613000D01*
X152818405Y-41788882D01*
X152784379Y-41726570D01*
X152781500Y-41699787D01*
X152781500Y-40413723D01*
X182895500Y-40413723D01*
X182895500Y-40666277D01*
X182935009Y-40915721D01*
X183013052Y-41155914D01*
X183127709Y-41380941D01*
X183276156Y-41585261D01*
X183276158Y-41585263D01*
X183276160Y-41585266D01*
X183454733Y-41763839D01*
X183454736Y-41763841D01*
X183454739Y-41763844D01*
X183659059Y-41912291D01*
X183884086Y-42026948D01*
X184124279Y-42104991D01*
X184373723Y-42144500D01*
X184373726Y-42144500D01*
X185626274Y-42144500D01*
X185626277Y-42144500D01*
X185875721Y-42104991D01*
X186115914Y-42026948D01*
X186340941Y-41912291D01*
X186545261Y-41763844D01*
X186723844Y-41585261D01*
X186872291Y-41380941D01*
X186986948Y-41155914D01*
X187064991Y-40915721D01*
X187104500Y-40666277D01*
X187104500Y-40413723D01*
X188395500Y-40413723D01*
X188395500Y-40666277D01*
X188435009Y-40915721D01*
X188513052Y-41155914D01*
X188627709Y-41380941D01*
X188776156Y-41585261D01*
X188776158Y-41585263D01*
X188776160Y-41585266D01*
X188954733Y-41763839D01*
X188954736Y-41763841D01*
X188954739Y-41763844D01*
X189159059Y-41912291D01*
X189384086Y-42026948D01*
X189624279Y-42104991D01*
X189873723Y-42144500D01*
X189873726Y-42144500D01*
X191126274Y-42144500D01*
X191126277Y-42144500D01*
X191375721Y-42104991D01*
X191615914Y-42026948D01*
X191840941Y-41912291D01*
X192045261Y-41763844D01*
X192223844Y-41585261D01*
X192372291Y-41380941D01*
X192486948Y-41155914D01*
X192564991Y-40915721D01*
X192604500Y-40666277D01*
X192604500Y-40413723D01*
X192564991Y-40164279D01*
X192486948Y-39924086D01*
X192372291Y-39699059D01*
X192223844Y-39494739D01*
X192223841Y-39494736D01*
X192223839Y-39494733D01*
X192045266Y-39316160D01*
X192045263Y-39316158D01*
X192045261Y-39316156D01*
X191871256Y-39189734D01*
X191840944Y-39167711D01*
X191840943Y-39167710D01*
X191840941Y-39167709D01*
X191615914Y-39053052D01*
X191615911Y-39053051D01*
X191615909Y-39053050D01*
X191375725Y-38975010D01*
X191375723Y-38975009D01*
X191375721Y-38975009D01*
X191126277Y-38935500D01*
X189873723Y-38935500D01*
X189624279Y-38975009D01*
X189624277Y-38975009D01*
X189624274Y-38975010D01*
X189384090Y-39053050D01*
X189384084Y-39053053D01*
X189159055Y-39167711D01*
X188954736Y-39316158D01*
X188954733Y-39316160D01*
X188776160Y-39494733D01*
X188776158Y-39494736D01*
X188627711Y-39699055D01*
X188513053Y-39924084D01*
X188513050Y-39924090D01*
X188435010Y-40164274D01*
X188435009Y-40164277D01*
X188435009Y-40164279D01*
X188395500Y-40413723D01*
X187104500Y-40413723D01*
X187064991Y-40164279D01*
X186986948Y-39924086D01*
X186872291Y-39699059D01*
X186723844Y-39494739D01*
X186723841Y-39494736D01*
X186723839Y-39494733D01*
X186545266Y-39316160D01*
X186545263Y-39316158D01*
X186545261Y-39316156D01*
X186371256Y-39189734D01*
X186340944Y-39167711D01*
X186340943Y-39167710D01*
X186340941Y-39167709D01*
X186115914Y-39053052D01*
X186115911Y-39053051D01*
X186115909Y-39053050D01*
X185875725Y-38975010D01*
X185875723Y-38975009D01*
X185875721Y-38975009D01*
X185626277Y-38935500D01*
X184373723Y-38935500D01*
X184124279Y-38975009D01*
X184124277Y-38975009D01*
X184124274Y-38975010D01*
X183884090Y-39053050D01*
X183884084Y-39053053D01*
X183659055Y-39167711D01*
X183454736Y-39316158D01*
X183454733Y-39316160D01*
X183276160Y-39494733D01*
X183276158Y-39494736D01*
X183127711Y-39699055D01*
X183013053Y-39924084D01*
X183013050Y-39924090D01*
X182935010Y-40164274D01*
X182935009Y-40164277D01*
X182935009Y-40164279D01*
X182895500Y-40413723D01*
X152781500Y-40413723D01*
X152781500Y-39223004D01*
X152801502Y-39154883D01*
X152855158Y-39108390D01*
X152861983Y-39105513D01*
X152866998Y-39103569D01*
X152894427Y-39092944D01*
X153068462Y-38985186D01*
X153219732Y-38847285D01*
X153343088Y-38683935D01*
X153434328Y-38500701D01*
X153490345Y-38303821D01*
X153509232Y-38100000D01*
X153509232Y-38099995D01*
X153830768Y-38099995D01*
X153830768Y-38100004D01*
X153849654Y-38303819D01*
X153905671Y-38500698D01*
X153905672Y-38500701D01*
X153996912Y-38683935D01*
X153996913Y-38683936D01*
X154120266Y-38847284D01*
X154271536Y-38985185D01*
X154445566Y-39092940D01*
X154445568Y-39092940D01*
X154445573Y-39092944D01*
X154636444Y-39166888D01*
X154837653Y-39204500D01*
X154837655Y-39204500D01*
X155042345Y-39204500D01*
X155042347Y-39204500D01*
X155243556Y-39166888D01*
X155434427Y-39092944D01*
X155608462Y-38985186D01*
X155759732Y-38847285D01*
X155883088Y-38683935D01*
X155974328Y-38500701D01*
X156030345Y-38303821D01*
X156049232Y-38100000D01*
X156049232Y-38099995D01*
X156370768Y-38099995D01*
X156370768Y-38100004D01*
X156389654Y-38303819D01*
X156445671Y-38500698D01*
X156445672Y-38500701D01*
X156536912Y-38683935D01*
X156536913Y-38683936D01*
X156660266Y-38847284D01*
X156811536Y-38985185D01*
X156985566Y-39092940D01*
X156985568Y-39092940D01*
X156985573Y-39092944D01*
X157176444Y-39166888D01*
X157377653Y-39204500D01*
X157377655Y-39204500D01*
X157582345Y-39204500D01*
X157582347Y-39204500D01*
X157783556Y-39166888D01*
X157974427Y-39092944D01*
X158148462Y-38985186D01*
X158299732Y-38847285D01*
X158423088Y-38683935D01*
X158514328Y-38500701D01*
X158570345Y-38303821D01*
X158589232Y-38100000D01*
X158589232Y-38099995D01*
X158910768Y-38099995D01*
X158910768Y-38100004D01*
X158929654Y-38303819D01*
X158985671Y-38500698D01*
X158985672Y-38500701D01*
X159076912Y-38683935D01*
X159076913Y-38683936D01*
X159200266Y-38847284D01*
X159351536Y-38985185D01*
X159525566Y-39092940D01*
X159525568Y-39092940D01*
X159525573Y-39092944D01*
X159716444Y-39166888D01*
X159917653Y-39204500D01*
X159917655Y-39204500D01*
X160122345Y-39204500D01*
X160122347Y-39204500D01*
X160323556Y-39166888D01*
X160514427Y-39092944D01*
X160688462Y-38985186D01*
X160839732Y-38847285D01*
X160963088Y-38683935D01*
X161054328Y-38500701D01*
X161110345Y-38303821D01*
X161129232Y-38100000D01*
X161129232Y-38099995D01*
X161450768Y-38099995D01*
X161450768Y-38100004D01*
X161469654Y-38303819D01*
X161525671Y-38500698D01*
X161525672Y-38500701D01*
X161616912Y-38683935D01*
X161616913Y-38683936D01*
X161740266Y-38847284D01*
X161891536Y-38985185D01*
X162065566Y-39092940D01*
X162065568Y-39092940D01*
X162065573Y-39092944D01*
X162256444Y-39166888D01*
X162457653Y-39204500D01*
X162457655Y-39204500D01*
X162662345Y-39204500D01*
X162662347Y-39204500D01*
X162863556Y-39166888D01*
X163054427Y-39092944D01*
X163228462Y-38985186D01*
X163379732Y-38847285D01*
X163503088Y-38683935D01*
X163594328Y-38500701D01*
X163650345Y-38303821D01*
X163669232Y-38100000D01*
X163669232Y-38099995D01*
X163990768Y-38099995D01*
X163990768Y-38100004D01*
X164009654Y-38303819D01*
X164065671Y-38500698D01*
X164065672Y-38500701D01*
X164156912Y-38683935D01*
X164156913Y-38683936D01*
X164280266Y-38847284D01*
X164431536Y-38985185D01*
X164605566Y-39092940D01*
X164605568Y-39092940D01*
X164605573Y-39092944D01*
X164796444Y-39166888D01*
X164997653Y-39204500D01*
X164997655Y-39204500D01*
X165202345Y-39204500D01*
X165202347Y-39204500D01*
X165403556Y-39166888D01*
X165594427Y-39092944D01*
X165768462Y-38985186D01*
X165919732Y-38847285D01*
X166043088Y-38683935D01*
X166134328Y-38500701D01*
X166190345Y-38303821D01*
X166209232Y-38100000D01*
X166203166Y-38034543D01*
X166190345Y-37896180D01*
X166190345Y-37896179D01*
X166134328Y-37699299D01*
X166043088Y-37516065D01*
X166002538Y-37462368D01*
X165919733Y-37352715D01*
X165768463Y-37214814D01*
X165594433Y-37107059D01*
X165594428Y-37107057D01*
X165594427Y-37107056D01*
X165554554Y-37091609D01*
X165403559Y-37033113D01*
X165403560Y-37033113D01*
X165403557Y-37033112D01*
X165403556Y-37033112D01*
X165202347Y-36995500D01*
X164997653Y-36995500D01*
X164796444Y-37033112D01*
X164796439Y-37033113D01*
X164605577Y-37107054D01*
X164605566Y-37107059D01*
X164431536Y-37214814D01*
X164280266Y-37352715D01*
X164156913Y-37516063D01*
X164065671Y-37699301D01*
X164009654Y-37896180D01*
X163990768Y-38099995D01*
X163669232Y-38099995D01*
X163663166Y-38034543D01*
X163650345Y-37896180D01*
X163650345Y-37896179D01*
X163594328Y-37699299D01*
X163503088Y-37516065D01*
X163462538Y-37462368D01*
X163379733Y-37352715D01*
X163228463Y-37214814D01*
X163054433Y-37107059D01*
X163054428Y-37107057D01*
X163054427Y-37107056D01*
X163014554Y-37091609D01*
X162863559Y-37033113D01*
X162863560Y-37033113D01*
X162863557Y-37033112D01*
X162863556Y-37033112D01*
X162662347Y-36995500D01*
X162457653Y-36995500D01*
X162256444Y-37033112D01*
X162256439Y-37033113D01*
X162065577Y-37107054D01*
X162065566Y-37107059D01*
X161891536Y-37214814D01*
X161740266Y-37352715D01*
X161616913Y-37516063D01*
X161525671Y-37699301D01*
X161469654Y-37896180D01*
X161450768Y-38099995D01*
X161129232Y-38099995D01*
X161123166Y-38034543D01*
X161110345Y-37896180D01*
X161110345Y-37896179D01*
X161054328Y-37699299D01*
X160963088Y-37516065D01*
X160922538Y-37462368D01*
X160839733Y-37352715D01*
X160688463Y-37214814D01*
X160514433Y-37107059D01*
X160514428Y-37107057D01*
X160514427Y-37107056D01*
X160474554Y-37091609D01*
X160323559Y-37033113D01*
X160323560Y-37033113D01*
X160323557Y-37033112D01*
X160323556Y-37033112D01*
X160122347Y-36995500D01*
X159917653Y-36995500D01*
X159716444Y-37033112D01*
X159716439Y-37033113D01*
X159525577Y-37107054D01*
X159525566Y-37107059D01*
X159351536Y-37214814D01*
X159200266Y-37352715D01*
X159076913Y-37516063D01*
X158985671Y-37699301D01*
X158929654Y-37896180D01*
X158910768Y-38099995D01*
X158589232Y-38099995D01*
X158583166Y-38034543D01*
X158570345Y-37896180D01*
X158570345Y-37896179D01*
X158514328Y-37699299D01*
X158423088Y-37516065D01*
X158382538Y-37462368D01*
X158299733Y-37352715D01*
X158148463Y-37214814D01*
X157974433Y-37107059D01*
X157974428Y-37107057D01*
X157974427Y-37107056D01*
X157934554Y-37091609D01*
X157783559Y-37033113D01*
X157783560Y-37033113D01*
X157783557Y-37033112D01*
X157783556Y-37033112D01*
X157582347Y-36995500D01*
X157377653Y-36995500D01*
X157176444Y-37033112D01*
X157176439Y-37033113D01*
X156985577Y-37107054D01*
X156985566Y-37107059D01*
X156811536Y-37214814D01*
X156660266Y-37352715D01*
X156536913Y-37516063D01*
X156445671Y-37699301D01*
X156389654Y-37896180D01*
X156370768Y-38099995D01*
X156049232Y-38099995D01*
X156043166Y-38034543D01*
X156030345Y-37896180D01*
X156030345Y-37896179D01*
X155974328Y-37699299D01*
X155883088Y-37516065D01*
X155842538Y-37462368D01*
X155759733Y-37352715D01*
X155608463Y-37214814D01*
X155434433Y-37107059D01*
X155434428Y-37107057D01*
X155434427Y-37107056D01*
X155394554Y-37091609D01*
X155243559Y-37033113D01*
X155243560Y-37033113D01*
X155243557Y-37033112D01*
X155243556Y-37033112D01*
X155042347Y-36995500D01*
X154837653Y-36995500D01*
X154636444Y-37033112D01*
X154636439Y-37033113D01*
X154445577Y-37107054D01*
X154445566Y-37107059D01*
X154271536Y-37214814D01*
X154120266Y-37352715D01*
X153996913Y-37516063D01*
X153905671Y-37699301D01*
X153849654Y-37896180D01*
X153830768Y-38099995D01*
X153509232Y-38099995D01*
X153503166Y-38034543D01*
X153490345Y-37896180D01*
X153490345Y-37896179D01*
X153434328Y-37699299D01*
X153343088Y-37516065D01*
X153302538Y-37462368D01*
X153219733Y-37352715D01*
X153068463Y-37214814D01*
X152894433Y-37107059D01*
X152894428Y-37107057D01*
X152894427Y-37107056D01*
X152854554Y-37091609D01*
X152703559Y-37033113D01*
X152703560Y-37033113D01*
X152703557Y-37033112D01*
X152703556Y-37033112D01*
X152502347Y-36995500D01*
X152297653Y-36995500D01*
X152096444Y-37033112D01*
X152096439Y-37033113D01*
X151905577Y-37107054D01*
X151905566Y-37107059D01*
X151731536Y-37214814D01*
X151580266Y-37352715D01*
X151456913Y-37516063D01*
X151365671Y-37699301D01*
X151309654Y-37896180D01*
X151290768Y-38099995D01*
X150969232Y-38099995D01*
X150963166Y-38034543D01*
X150950345Y-37896180D01*
X150950345Y-37896179D01*
X150894328Y-37699299D01*
X150803088Y-37516065D01*
X150762538Y-37462368D01*
X150679733Y-37352715D01*
X150528463Y-37214814D01*
X150354433Y-37107059D01*
X150354428Y-37107057D01*
X150354427Y-37107056D01*
X150314554Y-37091609D01*
X150163559Y-37033113D01*
X150163560Y-37033113D01*
X150163557Y-37033112D01*
X150163556Y-37033112D01*
X149962347Y-36995500D01*
X149757653Y-36995500D01*
X149556444Y-37033112D01*
X149556439Y-37033113D01*
X149365577Y-37107054D01*
X149365566Y-37107059D01*
X149191536Y-37214814D01*
X149040266Y-37352715D01*
X148916913Y-37516063D01*
X148825671Y-37699301D01*
X148769654Y-37896180D01*
X148750768Y-38099995D01*
X148429232Y-38099995D01*
X148423166Y-38034543D01*
X148410345Y-37896180D01*
X148410345Y-37896179D01*
X148354328Y-37699299D01*
X148263088Y-37516065D01*
X148222538Y-37462368D01*
X148139733Y-37352715D01*
X147988463Y-37214814D01*
X147814430Y-37107058D01*
X147814427Y-37107056D01*
X147814425Y-37107055D01*
X147814423Y-37107054D01*
X147781982Y-37094486D01*
X147725687Y-37051225D01*
X147701718Y-36984397D01*
X147701500Y-36976995D01*
X147701500Y-35516212D01*
X147721502Y-35448091D01*
X147738405Y-35427117D01*
X148965117Y-34200405D01*
X149027429Y-34166379D01*
X149054212Y-34163500D01*
X154736223Y-34163500D01*
X154736225Y-34163500D01*
X154833254Y-34137501D01*
X154833257Y-34137499D01*
X154833258Y-34137499D01*
X154876750Y-34112388D01*
X154920247Y-34087276D01*
X154991276Y-34016247D01*
X156476276Y-32531247D01*
X156511932Y-32469488D01*
X156516385Y-32461776D01*
X156526498Y-32444259D01*
X156526497Y-32444259D01*
X156526501Y-32444254D01*
X156552500Y-32347225D01*
X156552500Y-31414405D01*
X156572502Y-31346284D01*
X156626158Y-31299791D01*
X156696432Y-31289687D01*
X156761012Y-31319181D01*
X156763386Y-31321290D01*
X156811536Y-31365185D01*
X156985566Y-31472940D01*
X156985568Y-31472940D01*
X156985573Y-31472944D01*
X157176444Y-31546888D01*
X157377653Y-31584500D01*
X157377655Y-31584500D01*
X157582345Y-31584500D01*
X157582347Y-31584500D01*
X157783556Y-31546888D01*
X157974427Y-31472944D01*
X158148462Y-31365186D01*
X158299732Y-31227285D01*
X158423088Y-31063935D01*
X158514328Y-30880701D01*
X158570345Y-30683821D01*
X158576640Y-30615880D01*
X158589232Y-30480004D01*
X158589232Y-30479995D01*
X158910768Y-30479995D01*
X158910768Y-30480004D01*
X158929654Y-30683819D01*
X158959014Y-30787007D01*
X158985672Y-30880701D01*
X159076912Y-31063935D01*
X159076913Y-31063936D01*
X159200266Y-31227284D01*
X159351536Y-31365185D01*
X159525566Y-31472940D01*
X159525568Y-31472940D01*
X159525573Y-31472944D01*
X159716444Y-31546888D01*
X159917653Y-31584500D01*
X159917655Y-31584500D01*
X160122345Y-31584500D01*
X160122347Y-31584500D01*
X160323556Y-31546888D01*
X160514427Y-31472944D01*
X160688462Y-31365186D01*
X160839732Y-31227285D01*
X160963088Y-31063935D01*
X161054328Y-30880701D01*
X161110345Y-30683821D01*
X161116640Y-30615880D01*
X161129232Y-30480004D01*
X161129232Y-30479995D01*
X161450768Y-30479995D01*
X161450768Y-30480004D01*
X161469654Y-30683819D01*
X161499014Y-30787007D01*
X161525672Y-30880701D01*
X161616912Y-31063935D01*
X161616913Y-31063936D01*
X161740266Y-31227284D01*
X161891536Y-31365185D01*
X162065566Y-31472940D01*
X162065568Y-31472940D01*
X162065573Y-31472944D01*
X162256444Y-31546888D01*
X162457653Y-31584500D01*
X162457655Y-31584500D01*
X162662345Y-31584500D01*
X162662347Y-31584500D01*
X162863556Y-31546888D01*
X163054427Y-31472944D01*
X163228462Y-31365186D01*
X163379732Y-31227285D01*
X163503088Y-31063935D01*
X163594328Y-30880701D01*
X163650345Y-30683821D01*
X163656640Y-30615880D01*
X163669232Y-30480004D01*
X163669232Y-30479995D01*
X163990768Y-30479995D01*
X163990768Y-30480004D01*
X164009654Y-30683819D01*
X164039014Y-30787007D01*
X164065672Y-30880701D01*
X164156912Y-31063935D01*
X164156913Y-31063936D01*
X164280266Y-31227284D01*
X164431536Y-31365185D01*
X164605566Y-31472940D01*
X164605568Y-31472940D01*
X164605573Y-31472944D01*
X164796444Y-31546888D01*
X164997653Y-31584500D01*
X164997655Y-31584500D01*
X165202345Y-31584500D01*
X165202347Y-31584500D01*
X165403556Y-31546888D01*
X165594427Y-31472944D01*
X165768462Y-31365186D01*
X165919732Y-31227285D01*
X166043088Y-31063935D01*
X166134328Y-30880701D01*
X166190345Y-30683821D01*
X166196640Y-30615880D01*
X166209232Y-30480004D01*
X166209232Y-30479995D01*
X166530768Y-30479995D01*
X166530768Y-30480004D01*
X166549654Y-30683819D01*
X166579014Y-30787007D01*
X166605672Y-30880701D01*
X166696912Y-31063935D01*
X166696913Y-31063936D01*
X166820266Y-31227284D01*
X166971535Y-31365184D01*
X166971537Y-31365185D01*
X166971538Y-31365186D01*
X167071832Y-31427285D01*
X167119218Y-31480150D01*
X167131500Y-31534411D01*
X167131500Y-34858055D01*
X167131500Y-34991945D01*
X167166153Y-35121274D01*
X167166154Y-35121276D01*
X167166155Y-35121278D01*
X167233096Y-35237223D01*
X167233098Y-35237225D01*
X167233099Y-35237227D01*
X168999596Y-37003723D01*
X169033620Y-37066034D01*
X169036500Y-37092817D01*
X169036500Y-37907416D01*
X169026910Y-37955631D01*
X169024842Y-37960623D01*
X169006493Y-38099999D01*
X169006493Y-38100000D01*
X169024841Y-38239374D01*
X169078638Y-38369252D01*
X169078643Y-38369260D01*
X169164217Y-38480782D01*
X169275739Y-38566356D01*
X169275746Y-38566361D01*
X169405624Y-38620158D01*
X169545000Y-38638507D01*
X169684376Y-38620158D01*
X169814254Y-38566361D01*
X169925782Y-38480782D01*
X170011361Y-38369254D01*
X170063591Y-38243156D01*
X170108139Y-38187877D01*
X170175503Y-38165456D01*
X170244294Y-38183014D01*
X170292672Y-38234976D01*
X170296409Y-38243158D01*
X170348638Y-38369252D01*
X170348643Y-38369260D01*
X170434217Y-38480782D01*
X170545739Y-38566356D01*
X170545746Y-38566361D01*
X170675624Y-38620158D01*
X170815000Y-38638507D01*
X170954376Y-38620158D01*
X171084254Y-38566361D01*
X171195782Y-38480782D01*
X171281361Y-38369254D01*
X171335158Y-38239376D01*
X171353507Y-38100000D01*
X171335158Y-37960624D01*
X171333090Y-37955631D01*
X171323500Y-37907416D01*
X171323500Y-37022583D01*
X171333091Y-36974365D01*
X171335158Y-36969376D01*
X171353507Y-36830000D01*
X171335158Y-36690624D01*
X171281361Y-36560747D01*
X171195782Y-36449218D01*
X171195780Y-36449216D01*
X171195779Y-36449215D01*
X171084260Y-36363643D01*
X171084252Y-36363638D01*
X170954374Y-36309841D01*
X170815000Y-36291493D01*
X170675623Y-36309842D01*
X170670631Y-36311910D01*
X170622416Y-36321500D01*
X169807817Y-36321500D01*
X169739696Y-36301498D01*
X169718722Y-36284595D01*
X169647127Y-36213000D01*
X182896120Y-36213000D01*
X184107630Y-36213000D01*
X184100000Y-36251358D01*
X184100000Y-36428642D01*
X184107630Y-36467000D01*
X182896121Y-36467000D01*
X182935497Y-36715609D01*
X183013513Y-36955717D01*
X183013516Y-36955723D01*
X183128138Y-37180682D01*
X183276539Y-37384938D01*
X183276541Y-37384941D01*
X183455058Y-37563458D01*
X183455061Y-37563460D01*
X183659317Y-37711861D01*
X183884276Y-37826483D01*
X183884282Y-37826486D01*
X184124390Y-37904502D01*
X184373765Y-37944000D01*
X184873000Y-37944000D01*
X184873000Y-37232370D01*
X184911358Y-37240000D01*
X185088642Y-37240000D01*
X185127000Y-37232370D01*
X185127000Y-37944000D01*
X185626235Y-37944000D01*
X185875609Y-37904502D01*
X186115717Y-37826486D01*
X186115723Y-37826483D01*
X186340682Y-37711861D01*
X186544938Y-37563460D01*
X186544941Y-37563458D01*
X186723458Y-37384941D01*
X186723460Y-37384938D01*
X186871861Y-37180682D01*
X186986483Y-36955723D01*
X186986486Y-36955717D01*
X187064502Y-36715609D01*
X187103879Y-36467000D01*
X185892370Y-36467000D01*
X185900000Y-36428642D01*
X185900000Y-36251358D01*
X185892370Y-36213000D01*
X187103879Y-36213000D01*
X188396120Y-36213000D01*
X189607630Y-36213000D01*
X189600000Y-36251358D01*
X189600000Y-36428642D01*
X189607630Y-36467000D01*
X188396121Y-36467000D01*
X188435497Y-36715609D01*
X188513513Y-36955717D01*
X188513516Y-36955723D01*
X188628138Y-37180682D01*
X188776539Y-37384938D01*
X188776541Y-37384941D01*
X188955058Y-37563458D01*
X188955061Y-37563460D01*
X189159317Y-37711861D01*
X189384276Y-37826483D01*
X189384282Y-37826486D01*
X189624390Y-37904502D01*
X189873765Y-37944000D01*
X190373000Y-37944000D01*
X190373000Y-37232370D01*
X190411358Y-37240000D01*
X190588642Y-37240000D01*
X190627000Y-37232370D01*
X190627000Y-37944000D01*
X191126235Y-37944000D01*
X191375609Y-37904502D01*
X191615717Y-37826486D01*
X191615723Y-37826483D01*
X191840682Y-37711861D01*
X192044938Y-37563460D01*
X192044941Y-37563458D01*
X192223458Y-37384941D01*
X192223460Y-37384938D01*
X192371861Y-37180682D01*
X192486483Y-36955723D01*
X192486486Y-36955717D01*
X192564502Y-36715609D01*
X192603879Y-36467000D01*
X191392370Y-36467000D01*
X191400000Y-36428642D01*
X191400000Y-36251358D01*
X191392370Y-36213000D01*
X192603879Y-36213000D01*
X192564502Y-35964390D01*
X192486486Y-35724282D01*
X192486483Y-35724276D01*
X192371861Y-35499317D01*
X192223460Y-35295061D01*
X192223458Y-35295058D01*
X192044941Y-35116541D01*
X192044938Y-35116539D01*
X191840682Y-34968138D01*
X191615723Y-34853516D01*
X191615717Y-34853513D01*
X191375609Y-34775497D01*
X191126235Y-34736000D01*
X190627000Y-34736000D01*
X190627000Y-35447629D01*
X190588642Y-35440000D01*
X190411358Y-35440000D01*
X190373000Y-35447629D01*
X190373000Y-34736000D01*
X189873765Y-34736000D01*
X189624390Y-34775497D01*
X189384282Y-34853513D01*
X189384276Y-34853516D01*
X189159317Y-34968138D01*
X188955061Y-35116539D01*
X188955058Y-35116541D01*
X188776541Y-35295058D01*
X188776539Y-35295061D01*
X188628138Y-35499317D01*
X188513516Y-35724276D01*
X188513513Y-35724282D01*
X188435497Y-35964390D01*
X188396120Y-36213000D01*
X187103879Y-36213000D01*
X187064502Y-35964390D01*
X186986486Y-35724282D01*
X186986483Y-35724276D01*
X186871861Y-35499317D01*
X186723460Y-35295061D01*
X186723458Y-35295058D01*
X186544941Y-35116541D01*
X186544938Y-35116539D01*
X186340682Y-34968138D01*
X186115723Y-34853516D01*
X186115717Y-34853513D01*
X185875609Y-34775497D01*
X185626235Y-34736000D01*
X185127000Y-34736000D01*
X185127000Y-35447629D01*
X185088642Y-35440000D01*
X184911358Y-35440000D01*
X184873000Y-35447629D01*
X184873000Y-34736000D01*
X184373765Y-34736000D01*
X184124390Y-34775497D01*
X183884282Y-34853513D01*
X183884276Y-34853516D01*
X183659317Y-34968138D01*
X183455061Y-35116539D01*
X183455058Y-35116541D01*
X183276541Y-35295058D01*
X183276539Y-35295061D01*
X183128138Y-35499317D01*
X183013516Y-35724276D01*
X183013513Y-35724282D01*
X182935497Y-35964390D01*
X182896120Y-36213000D01*
X169647127Y-36213000D01*
X168185405Y-34751277D01*
X168151379Y-34688965D01*
X168148500Y-34662182D01*
X168148500Y-32013723D01*
X182895500Y-32013723D01*
X182895500Y-32266277D01*
X182935009Y-32515721D01*
X182935010Y-32515725D01*
X182978819Y-32650557D01*
X183013052Y-32755914D01*
X183127709Y-32980941D01*
X183276156Y-33185261D01*
X183276158Y-33185263D01*
X183276160Y-33185266D01*
X183454733Y-33363839D01*
X183454736Y-33363841D01*
X183454739Y-33363844D01*
X183659059Y-33512291D01*
X183884086Y-33626948D01*
X184124279Y-33704991D01*
X184373723Y-33744500D01*
X184373726Y-33744500D01*
X185626274Y-33744500D01*
X185626277Y-33744500D01*
X185875721Y-33704991D01*
X186115914Y-33626948D01*
X186340941Y-33512291D01*
X186545261Y-33363844D01*
X186723844Y-33185261D01*
X186872291Y-32980941D01*
X186986948Y-32755914D01*
X187064991Y-32515721D01*
X187104500Y-32266277D01*
X187104500Y-32013723D01*
X188395500Y-32013723D01*
X188395500Y-32266277D01*
X188435009Y-32515721D01*
X188435010Y-32515725D01*
X188478819Y-32650557D01*
X188513052Y-32755914D01*
X188627709Y-32980941D01*
X188776156Y-33185261D01*
X188776158Y-33185263D01*
X188776160Y-33185266D01*
X188954733Y-33363839D01*
X188954736Y-33363841D01*
X188954739Y-33363844D01*
X189159059Y-33512291D01*
X189384086Y-33626948D01*
X189624279Y-33704991D01*
X189873723Y-33744500D01*
X189873726Y-33744500D01*
X191126274Y-33744500D01*
X191126277Y-33744500D01*
X191375721Y-33704991D01*
X191615914Y-33626948D01*
X191840941Y-33512291D01*
X192045261Y-33363844D01*
X192223844Y-33185261D01*
X192372291Y-32980941D01*
X192486948Y-32755914D01*
X192564991Y-32515721D01*
X192604500Y-32266277D01*
X192604500Y-32013723D01*
X192564991Y-31764279D01*
X192486948Y-31524086D01*
X192372291Y-31299059D01*
X192223844Y-31094739D01*
X192223841Y-31094736D01*
X192223839Y-31094733D01*
X192045266Y-30916160D01*
X192045263Y-30916158D01*
X192045261Y-30916156D01*
X191891458Y-30804412D01*
X191840944Y-30767711D01*
X191840943Y-30767710D01*
X191840941Y-30767709D01*
X191615914Y-30653052D01*
X191615911Y-30653051D01*
X191615909Y-30653050D01*
X191375725Y-30575010D01*
X191375723Y-30575009D01*
X191375721Y-30575009D01*
X191126277Y-30535500D01*
X189873723Y-30535500D01*
X189624279Y-30575009D01*
X189624277Y-30575009D01*
X189624274Y-30575010D01*
X189384090Y-30653050D01*
X189384084Y-30653053D01*
X189159055Y-30767711D01*
X188954736Y-30916158D01*
X188954733Y-30916160D01*
X188776160Y-31094733D01*
X188776158Y-31094736D01*
X188627711Y-31299055D01*
X188513053Y-31524084D01*
X188513050Y-31524090D01*
X188435010Y-31764274D01*
X188435009Y-31764277D01*
X188435009Y-31764279D01*
X188395500Y-32013723D01*
X187104500Y-32013723D01*
X187064991Y-31764279D01*
X186986948Y-31524086D01*
X186872291Y-31299059D01*
X186723844Y-31094739D01*
X186723841Y-31094736D01*
X186723839Y-31094733D01*
X186545266Y-30916160D01*
X186545263Y-30916158D01*
X186545261Y-30916156D01*
X186391458Y-30804412D01*
X186340944Y-30767711D01*
X186340943Y-30767710D01*
X186340941Y-30767709D01*
X186115914Y-30653052D01*
X186115911Y-30653051D01*
X186115909Y-30653050D01*
X185875725Y-30575010D01*
X185875723Y-30575009D01*
X185875721Y-30575009D01*
X185626277Y-30535500D01*
X184373723Y-30535500D01*
X184124279Y-30575009D01*
X184124277Y-30575009D01*
X184124274Y-30575010D01*
X183884090Y-30653050D01*
X183884084Y-30653053D01*
X183659055Y-30767711D01*
X183454736Y-30916158D01*
X183454733Y-30916160D01*
X183276160Y-31094733D01*
X183276158Y-31094736D01*
X183127711Y-31299055D01*
X183013053Y-31524084D01*
X183013050Y-31524090D01*
X182935010Y-31764274D01*
X182935009Y-31764277D01*
X182935009Y-31764279D01*
X182895500Y-32013723D01*
X168148500Y-32013723D01*
X168148500Y-31534411D01*
X168168502Y-31466290D01*
X168208167Y-31427285D01*
X168308462Y-31365186D01*
X168459732Y-31227285D01*
X168583088Y-31063935D01*
X168674328Y-30880701D01*
X168730345Y-30683821D01*
X168736640Y-30615880D01*
X168749232Y-30480004D01*
X168749232Y-30479995D01*
X168737464Y-30352998D01*
X169083037Y-30352998D01*
X169083038Y-30353000D01*
X169696392Y-30353000D01*
X169680000Y-30414174D01*
X169680000Y-30545826D01*
X169696392Y-30607000D01*
X169083038Y-30607000D01*
X169083037Y-30607001D01*
X169090147Y-30683725D01*
X169146138Y-30880514D01*
X169146140Y-30880519D01*
X169237340Y-31063672D01*
X169360637Y-31226946D01*
X169511838Y-31364784D01*
X169685796Y-31472493D01*
X169685803Y-31472496D01*
X169876578Y-31546403D01*
X169876576Y-31546403D01*
X170053000Y-31579381D01*
X170053000Y-30963608D01*
X170114174Y-30980000D01*
X170245826Y-30980000D01*
X170307000Y-30963608D01*
X170307000Y-31579381D01*
X170483422Y-31546403D01*
X170674196Y-31472496D01*
X170674203Y-31472493D01*
X170848161Y-31364784D01*
X170999362Y-31226946D01*
X171122659Y-31063672D01*
X171213859Y-30880519D01*
X171213861Y-30880514D01*
X171269852Y-30683725D01*
X171276962Y-30607001D01*
X171276962Y-30607000D01*
X170663608Y-30607000D01*
X170680000Y-30545826D01*
X170680000Y-30414174D01*
X170663608Y-30353000D01*
X171276962Y-30353000D01*
X171276962Y-30352998D01*
X171269852Y-30276274D01*
X171213861Y-30079485D01*
X171213859Y-30079480D01*
X171122659Y-29896327D01*
X170999362Y-29733053D01*
X170858818Y-29604930D01*
X174155500Y-29604930D01*
X174155500Y-31355063D01*
X174155501Y-31355073D01*
X174170265Y-31429300D01*
X174226516Y-31513484D01*
X174310697Y-31569733D01*
X174310699Y-31569734D01*
X174384933Y-31584500D01*
X176135066Y-31584499D01*
X176135069Y-31584498D01*
X176135073Y-31584498D01*
X176184326Y-31574701D01*
X176209301Y-31569734D01*
X176293484Y-31513484D01*
X176349734Y-31429301D01*
X176364500Y-31355067D01*
X176364499Y-30352998D01*
X176703037Y-30352998D01*
X176703038Y-30353000D01*
X177316392Y-30353000D01*
X177300000Y-30414174D01*
X177300000Y-30545826D01*
X177316392Y-30607000D01*
X176703038Y-30607000D01*
X176703037Y-30607001D01*
X176710147Y-30683725D01*
X176766138Y-30880514D01*
X176766140Y-30880519D01*
X176857340Y-31063672D01*
X176980637Y-31226946D01*
X177131838Y-31364784D01*
X177305796Y-31472493D01*
X177305803Y-31472496D01*
X177496578Y-31546403D01*
X177496576Y-31546403D01*
X177673000Y-31579381D01*
X177673000Y-30963608D01*
X177734174Y-30980000D01*
X177865826Y-30980000D01*
X177927000Y-30963608D01*
X177927000Y-31579381D01*
X178103422Y-31546403D01*
X178294196Y-31472496D01*
X178294203Y-31472493D01*
X178468161Y-31364784D01*
X178619362Y-31226946D01*
X178742659Y-31063672D01*
X178833859Y-30880519D01*
X178833861Y-30880514D01*
X178889852Y-30683725D01*
X178896962Y-30607001D01*
X178896962Y-30607000D01*
X178283608Y-30607000D01*
X178300000Y-30545826D01*
X178300000Y-30414174D01*
X178283608Y-30353000D01*
X178896962Y-30353000D01*
X178896962Y-30352998D01*
X178889852Y-30276274D01*
X178833861Y-30079485D01*
X178833859Y-30079480D01*
X178742659Y-29896327D01*
X178619362Y-29733053D01*
X178468161Y-29595215D01*
X178294203Y-29487506D01*
X178294196Y-29487503D01*
X178103422Y-29413596D01*
X178103424Y-29413596D01*
X177927000Y-29380617D01*
X177927000Y-29996391D01*
X177865826Y-29980000D01*
X177734174Y-29980000D01*
X177673000Y-29996391D01*
X177673000Y-29380617D01*
X177496576Y-29413596D01*
X177305803Y-29487503D01*
X177305796Y-29487506D01*
X177131838Y-29595215D01*
X176980637Y-29733053D01*
X176857340Y-29896327D01*
X176766140Y-30079480D01*
X176766138Y-30079485D01*
X176710147Y-30276274D01*
X176703037Y-30352998D01*
X176364499Y-30352998D01*
X176364499Y-29604934D01*
X176364498Y-29604930D01*
X176364498Y-29604926D01*
X176349734Y-29530699D01*
X176318027Y-29483247D01*
X176293484Y-29446516D01*
X176293483Y-29446515D01*
X176209302Y-29390266D01*
X176135067Y-29375500D01*
X174384936Y-29375500D01*
X174384926Y-29375501D01*
X174310699Y-29390265D01*
X174226515Y-29446516D01*
X174170266Y-29530697D01*
X174155500Y-29604930D01*
X170858818Y-29604930D01*
X170848161Y-29595215D01*
X170674203Y-29487506D01*
X170674196Y-29487503D01*
X170483422Y-29413596D01*
X170483424Y-29413596D01*
X170307000Y-29380617D01*
X170307000Y-29996391D01*
X170245826Y-29980000D01*
X170114174Y-29980000D01*
X170053000Y-29996391D01*
X170053000Y-29380617D01*
X169876576Y-29413596D01*
X169685803Y-29487503D01*
X169685796Y-29487506D01*
X169511838Y-29595215D01*
X169360637Y-29733053D01*
X169237340Y-29896327D01*
X169146140Y-30079480D01*
X169146138Y-30079485D01*
X169090147Y-30276274D01*
X169083037Y-30352998D01*
X168737464Y-30352998D01*
X168730345Y-30276180D01*
X168701778Y-30175776D01*
X168674328Y-30079299D01*
X168583088Y-29896065D01*
X168524567Y-29818570D01*
X168459733Y-29732715D01*
X168308463Y-29594814D01*
X168134433Y-29487059D01*
X168134428Y-29487057D01*
X168134427Y-29487056D01*
X168078844Y-29465523D01*
X167943559Y-29413113D01*
X167943560Y-29413113D01*
X167943557Y-29413112D01*
X167943556Y-29413112D01*
X167742347Y-29375500D01*
X167537653Y-29375500D01*
X167336444Y-29413112D01*
X167336439Y-29413113D01*
X167145577Y-29487054D01*
X167145566Y-29487059D01*
X166971536Y-29594814D01*
X166820266Y-29732715D01*
X166696913Y-29896063D01*
X166605671Y-30079301D01*
X166549654Y-30276180D01*
X166530768Y-30479995D01*
X166209232Y-30479995D01*
X166190345Y-30276180D01*
X166161778Y-30175776D01*
X166134328Y-30079299D01*
X166043088Y-29896065D01*
X165984567Y-29818570D01*
X165919733Y-29732715D01*
X165768463Y-29594814D01*
X165594433Y-29487059D01*
X165594428Y-29487057D01*
X165594427Y-29487056D01*
X165538844Y-29465523D01*
X165403559Y-29413113D01*
X165403560Y-29413113D01*
X165403557Y-29413112D01*
X165403556Y-29413112D01*
X165202347Y-29375500D01*
X164997653Y-29375500D01*
X164796444Y-29413112D01*
X164796439Y-29413113D01*
X164605577Y-29487054D01*
X164605566Y-29487059D01*
X164431536Y-29594814D01*
X164280266Y-29732715D01*
X164156913Y-29896063D01*
X164065671Y-30079301D01*
X164009654Y-30276180D01*
X163990768Y-30479995D01*
X163669232Y-30479995D01*
X163650345Y-30276180D01*
X163621778Y-30175776D01*
X163594328Y-30079299D01*
X163503088Y-29896065D01*
X163444567Y-29818570D01*
X163379733Y-29732715D01*
X163228463Y-29594814D01*
X163054433Y-29487059D01*
X163054428Y-29487057D01*
X163054427Y-29487056D01*
X162998844Y-29465523D01*
X162863559Y-29413113D01*
X162863560Y-29413113D01*
X162863557Y-29413112D01*
X162863556Y-29413112D01*
X162662347Y-29375500D01*
X162457653Y-29375500D01*
X162256444Y-29413112D01*
X162256439Y-29413113D01*
X162065577Y-29487054D01*
X162065566Y-29487059D01*
X161891536Y-29594814D01*
X161740266Y-29732715D01*
X161616913Y-29896063D01*
X161525671Y-30079301D01*
X161469654Y-30276180D01*
X161450768Y-30479995D01*
X161129232Y-30479995D01*
X161110345Y-30276180D01*
X161081778Y-30175776D01*
X161054328Y-30079299D01*
X160963088Y-29896065D01*
X160904567Y-29818570D01*
X160839733Y-29732715D01*
X160688463Y-29594814D01*
X160514433Y-29487059D01*
X160514428Y-29487057D01*
X160514427Y-29487056D01*
X160458844Y-29465523D01*
X160323559Y-29413113D01*
X160323560Y-29413113D01*
X160323557Y-29413112D01*
X160323556Y-29413112D01*
X160122347Y-29375500D01*
X159917653Y-29375500D01*
X159716444Y-29413112D01*
X159716439Y-29413113D01*
X159525577Y-29487054D01*
X159525566Y-29487059D01*
X159351536Y-29594814D01*
X159200266Y-29732715D01*
X159076913Y-29896063D01*
X158985671Y-30079301D01*
X158929654Y-30276180D01*
X158910768Y-30479995D01*
X158589232Y-30479995D01*
X158570345Y-30276180D01*
X158541778Y-30175776D01*
X158514328Y-30079299D01*
X158423088Y-29896065D01*
X158364567Y-29818570D01*
X158299733Y-29732715D01*
X158148463Y-29594814D01*
X157974433Y-29487059D01*
X157974428Y-29487057D01*
X157974427Y-29487056D01*
X157918844Y-29465523D01*
X157783559Y-29413113D01*
X157783560Y-29413113D01*
X157783557Y-29413112D01*
X157783556Y-29413112D01*
X157582347Y-29375500D01*
X157377653Y-29375500D01*
X157176444Y-29413112D01*
X157176439Y-29413113D01*
X156985577Y-29487054D01*
X156985566Y-29487059D01*
X156811536Y-29594814D01*
X156763385Y-29638710D01*
X156699567Y-29669820D01*
X156629061Y-29661490D01*
X156574252Y-29616363D01*
X156552540Y-29548768D01*
X156552500Y-29545594D01*
X156552500Y-29120776D01*
X156543786Y-29088254D01*
X156526502Y-29023747D01*
X156526500Y-29023744D01*
X156526500Y-29023742D01*
X156476278Y-28936756D01*
X156476273Y-28936750D01*
X156263091Y-28723568D01*
X156005840Y-28466317D01*
X155971817Y-28404007D01*
X155973747Y-28342743D01*
X155981435Y-28315721D01*
X156030345Y-28143821D01*
X156049232Y-27940000D01*
X156030345Y-27736179D01*
X155974328Y-27539299D01*
X155883088Y-27356065D01*
X155851766Y-27314588D01*
X155805584Y-27253432D01*
X155780494Y-27187016D01*
X155795294Y-27117579D01*
X155845285Y-27067167D01*
X155906134Y-27051500D01*
X155999787Y-27051500D01*
X156067908Y-27071502D01*
X156088882Y-27088405D01*
X156414157Y-27413680D01*
X156448183Y-27475992D01*
X156446252Y-27537256D01*
X156389654Y-27736180D01*
X156370768Y-27939995D01*
X156370768Y-27940004D01*
X156389654Y-28143819D01*
X156438566Y-28315725D01*
X156445672Y-28340701D01*
X156536912Y-28523935D01*
X156536913Y-28523936D01*
X156660266Y-28687284D01*
X156811536Y-28825185D01*
X156985566Y-28932940D01*
X156985568Y-28932940D01*
X156985573Y-28932944D01*
X157176444Y-29006888D01*
X157377653Y-29044500D01*
X157377655Y-29044500D01*
X157582345Y-29044500D01*
X157582347Y-29044500D01*
X157783556Y-29006888D01*
X157974427Y-28932944D01*
X158148462Y-28825186D01*
X158299732Y-28687285D01*
X158423088Y-28523935D01*
X158514328Y-28340701D01*
X158570345Y-28143821D01*
X158589232Y-27940000D01*
X158570345Y-27736179D01*
X158514328Y-27539299D01*
X158423088Y-27356065D01*
X158382538Y-27302368D01*
X158299733Y-27192715D01*
X158148463Y-27054814D01*
X157974433Y-26947059D01*
X157974428Y-26947057D01*
X157974427Y-26947056D01*
X157958075Y-26940721D01*
X157783559Y-26873113D01*
X157783560Y-26873113D01*
X157783557Y-26873112D01*
X157783556Y-26873112D01*
X157582347Y-26835500D01*
X157377653Y-26835500D01*
X157176444Y-26873112D01*
X157176442Y-26873112D01*
X157176440Y-26873113D01*
X157091683Y-26905947D01*
X157020936Y-26911903D01*
X156958201Y-26878665D01*
X156957152Y-26877629D01*
X156584118Y-26504595D01*
X156550093Y-26442283D01*
X156555158Y-26371467D01*
X156597705Y-26314632D01*
X156664225Y-26289821D01*
X156673214Y-26289500D01*
X158539787Y-26289500D01*
X158607908Y-26309502D01*
X158628882Y-26326405D01*
X159261237Y-26958760D01*
X159295263Y-27021072D01*
X159290198Y-27091887D01*
X159257028Y-27140969D01*
X159200269Y-27192712D01*
X159076913Y-27356063D01*
X158985671Y-27539301D01*
X158929654Y-27736180D01*
X158910768Y-27939995D01*
X158910768Y-27940004D01*
X158929654Y-28143819D01*
X158978566Y-28315725D01*
X158985672Y-28340701D01*
X159076912Y-28523935D01*
X159076913Y-28523936D01*
X159200266Y-28687284D01*
X159351536Y-28825185D01*
X159525566Y-28932940D01*
X159525568Y-28932940D01*
X159525573Y-28932944D01*
X159716444Y-29006888D01*
X159917653Y-29044500D01*
X159917655Y-29044500D01*
X160122345Y-29044500D01*
X160122347Y-29044500D01*
X160323556Y-29006888D01*
X160514427Y-28932944D01*
X160688462Y-28825186D01*
X160839732Y-28687285D01*
X160963088Y-28523935D01*
X161054328Y-28340701D01*
X161110345Y-28143821D01*
X161129232Y-27940000D01*
X161110345Y-27736179D01*
X161054328Y-27539299D01*
X160963088Y-27356065D01*
X160922538Y-27302368D01*
X160839733Y-27192715D01*
X160688463Y-27054814D01*
X160514433Y-26947059D01*
X160514428Y-26947057D01*
X160514427Y-26947056D01*
X160498075Y-26940721D01*
X160323560Y-26873113D01*
X160323556Y-26873111D01*
X160277138Y-26864434D01*
X160213853Y-26832254D01*
X160211198Y-26829675D01*
X159378118Y-25996595D01*
X159344092Y-25934283D01*
X159349157Y-25863468D01*
X159391704Y-25806632D01*
X159458224Y-25781821D01*
X159467213Y-25781500D01*
X159809787Y-25781500D01*
X159877908Y-25801502D01*
X159898882Y-25818405D01*
X161494158Y-27413680D01*
X161528183Y-27475992D01*
X161526253Y-27537256D01*
X161469654Y-27736180D01*
X161450768Y-27939995D01*
X161450768Y-27940004D01*
X161469654Y-28143819D01*
X161518566Y-28315725D01*
X161525672Y-28340701D01*
X161616912Y-28523935D01*
X161616913Y-28523936D01*
X161740266Y-28687284D01*
X161891536Y-28825185D01*
X162065566Y-28932940D01*
X162065568Y-28932940D01*
X162065573Y-28932944D01*
X162256444Y-29006888D01*
X162457653Y-29044500D01*
X162457655Y-29044500D01*
X162662345Y-29044500D01*
X162662347Y-29044500D01*
X162863556Y-29006888D01*
X163054427Y-28932944D01*
X163228462Y-28825186D01*
X163379732Y-28687285D01*
X163503088Y-28523935D01*
X163594328Y-28340701D01*
X163650345Y-28143821D01*
X163669232Y-27940000D01*
X163669232Y-27939995D01*
X163990768Y-27939995D01*
X163990768Y-27940004D01*
X164009654Y-28143819D01*
X164058566Y-28315725D01*
X164065672Y-28340701D01*
X164156912Y-28523935D01*
X164156913Y-28523936D01*
X164280266Y-28687284D01*
X164431536Y-28825185D01*
X164605566Y-28932940D01*
X164605568Y-28932940D01*
X164605573Y-28932944D01*
X164796444Y-29006888D01*
X164997653Y-29044500D01*
X164997655Y-29044500D01*
X165202345Y-29044500D01*
X165202347Y-29044500D01*
X165403556Y-29006888D01*
X165594427Y-28932944D01*
X165768462Y-28825186D01*
X165919732Y-28687285D01*
X166043088Y-28523935D01*
X166134328Y-28340701D01*
X166190345Y-28143821D01*
X166209232Y-27940000D01*
X166209232Y-27939995D01*
X166530768Y-27939995D01*
X166530768Y-27940004D01*
X166549654Y-28143819D01*
X166598566Y-28315725D01*
X166605672Y-28340701D01*
X166696912Y-28523935D01*
X166696913Y-28523936D01*
X166820266Y-28687284D01*
X166971536Y-28825185D01*
X167145566Y-28932940D01*
X167145568Y-28932940D01*
X167145573Y-28932944D01*
X167336444Y-29006888D01*
X167537653Y-29044500D01*
X167537655Y-29044500D01*
X167742345Y-29044500D01*
X167742347Y-29044500D01*
X167943556Y-29006888D01*
X168134427Y-28932944D01*
X168308462Y-28825186D01*
X168459732Y-28687285D01*
X168583088Y-28523935D01*
X168674328Y-28340701D01*
X168730345Y-28143821D01*
X168749232Y-27940000D01*
X168749232Y-27939995D01*
X169070768Y-27939995D01*
X169070768Y-27940004D01*
X169089654Y-28143819D01*
X169138566Y-28315725D01*
X169145672Y-28340701D01*
X169236912Y-28523935D01*
X169236913Y-28523936D01*
X169360266Y-28687284D01*
X169511536Y-28825185D01*
X169685566Y-28932940D01*
X169685568Y-28932940D01*
X169685573Y-28932944D01*
X169876444Y-29006888D01*
X170077653Y-29044500D01*
X170077655Y-29044500D01*
X170282345Y-29044500D01*
X170282347Y-29044500D01*
X170483556Y-29006888D01*
X170674427Y-28932944D01*
X170848462Y-28825186D01*
X170999732Y-28687285D01*
X171123088Y-28523935D01*
X171214328Y-28340701D01*
X171270345Y-28143821D01*
X171289232Y-27940000D01*
X171277531Y-27813723D01*
X182895500Y-27813723D01*
X182895500Y-28066277D01*
X182935009Y-28315721D01*
X182935010Y-28315725D01*
X183002661Y-28523936D01*
X183013052Y-28555914D01*
X183127709Y-28780941D01*
X183127711Y-28780944D01*
X183159854Y-28825185D01*
X183276156Y-28985261D01*
X183276158Y-28985263D01*
X183276160Y-28985266D01*
X183454733Y-29163839D01*
X183454736Y-29163841D01*
X183454739Y-29163844D01*
X183659059Y-29312291D01*
X183884086Y-29426948D01*
X184124279Y-29504991D01*
X184373723Y-29544500D01*
X184373726Y-29544500D01*
X185626274Y-29544500D01*
X185626277Y-29544500D01*
X185875721Y-29504991D01*
X186115914Y-29426948D01*
X186340941Y-29312291D01*
X186545261Y-29163844D01*
X186723844Y-28985261D01*
X186872291Y-28780941D01*
X186986948Y-28555914D01*
X187064991Y-28315721D01*
X187104500Y-28066277D01*
X187104500Y-27813723D01*
X187064991Y-27564279D01*
X186986948Y-27324086D01*
X186872291Y-27099059D01*
X186723844Y-26894739D01*
X186723841Y-26894736D01*
X186723839Y-26894733D01*
X186620839Y-26791733D01*
X188395500Y-26791733D01*
X188395500Y-29088266D01*
X188401958Y-29148335D01*
X188401959Y-29148340D01*
X188401960Y-29148341D01*
X188452658Y-29284267D01*
X188539596Y-29400404D01*
X188655733Y-29487342D01*
X188791659Y-29538040D01*
X188791662Y-29538040D01*
X188791664Y-29538041D01*
X188851733Y-29544499D01*
X188851741Y-29544499D01*
X188851746Y-29544500D01*
X188851750Y-29544500D01*
X192148250Y-29544500D01*
X192148254Y-29544500D01*
X192148259Y-29544499D01*
X192148266Y-29544499D01*
X192208335Y-29538041D01*
X192208336Y-29538040D01*
X192208341Y-29538040D01*
X192344267Y-29487342D01*
X192460404Y-29400404D01*
X192547342Y-29284267D01*
X192598040Y-29148341D01*
X192604500Y-29088254D01*
X192604500Y-26791746D01*
X192598040Y-26731659D01*
X192547342Y-26595733D01*
X192460404Y-26479596D01*
X192344267Y-26392658D01*
X192208341Y-26341960D01*
X192208340Y-26341959D01*
X192208335Y-26341958D01*
X192148266Y-26335500D01*
X192148254Y-26335500D01*
X188851746Y-26335500D01*
X188851733Y-26335500D01*
X188791664Y-26341958D01*
X188791659Y-26341960D01*
X188655733Y-26392658D01*
X188655732Y-26392658D01*
X188655731Y-26392659D01*
X188539596Y-26479596D01*
X188452659Y-26595731D01*
X188401958Y-26731664D01*
X188395500Y-26791733D01*
X186620839Y-26791733D01*
X186545266Y-26716160D01*
X186545263Y-26716158D01*
X186545261Y-26716156D01*
X186340941Y-26567709D01*
X186115914Y-26453052D01*
X186115911Y-26453051D01*
X186115909Y-26453050D01*
X185875725Y-26375010D01*
X185875723Y-26375009D01*
X185875721Y-26375009D01*
X185626277Y-26335500D01*
X184373723Y-26335500D01*
X184124279Y-26375009D01*
X184124277Y-26375009D01*
X184124274Y-26375010D01*
X183884090Y-26453050D01*
X183884084Y-26453053D01*
X183659055Y-26567711D01*
X183454736Y-26716158D01*
X183454733Y-26716160D01*
X183276160Y-26894733D01*
X183276158Y-26894736D01*
X183127711Y-27099055D01*
X183013053Y-27324084D01*
X183013050Y-27324090D01*
X182935010Y-27564274D01*
X182935009Y-27564277D01*
X182935009Y-27564279D01*
X182895500Y-27813723D01*
X171277531Y-27813723D01*
X171270345Y-27736179D01*
X171214328Y-27539299D01*
X171123088Y-27356065D01*
X171082538Y-27302368D01*
X170999733Y-27192715D01*
X170848463Y-27054814D01*
X170674433Y-26947059D01*
X170674428Y-26947057D01*
X170674427Y-26947056D01*
X170658075Y-26940721D01*
X170483559Y-26873113D01*
X170483560Y-26873113D01*
X170483557Y-26873112D01*
X170483556Y-26873112D01*
X170282347Y-26835500D01*
X170077653Y-26835500D01*
X169876444Y-26873112D01*
X169876439Y-26873113D01*
X169685577Y-26947054D01*
X169685566Y-26947059D01*
X169511536Y-27054814D01*
X169360266Y-27192715D01*
X169236913Y-27356063D01*
X169145671Y-27539301D01*
X169089654Y-27736180D01*
X169070768Y-27939995D01*
X168749232Y-27939995D01*
X168730345Y-27736179D01*
X168674328Y-27539299D01*
X168583088Y-27356065D01*
X168542538Y-27302368D01*
X168459733Y-27192715D01*
X168308463Y-27054814D01*
X168134433Y-26947059D01*
X168134428Y-26947057D01*
X168134427Y-26947056D01*
X168118075Y-26940721D01*
X167943559Y-26873113D01*
X167943560Y-26873113D01*
X167943557Y-26873112D01*
X167943556Y-26873112D01*
X167742347Y-26835500D01*
X167537653Y-26835500D01*
X167336444Y-26873112D01*
X167336439Y-26873113D01*
X167145577Y-26947054D01*
X167145566Y-26947059D01*
X166971536Y-27054814D01*
X166820266Y-27192715D01*
X166696913Y-27356063D01*
X166605671Y-27539301D01*
X166549654Y-27736180D01*
X166530768Y-27939995D01*
X166209232Y-27939995D01*
X166190345Y-27736179D01*
X166134328Y-27539299D01*
X166043088Y-27356065D01*
X166002538Y-27302368D01*
X165919733Y-27192715D01*
X165768463Y-27054814D01*
X165594433Y-26947059D01*
X165594428Y-26947057D01*
X165594427Y-26947056D01*
X165578075Y-26940721D01*
X165403559Y-26873113D01*
X165403560Y-26873113D01*
X165403557Y-26873112D01*
X165403556Y-26873112D01*
X165202347Y-26835500D01*
X164997653Y-26835500D01*
X164796444Y-26873112D01*
X164796439Y-26873113D01*
X164605577Y-26947054D01*
X164605566Y-26947059D01*
X164431536Y-27054814D01*
X164280266Y-27192715D01*
X164156913Y-27356063D01*
X164065671Y-27539301D01*
X164009654Y-27736180D01*
X163990768Y-27939995D01*
X163669232Y-27939995D01*
X163650345Y-27736179D01*
X163594328Y-27539299D01*
X163503088Y-27356065D01*
X163462538Y-27302368D01*
X163379733Y-27192715D01*
X163228463Y-27054814D01*
X163054433Y-26947059D01*
X163054428Y-26947057D01*
X163054427Y-26947056D01*
X163038075Y-26940721D01*
X162863559Y-26873113D01*
X162863560Y-26873113D01*
X162863557Y-26873112D01*
X162863556Y-26873112D01*
X162662347Y-26835500D01*
X162457653Y-26835500D01*
X162357048Y-26854306D01*
X162256442Y-26873112D01*
X162171684Y-26905948D01*
X162100937Y-26911904D01*
X162038202Y-26878666D01*
X162037149Y-26877627D01*
X160254247Y-25094724D01*
X160254245Y-25094723D01*
X160254243Y-25094721D01*
X160167258Y-25044500D01*
X160155792Y-25041427D01*
X160070225Y-25018500D01*
X125044775Y-25018500D01*
X124985390Y-25034412D01*
X124947741Y-25044500D01*
X124860756Y-25094721D01*
X124860751Y-25094725D01*
X124825238Y-25130239D01*
X124789724Y-25165753D01*
X124789722Y-25165755D01*
X120398030Y-29557445D01*
X120398028Y-29557448D01*
X120344729Y-29610746D01*
X120344721Y-29610756D01*
X120294500Y-29697741D01*
X120268500Y-29794776D01*
X120268500Y-61645223D01*
X120268499Y-61645223D01*
X110490000Y-61645223D01*
X110490000Y-27792230D01*
X112045500Y-27792230D01*
X112045500Y-28087769D01*
X112084074Y-28380767D01*
X112084075Y-28380773D01*
X112084076Y-28380775D01*
X112160566Y-28666240D01*
X112273662Y-28939279D01*
X112273663Y-28939280D01*
X112273668Y-28939290D01*
X112421427Y-29195216D01*
X112421432Y-29195222D01*
X112601336Y-29429678D01*
X112601355Y-29429699D01*
X112810300Y-29638644D01*
X112810306Y-29638649D01*
X112810316Y-29638659D01*
X113044780Y-29818570D01*
X113044781Y-29818571D01*
X113044783Y-29818572D01*
X113143252Y-29875423D01*
X113300721Y-29966338D01*
X113573760Y-30079434D01*
X113859225Y-30155924D01*
X113859231Y-30155924D01*
X113859232Y-30155925D01*
X113887417Y-30159635D01*
X114152232Y-30194500D01*
X114152239Y-30194500D01*
X114447761Y-30194500D01*
X114447768Y-30194500D01*
X114740775Y-30155924D01*
X115026240Y-30079434D01*
X115299279Y-29966338D01*
X115555220Y-29818570D01*
X115789684Y-29638659D01*
X115998659Y-29429684D01*
X116178570Y-29195220D01*
X116326338Y-28939279D01*
X116439434Y-28666240D01*
X116515924Y-28380775D01*
X116554500Y-28087768D01*
X116554500Y-27792232D01*
X116515924Y-27499225D01*
X116439434Y-27213760D01*
X116326338Y-26940721D01*
X116278155Y-26857266D01*
X116178572Y-26684783D01*
X116178570Y-26684780D01*
X116000759Y-26453053D01*
X115998663Y-26450321D01*
X115998661Y-26450319D01*
X115998659Y-26450316D01*
X115998653Y-26450310D01*
X115998644Y-26450300D01*
X115789699Y-26241355D01*
X115789678Y-26241336D01*
X115681883Y-26158622D01*
X115555220Y-26061430D01*
X115555218Y-26061429D01*
X115555216Y-26061427D01*
X115299290Y-25913668D01*
X115299285Y-25913665D01*
X115299279Y-25913662D01*
X115026240Y-25800566D01*
X114740775Y-25724076D01*
X114740773Y-25724075D01*
X114740767Y-25724074D01*
X114447769Y-25685500D01*
X114447768Y-25685500D01*
X114152232Y-25685500D01*
X114152230Y-25685500D01*
X113859232Y-25724074D01*
X113573760Y-25800566D01*
X113300719Y-25913663D01*
X113300709Y-25913668D01*
X113044783Y-26061427D01*
X113044777Y-26061432D01*
X112810321Y-26241336D01*
X112810300Y-26241355D01*
X112601355Y-26450300D01*
X112601336Y-26450321D01*
X112421432Y-26684777D01*
X112421427Y-26684783D01*
X112273668Y-26940709D01*
X112273663Y-26940719D01*
X112160566Y-27213760D01*
X112084074Y-27499232D01*
X112045500Y-27792230D01*
X110490000Y-27792230D01*
X110490000Y-24256000D01*
X110510002Y-24187879D01*
X110563658Y-24141386D01*
X110616000Y-24130000D01*
X199264000Y-24130000D01*
X199332121Y-24150002D01*
G37*
%TD.AperFunction*%
%TD*%
M02*
