%TF.GenerationSoftware,KiCad,Pcbnew,8.0.2-1*%
%TF.CreationDate,2024-11-16T15:05:08-05:00*%
%TF.ProjectId,Incubator-PowerBoard,496e6375-6261-4746-9f72-2d506f776572,v01a*%
%TF.SameCoordinates,Original*%
%TF.FileFunction,Paste,Top*%
%TF.FilePolarity,Positive*%
%FSLAX46Y46*%
G04 Gerber Fmt 4.6, Leading zero omitted, Abs format (unit mm)*
G04 Created by KiCad (PCBNEW 8.0.2-1) date 2024-11-16 15:05:08*
%MOMM*%
%LPD*%
G01*
G04 APERTURE LIST*
G04 Aperture macros list*
%AMRoundRect*
0 Rectangle with rounded corners*
0 $1 Rounding radius*
0 $2 $3 $4 $5 $6 $7 $8 $9 X,Y pos of 4 corners*
0 Add a 4 corners polygon primitive as box body*
4,1,4,$2,$3,$4,$5,$6,$7,$8,$9,$2,$3,0*
0 Add four circle primitives for the rounded corners*
1,1,$1+$1,$2,$3*
1,1,$1+$1,$4,$5*
1,1,$1+$1,$6,$7*
1,1,$1+$1,$8,$9*
0 Add four rect primitives between the rounded corners*
20,1,$1+$1,$2,$3,$4,$5,0*
20,1,$1+$1,$4,$5,$6,$7,0*
20,1,$1+$1,$6,$7,$8,$9,0*
20,1,$1+$1,$8,$9,$2,$3,0*%
G04 Aperture macros list end*
%ADD10RoundRect,0.200000X0.275000X-0.200000X0.275000X0.200000X-0.275000X0.200000X-0.275000X-0.200000X0*%
%ADD11RoundRect,0.250000X-0.312500X-1.075000X0.312500X-1.075000X0.312500X1.075000X-0.312500X1.075000X0*%
%ADD12RoundRect,0.150000X-0.512500X-0.150000X0.512500X-0.150000X0.512500X0.150000X-0.512500X0.150000X0*%
%ADD13RoundRect,0.150000X0.150000X-0.512500X0.150000X0.512500X-0.150000X0.512500X-0.150000X-0.512500X0*%
%ADD14RoundRect,0.200000X0.200000X0.275000X-0.200000X0.275000X-0.200000X-0.275000X0.200000X-0.275000X0*%
%ADD15RoundRect,0.150000X0.512500X0.150000X-0.512500X0.150000X-0.512500X-0.150000X0.512500X-0.150000X0*%
%ADD16RoundRect,0.250000X0.312500X1.075000X-0.312500X1.075000X-0.312500X-1.075000X0.312500X-1.075000X0*%
G04 APERTURE END LIST*
D10*
%TO.C,R8*%
X152400000Y-63309000D03*
X152400000Y-61659000D03*
%TD*%
D11*
%TO.C,R1*%
X136713500Y-66040000D03*
X139638500Y-66040000D03*
%TD*%
D12*
%TO.C,Q6*%
X118242500Y-65090000D03*
X118242500Y-66040000D03*
X118242500Y-66990000D03*
X120517500Y-66990000D03*
X120517500Y-66040000D03*
X120517500Y-65090000D03*
%TD*%
D13*
%TO.C,Q2*%
X175580000Y-75432500D03*
X176530000Y-75432500D03*
X177480000Y-75432500D03*
X177480000Y-73157500D03*
X176530000Y-73157500D03*
X175580000Y-73157500D03*
%TD*%
D10*
%TO.C,R6*%
X157480000Y-63309000D03*
X157480000Y-61659000D03*
%TD*%
%TO.C,R5*%
X150368000Y-63309000D03*
X150368000Y-61659000D03*
%TD*%
D14*
%TO.C,R4*%
X149669000Y-33274000D03*
X148019000Y-33274000D03*
%TD*%
D10*
%TO.C,R11*%
X147320000Y-63436000D03*
X147320000Y-61786000D03*
%TD*%
D15*
%TO.C,Q7*%
X120517500Y-61910000D03*
X120517500Y-60960000D03*
X120517500Y-60010000D03*
X118242500Y-60010000D03*
X118242500Y-60960000D03*
X118242500Y-61910000D03*
%TD*%
D14*
%TO.C,R3*%
X149669000Y-35052000D03*
X148019000Y-35052000D03*
%TD*%
D15*
%TO.C,Q3*%
X120517500Y-56830000D03*
X120517500Y-55880000D03*
X120517500Y-54930000D03*
X118242500Y-54930000D03*
X118242500Y-55880000D03*
X118242500Y-56830000D03*
%TD*%
D16*
%TO.C,R2*%
X127192500Y-66040000D03*
X124267500Y-66040000D03*
%TD*%
D10*
%TO.C,R10*%
X144780000Y-63436000D03*
X144780000Y-61786000D03*
%TD*%
D13*
%TO.C,Q1*%
X159070000Y-75432500D03*
X160020000Y-75432500D03*
X160970000Y-75432500D03*
X160970000Y-73157500D03*
X160020000Y-73157500D03*
X159070000Y-73157500D03*
%TD*%
%TO.C,Q4*%
X159070000Y-70987500D03*
X160020000Y-70987500D03*
X160970000Y-70987500D03*
X160970000Y-68712500D03*
X160020000Y-68712500D03*
X159070000Y-68712500D03*
%TD*%
%TO.C,Q5*%
X175580000Y-70987500D03*
X176530000Y-70987500D03*
X177480000Y-70987500D03*
X177480000Y-68712500D03*
X176530000Y-68712500D03*
X175580000Y-68712500D03*
%TD*%
D10*
%TO.C,R9*%
X142240000Y-63309000D03*
X142240000Y-61659000D03*
%TD*%
%TO.C,R7*%
X154940000Y-63309000D03*
X154940000Y-61659000D03*
%TD*%
M02*
