M48
; DRILL file {KiCad 8.0.2-1} date 2024-11-16T15:01:49-0500
; FORMAT={-:-/ absolute / metric / decimal}
; #@! TF.CreationDate,2024-11-16T15:01:49-05:00
; #@! TF.GenerationSoftware,Kicad,Pcbnew,8.0.2-1
; #@! TF.FileFunction,MixedPlating,1,2
FMAT,2
METRIC
; #@! TA.AperFunction,Plated,PTH,ViaDrill
T1C0.254
; #@! TA.AperFunction,Plated,PTH,ComponentDrill
T2C1.000
; #@! TA.AperFunction,Plated,PTH,ComponentDrill
T3C1.800
; #@! TA.AperFunction,NonPlated,NPTH,ComponentDrill
T4C4.000
%
G90
G05
T1
X115.316Y-54.864
X115.824Y-59.944
X116.078Y-54.864
X116.84Y-54.864
X116.84Y-58.928
X116.84Y-59.944
X118.11Y-52.324
X118.11Y-53.086
X118.11Y-53.848
X118.11Y-58.928
X118.872Y-58.928
X120.65Y-68.072
X120.65Y-68.834
X121.666Y-67.056
X121.666Y-67.818
X146.05Y-33.274
X147.32Y-64.262
X150.368Y-60.858
X156.718Y-65.024
X162.052Y-68.072
X162.052Y-68.834
X162.052Y-72.39
X162.052Y-73.152
X162.814Y-68.072
X162.814Y-68.834
X162.814Y-72.39
X162.814Y-73.152
X163.83Y-70.866
X169.545Y-36.83
X169.545Y-38.1
X170.815Y-36.83
X170.815Y-38.1
X177.546Y-67.056
X178.308Y-67.056
X178.308Y-73.152
X178.562Y-67.818
X178.562Y-68.58
X179.07Y-72.39
X179.07Y-73.152
X179.832Y-71.12
T2
X113.03Y-63.5
X113.03Y-66.04
X113.03Y-68.58
X113.03Y-71.12
X121.92Y-71.12
X124.46Y-71.12
X127.0Y-58.42
X127.0Y-71.12
X129.54Y-58.42
X129.54Y-71.12
X132.08Y-58.42
X134.62Y-58.42
X137.16Y-38.1
X137.16Y-58.42
X137.16Y-71.12
X139.7Y-38.1
X139.7Y-58.42
X139.7Y-71.12
X142.24Y-38.1
X142.24Y-58.42
X142.24Y-71.12
X144.78Y-38.1
X144.78Y-58.42
X144.78Y-71.12
X147.32Y-27.94
X147.32Y-30.48
X147.32Y-38.1
X147.32Y-58.42
X149.86Y-27.94
X149.86Y-30.48
X149.86Y-38.1
X149.86Y-58.42
X152.4Y-27.94
X152.4Y-30.48
X152.4Y-38.1
X152.4Y-58.42
X152.4Y-79.375
X154.94Y-27.94
X154.94Y-30.48
X154.94Y-38.1
X154.94Y-58.42
X154.94Y-79.375
X157.48Y-27.94
X157.48Y-30.48
X157.48Y-38.1
X157.48Y-58.42
X157.48Y-79.375
X160.02Y-27.94
X160.02Y-30.48
X160.02Y-38.1
X160.02Y-58.42
X160.02Y-79.375
X160.782Y-64.77
X162.56Y-27.94
X162.56Y-30.48
X162.56Y-38.1
X162.56Y-58.42
X163.322Y-64.77
X165.1Y-27.94
X165.1Y-30.48
X165.1Y-38.1
X165.1Y-58.42
X167.64Y-27.94
X167.64Y-30.48
X168.91Y-79.375
X170.18Y-27.94
X170.18Y-30.48
X171.45Y-79.375
X173.99Y-64.77
X173.99Y-79.375
X175.26Y-30.48
X176.53Y-64.77
X176.53Y-79.375
X177.8Y-30.48
T3
X185.0Y-27.94
X185.0Y-32.14
X185.0Y-36.34
X185.0Y-40.54
X185.0Y-44.74
X185.0Y-48.94
X185.0Y-53.14
X185.0Y-57.34
X185.0Y-61.54
X185.0Y-65.74
X185.0Y-69.94
X185.0Y-74.14
X190.5Y-27.94
X190.5Y-32.14
X190.5Y-36.34
X190.5Y-40.54
X190.5Y-44.74
X190.5Y-48.94
X190.5Y-53.14
X190.5Y-57.34
X190.5Y-61.54
X190.5Y-65.74
X190.5Y-69.94
X190.5Y-74.14
T4
X114.3Y-27.94
X114.3Y-78.74
X200.66Y-27.94
X200.66Y-78.74
M30
